<svg viewBox="0 0 330 200" xmlns="http://www.w3.org/2000/svg"><g><g><g><g><g><line x1="30" y1="178" x2="25" y2="178" style="visibility: inherit;" fill="rgb(0, 0, 0)" stroke="rgb(204, 204, 204)" stroke-width="1px"></line><line x1="30" y1="164.30769230769232" x2="25" y2="164.30769230769232" style="visibility: inherit;" fill="rgb(0, 0, 0)" stroke="rgb(204, 204, 204)" stroke-width="1px"></line><line x1="30" y1="150.6153846153846" x2="25" y2="150.6153846153846" style="visibility: inherit;" fill="rgb(0, 0, 0)" stroke="rgb(204, 204, 204)" stroke-width="1px"></line><line x1="30" y1="136.9230769230769" x2="25" y2="136.9230769230769" style="visibility: inherit;" fill="rgb(0, 0, 0)" stroke="rgb(204, 204, 204)" stroke-width="1px"></line><line x1="30" y1="123.23076923076923" x2="25" y2="123.23076923076923" style="visibility: inherit;" fill="rgb(0, 0, 0)" stroke="rgb(204, 204, 204)" stroke-width="1px"></line><line x1="30" y1="109.53846153846153" x2="25" y2="109.53846153846153" style="visibility: inherit;" fill="rgb(0, 0, 0)" stroke="rgb(204, 204, 204)" stroke-width="1px"></line><line x1="30" y1="95.84615384615384" x2="25" y2="95.84615384615384" style="visibility: inherit;" fill="rgb(0, 0, 0)" stroke="rgb(204, 204, 204)" stroke-width="1px"></line><line x1="30" y1="82.15384615384616" x2="25" y2="82.15384615384616" style="visibility: inherit;" fill="rgb(0, 0, 0)" stroke="rgb(204, 204, 204)" stroke-width="1px"></line><line x1="30" y1="68.46153846153845" x2="25" y2="68.46153846153845" style="visibility: inherit;" fill="rgb(0, 0, 0)" stroke="rgb(204, 204, 204)" stroke-width="1px"></line><line x1="30" y1="54.769230769230774" x2="25" y2="54.769230769230774" style="visibility: inherit;" fill="rgb(0, 0, 0)" stroke="rgb(204, 204, 204)" stroke-width="1px"></line><line x1="30" y1="41.076923076923066" x2="25" y2="41.076923076923066" style="visibility: inherit;" fill="rgb(0, 0, 0)" stroke="rgb(204, 204, 204)" stroke-width="1px"></line><line x1="30" y1="27.384615384615387" x2="25" y2="27.384615384615387" style="visibility: inherit;" fill="rgb(0, 0, 0)" stroke="rgb(204, 204, 204)" stroke-width="1px"></line><line x1="30" y1="13.69230769230768" x2="25" y2="13.69230769230768" style="visibility: inherit;" fill="rgb(0, 0, 0)" stroke="rgb(204, 204, 204)" stroke-width="1px"></line><line x1="30" y1="0" x2="25" y2="0" style="visibility: inherit;" fill="rgb(0, 0, 0)" stroke="rgb(204, 204, 204)" stroke-width="1px"></line></g><g transform="translate(20, 0)"><text x="0" y="178" dx="0em" dy="0.3em" style="text-anchor: end; visibility: hidden; font-family: &quot;Helvetica Neue&quot;, sans-serif; font-size: 12px; font-weight: 200;" fill="rgb(50, 49, 63)" stroke="none" stroke-width="1px">66</text><text x="0" y="164.30769230769232" dx="0em" dy="0.3em" style="text-anchor: end; visibility: inherit; font-family: &quot;Helvetica Neue&quot;, sans-serif; font-size: 12px; font-weight: 200;" fill="rgb(50, 49, 63)" stroke="none" stroke-width="1px">68</text><text x="0" y="150.6153846153846" dx="0em" dy="0.3em" style="text-anchor: end; visibility: hidden; font-family: &quot;Helvetica Neue&quot;, sans-serif; font-size: 12px; font-weight: 200;" fill="rgb(50, 49, 63)" stroke="none" stroke-width="1px">70</text><text x="0" y="136.9230769230769" dx="0em" dy="0.3em" style="text-anchor: end; visibility: inherit; font-family: &quot;Helvetica Neue&quot;, sans-serif; font-size: 12px; font-weight: 200;" fill="rgb(50, 49, 63)" stroke="none" stroke-width="1px">72</text><text x="0" y="123.23076923076923" dx="0em" dy="0.3em" style="text-anchor: end; visibility: hidden; font-family: &quot;Helvetica Neue&quot;, sans-serif; font-size: 12px; font-weight: 200;" fill="rgb(50, 49, 63)" stroke="none" stroke-width="1px">74</text><text x="0" y="109.53846153846153" dx="0em" dy="0.3em" style="text-anchor: end; visibility: inherit; font-family: &quot;Helvetica Neue&quot;, sans-serif; font-size: 12px; font-weight: 200;" fill="rgb(50, 49, 63)" stroke="none" stroke-width="1px">76</text><text x="0" y="95.84615384615384" dx="0em" dy="0.3em" style="text-anchor: end; visibility: hidden; font-family: &quot;Helvetica Neue&quot;, sans-serif; font-size: 12px; font-weight: 200;" fill="rgb(50, 49, 63)" stroke="none" stroke-width="1px">78</text><text x="0" y="82.15384615384616" dx="0em" dy="0.3em" style="text-anchor: end; visibility: inherit; font-family: &quot;Helvetica Neue&quot;, sans-serif; font-size: 12px; font-weight: 200;" fill="rgb(50, 49, 63)" stroke="none" stroke-width="1px">80</text><text x="0" y="68.46153846153845" dx="0em" dy="0.3em" style="text-anchor: end; visibility: hidden; font-family: &quot;Helvetica Neue&quot;, sans-serif; font-size: 12px; font-weight: 200;" fill="rgb(50, 49, 63)" stroke="none" stroke-width="1px">82</text><text x="0" y="54.769230769230774" dx="0em" dy="0.3em" style="text-anchor: end; visibility: inherit; font-family: &quot;Helvetica Neue&quot;, sans-serif; font-size: 12px; font-weight: 200;" fill="rgb(50, 49, 63)" stroke="none" stroke-width="1px">84</text><text x="0" y="41.076923076923066" dx="0em" dy="0.3em" style="text-anchor: end; visibility: hidden; font-family: &quot;Helvetica Neue&quot;, sans-serif; font-size: 12px; font-weight: 200;" fill="rgb(50, 49, 63)" stroke="none" stroke-width="1px">86</text><text x="0" y="27.384615384615387" dx="0em" dy="0.3em" style="text-anchor: end; visibility: inherit; font-family: &quot;Helvetica Neue&quot;, sans-serif; font-size: 12px; font-weight: 200;" fill="rgb(50, 49, 63)" stroke="none" stroke-width="1px">88</text><text x="0" y="13.69230769230768" dx="0em" dy="0.3em" style="text-anchor: end; visibility: hidden; font-family: &quot;Helvetica Neue&quot;, sans-serif; font-size: 12px; font-weight: 200;" fill="rgb(50, 49, 63)" stroke="none" stroke-width="1px">90</text><text x="0" y="0" dx="0em" dy="0.3em" style="text-anchor: end; visibility: hidden; font-family: &quot;Helvetica Neue&quot;, sans-serif; font-size: 12px; font-weight: 200;" fill="rgb(50, 49, 63)" stroke="none" stroke-width="1px">92</text></g><line x1="30" y1="0" x2="30" y2="178" fill="rgb(0, 0, 0)" stroke="rgb(204, 204, 204)" stroke-width="1px"></line></g></g><g transform="translate(30, 0)" clip-path="url(#clip_0)"><clipPath id="clip_0"><rect width="300" height="178"></rect></clipPath><g><g><g><line x1="0" y1="0" x2="0" y2="178" fill="rgb(0, 0, 0)" stroke="rgb(60, 60, 60)" stroke-width="1px" opacity="0.25"></line><line x1="20" y1="0" x2="20" y2="178" fill="rgb(0, 0, 0)" stroke="rgb(60, 60, 60)" stroke-width="1px" opacity="0.25"></line><line x1="40" y1="0" x2="40" y2="178" fill="rgb(0, 0, 0)" stroke="rgb(60, 60, 60)" stroke-width="1px" opacity="0.25"></line><line x1="60" y1="0" x2="60" y2="178" fill="rgb(0, 0, 0)" stroke="rgb(60, 60, 60)" stroke-width="1px" opacity="0.25"></line><line x1="80" y1="0" x2="80" y2="178" fill="rgb(0, 0, 0)" stroke="rgb(60, 60, 60)" stroke-width="1px" opacity="0.25"></line><line x1="100" y1="0" x2="100" y2="178" fill="rgb(0, 0, 0)" stroke="rgb(60, 60, 60)" stroke-width="1px" opacity="0.25"></line><line x1="120" y1="0" x2="120" y2="178" fill="rgb(0, 0, 0)" stroke="rgb(60, 60, 60)" stroke-width="1px" opacity="0.25"></line><line x1="140" y1="0" x2="140" y2="178" fill="rgb(0, 0, 0)" stroke="rgb(60, 60, 60)" stroke-width="1px" opacity="0.25"></line><line x1="160" y1="0" x2="160" y2="178" fill="rgb(0, 0, 0)" stroke="rgb(60, 60, 60)" stroke-width="1px" opacity="0.25"></line><line x1="180" y1="0" x2="180" y2="178" fill="rgb(0, 0, 0)" stroke="rgb(60, 60, 60)" stroke-width="1px" opacity="0.25"></line><line x1="200" y1="0" x2="200" y2="178" fill="rgb(0, 0, 0)" stroke="rgb(60, 60, 60)" stroke-width="1px" opacity="0.25"></line><line x1="219.99999999999997" y1="0" x2="219.99999999999997" y2="178" fill="rgb(0, 0, 0)" stroke="rgb(60, 60, 60)" stroke-width="1px" opacity="0.25"></line><line x1="240" y1="0" x2="240" y2="178" fill="rgb(0, 0, 0)" stroke="rgb(60, 60, 60)" stroke-width="1px" opacity="0.25"></line><line x1="260" y1="0" x2="260" y2="178" fill="rgb(0, 0, 0)" stroke="rgb(60, 60, 60)" stroke-width="1px" opacity="0.25"></line><line x1="280" y1="0" x2="280" y2="178" fill="rgb(0, 0, 0)" stroke="rgb(60, 60, 60)" stroke-width="1px" opacity="0.25"></line><line x1="300" y1="0" x2="300" y2="178" fill="rgb(0, 0, 0)" stroke="rgb(60, 60, 60)" stroke-width="1px" opacity="0.25"></line></g><g><line x1="0" y1="178" x2="300" y2="178" fill="rgb(0, 0, 0)" stroke="rgb(60, 60, 60)" stroke-width="1px" opacity="0.25"></line><line x1="0" y1="164.30769230769232" x2="300" y2="164.30769230769232" fill="rgb(0, 0, 0)" stroke="rgb(60, 60, 60)" stroke-width="1px" opacity="0.25"></line><line x1="0" y1="150.6153846153846" x2="300" y2="150.6153846153846" fill="rgb(0, 0, 0)" stroke="rgb(60, 60, 60)" stroke-width="1px" opacity="0.25"></line><line x1="0" y1="136.9230769230769" x2="300" y2="136.9230769230769" fill="rgb(0, 0, 0)" stroke="rgb(60, 60, 60)" stroke-width="1px" opacity="0.25"></line><line x1="0" y1="123.23076923076923" x2="300" y2="123.23076923076923" fill="rgb(0, 0, 0)" stroke="rgb(60, 60, 60)" stroke-width="1px" opacity="0.25"></line><line x1="0" y1="109.53846153846153" x2="300" y2="109.53846153846153" fill="rgb(0, 0, 0)" stroke="rgb(60, 60, 60)" stroke-width="1px" opacity="0.25"></line><line x1="0" y1="95.84615384615384" x2="300" y2="95.84615384615384" fill="rgb(0, 0, 0)" stroke="rgb(60, 60, 60)" stroke-width="1px" opacity="0.25"></line><line x1="0" y1="82.15384615384616" x2="300" y2="82.15384615384616" fill="rgb(0, 0, 0)" stroke="rgb(60, 60, 60)" stroke-width="1px" opacity="0.25"></line><line x1="0" y1="68.46153846153845" x2="300" y2="68.46153846153845" fill="rgb(0, 0, 0)" stroke="rgb(60, 60, 60)" stroke-width="1px" opacity="0.25"></line><line x1="0" y1="54.769230769230774" x2="300" y2="54.769230769230774" fill="rgb(0, 0, 0)" stroke="rgb(60, 60, 60)" stroke-width="1px" opacity="0.25"></line><line x1="0" y1="41.076923076923066" x2="300" y2="41.076923076923066" fill="rgb(0, 0, 0)" stroke="rgb(60, 60, 60)" stroke-width="1px" opacity="0.25"></line><line x1="0" y1="27.384615384615387" x2="300" y2="27.384615384615387" fill="rgb(0, 0, 0)" stroke="rgb(60, 60, 60)" stroke-width="1px" opacity="0.25"></line><line x1="0" y1="13.69230769230768" x2="300" y2="13.69230769230768" fill="rgb(0, 0, 0)" stroke="rgb(60, 60, 60)" stroke-width="1px" opacity="0.25"></line><line x1="0" y1="0" x2="300" y2="0" fill="rgb(0, 0, 0)" stroke="rgb(60, 60, 60)" stroke-width="1px" opacity="0.25"></line></g></g></g><g><g><line x1="0" y1="629.8461538461538" x2="300" y2="629.8461538461538" fill="rgb(0, 0, 0)" stroke="rgb(153, 153, 153)" stroke-width="1.5px"></line></g></g><g><g><line x1="20" y1="0" x2="20" y2="178" fill="rgb(0, 0, 0)" stroke="rgb(153, 153, 153)" stroke-width="1.5px"></line></g></g><g><g><g><g><g><path stroke="rgb(255, 112, 67)" stroke-width="2px" d="M28.4,210.16780788526745L28.851000000000003,168.60959189137228L29.101,160.17210861834243L29.201,156.8999996016347L29.250999999999998,155.82845994002324L29.450999999999997,155.5392095213136L29.851,155.24278555912477L30.251,154.63873063092853L30.301000000000002,154.43736826670863L30.551000000000002,154.26551734365077L31.101,153.59682521417545L31.401,153.07081216104507L31.651,152.64394549861774L31.801000000000002,152.39928798683744L32.401,151.88856779394416L32.701,151.47583177758003L32.951,151.12364218417173L33.301,150.71791763928852L33.501000000000005,150.42219978519478L33.601,150.22043346930622L34.551,149.34269723580388L34.801,148.84190353813528L34.851,148.6489605385102L35.101,148.37353132232906L35.351,148.11847425030834L35.451,147.94854018111718L35.851,147.54955897910224L35.900999999999996,147.38924378532099L36.251,147.0452496746213L36.451,146.7772281147136L36.901,146.37211091816934L37.301,145.9401609314191L38.052,134.7864620602251L38.251999999999995,131.758189395092L38.752,131.25258874836538L38.852,130.9280780607138L40.952,130.28839468474067L41.002,130.09323561780576L41.402,129.89139982822036L41.852000000000004,129.63615427886356L41.952,129.53797223205152L42.002,129.5227769563868L42.152,129.40545991327573L42.452,129.26481882115064L42.902,129.00277674563532L43.052,128.9144750853643L43.102,128.8758458684579L43.602,128.7280987030705L44.452,128.4027193377654L44.552,128.2698228062876L45.252,127.94421864317465L45.501999999999995,127.79352190539612L45.602000000000004,127.6943102102532L45.752,127.62114712566989L46.152,127.46289355035498L46.452,127.32042834671334L46.552,127.25831071038795L46.653000000000006,121.27067981167407L46.953,118.78431168933305L47.203,118.17196372211319L47.703,117.72420563509478L48.00300000000001,117.59298601350774L48.303,117.3437153536129L48.503,117.29993907601698L48.803,117.44910671341513L48.903,117.52946878817569L49.053,117.45496860135276L49.153000000000006,117.43499510170244L49.202999999999996,117.44355488943505L49.453,117.33332780293709L49.503,117.28252691002929L49.952999999999996,117.24074233532859L50.253,117.20981607265007L50.353,117.20013600737947L50.603,117.16600769298914L50.853,117.09419810679996L50.953,117.05653120985322L51.553,116.98190505340442L51.903,116.89710517925747L51.953,116.86438929819957L52.053,116.87453760761267L52.153,116.87597335456826L52.203,116.85143195528876L52.303,116.80827493993326L52.903,116.76037417509522L53.053,116.75594892010294L53.253,116.69151463067708L53.403,116.64457972724398L53.553,116.61177930429095L53.753,116.57027613372276L53.803,116.54685646072231L54.003,116.49997753617345L54.253,116.42829150679559L54.803,116.3495655324361L55.153,116.27585724377155L55.504,110.37626485182362L55.704,109.35558739762939L55.854000000000006,109.29395009577246L55.903999999999996,109.11747274845825L55.954,109.28628053725905L56.304,109.06394794995855L56.604,108.77531436874287L56.704,108.60437482350596L56.754,108.52610990423335L56.954,108.56219058798808L57.154,108.6476752263702L57.354,108.74311825112923L57.403999999999996,108.77058116156175L57.604,108.69289838035702L58.054,108.75668519732531L58.254,108.8205736274819L58.304,108.8688438317843L58.354000000000006,108.89199018332067L58.454,108.83655862397535L58.504000000000005,108.82362195918783L58.804,108.77286795513164L59.004,108.73149963355354L59.054,108.71649320624697L59.153999999999996,108.72380093522517L59.254000000000005,108.67305088988628L59.404,108.64283528978366L59.454,108.59687914199822L59.504000000000005,108.56089891716005L59.70399999999999,108.62593527995952L59.903999999999996,108.62058375265143L60.153999999999996,108.63554106442228L60.204,108.64269731359875L60.254000000000005,108.6711691207436L61.404,108.6898384493767L61.604000000000006,108.66765181933079L61.704,108.6567180288033L61.954,108.61852079381984L63.153999999999996,108.5008112711989L63.254,108.4543468805521L63.504000000000005,108.41993261594222L63.604,108.41545832153524L63.804,108.38680391585669L63.903999999999996,108.3850813264998L64.255,102.79391672019676L64.555,100.99642327186213L64.755,101.32534957020056L65.105,101.56493897281051L65.205,101.59454965214218L65.505,101.71019508175296L65.605,101.61615247875893L65.755,101.69422661239273L65.905,101.72247509008801L66.305,101.6694151039307L66.355,101.61609376664353L66.50500000000001,101.60689797299183L66.855,101.74676918109155L67.005,101.7871949224653L67.455,101.9282416887851L67.655,102.00700843756255L67.805,101.98208358689531L67.85499999999999,101.9698530189022L68.30499999999999,101.99382502751563L68.355,101.99889601054582L68.555,102.02443880626248L68.655,102.02658072165643L68.705,102.01800956993745L68.905,101.99609671159502L68.955,101.97588507661709L69.105,101.9630575409952L69.155,101.97482142771325L69.555,101.91418357102356L69.75500000000001,101.91153123660904L69.855,101.90152180994757L69.955,101.89939647969551L70.005,101.89539513925877L70.455,101.91847217477797L70.605,101.9085400162217L71.005,101.90757130099034L71.10499999999999,101.89492259315925L71.355,101.85511401080157L71.605,101.85275078649248L71.955,101.83836747931844L72.605,101.81196879388193L72.905,101.85052000640383L73.05499999999999,101.84201260921154L73.106,88.55436388408188L73.306,93.23697919038983L73.506,94.57127146332192L73.60600000000001,94.95009701282096L73.856,94.99361798277135L73.906,94.90177673065621L74.35600000000001,95.32609913200871L74.656,95.3457561288567L74.856,95.29403087589792L74.906,95.31814694822239L75.40599999999999,95.5658527148378L75.656,95.68539214116785L76.35600000000001,95.8878688536635L76.456,95.94484593958387L77.456,96.1781325726279L77.506,96.25499229488786L77.70599999999999,96.3185613575244L77.756,96.33536520713719L77.806,96.3438797906005L78.706,96.4171092966303L78.956,96.49165488841065L79.306,96.49935704109876L79.356,96.50005894103685L79.65599999999999,96.50845948998466L79.756,96.52275274943304L80.006,96.51720544002679L80.106,96.53100714498505L81.306,96.60885746716964L81.406,96.65067657890542L81.506,96.65141265525592L81.90599999999999,96.62468698486552L82.007,91.51339832756233L82.407,89.9356615317723L82.557,89.35316514842141L82.707,89.30470278408478L83.357,89.40113097729653L83.70700000000001,89.60299961611187L84.007,89.78410646066743L84.307,90.07294978675799L84.357,90.2072801621392L84.657,90.45883685719795L85.157,90.64143171558791L85.407,90.72842165287875L85.457,90.77685826419297L85.607,90.83815256498889L85.907,90.88593702973178L86.007,90.93756602337642L86.157,90.97455341625651L86.307,91.01581361915284L86.457,91.05769754174425L86.50699999999999,91.09362609601932L87.407,91.26659549576038L88.157,91.44477286635131L88.907,91.57113151529157L89.057,91.62710093858693L89.10699999999999,91.63464147683226L89.207,91.65423421879711L89.25699999999999,91.66453609252467L90.30699999999999,91.72115401717298L90.357,91.75174060963657L90.607,91.77630936034363L90.75699999999999,91.79761026227978L90.908,85.73921142106306L91.00800000000001,84.80789136774398L91.208,85.3143677084565L91.408,85.25450459213437L91.608,85.18385923004789L92.858,85.78883338828652L92.908,86.00538898320772L93.458,86.34771807435686L93.858,86.39213632637856L93.908,86.39314027112943L94.058,86.50956365632757L94.15799999999999,86.54028599518554L94.208,86.58131199014974L94.658,86.7551524987877L95.008,86.81527525590889L95.758,86.89334755386102L95.80799999999999,86.931906079372L95.958,86.99349100856978L96.908,87.15788705007319L97.158,87.25287230774282L97.208,87.28414662790726L97.30799999999999,87.28683800364037L97.658,87.31481128409243L98.008,87.3389982276631L98.05799999999999,87.3403677633523L98.508,87.3877247534912L98.70800000000001,87.40269966106092L98.80799999999999,87.41973303862405L99.00800000000001,87.45924827603292L99.45800000000001,87.54239953915003L99.759,83.68379582938707L99.809,82.13298603885521L100.059,81.21126146154016L100.459,81.35455363518315L100.909,81.64093722468208L100.959,81.77855154375686L101.15899999999999,81.78224968600865L101.409,81.86449110781959L101.559,81.97311081876789L101.659,82.05224067501744L101.80900000000001,82.13466229368242L101.959,82.26311632538687L102.159,82.41229037575609L102.55900000000001,82.44355106301612L102.95899999999999,82.4653970496741L103.159,82.56485591957093L103.30900000000001,82.64573469945532L103.359,82.68385548533234L103.659,82.66465242478392L104.109,82.80759081222712L104.309,82.84637733897691L104.35900000000001,82.89457570310157L104.409,82.91813925145784L104.50900000000001,82.93014424078822L104.659,82.98193498882677L105.009,83.04993926599155L105.459,83.21794298256572L105.509,83.27686313815914L105.959,83.37859615646056L106.15899999999999,83.4369400529929L106.259,83.4558325933844L106.40899999999999,83.48106124276524L106.659,83.51243196395038L106.709,83.52228192917917L106.809,83.5355475172679L106.859,83.55663839974922L106.90899999999999,83.58194155325938L107.15899999999999,83.61432181064804L107.85900000000001,83.72717843547204L108.30900000000001,83.83459898399195L108.56,79.72832640211627L108.91,77.15171589361039L108.96000000000001,76.58922251297494L109.41000000000001,76.7328636965007L109.76,77.33477586638716L110.36,77.82287591505813L110.71,78.05358227571935L110.81,78.18564496000323L111.00999999999999,78.36559027989932L111.50999999999999,78.52319173475482L111.56,78.55954001178769L111.71000000000001,78.59000538216085L111.96,78.66089889717531L112.16000000000001,78.75123333680212L112.81,78.92472954271364L112.96,79.00087303010679L113.26,79.06411753506495L113.30999999999999,79.09139055273708L113.36,79.12476395584139L114.16,79.37652660590437L115.06,79.60861562384241L115.36,79.76248211287772L115.71,79.83803823409241L116.00999999999999,79.92264178638985L116.21000000000001,79.98893618450472L116.31,80.02948226338556L116.41,80.07491787660055L116.71000000000001,80.12328284635987L116.86,80.19139282462992L116.96,80.22648734295691L117.10999999999999,80.2402697525979L117.25999999999999,80.2395416754789L117.361,83.64076045420994L117.811,75.94373441349407L117.91099999999999,74.13227751070316L118.511,73.72456009130822L118.561,73.59383551208677L118.611,73.63882135956808L119.311,73.74233375763005L119.511,73.88051532692091L119.711,74.03984699497384L119.911,74.21846678441467L119.961,74.30974856193578L120.111,74.46473589248023L120.21100000000001,74.55737384814145L120.31099999999999,74.69130589974739L120.711,74.97846456843314L120.811,75.11525110148693L120.96100000000001,75.20465912467316L121.111,75.27703828962927L121.26100000000001,75.33875131138925L121.36099999999999,75.3779229773636L121.511,75.4174619057918L122.461,75.69732602103144L123.06099999999999,75.96548665753396L123.111,76.06059637333071L123.161,76.10404674975845L123.26100000000001,76.15170646126325L123.31099999999999,76.17477935217858L123.411,76.21987237142135L123.511,76.27928609684932L123.711,76.32954106868827L123.911,76.40377553330931L124.161,76.45953703668305L124.261,76.50496697648346L124.611,76.58071548638704L124.76100000000001,76.6262184183583L125.011,76.68283012511696L125.21100000000001,76.76763690045956L125.461,76.84470505047517L125.561,76.87963515265008L125.61099999999999,76.88930981036839L126.161,76.99049195528L126.31200000000001,71.35535552397133L126.462,68.93477303198483L126.61200000000001,68.85622818363396L126.662,68.72107626571217L126.812,69.14158263125364L126.862,69.19453660390437L126.962,69.44639656466742L127.21199999999999,69.8707964694942L127.262,69.9661974604171L127.612,70.1251261730335L127.66199999999999,70.28355231489462L127.86200000000001,70.48383789013776L127.96199999999999,70.63496395389909L128.062,70.74169005286895L128.262,70.78723597281683L128.762,71.08868244721242L128.862,71.23246094003062L128.962,71.26992731493058L129.012,71.31049027709264L129.21200000000002,71.41991516596667L129.362,71.46100573640739L129.762,71.63607217708966L129.96200000000002,71.74723820867828L130.662,72.08961347451009L130.862,72.26289149803215L130.962,72.32858580737613L131.212,72.41004800408191L131.262,72.43371885256552L131.362,72.485316555334L131.46200000000002,72.54854636853082L131.512,72.57248779971943L131.612,72.59619643663314L131.712,72.6338020743944L131.762,72.66354778080323L132.112,72.77466341777466L132.262,72.88558353460971L132.512,72.96836506751941L133.462,73.28058003933644L133.962,73.51274292518744L134.262,73.66732626031244L134.412,73.74496211806516L134.562,73.79633280327562L134.712,73.79134218623506L134.762,73.79989966280033L134.812,73.80286909223707L135.263,69.21543389239093L135.31300000000002,67.48904516921972L135.363,66.70012799825695L135.463,66.5885328382354L136.06300000000002,67.23412785871972L136.113,67.39157302042022L136.213,67.4630108817684L136.613,67.67902736543573L137.063,67.94806991100921L137.913,68.46080406515601L138.613,68.82120190586366L138.81300000000002,68.99034391385648L138.863,69.05366398395263L138.963,69.09068527118869L139.363,69.17133335376118L139.463,69.24371702977245L139.66299999999998,69.38224902006459L140.163,69.48834126391833L140.563,69.58945469663352L140.613,69.63306087986228L141.16299999999998,69.80306858181108L141.563,70.02244077248503L141.863,70.17183409003125L141.91299999999998,70.2198330146258L142.013,70.24907702888075L142.113,70.29777638061813L142.363,70.38331725397283L143.31300000000002,70.63690955560521L143.613,70.75580182363773L143.663,70.8017069777554L144.114,66.3804221016838L144.214,65.13213393829139L144.364,64.9810437905432L144.414,64.92807520334384L144.464,64.9500632799034L145.01399999999998,64.90847045163186L145.164,64.85741926471513L145.464,64.91939683513499L145.714,65.16701701806979L145.814,65.2670430068445L145.914,65.34322912238096L146.014,65.46732625953214L146.464,65.64089661302346L146.664,65.6501897039341L146.864,65.76646733974097L146.964,65.80683499139799L147.114,65.88366074569161L147.564,66.11679605742896L147.614,66.20706534874164L148.114,66.48986360439716L148.214,66.5717780886059L148.81400000000002,66.71496087925604L148.864,66.75462509990209L148.914,66.77734683830144L149.114,66.8372154110721L149.314,66.92976329134675L149.614,67.08783607076867L149.664,67.15046786553282L149.814,67.2023098190762L150.214,67.30531968052986L150.464,67.41212619402904L150.614,67.46840902332296L150.764,67.54317216096698L150.814,67.57287702107408L151.214,67.69878817862545L151.51399999999998,67.80105761025082L151.814,67.89828201884004L152.064,67.98097670394681L152.965,64.18058962091594L153.165,62.05259384559726L153.26500000000001,61.37723052043478L153.51500000000001,61.26935471709055L153.765,61.62550410330326L154.41500000000002,61.77296975234394L154.61499999999998,61.97983902938786L154.76500000000001,62.07290473287358L155.515,62.574124790880745L156.065,62.91998999369834L156.11499999999998,63.03544952449553L156.26500000000001,63.1490987433163L156.565,63.26948078735792L156.915,63.383436763156794L156.965,63.438829751434355L157.015,63.48217476677655L157.065,63.50856011201161L157.115,63.54082627804462L157.16500000000002,63.57160263617412L157.565,63.7020033574275L158.715,64.14305410405817L158.765,64.30337613111978L158.815,64.36386739490614L159.165,64.48928887353881L159.715,64.649874688842L159.815,64.72053631318437L160.415,64.89730783844148L160.465,64.9656955065806L160.615,65.01462079656179L160.71499999999997,65.05251551142949L160.76500000000001,65.07006297252073L160.865,65.10889149964763L161.76600000000002,59.49212326278872L162.01600000000002,58.27867470560574L162.166,58.30772256642936L162.316,58.528169818400116L162.766,58.808486568923826L162.816,58.92318432798635L163.11599999999999,59.00245572798957L163.216,59.097131653417975L163.26600000000002,59.13043379346381L163.566,59.239069807134754L163.716,59.34394448809519L164.016,59.66004522386997L164.11599999999999,59.78800098452881L164.216,59.86766666921311L164.36599999999999,60.0074326395485L165.066,60.43107395033056L165.166,60.56207852101788L165.216,60.64671727578778L165.266,60.67635014132634L165.816,60.84622427504513L166.316,61.02961555005412L166.716,61.19421046363779L167.566,61.53042101356556L167.916,61.70104524938223L167.96599999999998,61.76287218030224L168.116,61.81359517694602L168.61599999999999,61.97056452438788L168.916,62.114691954409196L169.11599999999999,62.21909908882054L169.366,62.310932011239075L169.466,62.35475215867899L169.56599999999997,62.384058786406996L169.666,62.42458694322009L169.766,62.453417847445536L169.966,62.51596010530416L170.016,62.546642127050276L170.166,62.59873443592916L170.46599999999998,62.68277039040541L170.517,55.63955401751234L170.667,53.76556099191241L171.06699999999998,53.9817767100963L171.167,53.97424786147394L171.217,54.05268243714934L171.267,54.038626656381496L171.667,54.27477117985096L172.417,54.60758417659659L172.517,54.72128522753205L172.617,54.81718600912127L172.717,54.928294782134685L172.817,54.997166072767655L173.26700000000002,55.112633778974285L173.46699999999998,55.2368519857807L174.117,55.45155480462475L174.317,55.58609234517726L175.267,55.79189849494445L176.01700000000002,56.06365480051163L176.067,56.16046477793142L176.36700000000002,56.23031141636477L176.417,56.267425991390866L176.517,56.29336813836912L176.667,56.315190746404895L176.917,56.3638939830486L177.117,56.42720607896659L177.217,56.480056495790365L178.017,56.64925435201991L178.367,56.75105482780404L178.567,56.84539636918339L178.917,56.89783001962303L178.96699999999998,56.929757260657055L179.317,57.02825520460189L179.418,51.79607216356281L180.61800000000002,50.09194072161618L180.768,49.67408167421101L181.118,49.887474652503755L181.268,50.02735953864858L181.318,50.04680256233456L181.41799999999998,50.07790009205529L181.468,50.15296855713885L181.818,50.394205409952704L182.46800000000002,50.861962325359684L182.71800000000002,51.17288958684327L183.168,51.40433709793933L183.26799999999997,51.504045023518685L183.368,51.572457614815534L183.71800000000002,51.73041947673369L184.368,51.923582348428795L184.468,52.019519549875014L184.768,52.14193703233032L185.168,52.35759869251916L185.46800000000002,52.50225917271595L185.518,52.568581945399586L185.568,52.61279277726095L185.768,52.658340631405466L186.01799999999997,52.754160714155006L186.36800000000002,52.87336213167062L186.768,53.0353359827817L186.96800000000002,53.14944796984581L187.16799999999998,53.25918293456104L187.268,53.31904991727119L187.568,53.43971381081839L187.81799999999998,53.57166992045781L187.918,53.64313917146865L188.018,53.686407703213476L188.168,53.74812595006793L188.369,48.832946907428806L188.969,47.39214029546713L189.219,47.14870657697773L189.46900000000002,47.41559715094036L190.369,47.870684922494405L190.569,48.08742917294353L190.719,48.199727639165246L190.96900000000002,48.29688951602097L191.31900000000002,48.451593381624264L191.51899999999998,48.592554923479184L191.619,48.69710916362354L191.919,48.87399381194396L191.969,48.922817967332406L192.269,49.068395190192234L192.619,49.20804467306206L192.91899999999998,49.36185704299433L193.06900000000002,49.48035775564546L193.369,49.600294002719124L193.91899999999998,49.84095122618763L194.019,49.91987587595048L194.51899999999998,50.116164390076335L194.669,50.22236269780714L194.769,50.259633426229215L195.019,50.34401258176753L195.81900000000002,50.55389335442062L195.919,50.65016593817339L196.169,50.7367431901247L196.219,50.77105259430084L196.419,50.813995644200745L196.519,50.86051597278255L196.819,50.957907482076706L196.869,51.00094552437059L197.17,45.86641859430421L197.77,44.690075830413434L198.02,44.41139468562872L198.62,44.55652475475341L198.67000000000002,44.668910786176696L198.97,44.94072098412525L199.02,45.01933905102189L199.72,45.49344643905215L199.92,45.6708516901291L200.01999999999998,45.735261361718756L200.12,45.79469322268713L200.26999999999998,45.888316648822354L200.42000000000002,45.927408960899044L200.87,46.07620911498998L201.17,46.22150546520999L201.27,46.322351098228154L201.82,46.5841179435572L201.87,46.66506111595854L202.17000000000002,46.77314510245958L202.52,46.94333744459382L203.72,47.33044022169699L204.02,47.52927521742555L204.12,47.62903467563561L205.17,48.004221313898626L205.32,48.172754349116275L205.52,48.2926365816468L205.57000000000002,48.33562123337697L205.62,48.369247513154676L205.871,43.78164939244928L206.021,42.35096509596124L206.12099999999998,41.889840826489745L206.571,41.493702020238885L206.921,41.87390065921926L207.171,42.257534871086904L207.571,42.535656903445954L207.77100000000002,42.79349619024961L207.97099999999998,42.86507111612687L208.621,43.08950151014977L208.721,43.15262595165524L208.87099999999998,43.26238430085874L209.47099999999998,43.589675737128914L209.671,43.80442411865596L209.921,44.000912043946414L210.021,44.09930925771525L210.52100000000002,44.3097026448213L210.62099999999998,44.410589626454254L210.721,44.488130912031124L211.371,44.723711189925524L212.171,45.08823733111757L212.421,45.26614968491219L212.771,45.46010584250419L212.921,45.57094255456539L213.021,45.62624069906201L214.021,45.93284314759427L214.071,46.038351972410766L214.121,46.08108302890406L214.371,46.15759405727775L214.471,46.21038228916734L214.922,41.00371779625672L215.322,39.59648711340384L215.622,39.43771348209057L215.672,39.3811967280144L215.87199999999999,39.47155236369434L216.422,39.86442936502033L216.72199999999998,40.11651305821036L217.022,40.43268223589766L217.172,40.5153211455665L217.922,40.94983114122107L218.122,41.1823029401541L218.472,41.398586603481846L218.672,41.51184376575017L218.92200000000003,41.6313038198918L219.172,41.79203901537113L219.372,41.93634557724508L219.422,42.007095912788174L219.972,42.26721977490689L220.022,42.35703002830667L220.572,42.59084319803901L220.672,42.686324896385884L220.72199999999998,42.72798562246143L221.072,42.87448505863978L221.172,42.934302973740586L221.222,42.95374740692091L221.272,42.97778881511266L221.32199999999997,42.9953849609025L221.62199999999999,43.090205137177776L222.722,43.491880231526665L222.872,43.65662327121217L223.572,43.95847303483049L223.773,38.92988892348248L223.823,37.21265203846676L223.923,36.63455707206444L224.323,36.70152640224964L224.573,36.98735276883821L224.923,37.169552306106L226.323,38.18302470484642L227.223,38.830241168120835L227.473,39.187766937556944L227.923,39.467672349990835L227.97299999999998,39.58407482793146L228.523,39.88911862757868L228.57299999999998,39.99532985472493L228.673,40.07498028764121L228.773,40.1555837093768L228.923,40.20166561715132L228.973,40.2412666857839L229.073,40.28638223351837L230.223,40.719763007082236L230.47299999999998,40.929556409261124L230.623,41.03413901046241L230.773,41.107268058588716L231.023,41.22408621685554L231.573,41.43890901512805L232.02300000000002,41.62594960226235L232.173,41.745278178549086L232.22299999999998,41.79387359357003L232.624,37.43087189815816L232.92399999999998,35.53408446185662L233.724,35.739586241783485L234.024,36.025693386807944L234.22400000000002,36.29726255330203L234.374,36.33796622044903L234.674,36.504763173582944L234.77400000000003,36.65469075298759L235.224,36.90613693405436L235.424,37.10921014806863L235.72400000000002,37.311299562224065L235.974,37.520406317641914L236.27399999999997,37.72660922580263L236.724,37.92678568052628L237.07399999999998,38.1192310894306L237.274,38.2663597950158L237.724,38.46011177245157L237.874,38.59165467713058L238.47400000000002,38.80369210532518L238.824,38.99472331904127L238.974,39.10000255995891L239.074,39.16328593832279L239.124,39.205488079705276L239.324,39.26165798537872L239.374,39.292475796210795L239.424,39.32877731997431L240.024,39.51955481511416L240.324,39.64918162773361L240.374,39.698526519664L240.474,39.74641896476342L240.774,39.83895712253445L240.924,39.89659005564937L241.22400000000002,39.977535084603545L241.375,35.02834417875769L241.725,33.098768674394336L242.225,32.22823770962759L242.525,32.11032992729636L242.72500000000002,32.1243899656439L242.875,32.143306064400235L243.27499999999998,32.243311901764486L243.375,32.302015141762126L244.025,32.53307744057179L244.22500000000002,32.63226761599819L244.275,32.66984902353141L245.225,32.9050316207464L245.275,33.00512882403942L245.425,33.11018404234409L245.775,33.26773122166131L245.875,33.31013257544518L246.27499999999998,33.48387381804372L246.375,33.551169589354714L246.425,33.59574544561656L247.075,33.78776211869851L247.17499999999998,33.86266113870829L247.225,33.88860427329067L247.675,34.00340537631939L247.825,34.078795602059756L248.375,34.24711385808945L248.525,34.32908956655024L248.625,34.36271319339511L248.725,34.39466460029621L249.325,34.546148720439675L250.126,38.62150235679823L250.376,31.354866187433117L250.87599999999998,28.822998740319463L251.176,28.18793349895509L251.526,28.252802333152573L251.82600000000002,28.36366899866124L251.92600000000002,28.45999914883589L252.12599999999998,28.591382618185946L252.476,28.68545845611007L252.526,28.72669742405887L252.576,28.73427943924446L253.07600000000002,28.960718155597732L254.126,29.587286773301912L254.376,29.882421770891625L254.626,30.025001506383973L254.92600000000002,30.13775587230657L255.426,30.32368179145837L255.676,30.476788692241456L255.976,30.634162976268442L256.176,30.74280010372422L256.226,30.784239344236994L256.626,30.90167834670936L256.776,30.971900270088554L256.826,31.017792720844056L256.926,31.053973211009833L257.076,31.091517914512394L257.126,31.114371608296864L257.176,31.144627656336013L257.426,31.246426732616783L257.526,31.322888837562232L257.676,31.397746085707553L257.726,31.443968824115984L257.776,31.481820584039923L257.82599999999996,31.53193226248294L257.926,31.586782226258435L258.076,31.642761176384937L258.126,31.65929892458024L258.426,31.75965156655306L258.726,31.883283993948083L258.826,31.943773662070413L258.976,31.993364231752878L259.527,27.10558836874091L259.927,26.03178960172437L259.977,25.76515170407879L260.027,25.69375250021855L260.327,25.7625321949086L260.677,25.807516665778053L260.92699999999996,26.076436976051895L261.277,26.310565487534603L261.927,26.710304444750477L262.22700000000003,26.933441804334876L262.327,27.072520639445003L262.47700000000003,27.1968387653574L262.827,27.366270738775626L263.127,27.5682493176175L263.277,27.674984647768042L263.377,27.751209195787823L263.427,27.791845889558232L263.877,27.986410179314902L264.377,28.248103006562673L264.427,28.339480821684162L264.827,28.552265565146342L265.42699999999996,28.746226591494036L265.577,28.848106974687596L265.727,28.942874674756837L266.377,29.17353165291533L266.777,29.37226935117434L267.177,29.524941984175996L267.227,29.586392483887096L267.377,29.65104251511059L267.477,29.701442444850215L267.527,29.72888395462769L268.178,24.86930734665731L268.478,23.6623621573288L268.578,23.42444453164501L269.328,23.62388698592082L269.678,23.83468589698947L269.978,24.046076439826237L270.128,24.21629239089475L270.178,24.283408072493046L270.478,24.50723194135432L271.128,24.823186275521607L271.228,24.974132431540966L271.27799999999996,25.070859583729202L271.32800000000003,25.093625557942545L271.628,25.249776216717947L271.878,25.412999552966113L272.528,25.723241507829442L273.328,26.13309078073675L273.678,26.397176450154063L273.928,26.558411627861005L273.978,26.616471218789513L274.27799999999996,26.73476477449728L274.728,26.929079933307037L274.878,27.02536282088755L274.928,27.059622360858356L275.028,27.116115104159746L275.32800000000003,27.210136479208472L275.378,27.24572849775521L275.478,27.296953811683807L275.728,27.404568356452188L275.878,27.491623204220105L276.628,27.753128429020705L276.829,23.33952278304443L277.129,21.78714542556466L277.479,21.475944946498288L277.679,21.52901723920789L277.829,21.638209624981272L278.579,22.122805555294093L278.979,22.463464145366743L279.179,22.61604471799413L279.22900000000004,22.664487945427567L280.12899999999996,23.13521005456431L280.279,23.375254870993018L280.329,23.49933318220758L280.429,23.575605325286602L280.529,23.653220890141597L280.579,23.66359903024491L280.779,23.740531970191284L280.829,23.77929712439203L281.379,24.063024096846675L281.67900000000003,24.263167518172907L281.879,24.404488773330513L283.029,24.84760912073122L283.679,25.173814103594708L284.079,25.38798061225711L284.329,25.530985987594676L284.379,25.581858204725705L284.479,25.62454167443977L284.529,25.640344832654307L284.579,25.673348520033727L285.029,25.807269307737954L285.079,25.853551465867838L285.529,26.013027614396066" style="fill: none;" fill="none"></path></g></g></g></g><g opacity="0.2"><g><g><g><path stroke="rgb(255, 112, 67)" stroke-width="2px" d="M28.4,209.78902728740985L28.851000000000003,150.7989278940054L29.101,156.55604435847357L29.201,155.49766716590295L29.250999999999998,155.36922865647534L29.450999999999997,155.41524505615234L29.851,155.11574671818659L30.251,154.37984994741586L30.301000000000002,154.3510701106145L30.551000000000002,154.19186694805438L31.101,153.31024287297174L31.401,152.84537799541766L31.651,152.46100264329175L31.801000000000002,152.294434767503L32.401,151.66968771127554L32.701,151.29894491342398L32.951,150.9727037869967L33.301,150.54403569148138L33.501000000000005,150.29546356201172L33.601,150.1339621910682L34.551,148.9665245643029L34.801,148.6272776677058L34.851,148.56627068152795L35.101,148.25549022968L35.351,148.00916407658502L35.451,147.87571129432092L35.851,147.3785670353816L35.900999999999996,147.32053727370044L36.251,146.89782362717847L36.451,146.66236173189603L36.901,146.1984892625075L37.301,145.75503950852612L38.052,130.00630540114184L38.251999999999995,130.46035825289212L38.752,131.03590275691107L38.852,130.78900205172025L40.952,130.01424466646634L41.002,130.0095960176908L41.402,129.80489877554086L41.852000000000004,129.52676332913913L41.952,129.4958942119892L42.002,129.51626469538763L42.152,129.35518118051382L42.452,129.2045440673828L42.902,128.89047299898587L43.052,128.8766315166767L43.102,128.85929048978366L43.602,128.66477848933295L44.452,128.26327103834888L44.552,128.2128671499399L45.252,127.80467400184044L45.501999999999995,127.72893758920523L45.602000000000004,127.65179091233473L45.752,127.58979151799129L46.152,127.3950705895057L46.452,127.25937183086688L46.552,127.2316888662485L46.653000000000006,118.70455228365384L46.953,117.7187253511869L47.203,117.90952887901894L47.703,117.53230931208684L48.00300000000001,117.53674903282753L48.303,117.23688507080078L48.503,117.2811778141902L48.803,117.5130357008714L48.903,117.56390967735878L49.053,117.42303994985727L49.153000000000006,117.42643503042368L49.202999999999996,117.44722336989183L49.453,117.28608762300931L49.503,117.26075509878305L49.952999999999996,117.22283466045673L50.253,117.19656196007362L50.353,117.19598740797777L50.603,117.15138127253606L50.853,117.06342256986179L50.953,117.04038825401894L51.553,116.94992241492638L51.903,116.86076237605168L51.953,116.85036820631761L52.053,116.87888688307542L52.153,116.876588674692L52.203,116.84091421274039L52.303,116.78977907620944L52.903,116.7398452758789L53.053,116.7540523822491L53.253,116.66389993520883L53.403,116.6244647686298L53.553,116.59772198016827L53.753,116.552489060622L53.803,116.53681945800781L54.003,116.47988656850961L54.253,116.39756892277644L54.803,116.31582582913913L55.153,116.24426797720102L55.504,107.84786811241737L55.704,108.91815420297476L55.854000000000006,109.26753410926231L55.903999999999996,109.04183959960938L55.954,109.35862673245944L56.304,108.96866255540114L56.604,108.65161426250751L56.704,108.53111501840445L56.754,108.49256779597356L56.954,108.57765373816856L57.154,108.68431149996243L57.354,108.78402240459735L57.403999999999996,108.78235098031851L57.604,108.65960575984074L58.054,108.78402240459735L58.254,108.84795438326321L58.304,108.88953106219952L58.354000000000006,108.90191004826472L58.454,108.81280224139874L58.504000000000005,108.81807767427884L58.804,108.75111623910757L59.004,108.7137703528771L59.054,108.71006188025841L59.153999999999996,108.72693281907301L59.254000000000005,108.65130087045523L59.404,108.62988574688251L59.454,108.57718365009015L59.504000000000005,108.54547882080078L59.70399999999999,108.6538080068735L59.903999999999996,108.61829024094801L60.153999999999996,108.64195134089543L60.204,108.64576427753155L60.254000000000005,108.68337132380559L61.404,108.69783959021935L61.604000000000006,108.65814326359676L61.704,108.65203211857722L61.954,108.6021505502554L63.153999999999996,108.4503643329327L63.254,108.43443357027493L63.504000000000005,108.40518364539513L63.604,108.41354076678937L63.804,108.37452345628004L63.903999999999996,108.38434307391827L64.255,100.3977033174955L64.555,100.22606893686148L64.755,101.46631798377403L65.105,101.66762014535757L65.205,101.60723994328426L65.505,101.75975740872897L65.605,101.57584850604718L65.755,101.7276869553786L65.905,101.73458158052884L66.305,101.64667510986328L66.355,101.59324176494891L66.50500000000001,101.60295691856972L66.855,101.8067139845628L67.005,101.80452024019681L67.455,101.98869030292218L67.655,102.04076561560997L67.805,101.97140150803786L67.85499999999999,101.96461134690504L68.30499999999999,102.00409874549278L68.355,102.00106928898738L68.555,102.03538571871243L68.655,102.02749868539664L68.705,102.01433621920071L68.905,101.98670548659105L68.955,101.96722294734074L69.105,101.95756002572867L69.155,101.97986309344952L69.555,101.88819591815655L69.75500000000001,101.91039452185997L69.855,101.89723205566406L69.955,101.8984856238732L70.005,101.89368027907152L70.455,101.92836233285757L70.605,101.90428337684044L71.005,101.90715613731972L71.10499999999999,101.8895017183744L71.355,101.83805318979117L71.605,101.85173797607422L71.955,101.8322032048152L72.605,101.80065507155199L72.905,101.86704195462741L73.05499999999999,101.83836658184345L73.106,82.85965728759766L73.306,95.24381432166466L73.506,95.14311100886418L73.60600000000001,95.1124508197491L73.856,95.01226982703575L73.906,94.86241619403546L74.35600000000001,95.50795158973106L74.656,95.35418055607722L74.856,95.27186291034405L74.906,95.32848240778996L75.40599999999999,95.67201232910156L75.656,95.7366233238807L76.35600000000001,95.97464458759015L76.456,95.96926469069261L77.456,96.27811255821815L77.506,96.28793217585637L77.70599999999999,96.34580524151141L77.756,96.34256685697116L77.806,96.34752889779898L78.706,96.44849337064304L78.956,96.52360299917368L79.306,96.50265796367938L79.356,96.50035975529597L79.65599999999999,96.5120597252479L79.756,96.52887843205379L80.006,96.51482802170973L80.106,96.53692216139574L81.306,96.64222189096304L81.406,96.66859905536359L81.506,96.65172811654898L81.90599999999999,96.6132331261268L82.007,89.32284604586087L82.407,89.25948861929086L82.557,89.10352384127103L82.707,89.28393319936899L83.357,89.44245734581581L83.70700000000001,89.68951474703275L84.007,89.86172367976262L84.307,90.19673978365384L84.357,90.26485032301683L84.657,90.56664686936598L85.157,90.71968665489784L85.407,90.76570305457481L85.457,90.79761681189903L85.607,90.86442155104417L85.907,90.90641608605019L86.007,90.9596927349384L86.157,90.9904051560622L86.307,91.0334965632512L86.457,91.07564779428336L86.50699999999999,91.10902404785156L87.407,91.34072523850661L88.157,91.52113459660457L88.907,91.62528522198016L89.057,91.65108783428485L89.10699999999999,91.63787313608023L89.207,91.66263110821063L89.25699999999999,91.66895118126503L90.30699999999999,91.74541884202223L90.357,91.76484914926382L90.607,91.78683882493239L90.75699999999999,91.80673922025241L90.908,83.14275477482721L91.00800000000001,84.40875420203577L91.208,85.53142899733322L91.408,85.22884897085336L91.608,85.15358264629657L92.858,86.04810802753155L92.908,86.09819852388821L93.458,86.49443054199219L93.858,86.41117272010217L93.908,86.39357053316556L94.058,86.55945939284103L94.15799999999999,86.55345271183893L94.208,86.59889455942007L94.658,86.82965557391827L95.008,86.8410421518179L95.758,86.92680711012619L95.80799999999999,86.94843116173377L95.958,87.01988454965445L96.908,87.2283424964318L97.158,87.29358027531549L97.208,87.29754990797775L97.30799999999999,87.28799145038312L97.658,87.32679983285757L98.008,87.34936406062201L98.05799999999999,87.34095470721905L98.508,87.40802060640775L98.70800000000001,87.40911747859076L98.80799999999999,87.42703305757962L99.00800000000001,87.47618337777945L99.45800000000001,87.57803579477164L99.759,82.03010852520282L99.809,81.46835327148438L100.059,80.8162366426908L100.459,81.4159645667443L100.909,81.76367304875299L100.959,81.83752910907452L101.15899999999999,81.78383460411658L101.409,81.89973743145282L101.559,82.01966212346002L101.659,82.08615347055289L101.80900000000001,82.16998584453876L101.959,82.31816805326022L102.159,82.4762221116286L102.55900000000001,82.45694850041315L102.95899999999999,82.47475961538461L103.159,82.60748114952673L103.30900000000001,82.6803970336914L103.359,82.70019296499399L103.659,82.65642254169171L104.109,82.86885012113132L104.309,82.86300013615534L104.35900000000001,82.9152321448693L104.409,82.92823791503906L104.50900000000001,82.93528923621545L104.659,83.00413102370041L105.009,83.07908395620493L105.459,83.28994457538312L105.509,83.30211463341345L105.959,83.42219602144681L106.15899999999999,83.46194458007812L106.259,83.46392939640924L106.40899999999999,83.49187352107123L106.659,83.52587655874399L106.709,83.52650334284857L106.809,83.54123276930588L106.859,83.565677349384L106.90899999999999,83.59278576190655L107.15899999999999,83.6281990638146L107.85900000000001,83.77554556039664L108.30900000000001,83.88063636192908L108.56,77.96849529559796L108.91,76.04745424710788L108.96000000000001,76.34815392127405L109.41000000000001,76.79442420372595L109.76,77.59273822490985L110.36,78.03206165020282L110.71,78.15245643028845L110.81,78.24224325326773L111.00999999999999,78.44270970271185L111.50999999999999,78.59073521540716L111.56,78.5751178448017L111.71000000000001,78.60306196946365L111.96,78.69128183218149L112.16000000000001,78.78994809664212L112.81,78.99908505953275L112.96,79.03350595327524L113.26,79.09122232290414L113.30999999999999,79.1030789888822L113.36,79.13906684288611L114.16,79.48442488450272L115.06,79.7080823458158L115.36,79.82842489389273L115.71,79.87041942889874L116.00999999999999,79.95890045166016L116.21000000000001,80.01734806941107L116.31,80.04685915433444L116.41,80.09439028226413L116.71000000000001,80.14401069054236L116.86,80.22058281531702L116.96,80.24152785081131L117.10999999999999,80.24617649958685L117.25999999999999,80.23922964242789L117.361,85.09842564509466L117.811,72.64500896747296L117.91099999999999,73.35593883807843L118.511,73.54982405442459L118.561,73.53781069242038L118.611,73.65810100848859L119.311,73.78669621394232L119.511,73.93973599947415L119.711,74.1081319955679L119.911,74.2950181227464L119.961,74.34886932373047L120.111,74.53115903414212L120.21100000000001,74.59707582913913L120.31099999999999,74.7487053504357L120.711,75.10153256929837L120.811,75.17387390136719L120.96100000000001,75.24297684889572L121.111,75.3080579317533L121.26100000000001,75.36519974928635L121.36099999999999,75.39471083420975L121.511,75.43440716083234L122.461,75.81726778470554L123.06099999999999,76.08041264460638L123.111,76.10135768010065L123.161,76.12266833965595L123.26100000000001,76.17213205190805L123.31099999999999,76.18466773399939L123.411,76.23919795109674L123.511,76.30474912203275L123.711,76.35107891376202L123.911,76.43559030386118L124.161,76.48343482384314L124.261,76.5244369506836L124.611,76.61317913348859L124.76100000000001,76.64571967491736L125.011,76.70709228515625L125.21100000000001,76.80398266132062L125.461,76.8777342576247L125.561,76.8946051964393L125.61099999999999,76.89345609224759L126.161,77.03385573167068L126.31200000000001,68.94029705341046L126.462,67.89738053541916L126.61200000000001,68.82256610576923L126.662,68.66315401517429L126.812,69.3217996450571L126.862,69.21723116361179L126.962,69.55433654785156L127.21199999999999,70.05268214299127L127.262,70.007083599384L127.612,70.19323847844049L127.66199999999999,70.35144923283502L127.86200000000001,70.56967456524188L127.96199999999999,70.6997322669396L128.062,70.78742980957031L128.262,70.80675565279446L128.762,71.2178737933819L128.862,71.29408029409555L128.962,71.2859843327449L129.012,71.32787440373346L129.21200000000002,71.46681154691257L129.362,71.4786159808819L129.762,71.71110065166766L129.96200000000002,71.79488079364484L130.662,72.23634573129507L130.862,72.33715350811298L130.962,72.3567405113807L131.212,72.44496037409857L131.262,72.44386350191556L131.362,72.50742985652045L131.46200000000002,72.57564485990085L131.512,72.58274841308594L131.612,72.60635728102463L131.712,72.64991877629205L131.762,72.6762959406926L132.112,72.82228440504807L132.262,72.93312072753906L132.512,73.00384286733774L133.462,73.41438645582932L133.962,73.61224130483774L134.262,73.73357626108023L134.412,73.77823462853064L134.562,73.81834881122296L134.712,73.78920335036057L134.762,73.8035671527569L134.812,73.80414170485275L135.263,67.249390235314L135.31300000000002,66.74916428786057L135.363,66.36202063927283L135.463,66.54070634108322L136.06300000000002,67.51081143892728L136.113,67.45904951829178L136.213,67.4936271080604L136.613,67.771605858436L137.063,68.06337385911209L137.913,68.68054727407602L138.613,68.97565812330978L138.81300000000002,69.06283334585336L138.863,69.08080115685095L138.963,69.10655153714694L139.363,69.20589681772086L139.463,69.27473860520584L139.66299999999998,69.44161987304688L140.163,69.53380936842697L140.563,69.63278902493991L140.613,69.65174924410306L141.16299999999998,69.8759290255033L141.563,70.11645742563101L141.863,70.23585979755109L141.91299999999998,70.2404039823092L142.013,70.26161017784705L142.113,70.31864753136267L142.363,70.41997762826773L143.31300000000002,70.74559197059045L143.613,70.80675565279446L143.663,70.82138061523438L144.114,64.48558572622446L144.214,64.59715329683743L144.364,64.91629087007962L144.414,64.90537438025842L144.464,64.95948674128607L145.01399999999998,64.89064495380109L145.164,64.83554018460788L145.464,64.94595865102914L145.714,65.27313995361328L145.814,65.3099112877479L145.914,65.3758803147536L146.014,65.52051074688251L146.464,65.7152839073768L146.664,65.65417245718149L146.864,65.81630061222955L146.964,65.82413541353665L147.114,65.91658606896033L147.564,66.21671119103064L147.614,66.24575218787561L148.114,66.61106285682092L148.214,66.60688429612381L148.81400000000002,66.77632493239182L148.864,66.77162405160757L148.914,66.78708472618689L149.114,66.86287337083084L149.314,66.96942666860727L149.614,67.15558154766376L149.664,67.17731006328876L149.814,67.22452779916617L150.214,67.34946676400992L150.464,67.45790041410007L150.614,67.49253023587741L150.764,67.57521350567157L150.814,67.58560767540564L151.214,67.75275010329025L151.51399999999998,67.84488736666165L151.814,67.93994962252103L152.064,68.01641728327826L152.965,62.55185229961688L153.165,61.14059565617487L153.26500000000001,61.08778909536508L153.51500000000001,61.2231222299429L153.765,61.77813955453726L154.41500000000002,61.836169316218445L154.61499999999998,62.06849729097806L154.76500000000001,62.11279003436749L155.515,62.788933387169465L156.065,63.06821793776291L156.11499999999998,63.08493218055139L156.26500000000001,63.1978055513822L156.565,63.32107309194711L156.915,63.432275038499085L156.965,63.46256960355319L157.015,63.500751201923066L157.065,63.51986811711237L157.115,63.55465463491586L157.16500000000002,63.58479250394382L157.565,63.75788938082181L158.715,64.3320758526142L158.765,64.37208557128906L158.815,64.3897922222431L159.165,64.54304093580978L159.715,64.71869718111478L159.815,64.75081986647385L160.415,64.9730670635517L160.465,64.99500450721155L160.615,65.03558877798227L160.71499999999997,65.06875610351562L160.76500000000001,65.07758331298828L160.865,65.12553229698767L161.76600000000002,57.084936875563415L162.01600000000002,57.75862532395584L162.166,58.320171649639434L162.316,58.62264721210187L162.766,58.92862231914813L162.816,58.97234051044171L163.11599999999999,59.03642918513373L163.216,59.13770705003006L163.26600000000002,59.14470613919772L163.566,59.285628098707946L163.716,59.388890779935394L164.016,59.79551696777344L164.11599999999999,59.842839167668274L164.216,59.90180910550632L164.36599999999999,60.06733234112079L165.066,60.61263451209436L165.166,60.618223337026734L165.216,60.68299102783203L165.266,60.689049940842835L165.816,60.91902747521033L166.316,61.10821181077225L166.716,61.26475114088791L167.566,61.67451124924881L167.916,61.774169921875L167.96599999999998,61.789369436410766L168.116,61.83533360407904L168.61599999999999,62.037837101862976L168.916,62.17646085298978L169.11599999999999,62.26384500356821L169.366,62.35028897798978L169.466,62.37353222186749L169.56599999999997,62.396618769719055L169.666,62.441956153282746L169.766,62.46577394925632L169.966,62.54276393010065L170.016,62.559791564941406L170.166,62.62105971116287L170.46599999999998,62.718785799466644L170.517,52.62103271484375L170.667,52.962421123798066L171.06699999999998,54.0744405893179L171.167,53.9710212120643L171.217,54.08629725529596L171.267,54.03260275033804L171.667,54.375975975623504L172.417,54.7502183180589L172.517,54.77001424936148L172.617,54.85828634408804L172.717,54.97591282771185L172.817,55.02668234018179L173.26700000000002,55.16211993877704L173.46699999999998,55.29008836012619L174.117,55.54357029841498L174.317,55.6437512911283L175.267,55.8801011305589L176.01700000000002,56.180121788611785L176.067,56.20195476825421L176.36700000000002,56.26024568997897L176.417,56.283332237830535L176.517,56.30448620135968L176.667,56.32454329270584L176.917,56.38476679875299L177.117,56.454339834359985L177.217,56.50270667442908L178.017,56.72176771897537L178.367,56.794683603140015L178.567,56.885828458345856L178.917,56.92030158409705L178.96699999999998,56.943440363957336L179.317,57.07046860914963L179.418,49.55370800311749L180.61800000000002,49.3615986750676L180.768,49.49499922532303L181.118,49.97892878605768L181.268,50.08731020413913L181.318,50.05513528677133L181.41799999999998,50.091227604792664L181.468,50.18514075646033L181.818,50.49759263258713L182.46800000000002,51.0624295748197L182.71800000000002,51.30614412747897L183.168,51.503528888408965L183.26799999999997,51.546776991624085L183.368,51.60177729679987L183.71800000000002,51.7981174175556L184.368,52.006366436298066L184.468,52.06063549335187L184.768,52.194401667668274L185.168,52.4500251183143L185.46800000000002,52.5642565213717L185.518,52.59700599083533L185.568,52.6317402766301L185.768,52.677861140324524L186.01799999999997,52.795226463904754L186.36800000000002,52.92444845346304L186.768,53.10475334754358L186.96800000000002,53.198353107158965L187.16799999999998,53.30621220515326L187.268,53.34470719557541L187.568,53.49142690805289L187.81799999999998,53.628222538874695L187.918,53.673768850473266L188.018,53.704951359675476L188.168,53.77457662729117L188.369,46.72644160344049L188.969,46.77465174748346L189.219,47.04437784048227L189.46900000000002,47.52997882549579L190.369,48.065722538874695L190.569,48.1803195659931L190.719,48.24785555326022L190.96900000000002,48.33853032038763L191.31900000000002,48.51789503831131L191.51899999999998,48.65296701284555L191.619,48.741918123685394L191.919,48.94980151836688L191.969,48.94374260535608L192.269,49.1307854285607L192.619,49.267894451434785L192.91899999999998,49.427776630108184L193.06900000000002,49.53114377535306L193.369,49.651695251464844L193.91899999999998,49.944090036245484L194.019,49.95370072584885L194.51899999999998,50.20028803898737L194.669,50.267876258263215L194.769,50.27560659555289L195.019,50.3801750769982L195.81900000000002,50.643842256986176L195.919,50.69142561692459L196.169,50.77384772667517L196.219,50.78575662466196L196.419,50.83239980844351L196.519,50.88045325646033L196.819,50.99964670034555L196.869,51.019390399639434L197.17,43.66590705284705L197.77,44.18592893160306L198.02,44.29195990929236L198.62,44.61872335580679L198.67000000000002,44.71707622821515L198.97,45.05721106896033L199.02,45.053032508263215L199.72,45.696635319636414L199.92,45.746882512019226L200.01999999999998,45.7628655066857L200.12,45.8201640202449L200.26999999999998,45.9284409743089L200.42000000000002,45.94416280893179L200.87,46.13998060960037L201.17,46.283775329589844L201.27,46.36557065523587L201.82,46.69630373441257L201.87,46.69975104698767L202.17000000000002,46.81946681096002L202.52,47.01627701979416L203.72,47.496341411884L204.02,47.61449021559494L204.12,47.671788729154144L205.17,48.16501558743991L205.32,48.244982792780945L205.52,48.34401468130258L205.57000000000002,48.35404322697565L205.62,48.38365877591647L205.871,41.81553591214694L206.021,41.7378146831806L206.12099999999998,41.692216139573304L206.571,41.32392824613132L206.921,42.0368429330679L207.171,42.4219495333158L207.571,42.654852060171265L207.77100000000002,42.903998741736785L207.97099999999998,42.895746084359985L208.621,43.18568596473108L208.721,43.17967928372897L208.87099999999998,43.30942359337439L209.47099999999998,43.729943495530335L209.671,43.896459139310394L209.921,44.085121154785156L210.021,44.1414794921875L210.52100000000002,44.39987123929538L210.62099999999998,44.453826904296875L210.721,44.521362891563996L211.371,44.82467416616586L212.171,45.24446282019983L212.421,45.34239783653845L212.771,45.54322991004358L212.921,45.618444002591644L213.021,45.64993990384616L214.021,46.06424419696515L214.071,46.0835700401893L214.121,46.09939633882962L214.371,46.19038449800931L214.471,46.2330058171199L214.922,38.772290156437805L215.322,38.993388249323914L215.622,39.36966764009915L215.672,39.35697526198166L215.87199999999999,39.5102762075571L216.422,40.03280522273138L216.72199999999998,40.224548926720246L217.022,40.568183312049285L217.172,40.550737821138824L217.922,41.13604971078726L218.122,41.281933711125305L218.472,41.49127960205078L218.672,41.560382549579316L218.92200000000003,41.682500985952515L219.172,41.86092552771936L219.372,41.9981912466196L219.422,42.03741748516376L219.972,42.37870143010065L220.022,42.395520136906555L220.572,42.69104884221002L220.672,42.72724562424881L220.72199999999998,42.74584021935095L221.072,42.93727053128757L221.172,42.9599392230694L221.222,42.962080735426696L221.272,42.988092275766235L221.32199999999997,43.002926166241L221.62199999999999,43.13084235558142L222.722,43.664026700533356L222.872,43.72722743107721L223.572,44.08783721923828L223.773,36.77478144719049L223.823,36.47669337346002L223.923,36.38680208646335L224.323,36.73022754375751L224.573,37.10984978309045L224.923,37.24763782207782L226.323,38.617370018592254L227.223,39.10761965238132L227.473,39.340992267315215L227.923,39.58763181246243L227.97299999999998,39.63396160419171L228.523,40.01985168457031L228.57299999999998,40.040848952073304L228.673,40.10911618746243L228.773,40.19012803297775L228.923,40.22141500619742L228.973,40.25823857234076L229.073,40.30571746826172L230.223,40.905497624323914L230.47299999999998,41.01946786733774L230.623,41.07896012526291L230.773,41.138609079214234L231.023,41.274151141826934L231.573,41.53097592867337L232.02300000000002,41.706109853891235L232.173,41.79641899695764L232.22299999999998,41.81470020000751L232.624,35.56101402869592L232.92399999999998,34.72117556058444L233.724,35.8276584331806L234.024,36.148310734675476L234.22400000000002,36.41364933894232L234.374,36.35541064922626L234.674,36.57624758206882L234.77400000000003,36.718945429875305L235.224,37.013899583082946L235.424,37.1962415255033L235.72400000000002,37.39790931114783L235.974,37.610023498535156L236.27399999999997,37.81498190072867L236.724,38.01257558969351L237.07399999999998,38.2017076932467L237.274,38.32941495455228L237.724,38.54314833420975L237.874,38.648030207707336L238.47400000000002,38.89456528883713L238.824,39.07659383920523L238.974,39.14512223463791L239.074,39.1904073861929L239.124,39.22357471172626L239.324,39.285730802095856L239.374,39.30568342942459L239.424,39.344335115872894L240.024,39.601316598745484L240.324,39.704735975999085L240.374,39.71967433049127L240.474,39.76694429837741L240.774,39.87861633300781L240.924,39.921289884127106L241.22400000000002,40.012225811298066L241.375,32.907262361966644L241.725,32.27180774395282L242.225,31.85515301044171L242.525,32.059798020582946L242.72500000000002,32.130415696364196L242.875,32.15141296386719L243.27499999999998,32.28617154634915L243.375,32.327173673189606L244.025,32.632104140061585L244.22500000000002,32.67477769118088L244.275,32.685955341045684L245.225,33.00582416240985L245.275,33.048027625450715L245.425,33.155207707331726L245.775,33.33525144136868L245.875,33.32830458420975L246.27499999999998,33.55833435058594L246.375,33.58001063420221L246.425,33.614849384014434L247.075,33.87005497859076L247.17499999999998,33.89476071871243L247.225,33.89972275954025L247.675,34.05260584904596L247.825,34.1111056988056L248.375,34.31925025353064L248.525,34.364222013033356L248.625,34.3771233191857L248.725,34.40835806039664L249.325,34.61107048621545L250.126,40.36808248666617L250.376,28.240593543419465L250.87599999999998,27.737912691556488L251.176,27.915762681227477L251.526,28.28060326209436L251.82600000000002,28.41118328387921L251.92600000000002,28.501283498910766L252.12599999999998,28.647689819335938L252.476,28.72577667236328L252.526,28.744371267465453L252.576,28.737528874323914L253.07600000000002,29.057763319749085L254.126,29.855816180889434L254.376,30.008908198429992L254.626,30.086107107309203L254.92600000000002,30.18607917198767L255.426,30.40336432823767L255.676,30.542405935434203L255.976,30.701609097994293L256.176,30.789358872633727L256.226,30.801999018742492L256.626,30.95200934776892L256.776,31.001995380108184L256.826,31.037460914024933L256.926,31.069479135366578L257.076,31.107608501727753L257.126,31.124166048490082L257.176,31.157594534067016L257.426,31.29005490816556L257.526,31.35565831111029L257.676,31.42982776348407L257.726,31.463778569148133L257.776,31.498042766864472L257.82599999999996,31.553408696101258L257.926,31.61028935359076L258.076,31.666752155010528L258.126,31.666386530949524L258.426,31.802659841684203L258.726,31.936269319974457L258.826,31.96969780555139L258.976,32.01461733304538L259.527,25.010827284592835L259.927,25.571590130145722L259.977,25.650878319373504L260.027,25.663152841421265L260.327,25.79200920691858L260.677,25.826795724722047L260.92699999999996,26.191688537597656L261.277,26.410906278170074L261.927,26.881621140700133L262.22700000000003,27.02907210129959L262.327,27.132125854492188L262.47700000000003,27.250117962176972L262.827,27.43888444166916L263.127,27.654811565692597L263.277,27.720728360689606L263.377,27.783876859224762L263.427,27.809261615459747L263.877,28.069794874924867L264.377,28.360257075383117L264.427,28.37864274245041L264.827,28.643459026630097L265.42699999999996,28.829352745643035L265.577,28.891769996056183L265.727,28.98348940335788L266.377,29.272384643554688L266.777,29.45744265042819L267.177,29.590373112605164L267.227,29.612728412334747L267.377,29.678749671349152L267.477,29.723042414738586L267.527,29.74064460167517L268.178,22.78663165752704L268.478,23.14509993333084L268.578,23.32247983492337L269.328,23.70936232346756L269.678,23.925028287447418L269.978,24.136672386756317L270.128,24.289242084209747L270.178,24.312171936035156L270.478,24.603156456580535L271.128,24.958595275878906L271.228,25.03882364126352L271.27799999999996,25.112314077524047L271.32800000000003,25.103382404033965L271.628,25.316697927621703L271.878,25.482952411358184L272.528,25.85620234562799L273.328,26.30874046912561L273.678,26.510356022761414L273.928,26.627512418306793L273.978,26.641353900615997L274.27799999999996,26.785462012657746L274.728,27.01235785851111L274.878,27.06662691556491L274.928,27.074305020845856L275.028,27.14032627986029L275.32800000000003,27.250431354229278L275.378,27.260982219989472L275.478,27.31890751765326L275.728,27.45068887563852L275.878,27.528932424692016L276.628,27.86520209679236L276.829,21.447977506197418L277.129,21.121840843787567L277.479,21.34257331261267L277.679,21.551762507512024L277.829,21.685006361741273L278.579,22.33048952542819L278.979,22.60946068396936L279.179,22.681436391977172L279.22900000000004,22.68524932861328L280.12899999999996,23.33694810133713L280.279,23.47813122089093L280.329,23.55250960129959L280.429,23.60829338660608L280.529,23.686484703650848L280.579,23.66804680457483L280.779,23.773503230168274L280.829,23.795910761906555L281.379,24.184621370755707L281.67900000000003,24.34894327016977L281.879,24.465055025540863L283.029,25.037517841045684L283.679,25.313616239107574L284.079,25.47976625882663L284.329,25.592274005596465L284.379,25.603660583496094L284.479,25.642834590031555L284.529,25.647117614746094L284.579,25.687492957481965L285.029,25.864663931039672L285.079,25.873386676494903L285.529,26.081374535193817" style="fill: none;" fill="none"></path></g></g></g></g></g></g><g transform="translate(30, 178)" clip-path="url(#clip_1)"><clipPath id="clip_1"><rect width="300" height="22"></rect></clipPath><g><g><line x1="0" y1="0" x2="0" y2="5" style="visibility: inherit;" fill="rgb(0, 0, 0)" stroke="rgb(204, 204, 204)" stroke-width="1px"></line><line x1="20" y1="0" x2="20" y2="5" style="visibility: inherit;" fill="rgb(0, 0, 0)" stroke="rgb(204, 204, 204)" stroke-width="1px"></line><line x1="40" y1="0" x2="40" y2="5" style="visibility: inherit;" fill="rgb(0, 0, 0)" stroke="rgb(204, 204, 204)" stroke-width="1px"></line><line x1="60" y1="0" x2="60" y2="5" style="visibility: inherit;" fill="rgb(0, 0, 0)" stroke="rgb(204, 204, 204)" stroke-width="1px"></line><line x1="80" y1="0" x2="80" y2="5" style="visibility: inherit;" fill="rgb(0, 0, 0)" stroke="rgb(204, 204, 204)" stroke-width="1px"></line><line x1="100" y1="0" x2="100" y2="5" style="visibility: inherit;" fill="rgb(0, 0, 0)" stroke="rgb(204, 204, 204)" stroke-width="1px"></line><line x1="120" y1="0" x2="120" y2="5" style="visibility: inherit;" fill="rgb(0, 0, 0)" stroke="rgb(204, 204, 204)" stroke-width="1px"></line><line x1="140" y1="0" x2="140" y2="5" style="visibility: inherit;" fill="rgb(0, 0, 0)" stroke="rgb(204, 204, 204)" stroke-width="1px"></line><line x1="160" y1="0" x2="160" y2="5" style="visibility: inherit;" fill="rgb(0, 0, 0)" stroke="rgb(204, 204, 204)" stroke-width="1px"></line><line x1="180" y1="0" x2="180" y2="5" style="visibility: inherit;" fill="rgb(0, 0, 0)" stroke="rgb(204, 204, 204)" stroke-width="1px"></line><line x1="200" y1="0" x2="200" y2="5" style="visibility: inherit;" fill="rgb(0, 0, 0)" stroke="rgb(204, 204, 204)" stroke-width="1px"></line><line x1="219.99999999999997" y1="0" x2="219.99999999999997" y2="5" style="visibility: inherit;" fill="rgb(0, 0, 0)" stroke="rgb(204, 204, 204)" stroke-width="1px"></line><line x1="240" y1="0" x2="240" y2="5" style="visibility: inherit;" fill="rgb(0, 0, 0)" stroke="rgb(204, 204, 204)" stroke-width="1px"></line><line x1="260" y1="0" x2="260" y2="5" style="visibility: inherit;" fill="rgb(0, 0, 0)" stroke="rgb(204, 204, 204)" stroke-width="1px"></line><line x1="280" y1="0" x2="280" y2="5" style="visibility: inherit;" fill="rgb(0, 0, 0)" stroke="rgb(204, 204, 204)" stroke-width="1px"></line><line x1="300" y1="0" x2="300" y2="5" style="visibility: inherit;" fill="rgb(0, 0, 0)" stroke="rgb(204, 204, 204)" stroke-width="1px"></line></g><g transform="translate(0, 8)"><text x="0" y="0" dx="0em" dy="0.95em" style="text-anchor: middle; visibility: hidden; font-family: &quot;Helvetica Neue&quot;, sans-serif; font-size: 12px; font-weight: 200;" fill="rgb(50, 49, 63)" stroke="none" stroke-width="1px">-20k</text><text x="20" y="0" dx="0em" dy="0.95em" style="text-anchor: middle; visibility: inherit; font-family: &quot;Helvetica Neue&quot;, sans-serif; font-size: 12px; font-weight: 200;" fill="rgb(50, 49, 63)" stroke="none" stroke-width="1px">0</text><text x="40" y="0" dx="0em" dy="0.95em" style="text-anchor: middle; visibility: hidden; font-family: &quot;Helvetica Neue&quot;, sans-serif; font-size: 12px; font-weight: 200;" fill="rgb(50, 49, 63)" stroke="none" stroke-width="1px">20k</text><text x="60" y="0" dx="0em" dy="0.95em" style="text-anchor: middle; visibility: inherit; font-family: &quot;Helvetica Neue&quot;, sans-serif; font-size: 12px; font-weight: 200;" fill="rgb(50, 49, 63)" stroke="none" stroke-width="1px">40k</text><text x="80" y="0" dx="0em" dy="0.95em" style="text-anchor: middle; visibility: hidden; font-family: &quot;Helvetica Neue&quot;, sans-serif; font-size: 12px; font-weight: 200;" fill="rgb(50, 49, 63)" stroke="none" stroke-width="1px">60k</text><text x="100" y="0" dx="0em" dy="0.95em" style="text-anchor: middle; visibility: inherit; font-family: &quot;Helvetica Neue&quot;, sans-serif; font-size: 12px; font-weight: 200;" fill="rgb(50, 49, 63)" stroke="none" stroke-width="1px">80k</text><text x="120" y="0" dx="0em" dy="0.95em" style="text-anchor: middle; visibility: hidden; font-family: &quot;Helvetica Neue&quot;, sans-serif; font-size: 12px; font-weight: 200;" fill="rgb(50, 49, 63)" stroke="none" stroke-width="1px">100k</text><text x="140" y="0" dx="0em" dy="0.95em" style="text-anchor: middle; visibility: inherit; font-family: &quot;Helvetica Neue&quot;, sans-serif; font-size: 12px; font-weight: 200;" fill="rgb(50, 49, 63)" stroke="none" stroke-width="1px">120k</text><text x="160" y="0" dx="0em" dy="0.95em" style="text-anchor: middle; visibility: hidden; font-family: &quot;Helvetica Neue&quot;, sans-serif; font-size: 12px; font-weight: 200;" fill="rgb(50, 49, 63)" stroke="none" stroke-width="1px">140k</text><text x="180" y="0" dx="0em" dy="0.95em" style="text-anchor: middle; visibility: inherit; font-family: &quot;Helvetica Neue&quot;, sans-serif; font-size: 12px; font-weight: 200;" fill="rgb(50, 49, 63)" stroke="none" stroke-width="1px">160k</text><text x="200" y="0" dx="0em" dy="0.95em" style="text-anchor: middle; visibility: hidden; font-family: &quot;Helvetica Neue&quot;, sans-serif; font-size: 12px; font-weight: 200;" fill="rgb(50, 49, 63)" stroke="none" stroke-width="1px">180k</text><text x="219.99999999999997" y="0" dx="0em" dy="0.95em" style="text-anchor: middle; visibility: inherit; font-family: &quot;Helvetica Neue&quot;, sans-serif; font-size: 12px; font-weight: 200;" fill="rgb(50, 49, 63)" stroke="none" stroke-width="1px">200k</text><text x="240" y="0" dx="0em" dy="0.95em" style="text-anchor: middle; visibility: hidden; font-family: &quot;Helvetica Neue&quot;, sans-serif; font-size: 12px; font-weight: 200;" fill="rgb(50, 49, 63)" stroke="none" stroke-width="1px">220k</text><text x="260" y="0" dx="0em" dy="0.95em" style="text-anchor: middle; visibility: inherit; font-family: &quot;Helvetica Neue&quot;, sans-serif; font-size: 12px; font-weight: 200;" fill="rgb(50, 49, 63)" stroke="none" stroke-width="1px">240k</text><text x="280" y="0" dx="0em" dy="0.95em" style="text-anchor: middle; visibility: hidden; font-family: &quot;Helvetica Neue&quot;, sans-serif; font-size: 12px; font-weight: 200;" fill="rgb(50, 49, 63)" stroke="none" stroke-width="1px">260k</text><text x="300" y="0" dx="0em" dy="0.95em" style="text-anchor: middle; visibility: hidden; font-family: &quot;Helvetica Neue&quot;, sans-serif; font-size: 12px; font-weight: 200;" fill="rgb(50, 49, 63)" stroke="none" stroke-width="1px">280k</text></g><line x1="0" y1="0" x2="300" y2="0" fill="rgb(0, 0, 0)" stroke="rgb(204, 204, 204)" stroke-width="1px"></line></g></g></g></g></svg>