<svg viewBox="0 0 330 200" xmlns="http://www.w3.org/2000/svg"><g><g><g><g><g><line x1="30" y1="178" x2="25" y2="178" style="visibility: inherit;" fill="rgb(0, 0, 0)" stroke="rgb(204, 204, 204)" stroke-width="1px"></line><line x1="30" y1="163.16666666666666" x2="25" y2="163.16666666666666" style="visibility: inherit;" fill="rgb(0, 0, 0)" stroke="rgb(204, 204, 204)" stroke-width="1px"></line><line x1="30" y1="148.33333333333334" x2="25" y2="148.33333333333334" style="visibility: inherit;" fill="rgb(0, 0, 0)" stroke="rgb(204, 204, 204)" stroke-width="1px"></line><line x1="30" y1="133.5" x2="25" y2="133.5" style="visibility: inherit;" fill="rgb(0, 0, 0)" stroke="rgb(204, 204, 204)" stroke-width="1px"></line><line x1="30" y1="118.66666666666667" x2="25" y2="118.66666666666667" style="visibility: inherit;" fill="rgb(0, 0, 0)" stroke="rgb(204, 204, 204)" stroke-width="1px"></line><line x1="30" y1="103.83333333333333" x2="25" y2="103.83333333333333" style="visibility: inherit;" fill="rgb(0, 0, 0)" stroke="rgb(204, 204, 204)" stroke-width="1px"></line><line x1="30" y1="89" x2="25" y2="89" style="visibility: inherit;" fill="rgb(0, 0, 0)" stroke="rgb(204, 204, 204)" stroke-width="1px"></line><line x1="30" y1="74.16666666666666" x2="25" y2="74.16666666666666" style="visibility: inherit;" fill="rgb(0, 0, 0)" stroke="rgb(204, 204, 204)" stroke-width="1px"></line><line x1="30" y1="59.33333333333334" x2="25" y2="59.33333333333334" style="visibility: inherit;" fill="rgb(0, 0, 0)" stroke="rgb(204, 204, 204)" stroke-width="1px"></line><line x1="30" y1="44.5" x2="25" y2="44.5" style="visibility: inherit;" fill="rgb(0, 0, 0)" stroke="rgb(204, 204, 204)" stroke-width="1px"></line><line x1="30" y1="29.666666666666657" x2="25" y2="29.666666666666657" style="visibility: inherit;" fill="rgb(0, 0, 0)" stroke="rgb(204, 204, 204)" stroke-width="1px"></line><line x1="30" y1="14.833333333333343" x2="25" y2="14.833333333333343" style="visibility: inherit;" fill="rgb(0, 0, 0)" stroke="rgb(204, 204, 204)" stroke-width="1px"></line><line x1="30" y1="0" x2="25" y2="0" style="visibility: inherit;" fill="rgb(0, 0, 0)" stroke="rgb(204, 204, 204)" stroke-width="1px"></line></g><g transform="translate(20, 0)"><text x="0" y="178" dx="0em" dy="0.3em" style="text-anchor: end; visibility: hidden; font-family: &quot;Helvetica Neue&quot;, sans-serif; font-size: 12px; font-weight: 200;" fill="rgb(50, 49, 63)" stroke="none" stroke-width="1px">68</text><text x="0" y="163.16666666666666" dx="0em" dy="0.3em" style="text-anchor: end; visibility: inherit; font-family: &quot;Helvetica Neue&quot;, sans-serif; font-size: 12px; font-weight: 200;" fill="rgb(50, 49, 63)" stroke="none" stroke-width="1px">70</text><text x="0" y="148.33333333333334" dx="0em" dy="0.3em" style="text-anchor: end; visibility: hidden; font-family: &quot;Helvetica Neue&quot;, sans-serif; font-size: 12px; font-weight: 200;" fill="rgb(50, 49, 63)" stroke="none" stroke-width="1px">72</text><text x="0" y="133.5" dx="0em" dy="0.3em" style="text-anchor: end; visibility: inherit; font-family: &quot;Helvetica Neue&quot;, sans-serif; font-size: 12px; font-weight: 200;" fill="rgb(50, 49, 63)" stroke="none" stroke-width="1px">74</text><text x="0" y="118.66666666666667" dx="0em" dy="0.3em" style="text-anchor: end; visibility: hidden; font-family: &quot;Helvetica Neue&quot;, sans-serif; font-size: 12px; font-weight: 200;" fill="rgb(50, 49, 63)" stroke="none" stroke-width="1px">76</text><text x="0" y="103.83333333333333" dx="0em" dy="0.3em" style="text-anchor: end; visibility: inherit; font-family: &quot;Helvetica Neue&quot;, sans-serif; font-size: 12px; font-weight: 200;" fill="rgb(50, 49, 63)" stroke="none" stroke-width="1px">78</text><text x="0" y="89" dx="0em" dy="0.3em" style="text-anchor: end; visibility: hidden; font-family: &quot;Helvetica Neue&quot;, sans-serif; font-size: 12px; font-weight: 200;" fill="rgb(50, 49, 63)" stroke="none" stroke-width="1px">80</text><text x="0" y="74.16666666666666" dx="0em" dy="0.3em" style="text-anchor: end; visibility: inherit; font-family: &quot;Helvetica Neue&quot;, sans-serif; font-size: 12px; font-weight: 200;" fill="rgb(50, 49, 63)" stroke="none" stroke-width="1px">82</text><text x="0" y="59.33333333333334" dx="0em" dy="0.3em" style="text-anchor: end; visibility: hidden; font-family: &quot;Helvetica Neue&quot;, sans-serif; font-size: 12px; font-weight: 200;" fill="rgb(50, 49, 63)" stroke="none" stroke-width="1px">84</text><text x="0" y="44.5" dx="0em" dy="0.3em" style="text-anchor: end; visibility: inherit; font-family: &quot;Helvetica Neue&quot;, sans-serif; font-size: 12px; font-weight: 200;" fill="rgb(50, 49, 63)" stroke="none" stroke-width="1px">86</text><text x="0" y="29.666666666666657" dx="0em" dy="0.3em" style="text-anchor: end; visibility: hidden; font-family: &quot;Helvetica Neue&quot;, sans-serif; font-size: 12px; font-weight: 200;" fill="rgb(50, 49, 63)" stroke="none" stroke-width="1px">88</text><text x="0" y="14.833333333333343" dx="0em" dy="0.3em" style="text-anchor: end; visibility: inherit; font-family: &quot;Helvetica Neue&quot;, sans-serif; font-size: 12px; font-weight: 200;" fill="rgb(50, 49, 63)" stroke="none" stroke-width="1px">90</text><text x="0" y="0" dx="0em" dy="0.3em" style="text-anchor: end; visibility: hidden; font-family: &quot;Helvetica Neue&quot;, sans-serif; font-size: 12px; font-weight: 200;" fill="rgb(50, 49, 63)" stroke="none" stroke-width="1px">92</text></g><line x1="30" y1="0" x2="30" y2="178" fill="rgb(0, 0, 0)" stroke="rgb(204, 204, 204)" stroke-width="1px"></line></g></g><g transform="translate(30, 0)" clip-path="url(#clip_0)"><clipPath id="clip_0"><rect width="300" height="178"></rect></clipPath><g><g><g><line x1="0" y1="0" x2="0" y2="178" fill="rgb(0, 0, 0)" stroke="rgb(60, 60, 60)" stroke-width="1px" opacity="0.25"></line><line x1="20" y1="0" x2="20" y2="178" fill="rgb(0, 0, 0)" stroke="rgb(60, 60, 60)" stroke-width="1px" opacity="0.25"></line><line x1="40" y1="0" x2="40" y2="178" fill="rgb(0, 0, 0)" stroke="rgb(60, 60, 60)" stroke-width="1px" opacity="0.25"></line><line x1="60" y1="0" x2="60" y2="178" fill="rgb(0, 0, 0)" stroke="rgb(60, 60, 60)" stroke-width="1px" opacity="0.25"></line><line x1="80" y1="0" x2="80" y2="178" fill="rgb(0, 0, 0)" stroke="rgb(60, 60, 60)" stroke-width="1px" opacity="0.25"></line><line x1="100" y1="0" x2="100" y2="178" fill="rgb(0, 0, 0)" stroke="rgb(60, 60, 60)" stroke-width="1px" opacity="0.25"></line><line x1="120" y1="0" x2="120" y2="178" fill="rgb(0, 0, 0)" stroke="rgb(60, 60, 60)" stroke-width="1px" opacity="0.25"></line><line x1="140" y1="0" x2="140" y2="178" fill="rgb(0, 0, 0)" stroke="rgb(60, 60, 60)" stroke-width="1px" opacity="0.25"></line><line x1="160" y1="0" x2="160" y2="178" fill="rgb(0, 0, 0)" stroke="rgb(60, 60, 60)" stroke-width="1px" opacity="0.25"></line><line x1="180" y1="0" x2="180" y2="178" fill="rgb(0, 0, 0)" stroke="rgb(60, 60, 60)" stroke-width="1px" opacity="0.25"></line><line x1="200" y1="0" x2="200" y2="178" fill="rgb(0, 0, 0)" stroke="rgb(60, 60, 60)" stroke-width="1px" opacity="0.25"></line><line x1="219.99999999999997" y1="0" x2="219.99999999999997" y2="178" fill="rgb(0, 0, 0)" stroke="rgb(60, 60, 60)" stroke-width="1px" opacity="0.25"></line><line x1="240" y1="0" x2="240" y2="178" fill="rgb(0, 0, 0)" stroke="rgb(60, 60, 60)" stroke-width="1px" opacity="0.25"></line><line x1="260" y1="0" x2="260" y2="178" fill="rgb(0, 0, 0)" stroke="rgb(60, 60, 60)" stroke-width="1px" opacity="0.25"></line><line x1="280" y1="0" x2="280" y2="178" fill="rgb(0, 0, 0)" stroke="rgb(60, 60, 60)" stroke-width="1px" opacity="0.25"></line><line x1="300" y1="0" x2="300" y2="178" fill="rgb(0, 0, 0)" stroke="rgb(60, 60, 60)" stroke-width="1px" opacity="0.25"></line></g><g><line x1="0" y1="178" x2="300" y2="178" fill="rgb(0, 0, 0)" stroke="rgb(60, 60, 60)" stroke-width="1px" opacity="0.25"></line><line x1="0" y1="163.16666666666666" x2="300" y2="163.16666666666666" fill="rgb(0, 0, 0)" stroke="rgb(60, 60, 60)" stroke-width="1px" opacity="0.25"></line><line x1="0" y1="148.33333333333334" x2="300" y2="148.33333333333334" fill="rgb(0, 0, 0)" stroke="rgb(60, 60, 60)" stroke-width="1px" opacity="0.25"></line><line x1="0" y1="133.5" x2="300" y2="133.5" fill="rgb(0, 0, 0)" stroke="rgb(60, 60, 60)" stroke-width="1px" opacity="0.25"></line><line x1="0" y1="118.66666666666667" x2="300" y2="118.66666666666667" fill="rgb(0, 0, 0)" stroke="rgb(60, 60, 60)" stroke-width="1px" opacity="0.25"></line><line x1="0" y1="103.83333333333333" x2="300" y2="103.83333333333333" fill="rgb(0, 0, 0)" stroke="rgb(60, 60, 60)" stroke-width="1px" opacity="0.25"></line><line x1="0" y1="89" x2="300" y2="89" fill="rgb(0, 0, 0)" stroke="rgb(60, 60, 60)" stroke-width="1px" opacity="0.25"></line><line x1="0" y1="74.16666666666666" x2="300" y2="74.16666666666666" fill="rgb(0, 0, 0)" stroke="rgb(60, 60, 60)" stroke-width="1px" opacity="0.25"></line><line x1="0" y1="59.33333333333334" x2="300" y2="59.33333333333334" fill="rgb(0, 0, 0)" stroke="rgb(60, 60, 60)" stroke-width="1px" opacity="0.25"></line><line x1="0" y1="44.5" x2="300" y2="44.5" fill="rgb(0, 0, 0)" stroke="rgb(60, 60, 60)" stroke-width="1px" opacity="0.25"></line><line x1="0" y1="29.666666666666657" x2="300" y2="29.666666666666657" fill="rgb(0, 0, 0)" stroke="rgb(60, 60, 60)" stroke-width="1px" opacity="0.25"></line><line x1="0" y1="14.833333333333343" x2="300" y2="14.833333333333343" fill="rgb(0, 0, 0)" stroke="rgb(60, 60, 60)" stroke-width="1px" opacity="0.25"></line><line x1="0" y1="0" x2="300" y2="0" fill="rgb(0, 0, 0)" stroke="rgb(60, 60, 60)" stroke-width="1px" opacity="0.25"></line></g></g></g><g><g><line x1="0" y1="682.3333333333334" x2="300" y2="682.3333333333334" fill="rgb(0, 0, 0)" stroke="rgb(153, 153, 153)" stroke-width="1.5px"></line></g></g><g><g><line x1="20" y1="0" x2="20" y2="178" fill="rgb(0, 0, 0)" stroke="rgb(153, 153, 153)" stroke-width="1.5px"></line></g></g><g><g><g><g><g><path stroke="rgb(255, 112, 67)" stroke-width="2px" d="M26.95,191.48913979267437L27.499999999999996,173.70625687154686L27.75,180.38638973412128L28.4,185.81256209346958L28.851000000000003,170.09962228099056L29.101,178.57649974175234L29.201,161.184611833536L29.250999999999998,166.07992667648497L29.450999999999997,174.76255807089805L29.851,196.26413958313472L30.251,163.22745615157206L30.301000000000002,174.81652309272502L30.551000000000002,181.93919756146423L31.101,162.2012638155585L31.401,156.8032410195658L31.651,150.35799876206687L31.801000000000002,166.35146434114446L32.401,160.37411809466101L32.701,167.57728924106107L32.951,202.14143838212058L33.301,156.92160307683105L33.501000000000005,124.22964152689045L33.601,150.32274968920728L34.551,152.10694078454944L34.801,152.8367984727509L34.851,153.57812287515864L35.101,155.2426542265409L35.351,158.31725014318607L35.451,136.1033374778517L35.851,140.23486915564806L35.900999999999996,153.59017160535737L36.251,153.6810291936027L36.451,151.96151751866032L36.901,159.73560764766765L37.301,143.91494435382998L38.052,154.37842903826572L38.251999999999995,133.50506548770454L38.752,146.02514006104525L38.852,134.85710123004455L40.952,133.80165087428276L41.002,140.583354021847L41.402,145.01268123758038L41.852000000000004,143.69284690769175L41.952,156.32612939681115L42.002,139.80435998044067L42.152,130.55525338292614L42.452,130.7873801657771L42.902,115.54225112604749L43.052,107.68379655363462L43.102,116.16375344261222L43.602,141.44758273342666L44.452,134.14451670998167L44.552,123.48212397203999L45.252,129.13061264784977L45.501999999999995,126.30344383209503L45.602000000000004,139.16572625723347L45.752,159.95998952176228L46.152,136.78339232619425L46.452,152.66305991892756L46.552,127.36696778799524L46.653000000000006,123.408131997979L46.953,118.5245003624349L47.203,118.6524958428817L47.703,113.980599318457L48.00300000000001,132.69923407867918L48.303,150.68594921937202L48.503,132.46315215421907L48.803,128.52847894348656L48.903,146.32804854805656L49.053,145.68038363485158L49.153000000000006,123.64711524812965L49.202999999999996,128.5760686132369L49.453,121.01960212388809L49.503,131.1698524745281L49.952999999999996,135.3864114460938L50.253,135.38891277047776L50.353,124.01649409532388L50.603,139.7299080471193L50.853,125.89847439269212L50.953,122.87929490925868L51.553,128.76795736468432L51.903,142.89043124372748L51.953,135.55017501469956L52.053,150.83626565443427L52.153,129.86337747109025L52.203,132.71558901647364L52.303,128.8276063034325L52.903,144.0767598776834L53.053,140.56143071141298L53.253,166.26737190649848L53.403,129.4145628572483L53.553,115.77306639237143L53.753,113.38924267416085L53.803,118.60867375490531L54.003,119.51453336782501L54.253,111.73475583605146L54.803,122.48031953239104L55.153,109.56772523898975L55.504,99.26155940824472L55.704,118.57683398763459L55.854000000000006,126.69968905381398L55.903999999999996,115.06059813002358L55.954,116.73970304181066L56.304,112.37632623389334L56.604,140.10257409137972L56.704,121.68414937890324L56.754,128.24178726107903L56.954,123.99842379479918L57.154,114.41562687751446L57.354,109.72711878835207L57.403999999999996,113.07573883678234L57.604,110.87141918623168L58.054,122.96189311986289L58.254,133.66340994391376L58.304,128.53991545703076L58.354000000000006,115.71513524095042L58.454,122.97287390561843L58.504000000000005,99.19186217168551L58.804,119.9636383888511L59.004,111.68692820183601L59.054,109.76688174678534L59.153999999999996,127.05468966645101L59.254000000000005,105.12959354544313L59.404,104.35003052182391L59.454,102.50909457016215L59.504000000000005,118.8340082528439L59.70399999999999,130.53057255235063L59.903999999999996,118.81460859940474L60.153999999999996,109.56312914659394L60.204,120.58268417905711L60.254000000000005,119.78495075898651L61.404,127.93939026970855L61.604000000000006,115.47330604626492L61.704,113.45458292156587L61.954,136.64186034755943L63.153999999999996,123.27721888867134L63.254,134.17453879231354L63.504000000000005,119.03152251873654L63.604,96.24708175053478L63.804,119.39121627625912L63.903999999999996,107.43572368567311L64.255,108.36564212146938L64.555,123.39538828463415L64.755,112.71645317057094L65.105,108.98798937473488L65.205,122.63162833911313L65.505,106.60748700637265L65.605,115.21527171633241L65.755,107.24791484823308L65.905,112.71341495638242L66.305,100.6539997803922L66.355,98.500648888382L66.50500000000001,102.61084593706306L66.855,91.3256714980989L67.005,89.11188029769633L67.455,98.09382886744609L67.655,118.9466114135298L67.805,116.18583081836636L67.85499999999999,93.78361376526505L68.30499999999999,105.87909626285999L68.355,121.50634050961571L68.555,121.70733765144027L68.655,126.49191403601236L68.705,108.09936006132862L68.905,108.05678371369073L68.955,100.72053344581295L69.105,90.33305532793341L69.155,97.27693355598092L69.555,109.76648295477452L69.75500000000001,114.91076293554535L69.855,120.26937056869261L69.955,110.77883057978752L70.005,109.23386305129635L70.455,125.25900029010413L70.605,99.46124818782067L71.005,105.09975655931252L71.10499999999999,100.63868182517497L71.355,116.60775019015102L71.605,122.1967559932229L71.955,111.19955973660623L72.605,121.79101651361295L72.905,91.14593666032172L73.05499999999999,93.97018309007649L73.106,91.0262950367845L73.306,102.48094193459903L73.506,96.82534419791313L73.60600000000001,107.09759702870174L73.856,106.99781643923802L73.906,100.33661655856179L74.35600000000001,107.19247393292096L74.656,115.79335644786136L74.856,113.28402763290582L74.906,119.55078439816847L75.40599999999999,102.12208289177724L75.656,109.18264556608051L76.35600000000001,113.7447857479696L76.456,115.72115288239061L77.456,120.07524078506634L77.506,112.97978576447096L77.70599999999999,104.65031752713183L77.756,100.96478322861886L77.806,108.34346888378754L78.706,81.44687293544058L78.956,104.01602351240706L79.306,103.99009465646469L79.356,98.1978569491855L79.65599999999999,108.12361146402813L79.756,103.27133706825707L80.006,102.9501039453876L80.106,116.50800112888814L81.306,115.8186134378283L81.406,107.59230561694018L81.506,103.96291094116523L81.90599999999999,105.80335673419286L82.007,97.45001873392165L82.407,100.47149141933016L82.557,109.22971907547766L82.707,96.90044851886726L83.357,102.5152730418866L83.70700000000001,101.36124065737798L84.007,90.67241594161857L84.307,105.64388996650653L84.357,108.31021608001954L84.657,70.4978060476591L85.157,94.58964796918461L85.407,91.40301158842794L85.457,92.86282986050063L85.607,92.61731733176677L85.907,104.87866462854612L86.007,89.96661484317413L86.157,94.67823194288142L86.307,74.8644737764883L86.457,108.20094185167615L86.50699999999999,95.3284379713558L87.407,95.10800690867973L88.157,90.69321508631648L88.907,93.83436661787498L89.057,102.80440271048055L89.10699999999999,78.59600348119437L89.207,87.4243548875387L89.25699999999999,87.00642920033144L90.30699999999999,83.35741054364844L90.357,111.194427206165L90.607,113.93883957288057L90.75699999999999,117.19235063539358L90.908,95.50385895852176L91.00800000000001,88.90086287503627L91.208,105.16708484365105L91.408,90.07963951152635L91.608,92.95443823254728L92.858,85.17369871829938L92.908,106.09309097179272L93.458,81.44044331326636L93.858,91.85971185648803L93.908,90.71252323712226L94.058,95.16948588349024L94.15799999999999,95.37727468706453L94.208,107.93269299317579L94.658,99.80738676046091L95.008,86.15102276540226L95.758,89.6601238767399L95.80799999999999,106.18629603346464L95.958,81.58232110170609L96.908,101.09174542057934L97.158,98.38081017860301L97.208,90.29336578765074L97.30799999999999,90.11412693396782L97.658,98.78627818028798L98.008,109.1950301444551L98.05799999999999,94.24521183518634L98.508,93.68998156253917L98.70800000000001,104.53399826565719L98.80799999999999,99.50997422182365L99.00800000000001,98.75015438609461L99.45800000000001,87.2183159818644L99.759,75.73939177484503L99.809,85.02181753245357L100.059,99.49639047203671L100.459,81.65657908822567L100.909,84.5397204610869L100.959,94.3918485418906L101.15899999999999,106.37547018655003L101.409,102.28699141302069L101.559,98.94852093922606L101.659,91.12642137627068L101.80900000000001,82.83847973471956L101.959,81.70867524264078L102.159,92.95406000331388L102.55900000000001,87.65368028635388L102.95899999999999,98.56195567892377L103.159,92.01003141854125L103.30900000000001,101.518745687566L103.359,90.37669075338903L103.659,87.80657392981313L104.109,103.85771607034204L104.309,108.05455991031567L104.35900000000001,118.26772498806862L104.409,92.35111401792528L104.50900000000001,88.88736246719814L104.659,89.97149209587238L105.009,94.46216098986606L105.459,85.6603567854242L105.509,107.93519708282784L105.959,101.84631236225476L106.15899999999999,91.80357460925018L106.259,96.70726068640461L106.40899999999999,101.83580758519385L106.659,91.28827527268959L106.709,112.52982383699485L106.809,103.83563381949449L106.859,101.31899306332883L106.90899999999999,93.7009812747115L107.15899999999999,87.58215266132385L107.85900000000001,76.80684953629188L108.30900000000001,103.53815891057017L108.56,78.77093616041478L108.91,75.9585768508303L108.96000000000001,67.78200429660242L109.41000000000001,73.94733703727171L109.76,72.70650253075753L110.36,87.59629931065957L110.71,101.11051128113324L110.81,78.75093489628253L111.00999999999999,94.92415087344614L111.50999999999999,88.61406402068054L111.56,90.02682791236055L111.71000000000001,89.74553279702768L111.96,81.97948024061799L112.16000000000001,80.71840188519403L112.81,84.76550365373375L112.96,93.15794356133013L113.26,82.61043791611638L113.30999999999999,89.3311952888161L113.36,87.6671664835768L114.16,103.35084135895247L115.06,90.42098434636581L115.36,83.59889980118358L115.71,94.7457272727119L116.00999999999999,85.64097701665247L116.21000000000001,86.2665170684154L116.31,94.47287841204891L116.41,93.88225856094789L116.71000000000001,98.23451183240385L116.86,122.09584691723418L116.96,108.11129267990663L117.10999999999999,94.44970618877831L117.25999999999999,87.63708400883492L117.361,90.8240979835139L117.811,102.9669303990825L117.91099999999999,99.96480961136298L118.511,73.01996713725417L118.561,83.64773704364207L118.611,81.50402608440619L119.311,85.89893509226928L119.511,88.6190611480014L119.711,91.19632530088235L119.911,88.64517745934437L119.961,97.40677434274315L120.111,72.12307384233311L120.21100000000001,69.78421193744926L120.31099999999999,82.67324760273954L120.711,84.4142078242179L120.811,85.9336197360797L120.96100000000001,71.88860719157587L121.111,101.73317666278282L121.26100000000001,80.69127664792337L121.36099999999999,71.01393848804969L121.511,67.12719917540252L122.461,73.73620046052689L123.06099999999999,60.4593094891509L123.111,70.87769864915414L123.161,71.59897211865176L123.26100000000001,87.6716988275715L123.31099999999999,74.23110686710281L123.411,80.01006705056875L123.511,83.94987279919165L123.711,85.12195181473317L123.911,90.93006978717709L124.161,98.6382954824585L124.261,95.52005456016326L124.611,97.52422410883266L124.76100000000001,95.52904750100113L125.011,93.30191963868744L125.21100000000001,79.4532410679979L125.461,86.4313782804824L125.561,86.92967479090738L125.61099999999999,91.26317049859222L126.161,82.11964017291342L126.31200000000001,80.71153241238834L126.462,61.62192294749177L126.61200000000001,74.25259155557322L126.662,61.227774460690554L126.812,74.86913863805263L126.862,71.67605582074519L126.962,86.2109417335079L127.21199999999999,88.58884455211624L127.262,87.14164836838152L127.612,72.93213684449886L127.66199999999999,95.47224486397792L127.86200000000001,74.94534961937L127.96199999999999,76.85188752181769L128.062,66.12181807488435L128.262,69.29846698720331L128.762,73.33337999585991L128.862,80.92688828668125L128.962,81.32967934000828L129.012,83.03088705039525L129.21200000000002,80.21910078613908L129.362,82.53583038436064L129.762,77.19118766562157L129.96200000000002,78.65097799870179L130.662,84.93512500615762L130.862,75.01648879833576L130.962,75.3010580006865L131.212,82.10776595265551L131.262,73.97078924573731L131.362,73.80461523492319L131.46200000000002,92.34470208553239L131.512,84.69806534469453L131.612,70.17189894046481L131.712,75.49863516268962L131.762,75.24690296742679L132.112,75.56292097516865L132.262,79.78441851362003L132.512,69.51522146371329L133.462,74.95718967926709L133.962,98.35333300037844L134.262,104.36194148183958L134.412,81.18766887541949L134.562,93.4531727380246L134.712,61.16772259116247L134.762,95.48363313527923L134.812,84.24173535938667L135.263,72.73920424988552L135.31300000000002,59.89399670027902L135.363,52.16185478706127L135.463,68.57470504146505L136.06300000000002,73.8868498236985L136.113,52.09105895254167L136.213,73.40686976400957L136.613,72.91340194787969L137.063,79.16138783289907L137.913,60.98521298327225L138.613,68.55264162071003L138.81300000000002,90.59494802667928L138.863,92.21473261509611L138.963,89.40988995868251L139.363,77.49134740701798L139.463,89.00370940805915L139.66299999999998,89.42378337753249L140.163,85.00131428114305L140.563,85.46376403531954L140.613,74.6986205588625L141.16299999999998,80.79662567012055L141.563,82.80205081393088L141.863,74.9249173198833L141.91299999999998,71.92466211104482L142.013,69.14928450520068L142.113,75.25031411946387L142.363,80.35464631408628L143.31300000000002,76.90052479174793L143.613,72.23029594918212L143.663,98.03133141984584L144.114,91.98519879576584L144.214,69.37676780421651L144.364,65.57360843320429L144.414,73.23712871322952L144.464,61.119122292150834L145.01399999999998,73.64557135866585L145.164,88.07170930534554L145.464,66.6412045767803L145.714,87.89774689905539L145.814,80.49115780740787L145.914,71.23520789469227L146.014,56.595722840006005L146.464,76.72890949421375L146.664,61.949162006894525L146.864,90.09576627428922L146.964,87.76626287941815L147.114,83.85759518259171L147.564,72.64428175403701L147.614,61.44652409428565L148.114,53.94755242787076L148.214,35.98708033916043L148.81400000000002,62.12186002042894L148.864,76.83786962620525L148.914,74.55609111247098L149.114,74.31225033280545L149.314,81.12774486048218L149.614,80.4976582130886L149.664,80.22493782444096L149.814,73.9465677781998L150.214,68.13452982239228L150.464,70.93790457049698L150.614,79.88824234028573L150.764,87.87742145544269L150.814,89.66850979234567L151.214,84.18792018623893L151.51399999999998,79.2839397231691L151.814,77.62361130436126L152.064,65.90440370635153L152.965,70.79139226872523L153.165,89.95720947444082L153.26500000000001,65.10284964042802L153.51500000000001,57.81400969762977L153.765,61.03659811955508L154.41500000000002,87.68107627831444L154.61499999999998,75.66151752969392L154.76500000000001,72.3793368863089L155.515,83.60554828624994L156.065,80.58221780771336L156.11499999999998,73.44353130911095L156.26500000000001,64.21360825137586L156.565,62.24624380658955L156.915,59.11422818856711L156.965,79.6178165573595L157.015,81.07654090023202L157.065,60.4153677800184L157.115,61.60917568739916L157.16500000000002,77.7159651136498L157.565,83.87701188771231L158.715,72.87259205355738L158.765,67.55404503397489L158.815,67.94179645951297L159.165,71.63064068091627L159.715,63.43260034382169L159.815,60.95920616922723L160.415,63.52321551999836L160.465,75.04277118472672L160.615,75.63821460533666L160.71499999999997,76.92673907795113L160.76500000000001,78.01394485469228L160.865,76.45034815977682L161.76600000000002,67.8064696772218L162.01600000000002,72.59833630671064L162.166,76.62261949603744L162.316,75.15330781129502L162.766,76.04180151697253L162.816,81.14527564389385L163.11599999999999,65.56570596638187L163.216,64.30805566452803L163.26600000000002,56.13648738824189L163.566,62.88633030562461L163.716,75.23650971027878L164.016,66.24160263232199L164.11599999999999,63.883651431277926L164.216,61.41452481425068L164.36599999999999,82.94243713838736L165.066,70.92811523066825L165.166,74.8037922606475L165.216,81.09787672238376L165.266,61.283072174023076L165.816,63.74447117460686L166.316,60.482156227666906L166.716,79.6313496601499L167.566,80.09821163530901L167.916,81.71775580321487L167.96599999999998,74.12784276269306L168.116,58.8286072945469L168.61599999999999,80.49796280868475L168.916,77.44414134504689L169.11599999999999,66.31545675898288L169.366,67.36132066976438L169.466,63.64269738653732L169.56599999999997,50.28321067470152L169.666,66.7927701710995L169.766,74.6988658261101L169.966,64.33908581391381L170.016,92.6659424851003L170.166,71.19415778367707L170.46599999999998,79.02051635518374L170.517,81.98680390100095L170.667,53.629044341585285L171.06699999999998,78.24762507107096L171.167,57.62124396510791L171.217,69.25884932224322L171.267,62.60346300386698L171.667,71.19876287475226L172.417,67.38009871868795L172.517,63.8350093061582L172.617,56.34325391336853L172.717,56.467768234862646L172.817,63.820955305155266L173.26700000000002,52.59576334223836L173.46699999999998,63.040791139003716L174.117,61.53141929258814L174.317,65.11328753297502L175.267,60.59533549288409L176.01700000000002,62.80482408485662L176.067,46.67333879395878L176.36700000000002,47.436070381575576L176.417,56.808294500601434L176.517,42.59248968532444L176.667,58.348255417458546L176.917,61.007064197971204L177.117,72.06786563034278L177.217,60.501416474686295L178.017,64.17905430896273L178.367,73.68335369299812L178.567,67.5996232521662L178.917,86.93556032057992L178.96699999999998,67.95915663682342L179.317,86.45371747546274L179.418,59.78861634890103L180.61800000000002,62.577859865506056L180.768,68.89980430212007L181.118,67.5505661253325L181.268,67.47229391189985L181.318,58.361335898993175L181.41799999999998,52.44690893060701L181.468,72.08832466791095L181.818,68.76624610083316L182.46800000000002,48.925986081531676L182.71800000000002,68.9906254778816L183.168,43.4348117481822L183.26799999999997,72.50503484322095L183.368,59.20619769865314L183.71800000000002,63.32781275503055L184.368,69.20816768922082L184.468,68.91663210506542L184.768,73.08609885647495L185.168,68.76129992010576L185.46800000000002,69.56647890171126L185.518,62.25905963985335L185.568,56.48084791464079L185.768,58.22705905426287L186.01799999999997,70.72040907776983L186.36800000000002,73.49081761112801L186.768,68.61935348849795L186.96800000000002,57.71407327117912L187.16799999999998,47.41556647140504L187.268,51.437423745946234L187.568,66.8308343371221L187.81799999999998,63.22205106458475L187.918,65.55500293585092L188.018,61.892045873838L188.168,77.55920960260559L188.369,58.7813580803667L188.969,59.57781556365673L189.219,55.35868949229858L189.46900000000002,40.58646674911782L190.369,50.6242654997923L190.569,47.32877897855104L190.719,57.099675233075445L190.96900000000002,72.4397372409432L191.31900000000002,52.16229989542752L191.51899999999998,66.84977550431353L191.619,53.86239801384292L191.919,67.67085656286473L191.969,70.92353219418086L192.269,60.14872904607168L192.619,48.2193987965241L192.91899999999998,49.55432811775768L193.06900000000002,44.29297817368993L193.369,40.27044337377856L193.91899999999998,59.38137848790264L194.019,56.31926145439084L194.51899999999998,55.726610663388456L194.669,58.516817491110544L194.769,61.72314782962894L195.019,58.55708729831093L195.81900000000002,56.2360753166906L195.919,74.49621538166896L196.169,57.72909539096956L196.219,56.053706403037125L196.419,56.707046737907376L196.519,76.07611561337255L196.819,72.7416096067006L196.869,62.93199699130386L197.17,63.991432224730886L197.77,62.48184936295554L198.02,54.947390972725415L198.62,55.46334663802942L198.67000000000002,45.168652517918474L198.97,46.183923430241265L199.02,39.827413217325216L199.72,51.238880245715166L199.92,59.76439084475139L200.01999999999998,58.66828661123385L200.12,44.06169865019959L200.26999999999998,40.61406540916718L200.42000000000002,35.98111452275424L200.87,48.38531711185155L201.17,50.89267249052986L201.27,45.802075594103144L201.82,50.11975971741549L201.87,50.12443639402508L202.17000000000002,40.72390502760297L202.52,60.17085116526334L203.72,49.77887738174459L204.02,48.889584133306016L204.12,58.72589388368891L205.17,71.42736200157317L205.32,60.3692734350667L205.52,48.82163401772303L205.57000000000002,66.3512472599638L205.62,65.36006517479503L205.871,51.318134285816654L206.021,64.33927255604935L206.12099999999998,62.889252012176144L206.571,48.005337488215076L206.921,45.13067349937393L207.171,39.3840548152134L207.571,51.65386702083764L207.77100000000002,40.284950427601444L207.97099999999998,53.13051534068285L208.621,50.77547083806509L208.721,35.106118805740806L208.87099999999998,43.16516331658801L209.47099999999998,50.66134003348964L209.671,68.81113775833788L209.921,60.161354836616L210.021,55.72221219642748L210.52100000000002,44.99974445930263L210.62099999999998,47.443248507672024L210.721,58.630692091771024L211.371,62.4636227708622L212.171,56.45087786977187L212.421,64.50215846438623L212.771,60.46016164860954L212.921,51.27936509919715L213.021,55.86377384962408L214.021,46.24063112746211L214.071,39.148490595054255L214.121,63.122171245187076L214.371,61.13989634578519L214.471,61.6993884899172L214.922,52.50495064629972L215.322,36.46155020904703L215.622,35.20480906957036L215.672,59.63059873181679L215.87199999999999,58.93420983194741L216.422,45.89648329667082L216.72199999999998,49.661284059639314L217.022,56.21077802489867L217.172,54.87961975746552L217.922,54.74894197785821L218.122,46.37606637479061L218.472,45.81904015779858L218.672,43.19762289277827L218.92200000000003,55.73508388524891L219.172,47.91373888271744L219.372,51.91915766284178L219.422,63.48161856299237L219.972,44.61433114995239L220.022,43.4117725403797L220.572,43.77042818799691L220.672,50.934258479083866L220.72199999999998,39.259137445153414L221.072,38.68317190015168L221.172,36.48496204774733L221.222,41.837354980392774L221.272,58.844148541237004L221.32199999999997,53.29335178079559L221.62199999999999,59.2587996397685L222.722,41.05113785488231L222.872,53.95958065496728L223.572,56.3635996883318L223.773,42.19916519041479L223.823,39.7085261837114L223.923,44.54588552997913L224.323,32.28135262137573L224.573,51.019415488459444L224.923,48.96214102227029L226.323,51.103863393819L227.223,50.6345081951884L227.473,32.96945007920277L227.923,37.04948777441194L227.97299999999998,41.56681210940286L228.523,53.91524633311789L228.57299999999998,52.073765374849955L228.673,50.61933871635718L228.773,45.61618033805169L228.923,42.476874454097015L228.973,51.3015412002631L229.073,37.2437698297648L230.223,70.35247474470592L230.47299999999998,58.683535290436524L230.623,55.23038458208546L230.773,49.98108214352621L231.023,59.87072025005253L231.573,51.757947324507214L232.02300000000002,42.644169946151834L232.173,58.25923062353468L232.22299999999998,43.23068882919105L232.624,42.231309856663415L232.92399999999998,49.50082828770792L233.724,38.47266453754128L234.024,47.54635150308778L234.22400000000002,26.321958467588985L234.374,41.94261955575928L234.674,44.386299266487725L234.77400000000003,39.274223113279675L235.224,43.7158967964514L235.424,52.77105852105221L235.72400000000002,52.51909005285708L235.974,45.903572792732945L236.27399999999997,45.69804734237718L236.724,46.547046509129984L237.07399999999998,41.747325724386144L237.274,28.75156244815085L237.724,44.323524319670724L237.874,51.89019427405063L238.47400000000002,50.4839793891895L238.824,46.78298201713534L238.974,39.422656356951364L239.074,53.27500991215142L239.124,51.787107503979925L239.324,42.93778789338566L239.374,49.04642489442358L239.424,32.78062802222112L240.024,42.9755050112806L240.324,49.234318170050926L240.374,38.945102427333666L240.474,45.08844704645773L240.774,43.41295868719985L240.924,45.35574910213168L241.22400000000002,46.440514937548784L241.375,38.218144687665244L241.725,54.19850201785148L242.225,34.183855821826825L242.525,36.470237389248325L242.72500000000002,44.10266776930544L242.875,40.14300418312726L243.27499999999998,33.80613723719736L243.375,37.734730384721274L244.025,33.87283025840139L244.22500000000002,35.91476871965108L244.275,36.34427619695006L245.225,36.73712424651586L245.275,39.248527436104894L245.425,35.137058230831514L245.775,36.347390802481044L245.875,30.823245459331616L246.27499999999998,52.755462992251026L246.375,33.66800229590939L246.425,41.12361140502037L247.075,45.77115216489398L247.17499999999998,40.71389557113983L247.225,36.07713183916832L247.675,50.000592529248905L247.825,57.17969677631214L248.375,38.703690641475276L248.525,50.43330459793991L248.625,38.49249137938207L248.725,38.11384543627565L249.325,44.454780779828894L250.126,43.94889678633723L250.376,30.278328182527986L250.87599999999998,16.244419360825333L251.176,16.27180520633931L251.526,28.6928542373779L251.82600000000002,40.42729259882975L251.92600000000002,41.25922390228891L252.12599999999998,37.996728250602075L252.476,35.294896949098245L252.526,34.461968319246864L252.576,25.61156978705418L253.07600000000002,28.367195784545686L254.126,29.838880989798923L254.376,22.834991844648812L254.626,36.07980428302929L254.92600000000002,41.26945075044432L255.426,39.17745921805323L255.676,27.679770065729286L255.976,36.42366317710818L256.176,49.69907180011731L256.226,38.53784132661565L256.626,20.03274611034641L256.776,29.372323833103962L256.826,45.4904783414392L256.926,30.380001778798942L257.076,23.841520522653383L257.126,37.20337804196865L257.176,28.428319613253905L257.426,35.6166441281982L257.526,33.44262002628099L257.676,38.79565393543561L257.726,45.698314176846566L257.776,38.572987663800234L257.82599999999996,44.61898244263372L257.926,40.27512325299273L258.076,43.89409105813252L258.126,37.30025627862139L258.426,47.53174355025314L258.726,36.77038408039584L258.826,40.74211032604745L258.976,20.931246747818392L259.527,30.271938734326795L259.927,33.088445277931584L259.977,27.246084415492106L260.027,27.67766914076907L260.327,35.898130810183204L260.677,29.304994764702144L260.92699999999996,27.419105902148345L261.277,15.546555312921583L261.927,36.14985323124628L262.22700000000003,38.03486043663872L262.327,44.44578032032268L262.47700000000003,32.920163246996026L262.827,46.680629217527326L263.127,35.116485950520314L263.277,37.35129519616683L263.377,35.94866782520754L263.427,39.88620678015917L263.877,40.840071628774325L264.377,34.80443263161732L264.427,27.13885659409135L264.827,37.83962062924877L265.42699999999996,43.04374104717306L265.577,25.133612960514313L265.727,33.109929469208964L266.377,30.53395991732114L266.777,42.19935226403513L267.177,33.28023490894688L267.227,38.74693840023531L267.377,47.45958128355937L267.477,33.49526930287382L267.527,54.92497639785681L268.178,30.03939121444168L268.478,23.128641577996262L268.578,25.150619450937967L269.328,28.311852501948124L269.678,18.23593182378596L269.978,15.204243533850587L270.128,27.17785122584533L270.178,27.212426654272974L270.478,22.02709247026064L271.128,28.9182489594416L271.228,36.97570630353485L271.27799999999996,31.80277690621756L271.32800000000003,23.60565030971935L271.628,39.815115401346816L271.878,21.23869215722857L272.528,26.123880825269225L273.328,34.596912007081926L273.678,29.66241259392558L273.928,18.43097265665665L273.978,30.891386739725675L274.27799999999996,24.485100767706342L274.728,25.292412732549934L274.878,34.01546665067724L274.928,32.329350205367575L275.028,37.150645653040954L275.32800000000003,21.087319334238316L275.378,29.95431558685192L275.478,31.73073157587652L275.728,31.730753209945618L275.878,36.219242938386515L276.628,40.48012135665431L276.829,22.957605666639836L277.129,23.695595641947563L277.479,21.43052050471809L277.679,11.122973862291985L277.829,18.72671880612819L278.579,20.627593265841625L278.979,22.100788597326584L279.179,22.61820286236039L279.22900000000004,3.9210766525721112L280.12899999999996,30.376001988996762L280.279,36.94469216520079L280.329,52.4114065102373L280.429,31.952608710476824L280.529,38.11044037122011L280.579,31.282764883176014L280.779,24.035269808173894L280.829,22.90278478207216L281.379,22.132724129384854L281.67900000000003,31.102227148381814L281.879,33.06399016091271L283.029,31.87093356204747L283.679,25.405900391795427L284.079,27.5194093285576L284.329,31.09353953695029L284.379,39.28423836458444L284.479,32.49533652453249L284.529,33.976365532046486L284.579,32.721277973721214L285.029,26.577839563787876L285.079,27.93911903018784L285.529,20.509025735403213" style="fill: none;" fill="none"></path></g></g></g></g><g opacity="0.2"><g><g><g><path stroke="rgb(255, 112, 67)" stroke-width="2px" d="M26.95,189.60331026713052L27.499999999999996,166.08502133687338L27.75,183.24930381774902L28.4,181.15261522928873L28.851000000000003,163.36550521850586L29.101,182.2094472249349L29.201,153.7309455871582L29.250999999999998,168.17791875203451L29.450999999999997,178.4836858113607L29.851,205.4791030883789L30.251,149.06887753804526L30.301000000000002,179.78326606750488L30.551000000000002,184.99177233378092L31.101,153.74214935302734L31.401,154.48980267842612L31.651,147.59575208028158L31.801000000000002,173.20580673217773L32.401,157.8123982747396L32.701,170.66436258951822L32.951,216.95464515686035L33.301,137.54167366027832L33.501000000000005,110.2188008626302L33.601,161.5055103302002L34.551,152.87159411112467L34.801,153.14959462483725L34.851,153.89583333333334L35.101,155.95602480570474L35.351,159.63493410746256L35.451,126.58308919270833L35.851,142.00552558898926L35.900999999999996,159.31387265523276L36.251,153.7199681599935L36.451,151.2245839436849L36.901,163.06736056009927L37.301,137.13466008504233L38.052,158.86277961730957L38.251999999999995,124.55933825174968L38.752,151.3908863067627L38.852,130.07079887390137L40.952,133.34931500752765L41.002,143.48979822794595L41.402,146.91096433003744L41.852000000000004,143.12720362345377L41.952,161.7403933207194L42.002,132.72360165913898L42.152,126.59135055541992L42.452,130.8868630727132L42.902,109.0086243947347L43.052,104.31588745117188L43.102,119.79802068074544L43.602,152.28350957234701L44.452,131.0146312713623L44.552,118.91252708435059L45.252,131.55139350891113L45.501999999999995,125.09180005391438L45.602000000000004,144.67813301086426L45.752,168.87181663513184L46.152,126.85056495666504L46.452,159.46863174438477L46.552,116.52578544616699L46.653000000000006,121.711488087972L46.953,116.43151537577312L47.203,118.70735104878743L47.703,111.97835795084636L48.00300000000001,140.7215061187744L48.303,158.39454142252603L48.503,124.65338198343913L48.803,126.84219042460124L48.903,153.9564355214437L49.053,145.40281295776367L49.153000000000006,114.2042859395345L49.202999999999996,130.6884771982829L49.453,117.7811164855957L49.503,135.51995976765951L49.952999999999996,137.19350814819336L50.253,135.38998476664224L50.353,119.14260037740071L50.603,146.46422831217447L50.853,119.97071711222331L50.953,121.58536084493001L51.553,131.29166984558105L51.903,148.94292004903158L51.953,132.40435091654462L52.053,157.38744735717773L52.153,120.87499682108562L52.203,133.9379653930664L52.303,127.16132799784343L52.903,150.61211140950522L53.053,139.0548610687256L53.253,177.28420384724936L53.403,113.62050183614095L53.553,109.92671076456706L53.753,112.36760393778484L53.803,120.84557278951009L54.003,119.90275891621907L54.253,108.40056546529134L54.803,127.08556111653645L55.153,104.03375625610352L55.504,94.84463119506836L55.704,126.85480880737305L55.854000000000006,130.18091265360516L55.903999999999996,110.07241630554199L55.954,117.45931943257649L56.304,110.50630760192871L56.604,151.98525174458823L56.704,113.7905387878418L56.754,131.05220349629718L56.954,122.17983945210774L57.154,110.30871391296387L57.354,107.71775817871094L57.403999999999996,114.51086171468098L57.604,109.92671076456706L58.054,128.14352480570477L58.254,138.24977429707846L58.304,126.34413210550944L58.354000000000006,110.2188008626302L58.454,126.08333333333333L58.504000000000005,89L58.804,128.8658281962077L59.004,108.13976669311523L59.054,108.94400469462077L59.153999999999996,134.46375020345053L59.254000000000005,95.73312377929688L59.404,104.01593208312988L59.454,101.72012201944987L59.504000000000005,125.83039983113606L59.70399999999999,135.54338582356772L59.903999999999996,113.79348119099934L60.153999999999996,105.59820938110352L60.204,125.30535062154134L60.254000000000005,119.44306500752766L61.404,131.43415006001788L61.604000000000006,110.13069852193196L61.704,112.58941586812337L61.954,146.57926495869955L63.153999999999996,117.5495154062907L63.254,138.84481875101724L63.504000000000005,112.54165840148926L63.604,86.48232142130533L63.804,129.31013107299805L63.903999999999996,102.31194114685059L64.255,108.76417859395345L64.555,129.83670806884766L64.755,108.13976669311523L65.105,107.39007631937663L65.205,128.47890218098956L65.505,99.73999786376953L65.605,118.90432230631511L65.755,103.83333333333333L65.905,115.05577214558919L66.305,95.48567899068196L66.355,97.57778422037761L66.50500000000001,104.37235895792644L66.855,86.48916816711426L67.005,88.16311264038086L67.455,101.94323539733887L67.655,127.88351821899414L67.805,115.00263913472493L67.85499999999999,84.18266359965006L68.30499999999999,111.06287447611491L68.355,128.20373090108234L68.555,121.79347928365071L68.655,128.5424467722575L68.705,100.21683692932129L68.905,108.03853670756023L68.955,97.57642618815105L69.105,85.88127899169922L69.155,100.2528813680013L69.555,115.11914698282878L69.75500000000001,117.11545435587566L69.855,122.56591669718425L69.955,106.71145629882812L70.005,108.57173411051433L70.455,132.12691624959308L70.605,88.40506871541342L71.005,107.51626014709473L71.10499999999999,98.72679265340169L71.355,123.45163663228352L71.605,124.59204419453938L71.955,106.48647562662761L72.605,126.33021227518718L72.905,78.01233100891113L73.05499999999999,95.18057441711426L73.106,89.76462872823079L73.306,107.39007631937663L73.506,94.40151659647624L73.60600000000001,111.49999109903972L73.856,106.95505332946777L73.906,97.48181660970052L74.35600000000001,110.13069852193196L74.656,119.47944895426433L74.856,112.2086009979248L74.906,122.23653729756673L75.40599999999999,94.65263938903809L75.656,112.2086009979248L76.35600000000001,115.69998868306477L76.456,116.56816736857097L77.456,121.9412784576416L77.506,109.93887646993001L77.70599999999999,101.08054542541504L77.756,99.38526852925618L77.806,111.50576273600261L78.706,69.91976038614908L78.956,113.68851661682129L79.306,103.97898228963216L79.356,95.71546936035156L79.65599999999999,112.37750625610352L79.756,101.19179089864095L80.006,102.81243260701497L80.106,122.31852849324544L81.306,115.52316157023112L81.406,104.06674512227376L81.506,102.40745608011882L81.90599999999999,106.59211921691895L82.007,93.87001673380534L82.407,101.7664082845052L82.557,112.98324521382649L82.707,91.61647542317708L83.357,104.92162640889485L83.70700000000001,100.86665534973145L84.007,86.09149106343588L84.307,112.06023597717285L84.357,109.45292727152507L84.657,54.29248746236166L85.157,104.91472307840984L85.407,90.03731028238933L85.457,93.48846626281738L85.607,92.51209767659505L85.907,110.1335277557373L86.007,83.57573636372885L86.157,96.69749641418457L86.307,66.37286313374838L86.457,122.48799959818523L86.50699999999999,89.81165059407552L87.407,95.01353645324707L88.157,88.8011614481608L88.907,95.18057441711426L89.057,106.64870389302571L89.10699999999999,68.22097524007162L89.207,91.2079340616862L89.25699999999999,86.82731819152832L90.30699999999999,81.79354540506998L90.357,123.1245772043864L90.607,115.11501630147298L90.75699999999999,118.5867125193278L90.908,86.20879109700522L91.00800000000001,86.07100741068521L91.208,112.1383228302002L91.408,83.61359151204428L91.608,94.18649482727051L92.858,81.83909606933594L92.908,115.05854479471843L93.458,70.8750228881836L93.858,96.3251126607259L93.908,90.22087097167969L94.058,97.0796127319336L94.15799999999999,95.46632703145345L94.208,113.31358655293782L94.658,96.3251126607259L95.008,80.29829533894858L95.758,91.16402435302734L95.80799999999999,113.26894124348958L95.958,71.03776041666666L96.908,109.45292727152507L97.158,97.21898078918457L97.208,86.82731819152832L97.30799999999999,90.03731028238933L97.658,102.50291442871094L98.008,113.65592384338379L98.05799999999999,87.83814684549967L98.508,93.45202573140462L98.70800000000001,109.18143399556477L98.80799999999999,97.35682106018066L99.00800000000001,98.42451731363933L99.45800000000001,82.27609952290854L99.759,70.81985282897949L99.809,89L100.059,105.69977887471516L100.459,74.01094563802084L100.909,85.77535247802734L100.959,98.61418914794922L101.15899999999999,111.51130803426106L101.409,100.53478622436523L101.559,97.51774787902832L101.659,87.77409299214682L101.80900000000001,79.2865047454834L101.959,81.2244733174642L102.159,97.77351061503093L102.55900000000001,85.3820889790853L102.95899999999999,103.23693084716797L103.159,89.20206387837727L103.30900000000001,105.5939089457194L103.359,85.60152435302734L103.659,86.7050952911377L104.109,110.7367769877116L104.309,109.85320727030437L104.35900000000001,122.64479573567708L104.409,81.24399503072104L104.50900000000001,87.40289751688638L104.659,90.43611907958984L105.009,96.38673337300618L105.459,81.88815498352051L105.509,117.48155721028645L105.959,99.23679033915202L106.15899999999999,87.49954414367676L106.259,98.80884043375652L106.40899999999999,104.03375625610352L106.659,86.76790428161621L106.709,121.63334465026855L106.809,100.10955238342285L106.859,100.24043273925781L106.90899999999999,90.43611907958984L107.15899999999999,84.95979754130045L107.85900000000001,72.1888624827067L108.30900000000001,114.99443435668945L108.56,68.15641212463379L108.91,74.75328000386557L108.96000000000001,64.27775891621908L109.41000000000001,76.5896224975586L109.76,72.17471631368002L110.36,93.97764078776042L110.71,106.90231641133626L110.81,69.16825930277506L111.00999999999999,101.85552914937337L111.50999999999999,85.90974108378092L111.56,90.63229815165202L111.71000000000001,89.62497774759929L111.96,78.65117200215658L112.16000000000001,80.17793973286948L112.81,86.49997584025064L112.96,96.75470352172852L113.26,78.09007835388184L113.30999999999999,92.21151987711589L113.36,86.95401128133139L114.16,110.07241630554199L115.06,84.87961705525717L115.36,80.67514928181967L115.71,99.52293904622395L116.00999999999999,81.73894119262695L116.21000000000001,86.53460566202799L116.31,97.98989041646321L116.41,93.62913576761882L116.71000000000001,100.09976323445638L116.86,132.32213338216144L116.96,102.11791229248047L117.10999999999999,88.5947405497233L117.25999999999999,84.71738878885904L117.361,92.18996111551921L117.811,108.17100143432617L117.91099999999999,98.67818641662598L118.511,61.472177505493164L118.561,88.20249557495117L118.611,80.58529281616211L119.311,87.7824675242106L119.511,89.7848294576009L119.711,92.30086708068848L119.911,87.55182838439941L119.961,101.16174443562825L120.111,61.28720219930014L120.21100000000001,68.78184254964194L120.31099999999999,88.19712003072104L120.711,85.16033363342285L120.811,86.58479626973471L120.96100000000001,65.86931610107422L121.111,114.52370643615723L121.26100000000001,71.67331949869791L121.36099999999999,66.86650784810385L121.511,65.46145375569662L122.461,76.56862958272299L123.06099999999999,54.76921335856119L123.111,75.34272257486978L123.161,71.9080893198649L123.26100000000001,94.5600102742513L123.31099999999999,68.47085316975912L123.411,82.48676427205405L123.511,85.63836097717285L123.711,85.62427139282227L123.911,93.4192632039388L124.161,101.9418207804362L124.261,94.18366559346516L124.611,98.38315391540527L124.76100000000001,94.67397181193034L125.011,92.34743626912434L125.21100000000001,73.51809310913086L125.461,89.4220085144043L125.561,87.14323043823242L125.61099999999999,93.12038294474284L126.161,78.20098431905112L126.31200000000001,80.1080576578776L126.462,53.440661748250335L126.61200000000001,79.66573524475098L126.662,55.64570999145508L126.812,80.71543757120767L126.862,70.3075917561849L126.962,92.44017855326335L127.21199999999999,89.60794576009114L127.262,86.52142143249512L127.612,66.84234619140625L127.66199999999999,105.13229115804036L127.86200000000001,66.14810880025229L127.96199999999999,77.66897519429526L128.062,61.52321688334146L128.262,70.65988794962564L128.762,75.06262842814127L128.862,84.1812489827474L128.962,81.50230407714844L129.012,83.75997606913248L129.21200000000002,79.0140495300293L129.362,83.52871449788412L129.762,74.9006265004476L129.96200000000002,79.2766024271647L130.662,87.62833086649576L130.862,70.7656447092692L130.962,75.42301623026529L131.212,85.02492650349936L131.262,70.48351351420084L131.362,73.73339780171713L131.46200000000002,100.2904535929362L131.512,81.42093531290689L131.612,63.946399052937835L131.712,77.78152211507162L131.762,75.13901774088541L132.112,75.69835726420084L132.262,81.59363174438477L132.512,65.11413701375326L133.462,77.28946177164713L133.962,108.38025156656902L134.262,106.93705940246582L134.412,71.25583775838217L134.562,98.70981725056966L134.712,47.331101099650056L134.762,110.19045193990071L134.812,79.42377916971842L135.263,67.80954806009927L135.31300000000002,54.3889077504476L135.363,48.848079681396484L135.463,75.60878372192383L136.06300000000002,76.1634833017985L136.113,42.7500057220459L136.213,82.54221725463867L136.613,72.7019157409668L137.063,81.83909606933594L137.913,53.19542376200357L138.613,71.79582532246908L138.81300000000002,100.04165077209473L138.863,92.90892601013184L138.963,88.20781453450522L139.363,72.38340059916177L139.463,93.93757883707683L139.66299999999998,89.60381507873535L140.163,83.10597038269043L140.563,85.66195678710938L140.613,70.08498764038086L141.16299999999998,83.41005643208823L141.563,83.6615187327067L141.863,71.54900296529135L141.91299999999998,70.63883845011392L142.013,67.95983695983887L142.113,77.86504109700522L142.363,82.54221725463867L143.31300000000002,75.42018699645996L143.613,70.22876930236816L143.663,109.0889180501302L144.114,89.39399909973145L144.214,59.687440236409515L144.364,63.94368298848471L144.414,76.52149454752603L144.464,55.92569096883139L145.01399999999998,79.0140495300293L145.164,94.25433985392253L145.464,57.45670255025229L145.714,97.00769360860188L145.814,77.31690533955893L145.914,67.26837221781412L146.014,50.321657816569L146.464,85.35741806030273L146.664,55.6149845123291L146.864,102.15859667460124L146.964,86.76790428161621L147.114,82.18245188395181L147.564,67.83857599894205L147.614,56.64748509724936L148.114,50.733707427978516L148.214,28.289735158284515L148.81400000000002,73.32247988382974L148.864,83.14473088582358L148.914,73.57818603515625L149.114,74.20774714152017L149.314,84.04867108662924L149.614,80.22762107849121L149.664,80.1080576578776L149.814,71.25583775838217L150.214,65.64365641276041L150.464,72.13935089111328L150.614,83.7241013844808L150.764,91.30135536193848L150.814,90.43611907958984L151.214,81.83909606933594L151.51399999999998,77.1822338104248L151.814,76.91204198201498L152.064,60.88188616434732L152.965,72.88581593831381L153.165,98.1711311340332L153.26500000000001,54.45098114013672L153.51500000000001,54.690221150716155L153.765,62.417707443237305L154.41500000000002,99.10013834635417L154.61499999999998,70.51027806599936L154.76500000000001,70.97268803914389L155.515,88.41678174336752L156.065,79.2865047454834L156.11499999999998,70.38409423828125L156.26500000000001,60.25792694091797L156.565,61.4030876159668L156.915,57.77193578084311L156.965,88.40506871541342L157.015,81.70170847574869L157.065,51.56057929992676L157.115,62.12080764770508L157.16500000000002,84.61887486775717L157.565,86.51746050516763L158.715,68.15641212463379L158.765,65.27466773986816L158.815,68.10797564188638L159.165,73.21157391866049L159.715,59.91915448506674L159.815,59.89918009440103L160.415,64.62207667032877L160.465,79.97972361246744L160.615,75.89340464274088L160.71499999999997,77.47896385192871L160.76500000000001,78.47989018758139L160.865,75.78023529052734L161.76600000000002,64.10195032755533L162.01600000000002,74.65199343363443L162.166,78.34731229146323L162.316,74.52360280354819L162.766,76.4225845336914L162.816,83.33247884114584L163.11599999999999,58.888747533162444L163.216,63.769062678019196L163.26600000000002,52.63438669840494L163.566,65.77912012736002L163.716,80.52944374084473L164.016,62.38664245605469L164.11599999999999,62.87310091654459L164.216,60.356327692667634L164.36599999999999,92.16868527730306L165.066,65.77912012736002L165.166,76.46479670206705L165.216,83.79534149169922L165.266,52.7910130818685L165.816,64.79935646057129L166.316,59.08402125040689L166.716,87.83814684549967L167.566,80.29829533894858L167.916,82.41184616088867L167.96599999999998,70.8750228881836L168.116,52.27179209391275L168.61599999999999,89.7848294576009L168.916,76.13536071777344L169.11599999999999,61.5460205078125L169.366,67.80954806009927L169.466,62.049001693725586L169.56599999999997,44.557716369628906L169.666,73.86829566955566L169.766,78.08719253540039L169.966,59.89918009440103L170.016,104.80602391560872L170.166,61.99196434020996L170.46599999999998,82.37467002868652L170.517,83.25806999206543L170.667,41.47571881612143L171.06699999999998,88.79844538370767L171.167,48.7813663482666L171.217,74.24639447530112L171.267,59.75115458170572L171.667,74.88246281941733L172.417,65.74352836608887L172.517,62.3156852722168L172.617,53.13250160217285L172.717,56.52113151550293L172.817,66.9723211924235L173.26700000000002,47.78496678670248L173.46699999999998,67.5172316233317L174.117,60.88454564412436L174.317,66.64837392171225L175.267,58.65907033284506L176.01700000000002,63.751747767130524L176.067,39.75984509785971L176.36700000000002,47.76295534769693L176.417,60.82496198018393L176.517,36.50000190734863L176.667,65.10072644551596L176.917,62.14655367533365L177.117,76.80820910135904L177.217,55.54436683654785L178.017,65.75518480936685L178.367,77.75662485758463L178.567,64.99231020609537L178.917,95.22239049275716L178.96699999999998,59.826412200927734L179.317,94.37995783487956L179.418,48.36071586608887L180.61800000000002,63.773249944051116L180.768,71.60920906066895L181.118,66.9723211924235L181.268,67.43874867757162L181.318,54.456639607747405L181.41799999999998,49.91215451558432L181.468,80.50607426961264L181.818,67.342498143514L182.46800000000002,40.423017501831055L182.71800000000002,77.58975664774576L183.168,32.48232014973959L183.26799999999997,84.96370188395181L183.368,53.50669606526694L183.71800000000002,65.09421920776367L184.368,71.72831980387369L184.468,68.79168828328451L184.768,74.87301317850748L185.168,66.90781466166177L185.46800000000002,69.91155560811362L185.518,59.12730852762857L185.568,54.00447146097818L185.768,58.97543525695801L186.01799999999997,76.07470194498697L186.36800000000002,74.67813555399576L186.768,66.53158315022787L186.96800000000002,53.04038174947104L187.16799999999998,43.00192070007324L187.268,53.16107686360678L187.568,73.42801030476889L187.81799999999998,61.675429662068694L187.918,66.55483945210776L188.018,60.32220713297525L188.168,84.27370834350586L188.369,50.733707427978516L188.969,59.91915448506674L189.219,53.55049260457358L189.46900000000002,34.25551414489746L190.369,54.92617925008139L190.569,45.91642761230469L190.719,61.28720219930014L190.96900000000002,79.0140495300293L191.31900000000002,43.47196960449219L191.51899999999998,73.14440790812174L191.619,48.29637908935547L191.919,73.58876736958823L191.969,72.3175360361735L192.269,55.53095626831055L192.619,43.106828689575195L192.91899999999998,50.12644068400064L193.06900000000002,42.038113911946624L193.369,38.546499888102204L193.91899999999998,67.57177925109863L194.019,55.00692558288574L194.51899999999998,55.472617467244476L194.669,59.71262041727701L194.769,63.09728940327963L195.019,57.200204213460296L195.81900000000002,55.241355895996094L195.919,82.32198969523111L196.169,50.54318682352701L196.219,55.33568255106607L196.419,56.98704973856607L196.519,84.37714513142905L196.819,71.31253560384116L196.869,58.727877298990876L197.17,64.44547589619955L197.77,61.834885279337556L198.02,51.718337376912444L198.62,55.684470494588226L198.67000000000002,40.756640752156585L198.97,46.61903953552246L199.02,37.10319455464682L199.72,56.12950897216797L199.92,63.41818110148111L200.01999999999998,58.198527654012054L200.12,37.801732381184905L200.26999999999998,39.13650830586752L200.42000000000002,33.995564142862946L200.87,53.701403935750335L201.17,51.96725336710611L201.27,43.62039120992026L201.82,51.97019577026367L201.87,50.12644068400064L202.17000000000002,36.69510587056479L202.52,68.50525665283203L203.72,45.32517433166504L204.02,48.508458455403655L204.12,62.941455205281585L205.17,76.87084833780924L205.32,55.63009262084961L205.52,43.87264569600424L205.57000000000002,73.86393864949545L205.62,64.93527285257974L205.871,45.30016390482584L206.021,69.91976038614908L206.12099999999998,62.26781463623047L206.571,41.626516977945954L206.921,43.89867464701334L207.171,36.921218236287444L207.571,56.912357966105134L207.77100000000002,35.41255760192871L207.97099999999998,58.63575744628906L208.621,49.76616605122885L208.721,28.390682220458984L208.87099999999998,46.61903953552246L209.47099999999998,53.87398719787598L209.671,76.5896224975586L209.921,56.45430501302084L210.021,53.81972249348959L210.52100000000002,40.40440114339194L210.62099999999998,48.4904645284017L210.721,63.42531077067056L211.371,64.10630734761557L212.171,53.87398719787598L212.421,67.95270729064941L212.771,58.727877298990876L212.921,47.3447380065918L213.021,57.82852045694986L214.021,42.116427103678376L214.071,36.10900179545084L214.121,73.39660580952963L214.371,60.29034996032715L214.471,61.939170837402344L214.922,48.56447728474936L215.322,29.5858071645101L215.622,34.66620572408041L215.672,70.09879430135092L215.87199999999999,58.63575744628906L216.422,40.30888621012369L216.72199999999998,51.27477010091147L217.022,59.017704010009766L217.172,54.309123357137054L217.922,54.69293721516928L218.122,42.78769111633301L218.472,45.58031463623047L218.672,42.07415835062662L218.92200000000003,61.10828145345053L219.172,44.56173388163248L219.372,53.63576571146646L219.422,68.43695894877115L219.972,36.528350830078125L220.022,42.896390279134124L220.572,43.924137751261384L220.672,54.00447146097818L220.72199999999998,34.25551414489746L221.072,38.43632952372232L221.172,35.542872111002595L221.222,44.131237665812165L221.272,66.13277435302734L221.32199999999997,50.91443888346353L221.62199999999999,61.815420150756836L222.722,33.247854232788086L222.872,59.49177042643228L223.572,57.39389355977377L223.773,36.12869326273599L223.823,38.641109466552734L223.923,46.61903953552246L224.323,27.025124231974274L224.573,59.05001386006674L224.923,48.08045196533203L226.323,52.02174441019693L227.223,50.43335596720377L227.473,25.39871088663736L227.923,38.79807535807291L227.97299999999998,43.50280825297037L228.523,59.20743242899576L228.57299999999998,51.28455924987793L228.673,49.996013005574554L228.773,43.47196960449219L228.923,41.131457646687835L228.973,55.08354123433432L229.073,31.219010670979827L230.223,84.54191970825195L230.47299999999998,53.68256123860678L230.623,53.750462849934905L230.773,47.73138109842935L231.023,64.1091365814209L231.573,48.281044642130524L232.02300000000002,38.73826535542807L232.173,64.95139948527017L232.22299999999998,36.78988520304361L232.624,41.80300458272299L232.92399999999998,52.6163361867269L233.724,33.74630864461264L234.024,51.43507448832193L234.22400000000002,17.22579002380371L234.374,48.63718859354654L234.674,45.4335905710856L234.77400000000003,37.08333333333334L235.224,45.619471232096345L235.424,56.65184211730957L235.72400000000002,52.41110356648764L235.974,43.0683511098226L236.27399999999997,45.60996500651041L236.724,46.910903294881194L237.07399999999998,39.69030253092447L237.274,23.181949615478516L237.724,50.99722226460776L237.874,55.133052825927734L238.47400000000002,49.88131586710611L238.824,45.19684028625488L238.974,36.26823107401529L239.074,59.21173286437988L239.124,51.14943504333496L239.324,39.145222345987946L239.374,51.66441218058267L239.424,25.809572219848633L240.024,47.3447380065918L240.324,51.91666666666666L240.374,34.535438537597656L240.474,47.721309026082366L240.774,42.69489224751791L240.924,46.18837356567383L241.22400000000002,46.90541458129883L241.375,34.69427172342935L241.725,61.047226587931306L242.225,25.606150309244782L242.525,37.45011520385742L242.72500000000002,47.373709360758454L242.875,38.44600550333658L243.27499999999998,31.09033711751303L243.375,39.418413162231445L244.025,32.21773020426431L244.22500000000002,36.78988520304361L244.275,36.528350830078125L245.225,36.90548769632974L245.275,40.3248430887858L245.425,33.375L245.775,36.86610476175943L245.875,28.45575459798178L246.27499999999998,62.15498479207358L246.375,25.487661997477204L246.425,44.31887245178223L247.075,47.76295534769693L247.17499999999998,38.546499888102204L247.225,34.08994738260904L247.675,55.96778996785483L247.825,60.2564557393392L248.375,30.785402297973633L248.525,55.46028200785318L248.625,33.375L248.725,37.951568603515625L249.325,47.172324498494476L250.126,43.73208936055502L250.376,24.41951306660971L250.87599999999998,10.229887008666992L251.176,16.283541997273772L251.526,34.01616096496582L251.82600000000002,45.456337610880524L251.92600000000002,41.61576588948569L252.12599999999998,36.59851582845053L252.476,34.13696924845377L252.526,34.10499890645346L252.576,21.818541844685882L253.07600000000002,29.54817835489908L254.126,30.469603220621735L254.376,19.833325068155915L254.626,41.756152470906585L254.92600000000002,43.49358495076498L255.426,38.28089141845703L255.676,22.7521890004476L255.976,40.171045939127595L256.176,55.388532638549805L256.226,33.754456837972015L256.626,12.101991017659515L256.776,33.375L256.826,52.398258845011384L256.926,23.904083251953125L257.076,21.03931427001953L257.126,42.92988840738931L257.176,24.667580286661774L257.426,38.697354634602874L257.526,32.51089541117349L257.676,41.08981132507324L257.726,48.65659713745117L257.776,35.51927630106607L257.82599999999996,47.21012306213379L257.926,38.413469314575195L258.076,45.445077260335296L258.126,34.474327087402344L258.426,51.91666666666666L258.726,32.15837287902832L258.826,42.444278717041016L258.976,12.440876642862946L259.527,34.27509244283041L259.927,34.29551951090494L259.977,24.742215474446624L260.027,27.86263402303061L260.327,39.42118581136069L260.677,26.47936503092447L260.92699999999996,26.610867818196624L261.277,10.458319346110017L261.927,44.97983805338541L262.22700000000003,38.84272066752115L262.327,47.19331741333008L262.47700000000003,27.980613072713226L262.827,52.57797177632651L263.127,30.16042455037436L263.277,38.3090705871582L263.377,35.34754180908203L263.427,41.57372347513834L263.877,41.248870849609375L264.377,32.21773020426431L264.427,23.853609720865876L264.827,42.4256623586019L265.42699999999996,45.274078369140625L265.577,17.457843780517578L265.727,36.528350830078125L266.377,29.429972966512054L266.777,47.198806126912444L267.177,29.45775604248047L267.227,41.08981132507324L267.377,51.19357109069824L267.477,27.51056416829428L267.527,64.1091365814209L268.178,19.37414042154947L268.478,20.16689173380533L268.578,26.017181396484375L269.328,29.666666666666657L269.678,13.917680104573577L269.978,13.904948552449554L270.128,32.30939737955728L270.178,27.22724469502768L270.478,19.804806391398103L271.128,31.871601740519196L271.228,40.42890230814615L271.27799999999996,29.5858071645101L271.32800000000003,20.09259605407715L271.628,46.76202901204428L271.878,13.277367909749358L272.528,28.217533111572266L273.328,38.22821108500162L273.678,27.547627131144196L273.928,13.617498397827148L273.978,36.2315642038981L274.27799999999996,21.73954963684082L274.728,25.63840357462564L274.878,37.753918329874665L274.928,31.60672887166342L275.028,39.216915130615234L275.32800000000003,14.203036626180022L275.378,33.754456837972015L275.478,32.49205271402994L275.728,31.730762481689453L275.878,38.14288139343262L276.628,42.306212107340485L276.829,15.447956085205078L277.129,24.011877059936523L277.479,20.459774017333984L277.679,6.705453872680664L277.829,21.985466639200837L278.579,21.442253748575837L278.979,22.732158025105804L279.179,22.839951833089202L279.22900000000004,-4.091977437337221L280.12899999999996,41.71382713317871L280.279,39.75984509785971L280.329,59.03999837239584L280.429,23.184552510579437L280.529,40.74951108296713L280.579,28.356618245442718L280.779,20.929200490315765L280.829,22.417434056599944L281.379,21.802698135375977L281.67900000000003,34.94629987080893L281.879,33.90474573771158L283.029,31.359623591105134L283.679,22.63517189025879L284.079,28.425198872884124L284.329,32.625309626261384L284.379,42.79453786214194L284.479,29.5858071645101L284.529,34.6110922495524L284.579,32.18338330586752L285.029,23.944937388102204L285.079,28.52252451578775L285.529,17.324700037638337" style="fill: none;" fill="none"></path></g></g></g></g></g></g><g transform="translate(30, 178)" clip-path="url(#clip_1)"><clipPath id="clip_1"><rect width="300" height="22"></rect></clipPath><g><g><line x1="0" y1="0" x2="0" y2="5" style="visibility: inherit;" fill="rgb(0, 0, 0)" stroke="rgb(204, 204, 204)" stroke-width="1px"></line><line x1="20" y1="0" x2="20" y2="5" style="visibility: inherit;" fill="rgb(0, 0, 0)" stroke="rgb(204, 204, 204)" stroke-width="1px"></line><line x1="40" y1="0" x2="40" y2="5" style="visibility: inherit;" fill="rgb(0, 0, 0)" stroke="rgb(204, 204, 204)" stroke-width="1px"></line><line x1="60" y1="0" x2="60" y2="5" style="visibility: inherit;" fill="rgb(0, 0, 0)" stroke="rgb(204, 204, 204)" stroke-width="1px"></line><line x1="80" y1="0" x2="80" y2="5" style="visibility: inherit;" fill="rgb(0, 0, 0)" stroke="rgb(204, 204, 204)" stroke-width="1px"></line><line x1="100" y1="0" x2="100" y2="5" style="visibility: inherit;" fill="rgb(0, 0, 0)" stroke="rgb(204, 204, 204)" stroke-width="1px"></line><line x1="120" y1="0" x2="120" y2="5" style="visibility: inherit;" fill="rgb(0, 0, 0)" stroke="rgb(204, 204, 204)" stroke-width="1px"></line><line x1="140" y1="0" x2="140" y2="5" style="visibility: inherit;" fill="rgb(0, 0, 0)" stroke="rgb(204, 204, 204)" stroke-width="1px"></line><line x1="160" y1="0" x2="160" y2="5" style="visibility: inherit;" fill="rgb(0, 0, 0)" stroke="rgb(204, 204, 204)" stroke-width="1px"></line><line x1="180" y1="0" x2="180" y2="5" style="visibility: inherit;" fill="rgb(0, 0, 0)" stroke="rgb(204, 204, 204)" stroke-width="1px"></line><line x1="200" y1="0" x2="200" y2="5" style="visibility: inherit;" fill="rgb(0, 0, 0)" stroke="rgb(204, 204, 204)" stroke-width="1px"></line><line x1="219.99999999999997" y1="0" x2="219.99999999999997" y2="5" style="visibility: inherit;" fill="rgb(0, 0, 0)" stroke="rgb(204, 204, 204)" stroke-width="1px"></line><line x1="240" y1="0" x2="240" y2="5" style="visibility: inherit;" fill="rgb(0, 0, 0)" stroke="rgb(204, 204, 204)" stroke-width="1px"></line><line x1="260" y1="0" x2="260" y2="5" style="visibility: inherit;" fill="rgb(0, 0, 0)" stroke="rgb(204, 204, 204)" stroke-width="1px"></line><line x1="280" y1="0" x2="280" y2="5" style="visibility: inherit;" fill="rgb(0, 0, 0)" stroke="rgb(204, 204, 204)" stroke-width="1px"></line><line x1="300" y1="0" x2="300" y2="5" style="visibility: inherit;" fill="rgb(0, 0, 0)" stroke="rgb(204, 204, 204)" stroke-width="1px"></line></g><g transform="translate(0, 8)"><text x="0" y="0" dx="0em" dy="0.95em" style="text-anchor: middle; visibility: hidden; font-family: &quot;Helvetica Neue&quot;, sans-serif; font-size: 12px; font-weight: 200;" fill="rgb(50, 49, 63)" stroke="none" stroke-width="1px">-20k</text><text x="20" y="0" dx="0em" dy="0.95em" style="text-anchor: middle; visibility: inherit; font-family: &quot;Helvetica Neue&quot;, sans-serif; font-size: 12px; font-weight: 200;" fill="rgb(50, 49, 63)" stroke="none" stroke-width="1px">0</text><text x="40" y="0" dx="0em" dy="0.95em" style="text-anchor: middle; visibility: hidden; font-family: &quot;Helvetica Neue&quot;, sans-serif; font-size: 12px; font-weight: 200;" fill="rgb(50, 49, 63)" stroke="none" stroke-width="1px">20k</text><text x="60" y="0" dx="0em" dy="0.95em" style="text-anchor: middle; visibility: inherit; font-family: &quot;Helvetica Neue&quot;, sans-serif; font-size: 12px; font-weight: 200;" fill="rgb(50, 49, 63)" stroke="none" stroke-width="1px">40k</text><text x="80" y="0" dx="0em" dy="0.95em" style="text-anchor: middle; visibility: hidden; font-family: &quot;Helvetica Neue&quot;, sans-serif; font-size: 12px; font-weight: 200;" fill="rgb(50, 49, 63)" stroke="none" stroke-width="1px">60k</text><text x="100" y="0" dx="0em" dy="0.95em" style="text-anchor: middle; visibility: inherit; font-family: &quot;Helvetica Neue&quot;, sans-serif; font-size: 12px; font-weight: 200;" fill="rgb(50, 49, 63)" stroke="none" stroke-width="1px">80k</text><text x="120" y="0" dx="0em" dy="0.95em" style="text-anchor: middle; visibility: hidden; font-family: &quot;Helvetica Neue&quot;, sans-serif; font-size: 12px; font-weight: 200;" fill="rgb(50, 49, 63)" stroke="none" stroke-width="1px">100k</text><text x="140" y="0" dx="0em" dy="0.95em" style="text-anchor: middle; visibility: inherit; font-family: &quot;Helvetica Neue&quot;, sans-serif; font-size: 12px; font-weight: 200;" fill="rgb(50, 49, 63)" stroke="none" stroke-width="1px">120k</text><text x="160" y="0" dx="0em" dy="0.95em" style="text-anchor: middle; visibility: hidden; font-family: &quot;Helvetica Neue&quot;, sans-serif; font-size: 12px; font-weight: 200;" fill="rgb(50, 49, 63)" stroke="none" stroke-width="1px">140k</text><text x="180" y="0" dx="0em" dy="0.95em" style="text-anchor: middle; visibility: inherit; font-family: &quot;Helvetica Neue&quot;, sans-serif; font-size: 12px; font-weight: 200;" fill="rgb(50, 49, 63)" stroke="none" stroke-width="1px">160k</text><text x="200" y="0" dx="0em" dy="0.95em" style="text-anchor: middle; visibility: hidden; font-family: &quot;Helvetica Neue&quot;, sans-serif; font-size: 12px; font-weight: 200;" fill="rgb(50, 49, 63)" stroke="none" stroke-width="1px">180k</text><text x="219.99999999999997" y="0" dx="0em" dy="0.95em" style="text-anchor: middle; visibility: inherit; font-family: &quot;Helvetica Neue&quot;, sans-serif; font-size: 12px; font-weight: 200;" fill="rgb(50, 49, 63)" stroke="none" stroke-width="1px">200k</text><text x="240" y="0" dx="0em" dy="0.95em" style="text-anchor: middle; visibility: hidden; font-family: &quot;Helvetica Neue&quot;, sans-serif; font-size: 12px; font-weight: 200;" fill="rgb(50, 49, 63)" stroke="none" stroke-width="1px">220k</text><text x="260" y="0" dx="0em" dy="0.95em" style="text-anchor: middle; visibility: inherit; font-family: &quot;Helvetica Neue&quot;, sans-serif; font-size: 12px; font-weight: 200;" fill="rgb(50, 49, 63)" stroke="none" stroke-width="1px">240k</text><text x="280" y="0" dx="0em" dy="0.95em" style="text-anchor: middle; visibility: hidden; font-family: &quot;Helvetica Neue&quot;, sans-serif; font-size: 12px; font-weight: 200;" fill="rgb(50, 49, 63)" stroke="none" stroke-width="1px">260k</text><text x="300" y="0" dx="0em" dy="0.95em" style="text-anchor: middle; visibility: hidden; font-family: &quot;Helvetica Neue&quot;, sans-serif; font-size: 12px; font-weight: 200;" fill="rgb(50, 49, 63)" stroke="none" stroke-width="1px">280k</text></g><line x1="0" y1="0" x2="300" y2="0" fill="rgb(0, 0, 0)" stroke="rgb(204, 204, 204)" stroke-width="1px"></line></g></g></g></g></svg>