<svg viewBox="0 0 330 200" xmlns="http://www.w3.org/2000/svg"><g><g><g><g><g><line x1="40" y1="178" x2="35" y2="178" style="visibility: inherit;" fill="rgb(0, 0, 0)" stroke="rgb(204, 204, 204)" stroke-width="1px"></line><line x1="40" y1="158.2222222222222" x2="35" y2="158.2222222222222" style="visibility: inherit;" fill="rgb(0, 0, 0)" stroke="rgb(204, 204, 204)" stroke-width="1px"></line><line x1="40" y1="138.44444444444446" x2="35" y2="138.44444444444446" style="visibility: inherit;" fill="rgb(0, 0, 0)" stroke="rgb(204, 204, 204)" stroke-width="1px"></line><line x1="40" y1="118.66666666666666" x2="35" y2="118.66666666666666" style="visibility: inherit;" fill="rgb(0, 0, 0)" stroke="rgb(204, 204, 204)" stroke-width="1px"></line><line x1="40" y1="98.8888888888889" x2="35" y2="98.8888888888889" style="visibility: inherit;" fill="rgb(0, 0, 0)" stroke="rgb(204, 204, 204)" stroke-width="1px"></line><line x1="40" y1="79.1111111111111" x2="35" y2="79.1111111111111" style="visibility: inherit;" fill="rgb(0, 0, 0)" stroke="rgb(204, 204, 204)" stroke-width="1px"></line><line x1="40" y1="59.3333333333333" x2="35" y2="59.3333333333333" style="visibility: inherit;" fill="rgb(0, 0, 0)" stroke="rgb(204, 204, 204)" stroke-width="1px"></line><line x1="40" y1="39.55555555555554" x2="35" y2="39.55555555555554" style="visibility: inherit;" fill="rgb(0, 0, 0)" stroke="rgb(204, 204, 204)" stroke-width="1px"></line><line x1="40" y1="19.777777777777743" x2="35" y2="19.777777777777743" style="visibility: inherit;" fill="rgb(0, 0, 0)" stroke="rgb(204, 204, 204)" stroke-width="1px"></line><line x1="40" y1="0" x2="35" y2="0" style="visibility: inherit;" fill="rgb(0, 0, 0)" stroke="rgb(204, 204, 204)" stroke-width="1px"></line></g><g transform="translate(30, 0)"><text x="0" y="178" dx="0em" dy="0.3em" style="text-anchor: end; visibility: hidden; font-family: &quot;Helvetica Neue&quot;, sans-serif; font-size: 12px; font-weight: 200;" fill="rgb(50, 49, 63)" stroke="none" stroke-width="1px">2</text><text x="0" y="158.2222222222222" dx="0em" dy="0.3em" style="text-anchor: end; visibility: inherit; font-family: &quot;Helvetica Neue&quot;, sans-serif; font-size: 12px; font-weight: 200;" fill="rgb(50, 49, 63)" stroke="none" stroke-width="1px">2.2</text><text x="0" y="138.44444444444446" dx="0em" dy="0.3em" style="text-anchor: end; visibility: hidden; font-family: &quot;Helvetica Neue&quot;, sans-serif; font-size: 12px; font-weight: 200;" fill="rgb(50, 49, 63)" stroke="none" stroke-width="1px">2.4</text><text x="0" y="118.66666666666666" dx="0em" dy="0.3em" style="text-anchor: end; visibility: inherit; font-family: &quot;Helvetica Neue&quot;, sans-serif; font-size: 12px; font-weight: 200;" fill="rgb(50, 49, 63)" stroke="none" stroke-width="1px">2.6</text><text x="0" y="98.8888888888889" dx="0em" dy="0.3em" style="text-anchor: end; visibility: hidden; font-family: &quot;Helvetica Neue&quot;, sans-serif; font-size: 12px; font-weight: 200;" fill="rgb(50, 49, 63)" stroke="none" stroke-width="1px">2.8</text><text x="0" y="79.1111111111111" dx="0em" dy="0.3em" style="text-anchor: end; visibility: inherit; font-family: &quot;Helvetica Neue&quot;, sans-serif; font-size: 12px; font-weight: 200;" fill="rgb(50, 49, 63)" stroke="none" stroke-width="1px">3</text><text x="0" y="59.3333333333333" dx="0em" dy="0.3em" style="text-anchor: end; visibility: hidden; font-family: &quot;Helvetica Neue&quot;, sans-serif; font-size: 12px; font-weight: 200;" fill="rgb(50, 49, 63)" stroke="none" stroke-width="1px">3.2</text><text x="0" y="39.55555555555554" dx="0em" dy="0.3em" style="text-anchor: end; visibility: inherit; font-family: &quot;Helvetica Neue&quot;, sans-serif; font-size: 12px; font-weight: 200;" fill="rgb(50, 49, 63)" stroke="none" stroke-width="1px">3.4</text><text x="0" y="19.777777777777743" dx="0em" dy="0.3em" style="text-anchor: end; visibility: hidden; font-family: &quot;Helvetica Neue&quot;, sans-serif; font-size: 12px; font-weight: 200;" fill="rgb(50, 49, 63)" stroke="none" stroke-width="1px">3.6</text><text x="0" y="0" dx="0em" dy="0.3em" style="text-anchor: end; visibility: hidden; font-family: &quot;Helvetica Neue&quot;, sans-serif; font-size: 12px; font-weight: 200;" fill="rgb(50, 49, 63)" stroke="none" stroke-width="1px">3.8</text></g><line x1="40" y1="0" x2="40" y2="178" fill="rgb(0, 0, 0)" stroke="rgb(204, 204, 204)" stroke-width="1px"></line></g></g><g transform="translate(40, 0)" clip-path="url(#clip_0)"><clipPath id="clip_0"><rect width="290" height="178"></rect></clipPath><g><g><g><line x1="0" y1="0" x2="0" y2="178" fill="rgb(0, 0, 0)" stroke="rgb(60, 60, 60)" stroke-width="1px" opacity="0.25"></line><line x1="19.333333333333332" y1="0" x2="19.333333333333332" y2="178" fill="rgb(0, 0, 0)" stroke="rgb(60, 60, 60)" stroke-width="1px" opacity="0.25"></line><line x1="38.666666666666664" y1="0" x2="38.666666666666664" y2="178" fill="rgb(0, 0, 0)" stroke="rgb(60, 60, 60)" stroke-width="1px" opacity="0.25"></line><line x1="58" y1="0" x2="58" y2="178" fill="rgb(0, 0, 0)" stroke="rgb(60, 60, 60)" stroke-width="1px" opacity="0.25"></line><line x1="77.33333333333333" y1="0" x2="77.33333333333333" y2="178" fill="rgb(0, 0, 0)" stroke="rgb(60, 60, 60)" stroke-width="1px" opacity="0.25"></line><line x1="96.66666666666666" y1="0" x2="96.66666666666666" y2="178" fill="rgb(0, 0, 0)" stroke="rgb(60, 60, 60)" stroke-width="1px" opacity="0.25"></line><line x1="116" y1="0" x2="116" y2="178" fill="rgb(0, 0, 0)" stroke="rgb(60, 60, 60)" stroke-width="1px" opacity="0.25"></line><line x1="135.33333333333334" y1="0" x2="135.33333333333334" y2="178" fill="rgb(0, 0, 0)" stroke="rgb(60, 60, 60)" stroke-width="1px" opacity="0.25"></line><line x1="154.66666666666666" y1="0" x2="154.66666666666666" y2="178" fill="rgb(0, 0, 0)" stroke="rgb(60, 60, 60)" stroke-width="1px" opacity="0.25"></line><line x1="174" y1="0" x2="174" y2="178" fill="rgb(0, 0, 0)" stroke="rgb(60, 60, 60)" stroke-width="1px" opacity="0.25"></line><line x1="193.33333333333331" y1="0" x2="193.33333333333331" y2="178" fill="rgb(0, 0, 0)" stroke="rgb(60, 60, 60)" stroke-width="1px" opacity="0.25"></line><line x1="212.66666666666666" y1="0" x2="212.66666666666666" y2="178" fill="rgb(0, 0, 0)" stroke="rgb(60, 60, 60)" stroke-width="1px" opacity="0.25"></line><line x1="232" y1="0" x2="232" y2="178" fill="rgb(0, 0, 0)" stroke="rgb(60, 60, 60)" stroke-width="1px" opacity="0.25"></line><line x1="251.33333333333334" y1="0" x2="251.33333333333334" y2="178" fill="rgb(0, 0, 0)" stroke="rgb(60, 60, 60)" stroke-width="1px" opacity="0.25"></line><line x1="270.6666666666667" y1="0" x2="270.6666666666667" y2="178" fill="rgb(0, 0, 0)" stroke="rgb(60, 60, 60)" stroke-width="1px" opacity="0.25"></line><line x1="290" y1="0" x2="290" y2="178" fill="rgb(0, 0, 0)" stroke="rgb(60, 60, 60)" stroke-width="1px" opacity="0.25"></line></g><g><line x1="0" y1="178" x2="290" y2="178" fill="rgb(0, 0, 0)" stroke="rgb(60, 60, 60)" stroke-width="1px" opacity="0.25"></line><line x1="0" y1="158.2222222222222" x2="290" y2="158.2222222222222" fill="rgb(0, 0, 0)" stroke="rgb(60, 60, 60)" stroke-width="1px" opacity="0.25"></line><line x1="0" y1="138.44444444444446" x2="290" y2="138.44444444444446" fill="rgb(0, 0, 0)" stroke="rgb(60, 60, 60)" stroke-width="1px" opacity="0.25"></line><line x1="0" y1="118.66666666666666" x2="290" y2="118.66666666666666" fill="rgb(0, 0, 0)" stroke="rgb(60, 60, 60)" stroke-width="1px" opacity="0.25"></line><line x1="0" y1="98.8888888888889" x2="290" y2="98.8888888888889" fill="rgb(0, 0, 0)" stroke="rgb(60, 60, 60)" stroke-width="1px" opacity="0.25"></line><line x1="0" y1="79.1111111111111" x2="290" y2="79.1111111111111" fill="rgb(0, 0, 0)" stroke="rgb(60, 60, 60)" stroke-width="1px" opacity="0.25"></line><line x1="0" y1="59.3333333333333" x2="290" y2="59.3333333333333" fill="rgb(0, 0, 0)" stroke="rgb(60, 60, 60)" stroke-width="1px" opacity="0.25"></line><line x1="0" y1="39.55555555555554" x2="290" y2="39.55555555555554" fill="rgb(0, 0, 0)" stroke="rgb(60, 60, 60)" stroke-width="1px" opacity="0.25"></line><line x1="0" y1="19.777777777777743" x2="290" y2="19.777777777777743" fill="rgb(0, 0, 0)" stroke="rgb(60, 60, 60)" stroke-width="1px" opacity="0.25"></line><line x1="0" y1="0" x2="290" y2="0" fill="rgb(0, 0, 0)" stroke="rgb(60, 60, 60)" stroke-width="1px" opacity="0.25"></line></g></g></g><g><g><line x1="0" y1="375.7777777777778" x2="290" y2="375.7777777777778" fill="rgb(0, 0, 0)" stroke="rgb(153, 153, 153)" stroke-width="1.5px"></line></g></g><g><g><line x1="19.333333333333332" y1="0" x2="19.333333333333332" y2="178" fill="rgb(0, 0, 0)" stroke="rgb(153, 153, 153)" stroke-width="1.5px"></line></g></g><g><g><g><g><g><path stroke="rgb(255, 112, 67)" stroke-width="2px" d="M27.453333333333333,-10.46820852389655L27.889300000000002,4.717888530405531L28.130966666666666,-7.538669448866443L28.227633333333333,6.405225032039652L28.275966666666665,11.599040487780002L28.469299999999997,4.913884713065727L28.855966666666667,-12.603346596018866L29.242633333333334,12.2802955730522L29.290966666666666,-6.29066180449766L29.532633333333337,-7.171732449981334L30.0643,6.535985473126999L30.3543,21.49226362539588L30.59596666666667,28.635922572115874L30.74096666666667,7.520521004660253L31.320966666666667,16.908438475826415L31.610966666666666,12.48933825648794L31.852633333333333,-16.863434966467224L32.19096666666667,18.3397384012884L32.3843,41.085625133667804L32.48096666666667,24.35595135078796L33.3993,19.1775888832654L33.640966666666664,25.60666901697786L33.689299999999996,25.12759484631175L33.93096666666667,26.238776891775018L34.17263333333334,14.571214865450202L34.2693,31.473204309319044L34.655966666666664,27.412724886045595L34.704299999999996,19.034198178958604L35.042633333333335,17.965404913392547L35.23596666666667,22.455527723170036L35.670966666666665,16.079218385717326L36.057633333333335,32.07121895627546L36.7836,29.52286680204577L36.97693333333333,39.816643107257335L37.46026666666667,33.3375521320402L37.55693333333333,44.57257273185482L39.586933333333334,46.85443453970686L39.635266666666666,42.80885366759313L40.02193333333334,39.3010433056138L40.45693333333333,35.36177831439056L40.553599999999996,30.553786352585064L40.601933333333335,45.97853567990305L40.74693333333333,42.00686976947182L41.03693333333334,40.5555991791156L41.47193333333333,56.47980508858035L41.616933333333336,59.32692347860559L41.66526666666666,49.39306082264119L42.1486,35.10792031732527L42.97026666666667,39.40125164112314L43.06693333333334,55.814910239142804L43.7436,43.34717006270964L43.98526666666667,45.711066121877565L44.08193333333334,42.863289191828585L44.226933333333335,24.21655307712021L44.6136,36.515905917524236L44.903600000000004,19.706510021539202L45.00026666666667,38.43537815108118L45.0979,51.095197557491744L45.3879,57.45340428457477L45.62956666666667,53.63145093896401L46.1129,55.99238161080602L46.4029,45.16982372684669L46.692899999999995,20.08976477806786L46.88623333333333,33.4136259734052L47.176233333333336,47.5012962103379L47.2729,36.09500539807624L47.417899999999996,38.151790314440376L47.51456666666667,57.36592421934739L47.5629,47.796969101843445L47.804566666666666,53.485400916939156L47.8529,47.19694718573646L48.2879,49.51935846000492L48.5779,33.607781527276245L48.67456666666667,43.984475886176654L48.91623333333333,35.42964853439585L49.1579,53.50836224898521L49.25456666666667,56.723660355112116L49.83456666666666,52.43094395292172L50.1729,33.478911507206305L50.22123333333334,41.9740982642669L50.3179,32.98958918425137L50.414566666666666,52.87002037523668L50.4629,47.79397251971113L50.55956666666666,60.509157045982874L51.13956666666667,39.207125639210915L51.28456666666666,32.28870614692957L51.4779,7.382494206868444L51.6229,40.31228741145088L51.7679,59.750576896542825L51.96123333333334,65.59670266931822L52.009566666666665,56.16570682155762L52.2029,58.14159055069058L52.44456666666667,62.98888673505347L52.97623333333333,53.52751905358184L53.314566666666664,61.90653745986596L53.653866666666666,66.32445879443428L53.8472,58.73075106970984L53.992200000000004,52.52189699182668L54.04053333333333,66.90250862251652L54.08886666666667,62.78787176658656L54.427200000000006,59.69354476387291L54.7172,39.07290231542288L54.81386666666667,58.7776246303348L54.862199999999994,49.69848275352271L55.05553333333333,51.52997165571276L55.24886666666667,57.4675832969797L55.4422,66.10709692983387L55.49053333333333,58.37088252489336L55.68386666666667,67.91266547191843L56.11886666666667,57.43350981571224L56.3122,49.40798620319421L56.360533333333336,49.3961950366446L56.40886666666667,49.97040844898339L56.50553333333333,52.828098681393044L56.55386666666667,70.36653761735906L56.84386666666667,57.38106733230825L57.0372,57.21614117722136L57.08553333333334,61.94337664899021L57.1822,44.94815336919862L57.27886666666667,67.5906010777796L57.42386666666667,61.255237856174176L57.4722,60.172114778491576L57.52053333333333,49.034324863234986L57.71386666666666,43.04028884199323L57.907199999999996,65.06654429059682L58.14886666666666,65.49278318769176L58.1972,60.03934516740439L58.245533333333334,57.5593391710167L59.3572,49.32700621314447L59.550533333333334,60.53168175387664L59.6472,57.987308763104906L59.888866666666665,47.13152102774197L61.04886666666667,51.47293257624318L61.14553333333333,46.01207262913175L61.3872,60.84021473850079L61.483866666666664,77.39557832887687L61.6772,49.67029411981446L61.77386666666666,62.177300785153946L62.113166666666665,69.00237272472941L62.40316666666667,54.517495261505516L62.5965,64.81851803997745L62.93483333333333,66.78742033165572L63.031499999999994,54.9293420332329L63.32149999999999,61.121609129372274L63.41816666666667,62.4944717533313L63.56316666666667,72.4898602247977L63.70816666666667,67.88920663438468L64.09483333333333,74.64459024925365L64.14316666666667,76.16734236993193L64.28816666666667,75.18859591174797L64.6265,82.0556189162195L64.7715,83.21342657236241L65.2065,78.30734144318497L65.39983333333333,64.52721479999215L65.54483333333333,66.56864209943505L65.59316666666666,74.29918677401592L66.02816666666666,69.34648369588069L66.0765,54.18581873229428L66.26983333333334,52.03596074000386L66.3665,48.33026276546667L66.41483333333333,64.54901325923257L66.60816666666666,62.35780076914314L66.6565,63.890747314890106L66.8015,76.68195527314472L66.84983333333334,74.30678468998076L67.2365,69.6376136960262L67.42983333333333,66.84794672659723L67.5265,60.734183723060696L67.62316666666666,60.790275358125754L67.6715,76.87453853708793L68.1065,57.729341552191485L68.25150000000001,77.15868040488172L68.63816666666666,73.92377457654948L68.73483333333333,72.19663367759131L68.9765,58.5199937564858L69.21816666666666,57.28717224096113L69.5565,63.857002494949015L70.18483333333333,61.49814638243659L70.47483333333334,79.91741152032179L70.61983333333333,74.01535459055361L70.66913333333333,74.09148687033019L70.86246666666666,73.73597547517005L71.05579999999999,77.47935992279054L71.15246666666667,71.67128055764093L71.39413333333333,72.2620739980723L71.44246666666668,77.80646758211215L71.87746666666666,64.99117694311441L72.16746666666667,57.966691277463525L72.3608,68.9234246240177L72.40913333333333,63.76609414695061L72.89246666666666,69.10533024764896L73.13413333333334,62.68404472969357L73.8108,62.4460703630982L73.90746666666666,56.84982808198416L74.87413333333333,57.498676860959364L74.92246666666666,64.67344266976512L75.1158,66.07016048605254L75.16413333333334,62.854694930704156L75.21246666666667,66.94409951077324L76.08246666666666,85.40884360623286L76.32413333333334,66.75157243429537L76.66246666666666,71.6328427850439L76.71079999999999,68.08485189985274L77.0008,64.77472436666467L77.09746666666666,70.91412794529063L77.33913333333334,76.83846031144192L77.4358,61.92302593874746L78.5958,56.24080790797554L78.69246666666666,71.57639844267801L78.78913333333334,67.70592284713953L79.1758,70.80705154625343L79.27343333333334,78.59492713417939L79.6601,73.04609023725223L79.8051,67.97533873609609L79.95009999999999,78.70643328396055L80.57843333333332,73.84825905326612L80.91676666666667,76.37856939417539L81.20676666666667,83.3540243635051L81.49676666666667,69.82567118725926L81.5451,64.46798107097402L81.8351,95.53974382004098L82.31843333333333,74.95533060209243L82.5601,78.80293519251434L82.60843333333332,80.37415368244912L82.75343333333333,82.46240277223214L83.04343333333333,75.17164392610121L83.1401,85.74924725892069L83.2851,88.21230098122271L83.4301,93.56757887490102L83.5751,68.18914004252603L83.62343333333332,77.31300193097071L84.49343333333333,82.39491394832162L85.21843333333334,79.82902139858068L85.94343333333333,79.54633216789068L86.08843333333333,65.48342936389193L86.13676666666666,84.9626546920581L86.23343333333334,82.60071768095489L86.28176666666666,83.75911967342878L87.29676666666666,88.60927392226857L87.3451,69.76583844113401L87.58676666666666,59.969859354758455L87.73176666666666,58.703006061500275L87.87773333333334,77.66032931716158L87.9744,88.57040506786714L88.16773333333333,75.85732314576029L88.36106666666666,82.22431861370933L88.5544,82.65961547530067L89.76273333333333,79.61958123131838L89.81106666666666,69.4017022795009L90.34273333333334,91.66924150228087L90.72940000000001,85.76238588854876L90.77773333333333,86.92341239428751L90.92273333333334,82.14377179695043L91.01939999999999,77.7372036584801L91.06773333333334,70.67107990277235L91.50273333333334,77.07859118846781L91.84106666666666,84.20159166674138L92.56606666666667,81.22498414204617L92.61439999999999,73.11253517189785L92.7594,82.53204054695782L93.67773333333334,70.6744869985719L93.9194,70.80444818320161L93.96773333333334,90.1471809076735L94.06439999999999,93.43354107455153L94.40273333333334,80.27248555476194L94.74106666666667,70.92938587880552L94.7894,74.72885972272947L95.2244,84.14416831801482L95.41773333333335,76.92346960525757L95.5144,80.40643356905693L95.70773333333334,80.62735085089899L96.14273333333334,91.33368357274239L96.4337,95.38529998271989L96.48203333333332,90.3213782786939L96.7237,76.7056287325638L97.11036666666666,88.25958567783223L97.54536666666667,87.31328321474291L97.5937,84.8329592495486L97.78703333333333,74.76967476322892L98.0287,79.46197127323407L98.1737,72.61198494937338L98.27036666666667,80.92628419894542L98.41536666666667,96.73316820213762L98.56036666666667,97.70235110049317L98.7537,83.50312609358757L99.14036666666667,83.85056072405878L99.52703333333334,81.86320693406371L99.72036666666668,91.14187319014344L99.86536666666667,79.18917302237779L99.9137,85.08758890745422L100.2037,91.42290761108414L100.6387,80.83752151936856L100.83203333333333,67.20183929386904L100.88036666666667,59.68334811702323L100.9287,83.41504886679338L101.02536666666667,80.56946007489904L101.17036666666668,81.97314892898589L101.5087,74.4825838142684L101.9437,84.70606389312765L101.99203333333332,66.501376805047L102.42703333333333,79.34417503661774L102.62036666666665,88.0226617807421L102.71703333333333,84.55191119706784L102.86203333333333,76.17869596539782L103.1037,78.59815193405736L103.15203333333334,64.18992905706793L103.2487,70.50243654119163L103.29703333333333,76.17433582160368L103.34536666666666,82.58714809607187L103.58703333333334,83.79233102643377L104.2637,87.38237175471087L104.6987,68.70109018555564L104.94133333333333,91.27055074103728L105.27966666666666,99.21785033939697L105.328,100.03546045316118L105.763,99.01019352768388L106.10133333333333,94.27269582312994L106.68133333333334,81.85919651960508L107.01966666666667,75.50814419791985L107.11633333333333,99.24087134872973L107.30966666666666,80.78390898932217L107.79299999999999,83.09213001584435L107.84133333333334,85.66710955550232L107.98633333333333,85.02763184833843L108.228,93.33392510955696L108.42133333333334,98.82804746737298L109.04966666666667,84.94116411135994L109.19466666666666,80.17145377984895L109.48466666666667,89.04656001306951L109.533,91.853962800038L109.58133333333333,88.11624588668971L110.35466666666667,77.36880465577234L111.22466666666666,88.39399184322087L111.51466666666667,90.06702182618167L111.853,86.90350517608935L112.143,88.39741812573669L112.33633333333334,86.17298930414557L112.43299999999999,85.59167879612986L112.52966666666667,80.12852344517104L112.81966666666666,80.41257404964425L112.96466666666667,57.024508695182305L113.06133333333332,68.82998664853952L113.20633333333332,78.46571477423169L113.35133333333333,96.26207940364233L113.44896666666668,83.94735024414433L113.88396666666667,73.44082965532202L113.98063333333333,75.22072311729637L114.56063333333333,98.02317312572202L114.60896666666667,98.69435121911242L114.6573,93.43817393669728L115.33396666666667,89.97255255586678L115.5273,81.92558960658349L115.72063333333332,79.58180718186114L115.91396666666667,84.70988365049612L115.9623,80.85682434383997L116.1073,101.81865873300227L116.20396666666667,103.33264123375838L116.30063333333332,93.2383583872784L116.68730000000001,95.38344071574815L116.78396666666667,99.01843927449991L116.92896666666667,103.96549573452045L117.07396666666668,79.80064426733288L117.21896666666667,95.05348103637799L117.31563333333332,104.44200730474715L117.46063333333333,100.03137466422959L118.37896666666666,99.96795780857741L118.95896666666665,117.22986454255152L119.0073,102.62984302255211L119.05563333333333,106.61115610848346L119.1523,89.60210176516048L119.20063333333333,95.34549373980241L119.2973,93.53760868157374L119.39396666666666,87.51079465170993L119.5873,88.9795596053145L119.78063333333333,82.35764111627964L120.0223,82.48823073769557L120.11896666666667,81.34820655100363L120.4573,79.18371061616985L120.6023,72.75518732243269L120.84396666666666,84.72006154747851L121.0373,98.27541501728312L121.27896666666666,91.18527705492859L121.37563333333334,88.80658475001674L121.42396666666666,84.58958634898404L121.95563333333334,87.98966703497307L122.1016,93.76752413880375L122.2466,107.36437023551726L122.39160000000001,101.18419318591332L122.43993333333333,106.34855671417482L122.58493333333334,98.63596338736544L122.63326666666666,97.28036671756632L122.72993333333334,84.81327464743134L122.9716,88.71658149794506L123.01993333333334,85.42801498668786L123.35826666666667,98.83174157198158L123.4066,83.17982472065526L123.59993333333334,95.32695435873367L123.69659999999999,95.9672910036396L123.79326666666667,109.360321082525L123.9866,104.0065440184763L124.46993333333334,99.22925947315834L124.5666,90.82010540427964L124.66326666666667,84.48430647636778L124.71159999999999,91.55635449610415L124.90493333333333,98.01015064713042L125.04993333333334,92.65329806618236L125.4366,94.99106184824012L125.62993333333334,96.55980105984654L126.30659999999999,92.42252752850324L126.49993333333335,95.34885166056584L126.5966,92.82701895955823L126.83826666666667,89.42886069910807L126.8866,99.78163167088357L126.98326666666667,102.12878034056628L127.07993333333334,85.64170815476864L127.12826666666666,96.95352628805963L127.22493333333334,102.78352064649548L127.32159999999999,94.78459428179352L127.36993333333334,100.39168340691354L127.70826666666667,86.7427768616398L127.85326666666667,86.99441395063096L128.09493333333333,97.38549665104351L129.01326666666668,94.35211196456318L129.4966,80.60390589708278L129.7866,82.39234939901954L129.9316,95.17123411403774L130.07659999999998,86.30185900819303L130.2216,106.87967507581845L130.2699333333333,85.77485606566682L130.31826666666666,92.75503086297397L130.75423333333333,104.14084117718478L130.80256666666668,112.4498973879455L130.8509,119.9917733541434L130.94756666666666,106.5302138316689L131.52756666666667,106.90585290025513L131.5759,125.21014311567866L131.67256666666668,102.78917139632942L132.05923333333334,101.95725136358574L132.49423333333334,98.86136948010369L133.3159,106.03126546358713L133.99256666666665,102.6711815176874L134.1859,86.06112960645306L134.23423333333332,82.32507997122697L134.3309,84.088694879845L134.71756666666667,96.62552859203407L134.81423333333333,89.41495854336272L135.00756666666666,85.83720834920946L135.4909,90.76963935124589L135.87756666666667,88.67138047763024L135.9259,102.16595902235468L136.45756666666665,92.55058564600694L136.84423333333334,94.21131928388148L137.13423333333333,97.09393510706387L137.18256666666667,100.07355797734012L137.27923333333334,99.39429653486127L137.3759,98.48471386008944L137.61756666666668,95.18262086078899L138.5359,95.2613278123698L138.82590000000002,104.79943391957767L138.87423333333334,85.48977308257092L139.31019999999998,94.57188985183936L139.40686666666667,108.63890434666338L139.55186666666665,112.52797419371699L139.6002,100.70620379808297L139.64853333333335,111.90836712574456L140.18019999999999,107.71389382802764L140.3252,86.5143622317281L140.6152,103.06084255716969L140.85686666666666,94.21981615194873L140.95353333333333,103.04649017563224L141.0502,105.5821010698202L141.14686666666665,115.36633792143365L141.58186666666666,98.54697904705725L141.77519999999998,107.82508938295229L141.96853333333334,87.34556718900579L142.0652,87.53340139856373L142.2102,95.28921675080524L142.6452,102.97189428096026L142.69353333333333,108.60295227870846L143.17686666666665,112.78389101338044L143.27353333333335,130.96993217667108L143.85353333333333,110.44140110287452L143.90186666666668,98.80978093440682L143.9502,102.77802787921765L144.14353333333335,101.16234998978425L144.33686666666668,93.21715748233768L144.62686666666667,98.37713631368628L144.6752,99.28956616566998L144.8202,102.37010724869629L145.20686666666666,108.04233218423043L145.44853333333333,102.59002028396519L145.5935333333333,95.46335917526389L145.73853333333335,89.00730640501614L145.78686666666667,89.07920885261481L146.17353333333332,92.86890877670359L146.46353333333332,93.02524168242242L146.75353333333334,102.46731264013155L146.9952,108.26067759313946L147.8661666666667,103.50699125113385L148.05949999999999,93.7379181032183L148.15616666666668,115.97482937443002L148.39783333333335,123.49722156551474L148.6395,118.95409975271852L149.26783333333336,99.21841830425558L149.46116666666666,98.9163883069217L149.60616666666667,105.6663338099968L150.33116666666666,92.20858066146727L150.86283333333333,92.12865021751537L150.91116666666667,102.22762955901885L151.05616666666668,108.7539474868446L151.34616666666668,110.84309809450649L151.6845,116.93666566259301L151.73283333333333,93.24595000598816L151.78116666666665,95.4539946861684L151.8295,110.84026422145823L151.87783333333334,109.01879647784291L151.9261666666667,96.63025619676237L152.31283333333334,92.70777540300115L153.4245,104.29152163533517L153.47283333333334,111.60125225849065L153.52116666666666,105.38119480961034L153.8595,95.42155070489686L154.39116666666666,104.14907377245504L154.48783333333333,111.76748982387858L155.0678333333333,117.66503378082075L155.1161666666667,103.65985437464676L155.26116666666667,100.84035061666955L155.35783333333333,95.4191003024003L155.40616666666668,94.73202611610225L155.50283333333334,97.10118328148937L156.37380000000002,107.52617071719081L156.6154666666667,106.95546462928588L156.76046666666667,93.18683489202063L156.90546666666668,103.40062876024095L157.34046666666666,96.4142274006553L157.3888,93.81427899035853L157.6788,108.95669420007117L157.7754666666667,114.86871134009272L157.8238,114.53138977451349L158.1138,109.49225374045274L158.2588,101.12408171092166L158.5488,107.00487114917976L158.64546666666666,109.34129694083855L158.74213333333333,110.35307495422356L158.8871333333333,94.39388244868806L159.56380000000001,101.01280321468695L159.66046666666668,102.52457099361818L159.7088,102.70572155807828L159.75713333333331,115.70315594767521L160.2888,115.14847201958463L160.77213333333333,111.75320140312L161.15879999999999,95.96653373178808L161.98046666666667,95.63815433721834L162.3188,94.81767899409591L162.36713333333333,107.49156971359945L162.51213333333334,120.56029340434813L162.99546666666666,91.9326668564739L163.28546666666665,98.02981402827093L163.4788,110.88834186566375L163.72046666666668,110.1869718861423L163.81713333333332,109.11982881521709L163.91379999999998,125.23972931685044L164.01046666666667,110.61531692631971L164.10713333333334,100.04831943147427L164.30046666666667,106.29380654861444L164.3488,78.85454398133004L164.4938,102.43813828747764L164.78379999999999,93.59467875066454L164.83309999999997,93.31308108830702L164.9781,120.19495812004749L165.36476666666667,99.33405723522556L165.46143333333336,112.94338584779172L165.50976666666668,102.84505786350908L165.5581,111.71930135775405L165.94476666666665,106.52991068409523L166.66976666666667,112.4379066349466L166.76643333333334,111.30164794886308L166.86309999999997,120.62355158159394L166.95976666666667,113.01305018029724L167.05643333333333,112.51096374043459L167.49143333333336,119.92919131922646L167.68476666666666,109.72662295608762L168.3131,116.12939904112997L168.50643333333332,111.07860367755575L169.42476666666667,118.22964300690239L170.14976666666666,114.27657906141656L170.1981,126.08182485346697L170.4881,127.80086040066426L170.53643333333332,118.18305011726113L170.63309999999998,130.3155629943577L170.7781,114.15087826648326L171.01976666666667,115.62171003434088L171.2131,104.45417473015428L171.3097666666667,112.67535072951688L172.0831,111.21954377806934L172.4214333333333,97.19479098414409L172.61476666666667,106.94448476978648L172.9531,99.0553186276014L173.00143333333332,112.5623481348028L173.3397666666667,93.6966139895182L173.4374,119.67833260099805L174.59740000000002,114.46984993835504L174.7424,104.56177979534927L175.0807333333333,108.28758393275561L175.22573333333335,107.40918283956927L175.27406666666667,120.95799373775034L175.37073333333333,121.59716103894968L175.41906666666665,114.41123847756491L175.75740000000002,112.72608589110882L176.38573333333335,127.29833811084532L176.62740000000002,112.50582608052127L177.0624,126.02336864346013L177.15906666666666,100.7450928800847L177.25573333333335,110.27238710529912L177.59406666666666,113.34616534652503L178.2224,113.84167393799613L178.31906666666666,108.01883247653777L178.60906666666665,111.72909815193589L178.99573333333333,114.6851808361651L179.28573333333335,109.91355689231544L179.33406666666667,119.22626662743619L179.3824,121.69850176057312L179.57573333333335,116.84407514907582L179.8174,108.62794606924024L180.15573333333333,101.2996662223868L180.5424,107.37481678154998L180.73573333333334,115.5749665663118L180.92906666666667,127.03106964789919L181.02573333333333,124.4776746479895L181.31573333333336,115.35180544996936L181.55739999999997,109.78805507332159L181.65406666666667,108.34894431100643L181.75073333333333,121.49771253274454L181.89573333333334,112.30949235229336L182.09003333333334,124.8281940017865L182.67003333333332,115.50884940409838L182.9117,125.35328934313773L183.15336666666667,134.96502268165258L184.02336666666667,134.97965952378152L184.2167,126.00170714113275L184.3617,115.3227783607372L184.6033666666667,109.39289247030138L184.9417,129.8047249857939L185.13503333333333,114.56202600035144L185.23170000000002,126.69442730834012L185.5217,106.26496215237823L185.57003333333333,103.7740858210997L185.86003333333335,107.523944282283L186.19836666666666,125.44867996420285L186.48836666666665,119.78655060278459L186.6333666666667,130.15776507368477L186.92336666666668,134.0588227970061L187.45503333333332,113.92207422973021L187.5517,116.23599871002693L188.03503333333333,117.8543924305265L188.18003333333334,114.44278715690251L188.2767,115.7999549295381L188.51836666666665,117.85191334179004L189.29170000000002,119.09562142028363L189.38836666666666,109.36663625306738L189.63003333333333,114.51186061799584L189.67836666666668,117.81977349390607L189.8717,111.64253881667398L189.96836666666667,103.1692560208669L190.25836666666666,109.0485162537478L190.3067,115.00383014086432L190.59766666666667,118.25986233003667L191.17766666666668,114.33994257047098L191.41933333333333,126.10136202982694L191.99933333333334,126.94749739305998L192.04766666666666,131.25523159465243L192.33766666666668,128.89265567529515L192.386,131.80032507651873L193.06266666666664,120.87736390453725L193.256,116.07601364778127L193.35266666666666,116.09662962322099L193.44933333333333,131.21536954882473L193.59433333333334,130.2233193946496L193.73933333333335,130.99654105137967L194.17433333333332,123.49281647784201L194.46433333333331,125.70688548976983L194.561,125.88481984458146L195.09266666666664,126.62296196662587L195.14100000000002,119.95588987257378L195.431,127.93611683139426L195.76933333333335,115.36788096269072L196.92933333333335,124.2213807106551L197.21933333333334,123.41429284945075L197.316,119.5102231613843L198.331,111.95628144015352L198.476,115.6565757880692L198.66933333333336,124.92558024794114L198.71766666666667,112.30558549372098L198.766,111.36491921314585L199.00863333333334,127.45735793938934L199.15363333333335,118.68904146706936L199.25029999999998,117.09617745426061L199.6853,132.76244739423885L200.02363333333332,139.15483262326197L200.2653,137.24094514173697L200.65196666666665,129.33523444503612L200.8453,141.52488032365198L201.0386333333333,122.98445677838696L201.66696666666667,124.48152740555929L201.76363333333333,139.8861694620124L201.9086333333333,135.58463255357293L202.48863333333333,130.0565568758792L202.68196666666665,115.49574348060196L202.92363333333333,118.79121718226247L203.0203,113.64867386710822L203.50363333333334,127.88180580583864L203.6003,124.7010925497045L203.69696666666667,121.89486448158445L204.3253,112.51855098727896L205.0986333333333,118.64644364506405L205.34029999999998,113.8024959868569L205.67863333333332,112.61172312483988L205.82363333333333,123.99291395143408L205.9203,120.61891841854043L206.88696666666664,126.85168494108271L206.9353,126.80703368183859L206.98363333333333,109.85314821719196L207.2253,116.67321655077126L207.32196666666667,116.14154806544431L207.7579333333333,130.77215016063403L208.14460000000003,143.7154814765146L208.43460000000002,138.64558032912552L208.48293333333334,118.99371270135472L208.67626666666666,115.35396654147536L209.20793333333333,133.3160505945973L209.49793333333332,124.70281421177728L209.7879333333333,116.12638935092366L209.93293333333335,126.46377443929165L210.65793333333332,126.32209624347982L210.85126666666667,133.1857336420089L211.1896,130.9116033730389L211.38293333333334,129.81054573905908L211.62460000000002,122.00924285083082L211.86626666666666,132.97337582325326L212.0596,127.15449633318136L212.10793333333334,119.30821221638442L212.6396,127.5635387970734L212.68793333333332,137.10058875568564L213.2196,132.43686603744516L213.31626666666665,124.98583185446168L213.3646,136.6173815919118L213.70293333333333,136.2780491197719L213.7996,133.8532810276135L213.84793333333332,132.8324779159111L213.89626666666666,116.40554332526708L213.94459999999998,117.97432448537137L214.2346,118.10567240007683L215.29793333333333,126.36050215985765L215.44293333333334,114.74860924238548L216.1196,113.82550031867004L216.3139,131.53452799265165L216.36223333333334,133.45055956903474L216.4589,134.75914733322807L216.84556666666666,142.17484390683012L217.08723333333333,126.54075479889029L217.42556666666667,133.05904469074707L218.77890000000002,124.97729425252714L219.6489,128.08978243986473L219.89056666666667,141.7025397906295L220.32556666666667,139.6300956971325L220.3739,133.5960028340482L220.90556666666666,122.84285927060768L220.9539,124.8405211455927L221.05056666666667,126.48786457507398L221.14723333333333,133.3888180445159L221.29223333333331,135.8034737087446L221.3405666666667,124.2859313401726L221.43723333333332,134.35324151786938L222.5489,112.90629135345586L222.79056666666665,118.06508141391029L222.93556666666666,114.80128098418082L223.08056666666664,126.0581550359752L223.32223333333332,116.00762409978523L223.85389999999998,120.53831194345179L224.2889,129.045077674434L224.4339,116.70775051565997L224.4822333333333,131.13061705194193L224.86986666666667,138.90458954660778L225.15986666666666,129.6455565716155L225.9332,137.54271086529874L226.2232,129.00717666290993L226.41653333333335,148.2270451330096L226.56153333333333,135.49704292180326L226.85153333333332,131.47961630319875L226.9482,139.8535114702443L227.3832,141.377214101923L227.57653333333334,134.3083154112681L227.86653333333334,131.03305199197683L228.10819999999998,136.38290650780527L228.39819999999997,135.08849706657057L228.8332,130.99500728503398L229.17153333333334,130.07721648736126L229.36486666666667,138.16711020572652L229.79986666666665,125.1055321617037L229.94486666666668,119.0540333671967L230.52486666666667,125.19871084409424L230.8632,134.5128686311037L231.0082,133.8852378412741L231.10486666666668,123.18250197490693L231.1532,126.9811692677888L231.34653333333335,132.96189735461135L231.39486666666667,129.0490796563227L231.4432,138.0422911457711L232.0232,129.89289202131312L232.3132,125.08797023976426L232.36153333333334,131.97556469723952L232.45819999999998,132.81242070362583L232.7482,136.66217802891816L232.8932,134.6270403724138L233.1832,138.53497643587L233.32916666666665,135.96548571250605L233.6675,125.95120393387343L234.15083333333334,143.60393109466196L234.44083333333333,145.392265575101L234.6341666666667,136.31506717180974L234.77916666666667,139.31038095281588L235.16583333333332,142.09876652278325L235.26250000000002,135.14133248377524L235.89083333333335,143.9174240797222L236.08416666666668,139.8274851326318L236.13250000000002,139.0954543258003L237.05083333333334,139.54382246980157L237.09916666666666,139.31041227587124L237.24416666666667,142.63807267919933L237.5825,142.39726070125295L237.67916666666667,150.3592465718702L238.06583333333333,130.44143448406138L238.16250000000002,143.25078870826403L238.21083333333334,137.13280346716806L238.83916666666667,128.09394993004807L238.93583333333333,142.16791169728126L238.98416666666665,135.6523398160827L239.41916666666665,125.25209648476387L239.56416666666667,121.39730447384953L240.09583333333333,135.89423711852203L240.24083333333334,134.96663554171846L240.3375,146.8255936241617L240.43416666666664,143.56251467939296L241.01416666666665,135.97088883820004L241.78846666666666,139.81643360274546L242.03013333333334,147.8900351195725L242.51346666666666,158.95768116388965L242.80346666666665,152.32135894638574L243.14180000000002,143.2145408102805L243.4318,140.02007360783028L243.52846666666667,135.64035043707864L243.72179999999997,143.90857684556724L244.06013333333334,138.47923793378698L244.1084666666667,138.2682832048499L244.1568,152.3247454845093L244.64013333333335,148.3796652865034L245.65513333333334,142.48209307990004L245.8968,150.42432206260293L246.1384666666667,134.84464743550757L246.42846666666668,134.81003069127445L246.9118,139.566918776169L247.15346666666665,149.82954327171416L247.44346666666667,139.6278529111373L247.6368,134.30935316448227L247.68513333333334,137.55745623061503L248.0718,153.89081196319563L248.2168,147.59987867374673L248.26513333333332,139.89214801009996L248.3618,150.00482873683126L248.5068,154.36600571774267L248.55513333333334,134.8946738975331L248.60346666666666,140.44386160186187L248.84513333333334,136.47139313297183L248.9418,139.65649379302738L249.0868,135.1666731321438L249.13513333333333,131.78961964763744L249.18346666666667,142.38205367951193L249.2318,136.27284514230402L249.32846666666669,145.82349065075226L249.47346666666667,133.8957264940504L249.52179999999998,136.30856389166607L249.81179999999998,126.55244505314536L250.1018,130.6445211606478L250.1984666666667,127.57945599402089L250.34346666666667,149.54505227943457L250.8761,144.7628758001532L251.26276666666666,146.26475535377483L251.31109999999998,146.04074028826474L251.35943333333333,146.59099482737335L251.64943333333332,141.04433146356914L251.9877666666667,147.89718440941783L252.22943333333333,145.22648221716165L252.56776666666667,159.21332772115335L253.1961,145.5951272209006L253.48610000000002,145.5670594825866L253.58276666666666,141.69482056859698L253.7277666666667,145.98343440859588L254.0661,135.48888387571498L254.3561,143.0980507561288L254.5011,143.06451653460164L254.59776666666664,140.08882745874442L254.64610000000002,138.11331873170292L255.0811,137.7475612339993L255.56443333333334,140.70935158464175L255.61276666666666,144.99124813900914L255.99943333333331,139.91725794720605L256.5794333333333,134.3539907992653L256.72443333333337,147.33902243424438L256.86943333333335,146.75747926263043L257.4977666666667,151.9199202805931L257.88443333333333,143.56539354705671L258.2711,147.9357995065897L258.31943333333334,143.3617259596972L258.4644333333333,126.72963527380328L258.5611,137.91395969385906L258.6094333333333,124.34462714617621L259.2387333333333,149.69145310051792L259.5287333333333,153.78413881101477L259.62539999999996,151.90373883483952L260.3504,144.00599490289667L260.68873333333335,152.85911760865417L260.9787333333333,155.1486686425901L261.12373333333335,151.82151369524487L261.1720666666667,148.79321041320844L261.46206666666666,150.43737205251585L262.0904,143.79179171041017L262.1870666666667,141.4136105874639L262.23539999999997,144.09602428706205L262.2837333333334,150.75826675199318L262.57373333333334,143.2814275961868L262.8154,159.878741232805L263.44373333333334,151.96419265648635L264.21706666666665,144.7236308154226L264.55539999999996,147.84981320656289L264.79706666666664,154.12110608194024L264.8454,147.53175378520083L265.1354,154.8745149818093L265.5704,148.9080792626516L265.7154,144.3281373528871L265.76373333333333,140.27707952636513L265.8604,147.57424060947446L266.1504,154.7965722971561L266.19873333333334,147.66824616339682L266.2954,142.8979266643928L266.53706666666665,148.03833932824818L266.6820666666667,140.2587012278805L267.40706666666665,139.21433920082097L267.6013666666667,154.50871814547307L267.89136666666667,155.78546552900636L268.22970000000004,159.76415355649178L268.4230333333333,169.61897121694994L268.56803333333335,159.75991866636468L269.2930333333333,160.7182397189517L269.6797,152.3138606034551L269.8730333333333,155.1355407640189L269.9213666666667,169.2136710843896L270.79136666666665,149.67611778594755L270.9363666666667,139.18675577221958L270.9847,126.2875829564889L271.08136666666667,143.8967022188711L271.17803333333336,140.05235567620684L271.22636666666665,142.3238015116525L271.41970000000003,160.35145633840375L271.4680333333333,158.83895649804484L271.9997,155.22841348139588L272.28970000000004,144.71311083535136L272.4830333333333,151.229074599974L273.5947,148.19243514218908L274.2230333333333,147.19189333952497L274.60970000000003,146.64389227507291L274.85136666666665,143.30050119429828L274.8997,145.63040616976883L274.9963666666667,145.62126287944085L275.0447,141.61598632406617L275.0930333333333,141.89366117949052L275.5280333333333,147.01655049804612L275.5763666666667,143.81443180811203L276.0113666666667,156.78368444957542" style="fill: none;" fill="none"></path></g></g></g></g><g opacity="0.2"><g><g><g><path stroke="rgb(255, 112, 67)" stroke-width="2px" d="M26.051666666666666,-21.672421349419523L26.583333333333332,4.882790724436404L26.825,-1.3392838372124913L27.453333333333333,-6.9706379572550645L27.889300000000002,11.226215839385958L28.130966666666666,-12.791480011410215L28.227633333333333,12.381179809570284L28.275966666666665,13.824961397382936L28.469299999999997,2.0488179524739394L28.855966666666667,-20.110731442769406L29.242633333333334,22.9447136455112L29.290966666666666,-14.249643537733306L29.532633333333337,-7.5493341551886886L30.0643,12.410721725887697L30.3543,27.902097119225374L30.59596666666667,31.697490692138643L30.74096666666667,-1.5289368099636818L31.320966666666667,20.9318316777547L31.610966666666666,10.59543816248572L31.852633333333333,-29.443194919162323L32.19096666666667,33.4268127017551L32.3843,50.833862304687486L32.48096666666667,17.186091158125123L33.3993,16.95829068289862L33.640966666666664,28.361989074283173L33.689299999999996,24.92227734459769L33.93096666666667,26.71499776840207L34.17263333333334,9.570831139882387L34.2693,38.71691407097708L34.655966666666664,25.672519418928346L34.704299999999996,15.443401018778474L35.042633333333335,17.507350656721314L35.23596666666667,24.37986607021753L35.670966666666665,13.346514383951813L36.057633333333335,38.92493348651462L36.7836,28.430715878804506L36.97693333333333,44.22826152377658L37.46026666666667,30.560798856947144L37.55693333333333,49.3875815603468L39.586933333333334,47.83237531450058L39.635266666666666,41.07503329383002L40.02193333333334,37.79769600762259L40.45693333333333,33.6735218895806L40.553599999999996,28.493218368954103L40.601933333333335,52.58914253446788L40.74693333333333,40.30472723642984L41.03693333333334,39.93362606896292L41.47193333333333,63.3044647640652L41.616933333333336,60.54711707433063L41.66526666666666,45.13569111294217L42.1486,28.98571724361841L42.97026666666667,41.24125077989365L43.06693333333334,62.84933535257974L43.7436,38.00385284423825L43.98526666666667,46.72416443294949L44.08193333333334,41.642813364664704L44.226933333333335,16.22509474224512L44.6136,41.78705713484021L44.903600000000004,12.502483208974184L45.00026666666667,46.46203592088486L45.0979,56.520834445953355L45.3879,60.17835002475313L45.62956666666667,51.99347093370224L46.1129,57.004209041595445L46.4029,40.531584633721224L46.692899999999995,9.341168085734012L46.88623333333333,39.1238521999783L47.176233333333336,53.538869169023286L47.2729,31.20659504996405L47.417899999999996,39.0332695643107L47.51456666666667,65.60055303573607L47.5629,43.695988337198884L47.804566666666666,55.923300266265855L47.8529,44.50189558664957L48.2879,50.51467757754854L48.5779,26.788534270392518L48.67456666666667,48.43163061141965L48.91623333333333,31.763293955061158L49.1579,61.25638241238063L49.25456666666667,58.101645257737886L49.83456666666666,50.59120835198296L50.1729,25.356611887613923L50.22123333333334,45.614892588721375L50.3179,29.139085292816134L50.414566666666666,61.39020517137314L50.4629,45.61852343877155L50.55956666666666,65.95852184295653L51.13956666666667,30.077683607737214L51.28456666666666,29.32366922166611L51.4779,-3.291596624586333L51.6229,54.425055927700456L51.7679,68.08127239015366L51.96123333333334,68.10218514336479L52.009566666666665,52.1238514582316L52.2029,58.98839786317612L52.44456666666667,65.06629938549464L52.97623333333333,49.472647190093966L53.314566666666664,65.49754534827338L53.653866666666666,68.21785365210638L53.8472,55.47630490197075L53.992200000000004,49.86095952987668L54.04053333333333,73.06562789281207L54.08886666666667,61.024455971188004L54.427200000000006,58.36740461985269L54.7172,30.235484123229952L54.81386666666667,67.2225056224399L54.862199999999994,45.80742194917465L55.05553333333333,52.314895470937074L55.24886666666667,60.012274000379776L55.4422,69.80974562962848L55.49053333333333,55.05536206563312L55.68386666666667,72.00200102064345L56.11886666666667,52.94244310590953L56.3122,45.96847608354355L56.360533333333336,49.39114167955185L56.40886666666667,50.216499911414246L56.50553333333333,54.05282306671141L56.55386666666667,77.88301144705878L56.84386666666667,51.815865781572114L57.0372,57.14545853932697L57.08553333333334,63.969334708319764L57.1822,37.664486249287904L57.27886666666667,77.29450723859999L57.42386666666667,58.540082189771866L57.4722,59.70791917377046L57.52053333333333,44.26098632812497L57.71386666666666,40.47141626146103L57.907199999999996,74.50636805428398L58.14886666666666,65.67545700073241L58.1972,57.70215744442409L58.245533333333334,56.49647945827907L59.3572,45.798863516913514L59.550533333333334,65.33368555704752L59.6472,56.89686319563124L59.888866666666665,42.47904056972928L61.04886666666667,53.333537525600846L61.14553333333333,43.67170408036972L61.3872,67.19513278537325L61.483866666666664,84.49073415332369L61.6772,37.78802945878769L61.77386666666666,67.53744649887084L62.113166666666665,71.92740355597601L62.40316666666667,48.30969063440958L62.5965,69.233242087894L62.93483333333333,67.63123559951781L63.031499999999994,49.84730847676593L63.32149999999999,63.77543788486055L63.41816666666667,63.082841449313676L63.56316666666667,76.7735981411404L63.70816666666667,65.91749795277912L64.09483333333333,77.53975465562607L64.14316666666667,76.81995042165119L64.28816666666667,74.76913314395479L64.6265,84.99862877527872L64.7715,83.70962985356647L65.2065,76.20473353068033L65.39983333333333,58.62144623862372L65.54483333333333,67.44353951348198L65.59316666666666,77.61227734883624L66.02816666666666,67.2238966623942L66.0765,47.68839089075723L66.26983333333334,51.1145930290222L66.3665,46.74210649066501L66.41483333333333,71.49990632798935L66.60816666666666,61.41870970196193L66.6565,64.54772440592447L66.8015,82.16390154096815L66.84983333333334,73.28885444005329L67.2365,67.63654041290282L67.42983333333333,65.65237516827052L67.5265,58.11399957868788L67.62316666666666,60.81431463029648L67.6715,83.76779418521456L68.1065,49.52425713009305L68.25150000000001,85.48553991317749L68.63816666666666,72.537386364407L68.73483333333333,71.45643043518065L68.9765,52.65857664744058L69.21816666666666,56.75882016287909L69.5565,66.67264403237236L70.18483333333333,60.487208048502595L70.47483333333334,87.81138229370117L70.61983333333333,71.48590162065292L70.66913333333333,74.12411499023436L70.86246666666666,73.5836134486728L71.05579999999999,79.08366754319931L71.15246666666667,69.1821036868625L71.39413333333333,72.5152711868286L71.44246666666668,80.18263626098633L71.87746666666666,59.49890952640108L72.16746666666667,54.95619742075601L72.3608,73.61916748682657L72.40913333333333,61.55580965677896L72.89246666666666,71.39357429080538L73.13413333333334,59.93206522199843L73.8108,62.344081348843034L73.90746666666666,54.45143853293524L74.87413333333333,57.77675490909151L74.92246666666666,67.74834230211044L75.1158,66.66875383589003L75.16413333333334,61.47663826412624L75.21246666666667,68.69670147365993L76.08246666666666,93.32230536142984L76.32413333333334,58.75559907489351L76.66246666666666,73.72481579250758L76.71079999999999,66.56428437762789L77.0008,63.356098281012635L77.09746666666666,73.54530090755885L77.33913333333334,79.37745989693535L77.4358,55.53069692187837L78.5958,53.8055716090732L78.69246666666666,78.14879438612196L78.78913333333334,66.04714759190875L79.1758,72.1361067030165L79.27343333333334,81.93258810043335L79.6601,70.66801728142632L79.8051,65.80215952131483L79.95009999999999,83.30547380447388L80.57843333333332,71.76618438296846L80.91676666666667,77.4629881117079L81.20676666666667,86.3435050646464L81.49676666666667,64.02780554029677L81.5451,62.171828163994675L81.8351,108.8562135696411L82.31843333333333,66.13343922297159L82.5601,80.45190858840942L82.60843333333332,81.04753303527832L82.75343333333333,83.35736666785346L83.04343333333333,72.04703299204508L83.1401,90.28250583012897L83.2851,89.26789543363782L83.4301,95.8626979721917L83.5751,57.312666257222475L83.62343333333332,81.22322845458984L84.49343333333333,84.57287624147202L85.21843333333334,78.72935316297743L85.94343333333333,79.42517964045206L86.08843333333333,59.456471019321L86.13676666666666,93.31089411841498L86.23343333333334,81.58845896191066L86.28176666666666,84.25557767020331L87.29676666666666,90.68791145748561L87.3451,61.690080377790665L87.58676666666666,55.771582603454576L87.73176666666666,58.16006893581813L87.87773333333334,85.78489642673067L87.9744,93.24615181816948L88.16773333333333,70.40885946485731L88.36106666666666,84.95303095711601L88.5544,82.84617127312553L89.76273333333333,78.3167094124688L89.81106666666666,65.02261130015054L90.34273333333334,101.21247259775797L90.72940000000001,83.23087633980644L90.77773333333333,87.4209951824612L90.92273333333334,80.09535439809162L91.01939999999999,75.84867445627847L91.06773333333334,67.64274115032619L91.50273333333334,79.82466745376587L91.84106666666666,87.25430615743L92.56606666666667,79.94929520289102L92.61439999999999,69.63577132754854L92.7594,86.56897142198349L93.67773333333334,65.59267833497788L93.9194,70.86014583375717L93.96773333333334,98.43692350387572L94.06439999999999,94.84198114607068L94.40273333333334,74.63203318913776L94.74106666666667,66.92520030339557L94.7894,76.35720565583969L95.2244,88.17930057313706L95.41773333333335,73.82888444264728L95.5144,81.89913241068521L95.70773333333334,80.72202968597412L96.14273333333334,95.9221118821038L96.4337,97.12170701556735L96.48203333333332,88.15112611982558L96.7237,70.87030749850801L97.11036666666666,93.21128151151868L97.54536666666667,86.90772501627603L97.5937,83.76996326446533L97.78703333333333,70.45683855480617L98.0287,81.47295549180771L98.1737,69.67627652486163L98.27036666666667,84.4895553059048L98.41536666666667,103.50754706064859L98.56036666666667,98.1177151997884L98.7537,77.41774394777084L99.14036666666667,83.99946127997504L99.52703333333334,81.01148388120863L99.72036666666668,95.11844444274901L99.86536666666667,74.06658723619248L99.9137,87.61548142962984L100.2037,94.13804419835407L100.6387,76.30092748006183L100.83203333333333,61.35797548294066L100.88036666666667,56.46113761266071L100.9287,93.58577775955199L101.02536666666667,79.34992202123004L101.17036666666668,82.57472986645168L101.5087,71.27234162224663L101.9437,89.08755535549587L101.99203333333332,58.69936805301241L102.42703333333333,84.8482314215766L102.62036666666665,91.74201324250963L102.71703333333333,83.06444666120741L102.86203333333333,72.59017515182494L103.1037,79.63506163491142L103.15203333333334,58.01497639550102L103.2487,73.20779689153034L103.29703333333333,78.60514979892305L103.34536666666666,85.33549621370102L103.58703333333334,84.3088379965888L104.2637,88.9209606382582L104.6987,60.69482665591768L104.94133333333333,100.94317669338649L105.27966666666666,102.6238358815511L105.328,100.38586478763156L105.763,98.570793416765L106.10133333333333,92.24233966403537L106.68133333333334,76.53912538952297L107.01966666666667,72.78626463148329L107.11633333333333,109.41204012764824L107.30966666666666,72.87378226386176L107.79299999999999,84.08136759863959L107.84133333333334,86.77067221535576L107.98633333333333,84.75356997383965L108.228,96.89376507865057L108.42133333333334,101.18267133500841L109.04966666666667,78.98964267306856L109.19466666666666,78.12729220920137L109.48466666666667,92.85017697016397L109.533,93.05713542302448L109.58133333333333,86.51436720954047L110.35466666666667,72.76275841395059L111.22466666666666,93.11907206641303L111.51466666666667,90.78403467602199L111.853,85.5477123260498L112.143,89.0376665327284L112.33633333333334,85.2196626663208L112.43299999999999,85.342545721266L112.52966666666667,77.78717115190292L112.81966666666666,80.5343100229899L112.96466666666667,47.00105211469861L113.06133333333332,73.88947719997829L113.20633333333332,82.59531254238551L113.35133333333333,103.88909281624687L113.44896666666668,78.66960917578803L113.88396666666667,68.93803511725531L113.98063333333333,75.9835346009996L114.56063333333333,107.79565170076158L114.60896666666667,98.98199897342258L114.6573,91.18552652994791L115.33396666666667,88.48728624979654L115.5273,78.47689119974771L115.72063333333332,78.57732899983722L115.91396666666667,86.90763070848251L115.9623,79.20551321241591L116.1073,110.80230204264322L116.20396666666667,103.98149087693956L116.30063333333332,88.9122371673584L116.68730000000001,96.30276171366373L116.78396666666667,100.57629579967922L116.92896666666667,106.08566278881496L117.07396666666668,69.44427935282388L117.21896666666667,101.59041108025444L117.31563333333332,108.4656614197625L117.46063333333333,98.14110353257921L118.37896666666666,99.94077915615505L118.95896666666665,124.62782457139755L119.0073,96.37269094255235L119.05563333333333,108.31743314531114L119.1523,82.31250704659355L119.20063333333333,97.80694744322034L119.2973,92.76280079947577L119.39396666666666,84.92787435319687L119.5873,89.60903029971652L119.78063333333333,79.51967604955036L120.0223,82.5441977183024L120.11896666666667,80.85962475670708L120.4573,78.25606950124103L120.6023,70.00010591083101L120.84396666666666,89.84786478678384L121.0373,104.08485221862792L121.27896666666666,88.14664649963379L121.37563333333334,87.78714519076875L121.42396666666666,82.78230131997002L121.95563333333334,89.44684447182549L122.1016,96.24374861187404L122.2466,113.19158999125162L122.39160000000001,98.53554587894016L122.43993333333333,108.56185536914401L122.58493333333334,95.33056624730428L122.63326666666666,96.69939671622382L122.72993333333334,79.47023518880206L122.9716,90.3894272910224L123.01993333333334,84.0186293390062L123.35826666666667,104.57619582282172L123.4066,76.47186035580104L123.59993333333334,100.53286706076727L123.69659999999999,96.24172099431355L123.79326666666667,115.10019111633301L123.9866,101.712068133884L124.46993333333334,97.18185181087917L124.5666,87.21618223190308L124.66326666666667,81.76896407869125L124.71159999999999,94.58723221884833L124.90493333333333,100.7760632832845L125.04993333333334,90.35750410291882L125.4366,95.99296061197916L125.62993333333334,97.23211786482068L126.30659999999999,90.64941030078464L126.49993333333335,96.6029905743069L126.5966,91.74623351626926L126.83826666666667,87.97250715891519L126.8866,104.21853351593016L126.98326666666667,103.13470119900173L127.07993333333334,78.57582007514105L127.12826666666666,101.80144834518431L127.22493333333334,105.28208965725368L127.32159999999999,91.35648298263548L127.36993333333334,102.79472160339354L127.70826666666667,80.89324548509384L127.85326666666667,87.10225841734145L128.09493333333333,101.83881780836316L129.01326666666668,93.05208995607164L129.4966,74.7118175824483L129.7866,83.15882518556381L129.9316,100.64789899190266L130.07659999999998,82.50069824854532L130.2216,115.69873910480075L130.2699333333333,76.72993363274468L130.31826666666666,95.74653434753417L130.75423333333333,109.0204741689894L130.80256666666668,116.01092147827148L130.8509,123.22400591108533L130.94756666666666,100.7609740363227L131.52756666666667,107.06684107250636L131.5759,133.05483892228867L131.67256666666668,93.18018351660834L132.05923333333334,101.60071420669554L132.49423333333334,97.53456295861137L133.3159,109.10407802793715L133.99256666666665,101.2311455408732L134.1859,78.94253593020967L134.23423333333332,80.72391584184433L134.3309,84.84452984068129L134.71756666666667,101.99845732582939L134.81423333333333,86.32471423678926L135.00756666666666,84.30388683742946L135.4909,92.88353835211859L135.87756666666667,87.7721266746521L135.9259,107.94934982723659L136.45756666666665,88.42971134185791L136.84423333333334,94.92306227154201L137.13423333333333,98.32934188842772L137.18256666666667,101.35053920745848L137.27923333333334,99.10318448808458L137.3759,98.09489271375867L137.61756666666668,93.7674381468031L138.5359,95.29505936304727L138.82590000000002,108.88719367980956L138.87423333333334,77.21420415242511L139.31019999999998,98.46422561009724L139.40686666666667,114.66762484444511L139.55186666666665,114.19471841388278L139.6002,95.63973077138265L139.64853333333335,116.70929426617093L140.18019999999999,105.91626241472032L140.3252,77.4288486904568L140.6152,110.15219126807318L140.85686666666666,90.43080483542548L140.95353333333333,106.82935047149657L141.0502,106.66879145304361L141.14686666666665,119.55958228641086L141.58186666666666,91.33868238661023L141.77519999999998,111.80142238405016L141.96853333333334,78.5686291058858L142.0652,87.61390177408853L142.2102,98.61313761605156L142.6452,106.26447036531236L142.69353333333333,111.01626284917195L143.17686666666665,114.57572189966837L143.27353333333335,138.76394981808133L143.85353333333333,101.64345921410454L143.90186666666668,93.82480086220635L143.9502,104.47870514127942L144.14353333333335,100.4699166085985L144.33686666666668,89.8120749791463L144.62686666666667,100.58855581283568L144.6752,99.68060753080579L144.8202,103.69033914142184L145.20686666666666,110.47328572803073L145.44853333333333,100.25331518385144L145.5935333333333,92.40907584296332L145.73853333333335,86.24042664633856L145.78686666666667,89.11002418729993L146.17353333333332,94.49306588702731L146.46353333333332,93.09224149915906L146.75353333333334,106.5139144791497L146.9952,110.74354828728569L147.8661666666667,101.46969710456L148.05949999999999,89.55117246839734L148.15616666666668,125.50493420494927L148.39783333333335,126.72110393312241L148.6395,117.00704754723442L149.26783333333336,90.76026911205714L149.46116666666666,98.78694687949286L149.60616666666667,108.55916759702895L150.33116666666666,86.4409721692403L150.86283333333333,92.09439431296454L150.91116666666667,106.55576356252034L151.05616666666668,111.55094088448418L151.34616666666668,111.738448354933L151.6845,119.54819462034436L151.73283333333333,83.09278615315753L151.78116666666665,96.40029954910277L151.8295,117.43437973658243L151.87783333333334,108.2381674448649L151.9261666666667,91.32088179058498L152.31283333333334,91.02671220567491L153.4245,109.25598430633544L153.47283333333334,114.73399395412869L153.52116666666666,102.71545590294731L153.8595,91.15313180287677L154.39116666666666,107.88944080140855L154.48783333333333,115.03252527448865L155.0678333333333,120.19255261951022L155.1161666666667,97.6576346291436L155.26116666666667,99.63199186325072L155.35783333333333,93.0957073105706L155.40616666666668,94.43756575054591L155.50283333333334,98.11653635236951L156.37380000000002,111.99402247534857L156.6154666666667,106.71087630589803L156.76046666666667,87.2859935760498L156.90546666666668,107.77796898947821L157.34046666666666,93.42005538940428L157.3888,92.70001538594562L157.6788,115.44630071851941L157.7754666666667,117.40243297153049L157.8238,114.38682338926526L158.1138,107.33262401156955L158.2588,97.537722269694L158.5488,109.52520947986179L158.64546666666666,110.34262228012084L158.74213333333333,110.78669410281711L158.8871333333333,87.55422851774428L159.56380000000001,103.84948354297214L159.66046666666668,103.172471470303L159.7088,102.78335751427544L159.75713333333331,121.27348497178818L160.2888,114.91075033611722L160.77213333333333,110.29808542463515L161.15879999999999,89.20081901550292L161.98046666666667,95.4974203109741L162.3188,94.46604670418633L162.36713333333333,112.92323716481526L162.51213333333334,126.16117498609754L162.99546666666666,79.6636840502421L163.28546666666665,100.64287710189818L163.4788,116.39913951026068L163.72046666666668,109.88638475206163L163.81713333333332,108.66248178482054L163.91379999999998,132.1482581032647L164.01046666666667,104.34771161609225L164.10713333333334,95.51960621939764L164.30046666666667,108.97044388453165L164.3488,67.09486002392238L164.4938,112.54539299011229L164.78379999999999,89.80462466345892L164.83309999999997,93.19239637586804L164.9781,131.71576256222195L165.36476666666667,90.39367114173041L165.46143333333336,118.77595525317722L165.50976666666668,98.5172030131022L165.5581,115.52254856957329L165.94476666666665,104.30588610967L166.66976666666667,114.96990489959717L166.76643333333334,110.81467994054158L166.86309999999997,124.61865313847859L166.95976666666667,109.7514067225986L167.05643333333333,112.29578383763631L167.49143333333336,123.10843171013725L167.68476666666666,105.35409365759955L168.3131,118.87344593471951L168.50643333333332,108.91397709316676L169.42476666666667,121.29437414805093L170.14976666666666,112.58240879906548L170.1981,131.14121590720282L170.4881,128.53758992089166L170.53643333333332,114.06113142437405L170.63309999999998,135.51521137025622L170.7781,107.22315624025133L171.01976666666667,116.25206650627983L171.2131,99.66808817121716L171.3097666666667,116.19871187210083L172.0831,110.59562651316324L172.4214333333333,91.18418264389037L172.61476666666667,111.12292496363321L172.9531,95.67424742380777L173.00143333333332,118.3510750664605L173.3397666666667,85.61129935582477L173.4374,130.81335486306085L174.59740000000002,112.2376430829366L174.7424,100.31546401977538L175.0807333333333,109.88435713450113L175.22573333333335,107.03272522820366L175.27406666666667,126.76462697982788L175.37073333333333,121.87108988232083L175.41906666666665,111.33155737982855L175.75740000000002,112.0038776397705L176.38573333333335,133.54358906216092L176.62740000000002,106.16617806752522L177.0624,131.8166011704339L177.15906666666666,89.91154612435234L177.25573333333335,114.35551320181952L177.59406666666666,114.663498878479L178.2224,114.05403476291232L178.31906666666666,105.52332899305554L178.60906666666665,113.31921201282077L178.99573333333333,115.95207341512044L179.28573333333335,107.86857520209418L179.33406666666667,123.21742794248792L179.3824,122.75803110334607L179.57573333333335,114.76360660129123L179.8174,105.10674789216783L180.15573333333333,98.15897485944959L180.5424,109.97845273547702L180.73573333333334,119.08931647406683L180.92906666666667,131.94082811143662L181.02573333333333,123.38336250517102L181.31573333333336,111.44071865081786L181.55739999999997,107.40359062618678L181.65406666666667,107.73218255572849L181.75073333333333,127.13289891348944L181.89573333333334,108.3716837035285L182.09003333333334,130.19335185156928L182.67003333333332,111.51484457651773L182.9117,129.57233503129746L183.15336666666667,139.08433696958753L184.02336666666667,134.9859324561225L184.2167,122.15401326285468L184.3617,110.7460945977105L184.6033666666667,106.85151280297173L184.9417,138.5526532067193L185.13503333333333,108.02944072087605L185.23170000000002,131.89402786890665L185.5217,97.50947708553737L185.57003333333333,102.70656739340887L185.86003333333335,109.131026479933L186.19836666666666,133.13070954216852L186.48836666666665,117.35992373360527L186.6333666666667,134.60257127549914L186.92336666666668,135.7307046784295L187.45503333333332,105.29203912946912L187.5517,117.22768063015408L188.03503333333333,118.54798973931206L188.18003333333334,112.98067061106363L188.2767,116.38159826066757L188.51836666666665,118.731324089898L189.29170000000002,119.6286391682095L189.38836666666666,105.19707118140326L189.63003333333333,116.71695677439371L189.67836666666668,119.23745044072469L189.8717,108.99515252643161L189.96836666666667,99.53784910837808L190.25836666666666,111.56819921069675L190.3067,117.55610752105713L190.59766666666667,119.6553046968248L191.17766666666668,112.6599769592285L191.41933333333333,131.1419703695509L191.99933333333334,127.31012683444553L192.04766666666666,133.10140339533487L192.33766666666668,127.88012313842773L192.386,133.04646910561456L193.06266666666664,116.19609483083089L193.256,114.01829210917154L193.35266666666666,116.10546504126654L193.44933333333333,137.69482951694064L193.59433333333334,129.79815504286023L193.73933333333335,131.3279217614068L194.17433333333332,120.27693451775444L194.46433333333331,126.65577220916748L194.561,125.96107742521497L195.09266666666664,126.93930859035916L195.14100000000002,117.09857326083713L195.431,131.35621409946017L195.76933333333335,109.98149416181776L196.92933333333335,128.01573774549695L197.21933333333334,123.06839805179172L197.316,117.83705043792725L198.331,108.7188778453403L198.476,117.24241622289021L198.66933333333336,128.8980107307434L198.71766666666667,106.89701631334093L198.766,110.96177652147081L199.00863333333334,134.35411739349365L199.15363333333335,114.93119155036078L199.25029999999998,116.41352144877115L199.6853,139.47656308280096L200.02363333333332,141.8944262928433L200.2653,136.42070764965482L200.65196666666665,125.94707271787854L200.8453,146.7490142716302L201.0386333333333,115.03856097327338L201.66696666666667,125.12312910291882L201.76363333333333,146.48815891477796L201.9086333333333,133.7411167356703L202.48863333333333,127.68738158543904L202.68196666666665,109.25539488262599L202.92363333333333,120.20356305440266L203.0203,111.4447267320421L203.50363333333334,133.98171949386597L203.6003,123.33792972564697L203.69696666666667,120.692195309533L204.3253,108.50013091829088L205.0986333333333,121.27268335554334L205.34029999999998,111.72651841905382L205.67863333333332,112.10139189826117L205.82363333333333,128.8705671628316L205.9203,119.17292033301459L206.88696666666664,129.5228705936008L206.9353,126.78789742787679L206.98363333333333,102.58719730377196L207.2253,119.59610297944809L207.32196666666667,115.91369014316135L207.7579333333333,137.04240820142957L208.14460000000003,149.26262346903482L208.43460000000002,136.47276555167304L208.48293333333334,110.57148371802435L208.67626666666666,113.79407533009847L209.20793333333333,141.01408661736383L209.49793333333332,121.0114271905687L209.7879333333333,112.45077869627211L209.93293333333335,130.8940823343065L210.65793333333332,126.26137701670328L210.85126666666667,136.12729252709283L211.1896,129.93697611490884L211.38293333333334,129.33866389592487L211.62460000000002,118.66582732730441L211.86626666666666,137.67228995429144L212.0596,124.66069083743625L212.10793333333334,115.9455190234714L212.6396,131.10153590308295L212.68793333333332,141.18789588080512L213.2196,130.4381277296278L213.31626666666665,121.79253149032593L213.3646,141.60233147939044L213.70293333333333,136.1326209174262L213.7996,132.81409470240274L213.84793333333332,132.3949908680386L213.89626666666666,109.36542850070529L213.94459999999998,118.64665926827324L214.2346,118.161964363522L215.29793333333333,129.89828634262085L215.44293333333334,109.77208370632594L216.1196,113.42988220850626L216.3139,139.12411128150092L216.36223333333334,134.27171595891315L216.4589,135.31997066073947L216.84556666666666,145.35299958123102L217.08723333333333,119.84043089548746L217.42556666666667,135.85259750154285L218.77890000000002,121.51368692186142L219.6489,129.4237059487237L219.89056666666667,147.53657865524292L220.32556666666667,138.74190537134805L220.3739,131.0099630355835L220.90556666666666,118.23436917199028L220.9539,125.69666194915771L221.05056666666667,127.19386890199448L221.14723333333333,136.34636953141955L221.29223333333331,136.83832613627115L221.3405666666667,119.34984175364175L221.43723333333332,138.66780302259656L222.5489,103.71474128299289L222.79056666666665,120.27599143981934L222.93556666666666,113.4025093714396L223.08056666666664,130.88252962960138L223.32223333333332,111.70025369856093L223.85389999999998,122.4800353050232L224.2889,132.6908344162835L224.4339,111.42032459047105L224.4822333333333,137.31184556749133L224.86986666666667,142.2362920443217L225.15986666666666,125.67739958233304L225.9332,140.92720556259155L226.2232,125.34909057617188L226.41653333333335,156.4641316201952L226.56153333333333,130.04132768842908L226.85153333333332,129.75786203808255L226.9482,143.44232368469238L227.3832,142.03022951549954L227.57653333333334,131.2787874009874L227.86653333333334,129.6293676694234L228.10819999999998,138.67570130030313L228.39819999999997,134.53375016318427L228.8332,129.24065452151828L229.17153333333334,129.68387757407294L229.36486666666667,141.6342075135973L229.79986666666665,119.50771299997965L229.94486666666668,116.46053388383652L230.52486666666667,127.83214404847885L230.8632,138.50465053982205L231.0082,133.61625321706134L231.10486666666668,118.59561517503525L231.1532,128.60916953616672L231.34653333333335,135.52506653467813L231.39486666666667,127.37215778562756L231.4432,141.8965246412489L232.0232,126.40029239654541L232.3132,123.02871804767184L232.36153333333334,134.92739089330036L232.45819999999998,133.17107327779132L232.7482,138.312074025472L232.8932,133.7548385196262L233.1832,140.2098061773512L233.32916666666665,134.86427540249295L233.6675,121.65936888588799L234.15083333333334,151.16938559214273L234.44083333333333,146.1586946381463L234.6341666666667,132.4248392846849L234.77916666666667,140.5940868589613L235.16583333333332,143.2937889099121L235.26250000000002,132.15957503848605L235.89083333333335,147.6786061922709L236.08416666666668,138.07465415530734L236.13250000000002,138.7817268371582L237.05083333333334,139.73598024580212L237.09916666666666,139.21037933561536L237.24416666666667,144.06421285205417L237.5825,142.29405556784735L237.67916666666667,153.77152623070612L238.06583333333333,121.9052293035719L238.16250000000002,148.74051194720798L238.21083333333334,134.51080979241266L238.83916666666667,124.22015555699666L238.93583333333333,148.199609597524L238.98416666666665,132.85995186699762L239.41916666666665,120.79484934277005L239.56416666666667,119.7452507548862L240.09583333333333,142.10720825195312L240.24083333333334,134.5690920088026L240.3375,151.90800423092313L240.43416666666664,142.16405227449206L241.01416666666665,132.71733490626016L241.78846666666666,141.4645242161221L242.03013333333334,151.3501500553555L242.51346666666666,163.7009580400255L242.80346666666665,149.47722085316974L243.14180000000002,139.31161875194974L243.4318,138.65101623535156L243.52846666666667,133.7633262210422L243.72179999999997,147.4521024492052L244.06013333333334,136.1523784001668L244.1084666666667,138.17787403530545L244.1568,158.34894360436334L244.64013333333335,146.68891663021512L245.65513333333334,139.95456213421292L245.8968,153.82813448376126L246.1384666666667,128.16764402389526L246.42846666666668,134.7951949437459L246.9118,141.6055850982666L247.15346666666665,154.22781091266208L247.44346666666667,135.25569989946155L247.6368,132.02999613020154L247.68513333333334,138.94950040181476L248.0718,160.890821562873L248.2168,144.90376440684L248.26513333333332,136.58883486853705L248.3618,154.33883476257324L248.5068,156.23508156670465L248.55513333333334,126.54981740315755L248.60346666666666,142.82208490371704L248.84513333333334,134.76890664630466L248.9418,141.0215369330512L249.0868,133.24246427747937L249.13513333333333,130.34231101142035L249.18346666666667,146.92166826460095L249.2318,133.65461291207208L249.32846666666669,149.91662444008722L249.47346666666667,128.7838275697496L249.52179999999998,137.34263706207275L249.81179999999998,122.37125126520792L250.1018,132.3982680638631L250.1984666666667,126.26585663689507L250.34346666666667,158.95887925889758L250.8761,142.7133715947469L251.26276666666666,146.9084180196126L251.31109999999998,145.94473383161755L251.35943333333333,146.82681820127698L251.64943333333332,138.66719002193875L251.9877666666667,150.83412138621011L252.22943333333333,144.08189556333753L252.56776666666667,165.20769008000693L253.1961,139.75875557793512L253.48610000000002,145.55503045188055L253.58276666666666,140.03528960545856L253.7277666666667,147.82141176859537L254.0661,130.9912193616231L254.3561,146.35912227630615L254.5011,143.0501447253757L254.59776666666664,138.8135321405199L254.64610000000002,137.2666721343994L255.0811,137.5908080206977L255.56443333333334,141.9786903063456L255.61276666666666,146.82634666230945L255.99943333333331,137.74269072214761L256.5794333333333,131.96973345014783L256.72443333333337,152.90403599209256L256.86943333333335,146.50824647479587L257.4977666666667,154.13239500257703L257.88443333333333,139.98488208982678L258.2711,149.80883063210382L258.31943333333334,141.40140872531467L258.4644333333333,119.60159640842014L258.5611,142.70724158816867L258.6094333333333,118.52919891145493L259.2387333333333,160.55437850952148L259.5287333333333,155.53814697265625L259.62539999999996,151.09785313076443L260.3504,140.62124750349255L260.68873333333335,156.65331305397882L260.9787333333333,156.12990479999118L261.12373333333335,150.39559014638263L261.1720666666667,147.49536614947849L261.46206666666666,151.14201275507608L262.0904,140.94368584950763L262.1870666666667,140.39439010620117L262.23539999999997,145.24563015831842L262.2837333333334,153.61351352267795L262.57373333333334,140.07706795798407L262.8154,166.99187564849854L263.44373333333334,148.57224326663547L264.21706666666665,141.62053288353815L264.55539999999996,149.18960565990872L264.79706666666664,156.80880302853055L264.8454,144.7077456580268L265.1354,158.02141263749866L265.5704,146.35103538301257L265.7154,142.36530510584512L265.76373333333333,138.54091188642712L265.8604,150.7015953593784L266.1504,157.8918573061625L266.19873333333334,144.6132492489285L266.2954,140.85350402196246L266.53706666666665,150.24137332704333L266.6820666666667,136.92457061343723L267.40706666666665,138.7667554749383L267.6013666666667,161.0634519788954L267.89136666666667,156.33264297909207L268.22970000000004,161.4693055682712L268.4230333333333,173.8424645000034L268.56803333333335,155.53461043039957L269.2930333333333,161.12894874148898L269.6797,148.7119838396708L269.8730333333333,156.34483226140338L269.9213666666667,175.2471555074056L270.79136666666665,141.30288065804376L270.9363666666667,134.69131490919324L270.9847,120.75936603546143L271.08136666666667,151.4434676170349L271.17803333333336,138.4047785864936L271.22636666666665,143.29727829827203L271.41970000000003,168.0775941212972L271.4680333333333,158.19074228074817L271.9997,153.68103790283203L272.28970000000004,140.20655255847507L272.4830333333333,154.02163049909802L273.5947,146.89101823170978L274.2230333333333,146.76308970981174L274.60970000000003,146.409034676022L274.85136666666665,141.86761930253772L274.8997,146.62893687354193L274.9963666666667,145.61734432644315L275.0447,139.89943922890558L275.0930333333333,142.01266468895807L275.5280333333333,149.21207449171277L275.5763666666667,142.4420952267117L276.0113666666667,162.34193558163113" style="fill: none;" fill="none"></path></g></g></g></g></g></g><g transform="translate(40, 178)" clip-path="url(#clip_1)"><clipPath id="clip_1"><rect width="290" height="22"></rect></clipPath><g><g><line x1="0" y1="0" x2="0" y2="5" style="visibility: inherit;" fill="rgb(0, 0, 0)" stroke="rgb(204, 204, 204)" stroke-width="1px"></line><line x1="19.333333333333332" y1="0" x2="19.333333333333332" y2="5" style="visibility: inherit;" fill="rgb(0, 0, 0)" stroke="rgb(204, 204, 204)" stroke-width="1px"></line><line x1="38.666666666666664" y1="0" x2="38.666666666666664" y2="5" style="visibility: inherit;" fill="rgb(0, 0, 0)" stroke="rgb(204, 204, 204)" stroke-width="1px"></line><line x1="58" y1="0" x2="58" y2="5" style="visibility: inherit;" fill="rgb(0, 0, 0)" stroke="rgb(204, 204, 204)" stroke-width="1px"></line><line x1="77.33333333333333" y1="0" x2="77.33333333333333" y2="5" style="visibility: inherit;" fill="rgb(0, 0, 0)" stroke="rgb(204, 204, 204)" stroke-width="1px"></line><line x1="96.66666666666666" y1="0" x2="96.66666666666666" y2="5" style="visibility: inherit;" fill="rgb(0, 0, 0)" stroke="rgb(204, 204, 204)" stroke-width="1px"></line><line x1="116" y1="0" x2="116" y2="5" style="visibility: inherit;" fill="rgb(0, 0, 0)" stroke="rgb(204, 204, 204)" stroke-width="1px"></line><line x1="135.33333333333334" y1="0" x2="135.33333333333334" y2="5" style="visibility: inherit;" fill="rgb(0, 0, 0)" stroke="rgb(204, 204, 204)" stroke-width="1px"></line><line x1="154.66666666666666" y1="0" x2="154.66666666666666" y2="5" style="visibility: inherit;" fill="rgb(0, 0, 0)" stroke="rgb(204, 204, 204)" stroke-width="1px"></line><line x1="174" y1="0" x2="174" y2="5" style="visibility: inherit;" fill="rgb(0, 0, 0)" stroke="rgb(204, 204, 204)" stroke-width="1px"></line><line x1="193.33333333333331" y1="0" x2="193.33333333333331" y2="5" style="visibility: inherit;" fill="rgb(0, 0, 0)" stroke="rgb(204, 204, 204)" stroke-width="1px"></line><line x1="212.66666666666666" y1="0" x2="212.66666666666666" y2="5" style="visibility: inherit;" fill="rgb(0, 0, 0)" stroke="rgb(204, 204, 204)" stroke-width="1px"></line><line x1="232" y1="0" x2="232" y2="5" style="visibility: inherit;" fill="rgb(0, 0, 0)" stroke="rgb(204, 204, 204)" stroke-width="1px"></line><line x1="251.33333333333334" y1="0" x2="251.33333333333334" y2="5" style="visibility: inherit;" fill="rgb(0, 0, 0)" stroke="rgb(204, 204, 204)" stroke-width="1px"></line><line x1="270.6666666666667" y1="0" x2="270.6666666666667" y2="5" style="visibility: inherit;" fill="rgb(0, 0, 0)" stroke="rgb(204, 204, 204)" stroke-width="1px"></line><line x1="290" y1="0" x2="290" y2="5" style="visibility: inherit;" fill="rgb(0, 0, 0)" stroke="rgb(204, 204, 204)" stroke-width="1px"></line></g><g transform="translate(0, 8)"><text x="0" y="0" dx="0em" dy="0.95em" style="text-anchor: middle; visibility: hidden; font-family: &quot;Helvetica Neue&quot;, sans-serif; font-size: 12px; font-weight: 200;" fill="rgb(50, 49, 63)" stroke="none" stroke-width="1px">-20k</text><text x="19.333333333333332" y="0" dx="0em" dy="0.95em" style="text-anchor: middle; visibility: inherit; font-family: &quot;Helvetica Neue&quot;, sans-serif; font-size: 12px; font-weight: 200;" fill="rgb(50, 49, 63)" stroke="none" stroke-width="1px">0</text><text x="38.666666666666664" y="0" dx="0em" dy="0.95em" style="text-anchor: middle; visibility: hidden; font-family: &quot;Helvetica Neue&quot;, sans-serif; font-size: 12px; font-weight: 200;" fill="rgb(50, 49, 63)" stroke="none" stroke-width="1px">20k</text><text x="58" y="0" dx="0em" dy="0.95em" style="text-anchor: middle; visibility: inherit; font-family: &quot;Helvetica Neue&quot;, sans-serif; font-size: 12px; font-weight: 200;" fill="rgb(50, 49, 63)" stroke="none" stroke-width="1px">40k</text><text x="77.33333333333333" y="0" dx="0em" dy="0.95em" style="text-anchor: middle; visibility: hidden; font-family: &quot;Helvetica Neue&quot;, sans-serif; font-size: 12px; font-weight: 200;" fill="rgb(50, 49, 63)" stroke="none" stroke-width="1px">60k</text><text x="96.66666666666666" y="0" dx="0em" dy="0.95em" style="text-anchor: middle; visibility: inherit; font-family: &quot;Helvetica Neue&quot;, sans-serif; font-size: 12px; font-weight: 200;" fill="rgb(50, 49, 63)" stroke="none" stroke-width="1px">80k</text><text x="116" y="0" dx="0em" dy="0.95em" style="text-anchor: middle; visibility: hidden; font-family: &quot;Helvetica Neue&quot;, sans-serif; font-size: 12px; font-weight: 200;" fill="rgb(50, 49, 63)" stroke="none" stroke-width="1px">100k</text><text x="135.33333333333334" y="0" dx="0em" dy="0.95em" style="text-anchor: middle; visibility: inherit; font-family: &quot;Helvetica Neue&quot;, sans-serif; font-size: 12px; font-weight: 200;" fill="rgb(50, 49, 63)" stroke="none" stroke-width="1px">120k</text><text x="154.66666666666666" y="0" dx="0em" dy="0.95em" style="text-anchor: middle; visibility: hidden; font-family: &quot;Helvetica Neue&quot;, sans-serif; font-size: 12px; font-weight: 200;" fill="rgb(50, 49, 63)" stroke="none" stroke-width="1px">140k</text><text x="174" y="0" dx="0em" dy="0.95em" style="text-anchor: middle; visibility: inherit; font-family: &quot;Helvetica Neue&quot;, sans-serif; font-size: 12px; font-weight: 200;" fill="rgb(50, 49, 63)" stroke="none" stroke-width="1px">160k</text><text x="193.33333333333331" y="0" dx="0em" dy="0.95em" style="text-anchor: middle; visibility: hidden; font-family: &quot;Helvetica Neue&quot;, sans-serif; font-size: 12px; font-weight: 200;" fill="rgb(50, 49, 63)" stroke="none" stroke-width="1px">180k</text><text x="212.66666666666666" y="0" dx="0em" dy="0.95em" style="text-anchor: middle; visibility: inherit; font-family: &quot;Helvetica Neue&quot;, sans-serif; font-size: 12px; font-weight: 200;" fill="rgb(50, 49, 63)" stroke="none" stroke-width="1px">200k</text><text x="232" y="0" dx="0em" dy="0.95em" style="text-anchor: middle; visibility: hidden; font-family: &quot;Helvetica Neue&quot;, sans-serif; font-size: 12px; font-weight: 200;" fill="rgb(50, 49, 63)" stroke="none" stroke-width="1px">220k</text><text x="251.33333333333334" y="0" dx="0em" dy="0.95em" style="text-anchor: middle; visibility: inherit; font-family: &quot;Helvetica Neue&quot;, sans-serif; font-size: 12px; font-weight: 200;" fill="rgb(50, 49, 63)" stroke="none" stroke-width="1px">240k</text><text x="270.6666666666667" y="0" dx="0em" dy="0.95em" style="text-anchor: middle; visibility: hidden; font-family: &quot;Helvetica Neue&quot;, sans-serif; font-size: 12px; font-weight: 200;" fill="rgb(50, 49, 63)" stroke="none" stroke-width="1px">260k</text><text x="290" y="0" dx="0em" dy="0.95em" style="text-anchor: middle; visibility: hidden; font-family: &quot;Helvetica Neue&quot;, sans-serif; font-size: 12px; font-weight: 200;" fill="rgb(50, 49, 63)" stroke="none" stroke-width="1px">280k</text></g><line x1="0" y1="0" x2="290" y2="0" fill="rgb(0, 0, 0)" stroke="rgb(204, 204, 204)" stroke-width="1px"></line></g></g></g></g></svg>