<svg viewBox="0 0 330 200" xmlns="http://www.w3.org/2000/svg"><g><g><g><g><g><line x1="40" y1="178" x2="35" y2="178" style="visibility: inherit;" fill="rgb(0, 0, 0)" stroke="rgb(204, 204, 204)" stroke-width="1px"></line><line x1="40" y1="160.2" x2="35" y2="160.2" style="visibility: inherit;" fill="rgb(0, 0, 0)" stroke="rgb(204, 204, 204)" stroke-width="1px"></line><line x1="40" y1="142.4" x2="35" y2="142.4" style="visibility: inherit;" fill="rgb(0, 0, 0)" stroke="rgb(204, 204, 204)" stroke-width="1px"></line><line x1="40" y1="124.6" x2="35" y2="124.6" style="visibility: inherit;" fill="rgb(0, 0, 0)" stroke="rgb(204, 204, 204)" stroke-width="1px"></line><line x1="40" y1="106.80000000000001" x2="35" y2="106.80000000000001" style="visibility: inherit;" fill="rgb(0, 0, 0)" stroke="rgb(204, 204, 204)" stroke-width="1px"></line><line x1="40" y1="89" x2="35" y2="89" style="visibility: inherit;" fill="rgb(0, 0, 0)" stroke="rgb(204, 204, 204)" stroke-width="1px"></line><line x1="40" y1="71.19999999999999" x2="35" y2="71.19999999999999" style="visibility: inherit;" fill="rgb(0, 0, 0)" stroke="rgb(204, 204, 204)" stroke-width="1px"></line><line x1="40" y1="53.400000000000006" x2="35" y2="53.400000000000006" style="visibility: inherit;" fill="rgb(0, 0, 0)" stroke="rgb(204, 204, 204)" stroke-width="1px"></line><line x1="40" y1="35.599999999999994" x2="35" y2="35.599999999999994" style="visibility: inherit;" fill="rgb(0, 0, 0)" stroke="rgb(204, 204, 204)" stroke-width="1px"></line><line x1="40" y1="17.80000000000001" x2="35" y2="17.80000000000001" style="visibility: inherit;" fill="rgb(0, 0, 0)" stroke="rgb(204, 204, 204)" stroke-width="1px"></line><line x1="40" y1="0" x2="35" y2="0" style="visibility: inherit;" fill="rgb(0, 0, 0)" stroke="rgb(204, 204, 204)" stroke-width="1px"></line></g><g transform="translate(30, 0)"><text x="0" y="178" dx="0em" dy="0.3em" style="text-anchor: end; visibility: hidden; font-family: &quot;Helvetica Neue&quot;, sans-serif; font-size: 12px; font-weight: 200;" fill="rgb(50, 49, 63)" stroke="none" stroke-width="1px">2</text><text x="0" y="160.2" dx="0em" dy="0.3em" style="text-anchor: end; visibility: inherit; font-family: &quot;Helvetica Neue&quot;, sans-serif; font-size: 12px; font-weight: 200;" fill="rgb(50, 49, 63)" stroke="none" stroke-width="1px">2.2</text><text x="0" y="142.4" dx="0em" dy="0.3em" style="text-anchor: end; visibility: hidden; font-family: &quot;Helvetica Neue&quot;, sans-serif; font-size: 12px; font-weight: 200;" fill="rgb(50, 49, 63)" stroke="none" stroke-width="1px">2.4</text><text x="0" y="124.6" dx="0em" dy="0.3em" style="text-anchor: end; visibility: inherit; font-family: &quot;Helvetica Neue&quot;, sans-serif; font-size: 12px; font-weight: 200;" fill="rgb(50, 49, 63)" stroke="none" stroke-width="1px">2.6</text><text x="0" y="106.80000000000001" dx="0em" dy="0.3em" style="text-anchor: end; visibility: hidden; font-family: &quot;Helvetica Neue&quot;, sans-serif; font-size: 12px; font-weight: 200;" fill="rgb(50, 49, 63)" stroke="none" stroke-width="1px">2.8</text><text x="0" y="89" dx="0em" dy="0.3em" style="text-anchor: end; visibility: inherit; font-family: &quot;Helvetica Neue&quot;, sans-serif; font-size: 12px; font-weight: 200;" fill="rgb(50, 49, 63)" stroke="none" stroke-width="1px">3</text><text x="0" y="71.19999999999999" dx="0em" dy="0.3em" style="text-anchor: end; visibility: hidden; font-family: &quot;Helvetica Neue&quot;, sans-serif; font-size: 12px; font-weight: 200;" fill="rgb(50, 49, 63)" stroke="none" stroke-width="1px">3.2</text><text x="0" y="53.400000000000006" dx="0em" dy="0.3em" style="text-anchor: end; visibility: inherit; font-family: &quot;Helvetica Neue&quot;, sans-serif; font-size: 12px; font-weight: 200;" fill="rgb(50, 49, 63)" stroke="none" stroke-width="1px">3.4</text><text x="0" y="35.599999999999994" dx="0em" dy="0.3em" style="text-anchor: end; visibility: hidden; font-family: &quot;Helvetica Neue&quot;, sans-serif; font-size: 12px; font-weight: 200;" fill="rgb(50, 49, 63)" stroke="none" stroke-width="1px">3.6</text><text x="0" y="17.80000000000001" dx="0em" dy="0.3em" style="text-anchor: end; visibility: inherit; font-family: &quot;Helvetica Neue&quot;, sans-serif; font-size: 12px; font-weight: 200;" fill="rgb(50, 49, 63)" stroke="none" stroke-width="1px">3.8</text><text x="0" y="0" dx="0em" dy="0.3em" style="text-anchor: end; visibility: hidden; font-family: &quot;Helvetica Neue&quot;, sans-serif; font-size: 12px; font-weight: 200;" fill="rgb(50, 49, 63)" stroke="none" stroke-width="1px">4</text></g><line x1="40" y1="0" x2="40" y2="178" fill="rgb(0, 0, 0)" stroke="rgb(204, 204, 204)" stroke-width="1px"></line></g></g><g transform="translate(40, 0)" clip-path="url(#clip_0)"><clipPath id="clip_0"><rect width="290" height="178"></rect></clipPath><g><g><g><line x1="0" y1="0" x2="0" y2="178" fill="rgb(0, 0, 0)" stroke="rgb(60, 60, 60)" stroke-width="1px" opacity="0.25"></line><line x1="19.333333333333332" y1="0" x2="19.333333333333332" y2="178" fill="rgb(0, 0, 0)" stroke="rgb(60, 60, 60)" stroke-width="1px" opacity="0.25"></line><line x1="38.666666666666664" y1="0" x2="38.666666666666664" y2="178" fill="rgb(0, 0, 0)" stroke="rgb(60, 60, 60)" stroke-width="1px" opacity="0.25"></line><line x1="58" y1="0" x2="58" y2="178" fill="rgb(0, 0, 0)" stroke="rgb(60, 60, 60)" stroke-width="1px" opacity="0.25"></line><line x1="77.33333333333333" y1="0" x2="77.33333333333333" y2="178" fill="rgb(0, 0, 0)" stroke="rgb(60, 60, 60)" stroke-width="1px" opacity="0.25"></line><line x1="96.66666666666666" y1="0" x2="96.66666666666666" y2="178" fill="rgb(0, 0, 0)" stroke="rgb(60, 60, 60)" stroke-width="1px" opacity="0.25"></line><line x1="116" y1="0" x2="116" y2="178" fill="rgb(0, 0, 0)" stroke="rgb(60, 60, 60)" stroke-width="1px" opacity="0.25"></line><line x1="135.33333333333334" y1="0" x2="135.33333333333334" y2="178" fill="rgb(0, 0, 0)" stroke="rgb(60, 60, 60)" stroke-width="1px" opacity="0.25"></line><line x1="154.66666666666666" y1="0" x2="154.66666666666666" y2="178" fill="rgb(0, 0, 0)" stroke="rgb(60, 60, 60)" stroke-width="1px" opacity="0.25"></line><line x1="174" y1="0" x2="174" y2="178" fill="rgb(0, 0, 0)" stroke="rgb(60, 60, 60)" stroke-width="1px" opacity="0.25"></line><line x1="193.33333333333331" y1="0" x2="193.33333333333331" y2="178" fill="rgb(0, 0, 0)" stroke="rgb(60, 60, 60)" stroke-width="1px" opacity="0.25"></line><line x1="212.66666666666666" y1="0" x2="212.66666666666666" y2="178" fill="rgb(0, 0, 0)" stroke="rgb(60, 60, 60)" stroke-width="1px" opacity="0.25"></line><line x1="232" y1="0" x2="232" y2="178" fill="rgb(0, 0, 0)" stroke="rgb(60, 60, 60)" stroke-width="1px" opacity="0.25"></line><line x1="251.33333333333334" y1="0" x2="251.33333333333334" y2="178" fill="rgb(0, 0, 0)" stroke="rgb(60, 60, 60)" stroke-width="1px" opacity="0.25"></line><line x1="270.6666666666667" y1="0" x2="270.6666666666667" y2="178" fill="rgb(0, 0, 0)" stroke="rgb(60, 60, 60)" stroke-width="1px" opacity="0.25"></line><line x1="290" y1="0" x2="290" y2="178" fill="rgb(0, 0, 0)" stroke="rgb(60, 60, 60)" stroke-width="1px" opacity="0.25"></line></g><g><line x1="0" y1="178" x2="290" y2="178" fill="rgb(0, 0, 0)" stroke="rgb(60, 60, 60)" stroke-width="1px" opacity="0.25"></line><line x1="0" y1="160.2" x2="290" y2="160.2" fill="rgb(0, 0, 0)" stroke="rgb(60, 60, 60)" stroke-width="1px" opacity="0.25"></line><line x1="0" y1="142.4" x2="290" y2="142.4" fill="rgb(0, 0, 0)" stroke="rgb(60, 60, 60)" stroke-width="1px" opacity="0.25"></line><line x1="0" y1="124.6" x2="290" y2="124.6" fill="rgb(0, 0, 0)" stroke="rgb(60, 60, 60)" stroke-width="1px" opacity="0.25"></line><line x1="0" y1="106.80000000000001" x2="290" y2="106.80000000000001" fill="rgb(0, 0, 0)" stroke="rgb(60, 60, 60)" stroke-width="1px" opacity="0.25"></line><line x1="0" y1="89" x2="290" y2="89" fill="rgb(0, 0, 0)" stroke="rgb(60, 60, 60)" stroke-width="1px" opacity="0.25"></line><line x1="0" y1="71.19999999999999" x2="290" y2="71.19999999999999" fill="rgb(0, 0, 0)" stroke="rgb(60, 60, 60)" stroke-width="1px" opacity="0.25"></line><line x1="0" y1="53.400000000000006" x2="290" y2="53.400000000000006" fill="rgb(0, 0, 0)" stroke="rgb(60, 60, 60)" stroke-width="1px" opacity="0.25"></line><line x1="0" y1="35.599999999999994" x2="290" y2="35.599999999999994" fill="rgb(0, 0, 0)" stroke="rgb(60, 60, 60)" stroke-width="1px" opacity="0.25"></line><line x1="0" y1="17.80000000000001" x2="290" y2="17.80000000000001" fill="rgb(0, 0, 0)" stroke="rgb(60, 60, 60)" stroke-width="1px" opacity="0.25"></line><line x1="0" y1="0" x2="290" y2="0" fill="rgb(0, 0, 0)" stroke="rgb(60, 60, 60)" stroke-width="1px" opacity="0.25"></line></g></g></g><g><g><line x1="0" y1="356" x2="290" y2="356" fill="rgb(0, 0, 0)" stroke="rgb(153, 153, 153)" stroke-width="1.5px"></line></g></g><g><g><line x1="19.333333333333332" y1="0" x2="19.333333333333332" y2="178" fill="rgb(0, 0, 0)" stroke="rgb(153, 153, 153)" stroke-width="1.5px"></line></g></g><g><g><g><g><g><path stroke="rgb(255, 112, 67)" stroke-width="2px" d="M27.453333333333333,-30.208978792155193L27.889300000000002,10.469822341178144L28.130966666666666,19.44658925949841L28.227633333333333,22.615376218614983L28.275966666666665,23.754874272483022L28.469299999999997,24.106987441580713L28.855966666666667,24.514934219420354L29.242633333333334,25.132577752322078L29.290966666666666,25.374165491834304L29.532633333333337,25.541466413907727L30.0643,26.202624779633453L30.3543,26.710385078695964L30.59596666666667,27.10974135235179L30.74096666666667,27.363110703930943L31.320966666666667,27.919126487584634L31.610966666666666,28.350367682222043L31.852633333333333,28.698219840837595L32.19096666666667,29.121672745082748L32.3843,29.40961633787572L32.48096666666667,29.599216230708464L33.3993,30.482410004138387L33.640966666666664,30.97753762316691L33.689299999999996,31.175196358895278L33.93096666666667,31.464500078361056L34.17263333333334,31.72723063492802L34.2693,31.88826379973895L34.655966666666664,32.265013843176405L34.704299999999996,32.413657495199914L35.042633333333335,32.73531250620465L35.23596666666667,32.99246422190842L35.670966666666665,33.371194743333405L36.057633333333335,33.80258919692582L36.7836,44.71202278702424L36.97693333333333,47.735893728044545L37.46026666666667,48.190365577252805L37.55693333333333,48.501651389751515L39.586933333333334,49.14333840112499L39.635266666666666,49.34266225069945L40.02193333333334,49.54783038964922L40.45693333333333,49.79739614925106L40.553599999999996,49.91531125486293L40.601933333333335,49.95270585948353L40.74693333333333,50.06721532325186L41.03693333333334,50.21261276000811L41.47193333333333,50.47607831118724L41.616933333333336,50.57346202122639L41.66526666666666,50.60983651038255L42.1486,50.75037515508015L42.97026666666667,51.06327108248142L43.06693333333334,51.18897086293717L43.7436,51.494102805588284L43.98526666666667,51.63614421180894L44.08193333333334,51.73479880419977L44.226933333333335,51.82014028289203L44.6136,51.97490856664861L44.903600000000004,52.09875537639111L45.00026666666667,52.15512981917044L45.0979,58.07924043806072L45.3879,60.525147472833666L45.62956666666667,61.16654580682966L46.1129,61.470024758131686L46.4029,61.54220452712519L46.692899999999995,61.70340687872931L46.88623333333333,61.723531123524836L47.176233333333336,61.60187305108485L47.2729,61.53461407749592L47.417899999999996,61.5860895607732L47.51456666666667,61.609909567054004L47.5629,61.61646142983912L47.804566666666666,61.707651827885186L47.8529,61.73985118095683L48.2879,61.78802605397884L48.5779,61.84914814212141L48.67456666666667,61.86730652683444L48.91623333333333,61.88799371014083L49.1579,61.96285263803615L49.25456666666667,62.013903260549924L49.83456666666666,62.09745532283816L50.1729,62.20030860307706L50.22123333333334,62.234625447401115L50.3179,62.22703691381476L50.414566666666666,62.219517076189135L50.4629,62.24203672533477L50.55956666666666,62.27888576544895L51.13956666666667,62.30846276389835L51.28456666666666,62.31010221990134L51.4779,62.37121109829006L51.6229,62.43220294912355L51.7679,62.48245033442883L51.96123333333334,62.52570159679628L52.009566666666665,62.54721772505633L52.2029,62.586454188328375L52.44456666666667,62.658158908933856L52.97623333333333,62.72434958536937L53.314566666666664,62.79017830109453L53.653866666666666,68.61732468669372L53.8472,69.67405407924878L53.992200000000004,69.77955937772818L54.04053333333333,69.90902111646484L54.08886666666667,69.80173112665702L54.427200000000006,69.90927079235045L54.7172,70.16528547678747L54.81386666666667,70.2535567667316L54.862199999999994,70.28636573512053L55.05553333333333,70.28208276855558L55.24886666666667,70.2501848615039L55.4422,70.16544203987206L55.49053333333333,70.13239935943629L55.68386666666667,70.16866601678475L56.11886666666667,70.10410520187841L56.3122,70.06147641167591L56.360533333333336,70.02827909656034L56.40886666666667,70.01269043406154L56.50553333333333,70.05738679444882L56.55386666666667,70.06730513535767L56.84386666666667,70.09842797745118L57.0372,70.14289330431475L57.08553333333334,70.15749544795948L57.1822,70.14650274186315L57.27886666666667,70.18140807410774L57.42386666666667,70.21524419385403L57.4722,70.2714408099598L57.52053333333333,70.30645074426971L57.71386666666666,70.24007212513641L57.907199999999996,70.24540945110905L58.14886666666666,70.24262887304486L58.1972,70.24079951663455L58.245533333333334,70.23013549154892L59.3572,70.22845133872599L59.550533333333334,70.2541773341053L59.6472,70.2720400578366L59.888866666666665,70.3096903349932L61.04886666666667,70.39342582780054L61.14553333333333,70.4261960165439L61.3872,70.45370271136578L61.483866666666664,70.46388567188446L61.6772,70.49075068443736L61.77386666666666,70.49445811930218L62.113166666666665,78.92260167605556L62.40316666666667,78.62356647731927L62.5965,77.74696324134491L62.93483333333333,77.21321822960564L63.031499999999994,77.1054532341939L63.32149999999999,77.0513336841101L63.41816666666667,77.10122550081714L63.56316666666667,77.00494049951884L63.70816666666667,76.93898071934422L64.09483333333333,76.93545734313025L64.14316666666667,76.96363197394281L64.28816666666667,76.98252635785364L64.6265,76.89445437666306L64.7715,76.86633948587337L65.2065,76.75284637243439L65.39983333333333,76.68800717959078L65.54483333333333,76.70155984869383L65.59316666666666,76.69821376416324L66.02816666666666,76.65611036662233L66.0765,76.6456033946394L66.26983333333334,76.62731560949442L66.3665,76.61285777355423L66.41483333333333,76.609292803601L66.60816666666666,76.59865767311918L66.6565,76.60293843314612L66.8015,76.59262209524385L66.84983333333334,76.57598082241319L67.2365,76.61284554009711L67.42983333333333,76.61075962783423L67.5265,76.61938757062416L67.62316666666666,76.62196109998365L67.6715,76.62314905616091L68.1065,76.59749700395004L68.25150000000001,76.59814904262942L68.63816666666666,76.59604236522416L68.73483333333333,76.59676202845307L68.9765,76.63801808569355L69.21816666666666,76.63959642473917L69.5565,76.65683950252551L70.18483333333333,76.6863127150155L70.47483333333334,76.66272953742795L70.61983333333333,76.676731668693L70.66913333333333,82.1612119444556L70.86246666666666,82.91641682888111L71.05579999999999,83.23362906725721L71.15246666666667,83.30710666165211L71.39413333333333,83.34871196980912L71.44246666666668,83.46140997480046L71.87746666666666,83.13886959812254L72.16746666666667,83.04133510429033L72.3608,83.02966127347466L72.40913333333333,82.99713542923786L72.89246666666666,82.7467364873453L73.13413333333334,82.60799936073911L73.8108,82.44070294981567L73.90746666666666,82.37811137284453L74.87413333333333,82.18756828619722L74.92246666666666,82.12486501310376L75.1158,82.0696927183095L75.16413333333334,82.05345295289827L75.21246666666667,82.04754127985142L76.08246666666666,81.99768707134105L76.32413333333334,81.95557865195804L76.66246666666666,81.95416050163905L76.71079999999999,81.95135850014685L77.0008,81.93717947692393L77.09746666666666,81.91917144981242L77.33913333333334,81.91180838265188L77.4358,81.89337946509771L78.5958,81.81945052604513L78.69246666666666,81.78532964843704L78.78913333333334,81.78326279776753L79.1758,81.80132841723406L79.27343333333334,86.88730580704585L79.6601,88.44675700395462L79.8051,88.94219012418138L79.95009999999999,88.82884927796948L80.57843333333332,88.60791601004493L80.91676666666667,88.33797999996632L81.20676666666667,88.14902926915498L81.49676666666667,87.88227131793982L81.5451,87.76053536781696L81.8351,87.55423933520623L82.31843333333333,87.41212689356422L82.5601,87.34112301908857L82.60843333333332,87.2925508720962L82.75343333333333,87.23656773278977L83.04343333333333,87.18898153218589L83.1401,87.13712637398534L83.2851,87.08725829355092L83.4301,87.02384582588725L83.5751,86.97481806108252L83.62343333333332,86.9480041474965L84.49343333333333,86.79074193867645L85.21843333333334,86.65043197224323L85.94343333333333,86.53768098995027L86.08843333333333,86.4859275479464L86.13676666666666,86.47580818114726L86.23343333333334,86.4665636175217L86.28176666666666,86.46272079805561L87.29676666666666,86.38569638925802L87.3451,86.35486525833018L87.58676666666666,86.32504385274478L87.73176666666666,86.30127366054604L87.87773333333334,91.77232789894505L87.9744,92.86561026543546L88.16773333333333,92.84479076376611L88.36106666666666,92.8073674640389L88.5544,92.76699795130885L89.76273333333333,92.20135740579367L89.81106666666666,92.00182460588574L90.34273333333334,91.68162786615599L90.72940000000001,91.59344118730041L90.77773333333333,91.57264435856288L90.92273333333334,91.45971278121696L91.01939999999999,91.39257637193988L91.06773333333334,91.33620781758782L91.50273333333334,91.16967817264606L91.84106666666666,91.09807776247804L92.56606666666667,91.01142058025401L92.61439999999999,90.97541218176666L92.7594,90.92192076794859L93.67773333333334,90.76127474055457L93.9194,90.66789665384819L93.96773333333334,90.63890289832274L94.06439999999999,90.62806587090826L94.40273333333334,90.59879147014239L94.74106666666667,90.5466369956768L94.7894,90.53136199027409L95.2244,90.48590271863377L95.41773333333335,90.46517982838465L95.5144,90.45416528808454L95.70773333333334,90.41249439366871L96.14273333333334,90.34206456317965L96.4337,94.31987794153235L96.48203333333332,95.909794950224L96.7237,96.90188865176948L97.11036666666666,96.70314325187239L97.54536666666667,96.3713445105959L97.5937,96.23293333765297L97.78703333333333,96.21128393863569L98.0287,96.11497014062087L98.1737,95.98863718896055L98.27036666666667,95.92765499946165L98.41536666666667,95.8806485706469L98.56036666666667,95.79049683731498L98.7537,95.63535492754492L99.14036666666667,95.52170434336816L99.52703333333334,95.4353249273925L99.72036666666668,95.29695542461361L99.86536666666667,95.18365771712867L99.9137,95.13870653850442L100.2037,95.14231753749434L100.6387,95.03274242998L100.83203333333333,94.96999955451741L100.88036666666667,94.92294023119287L100.9287,94.88744828010465L101.02536666666667,94.86255620987673L101.17036666666668,94.82013835630258L101.5087,94.73984453118277L101.9437,94.58238700937164L101.99203333333332,94.5216182348458L102.42703333333333,94.43567059866575L102.62036666666665,94.39412676820751L102.71703333333333,94.3730337486553L102.86203333333333,94.3396279533472L103.1037,94.3073557054927L103.15203333333334,94.29871377455984L103.2487,94.28181729646859L103.29703333333333,94.25959258655409L103.34536666666666,94.2366754692188L103.58703333333334,94.20074693207117L104.2637,94.07540349913887L104.6987,93.97011317239179L104.94133333333333,98.88936835952394L105.27966666666666,100.5842782688969L105.328,100.90436458685501L105.763,100.58975124388489L106.10133333333333,100.06798813351857L106.68133333333334,99.65118171456116L107.01966666666667,99.45727906728584L107.11633333333333,99.3629252019668L107.30966666666666,99.2382496804936L107.79299999999999,99.09509026440807L107.84133333333334,99.05765307972679L107.98633333333333,99.01224407264544L108.228,98.93328092309523L108.42133333333334,98.84603394810168L109.04966666666667,98.68080159945431L109.19466666666666,98.59108294523698L109.48466666666667,98.53071731769126L109.533,98.49680352939095L109.58133333333333,98.46800313214341L110.35466666666667,98.25359778946603L111.22466666666666,97.99102682276356L111.51466666666667,97.83026433707413L111.853,97.74054982877115L112.143,97.66141064946757L112.33633333333334,97.5870185374764L112.43299999999999,97.55216456888759L112.52966666666667,97.51875975560739L112.81966666666666,97.46339064488292L112.96466666666667,97.40287303224048L113.06133333333332,97.36772537021294L113.20633333333332,97.35704739030736L113.35133333333333,97.35406679849783L113.44896666666668,91.2280738202958L113.88396666666667,100.64939009690968L113.98063333333333,103.10848818881716L114.56063333333333,103.66227215130154L114.60896666666667,103.83133347511L114.6573,103.82032081985388L115.33396666666667,103.69441642017341L115.5273,103.55017537370676L115.72063333333332,103.3691073492031L115.91396666666667,103.17798641427936L115.9623,103.07879303426917L116.1073,102.94308516541535L116.20396666666667,102.84232019531554L116.30063333333332,102.71166634305665L116.68730000000001,102.45734727306468L116.78396666666667,102.34370990968736L116.92896666666667,102.26617227905092L117.07396666666668,102.2031630841288L117.21896666666667,102.12734179995635L117.31563333333332,102.08011688382085L117.46063333333333,102.0159228968342L118.37896666666666,101.71183441661955L118.95896666666665,101.44419312054859L119.0073,101.35423111788916L119.05563333333333,101.3128940578475L119.1523,101.27325166214035L119.20063333333333,101.25307070299547L119.2973,101.2179481598275L119.39396666666666,101.17302559651546L119.5873,101.12284588467361L119.78063333333333,101.04748685256027L120.0223,100.98603729932125L120.11896666666667,100.94492117324062L120.4573,100.88113388943253L120.6023,100.83869259812707L120.84396666666666,100.79025245087824L121.0373,100.71296446435895L121.27896666666666,100.63596391950027L121.37563333333334,100.59752011380786L121.42396666666666,100.58355100179375L121.95563333333334,100.47290539510448L122.1016,106.0555590384227L122.2466,108.35048781612582L122.39160000000001,108.60922563904246L122.43993333333333,108.72399553309002L122.58493333333334,108.44788484767113L122.63326666666666,108.38265301285696L122.72993333333334,108.13389430492676L122.9716,107.66518908157812L123.01993333333334,107.53533143226765L123.35826666666667,107.36269284017224L123.4066,107.21059572913452L123.59993333333334,107.00288544958298L123.69659999999999,106.86887462993106L123.79326666666667,106.74810612219468L123.9866,106.68096548324196L124.46993333333334,106.29389783741645L124.5666,106.12492887080197L124.66326666666667,106.0720250126734L124.71159999999999,106.02546657076523L124.90493333333333,105.92537857577518L125.04993333333334,105.86978934253845L125.4366,105.69930481328251L125.62993333333334,105.59661788765692L126.30659999999999,105.27820392556222L126.49993333333335,105.10321363242637L126.5966,105.02145519385392L126.83826666666667,104.91293124714393L126.8866,104.88459245073469L126.98326666666667,104.84197237404487L127.07993333333334,104.7702774593601L127.12826666666666,104.74367424217968L127.22493333333334,104.7065210472587L127.32159999999999,104.67143128308786L127.36993333333334,104.64198102352958L127.70826666666667,104.53607847034317L127.85326666666667,104.43665011447487L128.09493333333333,104.35309657967633L129.01326666666668,104.0612620637314L129.4966,103.84215445892504L129.7866,103.69129689805655L129.9316,103.62288305840777L130.07659999999998,103.57791008258428L130.2216,103.57028531344106L130.2699333333333,103.55972449574284L130.31826666666666,103.55305082974859L130.75423333333333,107.98271741681707L130.80256666666668,109.60865723554319L130.8509,110.40923856337079L130.94756666666666,110.65634953570132L131.52756666666667,110.27896681902338L131.5759,110.18974037014702L131.67256666666668,110.08490255785962L132.05923333333334,109.76453622374827L132.49423333333334,109.45850212631791L133.3159,108.96189007538013L133.99256666666665,108.5013993304296L134.1859,108.3049522078432L134.23423333333332,108.21950461376899L134.3309,108.17631352516771L134.71756666666667,108.08718756607999L134.81423333333333,108.01514667204572L135.00756666666666,107.9005813417779L135.4909,107.77489256316267L135.87756666666667,107.66213130788158L135.9259,107.60862207363888L136.45756666666665,107.42750260815278L136.84423333333334,107.22795917268176L137.13423333333333,107.07493513129828L137.18256666666667,107.02011583239641L137.27923333333334,106.97950343486907L137.3759,106.93287450133936L137.61756666666668,106.84858431237691L138.5359,106.61493267362641L138.82590000000002,106.50323259158532L138.87423333333334,106.46048370398167L139.31019999999998,110.83800535022345L139.40686666666667,112.17801295703391L139.55186666666665,112.34582045968097L139.6002,112.42839475660244L139.64853333333335,112.45251349266984L140.18019999999999,112.47014654772467L140.3252,112.46123653977212L140.6152,112.39956552484364L140.85686666666666,112.19844071477274L140.95353333333333,112.11622409942635L141.0502,112.0567722705689L141.14686666666665,111.94966732226872L141.58186666666666,111.78648360599001L141.77519999999998,111.7710527897743L141.96853333333334,111.64175830843651L142.0652,111.57244606781785L142.2102,111.48950544586415L142.6452,111.26037309047773L142.69353333333333,111.17545794688822L143.17686666666665,110.89814269317138L143.27353333333335,110.81007617644354L143.85353333333333,110.64091430286135L143.90186666666668,110.59643390828246L143.9502,110.56531017736756L144.14353333333335,110.49620266472152L144.33686666666668,110.41066468869106L144.62686666666667,110.26391774748106L144.6752,110.21009036998255L144.8202,110.17323640912863L145.20686666666666,110.07377232292325L145.44853333333333,109.96657618635606L145.5935333333333,109.89643700347459L145.73853333333335,109.81442172356284L145.78686666666667,109.77875129886817L146.17353333333332,109.65687189253674L146.46353333333332,109.55110571906721L146.75353333333334,109.45820924677179L146.9952,109.36681198190965L147.8661666666667,113.67381577226911L148.05949999999999,115.50248392979326L148.15616666666668,115.93968329596527L148.39783333333335,115.96669052174096L148.6395,115.6920567456794L149.26783333333336,115.49847348046043L149.46116666666666,115.26716239306849L149.60616666666667,115.16390313820102L150.33116666666666,114.68152818118352L150.86283333333333,114.3283916981066L150.91116666666667,114.20089835736289L151.05616666666668,114.09846847895723L151.34616666666668,113.97408833993659L151.6845,113.83430015710948L151.73283333333333,113.75928500791777L151.78116666666665,113.70915299505113L151.8295,113.68056701973116L151.87783333333334,113.64684428976491L151.9261666666667,113.61303617419756L152.31283333333334,113.48094668943274L153.4245,113.05928840326845L153.47283333333334,112.91311005976077L153.52116666666666,112.85845807858193L153.8595,112.74141532083716L154.39116666666666,112.56892268031947L154.48783333333333,112.49360241940653L155.0678333333333,112.29523028865765L155.1161666666667,112.22318231444153L155.26116666666667,112.17477224880633L155.35783333333333,112.128314252538L155.40616666666668,112.10140976781922L155.50283333333334,112.05564029656433L156.37380000000002,117.45934402836141L156.6154666666667,118.88933545319077L156.76046666666667,118.97806941857291L156.90546666666668,118.9128505569409L157.34046666666666,118.62773442809912L157.3888,118.50519957704881L157.6788,118.38971569110022L157.7754666666667,118.28432341208779L157.8238,118.27110918697932L158.1138,118.05888431172735L158.2588,117.93384228021256L158.5488,117.65568848213661L158.64546666666666,117.54451090026237L158.74213333333333,117.47207812645539L158.8871333333333,117.3217468863085L159.56380000000001,116.92600147144066L159.66046666666668,116.79936094348452L159.7088,116.72968631763703L159.75713333333331,116.70174338155823L160.2888,116.50443912069156L160.77213333333333,116.24869177496481L161.15879999999999,116.03082982825057L161.98046666666667,115.6656686548198L162.3188,115.47846632253541L162.36713333333333,115.41198245600287L162.51213333333334,115.35215570901462L162.99546666666666,115.19104986898493L163.28546666666665,115.0399766132605L163.4788,114.93200266854085L163.72046666666668,114.83795370011364L163.81713333333332,114.78915208980094L163.91379999999998,114.75037470580537L164.01046666666667,114.71121799683989L164.10713333333334,114.67968615214951L164.30046666666667,114.6190712223081L164.3488,114.58566192894065L164.4938,114.51747292312646L164.78379999999999,114.42704148898325L164.83309999999997,121.68785990419929L164.9781,123.7071138058393L165.36476666666667,123.36648580534128L165.46143333333336,123.2786310109582L165.50976666666668,123.15666273811716L165.5581,123.14336250895043L165.94476666666665,122.88145665727197L166.66976666666667,122.54081014514605L166.76643333333334,122.41673701918316L166.86309999999997,122.30949578856291L166.95976666666667,122.17918649367948L167.05643333333333,122.08786887840168L167.49143333333336,121.9858942834012L167.68476666666666,121.90315134547569L168.3131,121.68235168225297L168.50643333333332,121.54661236216644L169.42476666666667,121.3032297194303L170.14976666666666,121.0395853966564L170.1981,120.95242666155372L170.4881,120.8709646908947L170.53643333333332,120.82580549861518L170.63309999999998,120.79385428233603L170.7781,120.76684578837057L171.01976666666667,120.70482511693568L171.2131,120.63179577402573L171.3097666666667,120.58061076704354L172.0831,120.3988220498076L172.4214333333333,120.27931632414793L172.61476666666667,120.18832849805158L172.9531,120.1245223025817L173.00143333333332,120.09505727709349L173.3397666666667,120.01426752454344L173.4374,125.67515454306098L174.59740000000002,127.13310623649926L174.7424,127.4735728039866L175.0807333333333,127.26812696261781L175.22573333333335,127.12444260061856L175.27406666666667,127.10340955955111L175.37073333333333,127.0689671608875L175.41906666666665,127.02597164431424L175.75740000000002,126.79454862868553L176.38573333333335,126.3101452702158L176.62740000000002,125.98915218454223L177.0624,125.72607941371686L177.15906666666666,125.61125672740486L177.25573333333335,125.51969830060824L177.59406666666666,125.3621440168167L178.2224,125.13607156979876L178.31906666666666,125.03022493334959L178.60906666666665,124.9040176791321L178.99573333333333,124.68767611749085L179.28573333333335,124.53999521901346L179.33406666666667,124.46931117346924L179.3824,124.42913806906651L179.57573333333335,124.389532937024L179.8174,124.30278987092194L180.15573333333333,124.19357262373693L180.5424,124.03404787278393L180.73573333333334,123.92875205009051L180.92906666666667,123.83421426573058L181.02573333333333,123.77653216588098L181.31573333333336,123.65970923682332L181.55739999999997,123.53494735413874L181.65406666666667,123.47289172367482L181.75073333333333,123.42966282235453L181.89573333333334,123.37173267563247L182.09003333333334,128.63372513163108L182.67003333333332,130.0103898421169L182.9117,130.28537074253683L183.15336666666667,130.07241449214732L184.02336666666667,129.56772096591507L184.2167,129.33957984339392L184.3617,129.1950728484726L184.6033666666667,129.0746312018852L184.9417,128.88932523359722L185.13503333333333,128.7430826700624L185.23170000000002,128.6543078385859L185.5217,128.47365968117327L185.57003333333333,128.41385061946275L185.86003333333335,128.2588251573049L186.19836666666666,128.08800876564396L186.48836666666665,127.91423751242942L186.6333666666667,127.79787969985006L186.92336666666668,127.6736286890459L187.45503333333332,127.41768049037316L187.5517,127.32298273693283L188.03503333333333,127.1224067534529L188.18003333333334,127.01915887372263L188.2767,126.96857791953258L188.51836666666665,126.88735021893076L189.29170000000002,126.66118256373373L189.38836666666666,126.5684823993539L189.63003333333333,126.47253944884824L189.67836666666668,126.43044784787622L189.8717,126.37083881832163L189.96836666666667,126.32610102217497L190.25836666666666,126.2195929399762L190.3067,126.17418326472145L190.59766666666667,131.31501411657007L191.17766666666668,132.66554953831576L191.41933333333333,133.00906823330567L191.99933333333334,132.83867132143217L192.04766666666666,132.73709498487725L192.33766666666668,132.47403148008232L192.386,132.3770208930756L193.06266666666664,131.93653580474214L193.256,131.74502092876247L193.35266666666666,131.67133161508505L193.44933333333333,131.59343515957434L193.59433333333334,131.48739176727847L193.73933333333335,131.44167589467025L194.17433333333332,131.27333643234152L194.46433333333331,131.09793170153017L194.561,130.99815049129404L195.09266666666664,130.69681338774467L195.14100000000002,130.60055998655352L195.431,130.4765474429494L195.76933333333335,130.2991862663855L196.92933333333335,129.8398689856896L197.21933333333334,129.61605731340555L197.316,129.51397843269203L198.331,129.1242570969692L198.476,128.95178869048453L198.66933333333336,128.83545039498716L198.71766666666667,128.78930482388708L198.766,128.7585281882321L199.00863333333334,135.73065241437064L199.15363333333335,136.09898922521148L199.25029999999998,136.23833572172606L199.6853,136.3987892487749L200.02363333333332,135.97459957656577L200.2653,135.57172154682075L200.65196666666665,135.17193953781486L200.8453,134.95184793647874L201.0386333333333,134.86511470847356L201.66696666666667,134.53017211548396L201.76363333333333,134.4229161518571L201.9086333333333,134.3063419037389L202.48863333333333,133.92550640622758L202.68196666666665,133.68439220583437L202.92363333333333,133.45756692646745L203.0203,133.34169114517812L203.50363333333334,133.09978181388271L203.6003,132.98619856317725L203.69696666666667,132.90610751473872L204.3253,132.64121620942348L205.0986333333333,132.27311604347585L205.34029999999998,132.08185336925612L205.67863333333332,131.89881414752614L205.82363333333333,131.79221227938362L205.9203,131.73661468975078L206.88696666666664,131.3877076821099L206.9353,131.2714647208622L206.98363333333333,131.2232831166676L207.2253,131.13733884830748L207.32196666666667,131.07921954732979L207.7579333333333,136.80061787587954L208.14460000000003,138.31228218740986L208.43460000000002,138.46863766392102L208.48293333333334,138.51850014889249L208.67626666666666,138.32763425697092L209.20793333333333,137.83191468772054L209.49793333333332,137.4816371275686L209.7879333333333,137.15684122066804L209.93293333333335,137.04796527093978L210.65793333333332,136.5763228126357L210.85126666666667,136.31925516688796L211.1896,136.08598026443713L211.38293333333334,135.9556184077537L211.62460000000002,135.81832836461894L211.86626666666666,135.6556250524307L212.0596,135.5115438542302L212.10793333333334,135.4424001765709L212.6396,135.16439484335368L212.68793333333332,135.07364077203687L213.2196,134.8371439064539L213.31626666666665,134.73552241578693L213.3646,134.68676619128883L213.70293333333333,134.53076392530352L213.7996,134.45848953163312L213.84793333333332,134.43001917432457L213.89626666666666,134.39931667873475L213.94459999999998,134.38005012580518L214.2346,134.27601440640916L215.29793333333333,133.8675699230809L215.44293333333334,133.69304940690932L216.1196,133.3893427061747L216.3139,138.49298193477722L216.36223333333334,140.24394973046523L216.4589,140.95594828107042L216.84556666666666,140.92892151110792L217.08723333333333,140.74637424061723L217.42556666666667,140.61979349586375L218.77890000000002,139.49871854821748L219.6489,138.77825542938683L219.89056666666667,138.41104177430861L220.32556666666667,138.0970879667866L220.3739,137.97074404579007L220.90556666666666,137.66452765232805L220.9539,137.55506136347796L221.05056666666667,137.47666586139783L221.14723333333333,137.39371844738423L221.29223333333331,137.3334829467824L221.3405666666667,137.2929538386551L221.43723333333332,137.24351287774707L222.5489,136.76464309958357L222.79056666666665,136.52323143085164L222.93556666666666,136.4076585781584L223.08056666666664,136.3179694417718L223.32223333333332,136.1957776428343L223.85389999999998,135.95170614364983L224.2889,135.73253442419542L224.4339,135.60433888904151L224.4822333333333,135.554591585612L224.86986666666667,140.8575094012665L225.15986666666666,142.72553578222536L225.9332,142.4051918959759L226.2232,142.02815005708166L226.41653333333335,141.75445656039844L226.56153333333333,141.67958215492524L226.85153333333332,141.45772675161828L226.9482,141.30075701321744L227.3832,141.04662346913096L227.57653333333334,140.85249135516193L227.86653333333334,140.64028057343396L228.10819999999998,140.4183238294322L228.39819999999997,140.2062767012894L228.8332,139.955434479236L229.17153333333334,139.7321372025965L229.36486666666667,139.55285572987077L229.79986666666665,139.30538194173954L229.94486666666668,139.15953119037863L230.52486666666667,138.89564742874597L230.8632,138.67984516093583L231.0082,138.55505187114912L231.10486666666668,138.47483586907637L231.1532,138.4254458893545L231.34653333333335,138.35066540685915L231.39486666666667,138.30881776704678L231.4432,138.27482990710223L232.0232,138.07762826767055L232.3132,137.9379025140002L232.36153333333334,137.88472585197076L232.45819999999998,137.83510001991922L232.7482,137.72653138784986L232.8932,137.65547543808347L233.1832,137.5533557356731L233.32916666666665,142.67579220596957L233.6675,144.98866190571786L234.15083333333334,145.88745624440674L234.44083333333333,146.0145754296117L234.6341666666667,146.0147011363069L234.77916666666667,146.0156746173966L235.16583333333332,145.88221109703386L235.26250000000002,145.7896501445627L235.89083333333335,145.54646187495757L236.08416666666668,145.41180404863232L236.13250000000002,145.3635937715813L237.05083333333334,145.1073012216462L237.09916666666666,145.00862340520544L237.24416666666667,144.90022236225224L237.5825,144.75688025390272L237.67916666666667,144.70912450860493L238.06583333333333,144.5361180851178L238.16250000000002,144.4574798986112L238.21083333333334,144.41184588208185L238.83916666666667,144.19550968389035L238.93583333333333,144.1182804381261L238.98416666666665,144.08040672169358L239.41916666666665,143.9526676107235L239.56416666666667,143.87724189069235L240.09583333333333,143.70853022368658L240.24083333333334,143.62852169165586L240.3375,143.5893388780641L240.43416666666664,143.55081806757116L241.01416666666665,143.38269131832737L241.78846666666666,144.59745765165513L242.03013333333334,149.15120689998872L242.51346666666666,150.52364440241695L242.80346666666665,150.77130414092315L243.14180000000002,150.54795322729282L243.4318,150.35548062894685L243.52846666666667,150.24012221030574L243.72179999999997,150.1023869905835L244.06013333333334,149.96811336260936L244.1084666666667,149.91657233828872L244.1568,149.8951983469563L244.64013333333335,149.61521480136628L245.65513333333334,148.96738173262332L245.8968,148.65680335073486L246.1384666666667,148.48380724820143L246.42846666666668,148.33929698536593L246.9118,148.0775532271558L247.15346666666665,147.8827422245173L247.44346666666667,147.69765817474809L247.6368,147.5649988512739L247.68513333333334,147.51637808860974L248.0718,147.3865140211035L248.2168,147.29369609151632L248.26513333333332,147.23598036943181L248.3618,147.191617470319L248.5068,147.13784772793502L248.55513333333334,147.10546710085885L248.60346666666666,147.0735766708613L248.84513333333334,146.9581785148311L248.9418,146.88063251811056L249.0868,146.80257424067793L249.13513333333333,146.75130648717683L249.18346666666667,146.7142400840086L249.2318,146.66944732961542L249.32846666666669,146.61587540715186L249.47346666666667,146.5474601757802L249.52179999999998,146.5207862666928L249.81179999999998,146.41681577598106L250.1018,146.28750255654768L250.1984666666667,146.2242003528789L250.34346666666667,146.16057499195682L250.8761,151.65876703246101L251.26276666666666,152.9375709676256L251.31109999999998,153.2445979113433L251.35943333333333,153.28730332836668L251.64943333333332,153.15067411656725L251.9877666666667,153.00976601003273L252.22943333333333,152.71234054195486L252.56776666666667,152.41283222087503L253.1961,151.9036512018689L253.48610000000002,151.64242195014504L253.58276666666666,151.50019807494982L253.7277666666667,151.3829813089291L254.0661,151.1811305548644L254.3561,150.9784721096127L254.5011,150.86304348587302L254.59776666666664,150.78138878905568L254.64610000000002,150.73357242036997L255.0811,150.5320885470186L255.56443333333334,150.2680913296543L255.61276666666666,150.16870628855239L255.99943333333331,149.93814602810627L256.5794333333333,149.70599074160603L256.72443333333337,149.59216991363627L256.86943333333335,149.49350015908084L257.4977666666667,149.22973416027307L257.88443333333333,149.00878335767055L258.2711,148.82522991220074L258.31943333333334,148.75124054825284L258.4644333333333,148.67806660436386L258.5611,148.61592091114164L258.6094333333333,148.587459054562L259.2387333333333,153.91041285007373L259.5287333333333,155.33872687282914L259.62539999999996,155.64378868181333L260.3504,155.41062506031642L260.68873333333335,155.15692360398666L260.9787333333333,154.9101467108652L261.12373333333335,154.7060863010861L261.1720666666667,154.6254398296111L261.46206666666666,154.3908166727374L262.0904,153.96244606497734L262.1870666666667,153.7800019059266L262.23539999999997,153.6804408631827L262.2837333333334,153.6333573699625L262.57373333333334,153.46306285979244L262.8154,153.30543051279153L263.44373333333334,152.955144721617L264.21706666666665,152.46594805668283L264.55539999999996,152.17130783543135L264.79706666666664,151.98553637070998L264.8454,151.91538220466242L265.1354,151.79348084277234L265.5704,151.58894731088378L265.7154,151.4779172226307L265.76373333333333,151.431626256839L265.8604,151.36994047657717L266.1504,151.27069123892807L266.19873333333334,151.22591445538052L266.2954,151.16949545649484L266.53706666666665,151.06236458810508L266.6820666666667,150.97317312059505L267.40706666666665,150.6846528467468L267.6013666666667,155.9733326082507L267.89136666666667,157.67185748949888L268.22970000000004,157.86086205642L268.4230333333333,157.71626909971408L268.56803333333335,157.5885531675821L269.2930333333333,156.99277252471467L269.6797,156.60200494085555L269.8730333333333,156.39871361719017L269.9213666666667,156.33221557994617L270.79136666666665,155.78061564940197L270.9363666666667,155.51022555881138L270.9847,155.38202300802888L271.08136666666667,155.31193918924336L271.17803333333336,155.2366542903805L271.22636666666665,155.21512341762258L271.41970000000003,155.11187889654838L271.4680333333333,155.06311107420743L271.9997,154.7595508836026L272.28970000000004,154.55275938338983L272.4830333333333,154.41419681735917L273.5947,153.88096308954982L274.2230333333333,153.48023295476563L274.60970000000003,153.21745023749628L274.85136666666665,153.04512763506878L274.8997,152.98523173477264L274.9963666666667,152.93673906846647L275.0447,152.9152398411149L275.0930333333333,152.88071700047598L275.5280333333333,152.7262814167474L275.5763666666667,152.67323696980878L276.0113666666667,152.49042996278408" style="fill: none;" fill="none"></path></g></g></g></g><g opacity="0.2"><g><g><g><path stroke="rgb(255, 112, 67)" stroke-width="2px" d="M27.453333333333333,-29.829135417938232L27.889300000000002,27.903594255447388L28.130966666666666,23.29377508163452L28.227633333333333,23.973427772521973L28.275966666666665,24.24323058128357L28.469299999999997,24.257893085479736L28.855966666666667,24.68976855278015L29.242633333333334,25.397282123565674L29.290966666666666,25.477703094482422L29.532633333333337,25.61316680908203L30.0643,26.485978364944458L30.3543,26.92799663543701L30.59596666666667,27.2808940410614L30.74096666666667,27.471697568893433L31.320966666666667,28.157418966293335L31.610966666666666,28.53518533706665L31.852633333333333,28.847299337387085L32.19096666666667,29.303152561187744L32.3843,29.533020734786987L32.48096666666667,29.68047332763672L33.3993,30.860921621322632L33.640966666666664,31.189735174179077L33.689299999999996,31.259907245635986L33.93096666666667,31.58848738670349L34.17263333333334,31.839829444885254L34.2693,31.95727801322937L34.655966666666664,32.426478147506714L34.704299999999996,32.47736191749573L35.042633333333335,32.873164653778076L35.23596666666667,33.10267210006714L35.670966666666665,33.53350782394409L36.057633333333335,33.98747253417969L36.7836,49.38749432563782L36.97693333333333,49.03183841705322L37.46026666666667,48.38513922691345L37.55693333333333,48.63505959510803L39.586933333333334,49.418347120285034L39.635266666666666,49.42808675765991L40.02193333333334,49.635759592056274L40.45693333333333,49.90435290336609L40.553599999999996,49.96584630012512L40.601933333333335,49.96873211860657L40.74693333333333,50.116290807724L41.03693333333334,50.27492594718933L41.47193333333333,50.58899211883545L41.616933333333336,50.6151978969574L41.66526666666666,50.625425577163696L42.1486,50.81060600280762L42.97026666666667,51.19736933708191L43.06693333333334,51.24284219741821L43.7436,51.624873638153076L43.98526666666667,51.69701910018921L44.08193333333334,51.777079343795776L44.226933333333335,51.85671520233154L44.6136,52.04123783111572L44.903600000000004,52.151832580566406L45.00026666666667,52.17929029464722L45.0979,60.61814498901367L45.3879,61.57339334487915L45.62956666666667,61.44143080711365L46.1129,61.60008716583252L46.4029,61.57313871383667L46.692899999999995,61.77249360084534L46.88623333333333,61.73215579986572L47.176233333333336,61.54973387718201L47.2729,61.505788803100586L47.417899999999996,61.608150482177734L47.51456666666667,61.620118141174316L47.5629,61.619269371032715L47.804566666666666,61.74673342704773L47.8529,61.75365090370178L48.2879,61.8086724281311L48.5779,61.875343322753906L48.67456666666667,61.875088691711426L48.91623333333333,61.896859645843506L49.1579,61.994935035705566L49.25456666666667,62.03578209877014L49.83456666666666,62.13326334953308L50.1729,62.244388580322266L50.22123333333334,62.249332666397095L50.3179,62.22378468513489L50.414566666666666,62.216294288635254L50.4629,62.25168800354004L50.55956666666666,62.29467821121216L51.13956666666667,62.32113862037659L51.28456666666666,62.31080484390259L51.4779,62.39740061759949L51.6229,62.45834231376648L51.7679,62.5039849281311L51.96123333333334,62.54423785209656L52.009566666666665,62.55643892288208L52.2029,62.603269815444946L52.44456666666667,62.688889503479004L52.97623333333333,62.75271701812744L53.314566666666664,62.81839060783386L53.653866666666666,71.1146731376648L53.8472,70.12693810462952L53.992200000000004,69.82477593421936L54.04053333333333,69.96450471878052L54.08886666666667,69.75574970245361L54.427200000000006,69.95535922050476L54.7172,70.27500605583191L54.81386666666667,70.29138731956482L54.862199999999994,70.30042672157288L55.05553333333333,70.2802472114563L55.24886666666667,70.23651432991028L55.4422,70.12912368774414L55.49053333333333,70.1182382106781L55.68386666666667,70.18420886993408L56.11886666666667,70.07643628120422L56.3122,70.04320693016052L56.360533333333336,70.01405167579651L56.40886666666667,70.00600957870483L56.50553333333333,70.07654237747192L56.55386666666667,70.07155585289001L56.84386666666667,70.11176633834839L57.0372,70.16194987297058L57.08553333333334,70.16375350952148L57.1822,70.14179158210754L57.27886666666667,70.19636750221252L57.42386666666667,70.229745388031L57.4722,70.29552507400513L57.52053333333333,70.32145500183105L57.71386666666666,70.21162414550781L57.907199999999996,70.24769687652588L58.14886666666666,70.24143719673157L58.1972,70.24001550674438L58.245533333333334,70.22556519508362L59.3572,70.2277295589447L59.550533333333334,70.26520276069641L59.6472,70.27969551086426L59.888866666666665,70.3258261680603L61.04886666666667,70.42931246757507L61.14553333333333,70.4402403831482L61.3872,70.46549129486084L61.483866666666664,70.46824979782104L61.6772,70.50226426124573L61.77386666666666,70.4960470199585L62.113166666666665,82.53466320037842L62.40316666666667,78.49540853500366L62.5965,77.37127614021301L62.93483333333333,76.98447036743164L63.031499999999994,77.05926823616028L63.32149999999999,77.02813959121704L63.41816666666667,77.1226077079773L63.56316666666667,76.9636754989624L63.70816666666667,76.91071224212646L64.09483333333333,76.93394732475281L64.14316666666667,76.9757068157196L64.28816666666667,76.99062395095825L64.6265,76.85670924186707L64.7715,76.8542902469635L65.2065,76.7042064666748L65.39983333333333,76.6602189540863L65.54483333333333,76.70736813545227L65.59316666666666,76.69677972793579L66.02816666666666,76.6380660533905L66.0765,76.64110040664673L66.26983333333334,76.61947798728943L66.3665,76.60666155815125L66.41483333333333,76.60776495933533L66.60816666666666,76.59409976005554L66.6565,76.60477304458618L66.8015,76.58820080757141L66.84983333333334,76.5688488483429L67.2365,76.62864470481873L67.42983333333333,76.60986566543579L67.5265,76.62308526039124L67.62316666666666,76.6230640411377L67.6715,76.62365818023682L68.1065,76.58650326728821L68.25150000000001,76.59842848777771L68.63816666666666,76.595139503479L68.73483333333333,76.59707045555115L68.9765,76.65569925308228L69.21816666666666,76.64027285575867L69.5565,76.66422939300537L70.18483333333333,76.69894409179688L70.47483333333334,76.65262246131897L70.61983333333333,76.68273258209229L70.66913333333333,84.51170349121094L70.86246666666666,83.24007606506348L71.05579999999999,83.36957716941833L71.15246666666667,83.33859705924988L71.39413333333333,83.36654281616211L71.44246666666668,83.50970911979675L71.87746666666666,83.00063800811768L72.16746666666667,82.9995346069336L72.3608,83.024658203125L72.40913333333333,82.98319578170776L72.89246666666666,82.63942265510559L73.13413333333334,82.5485405921936L73.8108,82.36900448799133L73.90746666666666,82.3512864112854L74.87413333333333,82.10590696334839L74.92246666666666,82.09799218177795L75.1158,82.04604744911194L75.16413333333334,82.04649305343628L75.21246666666667,82.04500770568848L76.08246666666666,81.97632098197937L76.32413333333334,81.93753218650818L76.66246666666666,81.95355272293091L76.71079999999999,81.9501576423645L77.0008,81.93110275268555L77.09746666666666,81.91145372390747L77.33913333333334,81.90865278244019L77.4358,81.88548135757446L78.5958,81.78776669502258L78.69246666666666,81.77070641517639L78.78913333333334,81.78237700462341L79.1758,81.80907082557678L79.27343333333334,89.06701040267944L79.6601,89.11509323120117L79.8051,89.15451860427856L79.95009999999999,88.7802746295929L80.57843333333332,88.5132303237915L80.91676666666667,88.22229313850403L81.20676666666667,88.06805038452148L81.49676666666667,87.76794648170471L81.5451,87.70836281776428L81.8351,87.46582674980164L82.31843333333333,87.35122156143188L82.5601,87.31069278717041L82.60843333333332,87.2717342376709L82.75343333333333,87.21257495880127L83.04343333333333,87.16858744621277L83.1401,87.11490273475647L83.2851,87.06588625907898L83.4301,86.99666905403137L83.5751,86.9538061618805L83.62343333333332,86.93651247024536L84.49343333333333,86.72334384918213L85.21843333333334,86.59029912948608L85.94343333333333,86.48935914039612L86.08843333333333,86.46374750137329L86.13676666666666,86.47147130966187L86.23343333333334,86.46260166168213L86.28176666666666,86.46107387542725L87.29676666666666,86.35268592834473L87.3451,86.3416519165039L87.58676666666666,86.31226325035095L87.73176666666666,86.291086435318L87.87773333333334,94.1170654296875L87.9744,93.33415985107422L88.16773333333333,92.83586812019348L88.36106666666666,92.79132890701294L88.5544,92.74969673156738L89.76273333333333,91.95894002914429L89.81106666666666,91.91631054878235L90.34273333333334,91.54440069198608L90.72940000000001,91.5556468963623L90.77773333333333,91.56373143196106L90.92273333333334,91.41131353378296L91.01939999999999,91.36380362510681L91.06773333333334,91.31204986572266L91.50273333333334,91.09830832481384L91.84106666666666,91.067391872406L92.56606666666667,90.97428178787231L92.61439999999999,90.95998001098633L92.7594,90.89899587631226L93.67773333333334,90.69242644309998L93.9194,90.62787747383118L93.96773333333334,90.62647700309753L94.06439999999999,90.62342143058777L94.40273333333334,90.58624529838562L94.74106666666667,90.5242850780487L94.7894,90.5248155593872L95.2244,90.46642017364502L95.41773333333335,90.45629858970642L95.5144,90.44944477081299L95.70773333333334,90.39463543891907L96.14273333333334,90.31188035011292L96.4337,96.02465510368347L96.48203333333332,96.59118795394897L96.7237,97.32707166671753L97.11036666666666,96.6179666519165L97.54536666666667,96.22914505004883L97.5937,96.17361426353455L97.78703333333333,96.20200562477112L98.0287,96.0736927986145L98.1737,95.93449449539185L98.27036666666667,95.90151977539062L98.41536666666667,95.86050295829773L98.56036666666667,95.75186038017273L98.7537,95.56886553764343L99.14036666666667,95.47299695014954L99.52703333333334,95.3983051776886L99.72036666666668,95.23765420913696L99.86536666666667,95.13510155677795L99.9137,95.1194417476654L100.2037,95.14386510848999L100.6387,94.9857816696167L100.83203333333333,94.94310975074768L100.88036666666667,94.90277194976807L100.9287,94.87223744392395L101.02536666666667,94.85188817977905L101.17036666666668,94.80195927619934L101.5087,94.7054328918457L101.9437,94.51490521430969L101.99203333333332,94.49557447433472L102.42703333333333,94.39883589744568L102.62036666666665,94.3763222694397L102.71703333333333,94.36399388313293L102.86203333333333,94.32531118392944L103.1037,94.29352474212646L103.15203333333334,94.29501008987427L103.2487,94.27457594871521L103.29703333333333,94.25006771087646L103.34536666666666,94.22685384750366L103.58703333333334,94.18534898757935L104.2637,94.02168488502502L104.6987,93.92498874664307L104.94133333333333,100.99762058258057L105.27966666666666,101.31066823005676L105.328,101.04154443740845L105.763,100.45491695404053L106.10133333333333,99.84437537193298L106.68133333333334,99.47255039215088L107.01966666666667,99.37417793273926L107.11633333333333,99.32248783111572L107.30966666666666,99.18481731414795L107.79299999999999,99.03373622894287L107.84133333333334,99.04160857200623L107.98633333333333,98.9927830696106L108.228,98.89943957328796L108.42133333333334,98.80864238739014L109.04966666666667,98.60998773574829L109.19466666666666,98.55263209342957L109.48466666666667,98.5048463344574L109.533,98.4822690486908L109.58133333333333,98.45566010475159L110.35466666666667,98.16170978546143L111.22466666666666,97.87849640846252L111.51466666666667,97.76136612892151L111.853,97.70210075378418L112.143,97.6274938583374L112.33633333333334,97.55513620376587L112.43299999999999,97.53722715377808L112.52966666666667,97.50444340705872L112.81966666666666,97.43966102600098L112.96466666666667,97.37693691253662L113.06133333333332,97.35266208648682L113.20633333333332,97.35247111320496L113.35133333333333,97.35278940200806L113.44896666666668,88.60264825820923L113.88396666666667,104.68709707260132L113.98063333333333,104.16238737106323L114.56063333333333,103.89960813522339L114.60896666666667,103.90378832817078L114.6573,103.81560111045837L115.33396666666667,103.64045739173889L115.5273,103.48835778236389L115.72063333333332,103.29150676727295L115.91396666666667,103.09607744216919L115.9623,103.03628158569336L116.1073,102.88492465019226L116.20396666666667,102.79913520812988L116.30063333333332,102.65567183494568L116.68730000000001,102.3483533859253L116.78396666666667,102.29500818252563L116.92896666666667,102.23294186592102L117.07396666666668,102.17615914344788L117.21896666666667,102.09484696388245L117.31563333333332,102.05987763404846L117.46063333333333,101.98841118812561L118.37896666666666,101.58151078224182L118.95896666666665,101.32948970794678L119.0073,101.31567597389221L119.05563333333333,101.29517817497253L119.1523,101.2562620639801L119.20063333333333,101.24442172050476L119.2973,101.2028956413269L119.39396666666666,101.15377306938171L119.5873,101.10134029388428L119.78063333333333,101.01519012451172L120.0223,100.95970177650452L120.11896666666667,100.92729997634888L120.4573,100.85379648208618L120.6023,100.82050347328186L120.84396666666666,100.7694923877716L121.0373,100.67984104156494L121.27896666666666,100.60296368598938L121.37563333333334,100.58104419708252L121.42396666666666,100.57756423950195L121.95563333333334,100.4254858493805L122.1016,108.44812488555908L122.2466,109.33402872085571L122.39160000000001,108.7201132774353L122.43993333333333,108.77318263053894L122.58493333333334,108.32955169677734L122.63326666666666,108.35469651222229L122.72993333333334,108.02728343009949L122.9716,107.46431541442871L123.01993333333334,107.4796781539917L123.35826666666667,107.28870487213135L123.4066,107.14541125297546L123.59993333333334,106.91386675834656L123.69659999999999,106.81144142150879L123.79326666666667,106.69634819030762L123.9866,106.6521909236908L124.46993333333334,106.12801170349121L124.5666,106.05251359939575L124.66326666666667,106.04935193061829L124.71159999999999,106.00551295280457L124.90493333333333,105.88248372077942L125.04993333333334,105.84596538543701L125.4366,105.62624001502991L125.62993333333334,105.55260920524597L126.30659999999999,105.1417407989502L126.49993333333335,105.02821779251099L126.5966,104.98641586303711L126.83826666666667,104.86642098426819L126.8866,104.87244725227356L126.98326666666667,104.82370662689209L127.07993333333334,104.7395510673523L127.12826666666666,104.73227286338806L127.22493333333334,104.69059824943542L127.32159999999999,104.65639281272888L127.36993333333334,104.62935948371887L127.70826666666667,104.49069166183472L127.85326666666667,104.39403796195984L128.09493333333333,104.31728792190552L129.01326666666668,103.93619012832642L129.4966,103.74825119972229L129.7866,103.62664365768433L129.9316,103.5935628414154L130.07659999999998,103.5586359500885L130.2216,103.56701755523682L130.2699333333333,103.55519843101501L130.31826666666666,103.55019068717957L130.75423333333333,109.88114595413208L130.80256666666668,110.30548858642578L130.8509,110.75234484672546L130.94756666666666,110.76225423812866L131.52756666666667,110.11723136901855L131.5759,110.15150046348572L131.67256666666668,110.03997206687927L132.05923333333334,109.62723636627197L132.49423333333334,109.3273446559906L133.3159,108.74905633926392L133.99256666666665,108.30404615402222L134.1859,108.22076058387756L134.23423333333332,108.1828842163086L134.3309,108.15780305862427L134.71756666666667,108.04899072647095L134.81423333333333,107.98427200317383L135.00756666666666,107.85148191452026L135.4909,107.7210259437561L135.87756666666667,107.61380505561829L135.9259,107.58568954467773L136.45756666666665,107.34987998008728L136.84423333333334,107.14244055747986L137.13423333333333,107.00935339927673L137.18256666666667,106.99662184715271L137.27923333333334,106.96209812164307L137.3759,106.91289067268372L137.61756666666668,106.81245994567871L138.5359,106.51479625701904L138.82590000000002,106.4553611278534L138.87423333333334,106.44216275215149L139.31019999999998,112.71408605575562L139.40686666666667,112.75230193138123L139.55186666666665,112.41773796081543L139.6002,112.46378374099731L139.64853333333335,112.46285009384155L140.18019999999999,112.47770357131958L140.3252,112.4574179649353L140.6152,112.37313508987427L140.85686666666666,112.11224436759949L140.95353333333333,112.08098840713501L141.0502,112.03129291534424L141.14686666666665,111.9037652015686L141.58186666666666,111.71654772758484L141.77519999999998,111.7644395828247L141.96853333333334,111.58634638786316L142.0652,111.54274082183838L142.2102,111.45395946502686L142.6452,111.16217350959778L142.69353333333333,111.13906574249268L143.17686666666665,110.77929329872131L143.27353333333335,110.77233338356018L143.85353333333333,110.5684163570404L143.90186666666668,110.5773708820343L143.9502,110.55197143554688L144.14353333333335,110.46658515930176L144.33686666666668,110.37400555610657L144.62686666666667,110.20102620124817L144.6752,110.18702149391174L144.8202,110.15744185447693L145.20686666666666,110.03114485740662L145.44853333333333,109.92063498497009L145.5935333333333,109.86637735366821L145.73853333333335,109.77927231788635L145.78686666666667,109.76346397399902L146.17353333333332,109.60463786125183L146.46353333333332,109.50577735900879L146.75353333333334,109.41839647293091L146.9952,109.32764172554016L147.8661666666667,115.51967453956604L148.05949999999999,116.28619885444641L148.15616666666668,116.12705445289612L148.39783333333335,115.97826504707336L148.6395,115.57435655593872L149.26783333333336,115.41550922393799L149.46116666666666,115.16802906990051L149.60616666666667,115.11964917182922L150.33116666666666,114.47479605674744L150.86283333333333,114.17704749107361L150.91116666666667,114.14625835418701L151.05616666666668,114.0545699596405L151.34616666666668,113.92078256607056L151.6845,113.77439093589783L151.73283333333333,113.72713565826416L151.78116666666665,113.68766784667969L151.8295,113.66831588745117L151.87783333333334,113.63239169120789L151.9261666666667,113.59854698181152L152.31283333333334,113.4243369102478L153.4245,112.878577709198L153.47283333333334,112.85046219825745L153.52116666666666,112.83503580093384L153.8595,112.69125413894653L154.39116666666666,112.49499726295471L154.48783333333333,112.46132230758667L155.0678333333333,112.21021366119385L155.1161666666667,112.19230461120605L155.26116666666667,112.15402507781982L155.35783333333333,112.10840368270874L155.40616666666668,112.08987927436829L155.50283333333334,112.03602480888367L156.37380000000002,119.77521705627441L156.6154666666667,119.50218892097473L156.76046666666667,119.01609826087952L156.90546666666668,118.88489961624146L157.34046666666666,118.50554180145264L157.3888,118.4526846408844L157.6788,118.34022259712219L157.7754666666667,118.23915529251099L157.8238,118.2654459476471L158.1138,117.9679307937622L158.2588,117.88025283813477L158.5488,117.53647971153259L158.64546666666666,117.49686336517334L158.74213333333333,117.4410355091095L158.8871333333333,117.25731921195984L159.56380000000001,116.75639629364014L159.66046666666668,116.7450864315033L159.7088,116.69982576370239L159.75713333333331,116.68976783752441L160.2888,116.41988015174866L160.77213333333333,116.13908576965332L161.15879999999999,115.93746042251587L161.98046666666667,115.50917100906372L162.3188,115.3982367515564L162.36713333333333,115.38348937034607L162.51213333333334,115.32651567459106L162.99546666666666,115.12200450897217L163.28546666666665,114.97523093223572L163.4788,114.88572812080383L163.72046666666668,114.79764699935913L163.81713333333332,114.76823711395264L163.91379999999998,114.73375582695007L164.01046666666667,114.69443655014038L164.10713333333334,114.66617250442505L164.30046666666667,114.59309339523315L164.3488,114.57134366035461L164.4938,114.48824906349182L164.78379999999999,114.3882851600647L164.83309999999997,124.7996392250061L164.9781,124.57250833511353L165.36476666666667,123.2205023765564L165.46143333333336,123.24097895622253L165.50976666666668,123.1043906211853L165.5581,123.13766241073608L165.94476666666665,122.76921129226685L166.66976666666667,122.3948187828064L166.76643333333334,122.36356282234192L166.86309999999997,122.26353526115417L166.95976666666667,122.12333965301514L167.05643333333333,122.04873275756836L167.49143333333336,121.94219088554382L167.68476666666666,121.86769008636475L168.3131,121.58772325515747L168.50643333333332,121.48843836784363L169.42476666666667,121.19892287254333L170.14976666666666,120.92659497261047L170.1981,120.91507291793823L170.4881,120.83605241775513L170.53643333333332,120.80645155906677L170.63309999999998,120.78016090393066L170.7781,120.7552707195282L171.01976666666667,120.67824482917786L171.2131,120.60049748420715L171.3097666666667,120.55867433547974L172.0831,120.3209125995636L172.4214333333333,120.22809958457947L172.61476666666667,120.14933371543884L172.9531,120.09717679023743L173.00143333333332,120.0824294090271L173.3397666666667,119.97964334487915L173.4374,128.10124897956848L174.59740000000002,127.75794267654419L174.7424,127.61948704719543L175.0807333333333,127.1800787448883L175.22573333333335,127.06286358833313L175.27406666666667,127.09439539909363L175.37073333333333,127.0542061328888L175.41906666666665,127.00754499435425L175.75740000000002,126.6953673362732L176.38573333333335,126.10254383087158L176.62740000000002,125.85158371925354L177.0624,125.61333394050598L177.15906666666666,125.5620470046997L177.25573333333335,125.48045897483826L177.59406666666666,125.2946207523346L178.2224,125.0391833782196L178.31906666666666,124.9848620891571L178.60906666666665,124.849928855896L178.99573333333333,124.59495830535889L179.28573333333335,124.47670340538025L179.33406666666667,124.43901801109314L179.3824,124.41192102432251L179.57573333333335,124.37255930900574L179.8174,124.26561427116394L180.15573333333333,124.14676523208618L180.5424,123.96568012237549L180.73573333333334,123.88362526893616L180.92906666666667,123.79369807243347L181.02573333333333,123.75181126594543L181.31573333333336,123.60964226722717L181.55739999999997,123.48147797584534L181.65406666666667,123.44629645347595L181.75073333333333,123.41113615036011L181.89573333333334,123.34690546989441L182.09003333333334,130.8888647556305L182.67003333333332,130.60038900375366L182.9117,130.40321969985962L183.15336666666667,129.9811475276947L184.02336666666667,129.35142374038696L184.2167,129.24180507659912L184.3617,129.13314127922058L184.6033666666667,129.02301335334778L184.9417,128.80990839004517L185.13503333333333,128.6804072856903L185.23170000000002,128.61626148223877L185.5217,128.3962390422821L185.57003333333333,128.38821816444397L185.86003333333335,128.19238567352295L186.19836666666666,128.01480174064636L186.48836666666665,127.83976411819458L186.6333666666667,127.74801206588745L186.92336666666668,127.62037825584412L187.45503333333332,127.30798840522766L187.5517,127.28239798545837L188.03503333333333,127.03644561767578L188.18003333333334,126.97490978240967L188.2767,126.94690036773682L188.51836666666665,126.85253834724426L189.29170000000002,126.56425356864929L189.38836666666666,126.5287537574768L189.63003333333333,126.43142104148865L189.67836666666668,126.41240859031677L189.8717,126.34529209136963L189.96836666666667,126.30692768096924L190.25836666666666,126.17394661903381L190.3067,126.15472197532654L190.59766666666667,133.5182273387909L191.17766666666668,133.2443504333496L191.41933333333333,133.15629053115845L191.99933333333334,132.76564407348633L192.04766666666666,132.69356226921082L192.33766666666668,132.36128997802734L192.386,132.33544492721558L193.06266666666664,131.74775648117065L193.256,131.66294312477112L193.35266666666666,131.63975048065186L193.44933333333333,131.56005096435547L193.59433333333334,131.4419445991516L193.73933333333335,131.42208337783813L194.17433333333332,131.20119094848633L194.46433333333331,131.02275824546814L194.561,130.95538711547852L195.09266666666664,130.56766891479492L195.14100000000002,130.55930852890015L195.431,130.4233992099762L195.76933333333335,130.2231743335724L196.92933333333335,129.64301872253418L197.21933333333334,129.5201380252838L197.316,129.47023034095764L198.331,128.95723366737366L198.476,128.8778736591339L198.66933333333336,128.78559112548828L198.71766666666667,128.76952815055847L198.766,128.74533820152283L199.00863333333334,138.7187056541443L199.15363333333335,136.25684785842896L199.25029999999998,136.2980556488037L199.6853,136.46755504608154L200.02363333333332,135.79280400276184L200.2653,135.39905953407288L200.65196666666665,135.00060439109802L200.8453,134.85752296447754L201.0386333333333,134.82794332504272L201.66696666666667,134.386625289917L201.76363333333333,134.37694931030273L201.9086333333333,134.25638151168823L202.48863333333333,133.76229119300842L202.68196666666665,133.58105754852295L202.92363333333333,133.360356092453L203.0203,133.29203009605408L203.50363333333334,132.9961063861847L203.6003,132.93752002716064L203.69696666666667,132.8717827796936L204.3253,132.52769136428833L205.0986333333333,132.1153588294983L205.34029999999998,131.9998836517334L205.67863333333332,131.82036876678467L205.82363333333333,131.74652576446533L205.9203,131.71278715133667L206.88696666666664,131.23817610740662L206.9353,131.22164630889893L206.98363333333333,131.20263385772705L207.2253,131.10050559043884L207.32196666666667,131.05431127548218L207.7579333333333,139.2526457309723L208.14460000000003,138.96013832092285L208.43460000000002,138.53564715385437L208.48293333333334,138.53986978530884L208.67626666666666,138.24583458900452L209.20793333333333,137.6194634437561L209.49793333333332,137.33151817321777L209.7879333333333,137.01764297485352L209.93293333333335,137.00130414962769L210.65793333333332,136.37419033050537L210.85126666666667,136.20908331871033L211.1896,135.9860053062439L211.38293333333334,135.89974904060364L211.62460000000002,135.75948977470398L211.86626666666666,135.58589506149292L212.0596,135.4497947692871L212.10793333333334,135.41276717185974L212.6396,135.04524970054626L212.68793333333332,135.03474617004395L213.2196,134.73578810691833L213.31626666666665,134.69197034835815L213.3646,134.6658706665039L213.70293333333333,134.46390581130981L213.7996,134.42751479148865L213.84793333333332,134.41781759262085L213.89626666666666,134.3861584663391L213.94459999999998,134.3717930316925L214.2346,134.23142766952515L215.29793333333333,133.69252228736877L215.44293333333334,133.61825489997864L216.1196,133.2591826915741L216.3139,140.68025588989258L216.36223333333334,140.99436450004578L216.4589,141.26109051704407L216.84556666666666,140.91733860969543L217.08723333333333,140.66813969612122L217.42556666666667,140.56554460525513L218.77890000000002,139.01825785636902L219.6489,138.46948552131653L219.89056666666667,138.2536644935608L220.32556666666667,137.96253633499146L220.3739,137.91659665107727L220.90556666666666,137.53329205513L220.9539,137.50814723968506L221.05056666666667,137.44306778907776L221.14723333333333,137.35816955566406L221.29223333333331,137.30766773223877L221.3405666666667,137.27558422088623L221.43723333333332,137.22232389450073L222.5489,136.55941319465637L222.79056666666665,136.41976928710938L222.93556666666666,136.35812735557556L223.08056666666664,136.27953124046326L223.32223333333332,136.1434097290039L223.85389999999998,135.8471040725708L224.2889,135.63860368728638L224.4339,135.54939794540405L224.4822333333333,135.53327131271362L224.86986666666667,143.1301884651184L225.15986666666666,143.526118516922L225.9332,142.26790165901184L226.2232,141.86656069755554L226.41653333333335,141.63715934753418L226.56153333333333,141.64749312400818L226.85153333333332,141.3626458644867L226.9482,141.23348426818848L227.3832,140.93770909309387L227.57653333333334,140.76929187774658L227.86653333333334,140.54933309555054L228.10819999999998,140.32319951057434L228.39819999999997,140.11539936065674L228.8332,139.84793066978455L229.17153333333334,139.63643836975098L229.36486666666667,139.47602081298828L229.79986666666665,139.19932174682617L229.94486666666668,139.09702372550964L230.52486666666667,138.78255438804626L230.8632,138.58735847473145L231.0082,138.50156903266907L231.10486666666668,138.44045758247375L231.1532,138.404278755188L231.34653333333335,138.31861662864685L231.39486666666667,138.29088306427002L231.4432,138.26026368141174L232.0232,137.99311327934265L232.3132,137.87802004814148L232.36153333333334,137.86193585395813L232.45819999999998,137.81383180618286L232.7482,137.68000197410583L232.8932,137.6250228881836L233.1832,137.50959014892578L233.32916666666665,144.8711221218109L233.6675,145.97989177703857L234.15083333333334,146.2726538181305L234.44083333333333,146.06905508041382L234.6341666666667,146.01475501060486L234.77916666666667,146.01609182357788L235.16583333333332,145.82501244544983L235.26250000000002,145.74998116493225L235.89083333333335,145.44223833084106L236.08416666666668,145.35409355163574L236.13250000000002,145.34293222427368L237.05083333333334,144.9974615573883L237.09916666666666,144.96633291244507L237.24416666666667,144.85376477241516L237.5825,144.69544792175293L237.67916666666667,144.68865776062012L238.06583333333333,144.46197247505188L238.16250000000002,144.4237778186798L238.21083333333334,144.3922884464264L238.83916666666667,144.10279417037964L238.93583333333333,144.0851821899414L238.98416666666665,144.06417512893677L239.41916666666665,143.89792227745056L239.56416666666667,143.84491658210754L240.09583333333333,143.63622522354126L240.24083333333334,143.59423232078552L240.3375,143.5725462436676L240.43416666666664,143.53430914878845L241.01416666666665,143.3106369972229L241.78846666666666,145.1180717945099L242.03013333333334,151.10281372070312L242.51346666666666,151.11183190345764L242.80346666666665,150.87744402885437L243.14180000000002,150.45223140716553L243.4318,150.27299237251282L243.52846666666667,150.190682888031L243.72179999999997,150.04335761070251L244.06013333333334,149.91056752204895L244.1084666666667,149.8944833278656L244.1568,149.88603806495667L244.64013333333335,149.49522185325623L245.65513333333334,148.68973898887634L245.8968,148.52369832992554L246.1384666666667,148.40966606140137L246.42846666666668,148.27736401557922L246.9118,147.96537733078003L247.15346666666665,147.79925179481506L247.44346666666667,147.6183364391327L247.6368,147.50814485549927L247.68513333333334,147.49554061889648L248.0718,147.33085799217224L248.2168,147.25391697883606L248.26513333333332,147.21124505996704L248.3618,147.17260479927063L248.5068,147.11480355262756L248.55513333333334,147.09158968925476L248.60346666666666,147.05990934371948L248.84513333333334,146.9087221622467L248.9418,146.847398519516L249.0868,146.7691206932068L249.13513333333333,146.7293345928192L249.18346666666667,146.69835448265076L249.2318,146.6502504348755L249.32846666666669,146.5929160118103L249.47346666666667,146.5181393623352L249.52179999999998,146.50935459136963L249.81179999999998,146.37225699424744L250.1018,146.23208260536194L250.1984666666667,146.19707083702087L250.34346666666667,146.13330698013306L250.8761,154.01513504981995L251.26276666666666,153.4856297969818L251.31109999999998,153.3761808872223L251.35943333333333,153.30560564994812L251.64943333333332,153.0921187400818L251.9877666666667,152.94937682151794L252.22943333333333,152.58487248420715L252.56776666666667,152.28447151184082L253.1961,151.68543076515198L253.48610000000002,151.53046655654907L253.58276666666666,151.43924498558044L253.7277666666667,151.332745552063L254.0661,151.09462308883667L254.3561,150.89161849021912L254.5011,150.81357407569885L254.59776666666664,150.7463939189911L254.64610000000002,150.71307969093323L255.0811,150.44573831558228L255.56443333333334,150.15494966506958L255.61276666666666,150.12611269950867L255.99943333333331,149.83933448791504L256.5794333333333,149.6064956188202L256.72443333333337,149.54338955879211L256.86943333333335,149.45121312141418L257.4977666666667,149.11669158935547L257.88443333333333,148.91409015655518L258.2711,148.74656414985657L258.31943333333334,148.71953082084656L258.4644333333333,148.64670634269714L258.5611,148.5892870426178L258.6094333333333,148.57526111602783L259.2387333333333,156.1916787624359L259.5287333333333,155.95086145401L259.62539999999996,155.77452945709229L260.3504,155.31069779396057L260.68873333333335,155.04819440841675L260.9787333333333,154.8043851852417L261.12373333333335,154.6186318397522L261.1720666666667,154.59087705612183L261.46206666666666,154.2902638912201L262.0904,153.7788586616516L262.1870666666667,153.70181155204773L262.23539999999997,153.6377718448639L262.2837333333334,153.613178730011L262.57373333333334,153.39007949829102L262.8154,153.23787379264832L263.44373333333334,152.80502223968506L264.21706666666665,152.25629234313965L264.55539999999996,152.04503345489502L264.79706666666664,151.90592002868652L264.8454,151.88531613349915L265.1354,151.74123740196228L265.5704,151.50129008293152L265.7154,151.43033289909363L265.76373333333333,151.41178727149963L265.8604,151.3435037136078L266.1504,151.22815585136414L266.19873333333334,151.2067244052887L266.2954,151.14531588554382L266.53706666666665,151.01645135879517L266.6820666666667,150.93494820594788L267.40706666666665,150.56100130081177L267.6013666666667,158.23990964889526L267.89136666666667,158.39979672431946L268.22970000000004,157.94186401367188L268.4230333333333,157.65430068969727L268.56803333333335,157.53381776809692L269.2930333333333,156.73743796348572L269.6797,156.43453311920166L269.8730333333333,156.31158876419067L269.9213666666667,156.30371642112732L270.79136666666665,155.5442156791687L270.9363666666667,155.3943440914154L270.9847,155.32707905769348L271.08136666666667,155.28190326690674L271.17803333333336,155.20438933372498L271.22636666666665,155.20589590072632L271.41970000000003,155.06763124465942L271.4680333333333,155.04221057891846L271.9997,154.62945365905762L272.28970000000004,154.46413445472717L272.4830333333333,154.3548128604889L273.5947,153.65243434906006L274.2230333333333,153.30849146842957L274.60970000000003,153.10482907295227L274.85136666666665,152.97127509117126L274.8997,152.95956206321716L274.9963666666667,152.91595649719238L275.0447,152.90602588653564L275.0930333333333,152.86592149734497L275.5280333333333,152.6600947380066L275.5763666666667,152.6505036354065L276.0113666666667,152.41208410263062" style="fill: none;" fill="none"></path></g></g></g></g></g></g><g transform="translate(40, 178)" clip-path="url(#clip_1)"><clipPath id="clip_1"><rect width="290" height="22"></rect></clipPath><g><g><line x1="0" y1="0" x2="0" y2="5" style="visibility: inherit;" fill="rgb(0, 0, 0)" stroke="rgb(204, 204, 204)" stroke-width="1px"></line><line x1="19.333333333333332" y1="0" x2="19.333333333333332" y2="5" style="visibility: inherit;" fill="rgb(0, 0, 0)" stroke="rgb(204, 204, 204)" stroke-width="1px"></line><line x1="38.666666666666664" y1="0" x2="38.666666666666664" y2="5" style="visibility: inherit;" fill="rgb(0, 0, 0)" stroke="rgb(204, 204, 204)" stroke-width="1px"></line><line x1="58" y1="0" x2="58" y2="5" style="visibility: inherit;" fill="rgb(0, 0, 0)" stroke="rgb(204, 204, 204)" stroke-width="1px"></line><line x1="77.33333333333333" y1="0" x2="77.33333333333333" y2="5" style="visibility: inherit;" fill="rgb(0, 0, 0)" stroke="rgb(204, 204, 204)" stroke-width="1px"></line><line x1="96.66666666666666" y1="0" x2="96.66666666666666" y2="5" style="visibility: inherit;" fill="rgb(0, 0, 0)" stroke="rgb(204, 204, 204)" stroke-width="1px"></line><line x1="116" y1="0" x2="116" y2="5" style="visibility: inherit;" fill="rgb(0, 0, 0)" stroke="rgb(204, 204, 204)" stroke-width="1px"></line><line x1="135.33333333333334" y1="0" x2="135.33333333333334" y2="5" style="visibility: inherit;" fill="rgb(0, 0, 0)" stroke="rgb(204, 204, 204)" stroke-width="1px"></line><line x1="154.66666666666666" y1="0" x2="154.66666666666666" y2="5" style="visibility: inherit;" fill="rgb(0, 0, 0)" stroke="rgb(204, 204, 204)" stroke-width="1px"></line><line x1="174" y1="0" x2="174" y2="5" style="visibility: inherit;" fill="rgb(0, 0, 0)" stroke="rgb(204, 204, 204)" stroke-width="1px"></line><line x1="193.33333333333331" y1="0" x2="193.33333333333331" y2="5" style="visibility: inherit;" fill="rgb(0, 0, 0)" stroke="rgb(204, 204, 204)" stroke-width="1px"></line><line x1="212.66666666666666" y1="0" x2="212.66666666666666" y2="5" style="visibility: inherit;" fill="rgb(0, 0, 0)" stroke="rgb(204, 204, 204)" stroke-width="1px"></line><line x1="232" y1="0" x2="232" y2="5" style="visibility: inherit;" fill="rgb(0, 0, 0)" stroke="rgb(204, 204, 204)" stroke-width="1px"></line><line x1="251.33333333333334" y1="0" x2="251.33333333333334" y2="5" style="visibility: inherit;" fill="rgb(0, 0, 0)" stroke="rgb(204, 204, 204)" stroke-width="1px"></line><line x1="270.6666666666667" y1="0" x2="270.6666666666667" y2="5" style="visibility: inherit;" fill="rgb(0, 0, 0)" stroke="rgb(204, 204, 204)" stroke-width="1px"></line><line x1="290" y1="0" x2="290" y2="5" style="visibility: inherit;" fill="rgb(0, 0, 0)" stroke="rgb(204, 204, 204)" stroke-width="1px"></line></g><g transform="translate(0, 8)"><text x="0" y="0" dx="0em" dy="0.95em" style="text-anchor: middle; visibility: hidden; font-family: &quot;Helvetica Neue&quot;, sans-serif; font-size: 12px; font-weight: 200;" fill="rgb(50, 49, 63)" stroke="none" stroke-width="1px">-20k</text><text x="19.333333333333332" y="0" dx="0em" dy="0.95em" style="text-anchor: middle; visibility: inherit; font-family: &quot;Helvetica Neue&quot;, sans-serif; font-size: 12px; font-weight: 200;" fill="rgb(50, 49, 63)" stroke="none" stroke-width="1px">0</text><text x="38.666666666666664" y="0" dx="0em" dy="0.95em" style="text-anchor: middle; visibility: hidden; font-family: &quot;Helvetica Neue&quot;, sans-serif; font-size: 12px; font-weight: 200;" fill="rgb(50, 49, 63)" stroke="none" stroke-width="1px">20k</text><text x="58" y="0" dx="0em" dy="0.95em" style="text-anchor: middle; visibility: inherit; font-family: &quot;Helvetica Neue&quot;, sans-serif; font-size: 12px; font-weight: 200;" fill="rgb(50, 49, 63)" stroke="none" stroke-width="1px">40k</text><text x="77.33333333333333" y="0" dx="0em" dy="0.95em" style="text-anchor: middle; visibility: hidden; font-family: &quot;Helvetica Neue&quot;, sans-serif; font-size: 12px; font-weight: 200;" fill="rgb(50, 49, 63)" stroke="none" stroke-width="1px">60k</text><text x="96.66666666666666" y="0" dx="0em" dy="0.95em" style="text-anchor: middle; visibility: inherit; font-family: &quot;Helvetica Neue&quot;, sans-serif; font-size: 12px; font-weight: 200;" fill="rgb(50, 49, 63)" stroke="none" stroke-width="1px">80k</text><text x="116" y="0" dx="0em" dy="0.95em" style="text-anchor: middle; visibility: hidden; font-family: &quot;Helvetica Neue&quot;, sans-serif; font-size: 12px; font-weight: 200;" fill="rgb(50, 49, 63)" stroke="none" stroke-width="1px">100k</text><text x="135.33333333333334" y="0" dx="0em" dy="0.95em" style="text-anchor: middle; visibility: inherit; font-family: &quot;Helvetica Neue&quot;, sans-serif; font-size: 12px; font-weight: 200;" fill="rgb(50, 49, 63)" stroke="none" stroke-width="1px">120k</text><text x="154.66666666666666" y="0" dx="0em" dy="0.95em" style="text-anchor: middle; visibility: hidden; font-family: &quot;Helvetica Neue&quot;, sans-serif; font-size: 12px; font-weight: 200;" fill="rgb(50, 49, 63)" stroke="none" stroke-width="1px">140k</text><text x="174" y="0" dx="0em" dy="0.95em" style="text-anchor: middle; visibility: inherit; font-family: &quot;Helvetica Neue&quot;, sans-serif; font-size: 12px; font-weight: 200;" fill="rgb(50, 49, 63)" stroke="none" stroke-width="1px">160k</text><text x="193.33333333333331" y="0" dx="0em" dy="0.95em" style="text-anchor: middle; visibility: hidden; font-family: &quot;Helvetica Neue&quot;, sans-serif; font-size: 12px; font-weight: 200;" fill="rgb(50, 49, 63)" stroke="none" stroke-width="1px">180k</text><text x="212.66666666666666" y="0" dx="0em" dy="0.95em" style="text-anchor: middle; visibility: inherit; font-family: &quot;Helvetica Neue&quot;, sans-serif; font-size: 12px; font-weight: 200;" fill="rgb(50, 49, 63)" stroke="none" stroke-width="1px">200k</text><text x="232" y="0" dx="0em" dy="0.95em" style="text-anchor: middle; visibility: hidden; font-family: &quot;Helvetica Neue&quot;, sans-serif; font-size: 12px; font-weight: 200;" fill="rgb(50, 49, 63)" stroke="none" stroke-width="1px">220k</text><text x="251.33333333333334" y="0" dx="0em" dy="0.95em" style="text-anchor: middle; visibility: inherit; font-family: &quot;Helvetica Neue&quot;, sans-serif; font-size: 12px; font-weight: 200;" fill="rgb(50, 49, 63)" stroke="none" stroke-width="1px">240k</text><text x="270.6666666666667" y="0" dx="0em" dy="0.95em" style="text-anchor: middle; visibility: hidden; font-family: &quot;Helvetica Neue&quot;, sans-serif; font-size: 12px; font-weight: 200;" fill="rgb(50, 49, 63)" stroke="none" stroke-width="1px">260k</text><text x="290" y="0" dx="0em" dy="0.95em" style="text-anchor: middle; visibility: hidden; font-family: &quot;Helvetica Neue&quot;, sans-serif; font-size: 12px; font-weight: 200;" fill="rgb(50, 49, 63)" stroke="none" stroke-width="1px">280k</text></g><line x1="0" y1="0" x2="290" y2="0" fill="rgb(0, 0, 0)" stroke="rgb(204, 204, 204)" stroke-width="1px"></line></g></g></g></g></svg>