<svg viewBox="0 0 330 200" xmlns="http://www.w3.org/2000/svg"><g><g><g><g><g><line x1="30" y1="178" x2="25" y2="178" style="visibility: inherit;" fill="rgb(0, 0, 0)" stroke="rgb(204, 204, 204)" stroke-width="1px"></line><line x1="30" y1="161.8181818181818" x2="25" y2="161.8181818181818" style="visibility: inherit;" fill="rgb(0, 0, 0)" stroke="rgb(204, 204, 204)" stroke-width="1px"></line><line x1="30" y1="145.63636363636363" x2="25" y2="145.63636363636363" style="visibility: inherit;" fill="rgb(0, 0, 0)" stroke="rgb(204, 204, 204)" stroke-width="1px"></line><line x1="30" y1="129.45454545454547" x2="25" y2="129.45454545454547" style="visibility: inherit;" fill="rgb(0, 0, 0)" stroke="rgb(204, 204, 204)" stroke-width="1px"></line><line x1="30" y1="113.27272727272727" x2="25" y2="113.27272727272727" style="visibility: inherit;" fill="rgb(0, 0, 0)" stroke="rgb(204, 204, 204)" stroke-width="1px"></line><line x1="30" y1="97.0909090909091" x2="25" y2="97.0909090909091" style="visibility: inherit;" fill="rgb(0, 0, 0)" stroke="rgb(204, 204, 204)" stroke-width="1px"></line><line x1="30" y1="80.90909090909092" x2="25" y2="80.90909090909092" style="visibility: inherit;" fill="rgb(0, 0, 0)" stroke="rgb(204, 204, 204)" stroke-width="1px"></line><line x1="30" y1="64.72727272727273" x2="25" y2="64.72727272727273" style="visibility: inherit;" fill="rgb(0, 0, 0)" stroke="rgb(204, 204, 204)" stroke-width="1px"></line><line x1="30" y1="48.54545454545453" x2="25" y2="48.54545454545453" style="visibility: inherit;" fill="rgb(0, 0, 0)" stroke="rgb(204, 204, 204)" stroke-width="1px"></line><line x1="30" y1="32.363636363636346" x2="25" y2="32.363636363636346" style="visibility: inherit;" fill="rgb(0, 0, 0)" stroke="rgb(204, 204, 204)" stroke-width="1px"></line><line x1="30" y1="16.181818181818187" x2="25" y2="16.181818181818187" style="visibility: inherit;" fill="rgb(0, 0, 0)" stroke="rgb(204, 204, 204)" stroke-width="1px"></line><line x1="30" y1="0" x2="25" y2="0" style="visibility: inherit;" fill="rgb(0, 0, 0)" stroke="rgb(204, 204, 204)" stroke-width="1px"></line></g><g transform="translate(20, 0)"><text x="0" y="178" dx="0em" dy="0.3em" style="text-anchor: end; visibility: hidden; font-family: &quot;Helvetica Neue&quot;, sans-serif; font-size: 12px; font-weight: 200;" fill="rgb(50, 49, 63)" stroke="none" stroke-width="1px">66</text><text x="0" y="161.8181818181818" dx="0em" dy="0.3em" style="text-anchor: end; visibility: inherit; font-family: &quot;Helvetica Neue&quot;, sans-serif; font-size: 12px; font-weight: 200;" fill="rgb(50, 49, 63)" stroke="none" stroke-width="1px">68</text><text x="0" y="145.63636363636363" dx="0em" dy="0.3em" style="text-anchor: end; visibility: hidden; font-family: &quot;Helvetica Neue&quot;, sans-serif; font-size: 12px; font-weight: 200;" fill="rgb(50, 49, 63)" stroke="none" stroke-width="1px">70</text><text x="0" y="129.45454545454547" dx="0em" dy="0.3em" style="text-anchor: end; visibility: inherit; font-family: &quot;Helvetica Neue&quot;, sans-serif; font-size: 12px; font-weight: 200;" fill="rgb(50, 49, 63)" stroke="none" stroke-width="1px">72</text><text x="0" y="113.27272727272727" dx="0em" dy="0.3em" style="text-anchor: end; visibility: hidden; font-family: &quot;Helvetica Neue&quot;, sans-serif; font-size: 12px; font-weight: 200;" fill="rgb(50, 49, 63)" stroke="none" stroke-width="1px">74</text><text x="0" y="97.0909090909091" dx="0em" dy="0.3em" style="text-anchor: end; visibility: inherit; font-family: &quot;Helvetica Neue&quot;, sans-serif; font-size: 12px; font-weight: 200;" fill="rgb(50, 49, 63)" stroke="none" stroke-width="1px">76</text><text x="0" y="80.90909090909092" dx="0em" dy="0.3em" style="text-anchor: end; visibility: hidden; font-family: &quot;Helvetica Neue&quot;, sans-serif; font-size: 12px; font-weight: 200;" fill="rgb(50, 49, 63)" stroke="none" stroke-width="1px">78</text><text x="0" y="64.72727272727273" dx="0em" dy="0.3em" style="text-anchor: end; visibility: inherit; font-family: &quot;Helvetica Neue&quot;, sans-serif; font-size: 12px; font-weight: 200;" fill="rgb(50, 49, 63)" stroke="none" stroke-width="1px">80</text><text x="0" y="48.54545454545453" dx="0em" dy="0.3em" style="text-anchor: end; visibility: hidden; font-family: &quot;Helvetica Neue&quot;, sans-serif; font-size: 12px; font-weight: 200;" fill="rgb(50, 49, 63)" stroke="none" stroke-width="1px">82</text><text x="0" y="32.363636363636346" dx="0em" dy="0.3em" style="text-anchor: end; visibility: inherit; font-family: &quot;Helvetica Neue&quot;, sans-serif; font-size: 12px; font-weight: 200;" fill="rgb(50, 49, 63)" stroke="none" stroke-width="1px">84</text><text x="0" y="16.181818181818187" dx="0em" dy="0.3em" style="text-anchor: end; visibility: hidden; font-family: &quot;Helvetica Neue&quot;, sans-serif; font-size: 12px; font-weight: 200;" fill="rgb(50, 49, 63)" stroke="none" stroke-width="1px">86</text><text x="0" y="0" dx="0em" dy="0.3em" style="text-anchor: end; visibility: hidden; font-family: &quot;Helvetica Neue&quot;, sans-serif; font-size: 12px; font-weight: 200;" fill="rgb(50, 49, 63)" stroke="none" stroke-width="1px">88</text></g><line x1="30" y1="0" x2="30" y2="178" fill="rgb(0, 0, 0)" stroke="rgb(204, 204, 204)" stroke-width="1px"></line></g></g><g transform="translate(30, 0)" clip-path="url(#clip_0)"><clipPath id="clip_0"><rect width="300" height="178"></rect></clipPath><g><g><g><line x1="0" y1="0" x2="0" y2="178" fill="rgb(0, 0, 0)" stroke="rgb(60, 60, 60)" stroke-width="1px" opacity="0.25"></line><line x1="25" y1="0" x2="25" y2="178" fill="rgb(0, 0, 0)" stroke="rgb(60, 60, 60)" stroke-width="1px" opacity="0.25"></line><line x1="50" y1="0" x2="50" y2="178" fill="rgb(0, 0, 0)" stroke="rgb(60, 60, 60)" stroke-width="1px" opacity="0.25"></line><line x1="75" y1="0" x2="75" y2="178" fill="rgb(0, 0, 0)" stroke="rgb(60, 60, 60)" stroke-width="1px" opacity="0.25"></line><line x1="100" y1="0" x2="100" y2="178" fill="rgb(0, 0, 0)" stroke="rgb(60, 60, 60)" stroke-width="1px" opacity="0.25"></line><line x1="125" y1="0" x2="125" y2="178" fill="rgb(0, 0, 0)" stroke="rgb(60, 60, 60)" stroke-width="1px" opacity="0.25"></line><line x1="150" y1="0" x2="150" y2="178" fill="rgb(0, 0, 0)" stroke="rgb(60, 60, 60)" stroke-width="1px" opacity="0.25"></line><line x1="175" y1="0" x2="175" y2="178" fill="rgb(0, 0, 0)" stroke="rgb(60, 60, 60)" stroke-width="1px" opacity="0.25"></line><line x1="200" y1="0" x2="200" y2="178" fill="rgb(0, 0, 0)" stroke="rgb(60, 60, 60)" stroke-width="1px" opacity="0.25"></line><line x1="225" y1="0" x2="225" y2="178" fill="rgb(0, 0, 0)" stroke="rgb(60, 60, 60)" stroke-width="1px" opacity="0.25"></line><line x1="250" y1="0" x2="250" y2="178" fill="rgb(0, 0, 0)" stroke="rgb(60, 60, 60)" stroke-width="1px" opacity="0.25"></line><line x1="275" y1="0" x2="275" y2="178" fill="rgb(0, 0, 0)" stroke="rgb(60, 60, 60)" stroke-width="1px" opacity="0.25"></line><line x1="300" y1="0" x2="300" y2="178" fill="rgb(0, 0, 0)" stroke="rgb(60, 60, 60)" stroke-width="1px" opacity="0.25"></line></g><g><line x1="0" y1="178" x2="300" y2="178" fill="rgb(0, 0, 0)" stroke="rgb(60, 60, 60)" stroke-width="1px" opacity="0.25"></line><line x1="0" y1="161.8181818181818" x2="300" y2="161.8181818181818" fill="rgb(0, 0, 0)" stroke="rgb(60, 60, 60)" stroke-width="1px" opacity="0.25"></line><line x1="0" y1="145.63636363636363" x2="300" y2="145.63636363636363" fill="rgb(0, 0, 0)" stroke="rgb(60, 60, 60)" stroke-width="1px" opacity="0.25"></line><line x1="0" y1="129.45454545454547" x2="300" y2="129.45454545454547" fill="rgb(0, 0, 0)" stroke="rgb(60, 60, 60)" stroke-width="1px" opacity="0.25"></line><line x1="0" y1="113.27272727272727" x2="300" y2="113.27272727272727" fill="rgb(0, 0, 0)" stroke="rgb(60, 60, 60)" stroke-width="1px" opacity="0.25"></line><line x1="0" y1="97.0909090909091" x2="300" y2="97.0909090909091" fill="rgb(0, 0, 0)" stroke="rgb(60, 60, 60)" stroke-width="1px" opacity="0.25"></line><line x1="0" y1="80.90909090909092" x2="300" y2="80.90909090909092" fill="rgb(0, 0, 0)" stroke="rgb(60, 60, 60)" stroke-width="1px" opacity="0.25"></line><line x1="0" y1="64.72727272727273" x2="300" y2="64.72727272727273" fill="rgb(0, 0, 0)" stroke="rgb(60, 60, 60)" stroke-width="1px" opacity="0.25"></line><line x1="0" y1="48.54545454545453" x2="300" y2="48.54545454545453" fill="rgb(0, 0, 0)" stroke="rgb(60, 60, 60)" stroke-width="1px" opacity="0.25"></line><line x1="0" y1="32.363636363636346" x2="300" y2="32.363636363636346" fill="rgb(0, 0, 0)" stroke="rgb(60, 60, 60)" stroke-width="1px" opacity="0.25"></line><line x1="0" y1="16.181818181818187" x2="300" y2="16.181818181818187" fill="rgb(0, 0, 0)" stroke="rgb(60, 60, 60)" stroke-width="1px" opacity="0.25"></line><line x1="0" y1="0" x2="300" y2="0" fill="rgb(0, 0, 0)" stroke="rgb(60, 60, 60)" stroke-width="1px" opacity="0.25"></line></g></g></g><g><g><line x1="0" y1="712" x2="300" y2="712" fill="rgb(0, 0, 0)" stroke="rgb(153, 153, 153)" stroke-width="1.5px"></line></g></g><g><g><line x1="25" y1="0" x2="25" y2="178" fill="rgb(0, 0, 0)" stroke="rgb(153, 153, 153)" stroke-width="1.5px"></line></g></g><g><g><g><g><g><path stroke="rgb(255, 112, 67)" stroke-width="2px" d="M35.5,207.72346009329695L36.06375,170.09495086146302L36.37625,156.77128803442884L36.50125,152.5794411921558L36.56375,151.1099415190237L36.81375,150.0991933932071L37.31375,149.1308356352606L37.81375,148.389690004987L37.87625,148.15071042112953L37.93875,148.05888063177662L38.18875,147.77449076368515L38.87625,147.2297638467592L39.25125,146.90270906125443L39.56375,146.63313488412564L39.75125,146.41978041441203L40.501250000000006,145.80346236695502L40.876250000000006,145.3459975390993L41.18875,144.9171330158358L41.37625,144.60543560621113L41.626250000000006,144.32331422567552L41.87625,144.0622941167794L42.001250000000006,143.88533938859834L43.18875,142.83401286338793L43.50125,142.25291590069793L43.56375,142.0426359951295L43.87625,141.7863595934829L44.126250000000006,141.54138932058305L44.18875,141.4231325582266L44.31375,141.30503778715467L44.81375,140.9200395149683L44.876250000000006,140.7670768624806L45.251250000000006,140.4718656956849L45.31375,140.35582071167954L45.37625,140.27300077726898L45.563750000000006,140.11528368932423L46.12625,139.7127381968408L46.62625,139.28319505801807L47.565,128.5879895371365L47.815,124.9405427296158L48.19,123.71736970032126L48.440000000000005,122.91749563632598L48.565,122.73716337762104L49.315,122.69183535361839L49.3775,122.63736017639806L50.3775,122.47228840292829L51.19,122.28479696954241L51.2525,122.2135556291706L51.377500000000005,122.17092384983958L51.752500000000005,122.01821995946183L52.315,121.73600624607272L52.440000000000005,121.61353328029381L52.5025,121.52048860902156L52.69,121.42382791260704L53.065,121.28511921839771L53.6275,121.03035110642843L53.815000000000005,120.88837092641094L53.877500000000005,120.82646195041977L54.44,120.615215349042L54.5025,120.55296483165245L55.44,120.25173872595171L55.565,120.12948182841228L55.690000000000005,120.06955771658122L56.565,119.86473994015195L56.8775,119.69799155380085L57.0025,119.61249153241332L57.19,119.50405094316685L57.69,119.3309562580699L58.065,119.15151479934036L58.190000000000005,119.06570687565969L58.31625,112.22646373006744L58.69125,109.31761812958496L59.00375,108.41458773768143L59.628750000000004,108.58420575578602L59.75375,108.68089388449506L60.003750000000004,108.81010458280686L60.378750000000004,108.71634236560918L60.628750000000004,108.65373202764265L60.691250000000004,108.69699865325907L61.003750000000004,108.6467190306812L61.128750000000004,108.65116611647532L61.19125,108.65733977523915L61.31625,108.67552529682965L61.441250000000004,108.72246266495446L61.50375,108.69661772793094L61.816250000000004,108.61717866388268L61.87875,108.60073587455547L62.441250000000004,108.65513052743682L62.816250000000004,108.70597380622469L62.941250000000004,108.69577603136048L63.253750000000004,108.55816039674389L63.566250000000004,108.42462210805908L63.69125,108.34100482422349L64.44125,108.14973353178416L64.87875,108.00740105540702L64.94125,107.9586086860957L65.06625,107.91476093668373L65.12875,107.87831635917448L65.19125,107.87516080685573L65.25375,107.8894241020976L65.37875,107.89707347974152L65.56625,107.85862115336408L65.81625000000001,107.8105729071776L66.12875,107.75981872551354L66.31625,107.71996270472347L66.56625,107.67866622951898L66.75375,107.64376481636553L66.94125,107.57016441250556L67.19125,107.5131273072611L67.25375000000001,107.49195442475562L67.50375,107.45341102336064L67.81625,107.3882242486142L67.87875,107.36741512281762L68.31625,107.2946288059771L68.50375,107.26242248301301L68.75375,107.22437153971481L68.94125,107.2129130466091L69.19125,107.16302462365515L69.38000000000001,100.16016129889515L69.63,97.86183206997747L69.8175,97.29587102380312L69.88,97.20718809824535L69.9425,97.43180683674453L70.38,97.74453949864419L70.755,98.14052764049798L70.88000000000001,98.32928126134327L70.9425,98.44169160773983L71.19250000000001,98.49974200713552L71.4425,98.82805391373073L71.63,99.01530106458891L71.6925,99.06300602705157L71.755,99.04884204914892L72.005,99.06248184392615L72.5675,98.99912279081549L72.8175,99.01018931582692L72.88,99.02362044054448L72.9425,98.99826689887597L73.0675,99.00418560277718L73.13,99.01676374302242L73.505,99.04508053115431L73.75500000000001,99.07747076190752L73.8175,99.08848413462253L73.9425,99.08128808817625L74.06750000000001,99.07947495517266L74.255,99.04907282490862L74.3175,99.07503880026462L74.38,99.07012481867942L74.44250000000001,99.06350862036423L74.63,99.08403623146184L74.88,99.06833019594336L75.1925,99.08811852122977L75.25500000000001,99.09163525230291L75.3175,99.10656071895706L75.69250000000001,99.11008773639472L76.0675,99.14078798140766L76.31750000000001,99.13003498118105L76.505,99.10917935366281L76.75500000000001,99.07716943609267L77.005,99.05062809523214L77.13,99.01881370877653L77.4425,98.95685552176828L78.9425,98.72489651137785L79.0675,98.6601915514025L79.13,98.62811949933416L79.38,98.62601644394981L79.50500000000001,98.59047175336428L79.755,98.57224657583625L79.88,98.56872347781125L80.31875000000001,109.02697766956403L80.69375,96.96451773657151L80.94375000000001,92.94059849613124L81.38125000000001,91.43911862188186L81.44375,90.8835876567661L81.50625000000001,90.76070021504303L81.56875,90.83570497362608L81.88125,90.84351496165903L82.00625000000001,90.86158644040209L82.19375,90.96414422546674L82.25625,90.96081877922562L82.38125,90.98674104780805L82.88125000000001,90.93562233986621L82.94375,90.91332989875941L83.13125,90.91096317805739L83.56875,91.07911829634598L83.75625,91.16599095987324L84.31875,91.22899740836773L84.44375,91.2491956464051L84.56875000000001,91.25555758863035L84.75625,91.32833076202948L84.81875,91.35884794742543L85.06875,91.43251580667976L85.38125,91.56065378985552L85.44375000000001,91.60566312248578L85.69375,91.66008590241074L85.75625000000001,91.68518438999703L85.81875,91.68204103754695L85.88125,91.67465972448322L86.13125,91.74184077734144L86.19375000000001,91.76489017099101L86.38125000000001,91.7773358839722L86.44375,91.78936594019615L86.94375,91.75715377065086L87.19375,91.80189165620861L87.31875,91.78847953965376L87.44375000000001,91.77585709154373L87.50625,91.76567525989839L87.94375,91.74658975725751L88.00625000000001,91.75188268612179L88.06875,91.77045214048671L88.25625,91.78876996110466L88.75625,91.8083950153201L88.88125,91.78723299878108L89.13125,91.7683534600925L89.19375,91.74341788661616L89.50625,91.72612851817324L89.94375,91.66170063819344L90.63125000000001,91.63524260501002L90.75625000000001,91.62017552586565L91.13125,91.57343911849746L91.19375000000001,91.55656632861123L91.31875,91.56649840200143L91.3825,99.29989746038648L91.6325,87.96353276184202L91.88250000000001,85.15555256814329L92.0075,84.54498078398173L92.32000000000001,84.3731302992038L92.38250000000001,84.46771176709606L92.445,84.38676461322545L92.94500000000001,84.50356149678281L93.32,84.71010151344358L93.57000000000001,85.09186158917603L93.6325,85.28356287960702L93.69500000000001,85.39046242966698L94.2575,85.53086005624834L94.3825,85.5468372238614L94.57,85.54800072437608L94.94500000000001,85.52510273196135L95.445,85.55055450122906L95.57,85.58886921458218L96.82,85.74870395784498L96.88250000000001,85.80339515896667L97.1325,85.79690115766432L97.19500000000001,85.78242202354672L97.2575,85.76118312783822L98.38250000000001,85.77028068076093L98.69500000000001,85.8470720859755L99.13250000000001,85.87179470207549L99.195,85.87981642853372L99.57,85.92759356858585L99.695,85.98578497864573L100.0075,86.02190917190515L100.1325,86.01719078801509L100.2575,86.01789256854674L100.50750000000001,85.98517699408586L101.6325,86.0180971267681L101.69500000000001,86.01176937296027L101.75750000000001,86.01492663042501L101.88250000000001,86.03700355453499L102.3825,86.04258958897684L102.50874999999999,81.84177911834789L102.88375,78.99468766616842L103.00875,78.1685603858768L103.13375,77.97408669541954L103.19625,77.95709666958113L103.38374999999999,78.04157423291899L103.50875,78.18682557465199L103.69624999999999,78.48983451543545L104.19625,78.78239881044124L104.63374999999999,79.09270019788646L105.00875,79.34735323896474L105.25875,79.41865035756489L105.32125,79.45667538792021L105.38374999999999,79.49344723529482L105.44625,79.52945423672837L105.82124999999999,79.75660938947115L106.44624999999999,79.99392354060738L106.57124999999999,80.11835264922955L106.75875,80.13221828866537L106.82125,80.11105685234445L107.00874999999999,80.18698048288287L107.38375,80.32430759035493L107.50874999999999,80.41666650029546L107.69625,80.45167668293227L107.88375,80.46917977656388L108.07124999999999,80.4494120473158L108.13375,80.42537668981176L109.25874999999999,80.66627857035351L109.94625,80.79139510675066L110.19624999999999,80.85044870558697L111.07124999999999,80.93285032933855L111.13374999999999,80.96141651681474L111.32125,80.97927654806207L111.38374999999999,80.98688148348384L111.50875,80.97503325608035L111.57124999999999,80.96784913809012L112.82125,81.00138545875663L112.88375,81.01066857286321L112.94624999999999,81.02438566651897L113.25875,81.0752109303357L113.44625,81.08963751727102L113.635,75.71318255101318L113.75999999999999,74.80081167670312L114.01,74.75149054835458L114.26,74.86800975328481L114.50999999999999,74.79394639133965L115.51,75.02692632962228L116.0725,75.19568505720086L116.135,75.28904748049477L116.8225,75.51664373467136L117.3225,75.68378735701805L117.38499999999999,75.7206649380181L117.5725,75.715135527659L117.69749999999999,75.7776437272564L117.76,75.80853822981581L118.26,75.87328836991246L118.3225,75.91107771136882L118.75999999999999,75.98735931860418L118.88499999999999,76.0506452595151L119.385,76.1525944650838L119.6975,76.21597570502588L119.76,76.25266301457508L119.94749999999999,76.27978658081962L120.38499999999999,76.36038701572761L121.135,76.44566625064779L121.44749999999999,76.49635509869398L121.51,76.53161124707091L121.63499999999999,76.5675956399682L121.6975,76.59347128842603L122.07249999999999,76.61644394390089L122.50999999999999,76.64092225787735L122.5725,76.64636450695302L123.13499999999999,76.69924437960728L123.385,76.72642939187406L123.51,76.74629483707123L123.75999999999999,76.76240884796084L124.32249999999999,76.79969384856888L124.69875,70.93032820129032L124.76125,69.74719455191763L125.07375,69.21427198806734L125.57375,69.2546741079615L125.69875,69.30170851789984L126.13625,69.81774755181881L126.19875,70.03724480609519L126.44875,70.13783491588312L126.76125,70.2611297494454L126.94875,70.27491436706113L127.07375,70.35328473214877L127.26125,70.59146369945199L127.44874999999999,70.64269505521462L127.69875,70.78203428560737L128.19875,71.05068916529873L128.69875000000002,71.30429893487018L128.82375,71.36668425887464L128.94875,71.46875217041807L129.13625000000002,71.54940985855619L129.19875,71.57896521941885L129.57375,71.64940624340473L129.63625,71.71936598201918L130.13625,71.8859719955335L130.32375,71.96347864367075L130.38625,72.00219985974717L130.44875,72.04790900633061L130.51125000000002,72.05941803437433L130.63625,72.06611150150994L130.82375000000002,72.11184817934598L131.26125000000002,72.2039955437807L131.32375,72.26828193173328L131.76125,72.37333992897393L131.82375,72.44927732770232L131.88625000000002,72.49755251593766L132.44875,72.61733812583063L132.69875,72.68045297195117L132.82375,72.73443083010626L132.88625,72.75732175557928L133.01125,72.75818282705552L133.32375,72.78873144002449L133.38625000000002,72.80117999275402L133.51125,72.80750716555085L133.57375,72.8274239358868L133.63625,72.85586822746347L133.94875,72.85696937493296L134.82375,72.9136457108286L135.38625,72.95130304718856L135.7,67.98656646513761L136.1375,66.76854823100088L136.20000000000002,66.500192681969L136.7625,66.82357097431287L137.2,66.87214592164408L137.7625,67.04305260661577L137.95,67.15136196562291L138.3875,67.33954082235293L138.5125,67.40429082170145L138.76250000000002,67.42570348685585L139.38750000000002,67.55860329681134L139.45,67.61968940690116L139.6375,67.66977467540848L139.95000000000002,67.79606630543236L140.2,67.8933677043517L141.01250000000002,68.01342899860582L141.1375,68.09339207515887L141.20000000000002,68.11820199033441L141.575,68.21517632586011L141.63750000000002,68.27732436548713L141.7,68.31459233750039L141.825,68.34889014132476L141.95000000000002,68.34219790676624L142.70000000000002,68.53424686870073L143.825,68.81798009587746L144.20000000000002,68.92085942182968L144.575,68.95085901728928L144.63750000000002,68.9658218919766L145.0125,69.05785445000602L145.26250000000002,69.11610018987137L145.3875,69.13789492346085L145.5125,69.16772359622334L145.88750000000002,69.2204440458636L146.075,69.27221099751708L146.2,69.2964263163894L146.3875,69.33004908299398L146.575,69.36027182717096L146.70125000000002,76.27267325069921L147.26375,66.87994116588364L147.38875,64.15091832943492L148.13875,63.71626299217216L148.20125000000002,63.594897305299966L148.26375,63.63851273462538L149.13875000000002,63.75629547521724L149.38875,63.901643253493845L149.63875,64.0779890642495L149.88875000000002,64.20093640599806L149.95125,64.25341946050683L150.13875000000002,64.35744264445977L150.26375,64.45005117490759L150.38875000000002,64.53461182685967L150.88875,64.69432027402108L151.01375000000002,64.76414033713351L151.20125000000002,64.85162993516882L151.38875000000002,64.95401303949954L151.57625,65.01445653081296L151.70125,65.08500344927853L151.88875,65.12474787482707L152.07625000000002,65.16069602715429L153.07625000000002,65.31727140524771L153.51375000000002,65.48501629373347L153.82625,65.5965252849596L153.88875,65.61723099801897L153.95125000000002,65.62236245902928L154.07625,65.65134032118272L154.13875000000002,65.66647198715738L154.26375,65.70194993022041L154.38875000000002,65.75385897420554L154.63875000000002,65.81942579195989L154.88875,65.83736743263421L155.20125000000002,65.86837352380213L155.32625,65.91077430023815L155.76375,65.94751935783158L155.88875000000002,65.99699987861642L155.95125,66.00665882089591L156.13875000000002,66.03803197022118L156.26375,66.06170325339768L156.51375000000002,66.08133557207759L156.70125000000002,66.09703396408166L156.82625,66.11578676948027L156.95125000000002,66.16185727995631L157.01375,66.1805179661247L157.63875000000002,66.22958554897279L157.70125,66.25726885871711L157.89,62.59081272104741L158.0775,60.96755816124053L158.265,60.77384885262471L158.3275,60.9427188009623L158.515,60.65556309623244L158.57750000000001,60.48416282535412L158.7025,60.508965389243386L159.01500000000001,60.404448747077595L159.07750000000001,60.31268601184084L159.515,60.39711460260243L159.5775,60.42961605913656L159.8275,60.5139903669464L159.9525,60.50823458566988L160.07750000000001,60.49345839616451L160.32750000000001,60.56006297050959L160.95250000000001,60.614871696550665L161.0775,60.711598710447774L161.20250000000001,60.74770327369009L161.265,60.742114798468876L161.515,60.8528277683982L161.7025,60.994499051289154L162.20250000000001,61.290557398603156L162.45250000000001,61.369695836746274L162.64000000000001,61.473246452994786L163.32750000000001,61.66764587748226L163.5775,61.81022543161302L163.70250000000001,61.86501171018347L163.89000000000001,61.98152222310476L164.015,62.020148236866675L164.0775,62.030353317273565L164.2025,62.065606378038964L164.32750000000001,62.12073192617359L164.39000000000001,62.1216275285136L164.515,62.14423583934246L164.64,62.14583311863515L164.7025,62.16765809987497L164.95250000000001,62.24597759742082L165.14,62.32521449671114L165.3275,62.365967142204056L165.64000000000001,62.42978581471378L166.39,62.576055578620455L166.64,62.67213432828261L166.8275,62.75315577367131L167.4525,62.89149370420283L167.8275,62.99227936292549L167.89,63.031978076011896L168.01500000000001,63.060912475759864L168.20250000000001,63.10891400151705L168.39000000000001,63.139907143903386L168.45250000000001,63.16061255732231L168.515,63.17805881158593L169.07874999999999,57.25840796108055L169.14124999999999,55.7834711659565L169.20375,55.54731843275033L169.32874999999999,55.82500541086205L170.07875,55.993089752475655L170.14124999999999,56.22603458620975L170.20374999999999,56.27625743341355L170.26625,56.28652796466547L170.76624999999999,56.67534583224854L171.32875,56.84855323475978L172.39125,57.59650079875276L173.26625,58.0965223998265L173.45375,58.29950448273215L173.51625,58.34903484701694L173.57874999999999,58.4021349092276L173.70375,58.4765282152444L174.20374999999999,58.6588100575909L174.32875,58.75653188612934L174.45374999999999,58.8446574029749L174.57875,58.88090375442853L175.20375,59.10618625694386L175.70374999999999,59.25154921703799L175.76625,59.316071801355164L176.07874999999999,59.3844288485342L176.45375,59.479905514467916L176.95374999999999,59.600802112547896L177.32875,59.69812698630345L177.39124999999999,59.73553437052712L177.51625,59.76896658557227L177.64124999999999,59.80328033544619L177.95375,59.862574732292316L179.14124999999999,60.08781481970104L179.26625,60.17980056163297L179.51624999999999,60.23677916329645L179.57874999999999,60.25927400833294L180.14249999999998,54.77073271131124L180.2675,53.02759571227479L180.455,52.81352052387426L180.51749999999998,52.91500876336342L180.57999999999998,52.93642432090364L181.20499999999998,53.58642046033361L181.2675,53.806221908918644L181.455,53.87034751860955L181.57999999999998,54.110734576738835L181.82999999999998,54.33935773541519L181.955,54.40768542232023L182.1425,54.598518006845296L182.26749999999998,54.75195350108589L182.3925,54.7962125345898L182.5175,54.948929289940125L183.07999999999998,55.20128867245792L183.32999999999998,55.36177473539331L183.58,55.38982785019452L183.70499999999998,55.39033633335204L183.8925,55.43875457820613L184.08,55.56553993380899L184.455,55.67111295226634L184.5175,55.71985285374194L184.76749999999998,55.83856799435067L184.955,55.902096271662785L185.1425,55.94008078579577L185.26749999999998,55.9596428520163L185.82999999999998,56.17201261767882L186.0175,56.25974837204012L186.07999999999998,56.33040267767204L186.1425,56.404531361828816L186.205,56.40715257427581L186.3925,56.454735493962474L186.6425,56.50206610883777L187.0175,56.59922871659583L187.08,56.64773563102554L187.2675,56.714226265146664L187.76749999999998,56.830315964149804L188.08,56.96474219192169L188.2675,57.01889729746914L188.45499999999998,57.055495793910495L188.5175,57.071919817496735L188.64249999999998,57.11698922261499L188.82999999999998,57.164300355096884L188.89249999999998,57.17901221623701L189.0175,57.22460501541269L189.3925,57.29773997519386L189.58,57.344785540698226L189.7675,57.39199815943519L189.83,57.42495834564663L190.08,57.476976264902234L191.20625,52.64021521056981L191.45625,51.64319558623116L191.58124999999998,51.776493332740856L191.89375,51.82689629472199L192.20624999999998,51.347693452847636L192.76875,51.52221831694894L193.01874999999998,51.67849610588023L193.26874999999998,51.99276364222223L193.45624999999998,52.21356312365032L194.39375,52.34418604136533L195.08125,52.54748493838619L195.14375,52.633147583899586L195.33125,52.70715528757671L195.70625,52.88461154654472L196.14375,53.130954433978474L196.20625,53.21946231951793L196.26874999999998,53.26792221414374L196.33125,53.28721329532449L196.39375,53.29650063909905L196.45624999999998,53.33402777573623L196.95625,53.56319453322698L198.39374999999998,54.0133170469355L198.45625,54.14424883999959L198.51875,54.197787716297725L198.95625,54.34857852180964L199.64374999999998,54.531223933296346L199.76875,54.61626463815212L200.51874999999998,54.75239474733611L200.58125,54.81609193161387L200.76874999999998,54.862120989351965L200.89375,54.887942119004705L200.95624999999998,54.89689834115691L201.08125,54.91777666676471L202.20749999999998,50.223254822317244L202.52,48.059066914668364L202.7075,47.888621841090924L202.895,47.974939698967034L203.45749999999998,48.33683692067646L203.52,48.42829488113466L203.89499999999998,48.844104794573894L204.02,49.08966325377969L204.08249999999998,49.21172612179711L204.4575,49.45246957160214L204.645,49.54405073864601L204.70749999999998,49.634655068673084L205.02,49.78489877890277L205.14499999999998,49.8845462688582L205.27,49.928915904805166L205.4575,49.99217769003184L205.52,49.999100603152215L206.01999999999998,50.15962897355931L206.3325,50.2401950719063L206.45749999999998,50.286963792235056L206.52,50.338673629747106L206.5825,50.399773253696935L207.26999999999998,50.67831446123871L207.89499999999998,50.908748008804025L208.395,51.09242809138412L209.4575,51.43172505106145L209.77,51.60277995539296L209.895,51.69073860531472L209.9575,51.72736699785423L210.145,51.78299156575365L210.77,51.964957630970005L211.14499999999998,52.15051731303929L211.395,52.25388918605492L211.7075,52.333166447866446L211.8325,52.379462097002005L211.95749999999998,52.40104219244405L212.0825,52.4493004035385L212.20749999999998,52.47393224419724L212.4575,52.53127269083731L212.52,52.55802426053168L212.7075,52.61435864146294L212.83249999999998,52.641672593770664L213.0825,52.68724353006219L213.14625,49.28057484512934L213.33375,47.48723045358318L213.39624999999998,46.27597031405347L213.52125,46.24548300816767L213.83374999999998,46.581801696218065L213.95875,46.720246893697635L214.02124999999998,46.74367541421202L214.08375,46.8084326857427L214.45874999999998,46.78529790264659L214.58375,46.72369667059871L215.33374999999998,46.85416157186944L215.52124999999998,46.967838492867656L215.64625,47.12742374690151L215.77124999999998,47.17067584066763L215.89625,47.25771360813516L216.02125,47.33122643595618L216.58374999999998,47.58782479557735L216.83374999999998,47.74357634547812L216.95875,47.778462238582165L217.14625,47.7424339213749L217.64624999999998,47.936441377473386L217.89624999999998,48.10094050040021L218.14625,48.23364255162042L218.52124999999998,48.45013933253614L219.08375,48.738095777033635L219.39624999999998,48.87145210680069L219.83374999999998,49.04601530788801L220.02124999999998,49.10534109693856L220.08375,49.1499723158758L220.45874999999998,49.25989308137051L220.52125,49.321431197893105L220.64624999999998,49.34935564831949L220.83374999999998,49.43641860522925L221.14625,49.51356863965208L221.33375,49.578929933603774L221.39625,49.607137134932856L221.52124999999998,49.633272232898236L221.89624999999998,49.706100777202636L222.52125,49.85109817194808L222.95875,50.00482639705233L223.14625,50.08797593425248L223.20874999999998,50.13409375239941L223.64624999999998,50.25020744312485L223.70875,50.291523067787466L223.77125,50.31333756053958L223.83374999999998,50.32446218069303L224.14625,50.37926281525199L224.2725,44.3231693114391L225.7725,43.98684947507243L225.96,44.008843094918774L226.085,44.18309643211552L226.3975,44.52522589341308L226.58499999999998,44.77296430233676L226.6475,44.86806989095413L226.77249999999998,44.95199693663551L226.835,45.04065071118424L227.2725,45.21450691989824L227.39749999999998,45.303305961134726L227.5225,45.33409384467035L228.08499999999998,45.593776043804155L228.3975,45.7530021424204L228.96,45.92815339485685L229.085,46.00239024897027L229.21,46.065970176386855L229.46,46.10142078868938L229.6475,46.21066145777604L230.46,46.4537372945328L230.5225,46.54476508428942L230.58499999999998,46.593203168086916L230.96,46.773272548770336L231.45999999999998,46.94741748628857L231.70999999999998,47.06261810699283L231.835,47.1210302774015L231.89749999999998,47.14451692457345L231.96,47.177921089667876L232.21,47.22000424549063L232.52249999999998,47.32341364658308L232.95999999999998,47.47313465638615L233.46,47.64400844834074L233.71,47.72512877629026L233.96,47.8284097571547L234.085,47.860776775135605L234.45999999999998,47.9206538255539L234.64749999999998,47.95538246580361L234.7725,47.98744932614477L234.89749999999998,48.00527930634399L235.0225,48.033918553089336L235.21,48.08122659131746L235.27375,42.957563334284515L235.46124999999998,41.70910793405679L235.71125,41.162119739836214L236.21125,41.33303131324166L236.52374999999998,41.65518900434631L236.58625,41.78986121402147L236.83625,42.076863010646434L237.27375,42.27677899596736L237.96125,42.4987485175713L238.14875,42.626740949314325L238.21124999999998,42.718459962351176L238.39875,42.8408218715401L238.71125,42.966672914223096L239.08624999999998,43.166250112570424L239.14875,43.244790042316055L239.39875,43.32569184556951L239.52374999999998,43.338425285493486L239.89875,43.46409784543596L239.96125,43.49311438004244L240.33624999999998,43.53599854241739L240.77374999999998,43.71621657155876L241.14875,43.95764104457669L241.33625,44.055043833703365L241.71125,44.189481303631084L242.21125,44.39850483864345L242.39875,44.54037283220828L242.52375,44.59200735470077L242.58625,44.59786185551357L242.89874999999998,44.705310150226495L242.96125,44.7587175956273L243.14874999999998,44.81648080159306L243.27375,44.848760463622426L243.33624999999998,44.882037085730985L243.46125,44.944779624365424L243.77374999999998,45.06458442774817L244.39874999999998,45.21503267695732L244.77375,45.382711041546L244.89875,45.448138091627584L244.96125,45.48198233491465L245.21125,45.53850006269036L245.27374999999998,45.572177696031076L245.52375,45.63573189989603L245.64875,45.66460685745548L246.02375,45.78574527745158L246.08624999999998,45.838938748807294L246.27375,45.908347704076704L246.46249999999998,39.33707825808915L247.2125,38.69738999853385L247.52499999999998,38.72079953018874L247.5875,38.69463702036697L247.7125,38.85457314901228L248.275,39.12383299317668L248.3375,39.19704917607365L248.7125,39.39872490463327L248.775,39.501443906825926L249.65,39.966910167342576L249.89999999999998,40.23881621149093L250.025,40.37556734325025L250.15,40.44321011441866L250.33749999999998,40.544954014994175L250.52499999999998,40.65554553067017L251.0875,40.91039088199048L251.4625,41.13764779327266L251.58749999999998,41.29604758949097L252.275,41.63424198070473L252.3375,41.780206717857624L252.7125,41.94597829731754L253.15,42.107537552139206L254.65,42.64518705521476L254.7125,42.82350669195958L254.8375,42.925657173936486L255.02499999999998,42.995148213082956L255.15,43.046674707399774L256.46250000000003,43.38478259410468L256.65000000000003,43.5582894341041L256.9,43.65610099926542L256.9625,43.70519149196272L257.025,43.72864708326446L257.15,43.78165932439785L257.33875,27.63589924773666L257.52625,33.770263002193076L257.65125,35.43626251937687L257.77625,36.11486583578028L258.21375,36.43770675168852L258.46375,36.62542990103924L258.65125,36.77529674763329L258.96375,37.11922759628936L259.46375,37.41845114853797L259.71375,37.66299685079812L259.83875,37.8733798402626L259.96375,37.95663065129759L260.02625,37.981433054142826L260.40125,38.1786093956685L260.65125,38.373312432958414L260.77625,38.4263652897242L260.90125,38.48531842258845L261.08875,38.569980042712245L261.65125,38.85697257282794L261.77625,38.984984144673376L261.83875,39.04188154600331L262.08875,39.12821658283062L262.40125,39.28815487464061L262.52625,39.374290894876225L263.15125,39.632083605243764L263.27625,39.738415406391084L263.40125,39.78777183372051L264.21375,40.063049342973926L264.46375,40.20638601926743L264.58875,40.29760951194598L265.21375,40.53739749147894L265.52625,40.724791316091626L265.96375,40.89530022108818L266.15125,40.99856429284466L266.27625,41.047389292403324L267.52625,41.3509828399672L267.58875,41.47399318018179L267.65125,41.525371671206585L267.77625,41.5579828448013L267.96375,41.62437144923234L268.08875,41.699078458029675L268.4025,31.383383815729218L268.65250000000003,32.71490368620053L269.09000000000003,32.92734626399678L269.1525,32.943547909405964L269.215,32.90398840347251L269.52750000000003,33.30434506119178L269.59,33.45223616328832L269.84,33.44989335819736L270.5275,33.614123530586056L270.9025,33.912326062305226L271.27750000000003,34.21468306482981L271.46500000000003,34.3272544844348L271.59,34.43085345825665L271.965,34.50877291647211L272.1525,34.5636489287192L272.4025,34.57821048727618L272.6525,34.55613436366781L272.7775,34.5731906703175L272.96500000000003,34.61602999384209L273.09,34.66496223800971L273.34000000000003,34.70504945964424L273.465,34.747625178358476L273.6525,34.82555874935275L273.965,34.987600083856904L274.21500000000003,35.117706763549336L274.2775,35.17812777502536L274.40250000000003,35.19828495393435L274.965,35.34519708674404L275.0275,35.41061652403906L275.71500000000003,35.594527217399076L275.84,35.69939205915176L275.90250000000003,35.755092386921746L276.34000000000003,35.86111779564422L276.465,35.91716629350515L276.52750000000003,35.94219076496029L276.59000000000003,35.98517361187888L276.6525,36.011852493054164L276.9025,36.04751063183849L277.02750000000003,36.09173912372236L278.4025,36.320323680809025L278.59,36.427140000860334L279.15250000000003,36.542191530287454L279.34000000000003,36.61339237785404L279.465,36.62805506409754L279.65375,31.49559203414401L279.71625,29.940038222592392L279.77875,29.98359713239384L279.90375,30.107844434573508L280.40375,29.269768089227682L280.71625,28.923196509532033L281.15375,29.105794526923034L282.90375,30.14062257993413L283.34125,30.617862044754418L283.96625,31.06043678004127L284.02875,31.221079725640635L284.34125,31.300038212125884L284.84125,31.43248562079779L284.90375,31.52476334481989L284.96625,31.582736953552484L285.59125,31.809309209179276L285.65375,31.915003317396923L285.71625,31.96762524615127L285.84125,32.02186882828434L285.96625,32.06117289491198L286.09125,32.11410014561764L286.15375,32.1455771728136L286.21625,32.15502028097228L286.34125,32.22042146182184L287.46625,32.51058035422926L287.77875,32.72397440201189L288.09125,32.86754244045446L288.27875,32.94716861037679L288.46625,33.01487151928134L288.77875,33.16131272143164L289.46625,33.34870266819175L290.02875,33.56030323043356L290.21625,33.66803055819699L290.27875,33.72415753060719L290.78000000000003,28.42723157037264L291.15500000000003,26.740844600395434L291.53,26.739233776736228L291.7175,26.80538052897262" style="fill: none;" fill="none"></path></g></g></g></g><g opacity="0.2"><g><g><g><path stroke="rgb(255, 112, 67)" stroke-width="2px" d="M35.5,207.33195287531072L36.06375,153.96844690496272L36.37625,151.0611468228427L36.50125,150.7829354026101L36.56375,150.48015594482422L36.81375,149.666015625L37.31375,148.71582516756925L37.81375,148.07205616344106L37.87625,148.04829059947622L37.93875,148.0195250077681L38.18875,147.65260939164597L38.87625,146.99630945379084L39.25125,146.76254272460938L39.56375,146.51760309392756L39.75125,146.3283427845348L40.501250000000006,145.539326060902L40.876250000000006,145.14994118430397L41.18875,144.73333393443716L41.37625,144.47185100208628L41.626250000000006,144.20240506258878L41.87625,143.95042835582387L42.001250000000006,143.80950164794922L43.18875,142.38344435258347L43.50125,142.00387434525925L43.56375,141.95251603560013L43.87625,141.6765268499201L44.126250000000006,141.4364020607688L44.18875,141.37245108864525L44.31375,141.25442574240944L44.81375,140.75504025545987L44.876250000000006,140.7015214399858L45.251250000000006,140.345346624201L45.31375,140.3060871471058L45.37625,140.2375065196644L45.563750000000006,140.04769065163353L46.12625,139.54021870006216L46.62625,139.09910514137962L47.565,124.00433002818716L47.815,123.37735124067828L48.19,123.19315268776634L48.440000000000005,122.57469246604225L48.565,122.65987812389028L49.315,122.67240905761719L49.3775,122.614013671875L50.3775,122.40154335715553L51.19,122.20444349809125L51.2525,122.18302362615412L51.377500000000005,122.15265308726919L51.752500000000005,121.95277543501422L52.315,121.61505751176313L52.440000000000005,121.5610448663885L52.5025,121.48061232133344L52.69,121.38240189985797L53.065,121.22567263516513L53.6275,120.92116477272728L53.815000000000005,120.82752227783203L53.877500000000005,120.79992953213778L54.44,120.5246810913086L54.5025,120.52628603848544L55.44,120.12264182350853L55.565,120.0770860151811L55.690000000000005,120.0438759543679L56.565,119.77696089311078L56.8775,119.62652795965022L57.0025,119.5758486661044L57.19,119.45757640491831L57.69,119.25677282159978L58.065,119.07461131702769L58.190000000000005,119.02893205122515L58.31625,109.29535952481356L58.69125,108.07097001509233L59.00375,108.02757471257989L59.628750000000004,108.65689919211648L59.75375,108.72233165394177L60.003750000000004,108.86548059636895L60.378750000000004,108.67615855823864L60.628750000000004,108.62689902565695L60.691250000000004,108.71554149280895L61.003750000000004,108.62517062100497L61.128750000000004,108.65307201038708L61.19125,108.65998562899503L61.31625,108.68331909179688L61.441250000000004,108.74257867986505L61.50375,108.68554132634942L61.816250000000004,108.58313335071911L61.87875,108.59368896484375L62.441250000000004,108.67844252152877L62.816250000000004,108.72776378284802L62.941250000000004,108.69140555641867L63.253750000000004,108.49918226762252L63.566250000000004,108.36739141290839L63.69125,108.3051688454368L64.44125,108.06776012073864L64.87875,107.94640142267401L64.94125,107.93769767067649L65.06625,107.89596904407848L65.12875,107.8626972545277L65.19125,107.87380842729048L65.25375,107.89553694291548L65.37875,107.90035178444602L65.56625,107.84214158491655L65.81625000000001,107.78998080166903L66.12875,107.7380669333718L66.31625,107.70288155295633L66.56625,107.6609677401456L66.75375,107.6288070678711L66.94125,107.53862138227983L67.19125,107.48868283358487L67.25375000000001,107.4828803322532L67.50375,107.43689242276278L67.81625,107.36028705943714L67.87875,107.35849692604758L68.31625,107.2634346701882L68.50375,107.24861977317117L68.75375,107.208063992587L68.94125,107.20800226384942L69.19125,107.14164387096058L69.38000000000001,97.15893415971236L69.63,96.87683382901278L69.8175,97.05331628972833L69.88,97.16918113014914L69.9425,97.52807201038708L70.38,97.87856778231534L70.755,98.3102368441495L70.88000000000001,98.41017567027698L70.9425,98.48986747048117L71.19250000000001,98.52462074973367L71.4425,98.96875901655717L71.63,99.09554984352805L71.6925,99.08345101096414L71.755,99.04277177290483L72.005,99.06832747025923L72.5675,98.97196891091086L72.8175,99.0149321122603L72.88,99.02937663685192L72.9425,98.98740109530362L73.0675,99.00672219016336L73.13,99.02215437455611L73.505,99.05721629749645L73.75500000000001,99.09135228937323L73.8175,99.09320415150036L73.9425,99.0782040682706L74.06750000000001,99.07869789817117L74.255,99.03604334050958L74.3175,99.08616707541726L74.38,99.06801882657138L74.44250000000001,99.06067310680042L74.63,99.09283377907492L74.88,99.06159903786399L75.1925,99.09659923206677L75.25500000000001,99.09314242276278L75.3175,99.11295734752308L75.69250000000001,99.11159931529652L76.0675,99.15394522927024L76.31750000000001,99.12542655251242L76.505,99.10024122758345L76.75500000000001,99.06345089999112L77.005,99.03925323486328L77.13,99.00517897172408L77.4425,98.93030201305042L78.9425,98.62548550692472L79.0675,98.63246085427024L79.13,98.61437433416192L79.38,98.6251151344993L79.50500000000001,98.5752383145419L79.755,98.56443578546698L79.88,98.56721357865767L80.31875000000001,113.50908660888672L80.69375,91.7948920510032L80.94375000000001,91.21606167879972L81.38125000000001,90.79562724720348L81.44375,90.64550295743075L81.50625000000001,90.7080341685902L81.56875,90.86784987016158L81.88125,90.84686209938742L82.00625000000001,90.86933135986328L82.19375,91.00809756192294L82.25625,90.9593935879794L82.38125,90.99785059148614L82.88125000000001,90.91371432217684L82.94375,90.90377599542792L83.13125,90.90994886918502L83.56875,91.15118477561258L83.75625,91.20322210138495L84.31875,91.25600017200817L84.44375,91.2578520341353L84.56875000000001,91.2582841352983L84.75625,91.35951926491477L84.81875,91.37192674116655L85.06875,91.46408774636008L85.38125,91.61557006835938L85.44375000000001,91.62495283647017L85.69375,91.68340995094992L85.75625000000001,91.69594088467684L85.81875,91.6806938864968L85.88125,91.67149630459872L86.13125,91.77063265713778L86.19375000000001,91.77476848255505L86.38125000000001,91.78266976096414L86.44375,91.79452167857777L86.94375,91.74334855513139L87.19375,91.82106503573331L87.31875,91.7827314897017L87.44375000000001,91.77044747092508L87.50625,91.76131161776456L87.94375,91.7384102561257L88.00625000000001,91.75415108420633L88.06875,91.77841047807173L88.25625,91.79662045565519L88.75625,91.8168057528409L88.88125,91.77816356312145L89.13125,91.76026222922586L89.19375,91.73273121226917L89.50625,91.71871878884055L89.94375,91.63408868963067L90.63125000000001,91.62390344793145L90.75625000000001,91.61371820623224L91.13125,91.55340922962536L91.19375000000001,91.54933513294567L91.31875,91.57075500488281L91.3825,102.61421134255149L91.6325,83.10509074818005L91.88250000000001,83.95213248512961L92.0075,84.28330716219814L92.32000000000001,84.29948009144177L92.38250000000001,84.50824668190695L92.445,84.35207297585227L92.94500000000001,84.55361730402166L93.32,84.79861866344105L93.57000000000001,85.2554730502042L93.6325,85.36572057550603L93.69500000000001,85.4362765225497L94.2575,85.59103046764027L94.3825,85.5536845814098L94.57,85.54849936745383L94.94500000000001,85.51528930664062L95.445,85.56146240234375L95.57,85.60528980601917L96.82,85.81720456210049L96.88250000000001,85.82683424516158L97.1325,85.79411801424892L97.19500000000001,85.77621668035334L97.2575,85.75208074396306L98.38250000000001,85.7741796320135L98.69500000000001,85.87998268821023L99.13250000000001,85.88239010897549L99.195,85.88325431130149L99.57,85.94806948575108L99.695,86.01072415438564L100.0075,86.03739096901633L100.1325,86.01516862349077L100.2575,86.01819333163174L100.50750000000001,85.97115603360264L101.6325,86.03220575506037L101.69500000000001,86.00905747847123L101.75750000000001,86.01627974076705L101.88250000000001,86.04646509343928L102.3825,86.04498360373758L102.50874999999999,80.04143177379261L102.88375,77.77450561523438L103.00875,77.81450583718039L103.13375,77.89074082808061L103.19625,77.94981522993608L103.38374999999999,78.0777789029208L103.50875,78.24907614968039L103.69624999999999,78.61969549005681L104.19625,78.90778350830078L104.63374999999999,79.22568650679155L105.00875,79.45649025656961L105.25875,79.44920626553623L105.32125,79.47297182950108L105.38374999999999,79.50920659845525L105.44625,79.54488580877131L105.82124999999999,79.85396159778942L106.44624999999999,80.09562960537998L106.57124999999999,80.17167941006748L106.75875,80.1381607055664L106.82125,80.10198766534978L107.00874999999999,80.21951918168502L107.38375,80.3831620649858L107.50874999999999,80.45624889026989L107.69625,80.46668104691939L107.88375,80.47668110240589L108.07124999999999,80.44094016335227L108.13375,80.41507582231002L109.25874999999999,80.76952223344283L109.94625,80.84501647949219L110.19624999999999,80.87575739080256L111.07124999999999,80.96816531094639L111.13374999999999,80.9736591685902L111.32125,80.98693084716797L111.38374999999999,80.99014074152166L111.50875,80.96995544433594L111.57124999999999,80.96477023037998L112.82125,81.01575816761364L112.88375,81.01464705033736L112.94624999999999,81.03026442094283L113.25875,81.09699318625711L113.44625,81.09582034024326L113.635,73.40898756547408L113.75999999999999,74.40979558771306L114.01,74.73035292191939L114.26,74.91794655539773L114.50999999999999,74.76220495050603L115.51,75.12677487460049L116.0725,75.26801022616299L116.135,75.32905994762073L116.8225,75.6141849864613L117.3225,75.7554203380238L117.38499999999999,75.73646961558948L117.5725,75.7127657803622L117.69749999999999,75.80443295565517L117.76,75.82177873091264L118.26,75.90103842995383L118.3225,75.92727314342152L118.75999999999999,76.02005143599077L118.88499999999999,76.07776780561967L119.385,76.19628698175603L119.6975,76.24313909357244L119.76,76.26838614723899L119.94749999999999,76.29141096635298L120.38499999999999,76.3949300592596L121.135,76.48221449418502L121.44749999999999,76.51807889071377L121.51,76.54672102494673L121.63499999999999,76.5830175226385L121.6975,76.60456085205078L122.07249999999999,76.62628936767578L122.50999999999999,76.65141296386719L122.5725,76.64869689941406L123.13499999999999,76.7219071821733L123.385,76.73808011141689L123.51,76.75480859929866L123.75999999999999,76.76931485262783L124.32249999999999,76.81567313454367L124.69875,68.41488578102805L124.76125,69.24013727361506L125.07375,68.98587660356002L125.57375,69.2719893022017L125.69875,69.32186612215908L126.13625,70.03890713778408L126.19875,70.1313150579279L126.44875,70.18094496293502L126.76125,70.31397039240056L126.94875,70.28082206032492L127.07375,70.38687203147195L127.26125,70.69354039972478L127.44874999999999,70.66465135054155L127.69875,70.84175109863281L128.19875,71.16582697088069L128.69875000000002,71.41298883611506L128.82375,71.39342082630505L128.94875,71.51249556107955L129.13625000000002,71.5839774391868L129.19875,71.59163180264561L129.57375,71.6795952536843L129.63625,71.74934872713955L130.13625,71.9573745727539L130.32375,71.99669577858664L130.38625,72.01879466663708L130.44875,72.06749864058061L130.51125000000002,72.06435047496448L130.63625,72.06898013028233L130.82375000000002,72.1314496127042L131.26125000000002,72.24348727139561L131.32375,72.29583324085583L131.76125,72.4183647849343L131.82375,72.48182192715733L131.88625000000002,72.51824188232422L132.44875,72.6686748157848L132.69875,72.70750219171697L132.82375,72.75756419788708L132.88625,72.76713215221058L133.01125,72.7585518576882L133.32375,72.80182370272549L133.38625000000002,72.80651508678089L133.51125,72.81021881103516L133.57375,72.83595969460227L133.63625,72.8680586381392L133.94875,72.85744129527698L134.82375,72.93793556906961L135.38625,72.96744190562855L135.7,65.85882221568714L136.1375,66.24654041637073L136.20000000000002,66.38518316095525L136.7625,66.96216167103161L137.2,66.89296375621448L137.7625,67.11629832874645L137.95,67.1977802623402L138.3875,67.4201889038086L138.5125,67.43204082142223L138.76250000000002,67.43488034335049L139.38750000000002,67.61556035822088L139.45,67.64586916836826L139.6375,67.69123979048295L139.95000000000002,67.85019128972834L140.2,67.9350683038885L141.01250000000002,68.06488383900036L141.1375,68.12766196511008L141.20000000000002,68.12883481112392L141.575,68.2567367553711L141.63750000000002,68.30395923961292L141.7,68.33056432550603L141.825,68.36358920010655L141.95000000000002,68.33932980624111L142.70000000000002,68.61655356667258L143.825,68.93958005038174L144.20000000000002,68.96495056152344L144.575,68.96371598677202L144.63750000000002,68.97223455255681L145.0125,69.0972969748757L145.26250000000002,69.14106264981358L145.3875,69.14723552357067L145.5125,69.18050731312145L145.88750000000002,69.24303852428089L146.075,69.29439683393998L146.2,69.30680431019177L146.3875,69.34445884011008L146.575,69.37322443181819L146.70125000000002,79.23513100363992L147.26375,62.85448455810547L147.38875,62.98133711381392L148.13875,63.52998213334517L148.20125000000002,63.542883439497515L148.26375,63.65720506147905L149.13875000000002,63.80677379261364L149.38875,63.963935158469454L149.63875,64.15356584028764L149.88875000000002,64.25362812389027L149.95125,64.27591219815342L150.13875000000002,64.40202400901101L150.26375,64.48974054509944L150.38875000000002,64.57085210626775L150.88875,64.76276675137608L151.01375000000002,64.79406322132458L151.20125000000002,64.88912547718395L151.38875000000002,64.99789151278408L151.57625,65.04036088423295L151.70125,65.11523784290661L151.88875,65.14178120006214L152.07625000000002,65.17610237815164L153.07625000000002,65.38437513871627L153.51375000000002,65.55690696022727L153.82625,65.64431485262783L153.88875,65.62610487504439L153.95125000000002,65.62456165660511L154.07625,65.66375940496272L154.13875000000002,65.6729569868608L154.26375,65.71715476296164L154.38875000000002,65.77610570734197L154.63875000000002,65.84752585671164L154.88875,65.84505670720881L155.20125000000002,65.88166184858842L155.32625,65.92894606156783L155.76375,65.96326723965733L155.88875000000002,66.01820581609553L155.95125,66.01079836758701L156.13875000000002,66.05147760564631L156.26375,66.07184808904475L156.51375000000002,66.08974942294033L156.70125000000002,66.10376184636897L156.82625,66.12382368607955L156.95125000000002,66.18160178444602L157.01375,66.18851540305398L157.63875000000002,66.25061451305042L157.70125,66.26913313432173L157.89,61.01947437633167L158.0775,60.271877635609016L158.265,60.69083057750355L158.3275,61.01509163596414L158.515,60.53249636563389L158.57750000000001,60.41070556640625L158.7025,60.519595059481546L159.01500000000001,60.359655900435015L159.07750000000001,60.27335912531072L159.515,60.43329828435725L159.5775,60.443545254794046L159.8275,60.5501507845792L159.9525,60.505767822265625L160.07750000000001,60.48712574351917L160.32750000000001,60.58860778808594L160.95250000000001,60.63836115056819L161.0775,60.75305314497514L161.20250000000001,60.763176657936796L161.265,60.7397197376598L161.515,60.90027618408203L161.7025,61.0552153153853L162.20250000000001,61.41743954745205L162.45250000000001,61.403612310236156L162.64000000000001,61.51762528852983L163.32750000000001,61.7509599165483L163.5775,61.871330954811796L163.70250000000001,61.888491543856546L163.89000000000001,62.031455300071016L164.015,62.03670224276455L164.0775,62.03472692316228L164.2025,62.0807148326527L164.32750000000001,62.14435716108842L164.39000000000001,62.12201135808772L164.515,62.15392511541194L164.64,62.14651766690342L164.7025,62.1770116632635L164.95250000000001,62.27954309636897L165.14,62.35917316783558L165.3275,62.383432561701L165.64000000000001,62.4571366743608L166.39,62.63874262029475L166.64,62.713310935280546L166.8275,62.78787925026633L167.4525,62.950781388716265L167.8275,63.0354732166637L167.89,63.048991810191765L168.01500000000001,63.07331293279475L168.20250000000001,63.129486083984375L168.39000000000001,63.15318991921164L168.45250000000001,63.16948630593039L168.515,63.18553577769886L169.07874999999999,54.721414739435374L169.14124999999999,55.15135539661755L169.20375,55.44611011851917L169.32874999999999,55.94401411576705L170.07875,56.06512589888139L170.14124999999999,56.32586808638139L170.20374999999999,56.29778151078658L170.26625,56.29092962091619L170.76624999999999,56.84198206121272L171.32875,56.92278497869319L172.39125,57.91704975474964L173.26625,58.3108173717152L173.45375,58.386496803977266L173.51625,58.370262145996094L173.57874999999999,58.42489207874645L173.70375,58.50841106068005L174.20374999999999,58.73693084716797L174.32875,58.7984126697887L174.45374999999999,58.882425481622874L174.57875,58.896437905051485L175.20375,59.202735900878906L175.70374999999999,59.313847628506736L175.76625,59.34372433749111L176.07874999999999,59.41372472589666L176.45375,59.52082408558239L176.95374999999999,59.652614940296516L177.32875,59.739837646484375L177.39124999999999,59.751566106622874L177.51625,59.783294677734375L177.64124999999999,59.817986228249296L177.95375,59.88798661665483L179.14124999999999,60.1843462857333L179.26625,60.21922302246094L179.51624999999999,60.261198564009234L179.57874999999999,60.26891465620561L180.14249999999998,52.41850072687322L180.2675,52.280536998401985L180.455,52.72177401455967L180.51749999999998,52.95850372314453L180.57999999999998,52.94560241699219L181.20499999999998,53.864990234375L181.2675,53.900422529740766L181.455,53.897829922762796L181.57999999999998,54.21375760165127L181.82999999999998,54.437339089133516L181.955,54.43696871670811L182.1425,54.68030340021306L182.26749999999998,54.81771157004617L182.3925,54.815180691805764L182.5175,55.01437932794744L183.07999999999998,55.30944269353694L183.32999999999998,55.43055447665127L183.58,55.401850613680764L183.70499999999998,55.39055425470525L183.8925,55.45950525457209L184.08,55.61987651478161L184.455,55.71635853160511L184.5175,55.74074138294567L184.76749999999998,55.889445911754265L184.955,55.92932267622514L185.1425,55.95635986328125L185.26749999999998,55.96802659468217L185.82999999999998,56.26302823153408L186.0175,56.29734940962358L186.07999999999998,56.36068309437145L186.1425,56.43630079789595L186.205,56.4082759510387L186.3925,56.475128173828125L186.6425,56.52235065806995L187.0175,56.64086983420633L187.08,56.66852430863814L187.2675,56.742722251198515L187.76749999999998,56.880068692294046L188.08,57.022353432395235L188.2675,57.04210662841797L188.45499999999998,57.07118086381392L188.5175,57.078958684747874L188.64249999999998,57.136304681951344L188.82999999999998,57.18457655473189L188.89249999999998,57.185317299582735L189.0175,57.24414478648792L189.3925,57.32908352938564L189.58,57.36494792591442L189.7675,57.41223213889383L189.83,57.439084139737204L190.08,57.49926965886897L191.20625,50.56731761585583L191.45625,51.21590146151455L191.58124999999998,51.833620938387796L191.89375,51.848497564142406L192.20624999999998,51.142320806329906L192.76875,51.59701468727805L193.01874999999998,51.74547230113636L193.26874999999998,52.12744972922586L193.45624999999998,52.30819147283381L194.39375,52.400167291814626L195.08125,52.634613037109375L195.14375,52.66986014626242L195.33125,52.73887287486683L195.70625,52.960664228959516L196.14375,53.23652995716442L196.20625,53.25739427046342L196.26874999999998,53.28869074041194L196.33125,53.29548090154475L196.39375,53.300480929287986L196.45624999999998,53.350110834295094L196.95625,53.661408857865766L198.39374999999998,54.20622669566761L198.45625,54.20036246559836L198.51875,54.2207329489968L198.95625,54.413203152743264L199.64374999999998,54.60950053821911L199.76875,54.65271065451883L200.51874999999998,54.81073622270064L200.58125,54.843390724875704L200.76874999999998,54.88184772838245L200.89375,54.8990083174272L200.95624999999998,54.9007367220792L201.08125,54.92672452059658L202.20749999999998,48.211316888982594L202.52,47.13155781139025L202.7075,47.81557395241478L202.895,48.01193306662819L203.45749999999998,48.49193572998047L203.52,48.467491149902344L203.89499999999998,49.02230904319069L204.02,49.19490259343928L204.08249999999998,49.26403877951881L204.4575,49.555645335804314L204.645,49.583299810236156L204.70749999999998,49.67348549582741L205.02,49.84928894042969L205.14499999999998,49.927252335981876L205.27,49.94793146306819L205.4575,50.019289883700296L205.52,50.00206756591797L206.01999999999998,50.22842684659092L206.3325,50.27472339976917L206.45749999999998,50.30700752951883L206.52,50.360834988680764L206.5825,50.42595880681819L207.26999999999998,50.797689264470876L207.89499999999998,51.00750524347478L208.395,51.17114812677556L209.4575,51.57713803378017L209.77,51.676089200106546L209.895,51.728435169566765L209.9575,51.743064880371094L210.145,51.806830666281954L210.77,52.04294308749111L211.14499999999998,52.23004289106889L211.395,52.2981914173473L211.7075,52.36714241721414L211.8325,52.39930308948864L211.95749999999998,52.41029080477627L212.0825,52.46998249400745L212.20749999999998,52.48448874733664L212.4575,52.55584716796875L212.52,52.56948921897195L212.7075,52.638501947576344L212.83249999999998,52.653378573330954L213.0825,52.706773931329906L213.14625,47.82057398015803L213.33375,46.71865428577772L213.39624999999998,45.756858825683594L213.52125,46.23241701993075L213.83374999999998,46.72593827681109L213.95875,46.77958054976031L214.02124999999998,46.75371620871803L214.08375,46.83618580211291L214.45874999999998,46.77538299560547L214.58375,46.697296142578125L215.33374999999998,46.91007510098544L215.52124999999998,47.01655717329547L215.64625,47.19581742720172L215.77124999999998,47.18921245228162L215.89625,47.29501550847834L216.02125,47.36273193359375L216.58374999999998,47.69779552112928L216.83374999999998,47.81032700972125L216.95875,47.79341333562678L217.14625,47.72699321400037L217.64624999999998,48.019587430087L217.89624999999998,48.17144012451172L218.14625,48.29051485928622L218.52124999999998,48.542923667214126L219.08375,48.86150568181819L219.39624999999998,48.928604819557876L219.83374999999998,49.12082810835406L220.02124999999998,49.13076643510297L220.08375,49.16909998113459L220.45874999999998,49.30700198086825L220.52125,49.34780467640272L220.64624999999998,49.36132326993075L220.83374999999998,49.47373130104759L221.14625,49.54663294011897L221.33375,49.606941916725845L221.39625,49.6192259355025L221.52124999999998,49.64447298916903L221.89624999999998,49.737313010475845L222.52125,49.91323991255328L222.95875,50.07070992209695L223.14625,50.12361145019531L223.20874999999998,50.15385853160511L223.64624999999998,50.29997045343572L223.70875,50.30922976407139L223.77125,50.32268662886186L223.83374999999998,50.32922987504439L224.14625,50.402748801491484L224.2725,41.72770066694781L225.7725,43.84271240234375L225.96,44.01826893199572L226.085,44.25777643377131L226.3975,44.67185280539772L226.58499999999998,44.87913790616122L226.6475,44.908829428932876L226.77249999999998,44.98796567049894L226.835,45.07864518599078L227.2725,45.28901672363281L227.39749999999998,45.34136269309303L227.5225,45.347288651899845L228.08499999999998,45.7050684148615L228.3975,45.82124189897016L228.96,46.00321821732953L229.085,46.03420604359022L229.21,46.093218716708094L229.46,46.1166139082475L229.6475,46.25747888738459L230.46,46.55791265314275L230.5225,46.583776994185L230.58499999999998,46.61396234685725L230.96,46.850445140491814L231.45999999999998,47.02205103093928L231.70999999999998,47.11198980158025L231.835,47.14606406471947L231.89749999999998,47.15458263050428L231.96,47.19223716042259L232.21,47.23803988370028L232.52249999999998,47.367731961337L232.95999999999998,47.537300803444595L233.46,47.717240073464126L233.71,47.75989463112572L233.96,47.87267303466797L234.085,47.87464835427025L234.45999999999998,47.94631541859022L234.64749999999998,47.97026616876775L234.7725,48.00119226629084L234.89749999999998,48.012920726429314L235.0225,48.046192515980096L235.21,48.10150146484375L235.27375,40.761707652698846L235.46124999999998,41.17405561967328L235.71125,40.927696228027344L236.21125,41.40627913041547L236.52374999999998,41.79325658624822L236.58625,41.84757787531072L236.83625,42.19986378062853L237.27375,42.362457275390625L237.96125,42.593878312544376L238.14875,42.68159484863281L238.21124999999998,42.75776811079547L238.39875,42.893262689763844L238.71125,43.020609075372874L239.08624999999998,43.251783197576344L239.14875,43.27845001220703L239.39875,43.36036404696378L239.52374999999998,43.34388247403231L239.89875,43.517957513982594L239.96125,43.50555003773084L240.33624999999998,43.5543774691495L240.77374999999998,43.79345286976209L241.14875,44.06110867587003L241.33625,44.09678788618609L241.71125,44.2470973621715L242.21125,44.48808635364881L242.39875,44.601173400878906L242.52375,44.61413643576881L242.58625,44.60037092729047L242.89874999999998,44.75135941938922L242.96125,44.781606500799L243.14874999999998,44.841236461292596L243.27375,44.86259460449219L243.33624999999998,44.89629849520597L243.46125,44.97166928378019L243.77374999999998,45.11592934348366L244.39874999999998,45.279510498046875L244.77375,45.45457319779828L244.89875,45.476178255948156L244.96125,45.496487010609L245.21125,45.56272194602272L245.27374999999998,45.58661096746272L245.52375,45.66296941583806L245.64875,45.67698183926669L246.02375,45.83766174316406L246.08624999999998,45.86173595081678L246.27375,45.938094399192124L246.46249999999998,36.52081992409447L247.2125,38.42323788729581L247.52499999999998,38.73083218661222L247.5875,38.68342451615766L247.7125,38.92311720414594L248.275,39.23923006924716L248.3375,39.22842754017225L248.7125,39.485157359730096L248.775,39.545466336337L249.65,40.16639570756391L249.89999999999998,40.35534737326881L250.025,40.43417497114703L250.15,40.47219987349078L250.33749999999998,40.58855854381213L250.52499999999998,40.70294189453125L251.0875,41.019610318270594L251.4625,41.23504361239347L251.58749999999998,41.36393321644178L252.275,41.77918243408203L252.3375,41.84276303378019L252.7125,42.01702325994319L253.15,42.17677723277697L254.65,42.87560827081853L254.7125,42.8999293934215L254.8375,42.9694359519265L255.02499999999998,43.02493008700284L255.15,43.06875749067828L256.46250000000003,43.529685974121094L256.65000000000003,43.63264950838956L256.9,43.69802024147728L256.9625,43.72623027454725L257.025,43.738699479536564L257.15,43.80437885631213L257.33875,20.716287786310374L257.52625,36.399276039817124L257.65125,36.150262312455624L257.77625,36.4056958285245L258.21375,36.57606714422053L258.46375,36.705882679332404L258.65125,36.839525396173656L258.96375,37.26662653142756L259.46375,37.54668981378728L259.71375,37.76780215176669L259.83875,37.963543978604406L259.96375,37.9923095703125L260.02625,37.99206265536222L260.40125,38.263113542036564L260.65125,38.456756591796875L260.77625,38.44910222833806L260.90125,38.51058405095881L261.08875,38.606263594193905L261.65125,38.979969371448846L261.77625,39.03984624689275L261.83875,39.066266146573156L262.08875,39.1652173128995L262.40125,39.35669985684481L262.52625,39.41120633212003L263.15125,39.74256619540128L263.27625,39.78398617831144L263.40125,39.808924588290125L264.21375,40.18102541836825L264.46375,40.267816023393124L264.58875,40.336705294522375L265.21375,40.6401637684215L265.52625,40.80510295521131L265.96375,40.968375466086655L266.15125,41.04282032359728L266.27625,41.068314292214126L267.52625,41.48109436035156L267.58875,41.52671189741656L267.65125,41.54739102450284L267.77625,41.571959062056095L267.96375,41.652823708274155L268.08875,41.73109574751422L268.4025,26.962371826171875L268.65250000000003,33.28555505925959L269.09000000000003,33.01839308305219L269.1525,32.950491471724064L269.215,32.88703432950106L269.52750000000003,33.475926485928625L269.59,33.51561806418678L269.84,33.4488892988725L270.5275,33.684507890181095L270.9025,34.04012714732775L271.27750000000003,34.34426463734022L271.46500000000003,34.375499378551154L271.59,34.47525301846591L271.965,34.542166969992905L272.1525,34.587167219682186L272.4025,34.58445115522906L272.6525,34.546673167835564L272.7775,34.5805005160245L272.96500000000003,34.634389703924L273.09,34.68593319979581L273.34000000000003,34.72222969748756L273.465,34.76587191495028L273.6525,34.858958851207404L273.965,35.05704637007281L274.21500000000003,35.17346676913175L274.2775,35.204022494229406L274.40250000000003,35.20692374489525L274.965,35.40815942937678L275.0275,35.438653425736874L275.71500000000003,35.673346085981876L275.84,35.74433413418856L275.90250000000003,35.77896395596591L276.34000000000003,35.90655725652522L276.465,35.94118707830256L276.52750000000003,35.95291553844103L276.59000000000003,36.003594831986874L276.6525,36.02328629927203L276.9025,36.06279269131747L277.02750000000003,36.11069419167259L278.4025,36.418288490989L278.59,36.472918423739344L279.15250000000003,36.59149932861328L279.34000000000003,36.64390702681109L279.465,36.63433907248756L279.65375,29.295965021306813L279.71625,29.273372303355842L279.77875,30.002265236594468L279.90375,30.16109327836469L280.40375,28.910592512650936L280.71625,28.77466583251953L281.15375,29.18405082009056L282.90375,30.584120316938908L283.34125,30.822393243963063L283.96625,31.250111666592687L284.02875,31.289926702326L284.34125,31.333877563476562L284.84125,31.489248795942814L284.90375,31.564310940829188L284.96625,31.60758278586647L285.59125,31.90641160444781L285.65375,31.960300792347283L285.71625,31.990177501331658L285.84125,32.045116077769904L285.96625,32.07801749489525L286.09125,32.13678325306287L286.15375,32.159067327326L286.21625,32.159067327326L286.34125,32.24845053932884L287.46625,32.634934165261L287.77875,32.81542899391869L288.09125,32.92907159978694L288.27875,32.98129411177203L288.46625,33.04388705166903L288.77875,33.224073236638844L289.46625,33.42901264537463L290.02875,33.65098918568006L290.21625,33.71419941295275L290.27875,33.748211947354406L290.78000000000003,26.157120444557876L291.15500000000003,26.018107327547938L291.53,26.738543423739344L291.7175,26.833729137073846" style="fill: none;" fill="none"></path></g></g></g></g></g></g><g transform="translate(30, 178)" clip-path="url(#clip_1)"><clipPath id="clip_1"><rect width="300" height="22"></rect></clipPath><g><g><line x1="0" y1="0" x2="0" y2="5" style="visibility: inherit;" fill="rgb(0, 0, 0)" stroke="rgb(204, 204, 204)" stroke-width="1px"></line><line x1="25" y1="0" x2="25" y2="5" style="visibility: inherit;" fill="rgb(0, 0, 0)" stroke="rgb(204, 204, 204)" stroke-width="1px"></line><line x1="50" y1="0" x2="50" y2="5" style="visibility: inherit;" fill="rgb(0, 0, 0)" stroke="rgb(204, 204, 204)" stroke-width="1px"></line><line x1="75" y1="0" x2="75" y2="5" style="visibility: inherit;" fill="rgb(0, 0, 0)" stroke="rgb(204, 204, 204)" stroke-width="1px"></line><line x1="100" y1="0" x2="100" y2="5" style="visibility: inherit;" fill="rgb(0, 0, 0)" stroke="rgb(204, 204, 204)" stroke-width="1px"></line><line x1="125" y1="0" x2="125" y2="5" style="visibility: inherit;" fill="rgb(0, 0, 0)" stroke="rgb(204, 204, 204)" stroke-width="1px"></line><line x1="150" y1="0" x2="150" y2="5" style="visibility: inherit;" fill="rgb(0, 0, 0)" stroke="rgb(204, 204, 204)" stroke-width="1px"></line><line x1="175" y1="0" x2="175" y2="5" style="visibility: inherit;" fill="rgb(0, 0, 0)" stroke="rgb(204, 204, 204)" stroke-width="1px"></line><line x1="200" y1="0" x2="200" y2="5" style="visibility: inherit;" fill="rgb(0, 0, 0)" stroke="rgb(204, 204, 204)" stroke-width="1px"></line><line x1="225" y1="0" x2="225" y2="5" style="visibility: inherit;" fill="rgb(0, 0, 0)" stroke="rgb(204, 204, 204)" stroke-width="1px"></line><line x1="250" y1="0" x2="250" y2="5" style="visibility: inherit;" fill="rgb(0, 0, 0)" stroke="rgb(204, 204, 204)" stroke-width="1px"></line><line x1="275" y1="0" x2="275" y2="5" style="visibility: inherit;" fill="rgb(0, 0, 0)" stroke="rgb(204, 204, 204)" stroke-width="1px"></line><line x1="300" y1="0" x2="300" y2="5" style="visibility: inherit;" fill="rgb(0, 0, 0)" stroke="rgb(204, 204, 204)" stroke-width="1px"></line></g><g transform="translate(0, 8)"><text x="0" y="0" dx="0em" dy="0.95em" style="text-anchor: middle; visibility: hidden; font-family: &quot;Helvetica Neue&quot;, sans-serif; font-size: 12px; font-weight: 200;" fill="rgb(50, 49, 63)" stroke="none" stroke-width="1px">-20k</text><text x="25" y="0" dx="0em" dy="0.95em" style="text-anchor: middle; visibility: inherit; font-family: &quot;Helvetica Neue&quot;, sans-serif; font-size: 12px; font-weight: 200;" fill="rgb(50, 49, 63)" stroke="none" stroke-width="1px">0</text><text x="50" y="0" dx="0em" dy="0.95em" style="text-anchor: middle; visibility: hidden; font-family: &quot;Helvetica Neue&quot;, sans-serif; font-size: 12px; font-weight: 200;" fill="rgb(50, 49, 63)" stroke="none" stroke-width="1px">20k</text><text x="75" y="0" dx="0em" dy="0.95em" style="text-anchor: middle; visibility: inherit; font-family: &quot;Helvetica Neue&quot;, sans-serif; font-size: 12px; font-weight: 200;" fill="rgb(50, 49, 63)" stroke="none" stroke-width="1px">40k</text><text x="100" y="0" dx="0em" dy="0.95em" style="text-anchor: middle; visibility: hidden; font-family: &quot;Helvetica Neue&quot;, sans-serif; font-size: 12px; font-weight: 200;" fill="rgb(50, 49, 63)" stroke="none" stroke-width="1px">60k</text><text x="125" y="0" dx="0em" dy="0.95em" style="text-anchor: middle; visibility: inherit; font-family: &quot;Helvetica Neue&quot;, sans-serif; font-size: 12px; font-weight: 200;" fill="rgb(50, 49, 63)" stroke="none" stroke-width="1px">80k</text><text x="150" y="0" dx="0em" dy="0.95em" style="text-anchor: middle; visibility: hidden; font-family: &quot;Helvetica Neue&quot;, sans-serif; font-size: 12px; font-weight: 200;" fill="rgb(50, 49, 63)" stroke="none" stroke-width="1px">100k</text><text x="175" y="0" dx="0em" dy="0.95em" style="text-anchor: middle; visibility: inherit; font-family: &quot;Helvetica Neue&quot;, sans-serif; font-size: 12px; font-weight: 200;" fill="rgb(50, 49, 63)" stroke="none" stroke-width="1px">120k</text><text x="200" y="0" dx="0em" dy="0.95em" style="text-anchor: middle; visibility: hidden; font-family: &quot;Helvetica Neue&quot;, sans-serif; font-size: 12px; font-weight: 200;" fill="rgb(50, 49, 63)" stroke="none" stroke-width="1px">140k</text><text x="225" y="0" dx="0em" dy="0.95em" style="text-anchor: middle; visibility: inherit; font-family: &quot;Helvetica Neue&quot;, sans-serif; font-size: 12px; font-weight: 200;" fill="rgb(50, 49, 63)" stroke="none" stroke-width="1px">160k</text><text x="250" y="0" dx="0em" dy="0.95em" style="text-anchor: middle; visibility: hidden; font-family: &quot;Helvetica Neue&quot;, sans-serif; font-size: 12px; font-weight: 200;" fill="rgb(50, 49, 63)" stroke="none" stroke-width="1px">180k</text><text x="275" y="0" dx="0em" dy="0.95em" style="text-anchor: middle; visibility: inherit; font-family: &quot;Helvetica Neue&quot;, sans-serif; font-size: 12px; font-weight: 200;" fill="rgb(50, 49, 63)" stroke="none" stroke-width="1px">200k</text><text x="300" y="0" dx="0em" dy="0.95em" style="text-anchor: middle; visibility: hidden; font-family: &quot;Helvetica Neue&quot;, sans-serif; font-size: 12px; font-weight: 200;" fill="rgb(50, 49, 63)" stroke="none" stroke-width="1px">220k</text></g><line x1="0" y1="0" x2="300" y2="0" fill="rgb(0, 0, 0)" stroke="rgb(204, 204, 204)" stroke-width="1px"></line></g></g></g></g></svg>