<svg viewBox="0 0 330 200" xmlns="http://www.w3.org/2000/svg"><g><g><g><g><g><line x1="40" y1="178" x2="35" y2="178" style="visibility: inherit;" fill="rgb(0, 0, 0)" stroke="rgb(204, 204, 204)" stroke-width="1px"></line><line x1="40" y1="155.74999999999997" x2="35" y2="155.74999999999997" style="visibility: inherit;" fill="rgb(0, 0, 0)" stroke="rgb(204, 204, 204)" stroke-width="1px"></line><line x1="40" y1="133.5" x2="35" y2="133.5" style="visibility: inherit;" fill="rgb(0, 0, 0)" stroke="rgb(204, 204, 204)" stroke-width="1px"></line><line x1="40" y1="111.24999999999999" x2="35" y2="111.24999999999999" style="visibility: inherit;" fill="rgb(0, 0, 0)" stroke="rgb(204, 204, 204)" stroke-width="1px"></line><line x1="40" y1="88.99999999999999" x2="35" y2="88.99999999999999" style="visibility: inherit;" fill="rgb(0, 0, 0)" stroke="rgb(204, 204, 204)" stroke-width="1px"></line><line x1="40" y1="66.75" x2="35" y2="66.75" style="visibility: inherit;" fill="rgb(0, 0, 0)" stroke="rgb(204, 204, 204)" stroke-width="1px"></line><line x1="40" y1="44.49999999999997" x2="35" y2="44.49999999999997" style="visibility: inherit;" fill="rgb(0, 0, 0)" stroke="rgb(204, 204, 204)" stroke-width="1px"></line><line x1="40" y1="22.25000000000003" x2="35" y2="22.25000000000003" style="visibility: inherit;" fill="rgb(0, 0, 0)" stroke="rgb(204, 204, 204)" stroke-width="1px"></line><line x1="40" y1="0" x2="35" y2="0" style="visibility: inherit;" fill="rgb(0, 0, 0)" stroke="rgb(204, 204, 204)" stroke-width="1px"></line></g><g transform="translate(30, 0)"><text x="0" y="178" dx="0em" dy="0.3em" style="text-anchor: end; visibility: hidden; font-family: &quot;Helvetica Neue&quot;, sans-serif; font-size: 12px; font-weight: 200;" fill="rgb(50, 49, 63)" stroke="none" stroke-width="1px">2.4</text><text x="0" y="155.74999999999997" dx="0em" dy="0.3em" style="text-anchor: end; visibility: inherit; font-family: &quot;Helvetica Neue&quot;, sans-serif; font-size: 12px; font-weight: 200;" fill="rgb(50, 49, 63)" stroke="none" stroke-width="1px">2.6</text><text x="0" y="133.5" dx="0em" dy="0.3em" style="text-anchor: end; visibility: hidden; font-family: &quot;Helvetica Neue&quot;, sans-serif; font-size: 12px; font-weight: 200;" fill="rgb(50, 49, 63)" stroke="none" stroke-width="1px">2.8</text><text x="0" y="111.24999999999999" dx="0em" dy="0.3em" style="text-anchor: end; visibility: inherit; font-family: &quot;Helvetica Neue&quot;, sans-serif; font-size: 12px; font-weight: 200;" fill="rgb(50, 49, 63)" stroke="none" stroke-width="1px">3</text><text x="0" y="88.99999999999999" dx="0em" dy="0.3em" style="text-anchor: end; visibility: hidden; font-family: &quot;Helvetica Neue&quot;, sans-serif; font-size: 12px; font-weight: 200;" fill="rgb(50, 49, 63)" stroke="none" stroke-width="1px">3.2</text><text x="0" y="66.75" dx="0em" dy="0.3em" style="text-anchor: end; visibility: inherit; font-family: &quot;Helvetica Neue&quot;, sans-serif; font-size: 12px; font-weight: 200;" fill="rgb(50, 49, 63)" stroke="none" stroke-width="1px">3.4</text><text x="0" y="44.49999999999997" dx="0em" dy="0.3em" style="text-anchor: end; visibility: hidden; font-family: &quot;Helvetica Neue&quot;, sans-serif; font-size: 12px; font-weight: 200;" fill="rgb(50, 49, 63)" stroke="none" stroke-width="1px">3.6</text><text x="0" y="22.25000000000003" dx="0em" dy="0.3em" style="text-anchor: end; visibility: inherit; font-family: &quot;Helvetica Neue&quot;, sans-serif; font-size: 12px; font-weight: 200;" fill="rgb(50, 49, 63)" stroke="none" stroke-width="1px">3.8</text><text x="0" y="0" dx="0em" dy="0.3em" style="text-anchor: end; visibility: hidden; font-family: &quot;Helvetica Neue&quot;, sans-serif; font-size: 12px; font-weight: 200;" fill="rgb(50, 49, 63)" stroke="none" stroke-width="1px">4</text></g><line x1="40" y1="0" x2="40" y2="178" fill="rgb(0, 0, 0)" stroke="rgb(204, 204, 204)" stroke-width="1px"></line></g></g><g transform="translate(40, 0)" clip-path="url(#clip_0)"><clipPath id="clip_0"><rect width="290" height="178"></rect></clipPath><g><g><g><line x1="0" y1="0" x2="0" y2="178" fill="rgb(0, 0, 0)" stroke="rgb(60, 60, 60)" stroke-width="1px" opacity="0.25"></line><line x1="24.166666666666664" y1="0" x2="24.166666666666664" y2="178" fill="rgb(0, 0, 0)" stroke="rgb(60, 60, 60)" stroke-width="1px" opacity="0.25"></line><line x1="48.33333333333333" y1="0" x2="48.33333333333333" y2="178" fill="rgb(0, 0, 0)" stroke="rgb(60, 60, 60)" stroke-width="1px" opacity="0.25"></line><line x1="72.5" y1="0" x2="72.5" y2="178" fill="rgb(0, 0, 0)" stroke="rgb(60, 60, 60)" stroke-width="1px" opacity="0.25"></line><line x1="96.66666666666666" y1="0" x2="96.66666666666666" y2="178" fill="rgb(0, 0, 0)" stroke="rgb(60, 60, 60)" stroke-width="1px" opacity="0.25"></line><line x1="120.83333333333334" y1="0" x2="120.83333333333334" y2="178" fill="rgb(0, 0, 0)" stroke="rgb(60, 60, 60)" stroke-width="1px" opacity="0.25"></line><line x1="145" y1="0" x2="145" y2="178" fill="rgb(0, 0, 0)" stroke="rgb(60, 60, 60)" stroke-width="1px" opacity="0.25"></line><line x1="169.16666666666669" y1="0" x2="169.16666666666669" y2="178" fill="rgb(0, 0, 0)" stroke="rgb(60, 60, 60)" stroke-width="1px" opacity="0.25"></line><line x1="193.33333333333331" y1="0" x2="193.33333333333331" y2="178" fill="rgb(0, 0, 0)" stroke="rgb(60, 60, 60)" stroke-width="1px" opacity="0.25"></line><line x1="217.5" y1="0" x2="217.5" y2="178" fill="rgb(0, 0, 0)" stroke="rgb(60, 60, 60)" stroke-width="1px" opacity="0.25"></line><line x1="241.66666666666669" y1="0" x2="241.66666666666669" y2="178" fill="rgb(0, 0, 0)" stroke="rgb(60, 60, 60)" stroke-width="1px" opacity="0.25"></line><line x1="265.8333333333333" y1="0" x2="265.8333333333333" y2="178" fill="rgb(0, 0, 0)" stroke="rgb(60, 60, 60)" stroke-width="1px" opacity="0.25"></line><line x1="290" y1="0" x2="290" y2="178" fill="rgb(0, 0, 0)" stroke="rgb(60, 60, 60)" stroke-width="1px" opacity="0.25"></line></g><g><line x1="0" y1="178" x2="290" y2="178" fill="rgb(0, 0, 0)" stroke="rgb(60, 60, 60)" stroke-width="1px" opacity="0.25"></line><line x1="0" y1="155.74999999999997" x2="290" y2="155.74999999999997" fill="rgb(0, 0, 0)" stroke="rgb(60, 60, 60)" stroke-width="1px" opacity="0.25"></line><line x1="0" y1="133.5" x2="290" y2="133.5" fill="rgb(0, 0, 0)" stroke="rgb(60, 60, 60)" stroke-width="1px" opacity="0.25"></line><line x1="0" y1="111.24999999999999" x2="290" y2="111.24999999999999" fill="rgb(0, 0, 0)" stroke="rgb(60, 60, 60)" stroke-width="1px" opacity="0.25"></line><line x1="0" y1="88.99999999999999" x2="290" y2="88.99999999999999" fill="rgb(0, 0, 0)" stroke="rgb(60, 60, 60)" stroke-width="1px" opacity="0.25"></line><line x1="0" y1="66.75" x2="290" y2="66.75" fill="rgb(0, 0, 0)" stroke="rgb(60, 60, 60)" stroke-width="1px" opacity="0.25"></line><line x1="0" y1="44.49999999999997" x2="290" y2="44.49999999999997" fill="rgb(0, 0, 0)" stroke="rgb(60, 60, 60)" stroke-width="1px" opacity="0.25"></line><line x1="0" y1="22.25000000000003" x2="290" y2="22.25000000000003" fill="rgb(0, 0, 0)" stroke="rgb(60, 60, 60)" stroke-width="1px" opacity="0.25"></line><line x1="0" y1="0" x2="290" y2="0" fill="rgb(0, 0, 0)" stroke="rgb(60, 60, 60)" stroke-width="1px" opacity="0.25"></line></g></g></g><g><g><line x1="0" y1="444.99999999999994" x2="290" y2="444.99999999999994" fill="rgb(0, 0, 0)" stroke="rgb(153, 153, 153)" stroke-width="1.5px"></line></g></g><g><g><line x1="24.166666666666664" y1="0" x2="24.166666666666664" y2="178" fill="rgb(0, 0, 0)" stroke="rgb(153, 153, 153)" stroke-width="1.5px"></line></g></g><g><g><g><g><g><path stroke="rgb(255, 112, 67)" stroke-width="2px" d="M28.637500000000003,-11.712569775555039L28.939583333333335,6.959787398141003L29.422916666666666,2.275442803940706L29.845833333333335,-7.768513106964662L30.329166666666666,0.7136848441749066L30.510416666666668,-0.20394567037621414L30.570833333333336,8.611223359776346L30.99375,12.03793962594375L31.29583333333333,12.443816601623752L31.77916666666667,-2.4236214341564732L32.020833333333336,18.839603686874312L32.56458333333333,13.535772748155921L33.229166666666664,39.19351356845016L33.53125,47.242194824281086L33.7125,31.6920566299149L34.25625,15.900386593895774L34.31666666666666,18.60716999237465L34.861625,27.49754724104622L35.16370833333333,7.460952988861294L35.28454166666667,20.024378267406973L35.34495833333333,41.20028894170511L35.586625,43.37784245915532L36.06995833333333,46.17999823483029L36.55329166666667,41.14871255037846L36.613708333333335,20.06407741152543L36.674125000000004,39.58355201316863L36.915791666666664,65.90501696775254L37.580375,40.5221473303732L37.942875,40.3734611608773L38.24495833333333,26.008172069138L38.426208333333335,14.629648308201382L39.15120833333334,46.44644170410746L39.513708333333334,40.18255230607781L39.81579166666667,36.35873108155192L39.99704166666667,51.650708046694575L40.238708333333335,29.561455585700315L40.480375,33.94422588889063L40.60120833333334,37.51789956731875L41.749125,44.97007155252487L42.05120833333333,65.6561187321931L42.111625,67.47737200304836L42.41370833333333,56.95651474966104L42.655375,43.01938081793037L42.71579166666666,51.44344006482375L42.836625,57.733025117229275L43.31995833333333,41.58575518831938L43.380375,41.346913468555584L43.742875000000005,36.24388682595378L43.80329166666667,52.10159214660973L43.863708333333335,54.77358690597251L44.044958333333334,49.04947710543166L44.58870833333333,44.62343404444846L45.07204166666667,68.91950365827324L45.9795,66.51173307575536L46.22116666666666,58.348849427931796L46.583666666666666,53.37374201781553L46.82533333333333,66.988588903448L46.94616666666666,55.963992844254136L47.671166666666664,51.14005540914248L47.73158333333333,57.15255050393026L48.698249999999994,79.47455861727028L49.483666666666664,78.8816870110024L49.54408333333333,68.14417275359601L49.66491666666667,79.88148430755847L50.02741666666667,76.39287614754174L50.57116666666667,74.07776958921956L50.692,54.93813358896797L50.75241666666666,71.79430485711643L50.93366666666667,69.79443618937186L51.296166666666664,61.722860781204304L51.83991666666667,73.47283108468406L52.021166666666666,79.57477055023776L52.081583333333334,83.1911117196997L52.62533333333333,63.1221741843498L52.68575,62.86050177837244L53.592,67.59252154000052L53.712833333333336,89.34878472437697L53.83366666666667,63.908807825893916L54.6795,45.46671378369655L54.98158333333333,62.64898880647277L55.10241666666667,82.96649102665984L55.28366666666666,67.06843896000983L55.767,44.656675497559945L56.1295,60.33761201496971L56.25033333333334,68.05566355048437L56.372375,65.85452641385443L56.734874999999995,65.65310202639593L57.03695833333333,77.52995038807781L57.641125,90.70844067567704L57.76195833333333,68.96450624893346L58.003625,51.8415873230405L58.366125000000004,64.30704793277114L58.607791666666664,55.22211939377405L58.66820833333333,60.45266467417132L58.97029166666667,71.65974848891756L59.091125000000005,57.438364128546354L59.15154166666667,80.79380974181788L59.272375,72.35787703099344L59.393208333333334,71.22623909563572L59.453624999999995,68.2769174547516L59.75570833333334,70.36961192403803L59.816125,74.51205010567477L60.359875,84.79098741815798L60.722375,66.71150816859696L60.84320833333334,82.45440823847626L61.14529166666667,74.23924953643855L61.447375,84.86664980919474L61.56820833333333,78.37066251120366L62.29320833333333,65.08972131634174L62.716125,72.34978134460574L62.77654166666667,80.69110129781762L62.897375000000004,80.11541114600956L62.957791666666665,88.78295545683049L63.018208333333334,76.2092960623078L63.078625,84.34266891322055L63.19945833333333,80.22730271888231L63.38070833333333,73.24241042397158L63.622375000000005,96.60350084382813L63.924458333333334,90.24080181145227L64.10570833333333,87.8807805896508L64.347375,85.05037939312182L64.528625,89.87396918464341L64.709875,72.44717789509485L64.95154166666667,66.58495272045916L65.01195833333334,93.39908428444147L65.253625,91.68146982030176L65.55570833333333,84.34383474062714L65.616125,110.25494123181949L66.03904166666668,74.71466021144768L66.22029166666667,78.82270680786488L66.46195833333333,72.72494821823037L66.64320833333333,71.09213214837432L66.884875,74.1327546886293L67.06733333333334,76.28349867021115L67.309,89.3713314132544L67.49025,79.36898126592199L67.55066666666666,77.0602626037299L67.61108333333333,73.45220644568502L68.034,70.2286608198139L68.3965,76.31458524402538L68.51733333333334,93.81544158916645L68.57775,88.90248503107125L68.81941666666667,85.76526852195948L69.06108333333333,91.65635043902847L69.24233333333333,81.38222075856821L69.30275,92.10831295656294L69.36316666666667,85.12261852981784L69.60483333333333,105.66271866965934L70.14858333333333,100.5052105951567L70.39025,100.04850048924268L70.45066666666666,79.94343781204462L70.51108333333333,77.8309904746158L70.63191666666667,63.83725882208182L70.69233333333334,71.11473179053017L71.05483333333333,99.83304278907403L71.29650000000001,83.513483574561L71.35691666666666,87.4171872051274L71.47775,87.77117136453737L71.59858333333334,96.6093546847557L71.77983333333333,70.89343415796922L71.84025,90.53822507590108L71.90066666666667,101.43028456011432L71.96108333333333,76.71203845154952L72.14233333333333,75.03115807000313L72.384,82.38018743402814L72.68608333333333,89.04925743403155L72.74650000000001,107.39158868688976L72.80691666666667,79.55573213070228L73.16941666666668,88.18160871258262L73.53191666666666,90.54931741830973L73.77358333333333,78.23983291350983L73.95483333333334,64.14013993609903L74.1965,63.540496205893064L74.43816666666666,72.43641202914921L74.559,85.0417361714489L74.86108333333333,87.71780765229603L76.31108333333333,80.52593051247048L76.43191666666667,79.54433574930506L76.49233333333333,73.89807511763478L76.734,68.52415504871819L76.85483333333333,74.11743808632798L77.09649999999999,83.97716399683267L77.21733333333333,67.6403031249455L77.64145833333333,74.73398493229186L78.00395833333333,103.11026366501702L78.245625,105.98972458228369L78.66854166666667,88.79392513211043L78.72895833333334,111.661506410168L78.789375,94.4190985905309L78.84979166666666,75.2397697850222L79.151875,91.94869946492182L79.27270833333334,97.12892559484382L79.45395833333333,84.6607722560041L79.51437499999999,101.33813919781069L79.63520833333332,110.25006044554245L80.11854166666667,92.87519272758826L80.17895833333333,96.68807666478834L80.36020833333333,93.15929776721684L80.783125,86.58441676584928L80.96437499999999,82.41644139256496L81.50812499999999,96.09503762473592L81.62895833333333,99.041029293984L81.74979166666667,88.22013800729812L81.93104166666667,97.05812145885679L81.99145833333333,106.36227765565178L82.233125,89.36056023503859L82.53520833333333,91.47343211074333L82.59562500000001,81.3511293908944L82.83729166666666,83.05728390160175L82.89770833333334,80.75564025146655L82.958125,97.26296755165725L83.01854166666666,91.13228065517806L83.26020833333334,86.920528628669L83.320625,98.32384437866266L83.501875,87.52705332799933L83.56229166666667,102.29572226752097L84.04562499999999,98.61188676997801L84.28729166666666,90.85553457452295L84.408125,101.38171431456043L84.52895833333334,82.41379105160846L84.58937499999999,78.55477357837623L85.01229166666667,77.82663090507113L85.07270833333334,97.15844656074027L85.133125,81.1413706393361L85.314375,94.98614421639806L85.79770833333333,84.54157862411137L85.91854166666666,102.2082761327809L86.16020833333333,90.29219521285256L86.220625,78.75637117982258L86.52270833333333,89.08360580790145L86.94562499999999,94.44834259208476L87.61020833333333,94.72410701828137L87.73104166666667,108.9683088753132L88.09354166666667,96.73681229631632L88.15395833333334,89.95231059277218L88.27479166666666,95.47634037460135L88.33641666666666,93.33872718252316L88.57808333333334,104.17934841703645L88.81975,108.02673219678186L88.94058333333332,115.11052980732136L89.24266666666668,113.07095824095973L89.30308333333333,119.10202607039622L89.36349999999999,106.95719130195384L89.84683333333334,102.32449927138452L90.20933333333333,110.14748680057278L90.45100000000001,97.94150283176353L90.51141666666666,101.03926530551507L90.57183333333334,114.26322582683441L91.11558333333333,92.5282536248013L91.23641666666667,105.2683033436431L91.41766666666666,102.85078084140702L91.78016666666667,97.07567595145012L92.2635,111.93468306273498L92.38433333333333,89.82907591405596L93.59266666666666,93.42096805019106L93.65308333333334,85.69976267052569L93.89474999999999,115.51189987907671L93.95516666666667,96.81017449215014L94.01558333333332,103.80953514789034L95.10308333333334,81.92467202012092L95.40516666666667,88.48664220948325L95.82808333333334,94.07302050822767L95.8885,100.55880564163269L96.25099999999999,95.11770259651585L96.37183333333333,95.37564379368139L96.67391666666666,90.12161178110216L96.79475,108.38359529590066L96.91558333333333,117.3481901133521L97.15725,120.98828395141551L98.24475,94.28123062829192L98.30516666666668,97.20877506130941L98.36558333333333,100.92227017222054L98.48641666666667,111.59395589035219L98.96975,93.13431976318797L99.09179166666667,117.99470185661448L99.45429166666666,128.32720574564974L99.575125,105.20136000760567L99.69595833333334,100.94033289566097L99.756375,100.81821944896713L99.937625,102.74463956530195L100.05845833333333,95.6646510510901L100.23970833333333,108.19214324799958L100.72304166666667,97.19399947121084L101.14595833333333,97.94678922949535L101.50845833333334,100.92517976897447L101.75012500000001,100.47986017148942L101.81054166666667,105.83477275514976L101.87095833333332,103.14463680071945L101.931375,86.73997788156069L102.293875,102.54595818676053L102.89804166666666,102.70231667923184L103.018875,114.41033662488239L103.20012500000001,119.46778276899514L103.26054166666667,107.61588427227456L103.44179166666666,82.58064524174249L103.80429166666667,74.54789953184286L103.925125,98.94492643103645L104.106375,109.57164399929538L104.287625,110.68616951438099L104.468875,102.51317937651967L104.52929166666667,103.04079708301934L105.61679166666667,102.23570441259126L106.28137500000001,108.49246160701865L106.52304166666666,93.21970080291021L107.368875,93.5515514461839L107.42929166666666,115.19949202086462L107.61054166666668,109.82293785913566L107.67095833333333,113.8888645210975L107.79179166666667,98.60004204628211L107.85220833333332,84.50713258420635L109.06054166666667,99.80978164504533L109.12095833333333,114.18580595681239L109.18137499999999,91.22605041870233L109.48345833333335,95.85244666400183L109.66470833333334,117.45175227779937L109.84716666666668,116.53423367517829L109.96799999999999,118.478477533393L110.20966666666666,114.30726395122198L110.45133333333334,106.77653657219408L110.693,112.34627070075749L111.65966666666667,106.5254311026528L112.20341666666667,95.76341546360837L112.26383333333334,106.76336531872805L112.92841666666668,99.29818107198258L113.41175,105.81307975503977L113.47216666666667,108.64863907710665L113.65341666666667,94.58840213839997L113.77425,92.77004031129123L113.83466666666666,85.41181721623973L114.318,115.81517865758016L114.37841666666668,110.59591582566765L114.80133333333333,110.41232732281169L114.92216666666667,113.41899808450067L115.4055,99.63163419426542L115.70758333333335,117.12164263087827L115.768,112.66600090312458L115.94924999999999,105.83775495900963L116.37216666666666,110.89678155009226L117.09716666666667,110.95196043438999L117.39925,112.29314722116976L117.45966666666668,102.26113956420483L117.58049999999999,127.25814038887282L117.64091666666667,107.94571117870407L118.00341666666667,118.58804221842408L118.42633333333333,114.35702918736257L118.48675,100.06642424693142L119.03049999999999,101.31886575707922L119.27216666666666,112.54266838457923L119.393,121.68721777268274L119.63466666666666,115.75793415924318L120.17841666666666,108.50426867789156L120.542125,129.66041992660206L120.60254166666667,103.93873739408207L120.90462500000001,118.84341042687524L121.38795833333333,124.33827263548979L121.50879166666667,133.27317894230785L121.93170833333333,120.37673473575862L121.992125,107.0825644738053L122.23379166666668,110.11454958935306L122.535875,110.01388585334938L122.717125,123.66812126566745L122.83795833333333,119.1118327877813L123.01920833333332,132.9994676143495L123.20045833333333,108.24239831061865L123.442125,115.76114362744005L123.92545833333332,139.0168364830837L124.40879166666667,107.13922381365377L124.529625,105.37150916446473L124.65045833333333,98.33041428622373L124.83170833333334,109.66046437351935L124.89212500000001,96.23572526791405L125.25462499999999,110.28162502771232L125.31504166666667,110.28978134252318L125.798375,99.27189485745934L125.979625,112.07798453127533L126.04004166666667,121.65757981525422L126.10045833333334,111.68022968645863L126.160875,100.61311989508859L126.28170833333333,106.07493841493964L126.46295833333333,96.68650366021646L126.88587500000001,116.05510862813426L126.94629166666667,119.51269505067478L127.36920833333333,126.99725284470267L127.429625,107.88911242572415L127.49004166666667,103.00773742582787L128.03379166666667,112.92459780808205L128.27545833333332,101.48667688618877L128.39629166666666,95.87085537746782L128.45670833333332,99.65536356757657L128.57754166666666,109.01480800149021L128.879625,108.77584033083077L128.94004166666667,114.97235465905416L129.06087499999998,113.09268867630168L129.12129166666668,115.36864380734681L129.18170833333332,111.2119260153101L129.48379166666666,114.85471259715935L130.329625,112.23334369409916L130.873375,106.59335502192032L131.17666666666665,111.46063550771667L131.59958333333333,113.74912382501782L131.66,116.86904126804598L132.20374999999999,101.90199230432971L132.62666666666667,117.7065923640742L133.17041666666665,116.77706321566143L133.35166666666666,120.78976401832354L133.77458333333334,123.10916325195626L133.89541666666668,129.318816664052L134.13708333333335,113.82520145244361L134.74125,103.04678966422968L134.80166666666668,115.81842654889851L134.98291666666665,135.6939013121904L135.285,142.5578713213915L135.52666666666667,135.2135114012812L136.31208333333333,128.82620162184998L136.43291666666667,126.48759435539236L136.49333333333334,119.068062814846L136.85583333333332,124.26910919331743L136.91625,124.88026732916609L136.97666666666666,116.30349792455134L137.0975,119.29786609832794L137.21833333333333,115.17167215712175L137.94333333333333,109.81715412487776L139.03083333333333,111.06080970630106L139.39333333333335,111.73589614470319L139.75583333333333,113.49725740384912L139.81625,102.46488862404782L140.17875,114.72412891140452L140.42041666666668,116.00579371139668L140.54125,131.04128059770247L140.66208333333333,107.76907261319637L141.02458333333334,102.21057759555484L141.20583333333335,122.71158429036231L141.32666666666668,113.90627259626893L141.50791666666666,119.4238242346493L141.68916666666667,89.33379205579902L141.81120833333333,101.14907059823081L142.35495833333331,108.17594055460276L142.47579166666665,118.20809040703293L143.20079166666667,120.67920396994926L143.26120833333334,124.41119289479073L143.321625,115.94379820251885L144.16745833333334,118.23476617879993L144.409125,123.7002717415909L144.65079166666666,124.02386817218124L144.89245833333334,124.73461852336308L144.952875,123.52554889280913L145.134125,120.58771774697102L145.25495833333332,107.74358187773166L145.3757916666667,110.13492871719103L145.859125,112.26374733268473L145.97995833333334,114.52047505324857L146.16120833333335,127.5428683410459L146.34245833333333,105.39073827416817L146.52370833333333,115.82542864248492L146.64454166666667,132.8936520450274L146.82579166666665,128.19500497677805L147.00704166666668,132.49105859309103L147.97370833333335,109.29504963311454L148.396625,122.78670040533814L148.69870833333331,107.31364413430055L148.75912499999998,106.44775973060656L148.81954166666668,104.34441791861931L148.940375,101.94004013207464L149.00079166666666,102.50747020264544L149.121625,115.11802505022311L149.24245833333333,104.86640057136427L149.484125,122.99018618813102L149.72579166666665,104.95542972490475L150.027875,119.52942839028026L150.14870833333333,120.93882340419765L150.57162499999998,117.33243190714262L150.69245833333335,120.24998037060658L150.752875,123.74482276451758L150.93412500000002,109.40687379959876L151.05495833333333,117.79915956176416L151.296625,111.63170137261481L151.477875,122.03129389362076L151.59870833333332,115.0465737237827L151.7195416666667,105.28143460912396L151.77995833333333,105.74405579377084L152.384125,121.87209078254962L152.44454166666665,127.17890569145283L152.627,132.19807445578218L152.80825,124.01137402526268L152.9895,133.54937985799236L153.04991666666666,120.3531698443339L153.23116666666667,117.77402779632348L153.29158333333334,123.33882102720008L153.41241666666664,110.7481965105297L153.71450000000002,126.69509043337592L153.77491666666668,126.22533509147671L154.1978333333333,110.18105008903893L154.25825,114.42047637314721L154.49991666666668,131.91094628456568L154.62075,112.272236888061L154.74158333333335,119.97914980186522L154.98325,117.37249460915774L155.58741666666668,125.73570986717955L155.70825,119.69744506517056L155.82908333333336,117.1046912760705L155.8895,122.39796412262825L156.13116666666667,117.94299433312867L156.31241666666665,122.36291289234774L156.79575,108.1220912930507L157.03741666666667,121.09744292489111L157.21866666666668,115.13957492110558L157.88325,119.4016645598335L158.12491666666665,133.52914360904464L158.24575000000002,128.8928615681641L158.427,120.05451761580446L158.54783333333333,112.10464904575626L158.60825,127.40329185089197L158.7290833333333,125.35061379957418L158.84991666666667,117.65389773454729L158.91033333333334,126.5660167432024L159.03116666666668,122.28525429058651L159.152,122.6857626709002L159.21241666666666,113.11118040301379L159.45408333333333,126.47946802919499L159.63533333333334,131.09144588752207L159.81658333333334,125.76919546855578L160.11866666666668,133.75706088880625L160.84366666666665,107.5112370918391L161.08533333333332,116.40262854904529L161.26658333333333,116.23797056916533L161.87075,111.49437298727983L162.23325,113.79652729735659L162.29366666666667,113.04243153663244L162.4145,115.41804932454755L162.59575,118.27509407073121L162.77700000000002,111.24088911375361L162.83741666666668,122.65687262463858L162.89783333333332,119.6948023302802L163.44279166666666,128.03427546213413L163.50320833333333,149.81771358546717L163.563625,141.76787411778304L163.68445833333334,127.34167628171782L164.40945833333333,123.90079233849868L164.469875,121.36624644340523L164.53029166666667,115.55445635360913L164.59070833333334,125.528957677014L165.07404166666666,118.033676097431L165.61779166666668,120.57214461256214L166.644875,123.38738266375407L167.49070833333334,109.7934641949736L167.67195833333335,122.64505948163283L167.73237500000002,138.5507558749235L167.79279166666666,136.9764279415046L167.91362500000002,119.84114575653777L168.39695833333332,121.47382109841557L168.51779166666668,122.652992157581L168.638625,115.54845966352298L168.75945833333336,134.77796014384413L169.363625,140.8847640342593L169.84695833333333,142.94059140643716L169.907375,134.79896805632484L170.20945833333332,125.88220298870911L170.57195833333336,121.3116098063723L171.05529166666665,121.90064527444648L171.4177916666667,120.18164371804177L171.47820833333333,117.54133896635707L171.59904166666666,123.17124136271099L171.719875,129.52455677980785L172.02195833333334,131.06569429753606L173.169875,128.31498700534817L173.29070833333336,107.08183943675611L173.532375,115.40404531194767L173.59279166666667,121.36424095283148L174.13774999999998,130.45471477761924L174.25858333333335,131.77946584896762L174.43983333333335,143.05767612897313L174.50025,119.74754636658122L174.56066666666666,131.5469971751359L175.16483333333332,129.95096407697164L175.22525000000002,142.21913001646269L175.4065,121.60467502984308L175.52733333333333,126.14584895227223L175.769,122.69981483296715L175.88983333333334,125.33026465677075L176.07108333333335,130.2490191128935L176.19191666666666,123.18222488364827L176.31275000000002,119.10581652939696L176.43358333333333,123.01220826691505L176.97733333333332,133.49560371752418L177.219,130.23251653228954L177.46066666666667,129.4543722585284L177.58149999999998,135.72987134204635L177.76275,126.17935384793972L177.94400000000002,136.27610428775517L178.3065,131.32097680462948L178.36691666666667,114.4148579212831L178.6085833333333,125.61701205291772L178.78983333333335,132.94114165579805L178.97108333333335,122.84075949512575L179.09191666666666,119.18449650383786L179.63566666666665,121.64894306712387L179.81691666666669,122.34906385556769L179.87733333333333,124.8512330359695L179.93775,132.42040976007218L179.99816666666666,117.71514193451239L180.17941666666667,140.62807445596408L180.42108333333334,127.34606377741919L180.78358333333333,131.48213521379597L180.84400000000002,129.0335385076355L181.02525,120.94004544830771L181.50858333333332,129.99323431615963L181.81066666666666,122.38492868532222L181.99191666666667,123.82406861242501L182.17316666666667,127.07774850921886L182.23358333333334,114.67363573073465L182.35441666666665,129.9713328986142L182.53566666666666,124.03349982228205L182.59608333333333,136.2300891474674L182.7169166666667,117.44159957157936L183.07941666666667,118.44125223275238L183.26066666666668,113.61432174478836L183.44191666666666,111.54510730396173L183.50233333333335,111.43411431875965L183.74400000000003,107.81971727063402L184.83270833333333,131.5247009225194L185.074375,137.2015543290229L185.1952083333333,133.19129450643814L185.49729166666668,129.00372589684952L185.799375,115.98379822092488L186.34312500000001,142.49922714089521L186.58479166666666,137.5282668812727L186.82645833333333,111.83266168068812L187.0077083333333,130.8082524097889L187.91395833333334,117.33446646204379L188.57854166666667,133.924089397403L188.63895833333333,133.46813122195374L188.82020833333334,117.13923376727813L189.18270833333332,107.94939488747336L189.605625,131.11022037440125L189.66604166666667,126.16324625066991L189.7264583333333,127.16233981148025L189.786875,137.20841849594004L189.84729166666668,127.72768251522986L189.90770833333332,137.39909467823688L190.39104166666667,121.19398894228748L191.780625,138.21985465979043L191.84104166666665,127.38381738273937L191.90145833333335,130.23834244849874L192.324375,124.01003681553183L192.98895833333333,110.69484267512797L193.10979166666667,124.58637784087608L193.83479166666666,126.81040939737545L193.89520833333333,108.1407120437896L194.07645833333333,130.2273718300902L194.19729166666667,132.33609306166898L194.2577083333333,120.79840125843984L194.37854166666668,111.14547733129591L195.46725,135.366647075598L195.76933333333335,142.1503342482402L195.95058333333333,146.13846845307813L196.13183333333333,126.78181772493983L196.67558333333332,129.50417201239964L196.736,129.94525242006512L197.0985,140.99972843574207L197.21933333333334,143.52844703032588L197.27974999999998,148.7182819778741L197.64225000000002,131.31868606612147L197.82350000000002,137.94001810492594L197.88391666666666,133.2903667174027L198.186,129.76037674791354L198.30683333333332,142.3064038862191L198.42766666666668,136.81384049980053L198.60891666666666,120.35280979611937L198.66933333333336,135.29510038178702L199.15266666666665,128.22194918120368L199.45475000000002,131.64378578699964L199.57558333333333,160.3861459351699L199.636,142.69976196459297L199.6964166666667,135.5603892140727L200.361,129.64293481508315L200.96516666666665,122.45106229662727L201.4485,129.62129872882315L202.47558333333333,127.98527134014356L202.77766666666668,128.71621734664797L202.89849999999998,115.05884405006758L202.95891666666668,126.25289722093879L203.14016666666666,136.76818702760025L203.74433333333334,131.06759486837L204.10683333333333,119.09912293625713L204.3485,121.63439683757082L204.65058333333334,125.74508801889974L204.77141666666668,125.84842847523855L204.89225,125.62844397645523L205.01308333333333,147.13047773248354L205.13391666666666,136.0724770146799L205.37558333333334,136.24174496883728L205.436,134.84765333340937L205.61725,134.31397718908303L205.73808333333332,152.5107301554737L205.97975,123.59362901096517L206.04137500000002,143.73275962723787L206.22262500000002,153.96668859497754L206.28304166666666,130.6577596908094L206.403875,133.19607477919106L206.7059583333333,126.60973966579394L206.82679166666668,130.42740088838565L206.88720833333332,140.74236360829542L206.947625,156.24320092094382L207.310125,151.49697516051663L207.43095833333334,142.61883405949987L208.15595833333333,131.08734580310085L208.3372083333333,146.63704559931728L208.45804166666667,136.56927396574488L208.57887499999998,146.58026960408353L208.69970833333335,135.30714841757913L208.82054166666666,147.46304494760844L209.36429166666665,112.52749768681058L209.60595833333332,125.02763255771018L209.72679166666668,129.53958214621548L209.90804166666666,140.44506705194954L210.39137499999998,137.93637036201434L210.63304166666666,131.45741158401097L210.87470833333333,112.14105955861547L211.2372083333333,136.3077717784123L211.78095833333333,127.34103723654378L212.08304166666667,136.8839881547965L212.50595833333333,144.60165827657812L212.68720833333333,132.647557703215L212.747625,135.23099790440742L213.11012499999998,132.0259107065998L213.17054166666668,127.03818237521656L213.291375,123.14935855787516L213.472625,141.18994737482527L213.77470833333334,150.83181883340018L213.95595833333334,144.09583629800366L214.016375,145.9752305198714L214.13720833333332,137.68028628376143L214.49970833333333,116.92234135135124L215.10387500000002,135.26977642316848L215.5267916666667,137.0251934645749L215.70804166666667,147.2399992620402L215.7684583333333,128.20604991541666L216.191375,123.7885075558018L216.25179166666666,134.25070463862392L216.31220833333333,134.72112220301142L216.372625,129.82372510961864L216.67470833333334,110.1806635812884L216.79675,129.70538712012666L218.24675,127.20152177354066L218.428,131.22779753190392L218.54883333333333,120.31123219842347L218.85091666666665,145.97995304737876L219.03216666666665,150.66211987636802L219.09258333333332,145.06833120913006L219.21341666666666,150.8963623187861L219.27383333333333,136.17568142837052L219.69675,148.6175985265546L219.81758333333332,135.69023481395163L219.93841666666668,147.27731791551804L220.48216666666667,153.1203073484179L220.78425000000001,147.47037953801384L221.328,137.42817388971875L221.44883333333334,116.4175535351045L221.56966666666668,138.64657941788457L221.81133333333335,126.89823765555033L221.99258333333333,148.09961354434193L222.778,155.2809408774963L222.83841666666666,132.62390462967724L222.89883333333333,131.83242603663498L223.26133333333334,149.18255810297694L223.74466666666666,142.95920218335743L223.98633333333333,138.40921177061546L224.10716666666667,146.97317020175507L224.1675833333333,149.77774821542997L224.228,141.96429736263542L224.46966666666668,140.67092283620534L224.77175,141.96213324086102L225.19466666666665,136.66997217898438L225.678,117.0386721902039L225.91966666666667,136.26166666188678L226.16133333333335,132.01698697995795L226.28216666666665,128.01568623599903L226.64466666666667,124.3164026624486L226.82591666666664,133.83194130320925L226.94675,118.09493217366807L227.06758333333332,133.59912274330222L227.18841666666668,125.42336236849239L227.36966666666666,122.87221140091063L227.43129166666665,129.90700270660057L227.61254166666666,137.9031862495164L227.85420833333333,151.9463135802096L228.33754166666668,154.69657415161572L228.639625,137.73361043337L228.70004166666666,153.0537335759491L228.94170833333334,156.9966816808608L229.36462500000002,147.60309177356444L230.02920833333334,143.71272369538985L230.21045833333335,138.21402360294832L230.270875,136.83199897198253L230.45212500000002,141.81035505172125L230.75420833333334,122.8049675120011L231.11670833333332,127.40160138884471L231.177125,134.2578670724609L231.41879166666666,136.3426341815108L231.539625,132.29560590396267L231.902125,142.78176729860886L231.96254166666665,145.36916209752255L232.32504166666666,143.57888529746202L232.74795833333332,129.2939805091872L233.11045833333336,143.17843386833232L233.29170833333333,146.89504632146466L233.65420833333334,142.7553338968495L234.13754166666666,135.5091618348283L234.31879166666667,130.35540556458002L234.439625,145.17116393312025L234.50004166666668,140.54104797740047L234.802125,127.277344920335L234.86254166666666,148.22509853783185L235.04379166666666,125.50528052074591L235.164625,118.02007455415394L235.22504166666664,127.65941136713883L235.345875,143.08038059960626L235.64795833333332,133.7611312690104L236.25212499999998,132.24691450663585L236.61462500000002,126.00883531590755L236.73545833333333,124.2121431172504L236.795875,127.07281794967095L237.03754166666667,131.92240973359895L237.09795833333334,127.72340390100045L237.33962499999998,126.82087258402696L237.46045833333335,126.74135171146452L237.82295833333333,131.61745343438164L237.88337499999997,130.80599374720865L238.064625,134.47371783003038L238.2470833333333,135.02315670891056L238.97208333333333,138.71572640729977L239.27416666666664,138.44741546271155L239.3345833333333,133.31610856401298L239.45541666666668,134.09818505629113L239.99916666666667,145.39430408294265L240.05958333333334,143.93362792913695L240.42208333333335,138.308237977578L240.48250000000002,138.17925208442028L241.32833333333335,140.99513475189394L241.57,142.82086033847867L241.69083333333333,137.54519790180606L241.81166666666667,142.7955072813275L241.99291666666664,142.50966360250246L242.17416666666665,130.16060099029283L242.71791666666667,128.33692659444733L243.08041666666668,134.34971406908966L243.20125,135.02800948873798L243.8658333333333,143.09231116609465L243.92625,131.73087946843117L244.28875,132.7854929038018L244.71166666666667,143.95371617877873L246.16166666666666,138.43507892490746L246.22208333333333,145.6031589108745L246.34291666666667,154.30827398294332L246.52416666666664,150.35856333134808L246.645,140.27877511608074L247.91375000000002,137.70359933980546L248.095,137.06816277089195L248.33666666666664,117.10235455984613L248.3970833333333,133.57025310204847L248.4575,133.1723756933404L248.57833333333332,122.42297277880292L248.76079166666665,147.50520374188596L248.94204166666665,162.47191085162692L249.06287500000002,158.48340950531644L249.18370833333333,152.6133423808899L249.606625,156.2170455385353L249.84829166666668,163.58669181254822L250.02954166666666,135.3003143357853L250.331625,137.09854042791187L250.81495833333332,150.5907604881014L251.056625,140.20459690057893L251.1774583333333,154.21408324946066L251.29829166666667,150.80149555060004L251.35870833333334,145.17689172581655L251.72120833333335,151.11205528424924L251.96287500000003,137.6662303216658L252.08370833333333,147.24814576528675L252.20454166666664,156.60527927464906L252.38579166666668,143.1478986227115L252.92954166666667,162.49351141105893L253.050375,154.28141676560287L253.11079166666667,148.43383199922812L253.35245833333335,148.52027376578027L253.65454166666666,142.0525630119019L253.775375,135.79538362629927L254.37954166666668,133.59169467511092L254.500375,144.0149769908855L254.62120833333333,161.04555927892537L255.406625,148.73654366487267L255.64829166666667,142.95928338454365L255.769125,144.99833157445846L256.37329166666666,143.60194871063783L256.67537500000003,155.5867087222211L257.0982916666667,142.70367024472574L257.27954166666666,132.48264005223282L257.400375,132.98205679786017L258.6087083333333,131.6911687735671L258.669125,140.21970222246512L258.72954166666665,153.60249260023792L258.850375,142.7842014996873L259.03162499999996,135.58174776937565L259.15245833333336,140.3969473478377L259.45575,160.41869580260456L259.6974166666667,161.06343060586318L260.12033333333335,150.80245372609338L260.18075,140.47778027342568L260.2411666666667,139.14402445282585L260.54325,144.69761708416357L260.60366666666664,148.47261017274207L260.8453333333333,153.666327344511L261.50991666666664,151.3347809157175L261.87241666666665,147.52787666444192L262.23491666666666,133.484037717951L262.4161666666667,135.62330988072537L262.537,147.23664980239624L262.8995,152.54361906977581L263.08074999999997,143.37798595229415L263.32241666666664,140.73958569705374L263.5640833333333,156.1599307475683L263.68491666666665,158.2305120294749L263.8661666666667,150.52963575319825L263.987,137.57923281370515L264.2286666666667,144.25352333837424L264.3495,137.79720067636273L264.53075,160.8513354350808L264.8328333333333,145.17838874726542L265.0745,148.5678623296888L265.13491666666664,141.4641968660972L265.25575,143.1234447435564L265.79949999999997,149.25300792682248L265.85991666666666,138.79340176531102L266.5245,138.86981244310272L266.6453333333333,144.29877017564937L266.70575,143.9101138848882L267.1286666666667,132.95959476050203L267.2495,147.06489045446057L267.30991666666665,143.83743411011977L267.37033333333335,149.01298539551343L267.43075,152.35913391921594L267.67241666666666,144.20952298049235L267.79325,155.33479528964787L269.12241666666665,143.3254112820066L269.3036666666667,136.29170271814576L269.8474166666667,145.19074628669233L270.02866666666665,147.7622407374329L270.1495,161.58896743349868L270.3319583333333,156.52328052846389L270.392375,159.43410685279312L270.45279166666666,153.63777202552063L270.573625,145.82147843296977L271.05695833333334,149.42045073704614L271.35904166666666,158.3272752195498L271.78195833333336,153.26834747284354L273.473625,150.31894245472463L273.8965416666667,128.89016484834823L274.50070833333336,155.86128382568978L274.561125,156.12433558310693L274.8632083333333,167.91345425130615L275.34654166666667,140.77075915837787L275.4069583333333,131.19202782900481L275.467375,132.85295230207248L276.0715416666667,156.68115968125286L276.13195833333333,165.17124368136294L276.192375,151.0317980151927L276.31320833333336,150.41998710934988L276.43404166666664,138.60323741049964L276.554875,138.2554420948368L276.6152916666667,150.80422395826406L276.6757083333333,153.8420592974455L276.79654166666666,147.17390314432475L277.88404166666663,155.3014298847094L278.186125,163.664610104882L278.4882083333333,149.99549070510963L278.6694583333333,139.54195970151932L278.85070833333333,146.18340618566904L279.15279166666664,155.3199914609082L279.817375,142.22706721766852L280.361125,148.591498692465L280.542375,148.8884274541236L280.6027916666667,143.58049504097994L281.08733333333333,146.58199883144113L281.44983333333334,147.891551872018L281.81233333333336,150.66327646968455L281.99358333333333,158.78059165357854" style="fill: none;" fill="none"></path></g></g></g></g><g opacity="0.2"><g><g><g><path stroke="rgb(255, 112, 67)" stroke-width="2px" d="M28.637500000000003,-6.937847137451172L28.939583333333335,14.962226152420044L29.422916666666666,0.2678665518760681L29.845833333333335,-12.073065638542175L30.329166666666666,4.348912537097931L30.510416666666668,-0.5972158908843994L30.570833333333336,12.389152944087982L30.99375,13.506532311439514L31.29583333333333,12.617763876914978L31.77916666666667,-8.795380592346191L32.020833333333336,27.952414453029633L32.56458333333333,11.262702345848083L33.229166666666664,50.189688205718994L33.53125,50.69162964820862L33.7125,25.0277116894722L34.25625,9.132528007030487L34.31666666666666,19.76722002029419L34.861625,31.30770891904831L35.16370833333333,-1.1261588335037231L35.28454166666667,25.4087033867836L35.34495833333333,50.27567923069L35.586625,44.31107968091965L36.06995833333333,47.38092213869095L36.55329166666667,38.99244725704193L36.613708333333335,11.027805209159851L36.674125000000004,47.94904112815857L36.915791666666664,77.18564480543137L37.580375,29.64377462863922L37.942875,40.309738516807556L38.24495833333333,19.851619601249695L38.426208333333335,9.75313812494278L39.15120833333334,60.082210302352905L39.513708333333334,37.49802827835083L39.81579166666667,34.719950556755066L39.99704166666667,58.20441246032715L40.238708333333335,20.094633102416992L40.480375,35.822556018829346L40.60120833333334,39.049474000930786L41.749125,48.16385954618454L42.05120833333333,74.52156752347946L42.111625,68.25790911912918L42.41370833333333,52.4475759267807L42.655375,37.04632341861725L42.71579166666666,55.05375117063522L42.836625,60.42856156826019L43.31995833333333,34.66549664735794L43.380375,41.24455273151398L43.742875000000005,34.05687540769577L43.80329166666667,58.897751569747925L43.863708333333335,55.91872751712799L44.044958333333334,46.596287190914154L44.58870833333333,42.726558446884155L45.07204166666667,79.33210492134094L45.9795,65.47983139753342L46.22116666666666,54.85047072172165L46.583666666666666,51.241553127765656L46.82533333333333,72.82352328300476L46.94616666666666,51.2391659617424L47.671166666666664,49.07265365123749L47.73158333333333,59.729334115982056L48.698249999999994,89.04113352298735L49.483666666666664,78.62759917974472L49.54408333333333,63.542380928993225L49.66491666666667,84.91176068782806L50.02741666666667,74.89775836467743L50.57116666666667,73.08558106422424L50.692,46.73543244600296L50.75241666666666,79.01837825775146L50.93366666666667,68.93734961748123L51.296166666666664,58.26361417770386L51.83991666666667,78.50853264331818L52.021166666666666,82.18988746404648L52.081583333333334,84.74097222089767L52.62533333333333,54.52120095491409L52.68575,62.74835646152496L53.592,69.62053000926971L53.712833333333336,98.67289751768111L53.83366666666667,53.00596058368683L54.6795,37.56295919418335L54.98158333333333,70.01282095909119L55.10241666666667,91.67399197816847L55.28366666666666,60.25498807430267L55.767,35.0516340136528L56.1295,67.05801337957382L56.25033333333334,71.36339992284775L56.372375,64.9111819267273L56.734874999999995,65.56677728891373L57.03695833333333,82.62002825737L57.641125,96.35636508464812L57.76195833333333,59.64567720890045L58.003625,44.503193497657776L58.366125000000004,69.64938819408417L58.607791666666664,51.32857859134674L58.66820833333333,62.69432693719864L58.97029166666667,76.46278440952301L59.091125000000005,51.34348511695862L59.15154166666667,90.8032864332199L59.272375,68.7424772977829L59.393208333333334,70.7412514090538L59.453624999999995,67.01292246580124L59.75570833333334,71.26648098230362L59.816125,76.28738075494766L60.359875,89.19624626636504L60.722375,58.963159918785095L60.84320833333334,89.20136541128157L61.14529166666667,70.71846723556519L61.447375,89.42124992609023L61.56820833333333,75.58666795492172L62.29320833333333,59.397889375686646L62.716125,75.46123564243317L62.77654166666667,84.26595270633698L62.897375000000004,79.86868679523468L62.957791666666665,92.49761730432509L63.018208333333334,70.82058489322662L63.078625,87.82840013504028L63.19945833333333,78.46357434988022L63.38070833333333,70.24888515472412L63.622375000000005,106.61539673805235L63.924458333333334,87.5139307975769L64.10570833333333,86.86934292316437L64.347375,83.83735030889511L64.528625,91.94122195243834L64.709875,64.97855305671692L64.95154166666667,64.07257050275803L65.01195833333334,104.89085495471953L65.253625,90.94534933567046L65.55570833333333,81.19913399219513L65.616125,121.35970115661621L66.03904166666668,59.48311120271683L66.22029166666667,80.58329820632935L66.46195833333333,70.111623108387L66.64320833333333,70.39235383272171L66.884875,75.43587863445282L67.06733333333334,77.20524609088898L67.309,94.98040258884429L67.49025,75.08225977420807L67.55066666666666,76.07081174850464L67.61108333333333,71.90589666366577L68.034,68.84714126586914L68.3965,78.92283856868744L68.51733333333334,101.31580859422682L68.57775,86.79693222045898L68.81941666666667,84.42074716091156L69.06108333333333,94.18109983205794L69.24233333333333,76.97902232408524L69.30275,96.70520961284636L69.36316666666667,82.12874948978424L69.60483333333333,114.46561872959137L70.14858333333333,98.29484999179839L70.39025,99.85276758670805L70.45066666666666,71.32698237895966L70.51108333333333,76.92565590143204L70.63191666666667,57.83994525671005L70.69233333333334,74.23364877700806L71.05483333333333,112.14089035987853L71.29650000000001,76.51938676834106L71.35691666666666,89.09020304679869L71.47775,87.92287886142731L71.59858333333334,100.39714753627776L71.77983333333333,59.872325360774994L71.84025,98.9574211835861L71.90066666666667,106.09831005334853L71.96108333333333,66.11850440502167L72.14233333333333,74.3107807636261L72.384,85.5297714471817L72.68608333333333,91.90743029117583L72.74650000000001,115.25258779525757L72.80691666666667,67.62607932090759L73.16941666666668,91.87841296195982L73.53191666666666,91.56404972076415L73.77358333333333,72.96433955430984L73.95483333333334,58.0974143743515L74.1965,63.28350603580475L74.43816666666666,76.24894738197327L74.559,90.44401794672011L74.86108333333333,88.86469542980194L76.31108333333333,77.44369745254517L76.43191666666667,79.12365227937698L76.49233333333333,71.47824913263321L76.734,66.2210464477539L76.85483333333333,76.5145593881607L77.09649999999999,88.20276081562042L77.21733333333333,60.63879132270813L77.64145833333333,77.77413427829742L78.00395833333333,115.27152597904205L78.245625,107.2237792611122L78.66854166666667,81.42429679632187L78.72895833333334,121.46189838647842L78.789375,87.02949523925781L78.84979166666666,67.02005743980408L79.151875,99.10966932773589L79.27270833333334,99.34902250766753L79.45395833333333,79.31727796792984L79.51437499999999,108.48558217287062L79.63520833333332,114.06945526599884L80.11854166666667,85.42882084846497L80.17895833333333,98.32216978073119L80.36020833333333,91.64696395397185L80.783125,83.766610622406L80.96437499999999,80.6301662325859L81.50812499999999,101.95729315280913L81.62895833333333,100.30359715223311L81.74979166666667,83.58261317014694L81.93104166666667,100.84582865238188L81.99145833333333,110.34977316856383L82.233125,82.07410991191864L82.53520833333333,92.37894862890242L82.59562500000001,77.01299965381622L82.83729166666666,83.78849297761917L82.89770833333334,79.76922154426575L82.958125,104.33753639459609L83.01854166666666,88.5048434138298L83.26020833333334,85.11549204587936L83.320625,103.21097970008849L83.501875,82.89985716342926L83.56229166666667,108.62515181303023L84.04562499999999,97.03310012817381L84.28729166666666,87.53138363361359L84.408125,105.89293420314787L84.52895833333334,74.28468108177185L84.58937499999999,76.90090894699097L85.01229166666667,77.5145697593689L85.07270833333334,105.44351041316985L85.133125,74.27690953016281L85.314375,100.91961860656737L85.79770833333333,80.06533622741699L85.91854166666666,109.77971792221068L86.16020833333333,85.18530339002609L86.220625,73.81244659423828L86.52270833333333,93.50956350564955L86.94562499999999,96.74751549959181L87.61020833333333,94.84229177236556L87.73104166666667,115.07296681404114L88.09354166666667,91.494742333889L88.15395833333334,87.04466700553894L88.27479166666666,97.843781709671L88.33641666666666,92.42260724306105L88.57808333333334,108.82532894611357L88.81975,109.67561095952986L88.94058333333332,118.14644306898117L89.24266666666668,112.19685614109038L89.30308333333333,121.68676942586899L89.36349999999999,101.7522621154785L89.84683333333334,100.3390598297119L90.20933333333333,113.50019574165343L90.45100000000001,92.7103668451309L90.51141666666666,102.36687779426573L90.57183333333334,119.93063747882843L91.11558333333333,83.21326553821564L91.23641666666667,110.72832465171813L91.41766666666666,101.81469976902007L91.78016666666667,94.60063099861144L92.2635,118.30282896757126L92.38433333333333,80.35524427890778L93.59266666666666,94.96035039424895L93.65308333333334,82.3906746506691L93.89474999999999,128.28853011131287L93.95516666666667,88.79514932632446L94.01558333333332,106.80926114320754L95.10308333333334,72.54544496536255L95.40516666666667,91.29891514778136L95.82808333333334,96.46718263626097L95.8885,103.33842784166335L96.25099999999999,92.78580129146575L96.37183333333333,95.48619002103804L96.67391666666666,87.86988377571106L96.79475,116.21015965938568L96.91558333333333,121.1901593208313L97.15725,122.54832416772842L98.24475,82.83535063266754L98.30516666666668,98.463436961174L98.36558333333333,102.51376807689665L98.48641666666667,116.16753548383713L98.96975,85.22304713726044L99.09179166666667,128.64915132522583L99.45429166666666,132.75542169809341L99.575125,95.29028326272963L99.69595833333334,99.11417841911314L99.756375,100.76588511466979L99.937625,103.57024818658827L100.05845833333333,92.63037025928496L100.23970833333333,113.56106847524642L100.72304166666667,92.48050928115843L101.14595833333333,98.26941341161726L101.50845833333334,102.20163285732268L101.75012500000001,100.28900891542433L101.81054166666667,108.12973529100417L101.87095833333332,101.99172139167784L101.931375,79.70940977334976L102.293875,109.31994974613188L102.89804166666666,102.7693274617195L103.018875,119.4280594587326L103.20012500000001,121.63525968790054L103.26054166666667,102.53649920225142L103.44179166666666,71.85125708580017L103.80429166666667,71.1052942276001L103.925125,109.40079510211943L104.106375,114.1259515285492L104.287625,111.1638233065605L104.468875,99.0104693174362L104.52929166666667,103.26691895723341L105.61679166666667,101.8906646966934L106.28137500000001,111.17392897605895L106.52304166666666,86.67423188686371L107.368875,93.69377315044402L107.42929166666666,124.4771808385849L107.61054166666668,107.51870036125182L107.67095833333333,115.63140451908112L107.79179166666667,92.04768955707549L107.85220833333332,78.46731424331665L109.06054166666667,106.36805981397627L109.12095833333333,120.346959233284L109.18137499999999,81.38615518808365L109.48345833333335,97.83518791198729L109.66470833333334,126.70859754085541L109.84716666666668,116.14101141691208L109.96799999999999,119.31172490119934L110.20966666666666,112.51960098743437L110.45133333333334,103.54908198118208L110.693,114.73329961299896L111.65966666666667,104.0307855606079L112.20341666666667,91.15112304687499L112.26383333333334,111.47762954235075L112.92841666666668,96.0988163948059L113.41175,108.60517919063567L113.47216666666667,109.86387878656386L113.65341666666667,88.56258630752563L113.77425,91.9907423853874L113.83466666666666,82.25829303264618L114.318,128.84519070386887L114.37841666666668,108.35908889770506L114.80133333333333,110.3336465358734L114.92216666666667,114.70757126808167L115.4055,93.7227639555931L115.70758333333335,124.61736053228378L115.768,110.75644016265868L115.94924999999999,102.91136384010314L116.37216666666666,113.06493580341338L117.09716666666667,110.97560852766036L117.39925,112.86794155836104L117.45966666666668,97.96170771121977L117.58049999999999,137.97114074230194L117.64091666666667,99.66895580291747L118.00341666666667,123.14904123544693L118.42633333333333,112.54373788833617L118.48675,93.94187927246092L119.03049999999999,101.85562640428542L119.27216666666666,117.35286951065063L119.393,125.60631036758423L119.63466666666666,113.2168126106262L120.17841666666666,105.39555490016936L120.542125,138.72734189033508L120.60254166666667,92.91515916585921L120.90462500000001,125.23112744092941L121.38795833333333,126.69321358203888L121.50879166666667,137.10242450237274L121.93170833333333,114.84968721866608L121.992125,101.38506293296813L122.23379166666668,111.41397178173064L122.535875,109.97074425220488L122.717125,129.51993644237518L122.83795833333333,117.15913772583008L123.01920833333332,138.9513111114502L123.20045833333333,97.63222575187682L123.442125,118.98346304893494L123.92545833333332,148.98356199264526L124.40879166666667,93.47738981246947L124.529625,104.6139171719551L124.65045833333333,95.312802195549L124.83170833333334,114.51620012521744L124.89212500000001,90.48226565122603L125.25462499999999,116.30129635334015L125.31504166666667,110.29327690601347L125.798375,94.54994350671767L125.979625,117.5663086771965L126.04004166666667,125.76312065124512L126.10045833333334,107.4042224884033L126.160875,95.87007284164427L126.28170833333333,108.41571778059004L126.46295833333333,92.66288876533507L126.88587500000001,124.3559393286705L126.94629166666667,120.99451780319214L127.36920833333333,130.20492047071457L127.429625,99.699909389019L127.49004166666667,100.91571956872939L128.03379166666667,117.17468082904816L128.27545833333332,96.58471077680586L128.39629166666666,93.4640747308731L128.45670833333332,101.27729564905165L128.57754166666666,113.0259984731674L128.879625,108.67342561483382L128.94004166666667,117.62800365686417L129.06087499999998,112.28711754083632L129.12129166666668,116.34405314922333L129.18170833333332,109.43047553300856L129.48379166666666,116.41590684652328L130.329625,111.10989987850188L130.873375,104.17621701955794L131.17666666666665,113.54661285877226L131.59958333333333,114.72990453243256L131.66,118.20614874362946L132.20374999999999,95.48754274845122L132.62666666666667,124.47999238967896L133.17041666666665,116.37869358062744L133.35166666666666,122.50949293375015L133.77458333333334,124.10319149494171L133.89541666666668,131.9800966978073L134.13708333333335,107.18508064746855L134.74125,98.42747032642363L134.80166666666668,121.29198521375656L134.98291666666665,144.21196192502975L135.285,145.49957275390625L135.52666666666667,132.06592857837677L136.31208333333333,126.08878314495087L136.43291666666667,125.48533409833908L136.49333333333334,115.88826358318329L136.85583333333332,126.49812906980515L136.91625,125.14219224452972L136.97666666666666,112.6277396082878L137.0975,120.58116674423218L137.21833333333333,113.40330332517622L137.94333333333333,107.52236068248747L139.03083333333333,111.59380495548247L139.39333333333335,112.02521890401839L139.75583333333333,114.25212651491165L139.81625,97.73673057556151L140.17875,119.97808903455734L140.42041666666668,116.55507862567902L140.54125,137.4850606918335L140.66208333333333,97.79526919126509L141.02458333333334,99.82836544513701L141.20583333333335,131.49773001670837L141.32666666666668,110.1325675845146L141.50791666666666,121.78848922252655L141.68916666666667,76.43806397914886L141.81120833333333,106.21276140213011L142.35495833333331,111.18745625019072L142.47579166666665,122.50758320093155L143.20079166666667,121.73825263977051L143.26120833333334,126.01061671972275L143.321625,112.31491476297377L144.16745833333334,119.21660959720612L144.409125,126.04263126850128L144.65079166666666,124.16255235671997L144.89245833333334,125.03922581672668L144.952875,123.00737619400024L145.134125,119.32864725589752L145.25495833333332,102.23895221948622L145.3757916666667,111.1597916483879L145.859125,113.17609816789626L145.97995833333334,115.48764407634735L146.16120833333335,133.1238940358162L146.34245833333333,95.89696824550627L146.52370833333333,120.29743880033493L146.64454166666667,140.20860493183136L146.82579166666665,126.18129909038544L147.00704166666668,134.33222442865372L147.97370833333335,99.35390293598174L148.396625,128.56883645057678L148.69870833333331,100.68233430385588L148.75912499999998,106.07666641473769L148.81954166666668,103.44298571348189L148.940375,100.9095925092697L149.00079166666666,102.75065451860426L149.121625,120.52254855632782L149.24245833333333,100.47284722328185L149.484125,130.75752288103104L149.72579166666665,97.22624838352202L150.027875,125.77542781829834L150.14870833333333,121.54284983873367L150.57162499999998,115.7868355512619L150.69245833333335,121.50035828351974L150.752875,125.24261236190796L150.93412500000002,103.2620385289192L151.05495833333333,121.39585345983505L151.296625,108.98850500583647L151.477875,126.48826211690903L151.59870833333332,112.05312222242354L151.7195416666667,101.0963749885559L151.77995833333333,105.94232201576231L152.384125,128.78410577774048L152.44454166666665,129.4532549381256L152.627,134.3491467833519L152.80825,120.50278812646866L152.9895,137.63709664344788L153.04991666666666,114.6976512670517L153.23116666666667,116.668681204319L153.29158333333334,125.72373241186142L153.41241666666664,105.35221457481383L153.71450000000002,133.52947354316711L153.77491666666668,126.0240113735199L154.1978333333333,103.30492794513701L154.25825,116.23737335205078L154.49991666666668,139.4068619608879L154.62075,103.8556471467018L154.74158333333335,123.2821124792099L154.98325,116.25535666942596L155.58741666666668,129.31994497776031L155.70825,117.10961729288101L155.82908333333336,115.99351108074188L155.8895,124.6665096282959L156.13116666666667,116.03372156620026L156.31241666666665,124.25716370344162L156.79575,102.01888203620909L157.03741666666667,126.65830790996552L157.21866666666668,112.58620291948317L157.88325,121.2282744050026L158.12491666666665,139.58377748727798L158.24575000000002,126.90588355064392L158.427,116.26665592193604L158.54783333333333,108.69756251573561L158.60825,133.95985305309296L158.7290833333333,124.47089463472366L158.84991666666667,114.35530513525009L158.91033333333334,130.3854963183403L159.03116666666668,120.45064181089401L159.152,122.85740911960602L159.21241666666666,109.00778800249098L159.45408333333333,132.20873415470123L159.63533333333334,133.06800782680511L159.81658333333334,123.48823100328445L160.11866666666668,137.1804317831993L160.84366666666665,96.26302689313887L161.08533333333332,120.2132248878479L161.26658333333333,116.1674028635025L161.87075,109.46140259504317L162.23325,114.78316485881805L162.29366666666667,112.71924763917922L162.4145,116.43617123365402L162.59575,119.49954181909561L162.77700000000002,108.2262298464775L162.83741666666668,127.54943698644638L162.89783333333332,118.42534363269806L163.44279166666666,131.60833537578583L163.50320833333333,159.15347278118134L163.563625,138.31794291734695L163.68445833333334,121.15902006626129L164.40945833333333,122.42612779140472L164.469875,120.28001248836517L164.53029166666667,113.0636891722679L164.59070833333334,129.8037439584732L165.07404166666666,114.82141256332397L165.61779166666668,121.66005969047546L166.644875,124.59391325712204L167.49070833333334,103.96749913692473L167.67195833333335,128.15288603305817L167.73237500000002,145.3674829006195L167.79279166666666,136.30171597003937L167.91362500000002,112.49745339155196L168.39695833333332,122.17353910207748L168.51779166666668,123.15835118293762L168.638625,112.50366002321242L168.75945833333336,143.0191746354103L169.363625,143.50196570158005L169.84695833333333,143.82166028022766L169.907375,131.3097009062767L170.20945833333332,122.06073224544525L170.57195833333336,119.35278415679932L171.05529166666665,122.15308904647827L171.4177916666667,119.44492876529694L171.47820833333333,116.4097797870636L171.59904166666666,125.58405667543411L171.719875,132.24740624427795L172.02195833333334,131.72618180513382L173.169875,127.13611245155334L173.29070833333336,97.98191905021666L173.532375,118.97070497274399L173.59279166666667,123.9186105132103L174.13774999999998,134.3506321310997L174.25858333333335,132.3472163081169L174.43983333333335,147.89119482040405L174.50025,109.75749075412749L174.56066666666666,136.60390466451645L175.16483333333332,129.26694989204407L175.22525000000002,147.47691541910172L175.4065,112.76990860700606L175.52733333333333,128.09206634759903L175.769,121.22294306755066L175.88983333333334,126.45760029554367L176.07108333333335,132.3570567369461L176.19191666666666,120.15359878540039L176.31275000000002,117.35878437757492L176.43358333333333,124.68637615442276L176.97733333333332,137.98848748207092L177.219,128.83405059576035L177.46066666666667,129.12088185548782L177.58149999999998,138.41937094926834L177.76275,122.08627492189407L177.94400000000002,140.6032830476761L178.3065,129.19735074043274L178.36691666666667,107.16937839984892L178.6085833333333,130.41793525218964L178.78983333333335,136.08005434274673L178.97108333333335,118.51202428340912L179.09191666666666,117.61752665042877L179.63566666666665,122.70513445138931L179.81691666666669,122.64911562204361L179.87733333333333,125.92359125614166L179.93775,135.66434264183044L179.99816666666666,111.41288429498671L180.17941666666667,150.44790267944336L180.42108333333334,121.65377348661423L180.78358333333333,133.25473725795746L180.84400000000002,127.984139919281L181.02525,117.47140556573868L181.50858333333332,133.8731724023819L181.81066666666666,119.12422627210617L181.99191666666667,124.44084286689758L182.17316666666667,128.4721827507019L182.23358333333334,109.35758739709853L182.35441666666665,136.52748882770538L182.53566666666666,121.48871421813965L182.59608333333333,141.4571988582611L182.7169166666667,109.38938975334166L183.07941666666667,118.86967480182648L183.26066666666668,111.54563724994658L183.44191666666666,110.658301115036L183.50233333333335,111.38654589653014L183.74400000000003,106.27068996429442L184.83270833333333,141.68397963047028L185.074375,139.63449150323868L185.1952083333333,131.47261172533035L185.49729166666668,127.20905363559723L185.799375,110.40382921695708L186.34312500000001,153.8629823923111L186.58479166666666,135.39785534143448L186.82645833333333,100.82025945186614L187.0077083333333,138.94064843654633L187.91395833333334,111.55998677015303L188.57854166666667,141.03392779827118L188.63895833333333,133.27272057533264L188.82020833333334,110.1411348581314L189.18270833333332,104.01089251041411L189.605625,141.0362884402275L189.66604166666667,124.04311448335648L189.7264583333333,127.59052276611328L189.786875,141.51388078927994L189.84729166666668,123.66450995206833L189.90770833333332,141.54398560523987L190.39104166666667,114.24894362688065L191.780625,145.51665425300598L191.84104166666665,122.73980140686035L191.90145833333335,131.46171033382416L192.324375,121.34076297283173L192.98895833333333,104.98833090066908L193.10979166666667,130.539892911911L193.83479166666666,127.7635657787323L193.89520833333333,100.13941317796706L194.07645833333333,139.6930831670761L194.19729166666667,133.23983073234558L194.2577083333333,115.85367619991302L194.37854166666668,107.0085099339485L195.46725,145.74714839458466L195.76933333333335,145.0576287508011L195.95058333333333,147.84766882658005L196.13183333333333,118.48611027002335L196.67558333333332,130.67089527845383L196.736,130.13428688049316L197.0985,145.7373610138893L197.21933333333334,144.61218357086182L197.27974999999998,150.94249695539474L197.64225000000002,123.86171638965607L197.82350000000002,140.77773183584213L197.88391666666666,131.29765897989273L198.186,128.24752390384674L198.30683333333332,147.6832726597786L198.42766666666668,134.45988476276398L198.60891666666666,113.29808235168456L198.66933333333336,141.698939204216L199.15266666666665,125.19059866666794L199.45475000000002,133.11028718948364L199.57558333333333,172.70430028438568L199.636,135.11988312005997L199.6964166666667,132.50065803527832L200.361,127.10688292980194L200.96516666666665,119.36883121728897L201.4485,132.69425719976425L202.47558333333333,127.28411674499512L202.77766666666668,129.0294799208641L202.89849999999998,109.20568406581877L202.95891666666668,131.05034857988358L203.14016666666666,141.2747398018837L203.74433333333334,128.62448394298553L204.10683333333333,113.96977782249449L204.3485,122.72094279527664L204.65058333333334,127.50681281089783L204.77141666666668,125.8927172422409L204.89225,125.5341649055481L205.01308333333333,156.34563505649567L205.13391666666666,131.33333384990692L205.37558333333334,136.31428837776184L205.436,134.25018548965454L205.61725,134.0852588415146L205.73808333333332,160.3093385696411L205.97975,111.20058566331862L206.04137500000002,152.3638156056404L206.22262500000002,158.35265815258026L206.28304166666666,120.66821873188019L206.403875,134.2839241027832L206.7059583333333,123.78702461719513L206.82679166666668,132.06354141235352L206.88720833333332,145.16306191682816L206.947625,162.88641691207886L207.310125,149.46287840604782L207.43095833333334,138.81391644477844L208.15595833333333,126.14527940750122L208.3372083333333,153.30120265483856L208.45804166666667,132.25451469421387L208.57887499999998,150.87069630622864L208.69970833333335,130.4758107662201L208.82054166666666,152.67271488904953L209.36429166666665,97.5551202893257L209.60595833333332,130.38483321666718L209.72679166666668,131.47327482700348L209.90804166666666,145.1188462972641L210.39137499999998,136.86121463775635L210.63304166666666,128.68071496486664L210.87470833333333,103.86262297630309L211.2372083333333,146.6649341583252L211.78095833333333,123.49815100431442L212.08304166666667,140.97382426261902L212.50595833333333,147.9092311859131L212.68720833333333,127.52437174320221L212.747625,136.3381865620613L213.11012499999998,130.65230190753937L213.17054166666668,124.90058451890945L213.291375,121.48271977901459L213.472625,148.92162829637527L213.77470833333334,154.96404945850372L213.95595833333334,141.2089866399765L214.016375,146.7806851863861L214.13720833333332,134.1253101825714L214.49970833333333,108.02607923746108L215.10387500000002,143.13296288251877L215.5267916666667,137.77751505374908L215.70804166666667,151.61777317523956L215.7684583333333,120.04864305257797L216.191375,121.8952751159668L216.25179166666666,138.73450338840485L216.31220833333333,134.92272973060608L216.372625,127.72484064102173L216.67470833333334,101.7622086405754L216.79675,138.07312577962875L218.24675,126.12843662500381L218.428,132.95334428548813L218.54883333333333,115.63270419836044L218.85091666666665,156.98083341121674L219.03216666666665,152.6687628030777L219.09258333333332,142.6709932088852L219.21341666666666,153.39408993721008L219.27383333333333,129.86681818962097L219.69675,153.94984871149063L219.81758333333332,130.14993607997894L219.93841666666668,152.24321067333221L220.48216666666667,155.6244456768036L220.78425000000001,145.04898190498352L221.328,133.12437146902084L221.44883333333334,107.4130019545555L221.56966666666668,148.17330479621887L221.81133333333335,121.86323404312134L221.99258333333333,157.1859174966812L222.778,158.35865259170532L222.83841666666666,122.91374623775482L222.89883333333333,131.49322092533112L223.26133333333334,156.6183289885521L223.74466666666666,140.29204964637756L223.98633333333333,136.4592158794403L224.10716666666667,150.64343810081482L224.1675833333333,150.9797102212906L224.228,138.61567556858063L224.46966666666668,140.1166194677353L224.77175,142.51550912857056L225.19466666666665,134.40190315246582L225.678,108.62525790929793L225.91966666666667,144.50009286403656L226.16133333333335,130.19783854484558L226.28216666666665,126.30084306001663L226.64466666666667,122.73099541664124L226.82591666666664,137.91002929210663L226.94675,111.350499689579L227.06758333333332,140.24377584457397L227.18841666666668,121.91946506500244L227.36966666666666,121.77886098623276L227.43129166666665,132.92191326618195L227.61254166666666,141.3301220536232L227.85420833333333,157.96479672193527L228.33754166666668,155.87525725364685L228.639625,130.46376883983612L228.70004166666666,159.61950063705444L228.94170833333334,158.68651658296585L229.36462500000002,143.57726752758026L230.02920833333334,142.04542309045792L230.21045833333335,135.8574378490448L230.270875,136.2397027015686L230.45212500000002,143.94393622875214L230.75420833333334,114.65980142354965L231.11670833333332,129.37158733606339L231.177125,137.19626665115356L231.41879166666666,137.236105799675L231.539625,130.5611652135849L231.902125,147.27583646774292L231.96254166666665,146.4780455827713L232.32504166666666,142.8116238117218L232.74795833333332,123.1718784570694L233.11045833333336,149.12891387939453L233.29170833333333,148.48788022994995L233.65420833333334,140.98117142915726L234.13754166666666,132.40365952253342L234.31879166666667,128.14665287733078L234.439625,151.52077466249466L234.50004166666668,138.55671256780624L234.802125,121.59290075302124L234.86254166666666,157.20270723104477L235.04379166666666,115.76821565628052L235.164625,114.81212913990021L235.22504166666664,131.7905557155609L235.345875,149.6893674135208L235.64795833333332,129.76716727018356L236.25212499999998,131.59796446561813L236.61462500000002,123.3353728055954L236.73545833333333,123.44213217496872L236.795875,128.29882144927979L237.03754166666667,134.00080621242523L237.09795833333334,125.92382997274399L237.33962499999998,126.43407344818115L237.46045833333335,126.70727133750916L237.82295833333333,133.70721131563187L237.88337499999997,130.45822530984879L238.064625,136.0455995798111L238.2470833333333,135.2586305141449L238.97208333333333,140.29825627803802L239.27416666666664,138.33242505788803L239.3345833333333,131.1169770359993L239.45541666666668,134.43336069583893L239.99916666666667,150.23549795150757L240.05958333333334,143.30762386322021L240.42208333333335,135.897356569767L240.48250000000002,138.12397241592407L241.32833333333335,142.20194160938263L241.57,143.60331416130066L241.69083333333333,135.28419971466064L241.81166666666667,145.04563987255096L241.99291666666664,142.38715916872025L242.17416666666665,124.86814558506012L242.71791666666667,127.55535185337067L243.08041666666668,136.92662298679352L243.20125,135.31870752573013L243.8658333333333,146.54844045639038L243.92625,126.86169445514679L244.28875,133.23747009038925L244.71166666666667,148.74009758234024L246.16166666666666,136.0699486732483L246.22208333333333,148.67519319057465L246.34291666666667,158.03903758525848L246.52416666666664,148.6658301949501L246.645,135.9588658809662L247.91375000000002,136.59995257854462L248.095,136.7958328127861L248.33666666666664,108.54557961225508L248.3970833333333,140.62792390584946L248.4575,133.00185680389404L248.57833333333332,117.81608581542969L248.76079166666665,158.25473129749298L248.94204166666665,168.88621389865875L249.06287500000002,156.77405178546906L249.18370833333333,150.09759932756424L249.606625,157.76148974895477L249.84829166666668,166.74511164426804L250.02954166666666,123.17758113145828L250.331625,137.86920875310898L250.81495833333332,156.37314051389694L251.056625,135.75338393449783L251.1774583333333,160.2181488275528L251.29829166666667,149.338957965374L251.35870833333334,142.76634722948074L251.72120833333335,153.65569680929184L251.96287500000003,131.9037339091301L252.08370833333333,151.35468095541L252.20454166666664,160.61547935009003L252.38579166666668,137.3804497718811L252.92954166666667,170.78448832035065L253.050375,150.76194763183594L253.11079166666667,145.9277242422104L253.35245833333335,148.55732023715973L253.65454166666666,139.28068697452545L253.775375,133.1137353181839L254.37954166666668,132.64725655317307L254.500375,148.4820979833603L254.62120833333333,168.34438025951385L255.406625,143.4612512588501L255.64829166666667,140.4833146929741L255.769125,145.87220937013626L256.37329166666666,143.0034989118576L256.67537500000003,160.7230344414711L257.0982916666667,137.18236804008484L257.27954166666666,128.1021985411644L257.400375,133.19609254598618L258.6087083333333,131.1379310488701L258.669125,143.87478798627853L258.72954166666665,159.33797419071198L258.850375,138.14779102802277L259.03162499999996,132.49498188495636L259.15245833333336,142.4606043100357L259.45575,168.9994451403618L259.6974166666667,161.3397455215454L260.12033333333335,146.40489220619202L260.18075,136.0529202222824L260.2411666666667,138.57241481542587L260.54325,147.07772821187973L260.60366666666664,150.0904643535614L260.8453333333333,155.89220613241196L261.50991666666664,150.33554673194885L261.87241666666665,145.89634627103806L262.23491666666666,127.46524959802628L262.4161666666667,136.54014080762863L262.537,152.21379548311234L262.8995,154.81803447008133L263.08074999999997,139.4498574733734L263.32241666666664,139.60884273052216L263.5640833333333,162.76865005493164L263.68491666666665,159.11790400743484L263.8661666666667,147.22926020622253L263.987,132.02906012535095L264.2286666666667,147.11393356323242L264.3495,135.03020524978638L264.53075,170.73167890310287L264.8328333333333,138.46141159534454L265.0745,150.02049386501312L265.13491666666664,138.41976881027222L265.25575,143.83455097675323L265.79949999999997,151.87996357679367L265.85991666666666,134.3107134103775L266.5245,138.90255987644196L266.6453333333333,146.62546634674072L266.70575,143.7435469031334L267.1286666666667,128.26651513576508L267.2495,153.1100171804428L267.30991666666665,142.4542385339737L267.37033333333335,151.23107880353928L267.43075,153.7931975722313L267.67241666666666,140.71683257818222L267.79325,160.10276913642883L269.12241666666665,138.1785324215889L269.3036666666667,133.27725619077682L269.8474166666667,149.00462210178375L270.02866666666665,148.86430978775024L270.1495,167.51470744609833L270.3319583333333,154.35227185487747L270.392375,160.68160384893417L270.45279166666666,151.15362852811813L270.573625,142.47163832187653L271.05695833333334,150.96286743879318L271.35904166666666,162.1444857120514L271.78195833333336,151.100235581398L273.473625,149.05491173267365L273.8965416666667,119.70640301704407L274.50070833333336,167.420334815979L274.561125,156.23707205057144L274.8632083333333,172.96593368053436L275.34654166666667,129.13817554712296L275.4069583333333,127.08685725927353L275.467375,133.56477707624435L276.0715416666667,166.89324855804443L276.13195833333333,168.80985110998154L276.192375,144.97203558683395L276.31320833333336,150.15778243541718L276.43404166666664,133.53891611099243L276.554875,138.10638695955276L276.6152916666667,156.1822733283043L276.6757083333333,155.14398872852325L276.79654166666666,144.31612193584442L277.88404166666663,158.78465563058853L278.186125,167.24883019924164L278.4882083333333,144.13729667663574L278.6694583333333,135.06187498569489L278.85070833333333,149.02974039316177L279.15279166666664,159.23567086458206L279.817375,136.6158139705658L280.361125,151.3191121816635L280.542375,149.0156826376915L280.6027916666667,141.3056668639183L281.08733333333333,147.86835759878159L281.44983333333334,148.4527888894081L281.81233333333336,151.85115844011307L281.99358333333333,162.25944101810455" style="fill: none;" fill="none"></path></g></g></g></g></g></g><g transform="translate(40, 178)" clip-path="url(#clip_1)"><clipPath id="clip_1"><rect width="290" height="22"></rect></clipPath><g><g><line x1="0" y1="0" x2="0" y2="5" style="visibility: inherit;" fill="rgb(0, 0, 0)" stroke="rgb(204, 204, 204)" stroke-width="1px"></line><line x1="24.166666666666664" y1="0" x2="24.166666666666664" y2="5" style="visibility: inherit;" fill="rgb(0, 0, 0)" stroke="rgb(204, 204, 204)" stroke-width="1px"></line><line x1="48.33333333333333" y1="0" x2="48.33333333333333" y2="5" style="visibility: inherit;" fill="rgb(0, 0, 0)" stroke="rgb(204, 204, 204)" stroke-width="1px"></line><line x1="72.5" y1="0" x2="72.5" y2="5" style="visibility: inherit;" fill="rgb(0, 0, 0)" stroke="rgb(204, 204, 204)" stroke-width="1px"></line><line x1="96.66666666666666" y1="0" x2="96.66666666666666" y2="5" style="visibility: inherit;" fill="rgb(0, 0, 0)" stroke="rgb(204, 204, 204)" stroke-width="1px"></line><line x1="120.83333333333334" y1="0" x2="120.83333333333334" y2="5" style="visibility: inherit;" fill="rgb(0, 0, 0)" stroke="rgb(204, 204, 204)" stroke-width="1px"></line><line x1="145" y1="0" x2="145" y2="5" style="visibility: inherit;" fill="rgb(0, 0, 0)" stroke="rgb(204, 204, 204)" stroke-width="1px"></line><line x1="169.16666666666669" y1="0" x2="169.16666666666669" y2="5" style="visibility: inherit;" fill="rgb(0, 0, 0)" stroke="rgb(204, 204, 204)" stroke-width="1px"></line><line x1="193.33333333333331" y1="0" x2="193.33333333333331" y2="5" style="visibility: inherit;" fill="rgb(0, 0, 0)" stroke="rgb(204, 204, 204)" stroke-width="1px"></line><line x1="217.5" y1="0" x2="217.5" y2="5" style="visibility: inherit;" fill="rgb(0, 0, 0)" stroke="rgb(204, 204, 204)" stroke-width="1px"></line><line x1="241.66666666666669" y1="0" x2="241.66666666666669" y2="5" style="visibility: inherit;" fill="rgb(0, 0, 0)" stroke="rgb(204, 204, 204)" stroke-width="1px"></line><line x1="265.8333333333333" y1="0" x2="265.8333333333333" y2="5" style="visibility: inherit;" fill="rgb(0, 0, 0)" stroke="rgb(204, 204, 204)" stroke-width="1px"></line><line x1="290" y1="0" x2="290" y2="5" style="visibility: inherit;" fill="rgb(0, 0, 0)" stroke="rgb(204, 204, 204)" stroke-width="1px"></line></g><g transform="translate(0, 8)"><text x="0" y="0" dx="0em" dy="0.95em" style="text-anchor: middle; visibility: hidden; font-family: &quot;Helvetica Neue&quot;, sans-serif; font-size: 12px; font-weight: 200;" fill="rgb(50, 49, 63)" stroke="none" stroke-width="1px">-20k</text><text x="24.166666666666664" y="0" dx="0em" dy="0.95em" style="text-anchor: middle; visibility: inherit; font-family: &quot;Helvetica Neue&quot;, sans-serif; font-size: 12px; font-weight: 200;" fill="rgb(50, 49, 63)" stroke="none" stroke-width="1px">0</text><text x="48.33333333333333" y="0" dx="0em" dy="0.95em" style="text-anchor: middle; visibility: hidden; font-family: &quot;Helvetica Neue&quot;, sans-serif; font-size: 12px; font-weight: 200;" fill="rgb(50, 49, 63)" stroke="none" stroke-width="1px">20k</text><text x="72.5" y="0" dx="0em" dy="0.95em" style="text-anchor: middle; visibility: inherit; font-family: &quot;Helvetica Neue&quot;, sans-serif; font-size: 12px; font-weight: 200;" fill="rgb(50, 49, 63)" stroke="none" stroke-width="1px">40k</text><text x="96.66666666666666" y="0" dx="0em" dy="0.95em" style="text-anchor: middle; visibility: hidden; font-family: &quot;Helvetica Neue&quot;, sans-serif; font-size: 12px; font-weight: 200;" fill="rgb(50, 49, 63)" stroke="none" stroke-width="1px">60k</text><text x="120.83333333333334" y="0" dx="0em" dy="0.95em" style="text-anchor: middle; visibility: inherit; font-family: &quot;Helvetica Neue&quot;, sans-serif; font-size: 12px; font-weight: 200;" fill="rgb(50, 49, 63)" stroke="none" stroke-width="1px">80k</text><text x="145" y="0" dx="0em" dy="0.95em" style="text-anchor: middle; visibility: hidden; font-family: &quot;Helvetica Neue&quot;, sans-serif; font-size: 12px; font-weight: 200;" fill="rgb(50, 49, 63)" stroke="none" stroke-width="1px">100k</text><text x="169.16666666666669" y="0" dx="0em" dy="0.95em" style="text-anchor: middle; visibility: inherit; font-family: &quot;Helvetica Neue&quot;, sans-serif; font-size: 12px; font-weight: 200;" fill="rgb(50, 49, 63)" stroke="none" stroke-width="1px">120k</text><text x="193.33333333333331" y="0" dx="0em" dy="0.95em" style="text-anchor: middle; visibility: hidden; font-family: &quot;Helvetica Neue&quot;, sans-serif; font-size: 12px; font-weight: 200;" fill="rgb(50, 49, 63)" stroke="none" stroke-width="1px">140k</text><text x="217.5" y="0" dx="0em" dy="0.95em" style="text-anchor: middle; visibility: inherit; font-family: &quot;Helvetica Neue&quot;, sans-serif; font-size: 12px; font-weight: 200;" fill="rgb(50, 49, 63)" stroke="none" stroke-width="1px">160k</text><text x="241.66666666666669" y="0" dx="0em" dy="0.95em" style="text-anchor: middle; visibility: hidden; font-family: &quot;Helvetica Neue&quot;, sans-serif; font-size: 12px; font-weight: 200;" fill="rgb(50, 49, 63)" stroke="none" stroke-width="1px">180k</text><text x="265.8333333333333" y="0" dx="0em" dy="0.95em" style="text-anchor: middle; visibility: inherit; font-family: &quot;Helvetica Neue&quot;, sans-serif; font-size: 12px; font-weight: 200;" fill="rgb(50, 49, 63)" stroke="none" stroke-width="1px">200k</text><text x="290" y="0" dx="0em" dy="0.95em" style="text-anchor: middle; visibility: hidden; font-family: &quot;Helvetica Neue&quot;, sans-serif; font-size: 12px; font-weight: 200;" fill="rgb(50, 49, 63)" stroke="none" stroke-width="1px">220k</text></g><line x1="0" y1="0" x2="290" y2="0" fill="rgb(0, 0, 0)" stroke="rgb(204, 204, 204)" stroke-width="1px"></line></g></g></g></g></svg>