<svg viewBox="0 0 330 200" xmlns="http://www.w3.org/2000/svg"><g><g><g><g><g><line x1="40" y1="178" x2="35" y2="178" style="visibility: inherit;" fill="rgb(0, 0, 0)" stroke="rgb(204, 204, 204)" stroke-width="1px"></line><line x1="40" y1="155.74999999999997" x2="35" y2="155.74999999999997" style="visibility: inherit;" fill="rgb(0, 0, 0)" stroke="rgb(204, 204, 204)" stroke-width="1px"></line><line x1="40" y1="133.5" x2="35" y2="133.5" style="visibility: inherit;" fill="rgb(0, 0, 0)" stroke="rgb(204, 204, 204)" stroke-width="1px"></line><line x1="40" y1="111.24999999999999" x2="35" y2="111.24999999999999" style="visibility: inherit;" fill="rgb(0, 0, 0)" stroke="rgb(204, 204, 204)" stroke-width="1px"></line><line x1="40" y1="88.99999999999999" x2="35" y2="88.99999999999999" style="visibility: inherit;" fill="rgb(0, 0, 0)" stroke="rgb(204, 204, 204)" stroke-width="1px"></line><line x1="40" y1="66.75" x2="35" y2="66.75" style="visibility: inherit;" fill="rgb(0, 0, 0)" stroke="rgb(204, 204, 204)" stroke-width="1px"></line><line x1="40" y1="44.49999999999997" x2="35" y2="44.49999999999997" style="visibility: inherit;" fill="rgb(0, 0, 0)" stroke="rgb(204, 204, 204)" stroke-width="1px"></line><line x1="40" y1="22.25000000000003" x2="35" y2="22.25000000000003" style="visibility: inherit;" fill="rgb(0, 0, 0)" stroke="rgb(204, 204, 204)" stroke-width="1px"></line><line x1="40" y1="0" x2="35" y2="0" style="visibility: inherit;" fill="rgb(0, 0, 0)" stroke="rgb(204, 204, 204)" stroke-width="1px"></line></g><g transform="translate(30, 0)"><text x="0" y="178" dx="0em" dy="0.3em" style="text-anchor: end; visibility: hidden; font-family: &quot;Helvetica Neue&quot;, sans-serif; font-size: 12px; font-weight: 200;" fill="rgb(50, 49, 63)" stroke="none" stroke-width="1px">2.4</text><text x="0" y="155.74999999999997" dx="0em" dy="0.3em" style="text-anchor: end; visibility: inherit; font-family: &quot;Helvetica Neue&quot;, sans-serif; font-size: 12px; font-weight: 200;" fill="rgb(50, 49, 63)" stroke="none" stroke-width="1px">2.6</text><text x="0" y="133.5" dx="0em" dy="0.3em" style="text-anchor: end; visibility: hidden; font-family: &quot;Helvetica Neue&quot;, sans-serif; font-size: 12px; font-weight: 200;" fill="rgb(50, 49, 63)" stroke="none" stroke-width="1px">2.8</text><text x="0" y="111.24999999999999" dx="0em" dy="0.3em" style="text-anchor: end; visibility: inherit; font-family: &quot;Helvetica Neue&quot;, sans-serif; font-size: 12px; font-weight: 200;" fill="rgb(50, 49, 63)" stroke="none" stroke-width="1px">3</text><text x="0" y="88.99999999999999" dx="0em" dy="0.3em" style="text-anchor: end; visibility: hidden; font-family: &quot;Helvetica Neue&quot;, sans-serif; font-size: 12px; font-weight: 200;" fill="rgb(50, 49, 63)" stroke="none" stroke-width="1px">3.2</text><text x="0" y="66.75" dx="0em" dy="0.3em" style="text-anchor: end; visibility: inherit; font-family: &quot;Helvetica Neue&quot;, sans-serif; font-size: 12px; font-weight: 200;" fill="rgb(50, 49, 63)" stroke="none" stroke-width="1px">3.4</text><text x="0" y="44.49999999999997" dx="0em" dy="0.3em" style="text-anchor: end; visibility: hidden; font-family: &quot;Helvetica Neue&quot;, sans-serif; font-size: 12px; font-weight: 200;" fill="rgb(50, 49, 63)" stroke="none" stroke-width="1px">3.6</text><text x="0" y="22.25000000000003" dx="0em" dy="0.3em" style="text-anchor: end; visibility: inherit; font-family: &quot;Helvetica Neue&quot;, sans-serif; font-size: 12px; font-weight: 200;" fill="rgb(50, 49, 63)" stroke="none" stroke-width="1px">3.8</text><text x="0" y="0" dx="0em" dy="0.3em" style="text-anchor: end; visibility: hidden; font-family: &quot;Helvetica Neue&quot;, sans-serif; font-size: 12px; font-weight: 200;" fill="rgb(50, 49, 63)" stroke="none" stroke-width="1px">4</text></g><line x1="40" y1="0" x2="40" y2="178" fill="rgb(0, 0, 0)" stroke="rgb(204, 204, 204)" stroke-width="1px"></line></g></g><g transform="translate(40, 0)" clip-path="url(#clip_0)"><clipPath id="clip_0"><rect width="290" height="178"></rect></clipPath><g><g><g><line x1="0" y1="0" x2="0" y2="178" fill="rgb(0, 0, 0)" stroke="rgb(60, 60, 60)" stroke-width="1px" opacity="0.25"></line><line x1="24.166666666666664" y1="0" x2="24.166666666666664" y2="178" fill="rgb(0, 0, 0)" stroke="rgb(60, 60, 60)" stroke-width="1px" opacity="0.25"></line><line x1="48.33333333333333" y1="0" x2="48.33333333333333" y2="178" fill="rgb(0, 0, 0)" stroke="rgb(60, 60, 60)" stroke-width="1px" opacity="0.25"></line><line x1="72.5" y1="0" x2="72.5" y2="178" fill="rgb(0, 0, 0)" stroke="rgb(60, 60, 60)" stroke-width="1px" opacity="0.25"></line><line x1="96.66666666666666" y1="0" x2="96.66666666666666" y2="178" fill="rgb(0, 0, 0)" stroke="rgb(60, 60, 60)" stroke-width="1px" opacity="0.25"></line><line x1="120.83333333333334" y1="0" x2="120.83333333333334" y2="178" fill="rgb(0, 0, 0)" stroke="rgb(60, 60, 60)" stroke-width="1px" opacity="0.25"></line><line x1="145" y1="0" x2="145" y2="178" fill="rgb(0, 0, 0)" stroke="rgb(60, 60, 60)" stroke-width="1px" opacity="0.25"></line><line x1="169.16666666666669" y1="0" x2="169.16666666666669" y2="178" fill="rgb(0, 0, 0)" stroke="rgb(60, 60, 60)" stroke-width="1px" opacity="0.25"></line><line x1="193.33333333333331" y1="0" x2="193.33333333333331" y2="178" fill="rgb(0, 0, 0)" stroke="rgb(60, 60, 60)" stroke-width="1px" opacity="0.25"></line><line x1="217.5" y1="0" x2="217.5" y2="178" fill="rgb(0, 0, 0)" stroke="rgb(60, 60, 60)" stroke-width="1px" opacity="0.25"></line><line x1="241.66666666666669" y1="0" x2="241.66666666666669" y2="178" fill="rgb(0, 0, 0)" stroke="rgb(60, 60, 60)" stroke-width="1px" opacity="0.25"></line><line x1="265.8333333333333" y1="0" x2="265.8333333333333" y2="178" fill="rgb(0, 0, 0)" stroke="rgb(60, 60, 60)" stroke-width="1px" opacity="0.25"></line><line x1="290" y1="0" x2="290" y2="178" fill="rgb(0, 0, 0)" stroke="rgb(60, 60, 60)" stroke-width="1px" opacity="0.25"></line></g><g><line x1="0" y1="178" x2="290" y2="178" fill="rgb(0, 0, 0)" stroke="rgb(60, 60, 60)" stroke-width="1px" opacity="0.25"></line><line x1="0" y1="155.74999999999997" x2="290" y2="155.74999999999997" fill="rgb(0, 0, 0)" stroke="rgb(60, 60, 60)" stroke-width="1px" opacity="0.25"></line><line x1="0" y1="133.5" x2="290" y2="133.5" fill="rgb(0, 0, 0)" stroke="rgb(60, 60, 60)" stroke-width="1px" opacity="0.25"></line><line x1="0" y1="111.24999999999999" x2="290" y2="111.24999999999999" fill="rgb(0, 0, 0)" stroke="rgb(60, 60, 60)" stroke-width="1px" opacity="0.25"></line><line x1="0" y1="88.99999999999999" x2="290" y2="88.99999999999999" fill="rgb(0, 0, 0)" stroke="rgb(60, 60, 60)" stroke-width="1px" opacity="0.25"></line><line x1="0" y1="66.75" x2="290" y2="66.75" fill="rgb(0, 0, 0)" stroke="rgb(60, 60, 60)" stroke-width="1px" opacity="0.25"></line><line x1="0" y1="44.49999999999997" x2="290" y2="44.49999999999997" fill="rgb(0, 0, 0)" stroke="rgb(60, 60, 60)" stroke-width="1px" opacity="0.25"></line><line x1="0" y1="22.25000000000003" x2="290" y2="22.25000000000003" fill="rgb(0, 0, 0)" stroke="rgb(60, 60, 60)" stroke-width="1px" opacity="0.25"></line><line x1="0" y1="0" x2="290" y2="0" fill="rgb(0, 0, 0)" stroke="rgb(60, 60, 60)" stroke-width="1px" opacity="0.25"></line></g></g></g><g><g><line x1="0" y1="444.99999999999994" x2="290" y2="444.99999999999994" fill="rgb(0, 0, 0)" stroke="rgb(153, 153, 153)" stroke-width="1.5px"></line></g></g><g><g><line x1="24.166666666666664" y1="0" x2="24.166666666666664" y2="178" fill="rgb(0, 0, 0)" stroke="rgb(153, 153, 153)" stroke-width="1.5px"></line></g></g><g><g><g><g><g><path stroke="rgb(255, 112, 67)" stroke-width="2px" d="M34.31666666666666,-31.36497187233175L34.861625,12.505904681634263L35.16370833333333,24.42144362543567L35.28454166666667,28.216902251286996L35.34495833333333,29.47854519940725L35.586625,30.549284401706814L36.06995833333333,31.777942235223094L36.55329166666667,32.67344813196411L36.613708333333335,32.95333284332918L36.674125000000004,33.056273574216874L36.915791666666664,33.35242033439394L37.580375,33.894870997779094L37.942875,34.305250800047105L38.24495833333333,34.601723389742915L38.426208333333335,34.82501487044041L39.15120833333334,35.54698497089018L39.513708333333334,36.06014424572072L39.81579166666667,36.45715062025093L39.99704166666667,36.76281220973402L40.238708333333335,37.05709355253245L40.480375,37.38925348871433L40.60120833333334,37.60134229407757L41.749125,38.69583740635531L42.05120833333333,39.286312683832136L42.111625,39.500069089058485L42.41370833333333,39.77277596811166L42.655375,40.03613466030279L42.71579166666666,40.171789717691894L42.836625,40.29564714193876L43.31995833333333,40.70221035409136L43.380375,40.86296546080166L43.742875000000005,41.175045453365044L43.80329166666667,41.29651972140533L43.863708333333335,41.3816442742517L44.044958333333334,41.535757054524765L44.58870833333333,41.96469073582807L45.07204166666667,42.41739945140222L45.9795,53.967608203073624L46.22116666666666,57.71083932804474L46.583666666666666,58.98529556896513L46.82533333333333,59.601054839808455L46.94616666666666,59.79064713493548L47.671166666666664,59.92585835032335L47.73158333333333,60.013173035301804L48.698249999999994,60.28469118819184L49.483666666666664,60.51377163334358L49.54408333333333,60.58602346779011L49.66491666666667,60.635939192179194L50.02741666666667,60.772656724275166L50.57116666666667,61.04146862787637L50.692,61.162847860940204L50.75241666666666,61.25408952960014L50.93366666666667,61.35014079668716L51.296166666666664,61.48705235915959L51.83991666666667,61.754808461062865L52.021166666666666,61.89254398208645L52.081583333333334,61.95646049100695L52.62533333333333,62.156383697743806L52.68575,62.22141084210743L53.592,62.505199483444315L53.712833333333336,62.626894197288195L53.83366666666667,62.682155126757365L54.6795,62.90592084956975L54.98158333333333,63.08354187200311L55.10241666666667,63.179049188464404L55.28366666666666,63.28874566989228L55.767,63.4804197217139L56.1295,63.68497136429286L56.25033333333334,63.7880936956267L56.372375,72.12791716146056L56.734874999999995,74.12538440551637L57.03695833333333,74.92793155171361L57.641125,74.7972844912347L57.76195833333333,74.73031437020711L58.003625,74.68053494578965L58.366125000000004,74.78060416783802L58.607791666666664,74.85901013733722L58.66820833333333,74.81518997467096L58.97029166666667,74.8035292736189L59.091125000000005,74.80909168456483L59.15154166666667,74.8111874453261L59.272375,74.81846310472595L59.393208333333334,74.80141054921184L59.453624999999995,74.82316100994599L59.75570833333334,74.8356461060043L59.816125,74.82294140851486L60.359875,74.75143527566198L60.722375,74.7112680541837L60.84320833333334,74.71592804990303L61.14529166666667,74.8303053116861L61.447375,74.93944288301654L61.56820833333333,75.01373675766051L62.29320833333333,75.19196786672609L62.716125,75.36441355404477L62.77654166666667,75.43085220294367L62.897375000000004,75.4847425604975L62.957791666666665,75.52007065371028L63.018208333333334,75.52871956275511L63.078625,75.51980279042309L63.19945833333333,75.52340335295794L63.38070833333333,75.55881362153946L63.622375000000005,75.61293882427776L63.924458333333334,75.67797005861453L64.10570833333333,75.7066885849519L64.347375,75.74489969672814L64.528625,75.77604388791937L64.709875,75.85235776185586L64.95154166666667,75.91151297592998L65.01195833333334,75.93893286735977L65.253625,75.9789638434385L65.55570833333333,76.04827042563365L65.616125,76.07756601614841L66.03904166666668,76.17155795348616L66.22029166666667,76.2093545945076L66.46195833333333,76.24548032735548L66.64320833333333,76.25629948036304L66.884875,76.30653791563637L67.06733333333334,83.92542020361704L67.309,86.03388290369838L67.49025,86.48448518146375L67.55066666666666,86.5841660536209L67.61108333333333,86.41811581363918L68.034,86.0689103362282L68.3965,85.83072733155845L68.51733333333334,85.72757882258878L68.57775,85.59991956466911L68.81941666666667,85.58978769396093L69.06108333333333,85.32530836228834L69.24233333333333,85.16861507881974L69.30275,85.1200289117971L69.36316666666667,85.11209999286176L69.60483333333333,85.07696939934205L70.14858333333333,85.07099766561069L70.39025,85.01805448242631L70.45066666666666,84.99485618981305L70.51108333333333,85.01223783824621L70.63191666666667,84.99472651223479L70.69233333333334,84.97547371190828L71.05483333333333,84.91930744946615L71.29650000000001,84.85436943739839L71.35691666666666,84.82244824639022L71.47775,84.79315389773565L71.59858333333334,84.76849093908464L71.77983333333333,84.77382890842672L71.84025,84.75264877814749L71.90066666666667,84.76025700789302L71.96108333333333,84.76322645015007L72.14233333333333,84.7477227570608L72.384,84.7235021925567L72.68608333333333,84.72416406680937L72.74650000000001,84.73203073683321L72.80691666666667,84.72007569892091L73.16941666666668,84.72259768016009L73.53191666666666,84.69953301002641L73.77358333333333,84.70742995277068L73.95483333333334,84.74375779847807L74.1965,84.77361290282168L74.43816666666666,84.80934282727884L74.559,84.8373661058779L74.86108333333333,84.88910810999977L76.31108333333333,85.08365224854029L76.43191666666667,85.13941613154381L76.49233333333333,85.16516878401275L76.734,85.17982001362753L76.85483333333333,85.21377380269324L77.09649999999999,85.24065153472893L77.21733333333333,85.23948713145637L77.64145833333333,80.01374013424513L78.00395833333333,88.97341819763365L78.245625,91.51980510997825L78.66854166666667,92.55240202441234L78.72895833333334,92.9443022623492L78.789375,93.04291558309892L78.84979166666666,93.02608246220501L79.151875,92.93859572593378L79.27270833333334,92.93871462757589L79.45395833333333,92.82902023319961L79.51437499999999,92.82767555452753L79.63520833333332,92.7631979624551L80.11854166666667,92.84803326249485L80.17895833333333,92.85994862115494L80.36020833333333,92.85990269361771L80.783125,92.74412462526216L80.96437499999999,92.69086149160165L81.50812499999999,92.58392356879742L81.62895833333333,92.55043111159576L81.74979166666667,92.53687424038105L81.93104166666667,92.50571814946606L81.99145833333333,92.49510877660599L82.233125,92.4295227924934L82.53520833333333,92.35353375077105L82.59562500000001,92.32429434239822L82.83729166666666,92.2711848896145L82.89770833333334,92.2440191114366L82.958125,92.24544987095658L83.01854166666666,92.26706387106557L83.26020833333334,92.19630998821253L83.320625,92.17437828317642L83.501875,92.16688899617009L83.56229166666667,92.14943596250002L84.04562499999999,92.14496129311974L84.28729166666666,92.08957080113251L84.408125,92.10251207371762L84.52895833333334,92.10813973909679L84.58937499999999,92.11515672375582L85.01229166666667,92.13024004509994L85.07270833333334,92.12481321159287L85.133125,92.11878481883792L85.314375,92.11253882461487L85.79770833333333,92.08710369769838L85.91854166666666,92.10119637043508L86.16020833333333,92.11409488973389L86.220625,92.14343815939834L86.52270833333333,92.16011348336107L86.94562499999999,92.20653871586671L87.61020833333333,92.23142072525845L87.73104166666667,92.2515107839323L88.09354166666667,92.28756039288693L88.15395833333334,92.30381536169963L88.27479166666666,92.29630776549611L88.33641666666666,92.38471739979157L88.57808333333334,97.32969085422623L88.81975,98.87946653380234L88.94058333333332,99.2748663962312L89.24266666666668,99.42679527820432L89.30308333333333,99.36396212405347L89.36349999999999,99.50298607655284L89.84683333333334,99.31873473616818L90.20933333333333,99.2242090198171L90.45100000000001,98.93209067859571L90.51141666666666,98.76989071928956L90.57183333333334,98.68431983996483L91.11558333333333,98.53766700210886L91.23641666666667,98.53782311255553L91.41766666666666,98.52866078965313L91.78016666666667,98.51007457242146L92.2635,98.4905921389632L92.38433333333333,98.46534505397004L93.59266666666666,98.28690023693417L93.65308333333334,98.2344065352469L93.89474999999999,98.24242398870557L93.95516666666667,98.26048107663564L94.01558333333332,98.2825155309432L95.10308333333334,98.29142815624456L95.40516666666667,98.22804110275143L95.82808333333334,98.1969565362526L95.8885,98.184214866483L96.25099999999999,98.12885079870335L96.37183333333333,98.08097500827824L96.67391666666666,98.03976461060915L96.79475,98.03698198428178L96.91558333333333,98.03934069404134L97.15725,98.0723917541776L98.24475,98.0373567360006L98.30516666666668,98.03148794225943L98.36558333333333,98.03370060936246L98.48641666666667,98.01390374426737L98.96975,98.00954286672085L99.09179166666667,102.29741759424633L99.45429166666666,105.28179242409836L99.575125,106.18475441395513L99.69595833333334,106.27132992225671L99.756375,106.20526671492398L99.937625,106.14292967344328L100.05845833333333,106.05677520640198L100.23970833333333,105.75357730808109L100.72304166666667,105.36085097677187L101.14595833333333,104.95639809574689L101.50845833333334,104.6578416782797L101.75012500000001,104.54775838727298L101.81054166666667,104.49696492753787L101.87095833333332,104.4531896460127L101.931375,104.40387027704931L102.293875,104.26293130887811L102.89804166666666,104.10445829085492L103.018875,103.99896925643681L103.20012500000001,103.99637966142777L103.26054166666667,103.99725523229448L103.44179166666666,103.9126488466144L103.80429166666667,103.81166273054723L103.925125,103.7426364532031L104.106375,103.71238521072026L104.287625,103.69825965563284L104.468875,103.68965878009745L104.52929166666667,103.69244433617578L105.61679166666667,103.4984580790281L106.28137500000001,103.34545988188029L106.52304166666666,103.29009133084368L107.368875,103.19873064012455L107.42929166666666,103.16937291398986L107.61054166666668,103.1504095309238L107.67095833333333,103.13909476140918L107.79179166666667,103.14323847037491L107.85220833333332,103.15419204396585L109.06054166666667,103.11410596180733L109.12095833333333,103.09771692815062L109.18137499999999,103.0859119178732L109.48345833333335,103.02659560685991L109.66470833333334,103.00802090598835L109.84716666666668,108.4478447402528L109.96799999999999,109.53598751321468L110.20966666666666,109.42735342292498L110.45133333333334,109.51546626719389L110.693,109.4442570729034L111.65966666666667,109.15781544217401L112.20341666666667,108.99928658178135L112.26383333333334,108.88199084690416L112.92841666666668,108.67624707129956L113.41175,108.52428906293919L113.47216666666667,108.49041734079184L113.65341666666667,108.46802027207515L113.77425,108.40832993740413L113.83466666666666,108.37727750943472L114.318,108.31023745419496L114.37841666666668,108.27122438753229L114.80133333333333,108.20151763798172L114.92216666666667,108.14798366320547L115.4055,108.0060402491463L115.70758333333335,107.91815411862054L115.768,107.87868008558847L115.94924999999999,107.85803719027311L116.37216666666666,107.77934078473888L117.09716666666667,107.6808889034362L117.39925,107.63785524138726L117.45966666666668,107.60892195394317L117.58049999999999,107.58108098176325L117.64091666666667,107.56088304182059L118.00341666666667,107.54401775497249L118.42633333333333,107.51071799486301L118.48675,107.50121080484817L119.03049999999999,107.45262850405825L119.27216666666666,107.42667233670375L119.393,107.40659423388429L119.63466666666666,107.39553918754274L120.17841666666666,107.34820067976482L120.542125,112.93379727034146L120.60254166666667,114.07256017037741L120.90462500000001,114.51987153264436L121.38795833333333,114.59942271105218L121.50879166666667,114.52683329520158L121.93170833333333,114.03160187583424L121.992125,113.85267565542836L122.23379166666668,113.74944287507047L122.535875,113.62222250690556L122.717125,113.6135591160968L122.83795833333333,113.52848616515743L123.01920833333332,113.35424383662686L123.20045833333333,113.30885943824809L123.442125,113.2072929652177L123.92545833333332,112.94820943807491L124.40879166666667,112.72072419325991L124.529625,112.64573885440971L124.65045833333333,112.58700076770829L124.83170833333334,112.52953488836302L124.89212500000001,112.50648370149618L125.25462499999999,112.45355969894791L125.31504166666667,112.40162568160557L125.798375,112.24189247747857L125.979625,112.16992844957288L126.04004166666667,112.13216751759704L126.10045833333334,112.08517232521018L126.160875,112.06769460136783L126.28170833333333,112.05979622511597L126.46295833333333,112.02031158539214L126.88587500000001,111.92109061221052L126.94629166666667,111.85717988890343L127.36920833333333,111.75829919839484L127.429625,111.69588307340315L127.49004166666667,111.65976110040954L128.03379166666667,111.56561506670658L128.27545833333332,111.51551807785614L128.39629166666666,111.46844260354216L128.45670833333332,111.45131213205867L128.57754166666666,111.451241739803L128.879625,111.40588038212462L128.94004166666667,111.3871103913975L129.06087499999998,111.38836769435979L129.12129166666668,111.37613799623901L129.18170833333332,111.35770844355899L129.48379166666666,111.32789414207835L130.329625,111.25565547073099L130.873375,111.20496388770408L131.17666666666665,116.25055899172207L131.59958333333333,117.58553162201991L131.66,117.8077445476793L132.20374999999999,117.45847392229865L132.62666666666667,117.3423855249543L133.17041666666665,117.21099283529699L133.35166666666666,117.13087650010995L133.77458333333334,116.95385078153018L133.89541666666668,116.90163427460493L134.13708333333335,116.84495515784118L134.74125,116.7451618527189L134.80166666666668,116.7030440096502L134.98291666666665,116.65247658862009L135.285,116.53448316446944L135.52666666666667,116.4324858575821L136.31208333333333,116.29711394875528L136.43291666666667,116.20256568601515L136.49333333333334,116.17325429800388L136.85583333333332,116.07164521420967L136.91625,116.00467863501598L136.97666666666666,115.97229740864483L137.0975,115.93844613983168L137.21833333333333,115.92370474801643L137.94333333333333,115.72871221442873L139.03083333333333,115.43768326443389L139.39333333333335,115.32412105799307L139.75583333333333,115.26053110957324L139.81625,115.23454725802L140.17875,115.1248758139016L140.42041666666668,115.0569016069711L140.54125,115.0328145423693L140.66208333333333,115.0067616402853L141.02458333333334,114.94107290803639L141.20583333333335,114.87747426241415L141.32666666666668,114.85412429395251L141.50791666666666,114.81852635926883L141.68916666666667,114.78465698715115L141.81120833333333,108.78433007763645L142.35495833333331,117.93869021167401L142.47579166666665,120.52619601079834L143.20079166666667,120.80849535700386L143.26120833333334,120.85744398068402L143.321625,120.774708322379L144.16745833333334,120.72736603966146L144.409125,120.58076316997646L144.65079166666666,120.42016394402157L144.89245833333334,120.27122189839358L144.952875,120.21747866344352L145.134125,120.07966857871983L145.25495833333332,119.97729632771484L145.3757916666667,119.89446751331232L145.859125,119.69510907547158L145.97995833333334,119.61339266483931L146.16120833333335,119.52400517876433L146.34245833333333,119.4005484951004L146.52370833333333,119.35989095486596L146.64454166666667,119.29708046828928L146.82579166666665,119.24886457060344L147.00704166666668,119.2089260874229L147.97370833333335,119.02774486714713L148.396625,118.87981359295284L148.69870833333331,118.762317967809L148.75912499999998,118.73395758044623L148.81954166666668,118.72801168910235L148.940375,118.68837012097708L149.00079166666666,118.66708282603463L149.121625,118.62902159683003L149.24245833333333,118.57131607887776L149.484125,118.50277849303973L149.72579166666665,118.47941362341432L150.027875,118.43229977333604L150.14870833333333,118.38938700569886L150.57162499999998,118.35699941937092L150.69245833333335,118.31818889446245L150.752875,118.30218252798076L150.93412500000002,118.27149843353081L151.05495833333333,118.24899934285295L151.296625,118.21957949564876L151.477875,118.19341210653192L151.59870833333332,118.16933446565216L151.7195416666667,118.13814137410802L151.77995833333333,118.11957429060843L152.384125,118.05291923943015L152.44454166666665,118.01801354605813L152.627,121.55338254844806L152.80825,123.01175080917973L152.9895,123.54838968271818L153.04991666666666,123.38019115017295L153.23116666666667,123.7262266048385L153.29158333333334,123.97407883908136L153.41241666666664,124.03129730971386L153.71450000000002,124.17651839361109L153.77491666666668,124.25859235914209L154.1978333333333,124.11186111924549L154.25825,124.05998797105997L154.49991666666668,123.97585866119637L154.62075,124.0056520022934L154.74158333333335,124.05564130300239L154.98325,123.97349635050878L155.58741666666668,123.86110594655929L155.70825,123.76507848735407L155.82908333333336,123.71746203373596L155.8895,123.71981299242594L156.13116666666667,123.58709691858652L156.31241666666665,123.43359729318729L156.79575,123.13110211690937L157.03741666666667,123.02609422564711L157.21866666666668,122.92983069646425L157.88325,122.70297334977408L158.12491666666665,122.55234937783607L158.24575000000002,122.48831683670443L158.427,122.3903650768845L158.54783333333333,122.34413941884782L158.60825,122.32351338918434L158.7290833333333,122.28646748082468L158.84991666666667,122.23482228164863L158.91033333333334,122.2296890224367L159.03116666666668,122.19883199350087L159.152,122.18758823220747L159.21241666666666,122.16226909084565L159.45408333333333,122.09076626158787L159.63533333333334,122.01584289388965L159.81658333333334,121.95907291745277L160.11866666666668,121.87867327623107L160.84366666666665,121.71823559430996L161.08533333333332,121.62201615639853L161.26658333333333,121.54558206340172L161.87075,121.40879993063359L162.23325,121.29839955098076L162.29366666666667,121.25285821654396L162.4145,121.21934785693287L162.59575,121.17320079877794L162.77700000000002,121.13863608024963L162.83741666666668,121.11803633207816L162.89783333333332,121.09685439537385L163.44279166666666,126.24972524842747L163.50320833333333,127.78262684524397L163.563625,128.27142447167734L163.68445833333334,128.3283858893338L164.40945833333333,128.21405817264386L164.469875,128.02389117835185L164.53029166666667,127.96476159321733L164.59070833333334,127.94873086758693L165.07404166666666,127.65370326682401L165.61779166666668,127.4559662265911L166.644875,126.79049326548976L167.49070833333334,126.27408240309359L167.67195833333335,126.04225526473226L167.73237500000002,125.98199054664764L167.79279166666666,125.93606086095093L167.91362500000002,125.85921037650087L168.39695833333332,125.68619080917827L168.51779166666668,125.5756879703307L168.638625,125.49732684660268L168.75945833333336,125.47008657326788L169.363625,125.22949470243003L169.84695833333333,125.07098130333767L169.907375,125.00129560216766L170.20945833333332,124.92220139379654L170.57195833333336,124.83690546713876L171.05529166666665,124.70091821778597L171.4177916666667,124.60154364117616L171.47820833333333,124.56575274350833L171.59904166666666,124.52826064790071L171.719875,124.49207774390217L172.02195833333334,124.42763895270062L173.169875,124.18726900362023L173.29070833333336,124.1013442848416L173.532375,124.05317525190986L173.59279166666667,124.03003525770568L174.13774999999998,129.97120544921418L174.25858333333335,131.60596864107572L174.43983333333335,131.6901921233038L174.50025,131.52687570454182L174.56066666666666,131.43337604701966L175.16483333333332,130.9014033594741L175.22525000000002,130.6801139211361L175.4065,130.586285289994L175.52733333333333,130.44135123398038L175.769,130.26742035122558L175.88983333333334,130.19188399306492L176.07108333333335,130.01281596777307L176.19191666666666,129.87236981856068L176.31275000000002,129.83998356839194L176.43358333333333,129.69422840648943L176.97733333333332,129.40937421790974L177.219,129.2452502312428L177.46066666666667,129.16192430443073L177.58149999999998,129.1291655844048L177.76275,129.0537227316378L177.94400000000002,128.93957388769624L178.3065,128.85529158225967L178.36691666666667,128.8242326012591L178.6085833333333,128.6875649044317L178.78983333333335,128.5765861496151L178.97108333333335,128.51189598515094L179.09191666666666,128.46306048355837L179.63566666666665,128.22984091199143L179.81691666666669,128.11459050106018L179.87733333333333,128.04936151363555L179.93775,127.97110301452312L179.99816666666666,127.95408672749235L180.17941666666667,127.91318496066103L180.42108333333334,127.86402210592561L180.78358333333333,127.75551067292494L180.84400000000002,127.70459463149254L181.02525,127.65753337725982L181.50858333333332,127.53396343882378L181.81066666666666,127.39436632900086L181.99191666666667,127.33377181443171L182.17316666666667,127.28752038762747L182.23358333333334,127.26766643490132L182.35441666666665,127.22359251250543L182.53566666666666,127.17405358335296L182.59608333333333,127.15531143361605L182.7169166666667,127.11361340527023L183.07941666666667,127.04911682559339L183.26066666666668,126.99853841529278L183.44191666666666,126.94379894157049L183.50233333333335,126.9084574825162L183.74400000000003,126.85212490101436L184.83270833333333,131.59626596313652L185.074375,132.8440701459108L185.1952083333333,132.97280915064388L185.49729166666668,132.90797638142936L185.799375,133.27339871896754L186.34312500000001,132.98166589192584L186.58479166666666,132.81360306218872L186.82645833333333,132.53650158010606L187.0077083333333,132.33181398917048L187.91395833333334,132.07053560557608L188.57854166666667,131.84575250310493L188.63895833333333,131.74855491686702L188.82020833333334,131.67132607450736L189.18270833333332,131.47123393818933L189.605625,131.24429034413455L189.66604166666667,131.1608710504221L189.7264583333333,131.11662857582112L189.786875,131.10428417578325L189.84729166666668,131.09109319703276L189.90770833333332,131.0627204998031L190.39104166666667,130.8698027677445L191.780625,130.42460445604053L191.84104166666665,130.28872410667336L191.90145833333335,130.23015439573646L192.324375,130.08263412136952L192.98895833333333,129.8646294862602L193.10979166666667,129.76456379266307L193.83479166666666,129.5984119634978L193.89520833333333,129.52377967420674L194.07645833333333,129.48401141877014L194.19729166666667,129.4642085990758L194.2577083333333,129.455891196771L194.37854166666668,129.43312097932207L195.46725,134.39949410958684L195.76933333333335,136.31183894814134L195.95058333333333,136.38980758887854L196.13183333333333,136.31808022469977L196.67558333333332,135.98697841111036L196.736,135.92691674811604L197.0985,135.65505231911828L197.21933333333334,135.46857173888355L197.27974999999998,135.40152459039828L197.64225000000002,135.14886068908731L197.82350000000002,135.04556401851286L197.88391666666666,134.95380572760854L198.186,134.79527056898104L198.30683333333332,134.71521803940956L198.42766666666668,134.66678687693366L198.60891666666666,134.59289931881935L198.66933333333336,134.574873458232L199.15266666666665,134.39653408851788L199.45475000000002,134.29999432661108L199.57558333333333,134.24035996704689L199.636,134.19974383863627L199.6964166666667,134.1524119590307L200.361,133.88293681784228L200.96516666666665,133.6310007817857L201.4485,133.44359185240603L202.47558333333333,133.10567297322135L202.77766666666668,132.93283351594982L202.89849999999998,132.83527010182968L202.95891666666668,132.79018212407956L203.14016666666666,132.73911356642884L203.74433333333334,132.55748975192026L204.10683333333333,132.3805542526082L204.3485,132.27255286983953L204.65058333333334,132.1857887274394L204.77141666666668,132.14026429552942L204.89225,132.10703750937915L205.01308333333333,132.06545013335267L205.13391666666666,132.0436533634273L205.37558333333334,131.97207466794276L205.436,131.93784563551316L205.61725,131.87800344470136L205.73808333333332,131.84361912799775L205.97975,131.78759225604804L206.04137500000002,135.50275754451118L206.22262500000002,137.3657181606274L206.28304166666666,138.21933647232L206.403875,138.31936761807427L206.7059583333333,138.15888111314484L206.82679166666668,137.99875850832854L206.88720833333332,137.95954097913622L206.947625,137.9663240003792L207.310125,137.97314915323875L207.43095833333334,138.05607388396453L208.15595833333333,137.8881902992111L208.3372083333333,137.67761190233776L208.45804166666667,137.4818896636312L208.57887499999998,137.39186928823432L208.69970833333335,137.26718299435032L208.82054166666666,137.2097991789772L209.36429166666665,136.94744595543727L209.60595833333332,136.81018015341817L209.72679166666668,136.7671994286682L209.90804166666666,136.8025418793531L210.39137499999998,136.6164103053621L210.63304166666666,136.4434140295569L210.87470833333333,136.31475980194756L211.2372083333333,136.12504796717272L211.78095833333333,135.85480134646212L212.08304166666667,135.71423918294943L212.50595833333333,135.56005674686446L212.68720833333333,135.5116853954983L212.747625,135.47030776270014L213.11012499999998,135.38624501087602L213.17054166666668,135.33323161559804L213.291375,135.30758000241968L213.472625,135.2410833145L213.77470833333334,135.1530496807342L213.95595833333334,135.06577746663822L214.016375,135.0290684002469L214.13720833333332,134.98775458627432L214.49970833333333,134.87656625000685L215.10387500000002,134.70401409831064L215.5267916666667,134.55195034613138L215.70804166666667,134.47051577290873L215.7684583333333,134.4320302978783L216.191375,134.3145422272572L216.25179166666666,134.27049512066512L216.31220833333333,134.2470692229213L216.372625,134.23380299305745L216.67470833333334,134.16275967328497L216.79675,139.83264940729364L218.24675,140.62074016854353L218.428,140.7103407720482L218.54883333333333,140.606751720302L218.85091666666665,140.34735848909398L219.03216666666665,140.1107754123383L219.09258333333332,140.01505088246387L219.21341666666666,139.8805581970111L219.27383333333333,139.78488118776963L219.69675,139.55725288787272L219.81758333333332,139.45860760330794L219.93841666666668,139.40344746982944L220.48216666666667,139.13537435554238L220.78425000000001,138.9627680266582L221.328,138.77067646636615L221.44883333333334,138.68599710242165L221.56966666666668,138.6125051599032L221.81133333333335,138.56244020525475L221.99258333333333,138.46503961939774L222.778,138.18362596291053L222.83841666666666,138.09008554416224L222.89883333333333,138.03935329853695L223.26133333333334,137.8716998122311L223.74466666666666,137.6903589612894L223.98633333333333,137.59449693699636L224.10716666666667,137.5372010861038L224.1675833333333,137.51048753840325L224.228,137.48307111913743L224.46966666666668,137.4461604149782L224.77175,137.34648621057403L225.19466666666665,137.19012515537423L225.678,136.99119149682667L225.91966666666667,136.88260632466603L226.16133333333335,136.77535491499702L226.28216666666665,136.73333906326712L226.64466666666667,136.64420176504262L226.82591666666664,136.58977740692558L226.94675,136.54725227858862L227.06758333333332,136.5240973058529L227.18841666666668,136.49386798808538L227.36966666666666,136.46125643095243L227.43129166666665,142.2842293341186L227.61254166666666,142.92808340070326L227.85420833333333,143.33633654140732L228.33754166666668,143.372179576228L228.639625,143.11484578504263L228.70004166666666,142.99867383615404L228.94170833333334,142.72620374553276L229.36462500000002,142.57223768410944L230.02920833333334,142.3714974325236L230.21045833333335,142.26502534155063L230.270875,142.1764919650674L230.45212500000002,142.05576090491178L230.75420833333334,141.93376275442947L231.11670833333332,141.70676029486336L231.177125,141.61231320131685L231.41879166666666,141.5334772498276L231.539625,141.4858380982538L231.902125,141.36584529367866L231.96254166666665,141.3286777409547L232.32504166666666,141.2637764535139L232.74795833333332,141.08789894943803L233.11045833333336,140.83808575262242L233.29170833333333,140.71393964943175L233.65420833333334,140.57708468513755L234.13754166666666,140.35407309674346L234.31879166666667,140.21288366598824L234.439625,140.14126548612995L234.50004166666668,140.11946439577605L234.802125,139.9952845270439L234.86254166666666,139.93899954840555L235.04379166666666,139.87432299102846L235.164625,139.83986231102205L235.22504166666664,139.7979047668387L235.345875,139.732309155834L235.64795833333332,139.6279842177547L236.25212499999998,139.47399701236242L236.61462500000002,139.3003394471364L236.73545833333333,139.22449518045062L236.795875,139.19210570693096L237.03754166666667,139.12104400289087L237.09795833333334,139.08086157528172L237.33962499999998,139.0099313756454L237.46045833333335,138.96821021737543L237.82295833333333,138.84368008286322L237.88337499999997,138.78751282665303L238.064625,138.7086865150129L238.2470833333333,145.39780783185944L238.97208333333333,146.2444876358795L239.27416666666664,146.31993421095277L239.3345833333333,146.3349000757267L239.45541666666668,146.13379914001615L239.99916666666667,145.89539423118828L240.05958333333334,145.84164123097304L240.42208333333335,145.66623035180345L240.48250000000002,145.55656973453696L241.32833333333335,145.05147950033052L241.57,144.75041504555853L241.69083333333333,144.60407953218794L241.81166666666667,144.5123878143912L241.99291666666664,144.40105098553556L242.17416666666665,144.26967268606444L242.71791666666667,143.99572278684505L243.08041666666668,143.7451922167126L243.20125,143.58106071557953L243.8658333333333,143.22977580072387L243.92625,143.08922471833796L244.28875,142.91399080226594L244.71166666666667,142.70924675068196L246.16166666666666,142.1382007229356L246.22208333333333,141.94534937226857L246.34291666666667,141.84640553499486L246.52416666666664,141.78255938561327L246.645,141.72588194331993L247.91375000000002,141.38089536107023L248.095,141.21449490927588L248.33666666666664,141.10911560220404L248.3970833333333,141.0592134659376L248.4575,141.03460663154382L248.57833333333332,140.98764006374674L248.76079166666665,153.0746039273691L248.94204166666665,149.43349926240302L249.06287500000002,148.7498241620274L249.18370833333333,148.37243986001644L249.606625,148.31797007283876L249.84829166666668,148.24808235037716L250.02954166666666,148.13270361741897L250.331625,147.81583679175532L250.81495833333332,147.42034659521627L251.056625,147.1649732760693L251.1774583333333,147.0090994111331L251.29829166666667,146.93788471435403L251.35870833333334,146.9042104858604L251.72120833333335,146.72851051027914L251.96287500000003,146.59358651976393L252.08370833333333,146.53979689341963L252.20454166666664,146.47132006425312L252.38579166666668,146.3870555971225L252.92954166666667,146.0722819809365L253.050375,145.90213429463648L253.11079166666667,145.8387987361334L253.35245833333335,145.72928469020076L253.65454166666666,145.57630297731745L253.775375,145.50133278128916L254.37954166666668,145.19369208859626L254.500375,145.06521309628258L254.62120833333333,145.01157455210142L255.406625,144.7414885239728L255.64829166666667,144.60665599337008L255.769125,144.52198000499845L256.37329166666666,144.2815731219925L256.67537500000003,144.0958590880775L257.0982916666667,143.91764082240294L257.27954166666666,143.79974838413963L257.400375,143.73101602887564L258.6087083333333,143.39875179796059L258.669125,143.27556690057708L258.72954166666665,143.2269143178481L258.850375,143.18569368465L259.03162499999996,143.12791298730153L259.15245833333336,143.06334471971687L259.45575,161.21861501416834L259.6974166666667,154.72784615719695L260.12033333333335,152.7487919246089L260.18075,152.287141636459L260.2411666666667,152.13344030244588L260.54325,151.70485285718274L260.60366666666664,151.5765922600002L260.8453333333333,151.50927976769123L261.50991666666664,151.35013173819158L261.87241666666665,151.05528116464788L262.23491666666666,150.77805686068587L262.4161666666667,150.66692789814488L262.537,150.58327305442577L262.8995,150.51755234040763L263.08074999999997,150.4647128714262L263.32241666666664,150.45307570496618L263.5640833333333,150.42654309809038L263.68491666666665,150.4078702453966L263.8661666666667,150.36329657805547L263.987,150.2909190385717L264.2286666666667,150.23292615798647L264.3495,150.18221937056643L264.53075,150.10206050406774L264.8328333333333,149.94377454141045L265.0745,149.81359201675434L265.13491666666664,149.74657558800513L265.25575,149.72095630586662L265.79949999999997,149.5836739302293L265.85991666666666,149.51948489429404L266.5245,149.35252891684132L266.6453333333333,149.2534999153154L266.70575,149.19766766134316L267.1286666666667,149.0867283710939L267.2495,149.02401813176579L267.30991666666665,148.98953464122803L267.37033333333335,148.95401294974147L267.43075,148.93125085815095L267.67241666666666,148.88071587319465L267.79325,148.84073150347263L269.12241666666665,148.59843302425918L269.3036666666667,148.48276123004314L269.8474166666667,148.3337250488912L270.02866666666665,148.25219613724695L270.1495,148.22432116393372L270.3319583333333,153.74212070025246L270.392375,155.63739992295876L270.45279166666666,155.58839466308112L270.573625,155.4409958306985L271.05695833333334,155.93447206568828L271.35904166666666,156.14670052573717L271.78195833333336,155.97013263239157L273.473625,154.8721087227276L273.8965416666667,154.38319376856123L274.50070833333336,153.9866466574372L274.561125,153.85875187076633L274.8632083333333,153.7484926037714L275.34654166666667,153.54357865609904L275.4069583333333,153.44426523792202L275.467375,153.3870479796751L276.0715416666667,153.15242789192268L276.13195833333333,153.0534489214518L276.192375,152.99943266094024L276.31320833333336,152.93588232332556L276.43404166666664,152.87765974203973L276.554875,152.82476742386888L276.6152916666667,152.78871756589433L276.6757083333333,152.7680621796728L276.79654166666666,152.71056536596657L277.88404166666663,152.39724938202397L278.186125,152.18034206071047L278.4882083333333,152.03424414467378L278.6694583333333,151.94243803760878L278.85070833333333,151.85607643467625L279.15279166666664,151.72656494838728L279.817375,151.53371807474713L280.361125,151.31566925805456L280.542375,151.20101533520716L280.6027916666667,151.14368910249618L281.08733333333333,156.6596343954103L281.44983333333334,158.41547733067566L281.81233333333336,158.51237057304115L281.99358333333333,158.4963025410644" style="fill: none;" fill="none"></path></g></g></g></g><g opacity="0.2"><g><g><g><path stroke="rgb(255, 112, 67)" stroke-width="2px" d="M34.31666666666666,-30.939422249794006L34.861625,31.30770891904831L35.16370833333333,29.528103172779083L35.28454166666667,29.843527376651764L35.34495833333333,30.019249320030212L35.586625,31.008172631263733L36.06995833333333,32.30450987815857L36.55329166666667,33.05723637342453L36.613708333333335,33.073283433914185L36.674125000000004,33.100391030311584L36.915791666666664,33.47934037446976L37.580375,34.127349853515625L37.942875,34.481127858161926L38.24495833333333,34.72878307104111L38.426208333333335,34.92071121931076L39.15120833333334,35.85640072822571L39.513708333333334,36.28006964921951L39.81579166666667,36.62729620933533L39.99704166666667,36.89381003379822L40.238708333333335,37.183214128017426L40.480375,37.53160774707794L40.60120833333334,37.69223749637604L41.749125,39.1649067401886L42.05120833333333,39.53937351703644L42.111625,39.591678977012634L42.41370833333333,39.88965034484863L42.655375,40.14900267124176L42.71579166666666,40.229927599430084L42.836625,40.34872889518738L43.31995833333333,40.87645173072815L43.380375,40.931860506534576L43.742875000000005,41.308794021606445L43.80329166666667,41.34858012199402L43.863708333333335,41.4181262254715L44.044958333333334,41.60180538892746L44.58870833333333,42.148519456386566L45.07204166666667,42.61141747236252L45.9795,58.91769766807556L46.22116666666666,59.31508123874664L46.583666666666666,59.53149110078812L46.82533333333333,59.86495167016983L46.94616666666666,59.87190097570419L47.671166666666664,59.983806014060974L47.73158333333333,60.05059361457825L48.698249999999994,60.40105611085892L49.483666666666664,60.61194896697998L49.54408333333333,60.61698853969574L49.66491666666667,60.65733164548874L50.02741666666667,60.831249952316284L50.57116666666667,61.15667372941971L50.692,61.214867532253265L50.75241666666666,61.293193101882935L50.93366666666667,61.39130562543869L51.296166666666664,61.545728743076324L51.83991666666667,61.869561076164246L52.021166666666666,61.9515734910965L52.081583333333334,61.98385328054428L52.62533333333333,62.24206507205963L52.68575,62.249279618263245L53.592,62.62682318687439L53.712833333333336,62.67904907464981L53.83366666666667,62.70583838224411L54.6795,63.00182044506073L54.98158333333333,63.159665167331696L55.10241666666667,63.21998089551926L55.28366666666666,63.335758447647095L55.767,63.56256574392319L56.1295,63.772636353969574L56.25033333333334,63.83228898048401L56.372375,75.70212721824646L56.734874999999995,74.98144179582596L57.03695833333333,75.27188032865524L57.641125,74.74129289388657L57.76195833333333,74.7016128897667L58.003625,74.65920090675354L58.366125000000004,74.82349097728729L58.607791666666664,74.89261269569397L58.66820833333333,74.79640990495682L58.97029166666667,74.79853183031082L59.091125000000005,74.81147557497025L59.15154166666667,74.81208562850952L59.272375,74.82158124446869L59.393208333333334,74.79410231113434L59.453624999999995,74.83248263597488L59.75570833333334,74.84099686145782L59.816125,74.81749653816223L60.359875,74.7207897901535L60.722375,74.69405353069305L60.84320833333334,74.7179251909256L61.14529166666667,74.87932413816452L61.447375,74.98621612787247L61.56820833333333,75.04557698965073L62.29320833333333,75.26835262775421L62.716125,75.43831884860992L62.77654166666667,75.45932590961456L62.897375000000004,75.50783842802048L62.957791666666665,75.53521126508713L63.018208333333334,75.53242623806L63.078625,75.51598131656647L63.19945833333333,75.52494645118713L63.38070833333333,75.57398945093155L63.622375000000005,75.63613533973694L63.924458333333334,75.70584058761597L64.10570833333333,75.71899652481079L64.347375,75.76127588748932L64.528625,75.78939139842987L64.709875,75.88506370782852L64.95154166666667,75.93686521053314L65.01195833333334,75.95068424940109L65.253625,75.9961199760437L65.55570833333333,76.0779732465744L65.616125,76.09012126922607L66.03904166666668,76.21184021234512L66.22029166666667,76.22555315494537L66.46195833333333,76.26096278429031L66.64320833333333,76.26093626022339L66.884875,76.32806867361069L67.06733333333334,87.19065546989441L67.309,86.93750977516174L67.49025,86.67760044336319L67.55066666666666,86.6268864274025L67.61108333333333,86.34695142507553L68.034,85.91925084590912L68.3965,85.72864890098572L68.51733333333334,85.68337231874466L68.57775,85.54520845413208L68.81941666666667,85.58544546365738L69.06108333333333,85.21196007728577L69.24233333333333,85.10146081447601L69.30275,85.09920626878738L69.36316666666667,85.10870188474655L69.60483333333333,85.06191343069077L70.14858333333333,85.06843835115433L70.39025,84.99536454677582L70.45066666666666,84.98491406440735L70.51108333333333,85.01968711614609L70.63191666666667,84.98722165822983L70.69233333333334,84.96722251176834L71.05483333333333,84.89523619413376L71.29650000000001,84.82653886079788L71.35691666666666,84.8087677359581L71.47775,84.7805991768837L71.59858333333334,84.75792109966278L71.77983333333333,84.77611660957336L71.84025,84.74357157945633L71.90066666666667,84.76351767778397L71.96108333333333,84.76449906826019L72.14233333333333,84.74107831716537L72.384,84.71312195062637L72.68608333333333,84.72444772720337L72.74650000000001,84.73540216684341L72.80691666666667,84.7149521112442L73.16941666666668,84.72367852926254L73.53191666666666,84.6896481513977L73.77358333333333,84.7108143568039L73.95483333333334,84.75932687520981L74.1965,84.78640794754028L74.43816666666666,84.8246556520462L74.559,84.84937608242035L74.86108333333333,84.91128325462341L76.31108333333333,85.16702830791473L76.43191666666667,85.16331493854523L76.49233333333333,85.1762056350708L76.734,85.18609911203384L76.85483333333333,85.22832542657852L77.09649999999999,85.25217056274414L77.21733333333333,85.23898810148239L77.64145833333333,77.77413427829742L78.00395833333333,92.8132802248001L78.245625,92.61111378669737L78.66854166666667,92.99494355916976L78.72895833333334,93.11225950717925L78.789375,93.08517843484877L78.84979166666666,93.01886826753615L79.151875,92.90110141038893L79.27270833333334,92.9387655854225L79.45395833333333,92.78200834989546L79.51437499999999,92.82709926366805L79.63520833333332,92.7355647087097L80.11854166666667,92.88439124822615L80.17895833333333,92.86505520343779L80.36020833333333,92.8598830103874L80.783125,92.69450545310973L80.96437499999999,92.66803443431853L81.50812499999999,92.53809303045271L81.62895833333333,92.53607720136641L81.74979166666667,92.53106415271758L81.93104166666667,92.49236553907393L81.99145833333333,92.49056190252303L82.233125,92.40141451358794L82.53520833333333,92.32096701860426L82.59562500000001,92.31176316738127L82.83729166666666,92.24842369556426L82.89770833333334,92.2323766350746L82.958125,92.24606305360793L83.01854166666666,92.27632701396941L83.26020833333334,92.1659868955612L83.320625,92.16497898101805L83.501875,92.16367930173872L83.56229166666667,92.14195609092711L84.04562499999999,92.14304357767104L84.28729166666666,92.06583201885222L84.408125,92.1080583333969L84.52895833333334,92.11055159568785L84.58937499999999,92.11816400289534L85.01229166666667,92.13670432567595L85.07270833333334,92.12248742580412L85.133125,92.11620122194289L85.314375,92.1098619699478L85.79770833333333,92.07620292901991L85.91854166666666,92.10723608732222L86.16020833333333,92.11962282657622L86.220625,92.15601384639739L86.52270833333333,92.1672600507736L86.94562499999999,92.22643524408339L87.61020833333333,92.24208444356917L87.73104166666667,92.2601208090782L88.09354166666667,92.303010225296L88.15395833333334,92.31078177690505L88.27479166666666,92.29309022426604L88.33641666666666,92.42260724306105L88.57808333333334,99.44896519184111L88.81975,99.54365611076354L88.94058333333332,99.44432348012923L89.24266666666668,99.49190765619277L89.30308333333333,99.3370336294174L89.36349999999999,99.5625677704811L89.84683333333334,99.23976987600325L90.20933333333333,99.1836979985237L90.45100000000001,98.80689710378645L90.51141666666666,98.70037645101546L90.57183333333334,98.64764660596846L91.11558333333333,98.47481578588484L91.23641666666667,98.53789001703261L91.41766666666666,98.52473407983778L91.78016666666667,98.50210905075072L92.2635,98.48224252462386L92.38433333333333,98.45452487468718L93.59266666666666,98.21042388677596L93.65308333333334,98.21190923452376L93.89474999999999,98.24586004018782L93.95516666666667,98.26821982860564L94.01558333333332,98.29195886850356L95.10308333333334,98.29524785280226L95.40516666666667,98.20087522268294L95.82808333333334,98.18363457918166L95.8885,98.17875415086745L96.25099999999999,98.10512334108351L96.37183333333333,98.06045681238173L96.67391666666666,98.02210301160811L96.79475,98.03578943014143L96.91558333333333,98.04035156965254L97.15725,98.08655649423598L98.24475,98.02234172821044L98.30516666666668,98.0289727449417L98.36558333333333,98.03464889526366L98.48641666666667,98.00541937351225L98.96975,98.00767391920088L99.09179166666667,104.13507819175719L99.45429166666666,106.5608102083206L99.575125,106.57173812389372L99.69595833333334,106.30843371152876L99.756375,106.1769539117813L99.937625,106.11621379852294L100.05845833333333,106.01985186338423L100.23970833333333,105.62363535165785L100.72304166666667,105.19253969192503L101.14595833333333,104.78306114673613L101.50845833333334,104.52988892793654L101.75012500000001,104.50057983398436L101.81054166666667,104.47519630193709L101.87095833333332,104.43442881107329L101.931375,104.38273340463637L102.293875,104.20252889394759L102.89804166666666,104.03654128313063L103.018875,103.95375967025755L103.20012500000001,103.99526983499526L103.26054166666667,103.99763047695158L103.44179166666666,103.87638896703719L103.80429166666667,103.76838296651839L103.925125,103.71305376291274L104.106375,103.69942039251326L104.287625,103.69220584630965L104.468875,103.68597269058226L104.52929166666667,103.6936381459236L105.61679166666667,103.41532111167906L106.28137500000001,103.27988922595976L106.52304166666666,103.26636195182799L107.368875,103.15957605838774L107.42929166666666,103.15679103136061L107.61054166666668,103.14228236675261L107.67095833333333,103.13424557447432L107.79179166666667,103.14501434564589L107.85220833333332,103.15888643264769L109.06054166666667,103.09692621231078L109.12095833333333,103.09069305658339L109.18137499999999,103.0808526277542L109.48345833333335,103.00117433071135L109.66470833333334,103.0000603199005L109.84716666666668,110.77919781208037L109.96799999999999,110.00233441591261L110.20966666666666,109.38079595565794L110.45133333333334,109.55322891473769L110.693,109.41373884677886L111.65966666666667,109.03505474328993L112.20341666666667,108.93134564161299L112.26383333333334,108.83172124624251L112.92841666666668,108.58807116746901L113.41175,108.45916420221327L113.47216666666667,108.47590088844298L113.65341666666667,108.45842152833937L113.77425,108.38274836540221L113.83466666666666,108.36396932601927L114.318,108.2815060019493L114.37841666666668,108.2545045018196L114.80133333333333,108.17164331674574L114.92216666666667,108.12504053115843L115.4055,107.9452073574066L115.70758333333335,107.88048863410948L115.768,107.8617626428604L115.94924999999999,107.84919023513793L116.37216666666666,107.74561375379561L117.09716666666667,107.63869524002074L117.39925,107.61941224336623L117.45966666666668,107.59652197360991L117.58049999999999,107.56914913654326L117.64091666666667,107.55222678184508L118.00341666666667,107.5367897748947L118.42633333333333,107.4964466691017L118.48675,107.49713629484175L119.03049999999999,107.43180751800536L119.27216666666666,107.4155482649803L119.393,107.39798933267592L119.63466666666666,107.39080131053923L120.17841666666666,107.32791274785994L120.542125,115.32762438058853L120.60254166666667,114.56060141324997L120.90462500000001,114.71157640218735L121.38795833333333,114.63351607322693L121.50879166666667,114.4957235455513L121.93170833333333,113.81935983896254L121.992125,113.77599298954009L122.23379166666668,113.70520025491713L122.535875,113.56769949197768L122.717125,113.60984623432158L122.83795833333333,113.49202632904051L123.01920833333332,113.27956855297087L123.20045833333333,113.28940898180007L123.442125,113.16376447677611L123.92545833333332,112.83717364072798L124.40879166666667,112.62323051691054L124.529625,112.61360228061675L124.65045833333333,112.56182730197905L124.83170833333334,112.5049066543579L124.89212500000001,112.49660462141036L125.25462499999999,112.43087798357008L125.31504166666667,112.37936824560164L125.798375,112.17343538999556L125.979625,112.13908672332762L126.04004166666667,112.1159842610359L126.10045833333334,112.06503152847289L126.160875,112.06020414829253L126.28170833333333,112.05641120672225L126.46295833333333,112.00338959693907L126.88587500000001,111.8785673379898L126.94629166666667,111.82978957891463L127.36920833333333,111.7159217596054L127.429625,111.66913330554961L127.49004166666667,111.64428025484084L128.03379166666667,111.52526676654814L128.27545833333332,111.49404793977736L128.39629166666666,111.44826740026473L128.45670833333332,111.44397050142287L128.57754166666666,111.4512115716934L128.879625,111.38643980026244L128.94004166666667,111.37906610965727L129.06087499999998,111.38890653848647L129.12129166666668,111.37089669704436L129.18170833333332,111.34981006383894L129.48379166666666,111.31511658430098L130.329625,111.22469604015349L130.873375,111.18323892354964L131.17666666666665,118.41295689344406L131.59958333333333,118.15766274929047L131.66,117.90297865867615L132.20374999999999,117.3087865114212L132.62666666666667,117.29263335466385L133.17041666666665,117.15468168258667L133.35166666666666,117.09654092788696L133.77458333333334,116.87798261642456L133.89541666666668,116.87925577163696L134.13708333333335,116.82066410779953L134.74125,116.70239329338074L134.80166666666668,116.6849935054779L134.98291666666665,116.63080483675003L135.285,116.48391455411911L135.52666666666667,116.38877272605896L136.31208333333333,116.23909741640091L136.43291666666667,116.16204500198364L136.49333333333334,116.16069227457047L136.85583333333332,116.02809846401215L136.91625,115.97597867250443L136.97666666666666,115.95841974020004L137.0975,115.92393845319748L137.21833333333333,115.91738700866699L137.94333333333333,115.64514398574829L139.03083333333333,115.31295657157898L139.39333333333335,115.27545154094696L139.75583333333333,115.23327827453613L139.81625,115.22341132164001L140.17875,115.07787376642227L140.42041666666668,115.02776980400085L140.54125,115.02249151468277L140.66208333333333,114.99559611082077L141.02458333333334,114.9129205942154L141.20583333333335,114.85021770000458L141.32666666666668,114.84411716461182L141.50791666666666,114.80327010154724L141.68916666666667,114.77014154195786L141.81120833333333,106.21276140213011L142.35495833333331,121.86198741197586L142.47579166666665,121.63512706756592L143.20079166666667,120.92948079109192L143.26120833333334,120.8784219622612L143.321625,120.73925018310547L144.16745833333334,120.70707648992538L144.409125,120.51793336868286L144.65079166666666,120.35133570432663L144.89245833333334,120.20738959312439L144.952875,120.19444584846497L145.134125,120.0206071138382L145.25495833333332,119.93342250585556L145.3757916666667,119.85896944999695L145.859125,119.60966974496841L145.97995833333334,119.57837134599686L146.16120833333335,119.48569625616074L146.34245833333333,119.34763848781586L146.52370833333333,119.34246629476547L146.64454166666667,119.27016168832779L146.82579166666665,119.22820061445236L147.00704166666668,119.1918095946312L147.97370833333335,118.95009577274323L148.396625,118.81641447544098L148.69870833333331,118.71196269989014L148.75912499999998,118.72180312871933L148.81954166666668,118.72546344995499L148.940375,118.67138087749481L149.00079166666666,118.65795969963074L149.121625,118.6127096414566L149.24245833333333,118.54658514261246L149.484125,118.47340524196625L149.72579166666665,118.46940010786057L150.027875,118.41210812330246L150.14870833333333,118.37099581956863L150.57162499999998,118.34311902523041L150.69245833333335,118.30155581235886L150.752875,118.29532265663147L150.93412500000002,118.25834810733795L151.05495833333333,118.23935687541962L151.296625,118.20697098970413L151.477875,118.18219751119614L151.59870833333332,118.15901547670364L151.7195416666667,118.1247729063034L151.77995833333333,118.11161696910858L152.384125,118.02435278892517L152.44454166666665,118.00305396318436L152.627,123.0685406923294L152.80825,123.63676577806473L152.9895,123.77837777137756L153.04991666666666,123.30810606479645L153.23116666666667,123.87452751398087L153.29158333333334,124.0803012251854L153.41241666666664,124.05581951141357L153.71450000000002,124.23875600099564L153.77491666666668,124.29376691579819L154.1978333333333,124.04897630214691L154.25825,124.03775662183762L154.49991666666668,123.93980324268341L154.62075,124.01842057704926L154.74158333333335,124.07706528902054L154.98325,123.93829137086868L155.58741666666668,123.8129386305809L155.70825,123.72392386198044L155.82908333333336,123.69705498218536L155.8895,123.72082054615021L156.13116666666667,123.5302186012268L156.31241666666665,123.36781173944473L156.79575,123.00146132707596L157.03741666666667,122.98109084367752L157.21866666666668,122.88857489824295L157.88325,122.60574877262115L158.12491666666665,122.48779624700546L158.24575000000002,122.46087431907654L158.427,122.3483857512474L158.54783333333333,122.32432842254639L158.60825,122.31467366218567L158.7290833333333,122.27059066295624L158.84991666666667,122.21268862485886L158.91033333333334,122.22748905420303L159.03116666666668,122.18560755252838L159.152,122.1827694773674L159.21241666666666,122.151418030262L159.45408333333333,122.06012219190598L159.63533333333334,121.98373287916183L159.81658333333334,121.93474292755127L160.11866666666668,121.84421628713608L160.84366666666665,121.64947658777237L161.08533333333332,121.5807792544365L161.26658333333333,121.51282459497452L161.87075,121.35017901659012L162.23325,121.25108510255814L162.29366666666667,121.23334050178528L162.4145,121.2049862742424L162.59575,121.1534234881401L162.77700000000002,121.12382262945175L162.83741666666668,121.10920786857605L162.89783333333332,121.08777642250061L163.44279166666666,128.4580984711647L163.50320833333333,128.43958467245102L163.563625,128.48090916872025L163.68445833333334,128.35279792547226L164.40945833333333,128.16506057977676L164.469875,127.94239103794098L164.53029166666667,127.93942034244537L164.59070833333334,127.94186055660248L165.07404166666666,127.52726286649704L165.61779166666668,127.37122178077698L166.644875,126.50529056787491L167.49070833333334,126.05276346206665L167.67195833333335,125.9429007768631L167.73237500000002,125.95616281032562L167.79279166666666,125.91637670993805L167.91362500000002,125.82627445459366L168.39695833333332,125.61203956604004L168.51779166666668,125.52832961082458L168.638625,125.46374350786209L168.75945833333336,125.45841217041016L169.363625,125.1263839006424L169.84695833333333,125.00304698944092L169.907375,124.97143030166626L170.20945833333332,124.88830387592316L170.57195833333336,124.8003500699997L171.05529166666665,124.64263796806335L171.4177916666667,124.55895453691483L171.47820833333333,124.55041378736496L171.59904166666666,124.51219260692596L171.719875,124.47657078504562L172.02195833333334,124.40002232789993L173.169875,124.08425331115723L173.29070833333336,124.06451940536499L173.532375,124.03253138065338L173.59279166666667,124.02011811733246L174.13774999999998,132.51742124557495L174.25858333333335,132.30658143758774L174.43983333333335,131.72628790140152L174.50025,131.4568829536438L174.56066666666666,131.39330476522446L175.16483333333332,130.6734150648117L175.22525000000002,130.58527559041977L175.4065,130.54607301950455L175.52733333333333,130.379236638546L175.769,130.1928785443306L175.88983333333334,130.15951126813889L176.07108333333335,129.93607252836227L176.19191666666666,129.81217861175537L176.31275000000002,129.82610374689102L176.43358333333333,129.6317619085312L176.97733333333332,129.28729385137558L177.219,129.17491137981415L177.46066666666667,129.12621319293976L177.58149999999998,129.1151261329651L177.76275,129.02139008045197L177.94400000000002,128.8906529545784L178.3065,128.8191705942154L178.36691666666667,128.8109216094017L178.6085833333333,128.6289930343628L178.78983333333335,128.52902382612228L178.97108333333335,128.48417162895203L179.09191666666666,128.44213098287582L179.63566666666665,128.12988966703415L179.81691666666669,128.06519746780396L179.87733333333333,128.0214062333107L179.93775,127.93756365776062L179.99816666666666,127.94679403305054L180.17941666666667,127.89565563201904L180.42108333333334,127.84295231103897L180.78358333333333,127.70900577306747L180.84400000000002,127.6827734708786L181.02525,127.63736426830292L181.50858333333332,127.48100489377975L181.81066666666666,127.33453899621964L181.99191666666667,127.30780273675919L182.17316666666667,127.26769834756851L182.23358333333334,127.25915759801865L182.35441666666665,127.20470368862152L182.53566666666666,127.15282261371613L182.59608333333333,127.14727908372879L182.7169166666667,127.09574282169342L183.07941666666667,127.02147543430328L183.26066666666668,126.97686195373535L183.44191666666666,126.92033916711807L183.50233333333335,126.89331114292145L183.74400000000003,126.82798236608505L184.83270833333333,133.62946927547455L185.074375,133.37884336709976L185.1952083333333,133.02798300981522L185.49729166666668,132.88019090890884L185.799375,133.43000829219818L186.34312500000001,132.8566375374794L186.58479166666666,132.74157613515854L186.82645833333333,132.41774380207062L187.0077083333333,132.24409073591232L187.91395833333334,131.95855915546417L188.57854166666667,131.74941688776016L188.63895833333333,131.7068988084793L188.82020833333334,131.63822799921036L189.18270833333332,131.38548016548157L189.605625,131.14702880382538L189.66604166666667,131.1251199245453L189.7264583333333,131.09766751527786L189.786875,131.09899371862411L189.84729166666668,131.08543992042542L189.90770833333332,131.05056077241898L190.39104166666667,130.7871237397194L191.780625,130.23380517959595L191.84104166666665,130.23048967123032L191.90145833333335,130.2050530910492L192.324375,130.01941114664078L192.98895833333333,129.77119892835617L193.10979166666667,129.7216784954071L193.83479166666666,129.52720403671265L193.89520833333333,129.4917944073677L194.07645833333333,129.46696788072586L194.19729166666667,129.45572167634964L194.2577083333333,129.45232659578323L194.37854166666668,129.42336231470108L195.46725,136.5279397368431L195.76933333333335,137.13141530752182L195.95058333333333,136.42322272062302L196.13183333333333,136.287339925766L196.67558333333332,135.84507763385773L196.736,135.9011760354042L197.0985,135.53853899240494L197.21933333333334,135.3886514902115L197.27974999999998,135.3727900981903L197.64225000000002,135.04057615995407L197.82350000000002,135.00129401683807L197.88391666666666,134.9144807457924L198.186,134.72732692956924L198.30683333333332,134.6809098124504L198.42766666666668,134.64603066444397L198.60891666666666,134.5612332224846L198.66933333333336,134.56714808940887L199.15266666666665,134.32010293006897L199.45475000000002,134.2586201429367L199.57558333333333,134.21480238437653L199.636,134.18233692646027L199.6964166666667,134.13212686777115L200.361,133.76744747161865L200.96516666666665,133.52302819490433L201.4485,133.36327373981476L202.47558333333333,132.96085059642792L202.77766666666668,132.8587594628334L202.89849999999998,132.79345721006393L202.95891666666668,132.7708587050438L203.14016666666666,132.71722704172134L203.74433333333334,132.47965097427368L204.10683333333333,132.30472475290298L204.3485,132.2262665629387L204.65058333333334,132.14860409498215L204.77141666666668,132.12075382471085L204.89225,132.09279745817184L205.01308333333333,132.0476269721985L205.13391666666666,132.0343118906021L205.37558333333334,131.94139808416367L205.436,131.92317605018616L205.61725,131.85235679149628L205.73808333333332,131.8288829922676L205.97975,131.76358073949814L206.04137500000002,137.0949712395668L206.22262500000002,138.1641298532486L206.28304166666666,138.58517289161682L206.403875,138.3622381091118L206.7059583333333,138.09010118246078L206.82679166666668,137.93013453483582L206.88720833333332,137.9427334666252L206.947625,137.96923100948334L207.310125,137.97607421875L207.43095833333334,138.0916130542755L208.15595833333333,137.81624019145966L208.3372083333333,137.5873640179634L208.45804166666667,137.3980087041855L208.57887499999998,137.35328912734985L208.69970833333335,137.21374601125717L208.82054166666666,137.18520611524582L209.36429166666665,136.8350088596344L209.60595833333332,136.7513519525528L209.72679166666668,136.74877911806107L209.90804166666666,136.81768864393234L210.39137499999998,136.53663963079453L210.63304166666666,136.36927276849747L210.87470833333333,136.25962227582932L211.2372083333333,136.04374289512634L211.78095833333333,135.73898136615753L212.08304166666667,135.65399825572968L212.50595833333333,135.49397855997086L212.68720833333333,135.4909548163414L212.747625,135.45257449150085L213.11012499999998,135.3502181172371L213.17054166666668,135.3105115890503L213.291375,135.29658645391464L213.472625,135.212584733963L213.77470833333334,135.11532098054886L213.95595833333334,135.02837508916855L214.016375,135.01333594322205L214.13720833333332,134.97004866600037L214.49970833333333,134.82891410589218L215.10387500000002,134.6300631761551L215.5267916666667,134.48678016662598L215.70804166666667,134.43561524152756L215.7684583333333,134.4155365228653L216.191375,134.26419019699097L216.25179166666666,134.2516177892685L216.31220833333333,134.23702955245972L216.372625,134.2281174659729L216.67470833333334,134.13231253623962L216.79675,142.26260215044022L218.24675,140.95849335193634L218.428,140.74874103069305L218.54883333333333,140.56235641241074L218.85091666666665,140.2361899614334L219.03216666666665,140.00938266515732L219.09258333333332,139.97402608394623L219.21341666666666,139.82291847467422L219.27383333333333,139.74387675523758L219.69675,139.4596979022026L219.81758333333332,139.41633105278015L219.93841666666668,139.37980741262436L220.48216666666667,139.02048587799072L220.78425000000001,138.88879388570786L221.328,138.68835151195526L221.44883333333334,138.64970594644547L221.56966666666668,138.5810086131096L221.81133333333335,138.5409837961197L221.99258333333333,138.42329651117325L222.778,138.0630201101303L222.83841666666666,138.0499967932701L222.89883333333333,138.01761090755463L223.26133333333334,137.79984831809998L223.74466666666666,137.61264145374298L223.98633333333333,137.55341321229935L224.10716666666667,137.51264572143555L224.1675833333333,137.499038875103L224.228,137.47132122516632L224.46966666666668,137.43034154176712L224.77175,137.3037686944008L225.19466666666665,137.12311327457428L225.678,136.90593421459198L225.91966666666667,136.8360698223114L226.16133333333335,136.72939002513885L226.28216666666665,136.71533226966858L226.64466666666667,136.60600006580353L226.82591666666664,136.56645268201828L226.94675,136.52902722358704L227.06758333333332,136.514173746109L227.18841666666668,136.480912566185L227.36966666666666,136.44728004932404L227.43129166666665,144.7797891497612L227.61254166666666,143.20402085781097L227.85420833333333,143.51130217313766L228.33754166666668,143.3875408768654L228.639625,143.0045598745346L228.70004166666666,142.94888585805893L228.94170833333334,142.60943084955215L229.36462500000002,142.50625222921371L230.02920833333334,142.2854658961296L230.21045833333335,142.2193944454193L230.270875,142.13854908943176L230.45212500000002,142.00401902198792L230.75420833333334,141.8814778327942L231.11670833333332,141.6094735264778L231.177125,141.57183587551117L231.41879166666666,141.49969041347504L231.539625,141.46542131900787L231.902125,141.31441980600357L231.96254166666665,141.3127487897873L232.32504166666666,141.23596161603928L232.74795833333332,141.01252287626266L233.11045833333336,140.73102295398712L233.29170833333333,140.66073417663574L233.65420833333334,140.51843255758286L234.13754166666666,140.25849670171738L234.31879166666667,140.15237390995026L234.439625,140.11057198047638L234.50004166666668,140.11012107133865L234.802125,139.94206458330154L234.86254166666666,139.91487741470337L235.04379166666666,139.8466044664383L235.164625,139.82509344816208L235.22504166666664,139.77992296218872L235.345875,139.7041967511177L235.64795833333332,139.5832735300064L236.25212499999998,139.4080024957657L236.61462500000002,139.22591477632523L236.73545833333333,139.1919904947281L236.795875,139.178224503994L237.03754166666667,139.09058898687363L237.09795833333334,139.06364053487778L237.33962499999998,138.97953271865845L237.46045833333335,138.95032972097397L237.82295833333333,138.79031002521515L237.88337499999997,138.76344114542007L238.064625,138.67490381002426L238.2470833333333,148.26457411050797L238.97208333333333,146.60735040903091L239.27416666666664,146.35226845741272L239.3345833333333,146.34131401777267L239.45541666666668,146.0476130247116L239.99916666666667,145.79322069883347L240.05958333333334,145.81860423088074L240.42208333333335,145.59105426073074L240.48250000000002,145.509572327137L241.32833333333335,144.83501225709915L241.57,144.6213874220848L241.69083333333333,144.54136431217194L241.81166666666667,144.47309136390686L241.99291666666664,144.35333520174026L242.17416666666665,144.21336770057678L242.71791666666667,143.87831568717957L243.08041666666668,143.63782197237015L243.20125,143.5107186436653L243.8658333333333,143.07922512292862L243.92625,143.02898854017258L244.28875,142.83889055252075L244.71166666666667,142.62149930000305L246.16166666666666,141.8934667110443L246.22208333333333,141.86269879341125L246.34291666666667,141.80400103330612L246.52416666666664,141.75519675016403L246.645,141.7015916109085L247.91375000000002,141.23304396867752L248.095,141.14318042993546L248.33666666666664,141.06395304203033L248.3970833333333,141.03782683610916L248.4575,141.02406084537506L248.57833333333332,140.96751153469086L248.76079166666665,158.25473129749298L248.94204166666665,147.8730258345604L249.06287500000002,148.45682054758072L249.18370833333333,148.2107037305832L249.606625,148.29462587833405L249.84829166666668,148.2181304693222L250.02954166666666,148.08325558900833L250.331625,147.68003672361374L250.81495833333332,147.25085079669952L251.056625,147.05552756786346L251.1774583333333,146.94229632616043L251.29829166666667,146.90736413002014L251.35870833333334,146.88977867364883L251.72120833333335,146.65321052074432L251.96287500000003,146.5357619524002L252.08370833333333,146.51674419641495L252.20454166666664,146.44197285175323L252.38579166666668,146.35094225406647L252.92954166666667,145.9373790025711L253.050375,145.82921385765076L253.11079166666667,145.81165492534637L253.35245833333335,145.68235009908676L253.65454166666666,145.5107393860817L253.775375,145.46920269727707L254.37954166666668,145.06184607744217L254.500375,145.01015067100525L254.62120833333333,144.98858660459518L255.406625,144.62573736906052L255.64829166666667,144.54887062311172L255.769125,144.48569029569626L256.37329166666666,144.1785416007042L256.67537500000003,144.01626735925674L257.0982916666667,143.84126156568527L257.27954166666666,143.74922305345535L257.400375,143.70155930519104L258.6087083333333,143.2563528418541L258.669125,143.22277337312698L258.72954166666665,143.2060632109642L258.850375,143.16802769899368L259.03162499999996,143.103149831295L259.15245833333336,143.0356726050377L259.45575,168.9994451403618L259.6974166666667,151.94608807563782L260.12033333333335,151.90062582492828L260.18075,152.08929151296616L260.2411666666667,152.06756830215454L260.54325,151.52117252349854L260.60366666666664,151.52162343263626L260.8453333333333,151.48043155670166L261.50991666666664,151.2819254398346L261.87241666666665,150.92891663312912L262.23491666666666,150.65924644470215L262.4161666666667,150.61930119991302L262.537,150.54742097854614L262.8995,150.48938632011414L263.08074999999997,150.44206738471985L263.32241666666664,150.44808834791183L263.5640833333333,150.41517198085785L263.68491666666665,150.3998675942421L263.8661666666667,150.34419357776642L263.987,150.2599000930786L264.2286666666667,150.20807206630707L264.3495,150.16048789024353L264.53075,150.0677067041397L264.8328333333333,149.8759377002716L265.0745,149.75779950618744L265.13491666666664,149.71785426139832L265.25575,149.70997661352158L265.79949999999997,149.52483862638474L265.85991666666666,149.4919753074646L266.5245,149.28097635507584L266.6453333333333,149.2110589146614L266.70575,149.17373955249786L267.1286666666667,149.0391829609871L267.2495,148.9971423149109L267.30991666666665,148.97475600242615L267.37033333333335,148.93878936767578L267.43075,148.92149567604065L267.67241666666666,148.85905802249908L267.79325,148.8235953450203L269.12241666666665,148.494590818882L269.3036666666667,148.4331876039505L269.8474166666667,148.26985239982605L270.02866666666665,148.21725517511368L270.1495,148.21237474679947L270.3319583333333,156.1068919301033L270.392375,156.4496624469757L270.45279166666666,155.5673924088478L270.573625,155.37782490253448L271.05695833333334,156.1459618806839L271.35904166666666,156.2376555800438L271.78195833333336,155.8944606781006L273.473625,154.4015270471573L273.8965416666667,154.1736587882042L274.50070833333336,153.8166978955269L274.561125,153.80393981933594L274.8632083333333,153.70123863220215L275.34654166666667,153.45575839281082L275.4069583333333,153.40170234441757L275.467375,153.36252629756927L276.0715416666667,153.0518764257431L276.13195833333333,153.01102936267853L276.192375,152.9762828350067L276.31320833333336,152.90864646434784L276.43404166666664,152.8527072072029L276.554875,152.80209928750992L276.6152916666667,152.7732676267624L276.6757083333333,152.75920987129211L276.79654166666666,152.6859238743782L277.88404166666663,152.26297110319138L278.186125,152.08738178014755L278.4882083333333,151.97163075208664L278.6694583333333,151.9030925631523L278.85070833333333,151.81906431913376L279.15279166666664,151.671060025692L279.817375,151.45106941461563L280.361125,151.2222197651863L280.542375,151.15187793970108L280.6027916666667,151.11912071704865L281.08733333333333,159.0236109495163L281.44983333333334,159.16798144578934L281.81233333333336,158.5538962483406L281.99358333333333,158.4894162416458" style="fill: none;" fill="none"></path></g></g></g></g></g></g><g transform="translate(40, 178)" clip-path="url(#clip_1)"><clipPath id="clip_1"><rect width="290" height="22"></rect></clipPath><g><g><line x1="0" y1="0" x2="0" y2="5" style="visibility: inherit;" fill="rgb(0, 0, 0)" stroke="rgb(204, 204, 204)" stroke-width="1px"></line><line x1="24.166666666666664" y1="0" x2="24.166666666666664" y2="5" style="visibility: inherit;" fill="rgb(0, 0, 0)" stroke="rgb(204, 204, 204)" stroke-width="1px"></line><line x1="48.33333333333333" y1="0" x2="48.33333333333333" y2="5" style="visibility: inherit;" fill="rgb(0, 0, 0)" stroke="rgb(204, 204, 204)" stroke-width="1px"></line><line x1="72.5" y1="0" x2="72.5" y2="5" style="visibility: inherit;" fill="rgb(0, 0, 0)" stroke="rgb(204, 204, 204)" stroke-width="1px"></line><line x1="96.66666666666666" y1="0" x2="96.66666666666666" y2="5" style="visibility: inherit;" fill="rgb(0, 0, 0)" stroke="rgb(204, 204, 204)" stroke-width="1px"></line><line x1="120.83333333333334" y1="0" x2="120.83333333333334" y2="5" style="visibility: inherit;" fill="rgb(0, 0, 0)" stroke="rgb(204, 204, 204)" stroke-width="1px"></line><line x1="145" y1="0" x2="145" y2="5" style="visibility: inherit;" fill="rgb(0, 0, 0)" stroke="rgb(204, 204, 204)" stroke-width="1px"></line><line x1="169.16666666666669" y1="0" x2="169.16666666666669" y2="5" style="visibility: inherit;" fill="rgb(0, 0, 0)" stroke="rgb(204, 204, 204)" stroke-width="1px"></line><line x1="193.33333333333331" y1="0" x2="193.33333333333331" y2="5" style="visibility: inherit;" fill="rgb(0, 0, 0)" stroke="rgb(204, 204, 204)" stroke-width="1px"></line><line x1="217.5" y1="0" x2="217.5" y2="5" style="visibility: inherit;" fill="rgb(0, 0, 0)" stroke="rgb(204, 204, 204)" stroke-width="1px"></line><line x1="241.66666666666669" y1="0" x2="241.66666666666669" y2="5" style="visibility: inherit;" fill="rgb(0, 0, 0)" stroke="rgb(204, 204, 204)" stroke-width="1px"></line><line x1="265.8333333333333" y1="0" x2="265.8333333333333" y2="5" style="visibility: inherit;" fill="rgb(0, 0, 0)" stroke="rgb(204, 204, 204)" stroke-width="1px"></line><line x1="290" y1="0" x2="290" y2="5" style="visibility: inherit;" fill="rgb(0, 0, 0)" stroke="rgb(204, 204, 204)" stroke-width="1px"></line></g><g transform="translate(0, 8)"><text x="0" y="0" dx="0em" dy="0.95em" style="text-anchor: middle; visibility: hidden; font-family: &quot;Helvetica Neue&quot;, sans-serif; font-size: 12px; font-weight: 200;" fill="rgb(50, 49, 63)" stroke="none" stroke-width="1px">-20k</text><text x="24.166666666666664" y="0" dx="0em" dy="0.95em" style="text-anchor: middle; visibility: inherit; font-family: &quot;Helvetica Neue&quot;, sans-serif; font-size: 12px; font-weight: 200;" fill="rgb(50, 49, 63)" stroke="none" stroke-width="1px">0</text><text x="48.33333333333333" y="0" dx="0em" dy="0.95em" style="text-anchor: middle; visibility: hidden; font-family: &quot;Helvetica Neue&quot;, sans-serif; font-size: 12px; font-weight: 200;" fill="rgb(50, 49, 63)" stroke="none" stroke-width="1px">20k</text><text x="72.5" y="0" dx="0em" dy="0.95em" style="text-anchor: middle; visibility: inherit; font-family: &quot;Helvetica Neue&quot;, sans-serif; font-size: 12px; font-weight: 200;" fill="rgb(50, 49, 63)" stroke="none" stroke-width="1px">40k</text><text x="96.66666666666666" y="0" dx="0em" dy="0.95em" style="text-anchor: middle; visibility: hidden; font-family: &quot;Helvetica Neue&quot;, sans-serif; font-size: 12px; font-weight: 200;" fill="rgb(50, 49, 63)" stroke="none" stroke-width="1px">60k</text><text x="120.83333333333334" y="0" dx="0em" dy="0.95em" style="text-anchor: middle; visibility: inherit; font-family: &quot;Helvetica Neue&quot;, sans-serif; font-size: 12px; font-weight: 200;" fill="rgb(50, 49, 63)" stroke="none" stroke-width="1px">80k</text><text x="145" y="0" dx="0em" dy="0.95em" style="text-anchor: middle; visibility: hidden; font-family: &quot;Helvetica Neue&quot;, sans-serif; font-size: 12px; font-weight: 200;" fill="rgb(50, 49, 63)" stroke="none" stroke-width="1px">100k</text><text x="169.16666666666669" y="0" dx="0em" dy="0.95em" style="text-anchor: middle; visibility: inherit; font-family: &quot;Helvetica Neue&quot;, sans-serif; font-size: 12px; font-weight: 200;" fill="rgb(50, 49, 63)" stroke="none" stroke-width="1px">120k</text><text x="193.33333333333331" y="0" dx="0em" dy="0.95em" style="text-anchor: middle; visibility: hidden; font-family: &quot;Helvetica Neue&quot;, sans-serif; font-size: 12px; font-weight: 200;" fill="rgb(50, 49, 63)" stroke="none" stroke-width="1px">140k</text><text x="217.5" y="0" dx="0em" dy="0.95em" style="text-anchor: middle; visibility: inherit; font-family: &quot;Helvetica Neue&quot;, sans-serif; font-size: 12px; font-weight: 200;" fill="rgb(50, 49, 63)" stroke="none" stroke-width="1px">160k</text><text x="241.66666666666669" y="0" dx="0em" dy="0.95em" style="text-anchor: middle; visibility: hidden; font-family: &quot;Helvetica Neue&quot;, sans-serif; font-size: 12px; font-weight: 200;" fill="rgb(50, 49, 63)" stroke="none" stroke-width="1px">180k</text><text x="265.8333333333333" y="0" dx="0em" dy="0.95em" style="text-anchor: middle; visibility: inherit; font-family: &quot;Helvetica Neue&quot;, sans-serif; font-size: 12px; font-weight: 200;" fill="rgb(50, 49, 63)" stroke="none" stroke-width="1px">200k</text><text x="290" y="0" dx="0em" dy="0.95em" style="text-anchor: middle; visibility: hidden; font-family: &quot;Helvetica Neue&quot;, sans-serif; font-size: 12px; font-weight: 200;" fill="rgb(50, 49, 63)" stroke="none" stroke-width="1px">220k</text></g><line x1="0" y1="0" x2="290" y2="0" fill="rgb(0, 0, 0)" stroke="rgb(204, 204, 204)" stroke-width="1px"></line></g></g></g></g></svg>