<svg viewBox="0 0 330 200" xmlns="http://www.w3.org/2000/svg"><g><g><g><g><g><line x1="30" y1="178" x2="25" y2="178" style="visibility: inherit;" fill="rgb(0, 0, 0)" stroke="rgb(204, 204, 204)" stroke-width="1px"></line><line x1="30" y1="160.2" x2="25" y2="160.2" style="visibility: inherit;" fill="rgb(0, 0, 0)" stroke="rgb(204, 204, 204)" stroke-width="1px"></line><line x1="30" y1="142.4" x2="25" y2="142.4" style="visibility: inherit;" fill="rgb(0, 0, 0)" stroke="rgb(204, 204, 204)" stroke-width="1px"></line><line x1="30" y1="124.6" x2="25" y2="124.6" style="visibility: inherit;" fill="rgb(0, 0, 0)" stroke="rgb(204, 204, 204)" stroke-width="1px"></line><line x1="30" y1="106.8" x2="25" y2="106.8" style="visibility: inherit;" fill="rgb(0, 0, 0)" stroke="rgb(204, 204, 204)" stroke-width="1px"></line><line x1="30" y1="89" x2="25" y2="89" style="visibility: inherit;" fill="rgb(0, 0, 0)" stroke="rgb(204, 204, 204)" stroke-width="1px"></line><line x1="30" y1="71.2" x2="25" y2="71.2" style="visibility: inherit;" fill="rgb(0, 0, 0)" stroke="rgb(204, 204, 204)" stroke-width="1px"></line><line x1="30" y1="53.400000000000006" x2="25" y2="53.400000000000006" style="visibility: inherit;" fill="rgb(0, 0, 0)" stroke="rgb(204, 204, 204)" stroke-width="1px"></line><line x1="30" y1="35.599999999999994" x2="25" y2="35.599999999999994" style="visibility: inherit;" fill="rgb(0, 0, 0)" stroke="rgb(204, 204, 204)" stroke-width="1px"></line><line x1="30" y1="17.799999999999983" x2="25" y2="17.799999999999983" style="visibility: inherit;" fill="rgb(0, 0, 0)" stroke="rgb(204, 204, 204)" stroke-width="1px"></line><line x1="30" y1="0" x2="25" y2="0" style="visibility: inherit;" fill="rgb(0, 0, 0)" stroke="rgb(204, 204, 204)" stroke-width="1px"></line></g><g transform="translate(20, 0)"><text x="0" y="178" dx="0em" dy="0.3em" style="text-anchor: end; visibility: hidden; font-family: &quot;Helvetica Neue&quot;, sans-serif; font-size: 12px; font-weight: 200;" fill="rgb(50, 49, 63)" stroke="none" stroke-width="1px">68</text><text x="0" y="160.2" dx="0em" dy="0.3em" style="text-anchor: end; visibility: inherit; font-family: &quot;Helvetica Neue&quot;, sans-serif; font-size: 12px; font-weight: 200;" fill="rgb(50, 49, 63)" stroke="none" stroke-width="1px">70</text><text x="0" y="142.4" dx="0em" dy="0.3em" style="text-anchor: end; visibility: hidden; font-family: &quot;Helvetica Neue&quot;, sans-serif; font-size: 12px; font-weight: 200;" fill="rgb(50, 49, 63)" stroke="none" stroke-width="1px">72</text><text x="0" y="124.6" dx="0em" dy="0.3em" style="text-anchor: end; visibility: inherit; font-family: &quot;Helvetica Neue&quot;, sans-serif; font-size: 12px; font-weight: 200;" fill="rgb(50, 49, 63)" stroke="none" stroke-width="1px">74</text><text x="0" y="106.8" dx="0em" dy="0.3em" style="text-anchor: end; visibility: hidden; font-family: &quot;Helvetica Neue&quot;, sans-serif; font-size: 12px; font-weight: 200;" fill="rgb(50, 49, 63)" stroke="none" stroke-width="1px">76</text><text x="0" y="89" dx="0em" dy="0.3em" style="text-anchor: end; visibility: inherit; font-family: &quot;Helvetica Neue&quot;, sans-serif; font-size: 12px; font-weight: 200;" fill="rgb(50, 49, 63)" stroke="none" stroke-width="1px">78</text><text x="0" y="71.2" dx="0em" dy="0.3em" style="text-anchor: end; visibility: hidden; font-family: &quot;Helvetica Neue&quot;, sans-serif; font-size: 12px; font-weight: 200;" fill="rgb(50, 49, 63)" stroke="none" stroke-width="1px">80</text><text x="0" y="53.400000000000006" dx="0em" dy="0.3em" style="text-anchor: end; visibility: inherit; font-family: &quot;Helvetica Neue&quot;, sans-serif; font-size: 12px; font-weight: 200;" fill="rgb(50, 49, 63)" stroke="none" stroke-width="1px">82</text><text x="0" y="35.599999999999994" dx="0em" dy="0.3em" style="text-anchor: end; visibility: hidden; font-family: &quot;Helvetica Neue&quot;, sans-serif; font-size: 12px; font-weight: 200;" fill="rgb(50, 49, 63)" stroke="none" stroke-width="1px">84</text><text x="0" y="17.799999999999983" dx="0em" dy="0.3em" style="text-anchor: end; visibility: inherit; font-family: &quot;Helvetica Neue&quot;, sans-serif; font-size: 12px; font-weight: 200;" fill="rgb(50, 49, 63)" stroke="none" stroke-width="1px">86</text><text x="0" y="0" dx="0em" dy="0.3em" style="text-anchor: end; visibility: hidden; font-family: &quot;Helvetica Neue&quot;, sans-serif; font-size: 12px; font-weight: 200;" fill="rgb(50, 49, 63)" stroke="none" stroke-width="1px">88</text></g><line x1="30" y1="0" x2="30" y2="178" fill="rgb(0, 0, 0)" stroke="rgb(204, 204, 204)" stroke-width="1px"></line></g></g><g transform="translate(30, 0)" clip-path="url(#clip_0)"><clipPath id="clip_0"><rect width="300" height="178"></rect></clipPath><g><g><g><line x1="0" y1="0" x2="0" y2="178" fill="rgb(0, 0, 0)" stroke="rgb(60, 60, 60)" stroke-width="1px" opacity="0.25"></line><line x1="25" y1="0" x2="25" y2="178" fill="rgb(0, 0, 0)" stroke="rgb(60, 60, 60)" stroke-width="1px" opacity="0.25"></line><line x1="50" y1="0" x2="50" y2="178" fill="rgb(0, 0, 0)" stroke="rgb(60, 60, 60)" stroke-width="1px" opacity="0.25"></line><line x1="75" y1="0" x2="75" y2="178" fill="rgb(0, 0, 0)" stroke="rgb(60, 60, 60)" stroke-width="1px" opacity="0.25"></line><line x1="100" y1="0" x2="100" y2="178" fill="rgb(0, 0, 0)" stroke="rgb(60, 60, 60)" stroke-width="1px" opacity="0.25"></line><line x1="125" y1="0" x2="125" y2="178" fill="rgb(0, 0, 0)" stroke="rgb(60, 60, 60)" stroke-width="1px" opacity="0.25"></line><line x1="150" y1="0" x2="150" y2="178" fill="rgb(0, 0, 0)" stroke="rgb(60, 60, 60)" stroke-width="1px" opacity="0.25"></line><line x1="175" y1="0" x2="175" y2="178" fill="rgb(0, 0, 0)" stroke="rgb(60, 60, 60)" stroke-width="1px" opacity="0.25"></line><line x1="200" y1="0" x2="200" y2="178" fill="rgb(0, 0, 0)" stroke="rgb(60, 60, 60)" stroke-width="1px" opacity="0.25"></line><line x1="225" y1="0" x2="225" y2="178" fill="rgb(0, 0, 0)" stroke="rgb(60, 60, 60)" stroke-width="1px" opacity="0.25"></line><line x1="250" y1="0" x2="250" y2="178" fill="rgb(0, 0, 0)" stroke="rgb(60, 60, 60)" stroke-width="1px" opacity="0.25"></line><line x1="275" y1="0" x2="275" y2="178" fill="rgb(0, 0, 0)" stroke="rgb(60, 60, 60)" stroke-width="1px" opacity="0.25"></line><line x1="300" y1="0" x2="300" y2="178" fill="rgb(0, 0, 0)" stroke="rgb(60, 60, 60)" stroke-width="1px" opacity="0.25"></line></g><g><line x1="0" y1="178" x2="300" y2="178" fill="rgb(0, 0, 0)" stroke="rgb(60, 60, 60)" stroke-width="1px" opacity="0.25"></line><line x1="0" y1="160.2" x2="300" y2="160.2" fill="rgb(0, 0, 0)" stroke="rgb(60, 60, 60)" stroke-width="1px" opacity="0.25"></line><line x1="0" y1="142.4" x2="300" y2="142.4" fill="rgb(0, 0, 0)" stroke="rgb(60, 60, 60)" stroke-width="1px" opacity="0.25"></line><line x1="0" y1="124.6" x2="300" y2="124.6" fill="rgb(0, 0, 0)" stroke="rgb(60, 60, 60)" stroke-width="1px" opacity="0.25"></line><line x1="0" y1="106.8" x2="300" y2="106.8" fill="rgb(0, 0, 0)" stroke="rgb(60, 60, 60)" stroke-width="1px" opacity="0.25"></line><line x1="0" y1="89" x2="300" y2="89" fill="rgb(0, 0, 0)" stroke="rgb(60, 60, 60)" stroke-width="1px" opacity="0.25"></line><line x1="0" y1="71.2" x2="300" y2="71.2" fill="rgb(0, 0, 0)" stroke="rgb(60, 60, 60)" stroke-width="1px" opacity="0.25"></line><line x1="0" y1="53.400000000000006" x2="300" y2="53.400000000000006" fill="rgb(0, 0, 0)" stroke="rgb(60, 60, 60)" stroke-width="1px" opacity="0.25"></line><line x1="0" y1="35.599999999999994" x2="300" y2="35.599999999999994" fill="rgb(0, 0, 0)" stroke="rgb(60, 60, 60)" stroke-width="1px" opacity="0.25"></line><line x1="0" y1="17.799999999999983" x2="300" y2="17.799999999999983" fill="rgb(0, 0, 0)" stroke="rgb(60, 60, 60)" stroke-width="1px" opacity="0.25"></line><line x1="0" y1="0" x2="300" y2="0" fill="rgb(0, 0, 0)" stroke="rgb(60, 60, 60)" stroke-width="1px" opacity="0.25"></line></g></g></g><g><g><line x1="0" y1="783.1999999999999" x2="300" y2="783.1999999999999" fill="rgb(0, 0, 0)" stroke="rgb(153, 153, 153)" stroke-width="1.5px"></line></g></g><g><g><line x1="25" y1="0" x2="25" y2="178" fill="rgb(0, 0, 0)" stroke="rgb(153, 153, 153)" stroke-width="1.5px"></line></g></g><g><g><g><g><g><path stroke="rgb(255, 112, 67)" stroke-width="2px" d="M33.6875,193.52774789477894L34.375,161.05414338393666L34.6875,150.51734157169963L34.875,163.98278464008905L35.4375,179.30274249651887L35.5,189.98903586846257L36.06375,175.55241487736012L36.37625,194.93442311738283L36.50125,171.5681926883887L36.56375,141.47079113476374L36.81375,148.43897980258737L37.31375,139.20685629429187L37.81375,146.46709526414207L37.87625,171.34570093642031L37.93875,155.48333407548188L38.18875,131.91384742113092L38.87625,148.5949239559535L39.25125,156.21469476185933L39.56375,174.68535531271314L39.75125,179.35464246722702L40.501250000000006,153.21841224090056L40.876250000000006,162.8978496457809L41.18875,161.09552882867078L41.37625,152.29815281974385L41.626250000000006,165.7845406030032L41.87625,159.43905915660903L42.001250000000006,157.25564650369665L43.18875,139.64755271575746L43.50125,116.27929274648999L43.56375,124.48975538376152L43.87625,145.35704197157378L44.126250000000006,154.36652344962644L44.18875,132.430039203467L44.31375,136.33621940264175L44.81375,158.02488483324376L44.876250000000006,150.39853135268305L45.251250000000006,164.72166130399833L45.31375,141.5610084314827L45.37625,141.00456099807272L45.563750000000006,135.7776530131669L46.12625,145.2597598321728L46.62625,123.68299340985699L47.565,122.49699343616513L47.815,138.87966039352048L48.19,143.0974164896382L48.440000000000005,126.90622361937693L48.565,137.75186708581307L49.315,140.24515714112476L49.3775,133.3883062823521L50.3775,119.75380900811868L51.19,113.82761754069247L51.2525,124.5776820822762L51.377500000000005,111.2739893628421L51.752500000000005,112.73270561317396L52.315,116.84309827452839L52.440000000000005,136.9041038750587L52.5025,134.6181471323663L52.69,124.61573619293253L53.065,129.49971406771863L53.6275,110.9693699393098L53.815000000000005,111.13886083225681L53.877500000000005,108.43841629105894L54.44,132.31523780846027L54.5025,127.17413883216213L55.44,114.49930601122091L55.565,96.91777230263389L55.690000000000005,123.91452396679114L56.565,157.048717389012L56.8775,140.84975445315382L57.0025,109.55263431324111L57.19,131.7430370743679L57.69,151.17234235094813L58.065,129.62063756551393L58.190000000000005,130.36711923291108L58.31625,130.07853558066438L58.69125,139.27298358679695L59.00375,116.27358185887606L59.628750000000004,98.5665137208708L59.75375,124.23770161381985L60.003750000000004,137.2240440962066L60.378750000000004,122.80168779246068L60.628750000000004,133.55632260665914L60.691250000000004,120.62783329017654L61.003750000000004,128.6367740593186L61.128750000000004,140.75296512490007L61.19125,115.26725901378833L61.31625,122.22981156949302L61.441250000000004,124.75747977150709L61.50375,119.0248343397773L61.816250000000004,119.3792516019821L61.87875,110.87849754175188L62.441250000000004,109.26796172285276L62.816250000000004,131.36199168152874L62.941250000000004,116.87882241900947L63.253750000000004,117.77465380578107L63.566250000000004,104.09491841956637L63.69125,107.78054164220289L64.44125,121.34380452146948L64.87875,123.79382563683639L64.94125,118.56686000184196L65.06625,107.54972467230553L65.12875,106.37093661250708L65.19125,115.6560425651731L65.25375,119.40498278297972L65.37875,116.60354615020148L65.56625,119.87565094222846L65.81625000000001,93.71928982612555L66.12875,104.82693974935134L66.31625,109.27669154394606L66.56625,113.3342951523928L66.75375,107.65580772601567L66.94125,121.57355681670602L67.19125,134.2482077157882L67.25375000000001,103.58012591947289L67.50375,107.3957680462276L67.81625,115.03630228276478L67.87875,79.39424960206581L68.31625,118.58208278772432L68.50375,118.81593671070699L68.75375,121.54869161196703L68.94125,112.02631501838015L69.19125,108.96835524464979L69.38000000000001,109.79754613943496L69.63,108.91910270901806L69.8175,121.50622802034704L69.88,119.94053227023996L69.9425,130.32218005155542L70.38,126.07704959957304L70.755,117.99767084911028L70.88000000000001,91.98401583908375L70.9425,109.68051206373691L71.19250000000001,111.39548975498533L71.4425,101.05862655601223L71.63,118.04270126331255L71.6925,107.5027967986716L71.755,109.64824626616395L72.005,82.21386543563537L72.5675,83.46453774348362L72.8175,86.71470723979313L72.88,109.47664872894478L72.9425,119.38025749710147L73.0675,133.7754467254489L73.13,120.30718998687298L73.505,92.25883531027095L73.75500000000001,116.22833205060086L73.8175,107.4103169369576L73.9425,110.06876837515476L74.06750000000001,97.09563295395269L74.255,126.0549264584514L74.3175,98.5677711962024L74.38,90.35846124167325L74.44250000000001,106.07480369232623L74.63,118.70568306631611L74.88,114.12946836288799L75.1925,115.02526468794363L75.25500000000001,85.90294050562633L75.3175,108.23220821675142L75.69250000000001,102.87471793072372L76.0675,106.63173888080412L76.31750000000001,117.84010233745896L76.505,133.418966812688L76.75500000000001,135.32783550584261L77.005,124.86500401784167L77.13,113.27849473562603L77.4425,98.9618799483978L78.9425,112.95378401625769L79.0675,116.78327418192808L79.13,124.98593074090658L79.38,129.92267169358556L79.50500000000001,125.55147138417435L79.755,105.53043340438812L79.88,129.31283050654596L80.31875000000001,126.19584584080657L80.69375,84.11927957011312L80.94375000000001,86.0203964503797L81.38125000000001,103.56481026507001L81.44375,80.5690251412886L81.50625000000001,103.41070647427136L81.56875,124.73173374709106L81.88125,101.01079827659322L82.00625000000001,99.70852520380322L82.19375,106.18285915110681L82.25625,90.83219424740724L82.38125,78.43307807402687L82.88125000000001,97.01922624813581L82.94375,100.58592992278062L83.13125,101.66378366128251L83.56875,102.70324375622167L83.75625,119.01553291080204L84.31875,102.9582114326888L84.44375,87.64029561364453L84.56875000000001,99.1938592376823L84.75625,100.02157047577249L84.81875,91.81751842971904L85.06875,105.74251657627907L85.38125,108.55064422459273L85.44375000000001,126.22775247147942L85.69375,113.88756791368507L85.75625000000001,121.96386864070716L85.81875,96.9272182246584L85.88125,118.43744647325695L86.13125,107.06272960848109L86.19375000000001,95.52073302133824L86.38125000000001,110.06829632241713L86.44375,93.12783043420075L86.94375,93.77428479920555L87.19375,107.16728261688581L87.31875,95.44130386465562L87.44375000000001,101.79140017734107L87.50625,109.20908928843187L87.94375,118.32137127200329L88.00625000000001,96.2810239609467L88.06875,112.98930718828402L88.25625,95.14383507945881L88.75625,105.60009228103979L88.88125,84.95728873167523L89.13125,103.05408984826234L89.19375,114.3525590467639L89.50625,101.55931927347747L89.94375,103.76388457293679L90.63125000000001,98.44255862139272L90.75625000000001,73.72469118566094L91.13125,93.99226789036629L91.19375000000001,115.24461953031793L91.31875,105.54938523348508L91.3825,110.67775830381018L91.6325,88.40968689666067L91.88250000000001,86.08696681423747L92.0075,74.30617694307504L92.32000000000001,82.92935682132581L92.38250000000001,69.85974736927366L92.445,81.3848650524569L92.94500000000001,78.89483031957013L93.32,79.26442115702832L93.57000000000001,106.49988718390054L93.6325,94.18014292824142L93.69500000000001,86.86866934331616L94.2575,105.13823340187184L94.3825,87.89542097881352L94.57,83.86560581634924L94.94500000000001,84.21002605947992L95.445,83.05620132980685L95.57,105.06950451820484L96.82,103.98514540758556L96.88250000000001,114.72494166304718L97.1325,80.69749607923647L97.19500000000001,91.9930101152748L97.2575,92.11637089957277L98.38250000000001,111.05503524753301L98.69500000000001,99.34271334830783L99.13250000000001,93.95495946652844L99.195,93.31910540892835L99.57,97.33685032079866L99.695,103.89389361247498L100.0075,95.86117025049055L100.1325,73.65264215180744L100.2575,73.15054568204134L100.50750000000001,72.46233968422675L101.6325,102.52184643651799L101.69500000000001,99.90331784697109L101.75750000000001,97.4175232929341L101.88250000000001,78.7152377618061L102.3825,97.86945803203304L102.50874999999999,72.27859406244194L102.88375,49.01179034641811L103.00875,71.28335598209934L103.13375,83.01149071186616L103.19625,89.13948511639182L103.38374999999999,80.62731489526915L103.50875,99.30467792805347L103.69624999999999,87.37854945080372L104.19625,94.36702323978218L104.63374999999999,101.03582222767203L105.00875,100.17575345846285L105.25875,102.02892293695288L105.32125,93.84480244566117L105.38374999999999,93.77610423162326L105.44625,105.00245285151827L105.82124999999999,93.15193595921527L106.44624999999999,94.24218814860453L106.57124999999999,67.08904713061659L106.75875,67.78665142556197L106.82125,84.21298319011974L107.00874999999999,121.05565856787575L107.38375,122.35806819109021L107.50874999999999,91.84590541216107L107.69625,81.3088155689608L107.88375,69.80088983365212L108.07124999999999,76.0070749640117L108.13375,73.83201674579543L109.25874999999999,80.88961860406086L109.94625,70.11436589738042L110.19624999999999,87.82671432548857L111.07124999999999,105.20443702713885L111.13374999999999,87.9592483597286L111.32125,84.06974518052598L111.38374999999999,76.41342179939703L111.50875,96.91625623037079L111.57124999999999,111.53620293417477L112.82125,86.30325963818697L112.88375,74.56337573386334L112.94624999999999,106.20674518781045L113.25875,97.07473107587441L113.44625,64.35415493372433L113.635,76.5951822558742L113.75999999999999,86.18692206262654L114.01,78.03684207594127L114.26,81.63060035227463L114.50999999999999,79.01470363473511L115.51,91.52957199435127L116.0725,95.65586851602994L116.135,82.25112807800237L116.8225,96.8341499163206L117.3225,99.21507812003777L117.38499999999999,80.10493115085515L117.5725,100.53487358658957L117.69749999999999,100.45966571977573L117.76,100.32074715855971L118.26,62.2106782643892L118.3225,75.40714734223184L118.75999999999999,73.85238216348502L118.88499999999999,81.91664932616953L119.385,88.45949247851497L119.6975,62.710889812036044L119.76,85.03021213404057L119.94749999999999,90.51924102363515L120.38499999999999,73.51159803646067L121.135,76.93510615044022L121.44749999999999,85.99045127872581L121.51,84.41176184846154L121.63499999999999,61.31908939133052L121.6975,76.26316395118819L122.07249999999999,64.61489187334477L122.50999999999999,71.07913217381977L122.5725,86.30207117985594L123.13499999999999,87.41187135395673L123.385,68.49118729119682L123.51,64.85330696250557L123.75999999999999,70.64849033399095L124.32249999999999,70.54141164792689L124.69875,63.26749292186837L124.76125,91.4898390936016L125.07375,69.13555341265084L125.57375,69.36420186669079L125.69875,55.3165742501929L126.13625,67.24937062100514L126.19875,82.55841844032987L126.44875,79.61916012987737L126.76125,88.41438756533046L126.94875,63.540370423041594L127.07375,71.79186111165369L127.26125,53.273284422973646L127.44874999999999,77.39686066258554L127.69875,76.94753224357547L128.19875,51.70807528586565L128.69875000000002,86.94068064240034L128.82375,87.93778814657763L128.94875,103.84048660571648L129.13625000000002,79.07787733547477L129.19875,99.14347550532997L129.57375,77.51211140770255L129.63625,79.23589096015255L130.13625,91.71366279585833L130.32375,76.64612268824482L130.38625,71.04101019209357L130.44875,77.80228810401486L130.51125000000002,96.42568948296234L130.63625,91.38108979471775L130.82375000000002,87.68037491204824L131.26125000000002,67.71123481858523L131.32375,72.46076905092232L131.76125,61.60325314569667L131.82375,80.10745986094533L131.88625000000002,91.88667803701895L132.44875,67.93442801742898L132.69875,94.47132777961832L132.82375,98.11737932143438L132.88625,91.68687463932585L133.01125,81.39951698164157L133.32375,83.03928220325723L133.38625000000002,78.693731224698L133.51125,78.13364289646219L133.57375,77.20968133939769L133.63625,82.83975651363569L133.94875,55.64149841099987L134.82375,75.00862803587324L135.38625,84.17793432751002L135.7,78.22487359964461L136.1375,78.8222611979354L136.20000000000002,73.31266690003014L136.7625,93.56431879254329L137.2,66.660673964179L137.7625,73.31686284904379L137.95,72.18455523838014L138.3875,59.547419412700606L138.5125,57.150651833942064L138.76250000000002,71.33947464869343L139.38750000000002,98.85680981709345L139.45,73.80295641253524L139.6375,56.42822655388753L139.95000000000002,45.4328378544719L140.2,59.36777242262578L141.01250000000002,57.49644699168036L141.1375,62.75918106100512L141.20000000000002,74.30874858099689L141.575,61.35826849519758L141.63750000000002,64.83379494064916L141.7,72.3751463404711L141.825,71.22762111161404L141.95000000000002,67.76993207017851L142.70000000000002,96.5751390906581L143.825,88.13634284414084L144.20000000000002,87.04256812118666L144.575,88.55084836299181L144.63750000000002,104.68328116600205L145.0125,80.11516943891198L145.26250000000002,77.5392483261804L145.3875,70.92171178423109L145.5125,89.8152592628084L145.88750000000002,97.38242972281229L146.075,69.14928938742474L146.2,81.35072988568548L146.3875,67.94715439051036L146.575,102.91187336793443L146.70125000000002,91.88461288318308L147.26375,80.12145510824108L147.38875,74.39775794360521L148.13875,67.94987563137262L148.20125000000002,71.10866141988052L148.26375,78.0312926550902L149.13875000000002,73.60387494862672L149.38875,76.21769126266429L149.63875,67.6627300167388L149.88875000000002,72.00612689686739L149.95125,72.92518950948995L150.13875000000002,66.95793229535191L150.26375,79.28854027210173L150.38875000000002,64.64336902743133L150.88875,68.71953193320502L151.01375000000002,78.62636540881894L151.20125000000002,67.41275032088795L151.38875000000002,95.73110948957697L151.57625,71.91400585102362L151.70125,60.69593240716263L151.88875,64.36863461106493L152.07625000000002,45.408744451312714L153.07625000000002,72.30303288129232L153.51375000000002,62.9378047771075L153.82625,79.73477908572013L153.88875,78.62624282300614L153.95125000000002,86.67555869895261L154.07625,85.74463736676583L154.13875000000002,84.16229509491752L154.26375,75.94800379031616L154.38875000000002,94.76768017457053L154.63875000000002,70.96087213708796L154.88875,87.15071967945653L155.20125000000002,72.45403334768463L155.32625,82.15545080325556L155.76375,77.20270648426288L155.88875000000002,83.31254755624082L155.95125,68.98006820669161L156.13875000000002,71.70005409237856L156.26375,71.3500162277136L156.51375000000002,78.02032949905146L156.70125000000002,65.25036497825555L156.82625,84.1924896356886L156.95125000000002,89.72545151106794L157.01375,79.80842089948743L157.63875000000002,64.71135309784923L157.70125,69.25340592935473L157.89,58.58565564416297L158.0775,59.25636067945496L158.265,57.69445253061873L158.3275,64.47385425283798L158.515,67.42721197043159L158.57750000000001,73.80786520550943L158.7025,87.7285191533277L159.01500000000001,65.2256833552513L159.07750000000001,67.31224770066726L159.515,78.3051362547803L159.5775,74.00871685604838L159.8275,59.746549917044064L159.9525,72.88677488111907L160.07750000000001,63.71029859287586L160.32750000000001,79.78785772056304L160.95250000000001,60.910061234626L161.0775,71.90443385195525L161.20250000000001,80.82876759455141L161.265,73.75277532841424L161.515,68.5047109249403L161.7025,59.75484993824874L162.20250000000001,77.9164421640919L162.45250000000001,71.30066400298742L162.64000000000001,71.23019920089628L163.32750000000001,72.3909212562406L163.5775,57.544006647257916L163.70250000000001,61.95990617203377L163.89000000000001,76.2154718516102L164.015,94.14664633148406L164.0775,70.56357130728226L164.2025,68.9803002587618L164.32750000000001,80.05215091442066L164.39000000000001,74.73934400479503L164.515,75.69906424880178L164.64,72.54971927464058L164.7025,75.57414521354455L164.95250000000001,73.49076689475186L165.14,57.02975997565211L165.3275,68.52615341078653L165.64000000000001,60.85254985014036L166.39,86.06058253621896L166.64,71.63879998974755L166.8275,71.64786459104053L167.4525,78.12746064989527L167.8275,72.41892293312776L167.89,70.9002410889228L168.01500000000001,79.69714096071007L168.20250000000001,66.72941259766128L168.39000000000001,77.67964309997706L168.45250000000001,75.14281451507615L168.515,77.79264721096811L169.07874999999999,61.09837590462345L169.14124999999999,39.61533026101108L169.20375,44.13789161980725L169.32874999999999,62.197668755473444L170.07875,64.75451318157367L170.14124999999999,71.32022152344182L170.20374999999999,73.59018816113418L170.26625,71.09186853635305L170.76624999999999,68.253949949944L171.32875,56.15323973351833L172.39125,67.5634440727654L173.26625,84.41010393105813L173.45375,68.94980966747659L173.51625,51.794208723607255L173.57874999999999,57.80588850209192L173.70375,79.70949840792751L174.20374999999999,68.70147890165077L174.32875,66.84630083297084L174.45374999999999,77.2429631258678L174.57875,51.36626265602207L175.20375,57.024902295341775L175.70374999999999,50.42788458325592L175.76625,55.223105746680915L176.07874999999999,68.65040096228554L176.45375,77.68699200804606L176.95374999999999,73.31583126025077L177.32875,72.67662071596585L177.39124999999999,81.49742484394014L177.51625,72.8911943873862L177.64124999999999,60.933002237114366L177.95375,48.62467583287753L179.14124999999999,49.461466623154365L179.26625,81.43848606848937L179.51624999999999,72.73329592735844L179.57874999999999,68.2487272578218L180.14249999999998,52.56635241501739L180.2675,53.04804651735198L180.455,43.85606281995172L180.51749999999998,69.8173931105119L180.57999999999998,50.855938834642885L181.20499999999998,55.16985805114979L181.2675,43.29097183490063L181.455,60.35177534563624L181.57999999999998,66.23868979973582L181.82999999999998,68.02781673301169L181.955,62.87954672583621L182.1425,59.506353107716734L182.26749999999998,72.04618503082582L182.3925,78.14723647543434L182.5175,61.19358286889988L183.07999999999998,47.43139235029409L183.32999999999998,55.817776240854826L183.58,46.107877275332726L183.70499999999998,49.47742948203836L183.8925,66.52544030091043L184.08,51.77482653302218L184.455,62.60741965485305L184.5175,83.79240327987887L184.76749999999998,68.92757877204963L184.955,56.16829339174676L185.1425,57.4284773668893L185.26749999999998,68.89844410423183L185.82999999999998,74.1742307257764L186.0175,64.08721924519875L186.07999999999998,69.22924507348635L186.1425,53.57090799775399L186.205,77.34883030643073L186.3925,50.01206265088916L186.6425,64.67545366465154L187.0175,56.854455633697285L187.08,58.433609486740124L187.2675,69.04256064448397L187.76749999999998,58.009160939316885L188.08,61.26879846795241L188.2675,66.54816174192383L188.45499999999998,63.388744405755816L188.5175,73.7661135255842L188.64249999999998,54.32261947332468L188.82999999999998,62.76920542817909L188.89249999999998,49.488244080846385L189.0175,68.30055006751563L189.3925,60.71913329723225L189.58,82.5402808522069L189.7675,80.68887296721002L189.83,84.35839750112493L190.08,75.46783152145574L191.20625,55.83404536402955L191.45625,47.65504805134759L191.58124999999998,47.633183955809585L191.89375,61.873985261816145L192.20624999999998,72.30150672051263L192.76875,57.2105114491372L193.01874999999998,50.97575215910645L193.26874999999998,85.08225300674073L193.45624999999998,62.04479026664629L194.39375,76.56852161368533L195.08125,67.28810485446695L195.14375,63.314560881389056L195.33125,78.32928144190703L195.70625,77.85794901387091L196.14375,58.099359572935725L196.20625,71.26674795061612L196.26874999999998,66.92349560710863L196.33125,48.12521480456917L196.39375,67.20167943160517L196.45624999999998,55.39223944044353L196.95625,74.42930742173269L198.39374999999998,57.56171611568L198.45625,60.820621920885685L198.51875,58.66969975985943L198.95625,68.13700329648812L199.64374999999998,86.75424918230584L199.76875,74.21594646184508L200.51874999999998,68.27348984065316L200.58125,82.83014845366088L200.76874999999998,56.76096851681126L200.89375,55.69491065697214L200.95624999999998,73.46130538092963L201.08125,80.90236637624184L202.20749999999998,55.73260917434715L202.52,51.34796810081485L202.7075,42.589866580757274L202.895,58.73376188462761L203.45749999999998,52.362103434162734L203.52,60.41598218076163L203.89499999999998,49.15725017485843L204.02,37.407687824064L204.08249999999998,42.52264730486078L204.4575,57.74224997148761L204.645,57.998340808707L204.70749999999998,57.97867987017564L205.02,62.81515783983693L205.14499999999998,40.320299228782204L205.27,53.459911256061474L205.4575,85.49868039280967L205.52,58.363663413497235L206.01999999999998,65.83162023376595L206.3325,59.967237000915944L206.45749999999998,28.455907565728893L206.52,46.58334880780464L206.5825,63.81500464234135L207.26999999999998,67.20450818286352L207.89499999999998,77.57729140444407L208.395,64.36028268195335L209.4575,60.84140229421007L209.77,58.25556857644662L209.895,68.9780260874604L209.9575,64.91484825592568L210.145,50.26402593368687L210.77,55.17394815181012L211.14499999999998,75.41378265110951L211.395,70.13515705790616L211.7075,62.02915788092169L211.8325,69.65508739113206L211.95749999999998,72.91953586089433L212.0825,45.2125513558025L212.20749999999998,47.80889739526623L212.4575,62.22747627119226L212.52,56.168211448252265L212.7075,56.72247294070141L212.83249999999998,39.05050920093609L213.0825,65.90529665066174L213.14625,33.892944509724884L213.33375,28.419171042126493L213.39624999999998,58.365751312637926L213.52125,64.84098493053456L213.83374999999998,74.4128238910256L213.95875,51.68639157038392L214.02124999999998,54.709354131881796L214.08375,30.774051356752125L214.45874999999998,31.383337080609664L214.58375,45.96434713248371L215.33374999999998,76.53067819370023L215.52124999999998,47.14133022812973L215.64625,55.05881004866363L215.77124999999998,39.77628750007281L215.89625,57.20818684816638L216.02125,44.08156776404462L216.58374999999998,83.4593643569233L216.83374999999998,66.14572320173029L216.95875,63.0892958026822L217.14625,41.315566054037106L217.64624999999998,43.345371796802056L217.89624999999998,47.00757058445089L218.14625,65.28569097514006L218.52124999999998,58.324384584412215L219.08375,66.5175935430483L219.39624999999998,51.49736233720651L219.83374999999998,37.693253729848436L220.02124999999998,55.58702427569294L220.08375,56.395446806023315L220.45874999999998,58.06561852361857L220.52125,51.51723339338926L220.64624999999998,78.37473827058035L220.83374999999998,49.89428885177958L221.14625,29.842202518571042L221.33375,41.577076343950324L221.39625,39.56596088536287L221.52124999999998,53.09852628745958L221.89624999999998,70.30901825916263L222.52125,48.894612826381604L222.95875,42.3423374001606L223.14625,34.67163608027778L223.20874999999998,56.250111887315825L223.64624999999998,61.466931606966284L223.70875,54.60242704678727L223.77125,59.00968563356753L223.83374999999998,63.88842738806838L224.14625,86.2146977720846L224.2725,66.13273338252867L225.7725,65.45059531383087L225.96,44.52052840188853L226.085,66.64359122930684L226.3975,38.72442945009101L226.58499999999998,34.81869831134577L226.6475,47.63757635131401L226.77249999999998,37.49264238171261L226.835,49.22112378446013L227.2725,40.81006806185184L227.39749999999998,56.065389498145464L227.5225,45.46562949897984L228.08499999999998,33.6653135445182L228.3975,38.31478456933701L228.96,58.67982187592811L229.085,87.07273387051774L229.21,46.940644318870255L229.46,64.43286773413767L229.6475,39.842488951833104L230.46,36.4240528378937L230.5225,62.60942730766696L230.58499999999998,53.56130696732457L230.96,36.50074064671588L231.45999999999998,48.36472979289178L231.70999999999998,62.42169898242321L231.835,44.899477758081474L231.89749999999998,38.28769893350352L231.96,46.517273806638116L232.21,47.73484179470148L232.52249999999998,49.91052532283433L232.95999999999998,49.08696107890603L233.46,67.41695784576653L233.71,52.594736096405825L233.96,60.759361151797805L234.085,53.80842243550518L234.45999999999998,58.81131533538792L234.64749999999998,62.75604367898552L234.7725,70.97421170904232L234.89749999999998,60.70754641066192L235.0225,71.39721952012245L235.21,68.06431356111484L235.27375,62.52550424289508L235.46124999999998,49.618852139567764L235.71125,42.51283856423362L236.21125,36.662721884821906L236.52374999999998,50.911892966203496L236.58625,31.367750400237014L236.83625,30.62598666487088L237.27375,36.73621984284509L237.96125,36.083459336642534L238.14875,52.41339633675945L238.21124999999998,40.95168789211675L238.39875,40.7898762559407L238.71125,73.54427526997067L239.08624999999998,61.60043529095225L239.14875,59.68614872998596L239.39875,49.3390350792009L239.52374999999998,60.197597593462504L239.89875,42.979279278038746L239.96125,20.759757675623575L240.33624999999998,24.610400904982015L240.77374999999998,59.12935615711477L241.14875,50.70939164022522L241.33625,39.08746539550998L241.71125,43.247790445679385L242.21125,53.68047040396759L242.39875,55.225871773045796L242.52375,43.383825756156966L242.58625,47.73630396158836L242.89874999999998,65.55112914929205L242.96125,41.89412628140872L243.14874999999998,70.08907803334839L243.27375,78.65422341000458L243.33624999999998,62.81011300078464L243.46125,43.797113718961015L243.77374999999998,59.12207814645005L244.39874999999998,58.72523420748483L244.77375,66.62691627054632L244.89875,68.98045227679377L244.96125,61.646099946954195L245.21125,50.486176633256264L245.27374999999998,56.31223017198376L245.52375,49.750416793294335L245.64875,63.1256338423096L246.02375,58.32174509959232L246.08624999999998,73.17177751242161L246.27375,63.134451268252874L246.46249999999998,70.10588347617899L247.2125,55.966668759894844L247.52499999999998,51.18095811698217L247.5875,51.87440179971878L247.7125,61.9864009689928L248.275,41.25980777238732L248.3375,42.99682950822995L248.7125,47.467725228811815L248.775,46.32729869352153L249.65,40.55678320546855L249.89999999999998,51.65109540170408L250.025,51.226473792630344L250.15,43.44966523654398L250.33749999999998,47.49648831608039L250.52499999999998,50.42312931037594L251.0875,51.37108742897712L251.4625,52.84232712896173L251.58749999999998,52.868752292131006L252.275,39.08229095558369L252.3375,64.45443727141631L252.7125,55.33189201821695L253.15,50.56255481859991L254.65,48.86624477809954L254.7125,38.59293709309793L254.8375,38.891311074828764L255.02499999999998,42.87723501251216L255.15,33.494769548553506L256.46250000000003,35.38261711334539L256.65000000000003,44.20260915438942L256.9,69.79069394016453L256.9625,53.590998007488864L257.025,46.47616498757384L257.15,71.00358832683855L257.33875,37.252618093510506L257.52625,18.99189916706689L257.65125,35.49098382787889L257.77625,32.933215100756314L258.21375,21.484689414260146L258.46375,15.968553491758513L258.65125,47.94065485367997L258.96375,46.67517748942919L259.46375,34.4837638028591L259.71375,46.86415028953945L259.83875,33.32037912006501L259.96375,40.05565459905671L260.02625,41.35490484529316L260.40125,35.76298253146891L260.65125,55.03484553458715L260.77625,46.15428727854018L260.90125,37.80401849862554L261.08875,50.08667979275174L261.65125,21.230432190999352L261.77625,34.328982944042934L261.83875,45.723549466953074L262.08875,48.178653585203165L262.40125,48.47138667919867L262.52625,57.45917265659166L263.15125,54.600878246562516L263.27625,52.93189097641016L263.40125,38.647215226883105L264.21375,44.74213553058945L264.46375,48.70338086303431L264.58875,43.11538414721605L265.21375,37.17187812258288L265.52625,19.57621820667245L265.96375,37.91288583248519L266.15125,49.246620952992686L266.27625,48.61030304309995L267.52625,62.13983812057168L267.58875,41.503045567641294L267.65125,35.3827816512495L267.77625,41.93318975050184L267.96375,58.2608406379191L268.08875,59.63983612997447L268.4025,38.65297714514469L268.65250000000003,31.531874131092252L269.09000000000003,41.18811112848786L269.1525,37.20889160575831L269.215,42.60536416751853L269.52750000000003,40.05758466834641L269.59,40.25323700939069L269.84,27.155601687533988L270.5275,27.934126719028825L270.9025,38.03362539058662L271.27750000000003,51.61343661619945L271.46500000000003,60.9224108829312L271.59,32.64276902598783L271.965,29.68750714517438L272.1525,43.25452667968517L272.4025,51.48907231359793L272.6525,41.934440886584326L272.7775,25.25892792332391L272.96500000000003,43.2963228624709L273.09,55.55782256369744L273.34000000000003,52.26735355927032L273.465,52.200320432405235L273.6525,21.48284942562009L273.965,47.15098809794969L274.21500000000003,47.00204417108421L274.2775,53.61371521055385L274.40250000000003,44.86739711016324L274.965,43.19830697789763L275.0275,60.93727003221208L275.71500000000003,47.217371195210546L275.84,45.87836016227419L275.90250000000003,42.83682553830633L276.34000000000003,46.17146155614526L276.465,31.66572496586707L276.52750000000003,39.27559258131299L276.59000000000003,45.562337427103984L276.6525,33.89909002207648L276.9025,46.16528784341503L277.02750000000003,33.01351922961135L278.4025,37.51118055526041L278.59,41.191975840162144L279.15250000000003,43.105669534275194L279.34000000000003,48.11286335112732L279.465,25.714801845914337L279.65375,32.49712312518551L279.71625,21.23779080718458L279.77875,39.95916126254113L279.90375,44.84449612046154L280.40375,48.781715230181504L280.71625,31.204341076622853L281.15375,34.695488571766134L282.90375,35.0544394945035L283.34125,60.514230255333544L283.96625,27.512435199036588L284.02875,31.021378493670966L284.34125,29.09385976086992L284.84125,51.72015820291914L284.90375,54.40582620843445L284.96625,46.246157728863324L285.59125,30.11385532952326L285.65375,20.998597059062064L285.71625,30.46739901823139L285.84125,43.692878091699896L285.96625,52.620965386738575L286.09125,53.04565561333612L286.15375,50.00169076359066L286.21625,37.746053188549894L286.34125,30.1840249256812L287.46625,25.938786960736707L287.77875,17.583980601160505L288.09125,32.71334580693508L288.27875,46.792080524307096L288.46625,45.62305682025607L288.77875,37.295343101985054L289.46625,42.06411066680158L290.02875,41.97018000790183L290.21625,35.03672607573483L290.27875,44.27893728683188L290.78000000000003,35.68101410230932L291.15500000000003,44.57840823459907L291.53,50.19560209074113L291.7175,40.81052289711988" style="fill: none;" fill="none"></path></g></g></g></g><g opacity="0.2"><g><g><g><path stroke="rgb(255, 112, 67)" stroke-width="2px" d="M30.875,212.75116195678712L31.375,177.1192481994629L31.5625,196.33350296020507L32.875,219.13241958618164L33.125,173.93826141357422L33.6875,197.51478729248046L34.375,147.13688430786132L34.6875,146.00156936645507L34.875,169.75368881225586L35.4375,185.86843872070312L35.5,194.56887588500976L36.06375,169.36529159545898L36.37625,203.2409980773926L36.50125,161.55409393310546L36.56375,128.57190475463867L36.81375,151.42534637451172L37.31375,135.25023193359374L37.81375,149.5786262512207L37.87625,182.0079605102539L37.93875,148.68517684936523L38.18875,121.81263885498046L38.87625,155.74395675659179L39.25125,159.4803108215332L39.56375,182.6013526916504L39.75125,181.35576553344725L40.501250000000006,142.01717071533204L40.876250000000006,167.0461799621582L41.18875,160.3231056213379L41.37625,148.52784881591796L41.626250000000006,171.56442108154297L41.87625,156.7195671081543L42.001250000000006,156.31989822387695L43.18875,132.10122680664062L43.50125,106.26432418823242L43.56375,128.0085250854492L43.87625,154.30016479492187L44.126250000000006,158.22772979736328L44.18875,123.02868881225587L44.31375,138.0102966308594L44.81375,167.32002716064454L44.876250000000006,147.1300941467285L45.251250000000006,170.86014556884766L45.31375,131.63501434326173L45.37625,140.76608352661134L45.563750000000006,133.53754959106445L46.12625,149.32351989746093L46.62625,114.43580780029296L47.565,121.9887077331543L47.815,145.90080337524415L48.19,144.9050262451172L48.440000000000005,119.96714096069336L48.565,142.4L49.315,141.31371002197267L49.3775,130.44965591430665L50.3775,113.91045303344727L51.19,111.28782119750976L51.2525,129.18485260009766L51.377500000000005,105.57240676879883L51.752500000000005,113.357869720459L52.315,118.60469512939453L52.440000000000005,145.5016777038574L52.5025,133.63845138549806L52.69,120.32898864746093L53.065,131.59284744262695L53.6275,103.02779388427734L53.815000000000005,111.21149978637696L53.877500000000005,107.28108291625976L54.44,142.54816131591798L54.5025,124.97081069946289L55.44,109.06723480224609L55.565,89.38282928466798L55.690000000000005,135.48456039428712L56.565,171.24908599853515L56.8775,133.90734176635743L57.0025,96.13958282470703L57.19,141.2532096862793L57.69,159.49918746948242L58.065,120.3841926574707L58.190000000000005,130.68703994750976L58.31625,129.9548568725586L58.69125,143.21346130371094L59.00375,106.41669540405273L59.628750000000004,90.97777023315429L59.75375,135.23963928222656L60.003750000000004,142.78961944580078L60.378750000000004,116.62067794799805L60.628750000000004,138.16545181274415L60.691250000000004,115.08705215454101L61.003750000000004,132.06917724609374L61.128750000000004,145.94561843872071L61.19125,104.34481353759766L61.31625,125.21376266479493L61.441250000000004,125.84076614379883L61.50375,116.56798629760742L61.816250000000004,119.53114471435546L61.87875,107.23531723022461L62.441250000000004,108.57773208618164L62.816250000000004,140.83086166381835L62.941250000000004,110.67174987792968L63.253750000000004,118.15858154296875L63.566250000000004,98.23217468261718L63.69125,109.36009445190429L64.44125,127.15663146972656L64.87875,124.8438346862793L64.94125,116.3267318725586L65.06625,102.82809524536133L65.12875,105.86574172973633L65.19125,119.63537368774413L65.25375,121.01167144775391L65.37875,115.40293045043946L65.56625,121.27798156738281L65.81625000000001,82.5094207763672L66.12875,109.58736114501953L66.31625,111.18372802734375L66.56625,115.07326812744141L66.75375,105.22217025756835L66.94125,127.53830642700196L67.19125,139.68020095825196L67.25375000000001,90.43666229248048L67.50375,109.0310432434082L67.81625,118.31081695556641L67.87875,64.11908416748047L68.31625,135.3768684387207L68.50375,118.91615982055664L68.75375,122.71987228393554L68.94125,107.94529647827149L69.19125,107.6578010559082L69.38000000000001,110.1529136657715L69.63,108.54262695312501L69.8175,126.90071029663086L69.88,119.2695198059082L69.9425,134.77145767211914L70.38,124.25770797729493L70.755,114.53507995605469L70.88000000000001,80.83530654907227L70.9425,117.26472473144531L71.19250000000001,112.13048019409179L71.4425,96.62854232788085L71.63,125.32159042358398L71.6925,102.9856948852539L71.755,110.56772460937499L72.005,70.45627365112304L72.5675,84.00054016113282L72.8175,88.10763702392578L72.88,119.23176651000976L72.9425,123.62466125488281L73.0675,139.94481353759767L73.13,114.53507995605469L73.505,80.23811187744141L73.75500000000001,126.50097351074218L73.8175,103.63116760253907L73.9425,111.20810470581056L74.06750000000001,91.5357177734375L74.255,138.46605224609374L74.3175,86.78756179809571L74.38,86.840185546875L74.44250000000001,112.81037902832031L74.63,124.11891708374023L74.88,112.16823348999024L75.1925,115.40917739868163L75.25500000000001,73.42194442749023L75.3175,117.80189437866211L75.69250000000001,100.5786506652832L76.0675,108.24189071655273L76.31750000000001,122.6436866760254L76.505,140.09562301635742L76.75500000000001,136.14592208862305L77.005,120.38093338012695L77.13,108.31284790039062L77.4425,92.82618789672851L78.9425,118.95031433105468L79.0675,118.42448425292969L79.13,128.50135498046876L79.38,132.0384178161621L79.50500000000001,123.67809982299805L79.755,96.9499885559082L79.88,139.5052864074707L80.31875000000001,124.8599952697754L80.69375,66.08646545410156L80.94375000000001,86.83516082763671L81.38125000000001,111.08384475708009L81.44375,70.71368865966797L81.50625000000001,113.1999984741211L81.56875,133.86931686401368L81.88125,90.84468307495116L82.00625000000001,99.15040817260741L82.19375,108.95757369995117L82.25625,84.25333786010742L82.38125,73.11917114257812L82.88125000000001,104.9847183227539L82.94375,102.11451721191406L83.13125,102.1257209777832L83.56875,103.14872665405274L83.75625,126.00651397705079L84.31875,96.0765022277832L84.44375,81.07547454833984L84.56875000000001,104.14538650512695L84.75625,100.3763038635254L84.81875,88.30149612426757L85.06875,111.71037292480469L85.38125,109.7541275024414L85.44375000000001,133.80365600585938L85.69375,108.598917388916L85.75625000000001,125.42514038085938L85.81875,86.19722518920898L85.88125,127.65611572265625L86.13125,102.18785095214844L86.19375000000001,90.57416305541993L86.38125000000001,116.30296630859375L86.44375,85.86763076782226L86.94375,94.05133666992187L87.19375,112.90713882446289L87.31875,90.41588439941405L87.44375000000001,104.51287002563477L87.50625,112.3880989074707L87.94375,122.22663497924805L88.00625000000001,86.83516082763671L88.06875,120.15L88.25625,87.49577560424805L88.75625,110.08134536743164L88.88125,76.1103729248047L89.13125,110.8098617553711L89.19375,119.19476013183593L89.50625,96.0765022277832L89.94375,104.70869827270508L90.63125000000001,96.16199035644532L90.75625000000001,63.13131942749024L91.13125,102.67837219238281L91.19375000000001,124.3527702331543L91.31875,101.39428482055665L91.3825,112.87563247680664L91.6325,78.86622772216796L91.88250000000001,85.0915153503418L92.0075,69.25726699829102L92.32000000000001,86.62500534057617L92.38250000000001,64.25848617553712L92.445,86.32420120239257L92.94500000000001,77.82767257690429L93.32,79.42281723022461L93.57000000000001,118.1722297668457L93.6325,88.90025253295899L93.69500000000001,83.7351806640625L94.2575,112.96804656982421L94.3825,80.50564422607422L94.57,82.13854217529297L94.94500000000001,84.35763473510742L95.445,82.56170501708985L95.57,114.50377731323242L96.82,103.52042007446289L96.88250000000001,119.32771148681641L97.1325,66.11430511474609L97.19500000000001,96.83394470214843L97.2575,92.1692398071289L98.38250000000001,119.17160568237304L98.69500000000001,94.32314682006836L99.13250000000001,91.64592208862304L99.195,93.04659652709961L99.57,99.05874099731444L99.695,106.70405502319336L100.0075,92.41857452392578L100.1325,64.13470153808593L100.2575,72.93536148071288L100.50750000000001,72.16739425659179L101.6325,115.4044921875L101.69500000000001,98.78109130859376L101.75750000000001,96.35218276977538L101.88250000000001,70.6999725341797L102.3825,106.078409576416L102.50874999999999,61.31108093261719L102.88375,39.040303039550764L103.00875,80.82831268310547L103.13375,88.03783416748047L103.19625,91.76576843261718L103.38374999999999,76.97924194335937L103.50875,107.30926208496093L103.69624999999999,82.26735153198243L104.19625,97.3620834350586L104.63374999999999,103.89387893676758L105.00875,99.80715255737304L105.25875,102.82313842773438L105.32125,90.33732223510742L105.38374999999999,93.74666213989258L105.44625,109.81374511718751L105.82124999999999,88.0731430053711L106.44624999999999,94.70943908691406L106.57124999999999,55.45198669433594L106.75875,68.08562469482422L106.82125,91.25283966064454L107.00874999999999,136.84537658691406L107.38375,122.91624374389649L107.50874999999999,78.7692642211914L107.69625,76.792919921875L107.88375,64.86892166137696L108.07124999999999,78.6668685913086L108.13375,72.89984893798828L109.25874999999999,83.9143051147461L109.94625,65.49640045166015L110.19624999999999,95.41772079467773L111.07124999999999,112.65203247070313L111.13374999999999,80.56845321655274L111.32125,82.40281524658204L111.38374999999999,73.1321403503418L111.50875,105.7031852722168L111.57124999999999,117.80189437866211L112.82125,75.48914108276367L112.88375,69.53199691772461L112.94624999999999,119.76818923950195L113.25875,93.1610107421875L113.44625,50.331050872802734L113.635,81.84133682250976L113.75999999999999,90.2976676940918L114.01,74.54395065307617L114.26,83.17078247070313L114.50999999999999,77.8936050415039L115.51,96.89308700561524L116.0725,97.42428131103516L116.135,76.50623931884766L116.8225,103.08401641845704L117.3225,100.23547592163085L117.38499999999999,71.9148681640625L117.5725,109.2905632019043L117.69749999999999,100.42743377685547L117.76,100.26121063232422L118.26,45.877791595459L118.3225,81.06277694702149L118.75999999999999,73.18605422973633L118.88499999999999,85.3727638244629L119.385,91.26356811523438L119.6975,51.67577438354492L119.76,94.59563598632813L119.94749999999999,92.87168197631836L120.38499999999999,66.22260818481445L121.135,78.40232391357422L121.44749999999999,89.87131347656249L121.51,83.7351806640625L121.63499999999999,51.4222297668457L121.6975,82.66776733398437L122.07249999999999,59.62277526855469L122.50999999999999,73.84952087402344L122.5725,92.82618789672851L123.13499999999999,87.8875L123.385,60.3823226928711L123.51,63.29421539306641L123.75999999999999,73.1321403503418L124.32249999999999,70.4955207824707L124.69875,60.15009918212891L124.76125,103.5851303100586L125.07375,59.555145263671875L125.57375,69.46219406127929L125.69875,49.296162414550764L126.13625,72.3634262084961L126.19875,89.11943893432617L126.44875,78.35947799682617L126.76125,92.18377075195313L126.94875,52.88007736206055L127.07375,75.32821426391601L127.26125,45.33675155639648L127.44874999999999,87.73553619384765L127.69875,76.75496292114258L128.19875,40.89116516113282L128.69875000000002,102.04036865234376L128.82375,88.36511993408203L128.94875,110.65592880249024L129.13625000000002,68.4653305053711L129.19875,107.74301757812499L129.57375,68.2415267944336L129.63625,79.97465362548829L130.13625,97.061279296875L130.32375,70.18860549926758L130.38625,68.63881912231446L130.44875,80.69997863769531L130.51125000000002,104.40714721679687L130.63625,89.21911849975585L130.82375000000002,86.09435424804687L131.26125000000002,59.15303192138671L131.32375,74.49628372192383L131.76125,56.95003204345703L131.82375,88.03783416748047L131.88625000000002,96.93491439819336L132.44875,57.6691780090332L132.69875,105.84428482055664L132.82375,99.67997283935547L132.88625,88.93094406127929L133.01125,76.9906494140625L133.32375,83.74203872680664L133.38625000000002,76.83135223388672L133.51125,77.8936050415039L133.57375,76.8136978149414L133.63625,85.25264587402344L133.94875,43.985102081298834L134.82375,83.3088264465332L135.38625,88.10763702392578L135.7,75.67356185913086L136.1375,79.0782844543457L136.20000000000002,70.95141220092773L136.7625,102.24359817504883L137.2,55.13054046630859L137.7625,76.16951522827148L137.95,71.6992805480957L138.3875,54.13150405883789L138.5125,56.12346572875977L138.76250000000002,77.4203987121582L139.38750000000002,110.64995346069337L139.45,63.06559066772461L139.6375,48.981913757324236L139.95000000000002,40.72052841186522L140.2,65.33988723754882L141.01250000000002,56.69445037841797L141.1375,65.0146385192871L141.20000000000002,79.25856323242188L141.575,55.80806274414063L141.63750000000002,66.32330627441407L141.7,75.60715408325196L141.825,70.73582458496094L141.95000000000002,66.28806533813477L142.70000000000002,108.9202278137207L143.825,84.51971588134765L144.20000000000002,86.57380752563476L144.575,89.1972541809082L144.63750000000002,111.59718093872071L145.0125,69.58597869873047L145.26250000000002,76.43528213500977L145.3875,68.08562469482422L145.5125,97.91249389648438L145.88750000000002,100.62550277709961L146.075,57.049372100830084L146.2,86.5799186706543L146.3875,62.20276489257813L146.575,117.8967529296875L146.70125000000002,87.15864410400391L147.26375,75.08010177612304L147.38875,71.94474487304687L148.13875,65.18649749755859L148.20125000000002,72.4624267578125L148.26375,80.99813461303711L149.13875000000002,71.70641021728515L149.38875,77.33789825439453L149.63875,63.99631805419922L149.88875000000002,73.86758270263672L149.95125,73.31907348632812L150.13875000000002,64.40053634643554L150.26375,84.57308654785156L150.38875000000002,58.36686706542969L150.88875,70.46645889282226L151.01375000000002,82.87215118408203L151.20125000000002,62.60691528320312L151.38875000000002,107.86754913330078L151.57625,61.70667572021485L151.70125,55.888186645507815L151.88875,65.9426498413086L152.07625000000002,37.283077239990234L153.07625000000002,83.82915649414062L153.51375000000002,58.924135589599615L153.82625,86.93348236083985L153.88875,78.15115585327149L153.95125000000002,90.12526550292968L154.07625,85.34567108154297L154.13875000000002,83.48414840698243L154.26375,72.42759323120117L154.38875000000002,102.83325576782227L154.63875000000002,60.75795440673828L154.88875,94.08922576904297L155.20125000000002,66.15545349121093L155.32625,86.31320114135742L155.76375,75.08010177612304L155.88875000000002,85.93105087280273L155.95125,62.83757705688477L156.13875000000002,72.86576232910156L156.26375,71.2L156.51375000000002,80.87903518676758L156.70125000000002,59.777523040771484L156.82625,92.31054306030273L156.95125000000002,92.09672088623047L157.01375,75.5582649230957L157.63875000000002,58.241181182861325L157.70125,71.2L157.89,54.013762664794925L158.0775,59.54380569458007L158.265,57.02506332397461L158.3275,67.37931213378906L158.515,68.69293670654297L158.57750000000001,76.54243087768555L158.7025,93.69451370239257L159.01500000000001,55.58161087036133L159.07750000000001,68.20648956298828L159.515,83.01637420654296L159.5775,72.16739425659179L159.8275,53.634192657470706L159.9525,78.51829986572265L160.07750000000001,59.777523040771484L160.32750000000001,86.67824020385743L160.95250000000001,52.819577026367185L161.0775,76.61630783081054L161.20250000000001,84.65348205566406L161.265,70.72020721435547L161.515,66.25554046630859L161.7025,56.00490951538086L162.20250000000001,85.69998168945312L162.45250000000001,68.4653305053711L162.64000000000001,71.2L163.32750000000001,72.88837356567383L163.5775,51.1810432434082L163.70250000000001,63.85243453979493L163.89000000000001,82.325L164.015,101.83143539428711L164.0775,60.456539154052734L164.2025,68.30175552368163L164.32750000000001,84.7972297668457L164.39000000000001,72.4624267578125L164.515,76.1103729248047L164.64,71.2L164.7025,76.87032775878906L164.95250000000001,72.5978904724121L165.14,49.97504272460938L165.3275,73.45317916870117L165.64000000000001,57.56386260986328L166.39,96.8640251159668L166.64,65.45803604125976L166.8275,71.65174942016601L167.4525,80.9044303894043L167.8275,69.97240676879883L167.89,70.24937744140625L168.01500000000001,83.46724090576171L168.20250000000001,61.1718147277832L168.39000000000001,82.37259902954102L168.45250000000001,74.0556022644043L168.515,78.92828979492188L169.07874999999999,53.943688201904294L169.14124999999999,30.408310699462874L169.20375,46.07613220214844L169.32874999999999,69.9375732421875L170.07875,65.85030364990234L170.14124999999999,74.13409652709962L170.20374999999999,74.56303100585937L170.26625,70.02116012573242L170.76624999999999,67.03769912719727L171.32875,50.967221069335935L172.39125,72.45353164672852L173.26625,91.63010101318359L173.45375,62.323969268798834L173.51625,44.44180831909179L173.57874999999999,60.3823226928711L173.70375,89.09675979614258L174.20374999999999,63.98375625610352L174.32875,66.05122451782226L174.45374999999999,81.69867553710938L174.57875,40.27624816894533L175.20375,59.45003356933594L175.70374999999999,47.600591278076166L175.76625,57.278200531005865L176.07874999999999,74.4049560546875L176.45375,81.55981674194337L176.95374999999999,71.44247665405274L177.32875,72.40267333984374L177.39124999999999,85.27776947021485L177.51625,69.20280990600585L177.64124999999999,55.80806274414063L177.95375,43.34967880249022L179.14124999999999,49.820091247558594L179.26625,95.14292297363282L179.51624999999999,69.00250015258788L179.57874999999999,66.3267692565918L180.14249999999998,45.845334625244135L180.2675,53.254486846923825L180.455,39.91664123535156L180.51749999999998,80.94367752075195L180.57999999999998,42.7296012878418L181.20499999999998,57.018680572509766L181.2675,38.20002059936522L181.455,67.66354827880859L181.57999999999998,68.76165313720703L181.82999999999998,68.79458541870117L181.955,60.67314529418945L182.1425,58.060698699951175L182.26749999999998,77.4203987121582L182.3925,80.7619728088379L182.5175,53.927731323242185L183.07999999999998,41.533310699462874L183.32999999999998,59.41194076538086L183.58,41.946492004394514L183.70499999999998,50.92152328491211L183.8925,73.83173065185547L184.08,45.453134918212896L184.455,67.24995956420898L184.5175,92.87168197631836L184.76749999999998,62.55693969726562L184.955,50.70002822875976L185.1425,57.9685562133789L185.26749999999998,73.81414413452148L185.82999999999998,76.43528213500977L186.0175,59.76421432495117L186.07999999999998,71.4329704284668L186.1425,46.86019210815428L186.205,87.5393684387207L186.3925,38.29630508422852L186.6425,70.95976409912109L187.0175,53.50259933471679L187.08,59.110389709472656L187.2675,73.58925399780273L187.76749999999998,53.28056106567382L188.08,62.66578598022461L188.2675,68.81074600219726L188.45499999999998,62.03470840454102L188.5175,78.21355743408203L188.64249999999998,45.98969345092772L188.82999999999998,66.38917083740235L188.89249999999998,43.79640350341796L189.0175,76.36296691894532L189.3925,57.46995468139649L189.58,91.89220123291015L189.7675,79.89541244506836L189.83,85.93105087280273L190.08,71.65758895874023L191.20625,47.419565582275396L191.45625,44.14976348876954L191.58124999999998,47.62381362915039L191.89375,67.9771858215332L192.20624999999998,76.77044448852538L192.76875,50.74294204711914L193.01874999999998,48.3037124633789L193.26874999999998,99.69932479858399L193.45624999999998,52.17159194946289L194.39375,82.79297790527343L195.08125,63.31078338623047L195.14375,61.61161346435547L195.33125,84.7641616821289L195.70625,77.65594940185547L196.14375,49.63139266967775L196.20625,76.90991439819337L196.26874999999998,65.06210174560547L196.33125,40.06880874633791L196.39375,75.37730712890625L196.45624999999998,50.331050872802734L196.95625,82.58805084228516L198.39374999999998,50.33274841308594L198.45625,62.21729583740235L198.51875,57.7478759765625L198.95625,72.1944190979004L199.64374999999998,94.73306884765624L199.76875,68.84238815307617L200.51874999999998,65.72672271728516L200.58125,89.06871643066405L200.76874999999998,45.588462829589844L200.89375,55.23802871704102L200.95624999999998,81.07547454833984L201.08125,84.09139251708984L202.20749999999998,44.94557037353516L202.52,49.46883621215821L202.7075,38.83639450073244L202.895,65.65257415771484L203.45749999999998,49.63139266967775L203.52,63.867644500732425L203.89499999999998,44.33207931518555L204.02,32.37216110229494L204.08249999999998,44.714772796630854L204.4575,64.26493682861329L204.645,58.1080940246582L204.70749999999998,57.97025375366211L205.02,64.88793411254883L205.14499999999998,30.679645538330078L205.27,59.0911735534668L205.4575,99.22958145141602L205.52,46.7343704223633L206.01999999999998,69.03217315673828L206.3325,57.45392990112305L206.45749999999998,14.951052093505865L206.52,54.35225219726563L206.5825,71.2L207.26999999999998,68.65715255737305L207.89499999999998,82.02276992797852L208.395,58.69585037231445L209.4575,59.333310699462885L209.77,57.14735412597656L209.895,73.57336502075195L209.9575,63.173486328124994L210.145,43.985102081298834L210.77,57.278200531005865L211.14499999999998,84.08799743652344L211.395,67.87288894653321L211.7075,58.55515823364257L211.8325,72.92334289550782L211.95749999999998,74.31858520507812L212.0825,33.338129425048834L212.20749999999998,48.92161712646484L212.4575,68.40686721801758L212.52,53.57138366699219L212.7075,56.96001358032227L212.83249999999998,31.476810455322266L213.0825,77.41449127197265L213.14625,20.17336502075196L213.33375,26.073268127441423L213.39624999999998,71.2L213.52125,67.61608505249023L213.83374999999998,78.51504058837891L213.95875,41.946492004394514L214.02124999999998,56.00490951538086L214.08375,20.516064453124983L214.45874999999998,31.64445953369139L214.58375,52.21335144042969L215.33374999999998,89.63053436279297L215.52124999999998,34.54589538574217L215.64625,58.45201568603515L215.77124999999998,33.22663497924805L215.89625,64.67900085449219L216.02125,38.455873870849615L216.58374999999998,100.33556289672852L216.83374999999998,58.725591278076166L216.95875,61.77939834594727L217.14625,31.983967590332014L217.64624999999998,44.21528854370118L217.89624999999998,48.57708435058592L218.14625,73.11917114257812L218.52124999999998,55.34096755981446L219.08375,70.02896881103516L219.39624999999998,45.060120391845686L219.83374999999998,31.777207183837874L220.02124999999998,63.25578308105469L220.08375,56.741913604736325L220.45874999999998,58.78140640258789L220.52125,48.71078262329101L220.64624999999998,89.88509750366211L220.83374999999998,37.688381958007795L221.14625,21.248451232910156L221.33375,46.60630798339844L221.39625,38.70405426025391L221.52124999999998,58.898197174072266L221.89624999999998,77.68494338989258L222.52125,39.717010498046875L222.95875,39.53421936035156L223.14625,31.38419265747072L223.20874999999998,65.49803009033204L223.64624999999998,63.70271148681641L223.70875,51.66049652099609L223.77125,60.8985107421875L223.83374999999998,65.97931671142578L224.14625,95.78309936523438L224.2725,57.52617721557617L225.7725,65.15825042724609L225.96,35.55049972534178L226.085,76.12490386962891L226.3975,26.759074401855486L226.58499999999998,33.144813537597656L226.6475,53.13138122558594L226.77249999999998,33.144813537597656L226.835,54.247615814208984L227.2725,37.20532989501953L227.39749999999998,62.60338439941407L227.5225,40.92287521362303L228.08499999999998,28.60803527832033L228.3975,40.30741500854492L228.96,67.40769500732422L229.085,99.2411247253418L229.21,29.741177368164045L229.46,71.92953491210938L229.6475,29.303755187988287L230.46,34.959008789062494L230.5225,73.83173065185547L230.58499999999998,49.68354110717772L230.96,29.189069366455072L231.45999999999998,53.44929656982421L231.70999999999998,68.44611434936523L231.835,37.389954376220686L231.89749999999998,35.45407943725584L231.96,50.04423446655274L232.21,48.256656646728516L232.52249999999998,50.842961120605466L232.95999999999998,48.734004974365234L233.46,75.27267074584961L233.71,46.24235534667969L233.96,64.25848617553712L234.085,50.82944869995117L234.45999999999998,60.955412292480474L234.64749999999998,64.44664154052734L234.7725,74.49628372192383L234.89749999999998,56.30754699707032L235.0225,75.97850799560547L235.21,66.63592529296875L235.27375,60.151728820800784L235.46124999999998,44.087429809570295L235.71125,39.46740417480467L236.21125,34.1555290222168L236.52374999999998,57.018680572509766L236.58625,22.991689300537104L236.83625,30.308087921142572L237.27375,39.35489120483399L237.96125,35.80370483398437L238.14875,59.41194076538086L238.21124999999998,36.03952713012697L238.39875,40.72052841186522L238.71125,87.58187484741211L239.08624999999998,56.48164672851563L239.14875,58.86574020385743L239.39875,44.90455780029296L239.52374999999998,64.85126724243165L239.89875,35.599999999999994L239.96125,11.237105560302751L240.33624999999998,26.26067657470705L240.77374999999998,73.92319412231446L241.14875,47.100835418701166L241.33625,34.10663986206055L241.71125,45.03078689575196L242.21125,58.15161895751953L242.39875,55.888186645507815L242.52375,38.30866317749022L242.58625,49.60165176391601L242.89874999999998,73.18605422973633L242.96125,31.755410766601557L243.14874999999998,82.1726287841797L243.27375,82.325L243.33624999999998,56.019779968261716L243.46125,35.648685455322266L243.77374999999998,65.6899200439453L244.39874999999998,58.55515823364257L244.77375,70.01335144042969L244.89875,69.98911056518554L244.96125,58.5028060913086L245.21125,45.70335235595704L245.27374999999998,58.80911026000976L245.52375,46.93821105957031L245.64875,68.85786972045898L246.02375,56.262935638427734L246.08624999999998,79.53607711791992L246.27375,58.832740020751956L246.46249999999998,73.09364013671875L247.2125,49.907005310058594L247.52499999999998,49.12993927001955L247.5875,52.17159194946289L247.7125,66.32011489868164L248.275,32.376982116699224L248.3375,43.74126739501955L248.7125,49.38382339477539L248.775,45.83854446411132L249.65,38.08370513916017L249.89999999999998,56.40580062866211L250.025,51.04449310302735L250.15,40.11674728393555L250.33749999999998,49.23084106445313L250.52499999999998,51.67740402221679L251.0875,51.7773551940918L251.4625,53.47285842895508L251.58749999999998,52.88007736206055L252.275,33.17380752563477L252.3375,75.32821426391601L252.7125,51.4222297668457L253.15,48.5185531616211L254.65,48.139254760742205L254.7125,34.190090942382795L254.8375,39.01918563842773L255.02499999999998,44.58548812866209L255.15,29.473712921142578L256.46250000000003,36.19169464111329L256.65000000000003,47.982605743408186L256.9,80.75701599121093L256.9625,46.64827117919921L257.025,43.426950836181646L257.15,81.51534118652344L257.33875,22.787916564941412L257.52625,11.165876770019537L257.65125,42.56202011108397L257.77625,31.83702850341797L258.21375,16.57817840576172L258.46375,13.60449523925783L258.65125,61.64298400878906L258.96375,46.13283004760743L259.46375,29.258872222900408L259.71375,52.17003021240234L259.83875,27.515905761718756L259.96375,42.94220123291015L260.02625,41.91172637939454L260.40125,33.36644439697264L260.65125,63.29421539306641L260.77625,42.34833374023438L260.90125,34.225331878662104L261.08875,55.350677490234375L261.65125,8.863468933105452L261.77625,39.94264755249023L261.83875,50.6069351196289L262.08875,49.23084106445313L262.40125,48.59684371948242L262.52625,61.31108093261719L263.15125,53.37589492797852L263.27625,52.216610717773435L263.40125,32.525211334228516L264.21375,47.354244232177734L264.46375,50.401057434082034L264.58875,40.72052841186522L265.21375,34.624661254882795L265.52625,12.035221099853516L265.96375,45.77145767211914L266.15125,54.10393600463867L266.27625,48.337595367431646L267.52625,67.93821029663086L267.58875,32.658705902099626L267.65125,32.75981140136719L267.77625,44.740507507324224L267.96375,65.25840530395507L268.08875,60.23083419799805L268.4025,29.658609008789057L268.65250000000003,28.47997283935547L269.09000000000003,45.32649841308594L269.1525,35.50351181030274L269.215,44.91813812255859L269.52750000000003,38.96567916870117L269.59,40.33708801269532L269.84,21.542329406738276L270.5275,28.267780303955078L270.9025,42.36198196411132L271.27750000000003,57.43335571289063L271.46500000000003,64.91197128295899L271.59,20.52292251586914L271.965,28.420966339111345L272.1525,49.06896362304687L272.4025,55.01816329956054L272.6525,37.839598846435564L272.7775,18.11227951049804L272.96500000000003,51.026634979248044L273.09,60.81275100708008L273.34000000000003,50.85715255737304L273.465,52.17159194946289L273.6525,8.318218994140608L273.965,58.15161895751953L274.21500000000003,46.93821105957031L274.2775,56.447288513183594L274.40250000000003,41.11897506713868L274.965,42.48298263549805L275.0275,68.5396827697754L275.71500000000003,41.33741455078123L275.84,45.30449829101562L275.90250000000003,41.533310699462874L276.34000000000003,47.600591278076166L276.465,25.44898071289063L276.52750000000003,42.536964416503906L276.59000000000003,48.256656646728516L276.6525,28.900555419921858L276.9025,51.4222297668457L277.02750000000003,27.37704696655274L278.4025,39.438749694824224L278.59,42.76945953369139L279.15250000000003,43.92582397460936L279.34000000000003,50.25880355834961L279.465,16.115632629394526L279.65375,35.40383224487303L279.71625,16.412362670898432L279.77875,47.982605743408186L279.90375,46.93821105957031L280.40375,50.46909484863281L280.71625,23.671180725097656L281.15375,36.19169464111329L282.90375,35.20827560424803L283.34125,71.42556915283203L283.96625,13.36880874633789L284.02875,32.525211334228516L284.34125,28.267780303955078L284.84125,61.417143249511724L284.90375,55.556826782226565L284.96625,42.7491569519043L285.59125,23.200011444091814L285.65375,17.092057800292963L285.71625,34.525457000732416L285.84125,49.36094055175781L285.96625,56.447288513183594L286.09125,53.227665710449216L286.15375,48.69713439941407L286.21625,32.49363708496094L286.34125,26.94315567016602L287.46625,24.119399261474626L287.77875,14.003349304199219L288.09125,39.19735946655274L288.27875,52.82582397460938L288.46625,45.12204666137697L288.77875,33.7263229370117L289.46625,44.10786819458008L290.02875,41.92992401123047L290.21625,32.065245819091814L290.27875,48.23988494873046L290.78000000000003,31.996189880371077L291.15500000000003,48.391577148437506L291.53,52.602970886230466L291.7175,36.7883460998535" style="fill: none;" fill="none"></path></g></g></g></g></g></g><g transform="translate(30, 178)" clip-path="url(#clip_1)"><clipPath id="clip_1"><rect width="300" height="22"></rect></clipPath><g><g><line x1="0" y1="0" x2="0" y2="5" style="visibility: inherit;" fill="rgb(0, 0, 0)" stroke="rgb(204, 204, 204)" stroke-width="1px"></line><line x1="25" y1="0" x2="25" y2="5" style="visibility: inherit;" fill="rgb(0, 0, 0)" stroke="rgb(204, 204, 204)" stroke-width="1px"></line><line x1="50" y1="0" x2="50" y2="5" style="visibility: inherit;" fill="rgb(0, 0, 0)" stroke="rgb(204, 204, 204)" stroke-width="1px"></line><line x1="75" y1="0" x2="75" y2="5" style="visibility: inherit;" fill="rgb(0, 0, 0)" stroke="rgb(204, 204, 204)" stroke-width="1px"></line><line x1="100" y1="0" x2="100" y2="5" style="visibility: inherit;" fill="rgb(0, 0, 0)" stroke="rgb(204, 204, 204)" stroke-width="1px"></line><line x1="125" y1="0" x2="125" y2="5" style="visibility: inherit;" fill="rgb(0, 0, 0)" stroke="rgb(204, 204, 204)" stroke-width="1px"></line><line x1="150" y1="0" x2="150" y2="5" style="visibility: inherit;" fill="rgb(0, 0, 0)" stroke="rgb(204, 204, 204)" stroke-width="1px"></line><line x1="175" y1="0" x2="175" y2="5" style="visibility: inherit;" fill="rgb(0, 0, 0)" stroke="rgb(204, 204, 204)" stroke-width="1px"></line><line x1="200" y1="0" x2="200" y2="5" style="visibility: inherit;" fill="rgb(0, 0, 0)" stroke="rgb(204, 204, 204)" stroke-width="1px"></line><line x1="225" y1="0" x2="225" y2="5" style="visibility: inherit;" fill="rgb(0, 0, 0)" stroke="rgb(204, 204, 204)" stroke-width="1px"></line><line x1="250" y1="0" x2="250" y2="5" style="visibility: inherit;" fill="rgb(0, 0, 0)" stroke="rgb(204, 204, 204)" stroke-width="1px"></line><line x1="275" y1="0" x2="275" y2="5" style="visibility: inherit;" fill="rgb(0, 0, 0)" stroke="rgb(204, 204, 204)" stroke-width="1px"></line><line x1="300" y1="0" x2="300" y2="5" style="visibility: inherit;" fill="rgb(0, 0, 0)" stroke="rgb(204, 204, 204)" stroke-width="1px"></line></g><g transform="translate(0, 8)"><text x="0" y="0" dx="0em" dy="0.95em" style="text-anchor: middle; visibility: hidden; font-family: &quot;Helvetica Neue&quot;, sans-serif; font-size: 12px; font-weight: 200;" fill="rgb(50, 49, 63)" stroke="none" stroke-width="1px">-20k</text><text x="25" y="0" dx="0em" dy="0.95em" style="text-anchor: middle; visibility: inherit; font-family: &quot;Helvetica Neue&quot;, sans-serif; font-size: 12px; font-weight: 200;" fill="rgb(50, 49, 63)" stroke="none" stroke-width="1px">0</text><text x="50" y="0" dx="0em" dy="0.95em" style="text-anchor: middle; visibility: hidden; font-family: &quot;Helvetica Neue&quot;, sans-serif; font-size: 12px; font-weight: 200;" fill="rgb(50, 49, 63)" stroke="none" stroke-width="1px">20k</text><text x="75" y="0" dx="0em" dy="0.95em" style="text-anchor: middle; visibility: inherit; font-family: &quot;Helvetica Neue&quot;, sans-serif; font-size: 12px; font-weight: 200;" fill="rgb(50, 49, 63)" stroke="none" stroke-width="1px">40k</text><text x="100" y="0" dx="0em" dy="0.95em" style="text-anchor: middle; visibility: hidden; font-family: &quot;Helvetica Neue&quot;, sans-serif; font-size: 12px; font-weight: 200;" fill="rgb(50, 49, 63)" stroke="none" stroke-width="1px">60k</text><text x="125" y="0" dx="0em" dy="0.95em" style="text-anchor: middle; visibility: inherit; font-family: &quot;Helvetica Neue&quot;, sans-serif; font-size: 12px; font-weight: 200;" fill="rgb(50, 49, 63)" stroke="none" stroke-width="1px">80k</text><text x="150" y="0" dx="0em" dy="0.95em" style="text-anchor: middle; visibility: hidden; font-family: &quot;Helvetica Neue&quot;, sans-serif; font-size: 12px; font-weight: 200;" fill="rgb(50, 49, 63)" stroke="none" stroke-width="1px">100k</text><text x="175" y="0" dx="0em" dy="0.95em" style="text-anchor: middle; visibility: inherit; font-family: &quot;Helvetica Neue&quot;, sans-serif; font-size: 12px; font-weight: 200;" fill="rgb(50, 49, 63)" stroke="none" stroke-width="1px">120k</text><text x="200" y="0" dx="0em" dy="0.95em" style="text-anchor: middle; visibility: hidden; font-family: &quot;Helvetica Neue&quot;, sans-serif; font-size: 12px; font-weight: 200;" fill="rgb(50, 49, 63)" stroke="none" stroke-width="1px">140k</text><text x="225" y="0" dx="0em" dy="0.95em" style="text-anchor: middle; visibility: inherit; font-family: &quot;Helvetica Neue&quot;, sans-serif; font-size: 12px; font-weight: 200;" fill="rgb(50, 49, 63)" stroke="none" stroke-width="1px">160k</text><text x="250" y="0" dx="0em" dy="0.95em" style="text-anchor: middle; visibility: hidden; font-family: &quot;Helvetica Neue&quot;, sans-serif; font-size: 12px; font-weight: 200;" fill="rgb(50, 49, 63)" stroke="none" stroke-width="1px">180k</text><text x="275" y="0" dx="0em" dy="0.95em" style="text-anchor: middle; visibility: inherit; font-family: &quot;Helvetica Neue&quot;, sans-serif; font-size: 12px; font-weight: 200;" fill="rgb(50, 49, 63)" stroke="none" stroke-width="1px">200k</text><text x="300" y="0" dx="0em" dy="0.95em" style="text-anchor: middle; visibility: hidden; font-family: &quot;Helvetica Neue&quot;, sans-serif; font-size: 12px; font-weight: 200;" fill="rgb(50, 49, 63)" stroke="none" stroke-width="1px">220k</text></g><line x1="0" y1="0" x2="300" y2="0" fill="rgb(0, 0, 0)" stroke="rgb(204, 204, 204)" stroke-width="1px"></line></g></g></g></g></svg>