<svg viewBox="0 0 330 200" xmlns="http://www.w3.org/2000/svg"><g><g><g><g><g><line x1="40" y1="178" x2="35" y2="178" style="visibility: inherit;" fill="rgb(0, 0, 0)" stroke="rgb(204, 204, 204)" stroke-width="1px"></line><line x1="40" y1="160.2" x2="35" y2="160.2" style="visibility: inherit;" fill="rgb(0, 0, 0)" stroke="rgb(204, 204, 204)" stroke-width="1px"></line><line x1="40" y1="142.4" x2="35" y2="142.4" style="visibility: inherit;" fill="rgb(0, 0, 0)" stroke="rgb(204, 204, 204)" stroke-width="1px"></line><line x1="40" y1="124.6" x2="35" y2="124.6" style="visibility: inherit;" fill="rgb(0, 0, 0)" stroke="rgb(204, 204, 204)" stroke-width="1px"></line><line x1="40" y1="106.80000000000001" x2="35" y2="106.80000000000001" style="visibility: inherit;" fill="rgb(0, 0, 0)" stroke="rgb(204, 204, 204)" stroke-width="1px"></line><line x1="40" y1="89" x2="35" y2="89" style="visibility: inherit;" fill="rgb(0, 0, 0)" stroke="rgb(204, 204, 204)" stroke-width="1px"></line><line x1="40" y1="71.19999999999999" x2="35" y2="71.19999999999999" style="visibility: inherit;" fill="rgb(0, 0, 0)" stroke="rgb(204, 204, 204)" stroke-width="1px"></line><line x1="40" y1="53.400000000000006" x2="35" y2="53.400000000000006" style="visibility: inherit;" fill="rgb(0, 0, 0)" stroke="rgb(204, 204, 204)" stroke-width="1px"></line><line x1="40" y1="35.599999999999994" x2="35" y2="35.599999999999994" style="visibility: inherit;" fill="rgb(0, 0, 0)" stroke="rgb(204, 204, 204)" stroke-width="1px"></line><line x1="40" y1="17.80000000000001" x2="35" y2="17.80000000000001" style="visibility: inherit;" fill="rgb(0, 0, 0)" stroke="rgb(204, 204, 204)" stroke-width="1px"></line><line x1="40" y1="0" x2="35" y2="0" style="visibility: inherit;" fill="rgb(0, 0, 0)" stroke="rgb(204, 204, 204)" stroke-width="1px"></line></g><g transform="translate(30, 0)"><text x="0" y="178" dx="0em" dy="0.3em" style="text-anchor: end; visibility: hidden; font-family: &quot;Helvetica Neue&quot;, sans-serif; font-size: 12px; font-weight: 200;" fill="rgb(50, 49, 63)" stroke="none" stroke-width="1px">2</text><text x="0" y="160.2" dx="0em" dy="0.3em" style="text-anchor: end; visibility: inherit; font-family: &quot;Helvetica Neue&quot;, sans-serif; font-size: 12px; font-weight: 200;" fill="rgb(50, 49, 63)" stroke="none" stroke-width="1px">2.2</text><text x="0" y="142.4" dx="0em" dy="0.3em" style="text-anchor: end; visibility: hidden; font-family: &quot;Helvetica Neue&quot;, sans-serif; font-size: 12px; font-weight: 200;" fill="rgb(50, 49, 63)" stroke="none" stroke-width="1px">2.4</text><text x="0" y="124.6" dx="0em" dy="0.3em" style="text-anchor: end; visibility: inherit; font-family: &quot;Helvetica Neue&quot;, sans-serif; font-size: 12px; font-weight: 200;" fill="rgb(50, 49, 63)" stroke="none" stroke-width="1px">2.6</text><text x="0" y="106.80000000000001" dx="0em" dy="0.3em" style="text-anchor: end; visibility: hidden; font-family: &quot;Helvetica Neue&quot;, sans-serif; font-size: 12px; font-weight: 200;" fill="rgb(50, 49, 63)" stroke="none" stroke-width="1px">2.8</text><text x="0" y="89" dx="0em" dy="0.3em" style="text-anchor: end; visibility: inherit; font-family: &quot;Helvetica Neue&quot;, sans-serif; font-size: 12px; font-weight: 200;" fill="rgb(50, 49, 63)" stroke="none" stroke-width="1px">3</text><text x="0" y="71.19999999999999" dx="0em" dy="0.3em" style="text-anchor: end; visibility: hidden; font-family: &quot;Helvetica Neue&quot;, sans-serif; font-size: 12px; font-weight: 200;" fill="rgb(50, 49, 63)" stroke="none" stroke-width="1px">3.2</text><text x="0" y="53.400000000000006" dx="0em" dy="0.3em" style="text-anchor: end; visibility: inherit; font-family: &quot;Helvetica Neue&quot;, sans-serif; font-size: 12px; font-weight: 200;" fill="rgb(50, 49, 63)" stroke="none" stroke-width="1px">3.4</text><text x="0" y="35.599999999999994" dx="0em" dy="0.3em" style="text-anchor: end; visibility: hidden; font-family: &quot;Helvetica Neue&quot;, sans-serif; font-size: 12px; font-weight: 200;" fill="rgb(50, 49, 63)" stroke="none" stroke-width="1px">3.6</text><text x="0" y="17.80000000000001" dx="0em" dy="0.3em" style="text-anchor: end; visibility: inherit; font-family: &quot;Helvetica Neue&quot;, sans-serif; font-size: 12px; font-weight: 200;" fill="rgb(50, 49, 63)" stroke="none" stroke-width="1px">3.8</text><text x="0" y="0" dx="0em" dy="0.3em" style="text-anchor: end; visibility: hidden; font-family: &quot;Helvetica Neue&quot;, sans-serif; font-size: 12px; font-weight: 200;" fill="rgb(50, 49, 63)" stroke="none" stroke-width="1px">4</text></g><line x1="40" y1="0" x2="40" y2="178" fill="rgb(0, 0, 0)" stroke="rgb(204, 204, 204)" stroke-width="1px"></line></g></g><g transform="translate(40, 0)" clip-path="url(#clip_0)"><clipPath id="clip_0"><rect width="290" height="178"></rect></clipPath><g><g><g><line x1="0" y1="0" x2="0" y2="178" fill="rgb(0, 0, 0)" stroke="rgb(60, 60, 60)" stroke-width="1px" opacity="0.25"></line><line x1="19.333333333333332" y1="0" x2="19.333333333333332" y2="178" fill="rgb(0, 0, 0)" stroke="rgb(60, 60, 60)" stroke-width="1px" opacity="0.25"></line><line x1="38.666666666666664" y1="0" x2="38.666666666666664" y2="178" fill="rgb(0, 0, 0)" stroke="rgb(60, 60, 60)" stroke-width="1px" opacity="0.25"></line><line x1="58" y1="0" x2="58" y2="178" fill="rgb(0, 0, 0)" stroke="rgb(60, 60, 60)" stroke-width="1px" opacity="0.25"></line><line x1="77.33333333333333" y1="0" x2="77.33333333333333" y2="178" fill="rgb(0, 0, 0)" stroke="rgb(60, 60, 60)" stroke-width="1px" opacity="0.25"></line><line x1="96.66666666666666" y1="0" x2="96.66666666666666" y2="178" fill="rgb(0, 0, 0)" stroke="rgb(60, 60, 60)" stroke-width="1px" opacity="0.25"></line><line x1="116" y1="0" x2="116" y2="178" fill="rgb(0, 0, 0)" stroke="rgb(60, 60, 60)" stroke-width="1px" opacity="0.25"></line><line x1="135.33333333333334" y1="0" x2="135.33333333333334" y2="178" fill="rgb(0, 0, 0)" stroke="rgb(60, 60, 60)" stroke-width="1px" opacity="0.25"></line><line x1="154.66666666666666" y1="0" x2="154.66666666666666" y2="178" fill="rgb(0, 0, 0)" stroke="rgb(60, 60, 60)" stroke-width="1px" opacity="0.25"></line><line x1="174" y1="0" x2="174" y2="178" fill="rgb(0, 0, 0)" stroke="rgb(60, 60, 60)" stroke-width="1px" opacity="0.25"></line><line x1="193.33333333333331" y1="0" x2="193.33333333333331" y2="178" fill="rgb(0, 0, 0)" stroke="rgb(60, 60, 60)" stroke-width="1px" opacity="0.25"></line><line x1="212.66666666666666" y1="0" x2="212.66666666666666" y2="178" fill="rgb(0, 0, 0)" stroke="rgb(60, 60, 60)" stroke-width="1px" opacity="0.25"></line><line x1="232" y1="0" x2="232" y2="178" fill="rgb(0, 0, 0)" stroke="rgb(60, 60, 60)" stroke-width="1px" opacity="0.25"></line><line x1="251.33333333333334" y1="0" x2="251.33333333333334" y2="178" fill="rgb(0, 0, 0)" stroke="rgb(60, 60, 60)" stroke-width="1px" opacity="0.25"></line><line x1="270.6666666666667" y1="0" x2="270.6666666666667" y2="178" fill="rgb(0, 0, 0)" stroke="rgb(60, 60, 60)" stroke-width="1px" opacity="0.25"></line><line x1="290" y1="0" x2="290" y2="178" fill="rgb(0, 0, 0)" stroke="rgb(60, 60, 60)" stroke-width="1px" opacity="0.25"></line></g><g><line x1="0" y1="178" x2="290" y2="178" fill="rgb(0, 0, 0)" stroke="rgb(60, 60, 60)" stroke-width="1px" opacity="0.25"></line><line x1="0" y1="160.2" x2="290" y2="160.2" fill="rgb(0, 0, 0)" stroke="rgb(60, 60, 60)" stroke-width="1px" opacity="0.25"></line><line x1="0" y1="142.4" x2="290" y2="142.4" fill="rgb(0, 0, 0)" stroke="rgb(60, 60, 60)" stroke-width="1px" opacity="0.25"></line><line x1="0" y1="124.6" x2="290" y2="124.6" fill="rgb(0, 0, 0)" stroke="rgb(60, 60, 60)" stroke-width="1px" opacity="0.25"></line><line x1="0" y1="106.80000000000001" x2="290" y2="106.80000000000001" fill="rgb(0, 0, 0)" stroke="rgb(60, 60, 60)" stroke-width="1px" opacity="0.25"></line><line x1="0" y1="89" x2="290" y2="89" fill="rgb(0, 0, 0)" stroke="rgb(60, 60, 60)" stroke-width="1px" opacity="0.25"></line><line x1="0" y1="71.19999999999999" x2="290" y2="71.19999999999999" fill="rgb(0, 0, 0)" stroke="rgb(60, 60, 60)" stroke-width="1px" opacity="0.25"></line><line x1="0" y1="53.400000000000006" x2="290" y2="53.400000000000006" fill="rgb(0, 0, 0)" stroke="rgb(60, 60, 60)" stroke-width="1px" opacity="0.25"></line><line x1="0" y1="35.599999999999994" x2="290" y2="35.599999999999994" fill="rgb(0, 0, 0)" stroke="rgb(60, 60, 60)" stroke-width="1px" opacity="0.25"></line><line x1="0" y1="17.80000000000001" x2="290" y2="17.80000000000001" fill="rgb(0, 0, 0)" stroke="rgb(60, 60, 60)" stroke-width="1px" opacity="0.25"></line><line x1="0" y1="0" x2="290" y2="0" fill="rgb(0, 0, 0)" stroke="rgb(60, 60, 60)" stroke-width="1px" opacity="0.25"></line></g></g></g><g><g><line x1="0" y1="356" x2="290" y2="356" fill="rgb(0, 0, 0)" stroke="rgb(153, 153, 153)" stroke-width="1.5px"></line></g></g><g><g><line x1="19.333333333333332" y1="0" x2="19.333333333333332" y2="178" fill="rgb(0, 0, 0)" stroke="rgb(153, 153, 153)" stroke-width="1.5px"></line></g></g><g><g><g><g><g><path stroke="rgb(255, 112, 67)" stroke-width="2px" d="M27.453333333333333,-23.579472771867643L27.889300000000002,7.144901993407217L28.130966666666666,20.897070217888796L28.227633333333333,25.472721638906535L28.275966666666665,26.944742269107252L28.469299999999997,27.32650379740852L28.855966666666667,27.853958929788064L29.242633333333334,28.261451675060698L29.290966666666666,28.4454751114736L29.532633333333337,28.90053775610599L30.0643,29.589442523426072L30.3543,30.066120467217672L30.59596666666667,30.49438488532067L30.74096666666667,30.74237529053974L31.320966666666667,31.33254456405251L31.610966666666666,31.69633326496006L31.852633333333333,31.918683080569906L32.19096666666667,32.29836564919239L32.3843,32.543693988504685L32.48096666666667,32.67997416525566L33.3993,33.423858453838506L33.640966666666664,33.840579405429565L33.689299999999996,34.00075387209736L33.93096666666667,34.22014107480675L34.17263333333334,34.471952480599356L34.2693,34.63516112641247L34.655966666666664,35.02389701746628L34.704299999999996,35.18547926110844L35.042633333333335,35.50526755381472L35.23596666666667,35.7241908351447L35.670966666666665,36.10792533278067L36.057633333333335,36.51435208237052L36.7836,46.56698837255209L36.97693333333333,49.57813012115585L37.46026666666667,50.31679214093816L37.55693333333333,50.556274333756406L39.586933333333334,51.288608574617285L39.635266666666666,51.50517476312773L40.02193333333334,51.69503265831611L40.45693333333333,51.848804993074395L40.553599999999996,51.92742124874631L40.601933333333335,51.954125355718276L40.74693333333333,51.96736501188215L41.03693333333334,52.07342485943781L41.47193333333333,52.2826230417471L41.616933333333336,52.43281006487551L41.66526666666666,52.48511466882334L42.1486,52.639567236607434L42.97026666666667,52.9566521944121L43.06693333333334,53.070225700781236L43.7436,53.3197177365558L43.98526666666667,53.468699053381016L44.08193333333334,53.54662067754688L44.226933333333335,53.602942177842934L44.6136,53.734849104044116L44.903600000000004,53.85670944713276L45.00026666666667,53.92373203236676L45.0979,59.76509487330563L45.3879,61.720610176621875L45.62956666666667,62.919049797981714L46.1129,63.09647805050905L46.4029,63.16830308006975L46.692899999999995,63.262439533373055L46.88623333333333,63.190166987270246L47.176233333333336,63.17938767590827L47.2729,63.20409327363586L47.417899999999996,63.22451659922487L47.51456666666667,63.26002377535313L47.5629,63.28720784862463L47.804566666666666,63.23903868400943L47.8529,63.25817164720267L48.2879,63.420170119229496L48.5779,63.43505226696239L48.67456666666667,63.454518923535076L48.91623333333333,63.45481857340761L49.1579,63.43579204285511L49.25456666666667,63.42504875482432L49.83456666666666,63.537846280995964L50.1729,63.595213447172625L50.22123333333334,63.6149635416744L50.3179,63.64606521435019L50.414566666666666,63.68193888040615L50.4629,63.698909733808776L50.55956666666666,63.69725751105452L51.13956666666667,63.766662309239834L51.28456666666666,63.80741711547094L51.4779,63.82851108339466L51.6229,63.85931780465553L51.7679,63.86399980344808L51.96123333333334,63.91831248986256L52.009566666666665,63.94739513989549L52.2029,63.95868958650908L52.44456666666667,63.97918912654782L52.97623333333333,64.06513186957145L53.314566666666664,64.14018367727313L53.653866666666666,70.06646635234272L53.8472,71.73130133777836L53.992200000000004,71.74437471339104L54.04053333333333,71.94898206028044L54.08886666666667,71.93272513756959L54.427200000000006,71.87822259250227L54.7172,71.71116844649003L54.81386666666667,71.63737575958636L54.862199999999994,71.66660127863429L55.05553333333333,71.56205175466881L55.24886666666667,71.53961383744344L55.4422,71.54418595863662L55.49053333333333,71.60397632191568L55.68386666666667,71.62106678268314L56.11886666666667,71.6265058439404L56.3122,71.62403800253364L56.360533333333336,71.6133606736788L56.40886666666667,71.62572391941933L56.50553333333333,71.57633171115752L56.55386666666667,71.55334463606607L56.84386666666667,71.47858297494156L57.0372,71.50641864438981L57.08553333333334,71.51781430810729L57.1822,71.49057542970792L57.27886666666667,71.5112640729279L57.42386666666667,71.5168616733173L57.4722,71.49363167170347L57.52053333333333,71.50525922502179L57.71386666666666,71.50947531141371L57.907199999999996,71.5027044060157L58.14886666666666,71.52222553021687L58.1972,71.50952987410722L58.245533333333334,71.509969271833L59.3572,71.44866710830166L59.550533333333334,71.42614719250334L59.6472,71.43622020774644L59.888866666666665,71.46759740082493L61.04886666666667,71.51496119370483L61.14553333333333,71.53254207095632L61.3872,71.54151485002382L61.483866666666664,71.5598473955284L61.6772,71.56822873381051L61.77386666666666,71.56636135943911L62.113166666666665,69.90090456357058L62.40316666666667,76.16818508729475L62.5965,78.07960610754832L62.93483333333333,78.40561803927291L63.031499999999994,78.49294991716825L63.32149999999999,78.40353001184789L63.41816666666667,78.33279716082673L63.56316666666667,78.30382379027687L63.70816666666667,78.2735496763363L64.09483333333333,78.20313743364736L64.14316666666667,78.17607236984946L64.28816666666667,78.14968307341215L64.6265,78.12371930934513L64.7715,78.06719592051965L65.2065,77.97160459410331L65.39983333333333,77.90384769693371L65.54483333333333,77.86086907462887L65.59316666666666,77.86080889247836L66.02816666666666,77.78488956792052L66.0765,77.74629481703907L66.26983333333334,77.67481231710573L66.3665,77.65559558874746L66.41483333333333,77.63317982198711L66.60816666666666,77.58388502550694L66.6565,77.55877341971569L66.8015,77.56217209740217L66.84983333333334,77.5573097236268L67.2365,77.55521231196263L67.42983333333333,77.53417441040858L67.5265,77.52143148419437L67.62316666666666,77.52040106009602L67.6715,77.52245363578547L68.1065,77.51907382305076L68.25150000000001,77.50394907562621L68.63816666666666,77.5040310828945L68.73483333333333,77.5141411962826L68.9765,77.51576314993858L69.21816666666666,77.4934645015841L69.5565,77.48521529194255L70.18483333333333,77.46946152018471L70.47483333333334,77.46087348451304L70.61983333333333,77.44986029860404L70.66913333333333,77.97617193578792L70.86246666666666,82.05505670463775L71.05579999999999,83.71082464860599L71.15246666666667,84.20422785284143L71.39413333333333,84.12920899630197L71.44246666666668,84.11574910712426L71.87746666666666,84.10115031788403L72.16746666666667,83.90342296478052L72.3608,83.72656919156582L72.40913333333333,83.62825451372588L72.89246666666666,83.54117317819157L73.13413333333334,83.395255481671L73.8108,83.23878683908903L73.90746666666666,83.21421558339632L74.87413333333333,83.02228974902403L74.92246666666666,82.95780513168503L75.1158,82.90401453221185L75.16413333333334,82.87367742790087L75.21246666666667,82.8641603992382L76.08246666666666,82.71722655910254L76.32413333333334,82.64767269318702L76.66246666666666,82.58355320699636L76.71079999999999,82.57741812827476L77.0008,82.5206791518995L77.09746666666666,82.5051576602122L77.33913333333334,82.4760375352997L77.4358,82.45164593256413L78.5958,82.38928146420987L78.69246666666666,82.36599725264037L78.78913333333334,82.35471933417836L79.1758,82.33382370869316L79.27343333333334,85.87602108359336L79.6601,87.09975140583516L79.8051,87.74152615455392L79.95009999999999,88.201109250747L80.57843333333332,88.16990704547254L80.91676666666667,88.1398406362858L81.20676666666667,87.96551636267682L81.49676666666667,87.84899264397914L81.5451,87.80353411979289L81.8351,87.81244414134866L82.31843333333333,87.6448368820073L82.5601,87.54945954658157L82.60843333333332,87.50802779489034L82.75343333333333,87.44598765460633L83.04343333333333,87.42932141807074L83.1401,87.38255356844188L83.2851,87.34962959020118L83.4301,87.33055809417004L83.5751,87.30286835217073L83.62343333333332,87.27119690949796L84.49343333333333,87.12663280598844L85.21843333333334,86.96054414401212L85.94343333333333,86.80071269121693L86.08843333333333,86.73946939303556L86.13676666666666,86.71144164322043L86.23343333333334,86.68063427423905L86.28176666666666,86.6669211668237L87.29676666666666,86.606779917552L87.3451,86.57970662846387L87.58676666666666,86.563742005629L87.73176666666666,86.55212001913864L87.87773333333334,91.83099047217988L87.9744,93.21923925839133L88.16773333333333,93.3531264852353L88.36106666666666,93.17552581998315L88.5544,93.03619942537729L89.76273333333333,92.2030379339212L89.81106666666666,91.9273781169699L90.34273333333334,91.77133370009803L90.72940000000001,91.5998848455183L90.77773333333333,91.5100688033412L90.92273333333334,91.41041621843311L91.01939999999999,91.35051641845507L91.06773333333334,91.32690215701999L91.50273333333334,91.24263920961361L91.84106666666666,91.14230570369527L92.56606666666667,91.04237945429557L92.61439999999999,91.00332610473654L92.7594,90.93989029129034L93.67773333333334,90.77547370970154L93.9194,90.69113908880921L93.96773333333334,90.66322449050537L94.06439999999999,90.653320202834L94.40273333333334,90.5849193482419L94.74106666666667,90.52864677157461L94.7894,90.49954058661004L95.2244,90.43011742214543L95.41773333333335,90.3926991384631L95.5144,90.39914929155728L95.70773333333334,90.36868890310595L96.14273333333334,90.31228702123542L96.4337,95.370264985727L96.48203333333332,95.99557337122164L96.7237,95.94521317767203L97.11036666666666,95.8564021643612L97.54536666666667,95.44180088211935L97.5937,95.32609492829397L97.78703333333333,95.31890663591314L98.0287,95.28367145385532L98.1737,95.25033051826415L98.27036666666667,95.17923588471967L98.41536666666667,95.10286050712274L98.56036666666667,95.1359752108908L98.7537,95.14620669157077L99.14036666666667,95.02920062384237L99.52703333333334,94.8961252660788L99.72036666666668,94.81987105283852L99.86536666666667,94.77630389473948L99.9137,94.75741118413843L100.2037,94.7145799703081L100.6387,94.58926007469536L100.83203333333333,94.52047180330767L100.88036666666667,94.50424680470236L100.9287,94.48415449070576L101.02536666666667,94.44589475037945L101.17036666666668,94.43471389783113L101.5087,94.3268060140988L101.9437,94.2358515338058L101.99203333333332,94.21496703851089L102.42703333333333,94.1666663486596L102.62036666666665,94.1336092948567L102.71703333333333,94.10421926974213L102.86203333333333,94.07934565305398L103.1037,94.05050941395668L103.15203333333334,94.02871321465943L103.2487,94.02098607667202L103.29703333333333,94.0133058299062L103.34536666666666,94.00685763566013L103.58703333333334,93.96761124196148L104.2637,93.85556149739772L104.6987,93.76181969719751L104.94133333333333,98.38537555240882L105.27966666666666,99.11738909871367L105.328,99.21648689982588L105.763,99.4532440092483L106.10133333333333,99.22862752635241L106.68133333333334,99.08767330753493L107.01966666666667,98.98768128188753L107.11633333333333,98.93509153494927L107.30966666666666,98.87211025944261L107.79299999999999,98.70915199873124L107.84133333333334,98.6491392658868L107.98633333333333,98.59285803457259L108.228,98.49000173753551L108.42133333333334,98.43699831350462L109.04966666666667,98.19132884318775L109.19466666666666,98.0745677708839L109.48466666666667,97.96023673293755L109.533,97.92001088403993L109.58133333333333,97.92364325506492L110.35466666666667,97.71419977659883L111.22466666666666,97.42317275856406L111.51466666666667,97.27848566965606L111.853,97.15558373152122L112.143,97.05340240960987L112.33633333333334,97.01448947955869L112.43299999999999,97.00369195571453L112.52966666666667,96.99564017185841L112.81966666666666,96.96302751698875L112.96466666666667,96.93050304650899L113.06133333333332,96.89607407927407L113.20633333333332,96.86633189403983L113.35133333333333,96.85145299400082L113.44896666666668,108.09178474177477L113.88396666666667,105.32206044980752L113.98063333333333,104.14217556234858L114.56063333333333,103.14010831331213L114.60896666666667,102.86267441694439L114.6573,102.73960722143802L115.33396666666667,102.4038945098381L115.5273,102.24529669462623L115.72063333333332,102.08284055524763L115.91396666666667,101.98183432618886L115.9623,101.97587730705773L116.1073,101.97894728845372L116.20396666666667,101.92620266874438L116.30063333333332,101.84435557544175L116.68730000000001,101.69727511173468L116.78396666666667,101.59427178789967L116.92896666666667,101.5163892414862L117.07396666666668,101.44335444887564L117.21896666666667,101.37082335984731L117.31563333333332,101.32540244351632L117.46063333333333,101.28232172277811L118.37896666666666,100.96479724391475L118.95896666666665,100.69664542241149L119.0073,100.59745478738323L119.05563333333333,100.54430336984687L119.1523,100.50586977968425L119.20063333333333,100.4745548706347L119.2973,100.4385578197567L119.39396666666666,100.40730546600606L119.5873,100.3395110329598L119.78063333333333,100.28616827608975L120.0223,100.21605423057628L120.11896666666667,100.17492326189442L120.4573,100.10469996955804L120.6023,100.06142703302746L120.84396666666666,100.01174220922009L121.0373,99.94707761252647L121.27896666666666,99.88889580382326L121.37563333333334,99.85675117198652L121.42396666666666,99.84911300189505L121.95563333333334,99.74217880203487L122.1016,103.30000580678633L122.2466,105.28298167386727L122.39160000000001,105.96571789979662L122.43993333333333,106.31530075907628L122.58493333333334,106.46466178190687L122.63326666666666,106.38529501703972L122.72993333333334,106.44842239125848L122.9716,106.29994705886928L123.01993333333334,106.21727558246639L123.35826666666667,105.75361329397973L123.4066,105.58921913528867L123.59993333333334,105.35983218021521L123.69659999999999,105.20092975278897L123.79326666666667,105.04840832704366L123.9866,105.00851902292392L124.46993333333334,104.78991065301368L124.5666,104.73698330485186L124.66326666666667,104.66587987114004L124.71159999999999,104.62191214134998L124.90493333333333,104.50866879812096L125.04993333333334,104.41237060365444L125.4366,104.23381750624587L125.62993333333334,104.12710583460694L126.30659999999999,103.98354271725526L126.49993333333335,103.87854963444389L126.5966,103.83310429424861L126.83826666666667,103.73893513730413L126.8866,103.69945516124737L126.98326666666667,103.66467739920432L127.07993333333334,103.64583700233884L127.12826666666666,103.63605561654028L127.22493333333334,103.61480686307033L127.32159999999999,103.57247196805503L127.36993333333334,103.54124921313533L127.70826666666667,103.46869569346791L127.85326666666667,103.39021906055657L128.09493333333333,103.30227139233843L129.01326666666668,103.044024308441L129.4966,102.86584360597075L129.7866,102.75276753663285L129.9316,102.68220118689321L130.07659999999998,102.6428357720607L130.2216,102.60179450393422L130.2699333333333,102.58009472573016L130.31826666666666,102.57504043306177L130.75423333333333,106.88841479219576L130.80256666666668,108.25921957849738L130.8509,108.85810499536775L130.94756666666666,109.0901439820164L131.52756666666667,108.76878244383438L131.5759,108.65777301401887L131.67256666666668,108.66098003271519L132.05923333333334,108.41530014480142L132.49423333333334,108.06484618605673L133.3159,107.60489012843819L133.99256666666665,107.22540062083738L134.1859,107.06004190866334L134.23423333333332,106.9872628701454L134.3309,106.94063870467923L134.71756666666667,106.77894847499785L134.81423333333333,106.70401706966003L135.00756666666666,106.64037866196705L135.4909,106.44473870635532L135.87756666666667,106.33637669098528L135.9259,106.30805676702309L136.45756666666665,106.1414455220808L136.84423333333334,106.00145007508128L137.13423333333333,105.88989260595183L137.18256666666667,105.84305723548279L137.27923333333334,105.78199536812411L137.3759,105.7400746322039L137.61756666666668,105.68564131189477L138.5359,105.50093229511113L138.82590000000002,105.35982987850527L138.87423333333334,105.30273479691036L139.31019999999998,111.33622973701623L139.40686666666667,112.66154983503004L139.55186666666665,112.93054445642942L139.6002,112.73173010366773L139.64853333333335,112.53619133239275L140.18019999999999,112.15731843353895L140.3252,111.94112300885197L140.6152,111.76201143268489L140.85686666666666,111.5216885757558L140.95353333333333,111.34686506843906L141.0502,111.27034052925214L141.14686666666665,111.13494234298739L141.58186666666666,110.74793979232035L141.77519999999998,110.5786784312264L141.96853333333334,110.43638774815608L142.0652,110.32938498575513L142.2102,110.23264182305047L142.6452,109.9838319679967L142.69353333333333,109.89218177976824L143.17686666666665,109.66015433842726L143.27353333333335,109.53734094969865L143.85353333333333,109.3463029833807L143.90186666666668,109.26503293431323L143.9502,109.23646323894421L144.14353333333335,109.1546201259344L144.33686666666668,109.04676889033468L144.62686666666667,108.93563067511127L144.6752,108.87831569789472L144.8202,108.80726249539445L145.20686666666666,108.69756834365009L145.44853333333333,108.58661992745719L145.5935333333333,108.49775368987657L145.73853333333335,108.42277545636634L145.78686666666667,108.40054934890792L146.17353333333332,108.31979237100995L146.46353333333332,108.2274026694939L146.75353333333334,108.09682542750376L146.9952,108.0014912565623L147.8661666666667,113.27062140345795L148.05949999999999,114.64001031649181L148.15616666666668,114.975445592201L148.39783333333335,114.86310701483377L148.6395,114.52989992175664L149.26783333333336,113.75064370833091L149.46116666666666,113.37517952264028L149.60616666666667,113.14277667802774L150.33116666666666,112.88465431631268L150.86283333333333,112.51460410148103L150.91116666666667,112.38506675061646L151.05616666666668,112.29662463753543L151.34616666666668,112.17727262285092L151.6845,112.04983591588362L151.73283333333333,111.99040899143229L151.78116666666665,111.96294100721362L151.8295,111.93589610946086L151.87783333333334,111.91055260626052L151.9261666666667,111.87827792920939L152.31283333333334,111.7687207435318L153.4245,111.42087074442946L153.47283333333334,111.29875098563507L153.52116666666666,111.25162850289726L153.8595,111.11429701587316L154.39116666666666,110.94269889098629L154.48783333333333,110.86255224198767L155.0678333333333,110.68927535906636L155.1161666666667,110.62884066550497L155.26116666666667,110.56858579530885L155.35783333333333,110.5260456568437L155.40616666666668,110.49663286705129L155.50283333333334,110.46248385101353L156.37380000000002,113.84679347512065L156.6154666666667,115.65396980713888L156.76046666666667,116.2261712916824L156.90546666666668,116.36396580839556L157.34046666666666,116.27952491612557L157.3888,116.15366431287326L157.6788,115.97178283992827L157.7754666666667,115.89424006838627L157.8238,115.82570383757064L158.1138,115.58213285747088L158.2588,115.5244349126307L158.5488,115.34346991432572L158.64546666666666,115.29879061476254L158.74213333333333,115.23785569696389L158.8871333333333,115.13957439192761L159.56380000000001,114.8505403349657L159.66046666666668,114.72538931816395L159.7088,114.66786608591552L159.75713333333331,114.63737466780805L160.2888,114.42406619444033L160.77213333333333,114.24947465912864L161.15879999999999,114.08444842534175L161.98046666666667,113.73951974164521L162.3188,113.50518199995483L162.36713333333333,113.41225883124866L162.51213333333334,113.34386159407676L162.99546666666666,113.17366393037909L163.28546666666665,113.05442716964566L163.4788,112.95349393572954L163.72046666666668,112.86368122782278L163.81713333333332,112.81708626474729L163.91379999999998,112.77828761495888L164.01046666666667,112.75280457901283L164.10713333333334,112.73663377215661L164.30046666666667,112.68930158451262L164.3488,112.67186387012917L164.4938,112.61991836914575L164.78379999999999,112.53978150573126L164.83309999999997,118.64743419136629L164.9781,119.4720997919024L165.36476666666667,119.19824638692681L165.46143333333336,119.01753754236745L165.50976666666668,118.91322410946623L165.5581,118.81608461393577L165.94476666666665,118.86695844845075L166.66976666666667,118.36790408765108L166.76643333333334,118.19353100679768L166.86309999999997,118.01545468873516L166.95976666666667,117.91406991453988L167.05643333333333,117.80423293820627L167.49143333333336,117.6656142065275L167.68476666666666,117.51886596647947L168.3131,117.23669569005983L168.50643333333332,117.06377039048202L169.42476666666667,116.70001433400256L170.14976666666666,116.30155662926418L170.1981,116.16317025492307L170.4881,116.02678518196856L170.53643333333332,115.97368980855026L170.63309999999998,115.92710361901008L170.7781,115.85913537151542L171.01976666666667,115.74475209178607L171.2131,115.65608823377517L171.3097666666667,115.583101666208L172.0831,115.35512854940771L172.4214333333333,115.19154067721092L172.61476666666667,115.09173968996444L172.9531,114.97435697187736L173.00143333333332,114.92489767154977L173.3397666666667,114.8324801685838L173.4374,118.75693849809254L174.59740000000002,120.36666072633054L174.7424,120.8223064101523L175.0807333333333,120.72132962217292L175.22573333333335,120.59426618000975L175.27406666666667,120.484345437232L175.37073333333333,120.3538561347554L175.41906666666665,120.27860054026338L175.75740000000002,120.10604829982009L176.38573333333335,119.80510068951573L176.62740000000002,119.63913793867388L177.0624,119.43205078692901L177.15906666666666,119.32652278021476L177.25573333333335,119.26197877906415L177.59406666666666,119.08605992610055L178.2224,118.78809791748168L178.31906666666666,118.66577915532723L178.60906666666665,118.52108389193813L178.99573333333333,118.33178445713224L179.28573333333335,118.19104277198466L179.33406666666667,118.13586803407954L179.3824,118.11283949652758L179.57573333333335,118.04454151284529L179.8174,117.93490154591751L180.15573333333333,117.7781464071499L180.5424,117.61056904230794L180.73573333333334,117.50086706946576L180.92906666666667,117.42756987235035L181.02573333333333,117.38212707227794L181.31573333333336,117.29320195492008L181.55739999999997,117.20572913639518L181.65406666666667,117.16625284240479L181.75073333333333,117.12443563665701L181.89573333333334,117.05760101475047L182.09003333333334,122.10396782159128L182.67003333333332,123.50130777239596L182.9117,123.79003681147037L183.15336666666667,123.67025160015804L184.02336666666667,123.15416252380963L184.2167,122.84858785798062L184.3617,122.65108443120099L184.6033666666667,122.49931109195643L184.9417,122.1721423037222L185.13503333333333,121.98475197456395L185.23170000000002,121.89970427603161L185.5217,121.71674310520481L185.57003333333333,121.64979373024462L185.86003333333335,121.48261493029167L186.19836666666666,121.29577959055294L186.48836666666665,121.14194854639351L186.6333666666667,121.06263141793724L186.92336666666668,120.92394463110782L187.45503333333332,120.66069500413187L187.5517,120.5518052123983L188.03503333333333,120.35176929065584L188.18003333333334,120.22790341445508L188.2767,120.15772437116118L188.51836666666665,120.0264281483311L189.29170000000002,119.73919415628372L189.38836666666666,119.61758356140693L189.63003333333333,119.52388478769853L189.67836666666668,119.48701160387397L189.8717,119.41950643431011L189.96836666666667,119.37124122491737L190.25836666666666,119.27560226115962L190.3067,119.22749707696852L190.59766666666667,125.24736501454717L191.17766666666668,126.5695476343614L191.41933333333333,126.97364401252219L191.99933333333334,126.88417634794459L192.04766666666666,126.85221159884142L192.33766666666668,126.87656237014775L192.386,126.86328068175507L193.06266666666664,126.61180753349839L193.256,126.45430012595529L193.35266666666666,126.35151075140203L193.44933333333333,126.29591319208015L193.59433333333334,126.2374807990929L193.73933333333335,126.1876596211595L194.17433333333332,126.0710857748748L194.46433333333331,125.93040142177823L194.561,125.84488337552335L195.09266666666664,125.63638165389236L195.14100000000002,125.55363040803297L195.431,125.46223174821864L195.76933333333335,125.37514573124508L196.92933333333335,125.09205476578316L197.21933333333334,124.95352127592636L197.316,124.88613103163503L198.331,124.64389903048354L198.476,124.55056824296622L198.66933333333336,124.49208967092606L198.71766666666667,124.46863441527776L198.766,124.45201734560995L199.00863333333334,133.29597657876695L199.15363333333335,132.16853843318665L199.25029999999998,132.30322685893552L199.6853,132.49999594407134L200.02363333333332,132.2583328715469L200.2653,131.94498481248337L200.65196666666665,131.5087562736706L200.8453,131.20858777573216L201.0386333333333,131.00966123643673L201.66696666666667,130.56769932479608L201.76363333333333,130.3894808684914L201.9086333333333,130.25213774428158L202.48863333333333,130.03908007259784L202.68196666666665,129.88170469080097L202.92363333333333,129.7142383225998L203.0203,129.6105556001735L203.50363333333334,129.36141658754565L203.6003,129.22310200015136L203.69696666666667,129.15092033946345L204.3253,128.9334970080967L205.0986333333333,128.5794441391264L205.34029999999998,128.39233624008995L205.67863333333332,128.21884654482517L205.82363333333333,128.11537689721678L205.9203,128.05762945042878L206.88696666666664,127.75220716722856L206.9353,127.64724205949321L206.98363333333333,127.61085087960487L207.2253,127.53714787633876L207.32196666666667,127.48587959906955L207.7579333333333,132.7207726535246L208.14460000000003,134.13475918463007L208.43460000000002,134.2454576483105L208.48293333333334,134.21978800269173L208.67626666666666,134.07354872456852L209.20793333333333,133.78599078962705L209.49793333333332,133.49395818564147L209.7879333333333,133.2053214402582L209.93293333333335,133.05664288078506L210.65793333333332,132.70084410630096L210.85126666666667,132.49592298782596L211.1896,132.27352407728654L211.38293333333334,132.10312713132805L211.62460000000002,131.94375590368068L211.86626666666666,131.7709673758863L212.0596,131.65104247678872L212.10793333333334,131.5967358158516L212.6396,131.41092107911373L212.68793333333332,131.33460459178528L213.2196,131.11438119729118L213.31626666666665,131.0041250834458L213.3646,130.95693744568806L213.70293333333333,130.79922229453558L213.7996,130.72433969499065L213.84793333333332,130.68249112701832L213.89626666666666,130.6478642890943L213.94459999999998,130.61437908023873L214.2346,130.5487369513818L215.29793333333333,130.19907431055037L215.44293333333334,130.05612090900223L216.1196,129.83289881847708L216.3139,134.85091623157982L216.36223333333334,136.57664308694223L216.4589,136.71858301683432L216.84556666666666,136.53145596660426L217.08723333333333,136.41976584576742L217.42556666666667,136.08852085346933L218.77890000000002,135.31710176728654L219.6489,134.66456510145215L219.89056666666667,134.3818815515004L220.32556666666667,134.10530323879607L220.3739,134.00599091975894L220.90556666666666,133.79620278396908L220.9539,133.70874325191588L221.05056666666667,133.644599317776L221.14723333333333,133.58545969702806L221.29223333333331,133.52771739595536L221.3405666666667,133.5044236076874L221.43723333333332,133.45079555192598L222.5489,133.04198119067848L222.79056666666665,132.85081779069816L222.93556666666666,132.72639046641325L223.08056666666664,132.62856405535976L223.32223333333332,132.5290037440051L223.85389999999998,132.3231070890066L224.2889,132.11194181603307L224.4339,131.99838748026528L224.4822333333333,131.95432478919219L224.86986666666667,136.90389046291884L225.15986666666666,138.12671511536948L225.9332,138.23886993278896L226.2232,138.12008999213526L226.41653333333335,137.95864705570025L226.56153333333333,137.83212944366778L226.85153333333332,137.6090552702494L226.9482,137.52882430240356L227.3832,137.1951639809753L227.57653333333334,137.01830311294034L227.86653333333334,136.82899390362394L228.10819999999998,136.60839699120135L228.39819999999997,136.4211323690737L228.8332,136.20071808196082L229.17153333333334,136.03869974522883L229.36486666666667,135.93633950921625L229.79986666666665,135.73239533058626L229.94486666666668,135.625745582437L230.52486666666667,135.37261208529935L230.8632,135.1328233260979L231.0082,134.99961610374064L231.10486666666668,134.9232035033024L231.1532,134.88514402962082L231.34653333333335,134.81529260711775L231.39486666666667,134.7738096744922L231.4432,134.748887873623L232.0232,134.50580547360576L232.3132,134.33566474350692L232.36153333333334,134.26360485384583L232.45819999999998,134.2268511933974L232.7482,134.11523734578168L232.8932,134.0525364012977L233.1832,133.93349485193076L233.32916666666665,138.87129107890843L233.6675,140.60114347868657L234.15083333333334,140.8729076264307L234.44083333333333,140.59579965704697L234.6341666666667,140.38396188388472L234.77916666666667,140.31537522307102L235.16583333333332,140.1933945340844L235.26250000000002,140.0712294436375L235.89083333333335,139.65021647980453L236.08416666666668,139.382388657244L236.13250000000002,139.28663725433108L237.05083333333334,138.74509552352833L237.09916666666666,138.5628927327192L237.24416666666667,138.4151154451667L237.5825,138.1854702738851L237.67916666666667,138.09050886952673L238.06583333333333,137.84937806464373L238.16250000000002,137.74057353597027L238.21083333333334,137.6924845607911L238.83916666666667,137.39486146664126L238.93583333333333,137.26125176160187L238.98416666666665,137.20266141715246L239.41916666666665,137.03919345802842L239.56416666666667,136.94652840693826L240.09583333333333,136.7118050968648L240.24083333333334,136.5877819036246L240.3375,136.52039267941717L240.43416666666664,136.46434932447792L241.01416666666665,136.24110268800652L241.78846666666666,142.62147369161008L242.03013333333334,143.12107347898115L242.51346666666666,143.00951735810173L242.80346666666665,142.5811708230845L243.14180000000002,142.21774426278688L243.4318,141.9867543911255L243.52846666666667,141.86448992894046L243.72179999999997,141.6309277463137L244.06013333333334,141.39041543746526L244.1084666666667,141.280236842467L244.1568,141.1996966964703L244.64013333333335,140.95889668365425L245.65513333333334,140.37427112072737L245.8968,140.08761605206143L246.1384666666667,139.8858366745204L246.42846666666668,139.69515669159563L246.9118,139.44554074946782L247.15346666666665,139.26926612956447L247.44346666666667,139.1088742736075L247.6368,138.97713163861914L247.68513333333334,138.92645388653662L248.0718,138.76133441272611L248.2168,138.66625780863535L248.26513333333332,138.61592992247037L248.3618,138.55056738883525L248.5068,138.4790308714815L248.55513333333334,138.44293924095956L248.60346666666666,138.41702061868529L248.84513333333334,138.33875042789228L248.9418,138.27708108005837L249.0868,138.19061076276876L249.13513333333333,138.14853879104072L249.18346666666667,138.11344388809806L249.2318,138.09229518081847L249.32846666666669,138.0497823509756L249.47346666666667,137.9909530148859L249.52179999999998,137.9588369269954L249.81179999999998,137.84987689673267L250.1018,137.72282474523593L250.1984666666667,137.65697765733546L250.34346666666667,137.59907980080172L250.8761,142.87100406681216L251.26276666666666,144.28022159396028L251.31109999999998,144.6656897701574L251.35943333333333,144.7203864049242L251.64943333333332,144.59262754295247L251.9877666666667,144.15634551576966L252.22943333333333,143.8807731835014L252.56776666666667,143.60613514089482L253.1961,143.04326343865367L253.48610000000002,142.71101367572302L253.58276666666666,142.5857759121041L253.7277666666667,142.46125232586206L254.0661,142.23623641553206L254.3561,142.04638354844656L254.5011,141.92096801062468L254.59776666666664,141.82942522603287L254.64610000000002,141.76892825674423L255.0811,141.50915764782252L255.56443333333334,141.22367882434554L255.61276666666666,141.1311134567977L255.99943333333331,140.94429280969862L256.5794333333333,140.67168291393926L256.72443333333337,140.5478943109036L256.86943333333335,140.44886328934194L257.4977666666667,140.1625898663955L257.88443333333333,139.91149260952346L258.2711,139.68779204593383L258.31943333333334,139.5965746829101L258.4644333333333,139.5111917909738L258.5611,139.46106868555418L258.6094333333333,139.4245536254951L259.2387333333333,145.09095468303886L259.5287333333333,146.5940812771956L259.62539999999996,147.00308788852215L260.3504,147.11402591775754L260.68873333333335,147.0604887506691L260.9787333333333,146.95885671679164L261.12373333333335,146.94125992507932L261.1720666666667,146.91855775848387L261.46206666666666,146.8306025610428L262.0904,146.59858445960464L262.1870666666667,146.49098383378444L262.23539999999997,146.43300713000136L262.2837333333334,146.40937565832564L262.57373333333334,146.29829702099929L262.8154,146.19306774533027L263.44373333333334,145.9467028248198L264.21706666666665,145.63733602368495L264.55539999999996,145.46559460402628L264.79706666666664,145.3284864409003L264.8454,145.27769923160173L265.1354,145.1859528063229L265.5704,145.0677335452584L265.7154,144.97664149378383L265.76373333333333,144.9341484778364L265.8604,144.89046077946543L266.1504,144.79958166187916L266.19873333333334,144.7689461872158L266.2954,144.72435970798662L266.53706666666665,144.65935307650426L266.6820666666667,144.61586272093254L267.40706666666665,144.40161040834369L267.6013666666667,149.83188854280647L267.89136666666667,151.1426916677461L268.22970000000004,151.55497476335483L268.4230333333333,151.47007230781352L268.56803333333335,151.35331209857117L269.2930333333333,151.01821408378734L269.6797,150.72117317231792L269.8730333333333,150.56141775999157L269.9213666666667,150.50040522263555L270.79136666666665,149.99685320569907L270.9363666666667,149.79378557596755L270.9847,149.7002024900739L271.08136666666667,149.6410986498542L271.17803333333336,149.60015151249013L271.22636666666665,149.56410180731606L271.41970000000003,149.449758157742L271.4680333333333,149.39715557861686L271.9997,149.1617661403667L272.28970000000004,148.97419302722966L272.4830333333333,148.83857381660093L273.5947,148.37073174809922L274.2230333333333,147.99508519081925L274.60970000000003,147.77471836539704L274.85136666666665,147.62782025376737L274.8997,147.57272953998978L274.9963666666667,147.52802527908068L275.0447,147.50647429514999L275.0930333333333,147.4878440019163L275.5280333333333,147.33027413239097L275.5763666666667,147.26725848540667L276.0113666666667,147.12184672363105" style="fill: none;" fill="none"></path></g></g></g></g><g opacity="0.2"><g><g><g><path stroke="rgb(255, 112, 67)" stroke-width="2px" d="M27.453333333333333,-23.229013919830322L27.889300000000002,20.312491178512573L28.130966666666666,26.79085659980774L28.227633333333333,27.433715105056763L28.275966666666665,27.575608253479004L28.469299999999997,27.490115880966187L28.855966666666667,28.080011129379272L29.242633333333334,28.436091423034668L29.290966666666666,28.52434229850769L29.532633333333337,29.095564603805542L30.0643,29.884687423706055L30.3543,30.270411014556885L30.59596666666667,30.677926778793335L30.74096666666667,30.84865689277649L31.320966666666667,31.585474252700806L31.610966666666666,31.852242708206177L31.852633333333333,32.013975858688354L32.19096666666667,32.46108675003052L32.3843,32.64883470535278L32.48096666666667,32.73837995529175L33.3993,33.74266600608826L33.640966666666664,34.019174098968506L33.689299999999996,34.06940007209778L33.93096666666667,34.31416416168213L34.17263333333334,34.5798716545105L34.2693,34.70510768890381L34.655966666666664,35.1904981136322L34.704299999999996,35.2547287940979L35.042633333333335,35.642319679260254L35.23596666666667,35.81801509857178L35.670966666666665,36.272382974624634L36.057633333333335,36.68853497505188L36.7836,50.875261068344116L36.97693333333333,50.868619441986084L37.46026666666667,50.63336157798767L37.55693333333333,50.65890955924988L39.586933333333334,51.602466106414795L39.635266666666666,51.59798884391785L40.02193333333334,51.776400327682495L40.45693333333333,51.91470742225647L40.553599999999996,51.961113929748535L40.601933333333335,51.96556997299194L40.74693333333333,51.97303915023804L41.03693333333334,52.118879079818726L41.47193333333333,52.37227940559387L41.616933333333336,52.49717593193054L41.66526666666666,52.50753092765808L42.1486,52.705761194229126L42.97026666666667,53.09254574775696L43.06693333333334,53.11890006065369L43.7436,53.42664289474487L43.98526666666667,53.53254818916321L44.08193333333334,53.580015659332275L44.226933333333335,53.62707996368408L44.6136,53.791380643844604L44.903600000000004,53.90893530845642L45.00026666666667,53.95245599746704L45.0979,62.26853609085083L45.3879,62.558688163757324L45.62956666666667,63.43266677856445L46.1129,63.172518730163574L46.4029,63.1990852355957L46.692899999999995,63.302783727645874L46.88623333333333,63.15919303894043L47.176233333333336,63.17476797103882L47.2729,63.21468138694763L47.417899999999996,63.233269453048706L47.51456666666667,63.2752411365509L47.5629,63.29885816574097L47.804566666666666,63.21839475631714L47.8529,63.26637148857117L48.2879,63.48959803581238L48.5779,63.44143033027649L48.67456666666667,63.46286177635193L48.91623333333333,63.454946994781494L49.1579,63.427637815475464L49.25456666666667,63.42044448852539L49.83456666666666,63.586188077926636L50.1729,63.61979937553406L50.22123333333334,63.623427867889404L50.3179,63.65939450263977L50.414566666666666,63.69731330871582L50.4629,63.70618295669556L50.55956666666666,63.69654941558838L51.13956666666667,63.7964072227478L51.28456666666666,63.824883460998535L51.4779,63.83755135536194L51.6229,63.87252068519592L51.7679,63.86600637435913L51.96123333333334,63.94158935546875L52.009566666666665,63.959859132766724L52.2029,63.96353006362915L52.44456666666667,63.987974643707275L52.97623333333333,64.10196447372437L53.314566666666664,64.17234873771667L53.653866666666666,72.60630178451538L53.8472,72.44480204582214L53.992200000000004,71.74997758865356L54.04053333333333,72.03667092323303L54.08886666666667,71.92575788497925L54.427200000000006,71.85486435890198L54.7172,71.63957381248474L54.81386666666667,71.60575032234192L54.862199999999994,71.67912650108337L55.05553333333333,71.51724481582642L55.24886666666667,71.52999758720398L55.4422,71.54614543914795L55.49053333333333,71.62960076332092L55.68386666666667,71.62839126586914L56.11886666666667,71.62883687019348L56.3122,71.62298035621643L56.360533333333336,71.60878467559814L56.40886666666667,71.6310224533081L56.50553333333333,71.55516362190247L56.55386666666667,71.54349303245544L56.84386666666667,71.446542263031L57.0372,71.5183482170105L57.08553333333334,71.5226981639862L57.1822,71.47890162467957L57.27886666666667,71.52013063430786L57.42386666666667,71.51926064491272L57.4722,71.48367595672607L57.52053333333333,71.5102424621582L57.71386666666666,71.51128220558167L57.907199999999996,71.4998025894165L58.14886666666666,71.5305917263031L58.1972,71.50408887863159L58.245533333333334,71.51015758514404L59.3572,71.42239475250244L59.550533333333334,71.41649580001831L59.6472,71.44053721427917L59.888866666666665,71.48104476928711L61.04886666666667,71.53525996208191L61.14553333333333,71.5400767326355L61.3872,71.54536032676697L61.483866666666664,71.56770420074463L61.6772,71.5718207359314L61.77386666666666,71.56556105613708L62.113166666666665,69.18713736534119L62.40316666666667,78.8541624546051L62.5965,78.8987865447998L62.93483333333333,78.54533743858337L63.031499999999994,78.53037786483765L63.32149999999999,78.36520719528198L63.41816666666667,78.30248308181763L63.56316666666667,78.29140663146973L63.70816666666667,78.26057505607605L64.09483333333333,78.17296075820923L64.14316666666667,78.16447305679321L64.28816666666667,78.13837337493896L64.6265,78.11259198188782L64.7715,78.04297161102295L65.2065,77.93063688278198L65.39983333333333,77.87480902671814L65.54483333333333,77.84244966506958L65.59316666666666,77.86078310012817L66.02816666666666,77.75235271453857L66.0765,77.72975420951843L66.26983333333334,77.64417695999146L66.3665,77.64735984802246L66.41483333333333,77.62357306480408L66.60816666666666,77.56275868415833L66.6565,77.548011302948L66.8015,77.56362867355347L66.84983333333334,77.55522584915161L67.2365,77.55431342124939L67.42983333333333,77.52515816688538L67.5265,77.51597023010254L67.62316666666666,77.51995944976807L67.6715,77.52333331108093L68.1065,77.51762533187866L68.25150000000001,77.49746704101562L68.63816666666666,77.50406622886658L68.73483333333333,77.51847410202026L68.9765,77.51645827293396L69.21816666666666,77.48390793800354L69.5565,77.48167991638184L70.18483333333333,77.46270990371704L70.47483333333334,77.45719289779663L70.61983333333333,77.44514036178589L70.66913333333333,78.20173406600952L70.86246666666666,83.80315017700195L71.05579999999999,84.42043948173523L71.15246666666667,84.41568636894226L71.39413333333333,84.09705805778503L71.44246666666668,84.10998058319092L71.87746666666666,84.09489369392395L72.16746666666667,83.81868267059326L72.3608,83.65077471733093L72.40913333333333,83.58611965179443L72.89246666666666,83.5038526058197L73.13413333333334,83.33271932601929L73.8108,83.17172884941101L73.90746666666666,83.20368504524231L74.87413333333333,82.94003582000732L74.92246666666666,82.9301688671112L75.1158,82.88096141815186L75.16413333333334,82.86067581176758L75.21246666666667,82.86008167266846L76.08246666666666,82.65425491333008L76.32413333333334,82.61786389350891L76.66246666666666,82.55607342720032L76.71079999999999,82.57478880882263L77.0008,82.49636244773865L77.09746666666666,82.49850559234619L77.33913333333334,82.46355748176575L77.4358,82.44119238853455L78.5958,82.36255383491516L78.69246666666666,82.35601830482483L78.78913333333334,82.34988594055176L79.1758,82.32486844062805L79.27343333333334,87.3941056728363L79.6601,87.62420725822449L79.8051,88.01657247543335L79.95009999999999,88.39807343482971L80.57843333333332,88.15653467178345L80.91676666666667,88.12695503234863L81.20676666666667,87.89080595970154L81.49676666666667,87.79905390739441L81.5451,87.7840518951416L81.8351,87.81626272201538L82.31843333333333,87.57300519943237L82.5601,87.50858354568481L82.60843333333332,87.49027132987976L82.75343333333333,87.41939902305603L83.04343333333333,87.42217874526978L83.1401,87.36251020431519L83.2851,87.33551931381226L83.4301,87.32238459587097L83.5751,87.29100131988525L83.62343333333332,87.25762343406677L84.49343333333333,87.0646767616272L85.21843333333334,86.8893632888794L85.94343333333333,86.73221349716187L86.08843333333333,86.71322226524353L86.13676666666666,86.6994297504425L86.23343333333334,86.66743111610413L86.28176666666666,86.66104412078857L87.29676666666666,86.58100509643555L87.3451,86.5681037902832L87.58676666666666,86.55690002441406L87.73176666666666,86.54713916778564L87.87773333333334,94.09336352348328L87.9744,93.81420302391052L88.16773333333333,93.41050672531128L88.36106666666666,93.09941124916077L88.5544,92.97648811340332L89.76273333333333,91.84596872329712L89.81106666666666,91.80923819541931L90.34273333333334,91.7044575214386L90.72940000000001,91.52640676498413L90.77773333333333,91.47157621383667L90.92273333333334,91.36770796775818L91.01939999999999,91.3248450756073L91.06773333333334,91.31678175926208L91.50273333333334,91.20652651786804L91.84106666666666,91.09930562973022L92.56606666666667,90.9995539188385L92.61439999999999,90.98658895492554L92.7594,90.91270351409912L93.67773333333334,90.70500946044922L93.9194,90.65499567985535L93.96773333333334,90.6512610912323L94.06439999999999,90.64907550811768L94.40273333333334,90.5556046962738L94.74106666666667,90.50452995300293L94.7894,90.48706650733948L95.2244,90.40036463737488L95.41773333333335,90.37666273117065L95.5144,90.4019136428833L95.70773333333334,90.35563445091248L96.14273333333334,90.28811478614807L96.4337,97.53796982765198L96.48203333333332,96.26356267929077L96.7237,95.92363023757935L97.11036666666666,95.81834030151367L97.54536666666667,95.26411461830139L97.5937,95.27650666236877L97.78703333333333,95.31582593917847L98.0287,95.2685706615448L98.1737,95.23604154586792L98.27036666666667,95.14876675605774L98.41536666666667,95.07012820243835L98.56036666666667,95.15016722679138L98.7537,95.15059161186218L99.14036666666667,94.9790551662445L99.52703333333334,94.83909296989441L99.72036666666668,94.78719067573547L99.86536666666667,94.7576322555542L99.9137,94.7493143081665L100.2037,94.69622373580933L100.6387,94.53555154800415L100.83203333333333,94.49099111557007L100.88036666666667,94.49729323387146L100.9287,94.47554349899292L101.02536666666667,94.42949771881104L101.17036666666668,94.42992210388184L101.5087,94.2805597782135L101.9437,94.19687104225159L101.99203333333332,94.20601654052734L102.42703333333333,94.14596605300903L102.62036666666665,94.11944198608398L102.71703333333333,94.091623544693L102.86203333333333,94.06868553161621L103.1037,94.0381510257721L103.15203333333334,94.01937198638916L103.2487,94.01767444610596L103.29703333333333,94.010014295578L103.34536666666666,94.00409412384033L103.58703333333334,93.95079135894775L104.2637,93.80754017829895L104.6987,93.72164463996887L104.94133333333333,100.36689949035645L105.27966666666666,99.43110918998718L105.328,99.25895738601685L105.763,99.55471134185791L106.10133333333333,99.13236331939697L106.68133333333334,99.02726435661316L107.01966666666667,98.94482755661011L107.11633333333333,98.91255307197571L107.30966666666666,98.84511828422546L107.79299999999999,98.63931274414062L107.84133333333334,98.62341952323914L107.98633333333333,98.56873750686646L108.228,98.44592046737671L108.42133333333334,98.41428256034851L109.04966666666667,98.08604192733765L109.19466666666666,98.02452731132507L109.48466666666667,97.9112377166748L109.533,97.90277123451233L109.58133333333333,97.92519998550415L110.35466666666667,97.62443828582764L111.22466666666666,97.29844689369202L111.51466666666667,97.21647691726685L111.853,97.10291147232056L112.143,97.009610414505L112.33633333333334,96.99781250953674L112.43299999999999,96.9990644454956L112.52966666666667,96.99218940734863L112.81966666666666,96.94905066490173L112.96466666666667,96.91656398773193L113.06133333333332,96.88131880760193L113.20633333333332,96.8535852432251L113.35133333333333,96.84507632255554L113.44896666666668,112.90906977653503L113.88396666666667,104.13503575325012L113.98063333333333,103.63651061058044L114.56063333333333,102.71065092086792L114.60896666666667,102.74377417564392L114.6573,102.68686413764954L115.33396666666667,102.26001763343811L115.5273,102.17732620239258L115.72063333333332,102.01321649551392L115.91396666666667,101.93854594230652L115.9623,101.97332429885864L116.1073,101.98026299476624L116.20396666666667,101.90359783172607L116.30063333333332,101.8092782497406L116.68730000000001,101.63424062728882L116.78396666666667,101.5501275062561L116.92896666666667,101.48301100730896L117.07396666666668,101.41205382347107L117.21896666666667,101.33973860740662L117.31563333333332,101.30593633651733L117.46063333333333,101.26385855674744L118.37896666666666,100.82871532440186L118.95896666666665,100.5817232131958L119.0073,100.55494451522827L119.05563333333333,100.52152419090271L119.1523,100.48939824104309L119.20063333333333,100.46113419532776L119.2973,100.42313051223755L119.39396666666666,100.39391160011292L119.5873,100.31045627593994L119.78063333333333,100.26330709457397L120.0223,100.18600535392761L120.11896666666667,100.15729570388794L120.4573,100.07460427284241L120.6023,100.04288148880005L120.84396666666666,99.99044871330261L121.0373,99.91936421394348L121.27896666666666,99.86396074295044L121.37563333333334,99.84297490119934L121.42396666666666,99.84583950042725L121.95563333333334,99.69634985923767L122.1016,104.82478880882263L122.2466,106.1328284740448L122.39160000000001,106.25831913948059L122.43993333333333,106.46512198448181L122.58493333333334,106.52867364883423L122.63326666666666,106.3512806892395L122.72993333333334,106.47547698020935L122.9716,106.23631477355957L123.01993333333334,106.18184494972229L123.35826666666667,105.5549008846283L123.4066,105.51876449584961L123.59993333333334,105.26152348518372L123.69659999999999,105.13282871246338L123.79326666666667,104.98304200172424L123.9866,104.99142360687256L124.46993333333334,104.69622135162354L124.5666,104.71430015563965L124.66326666666667,104.63540697097778L124.71159999999999,104.60306882858276L124.90493333333333,104.46013593673706L125.04993333333334,104.37109994888306L125.4366,104.15729475021362L125.62993333333334,104.08137226104736L126.30659999999999,103.92201566696167L126.49993333333335,103.83355259895325L126.5966,103.81362771987915L126.83826666666667,103.69857692718506L126.8866,103.68253517150879L126.98326666666667,103.64977264404297L127.07993333333334,103.6377625465393L127.12826666666666,103.63186359405518L127.22493333333334,103.60570025444031L127.32159999999999,103.55432844161987L127.36993333333334,103.52786803245544L127.70826666666667,103.43760132789612L127.85326666666667,103.35658621788025L128.09493333333333,103.26457953453064L129.01326666666668,102.93334698677063L129.4966,102.78948044776917L129.7866,102.70430636405945L129.9316,102.65195846557617L130.07659999999998,102.62596487998962L130.2216,102.58420538902283L130.2699333333333,102.57079482078552L130.31826666666666,102.57287430763245L130.75423333333333,108.73700380325317L130.80256666666668,108.84670734405518L130.8509,109.11477017402649L130.94756666666666,109.18958926200867L131.52756666666667,108.63105607032776L131.5759,108.6101975440979L131.67256666666668,108.66235446929932L132.05923333333334,108.31000876426697L132.49423333333334,107.91465163230896L133.3159,107.4077661037445L133.99256666666665,107.06276226043701L134.1859,106.98917388916016L134.23423333333332,106.9560718536377L134.3309,106.92065691947937L134.71756666666667,106.70965266227722L134.81423333333333,106.67190361022949L135.00756666666666,106.61310505867004L135.4909,106.36089301109314L135.87756666666667,106.28993582725525L135.9259,106.29591965675354L136.45756666666665,106.07004070281982L136.84423333333334,105.94145202636719L137.13423333333333,105.84208226203918L137.18256666666667,105.82298493385315L137.27923333333334,105.75582599639893L137.3759,105.7221086025238L137.61756666666668,105.66231274604797L138.5359,105.42177128791809L138.82590000000002,105.2993574142456L138.87423333333334,105.2782654762268L139.31019999999998,113.92201328277588L139.40686666666667,113.22954416275024L139.55186666666665,113.04582786560059L139.6002,112.64652395248413L139.64853333333335,112.45238900184631L140.18019999999999,111.99494433403015L140.3252,111.84846782684326L140.6152,111.68524932861328L140.85686666666666,111.41869306564331L140.95353333333333,111.2719407081604L141.0502,111.237544298172L141.14686666666665,111.0769145488739L141.58186666666666,110.58208155632019L141.77519999999998,110.50613784790039L141.96853333333334,110.37540602684021L142.0652,110.28352665901184L142.2102,110.19118046760559L142.6452,109.87719917297363L142.69353333333333,109.85290312767029L143.17686666666665,109.56071400642395L143.27353333333335,109.48470664024353L143.85353333333333,109.26442956924438L143.90186666666668,109.2302029132843L143.9502,109.22421908378601L144.14353333333335,109.119544506073L144.33686666666668,109.00054693222046L144.62686666666667,108.88800001144409L144.6752,108.85375213623047L144.8202,108.77681112289429L145.20686666666666,108.65055656433105L145.44853333333333,108.53907060623169L145.5935333333333,108.45966815948486L145.73853333333335,108.39064192771912L145.78686666666667,108.39102387428284L146.17353333333332,108.28518223762512L146.46353333333332,108.18780708312988L146.75353333333334,108.04086375236511L146.9952,107.96063375473022L147.8661666666667,115.5288200378418L148.05949999999999,115.22689127922058L148.15616666666668,115.11920356750488L148.39783333333335,114.8149619102478L148.6395,114.38709688186646L149.26783333333336,113.41667675971985L149.46116666666666,113.21426630020142L149.60616666666667,113.04317545890808L150.33116666666666,112.77403044700623L150.86283333333333,112.35601115226746L150.91116666666667,112.32955074310303L151.05616666666668,112.25872087478638L151.34616666666668,112.12612175941467L151.6845,111.99522018432617L151.73283333333333,111.96494030952454L151.78116666666665,111.95116901397705L151.8295,111.92430543899536L151.87783333333334,111.89969110488892L151.9261666666667,111.86444592475891L152.31283333333334,111.72176766395569L153.4245,111.27179217338562L153.47283333333334,111.24641394615173L153.52116666666666,111.23143315315247L153.8595,111.05544066429138L154.39116666666666,110.86915683746338L154.48783333333333,110.8282036781311L155.0678333333333,110.61501383781433L155.1161666666667,110.60294008255005L155.26116666666667,110.5427622795105L155.35783333333333,110.50781416893005L155.40616666666668,110.48402738571167L155.50283333333334,110.4478485584259L156.37380000000002,115.29721188545227L156.6154666666667,116.42847394943237L156.76046666666667,116.47140049934387L156.90546666666668,116.42302060127258L157.34046666666666,116.24333596229553L157.3888,116.09972405433655L157.6788,115.89383363723755L157.7754666666667,115.86100745201111L157.8238,115.79633116722107L158.1138,115.47774529457092L158.2588,115.49970722198486L158.5488,115.26591348648071L158.64546666666666,115.27964234352112L158.74213333333333,115.211740732193L158.8871333333333,115.09745383262634L159.56380000000001,114.7266685962677L159.66046666666668,114.67175316810608L159.7088,114.64321327209473L159.75713333333331,114.62430691719055L160.2888,114.33264827728271L160.77213333333333,114.17464971542358L161.15879999999999,114.01372289657593L161.98046666666667,113.59169316291809L162.3188,113.40475153923035L162.36713333333333,113.37243461608887L162.51213333333334,113.31454849243164L162.99546666666666,113.10072207450867L163.28546666666665,113.00332570075989L163.4788,112.91023683547974L163.72046666666668,112.82519006729126L163.81713333333332,112.79711699485779L163.91379999999998,112.76165962219238L164.01046666666667,112.74188327789307L164.10713333333334,112.72970342636108L164.30046666666667,112.66901636123657L164.3488,112.66439056396484L164.4938,112.59765601158142L164.78379999999999,112.50543713569641L164.83309999999997,121.26499962806702L164.9781,119.82552790641785L165.36476666666667,119.08088064193726L165.46143333333336,118.9400908946991L165.50976666666668,118.86851835250854L165.5581,118.77445340156555L165.94476666666665,118.88876152038574L166.66976666666667,118.15402364730835L166.76643333333334,118.11879968643188L166.86309999999997,117.93913626670837L166.95976666666667,117.87061929702759L167.05643333333333,117.757159948349L167.49143333333336,117.60620617866516L167.68476666666666,117.45597386360168L168.3131,117.11576557159424L168.50643333333332,116.98965954780579L169.42476666666667,116.54411888122559L170.14976666666666,116.13078904151917L170.1981,116.10386180877686L170.4881,115.96833443641663L170.53643333333332,115.9509346485138L170.63309999999998,115.90713810920715L170.7781,115.83000612258911L171.01976666666667,115.69573068618774L171.2131,115.61808943748474L171.3097666666667,115.5518217086792L172.0831,115.2574257850647L172.4214333333333,115.12143158912659L172.61476666666667,115.04896783828735L172.9531,114.92405009269714L173.00143333333332,114.90370082855225L173.3397666666667,114.79287266731262L173.4374,120.43884921073914L174.59740000000002,121.05654168128967L174.7424,121.01758313179016L175.0807333333333,120.678053855896L175.22573333333335,120.53981041908264L175.27406666666667,120.43723654747009L175.37073333333333,120.29793214797974L175.41906666666665,120.2463481426239L175.75740000000002,120.03209733963013L176.38573333333335,119.67612314224243L176.62740000000002,119.56801104545593L177.0624,119.34329915046692L177.15906666666666,119.28129649162292L177.25573333333335,119.23431706428528L177.59406666666666,119.01066613197327L178.2224,118.66039991378784L178.31906666666666,118.61335682868958L178.60906666666665,118.45907163619995L178.99573333333333,118.25065612792969L179.28573333333335,118.13072490692139L179.33406666666667,118.11222171783447L179.3824,118.10297012329102L179.57573333333335,118.01527094841003L179.8174,117.88791298866272L180.15573333333333,117.71096563339233L180.5424,117.53875017166138L180.73573333333334,117.45385193824768L180.92906666666667,117.39615678787231L181.02573333333333,117.36265158653259L181.31573333333336,117.25509119033813L181.55739999999997,117.16824078559875L181.65406666666667,117.14933443069458L181.75073333333333,117.10651397705078L181.89573333333334,117.02895760536194L182.09003333333334,124.26669645309448L182.67003333333332,124.10016775131226L182.9117,123.91377782821655L183.15336666666667,123.61891508102417L184.02336666666667,122.93298149108887L184.2167,122.71762728691101L184.3617,122.56644010543823L184.6033666666667,122.43426537513733L184.9417,122.03192710876465L185.13503333333333,121.9044418334961L185.23170000000002,121.86325526237488L185.5217,121.63833117485046L185.57003333333333,121.62110114097595L185.86003333333335,121.41096687316895L186.19836666666666,121.2157073020935L186.48836666666665,121.07602095603943L186.6333666666667,121.02863836288452L186.92336666666668,120.86450743675232L187.45503333333332,120.54787373542786L187.5517,120.50513815879822L188.03503333333333,120.26603960990906L188.18003333333334,120.17481803894043L188.2767,120.12764763832092L188.51836666666665,119.97015833854675L189.29170000000002,119.61609387397766L189.38836666666666,119.56546473503113L189.63003333333333,119.4837281703949L189.67836666666668,119.47120881080627L189.8717,119.39057564735413L189.96836666666667,119.35055613517761L190.25836666666666,119.23461413383484L190.3067,119.20688056945801L190.59766666666667,127.82730841636658L191.17766666666668,127.1361973285675L191.41933333333333,127.14682817459106L191.99933333333334,126.84583306312561L192.04766666666666,126.8385124206543L192.33766666666668,126.88699841499329L192.386,126.85758852958679L193.06266666666664,126.50403332710266L193.256,126.38679695129395L193.35266666666666,126.30745816230774L193.44933333333333,126.2720856666565L193.59433333333334,126.21243834495544L193.73933333333335,126.1663076877594L194.17433333333332,126.02112555503845L194.46433333333331,125.870108127594L194.561,125.80823278427124L195.09266666666664,125.54702377319336L195.14100000000002,125.5181655883789L195.431,125.42306089401245L195.76933333333335,125.33782315254211L196.92933333333335,124.97073006629944L197.21933333333334,124.89414978027344L197.316,124.85724949836731L198.331,124.54008531570435L198.476,124.51056933403015L198.66933333333336,124.46702742576599L198.71766666666667,124.45858216285706L198.766,124.44489574432373L199.00863333333334,137.08624482154846L199.15363333333335,131.6853506565094L199.25029999999998,132.3609504699707L199.6853,132.5843255519867L200.02363333333332,132.15476298332214L200.2653,131.8106927871704L200.65196666666665,131.3218011856079L200.8453,131.07994413375854L201.0386333333333,130.92440700531006L201.66696666666667,130.37828707695007L201.76363333333333,130.31310153007507L201.9086333333333,130.19327640533447L202.48863333333333,129.94776964187622L202.68196666666665,129.8142580986023L202.92363333333333,129.64246702194214L203.0203,129.56612014770508L203.50363333333334,129.25464272499084L203.6003,129.16382431983948L203.69696666666667,129.11998534202576L204.3253,128.84031558036804L205.0986333333333,128.42770719528198L205.34029999999998,128.31214714050293L205.67863333333332,128.14449381828308L205.82363333333333,128.07103276252747L205.9203,128.03288054466248L206.88696666666664,127.62131190299988L206.9353,127.60225701332092L206.98363333333333,127.59525465965271L207.2253,127.50556087493896L207.32196666666667,127.46390748023987L207.7579333333333,134.96429824829102L208.14460000000003,134.7407534122467L208.43460000000002,134.29289984703064L208.48293333333334,134.20878672599792L208.67626666666666,134.01087474822998L209.20793333333333,133.6627516746521L209.49793333333332,133.36880135536194L209.7879333333333,133.08161997795105L209.93293333333335,132.9929234981537L210.65793333333332,132.54835891723633L210.85126666666667,132.40809965133667L211.1896,132.1782102584839L211.38293333333334,132.0300998687744L211.62460000000002,131.8754539489746L211.86626666666666,131.69691514968872L212.0596,131.59964609146118L212.10793333333334,131.57346153259277L212.6396,131.3312861919403L212.68793333333332,131.30189752578735L213.2196,131.01999974250793L213.31626666666665,130.95687246322632L213.3646,130.93671417236328L213.70293333333333,130.7316300868988L213.7996,130.6922471523285L213.84793333333332,130.66455602645874L213.89626666666666,130.63302421569824L213.94459999999998,130.60002827644348L214.2346,130.52060461044312L215.29793333333333,130.04921889305115L215.44293333333334,129.99485516548157L216.1196,129.73723220825195L216.3139,137.00149512290955L216.36223333333334,137.31624031066895L216.4589,136.7794144153595L216.84556666666666,136.4512586593628L217.08723333333333,136.37189865112305L217.42556666666667,135.94655871391296L218.77890000000002,134.9864935874939L219.6489,134.38490653038025L219.89056666666667,134.26073145866394L220.32556666666667,133.9867696762085L220.3739,133.96342849731445L220.90556666666666,133.70629358291626L220.9539,133.67126059532166L221.05056666666667,133.61710906028748L221.14723333333333,133.56011414527893L221.29223333333331,133.5029706954956L221.3405666666667,133.4944405555725L221.43723333333332,133.4278120994568L222.5489,132.86677503585815L222.79056666666665,132.76889061927795L222.93556666666666,132.67306447029114L223.08056666666664,132.58663845062256L223.32223333333332,132.4863350391388L223.85389999999998,132.2348656654358L224.2889,132.02144241333008L224.4339,131.94972133636475L224.4822333333333,131.9354407787323L224.86986666666667,139.025132894516L225.15986666666666,138.65078282356262L225.9332,138.28693628311157L226.2232,138.0691843032837L226.41653333333335,137.88945722579956L226.56153333333333,137.77790760993958L226.85153333333332,137.51345205307007L226.9482,137.4944396018982L227.3832,137.05216670036316L227.57653333333334,136.94250559806824L227.86653333333334,136.74786138534546L228.10819999999998,136.5138554573059L228.39819999999997,136.3408761024475L228.8332,136.1062548160553L229.17153333333334,135.9692633152008L229.36486666666667,135.8924708366394L229.79986666666665,135.64499068260193L229.94486666666668,135.58003854751587L230.52486666666667,135.26412630081177L230.8632,135.0300567150116L231.0082,134.94252729415894L231.10486666666668,134.89045524597168L231.1532,134.86883282661438L231.34653333333335,134.78535628318787L231.39486666666667,134.75603127479553L231.4432,134.7382071018219L232.0232,134.4016273021698L232.3132,134.26274728775024L232.36153333333334,134.2327220439911L232.45819999999998,134.2110996246338L232.7482,134.06740283966064L232.8932,134.0256645679474L233.1832,133.8824770450592L233.32916666666665,140.9874894618988L233.6675,141.3425087928772L234.15083333333334,140.98937797546387L234.44083333333333,140.47703909873962L234.6341666666667,140.29317426681519L234.77916666666667,140.2859809398651L235.16583333333332,140.14111709594727L235.26250000000002,140.0188729763031L235.89083333333335,139.4697823524475L236.08416666666668,139.26760530471802L236.13250000000002,139.245600938797L237.05083333333334,138.51300621032715L237.09916666666666,138.48480582237244L237.24416666666667,138.35178232192993L237.5825,138.0870509147644L237.67916666666667,138.04981112480164L238.06583333333333,137.74603629112244L238.16250000000002,137.69394302368164L238.21083333333334,137.671875L238.83916666666667,137.26730871200562L238.93583333333333,137.20399045944214L238.98416666666665,137.17755126953125L239.41916666666665,136.969135761261L239.56416666666667,136.9068148136139L240.09583333333333,136.6112093925476L240.24083333333334,136.5346291065216L240.3375,136.49151158332825L240.43416666666664,136.44033074378967L241.01416666666665,136.1454255580902L241.78846666666666,145.35591840744019L242.03013333333334,143.33518767356873L242.51346666666666,142.9617075920105L242.80346666666665,142.39759373664856L243.14180000000002,142.0619900226593L243.4318,141.88775873184204L243.52846666666667,141.81209087371826L243.72179999999997,141.53082966804504L244.06013333333334,141.2873387336731L244.1084666666667,141.2330174446106L244.1568,141.1651794910431L244.64013333333335,140.85569667816162L245.65513333333334,140.12371730804443L245.8968,139.964763879776L246.1384666666667,139.7993597984314L246.42846666666668,139.61343669891357L246.9118,139.3385624885559L247.15346666666665,139.1937198638916L247.44346666666667,139.0401349067688L247.6368,138.92067050933838L247.68513333333334,138.9047348499298L248.0718,138.6905689239502L248.2168,138.62551069259644L248.26513333333332,138.59436082839966L248.3618,138.52255487442017L248.5068,138.4483723640442L248.55513333333334,138.42747139930725L248.60346666666666,138.40591263771057L248.84513333333334,138.30520606040955L248.9418,138.2506513595581L249.0868,138.1535520553589L249.13513333333333,138.1305079460144L249.18346666666667,138.09840321540833L249.2318,138.0832314491272L249.32846666666669,138.0315625667572L249.47346666666667,137.965740442276L249.52179999999998,137.945072889328L249.81179999999998,137.80317974090576L250.1018,137.6683738231659L250.1984666666667,137.62875747680664L250.34346666666667,137.57426643371582L250.8761,145.13040018081665L251.26276666666666,144.88417196273804L251.31109999999998,144.830890417099L251.35943333333333,144.74382781982422L251.64943333333332,144.5378737449646L251.9877666666667,143.96936750411987L252.22943333333333,143.76267075538635L252.56776666666667,143.4884331226349L253.1961,142.8020327091217L253.48610000000002,142.56862092018127L253.58276666666666,142.53210258483887L253.7277666666667,142.40788507461548L254.0661,142.13980102539062L254.3561,141.96501803398132L254.5011,141.86721849441528L254.59776666666664,141.79019260406494L254.64610000000002,141.7430009841919L255.0811,141.39782738685608L255.56443333333334,141.1013307571411L255.61276666666666,141.09144258499146L255.99943333333331,140.86422681808472L256.5794333333333,140.55485010147095L256.72443333333337,140.49484205245972L256.86943333333335,140.40642142295837L257.4977666666667,140.03990125656128L257.88443333333333,139.80387949943542L258.2711,139.59192037582397L258.31943333333334,139.5574815273285L258.4644333333333,139.4745991230011L258.5611,139.43958735466003L258.6094333333333,139.40890431404114L259.2387333333333,147.51941227912903L259.5287333333333,147.23827838897705L259.62539999999996,147.17837643623352L260.3504,147.1615707874298L260.68873333333335,147.03754425048828L260.9787333333333,146.91530013084412L261.12373333333335,146.93371844291687L261.1720666666667,146.9088282585144L261.46206666666666,146.79290747642517L262.0904,146.49914813041687L262.1870666666667,146.44486927986145L262.23539999999997,146.40815997123718L262.2837333333334,146.39924788475037L262.57373333333334,146.25069189071655L262.8154,146.14796948432922L263.44373333333334,145.84111785888672L264.21706666666665,145.50475025177002L264.55539999999996,145.39199113845825L264.79706666666664,145.26972579956055L264.8454,145.25593328475952L265.1354,145.14663290977478L265.5704,145.0170681476593L265.7154,144.93760204315186L265.76373333333333,144.91593718528748L265.8604,144.87173748016357L266.1504,144.76063346862793L266.19873333333334,144.75581669807434L266.2954,144.70525121688843L266.53706666666665,144.63149309158325L266.6820666666667,144.5972239971161L267.40706666666665,144.30978798866272L267.6013666666667,152.15915060043335L267.89136666666667,151.7044644355774L268.22970000000004,151.73166751861572L268.4230333333333,151.43368554115295L268.56803333333335,151.30327200889587L269.2930333333333,150.87460064888L269.6797,150.5938699245453L269.8730333333333,150.49295115470886L269.9213666666667,150.4742569923401L270.79136666666665,149.78104519844055L270.9363666666667,149.70675659179688L270.9847,149.66009545326233L271.08136666666667,149.6157684326172L271.17803333333336,149.5826027393341L271.22636666666665,149.54865193367004L271.41970000000003,149.40075373649597L271.4680333333333,149.37461161613464L271.9997,149.06088495254517L272.28970000000004,148.8938045501709L272.4830333333333,148.78045129776L273.5947,148.17022800445557L274.2230333333333,147.8340938091278L274.60970000000003,147.68027544021606L274.85136666666665,147.5648639202118L274.8997,147.54911923408508L274.9963666666667,147.50886631011963L275.0447,147.4972381591797L275.0930333333333,147.4798595905304L275.5280333333333,147.26274418830872L275.5763666666667,147.24025177955627L276.0113666666667,147.05952739715576" style="fill: none;" fill="none"></path></g></g></g></g></g></g><g transform="translate(40, 178)" clip-path="url(#clip_1)"><clipPath id="clip_1"><rect width="290" height="22"></rect></clipPath><g><g><line x1="0" y1="0" x2="0" y2="5" style="visibility: inherit;" fill="rgb(0, 0, 0)" stroke="rgb(204, 204, 204)" stroke-width="1px"></line><line x1="19.333333333333332" y1="0" x2="19.333333333333332" y2="5" style="visibility: inherit;" fill="rgb(0, 0, 0)" stroke="rgb(204, 204, 204)" stroke-width="1px"></line><line x1="38.666666666666664" y1="0" x2="38.666666666666664" y2="5" style="visibility: inherit;" fill="rgb(0, 0, 0)" stroke="rgb(204, 204, 204)" stroke-width="1px"></line><line x1="58" y1="0" x2="58" y2="5" style="visibility: inherit;" fill="rgb(0, 0, 0)" stroke="rgb(204, 204, 204)" stroke-width="1px"></line><line x1="77.33333333333333" y1="0" x2="77.33333333333333" y2="5" style="visibility: inherit;" fill="rgb(0, 0, 0)" stroke="rgb(204, 204, 204)" stroke-width="1px"></line><line x1="96.66666666666666" y1="0" x2="96.66666666666666" y2="5" style="visibility: inherit;" fill="rgb(0, 0, 0)" stroke="rgb(204, 204, 204)" stroke-width="1px"></line><line x1="116" y1="0" x2="116" y2="5" style="visibility: inherit;" fill="rgb(0, 0, 0)" stroke="rgb(204, 204, 204)" stroke-width="1px"></line><line x1="135.33333333333334" y1="0" x2="135.33333333333334" y2="5" style="visibility: inherit;" fill="rgb(0, 0, 0)" stroke="rgb(204, 204, 204)" stroke-width="1px"></line><line x1="154.66666666666666" y1="0" x2="154.66666666666666" y2="5" style="visibility: inherit;" fill="rgb(0, 0, 0)" stroke="rgb(204, 204, 204)" stroke-width="1px"></line><line x1="174" y1="0" x2="174" y2="5" style="visibility: inherit;" fill="rgb(0, 0, 0)" stroke="rgb(204, 204, 204)" stroke-width="1px"></line><line x1="193.33333333333331" y1="0" x2="193.33333333333331" y2="5" style="visibility: inherit;" fill="rgb(0, 0, 0)" stroke="rgb(204, 204, 204)" stroke-width="1px"></line><line x1="212.66666666666666" y1="0" x2="212.66666666666666" y2="5" style="visibility: inherit;" fill="rgb(0, 0, 0)" stroke="rgb(204, 204, 204)" stroke-width="1px"></line><line x1="232" y1="0" x2="232" y2="5" style="visibility: inherit;" fill="rgb(0, 0, 0)" stroke="rgb(204, 204, 204)" stroke-width="1px"></line><line x1="251.33333333333334" y1="0" x2="251.33333333333334" y2="5" style="visibility: inherit;" fill="rgb(0, 0, 0)" stroke="rgb(204, 204, 204)" stroke-width="1px"></line><line x1="270.6666666666667" y1="0" x2="270.6666666666667" y2="5" style="visibility: inherit;" fill="rgb(0, 0, 0)" stroke="rgb(204, 204, 204)" stroke-width="1px"></line><line x1="290" y1="0" x2="290" y2="5" style="visibility: inherit;" fill="rgb(0, 0, 0)" stroke="rgb(204, 204, 204)" stroke-width="1px"></line></g><g transform="translate(0, 8)"><text x="0" y="0" dx="0em" dy="0.95em" style="text-anchor: middle; visibility: hidden; font-family: &quot;Helvetica Neue&quot;, sans-serif; font-size: 12px; font-weight: 200;" fill="rgb(50, 49, 63)" stroke="none" stroke-width="1px">-20k</text><text x="19.333333333333332" y="0" dx="0em" dy="0.95em" style="text-anchor: middle; visibility: inherit; font-family: &quot;Helvetica Neue&quot;, sans-serif; font-size: 12px; font-weight: 200;" fill="rgb(50, 49, 63)" stroke="none" stroke-width="1px">0</text><text x="38.666666666666664" y="0" dx="0em" dy="0.95em" style="text-anchor: middle; visibility: hidden; font-family: &quot;Helvetica Neue&quot;, sans-serif; font-size: 12px; font-weight: 200;" fill="rgb(50, 49, 63)" stroke="none" stroke-width="1px">20k</text><text x="58" y="0" dx="0em" dy="0.95em" style="text-anchor: middle; visibility: inherit; font-family: &quot;Helvetica Neue&quot;, sans-serif; font-size: 12px; font-weight: 200;" fill="rgb(50, 49, 63)" stroke="none" stroke-width="1px">40k</text><text x="77.33333333333333" y="0" dx="0em" dy="0.95em" style="text-anchor: middle; visibility: hidden; font-family: &quot;Helvetica Neue&quot;, sans-serif; font-size: 12px; font-weight: 200;" fill="rgb(50, 49, 63)" stroke="none" stroke-width="1px">60k</text><text x="96.66666666666666" y="0" dx="0em" dy="0.95em" style="text-anchor: middle; visibility: inherit; font-family: &quot;Helvetica Neue&quot;, sans-serif; font-size: 12px; font-weight: 200;" fill="rgb(50, 49, 63)" stroke="none" stroke-width="1px">80k</text><text x="116" y="0" dx="0em" dy="0.95em" style="text-anchor: middle; visibility: hidden; font-family: &quot;Helvetica Neue&quot;, sans-serif; font-size: 12px; font-weight: 200;" fill="rgb(50, 49, 63)" stroke="none" stroke-width="1px">100k</text><text x="135.33333333333334" y="0" dx="0em" dy="0.95em" style="text-anchor: middle; visibility: inherit; font-family: &quot;Helvetica Neue&quot;, sans-serif; font-size: 12px; font-weight: 200;" fill="rgb(50, 49, 63)" stroke="none" stroke-width="1px">120k</text><text x="154.66666666666666" y="0" dx="0em" dy="0.95em" style="text-anchor: middle; visibility: hidden; font-family: &quot;Helvetica Neue&quot;, sans-serif; font-size: 12px; font-weight: 200;" fill="rgb(50, 49, 63)" stroke="none" stroke-width="1px">140k</text><text x="174" y="0" dx="0em" dy="0.95em" style="text-anchor: middle; visibility: inherit; font-family: &quot;Helvetica Neue&quot;, sans-serif; font-size: 12px; font-weight: 200;" fill="rgb(50, 49, 63)" stroke="none" stroke-width="1px">160k</text><text x="193.33333333333331" y="0" dx="0em" dy="0.95em" style="text-anchor: middle; visibility: hidden; font-family: &quot;Helvetica Neue&quot;, sans-serif; font-size: 12px; font-weight: 200;" fill="rgb(50, 49, 63)" stroke="none" stroke-width="1px">180k</text><text x="212.66666666666666" y="0" dx="0em" dy="0.95em" style="text-anchor: middle; visibility: inherit; font-family: &quot;Helvetica Neue&quot;, sans-serif; font-size: 12px; font-weight: 200;" fill="rgb(50, 49, 63)" stroke="none" stroke-width="1px">200k</text><text x="232" y="0" dx="0em" dy="0.95em" style="text-anchor: middle; visibility: hidden; font-family: &quot;Helvetica Neue&quot;, sans-serif; font-size: 12px; font-weight: 200;" fill="rgb(50, 49, 63)" stroke="none" stroke-width="1px">220k</text><text x="251.33333333333334" y="0" dx="0em" dy="0.95em" style="text-anchor: middle; visibility: inherit; font-family: &quot;Helvetica Neue&quot;, sans-serif; font-size: 12px; font-weight: 200;" fill="rgb(50, 49, 63)" stroke="none" stroke-width="1px">240k</text><text x="270.6666666666667" y="0" dx="0em" dy="0.95em" style="text-anchor: middle; visibility: hidden; font-family: &quot;Helvetica Neue&quot;, sans-serif; font-size: 12px; font-weight: 200;" fill="rgb(50, 49, 63)" stroke="none" stroke-width="1px">260k</text><text x="290" y="0" dx="0em" dy="0.95em" style="text-anchor: middle; visibility: hidden; font-family: &quot;Helvetica Neue&quot;, sans-serif; font-size: 12px; font-weight: 200;" fill="rgb(50, 49, 63)" stroke="none" stroke-width="1px">280k</text></g><line x1="0" y1="0" x2="290" y2="0" fill="rgb(0, 0, 0)" stroke="rgb(204, 204, 204)" stroke-width="1px"></line></g></g></g></g></svg>