<svg viewBox="0 0 330 200" xmlns="http://www.w3.org/2000/svg"><g><g><g><g><g><line x1="30" y1="178" x2="25" y2="178" style="visibility: inherit;" fill="rgb(0, 0, 0)" stroke="rgb(204, 204, 204)" stroke-width="1px"></line><line x1="30" y1="161.8181818181818" x2="25" y2="161.8181818181818" style="visibility: inherit;" fill="rgb(0, 0, 0)" stroke="rgb(204, 204, 204)" stroke-width="1px"></line><line x1="30" y1="145.63636363636363" x2="25" y2="145.63636363636363" style="visibility: inherit;" fill="rgb(0, 0, 0)" stroke="rgb(204, 204, 204)" stroke-width="1px"></line><line x1="30" y1="129.45454545454547" x2="25" y2="129.45454545454547" style="visibility: inherit;" fill="rgb(0, 0, 0)" stroke="rgb(204, 204, 204)" stroke-width="1px"></line><line x1="30" y1="113.27272727272727" x2="25" y2="113.27272727272727" style="visibility: inherit;" fill="rgb(0, 0, 0)" stroke="rgb(204, 204, 204)" stroke-width="1px"></line><line x1="30" y1="97.0909090909091" x2="25" y2="97.0909090909091" style="visibility: inherit;" fill="rgb(0, 0, 0)" stroke="rgb(204, 204, 204)" stroke-width="1px"></line><line x1="30" y1="80.90909090909092" x2="25" y2="80.90909090909092" style="visibility: inherit;" fill="rgb(0, 0, 0)" stroke="rgb(204, 204, 204)" stroke-width="1px"></line><line x1="30" y1="64.72727272727273" x2="25" y2="64.72727272727273" style="visibility: inherit;" fill="rgb(0, 0, 0)" stroke="rgb(204, 204, 204)" stroke-width="1px"></line><line x1="30" y1="48.54545454545453" x2="25" y2="48.54545454545453" style="visibility: inherit;" fill="rgb(0, 0, 0)" stroke="rgb(204, 204, 204)" stroke-width="1px"></line><line x1="30" y1="32.363636363636346" x2="25" y2="32.363636363636346" style="visibility: inherit;" fill="rgb(0, 0, 0)" stroke="rgb(204, 204, 204)" stroke-width="1px"></line><line x1="30" y1="16.181818181818187" x2="25" y2="16.181818181818187" style="visibility: inherit;" fill="rgb(0, 0, 0)" stroke="rgb(204, 204, 204)" stroke-width="1px"></line><line x1="30" y1="0" x2="25" y2="0" style="visibility: inherit;" fill="rgb(0, 0, 0)" stroke="rgb(204, 204, 204)" stroke-width="1px"></line></g><g transform="translate(20, 0)"><text x="0" y="178" dx="0em" dy="0.3em" style="text-anchor: end; visibility: hidden; font-family: &quot;Helvetica Neue&quot;, sans-serif; font-size: 12px; font-weight: 200;" fill="rgb(50, 49, 63)" stroke="none" stroke-width="1px">70</text><text x="0" y="161.8181818181818" dx="0em" dy="0.3em" style="text-anchor: end; visibility: inherit; font-family: &quot;Helvetica Neue&quot;, sans-serif; font-size: 12px; font-weight: 200;" fill="rgb(50, 49, 63)" stroke="none" stroke-width="1px">72</text><text x="0" y="145.63636363636363" dx="0em" dy="0.3em" style="text-anchor: end; visibility: hidden; font-family: &quot;Helvetica Neue&quot;, sans-serif; font-size: 12px; font-weight: 200;" fill="rgb(50, 49, 63)" stroke="none" stroke-width="1px">74</text><text x="0" y="129.45454545454547" dx="0em" dy="0.3em" style="text-anchor: end; visibility: inherit; font-family: &quot;Helvetica Neue&quot;, sans-serif; font-size: 12px; font-weight: 200;" fill="rgb(50, 49, 63)" stroke="none" stroke-width="1px">76</text><text x="0" y="113.27272727272727" dx="0em" dy="0.3em" style="text-anchor: end; visibility: hidden; font-family: &quot;Helvetica Neue&quot;, sans-serif; font-size: 12px; font-weight: 200;" fill="rgb(50, 49, 63)" stroke="none" stroke-width="1px">78</text><text x="0" y="97.0909090909091" dx="0em" dy="0.3em" style="text-anchor: end; visibility: inherit; font-family: &quot;Helvetica Neue&quot;, sans-serif; font-size: 12px; font-weight: 200;" fill="rgb(50, 49, 63)" stroke="none" stroke-width="1px">80</text><text x="0" y="80.90909090909092" dx="0em" dy="0.3em" style="text-anchor: end; visibility: hidden; font-family: &quot;Helvetica Neue&quot;, sans-serif; font-size: 12px; font-weight: 200;" fill="rgb(50, 49, 63)" stroke="none" stroke-width="1px">82</text><text x="0" y="64.72727272727273" dx="0em" dy="0.3em" style="text-anchor: end; visibility: inherit; font-family: &quot;Helvetica Neue&quot;, sans-serif; font-size: 12px; font-weight: 200;" fill="rgb(50, 49, 63)" stroke="none" stroke-width="1px">84</text><text x="0" y="48.54545454545453" dx="0em" dy="0.3em" style="text-anchor: end; visibility: hidden; font-family: &quot;Helvetica Neue&quot;, sans-serif; font-size: 12px; font-weight: 200;" fill="rgb(50, 49, 63)" stroke="none" stroke-width="1px">86</text><text x="0" y="32.363636363636346" dx="0em" dy="0.3em" style="text-anchor: end; visibility: inherit; font-family: &quot;Helvetica Neue&quot;, sans-serif; font-size: 12px; font-weight: 200;" fill="rgb(50, 49, 63)" stroke="none" stroke-width="1px">88</text><text x="0" y="16.181818181818187" dx="0em" dy="0.3em" style="text-anchor: end; visibility: hidden; font-family: &quot;Helvetica Neue&quot;, sans-serif; font-size: 12px; font-weight: 200;" fill="rgb(50, 49, 63)" stroke="none" stroke-width="1px">90</text><text x="0" y="0" dx="0em" dy="0.3em" style="text-anchor: end; visibility: hidden; font-family: &quot;Helvetica Neue&quot;, sans-serif; font-size: 12px; font-weight: 200;" fill="rgb(50, 49, 63)" stroke="none" stroke-width="1px">92</text></g><line x1="30" y1="0" x2="30" y2="178" fill="rgb(0, 0, 0)" stroke="rgb(204, 204, 204)" stroke-width="1px"></line></g></g><g transform="translate(30, 0)" clip-path="url(#clip_0)"><clipPath id="clip_0"><rect width="300" height="178"></rect></clipPath><g><g><g><line x1="0" y1="0" x2="0" y2="178" fill="rgb(0, 0, 0)" stroke="rgb(60, 60, 60)" stroke-width="1px" opacity="0.25"></line><line x1="20" y1="0" x2="20" y2="178" fill="rgb(0, 0, 0)" stroke="rgb(60, 60, 60)" stroke-width="1px" opacity="0.25"></line><line x1="40" y1="0" x2="40" y2="178" fill="rgb(0, 0, 0)" stroke="rgb(60, 60, 60)" stroke-width="1px" opacity="0.25"></line><line x1="60" y1="0" x2="60" y2="178" fill="rgb(0, 0, 0)" stroke="rgb(60, 60, 60)" stroke-width="1px" opacity="0.25"></line><line x1="80" y1="0" x2="80" y2="178" fill="rgb(0, 0, 0)" stroke="rgb(60, 60, 60)" stroke-width="1px" opacity="0.25"></line><line x1="100" y1="0" x2="100" y2="178" fill="rgb(0, 0, 0)" stroke="rgb(60, 60, 60)" stroke-width="1px" opacity="0.25"></line><line x1="120" y1="0" x2="120" y2="178" fill="rgb(0, 0, 0)" stroke="rgb(60, 60, 60)" stroke-width="1px" opacity="0.25"></line><line x1="140" y1="0" x2="140" y2="178" fill="rgb(0, 0, 0)" stroke="rgb(60, 60, 60)" stroke-width="1px" opacity="0.25"></line><line x1="160" y1="0" x2="160" y2="178" fill="rgb(0, 0, 0)" stroke="rgb(60, 60, 60)" stroke-width="1px" opacity="0.25"></line><line x1="180" y1="0" x2="180" y2="178" fill="rgb(0, 0, 0)" stroke="rgb(60, 60, 60)" stroke-width="1px" opacity="0.25"></line><line x1="200" y1="0" x2="200" y2="178" fill="rgb(0, 0, 0)" stroke="rgb(60, 60, 60)" stroke-width="1px" opacity="0.25"></line><line x1="219.99999999999997" y1="0" x2="219.99999999999997" y2="178" fill="rgb(0, 0, 0)" stroke="rgb(60, 60, 60)" stroke-width="1px" opacity="0.25"></line><line x1="240" y1="0" x2="240" y2="178" fill="rgb(0, 0, 0)" stroke="rgb(60, 60, 60)" stroke-width="1px" opacity="0.25"></line><line x1="260" y1="0" x2="260" y2="178" fill="rgb(0, 0, 0)" stroke="rgb(60, 60, 60)" stroke-width="1px" opacity="0.25"></line><line x1="280" y1="0" x2="280" y2="178" fill="rgb(0, 0, 0)" stroke="rgb(60, 60, 60)" stroke-width="1px" opacity="0.25"></line><line x1="300" y1="0" x2="300" y2="178" fill="rgb(0, 0, 0)" stroke="rgb(60, 60, 60)" stroke-width="1px" opacity="0.25"></line></g><g><line x1="0" y1="178" x2="300" y2="178" fill="rgb(0, 0, 0)" stroke="rgb(60, 60, 60)" stroke-width="1px" opacity="0.25"></line><line x1="0" y1="161.8181818181818" x2="300" y2="161.8181818181818" fill="rgb(0, 0, 0)" stroke="rgb(60, 60, 60)" stroke-width="1px" opacity="0.25"></line><line x1="0" y1="145.63636363636363" x2="300" y2="145.63636363636363" fill="rgb(0, 0, 0)" stroke="rgb(60, 60, 60)" stroke-width="1px" opacity="0.25"></line><line x1="0" y1="129.45454545454547" x2="300" y2="129.45454545454547" fill="rgb(0, 0, 0)" stroke="rgb(60, 60, 60)" stroke-width="1px" opacity="0.25"></line><line x1="0" y1="113.27272727272727" x2="300" y2="113.27272727272727" fill="rgb(0, 0, 0)" stroke="rgb(60, 60, 60)" stroke-width="1px" opacity="0.25"></line><line x1="0" y1="97.0909090909091" x2="300" y2="97.0909090909091" fill="rgb(0, 0, 0)" stroke="rgb(60, 60, 60)" stroke-width="1px" opacity="0.25"></line><line x1="0" y1="80.90909090909092" x2="300" y2="80.90909090909092" fill="rgb(0, 0, 0)" stroke="rgb(60, 60, 60)" stroke-width="1px" opacity="0.25"></line><line x1="0" y1="64.72727272727273" x2="300" y2="64.72727272727273" fill="rgb(0, 0, 0)" stroke="rgb(60, 60, 60)" stroke-width="1px" opacity="0.25"></line><line x1="0" y1="48.54545454545453" x2="300" y2="48.54545454545453" fill="rgb(0, 0, 0)" stroke="rgb(60, 60, 60)" stroke-width="1px" opacity="0.25"></line><line x1="0" y1="32.363636363636346" x2="300" y2="32.363636363636346" fill="rgb(0, 0, 0)" stroke="rgb(60, 60, 60)" stroke-width="1px" opacity="0.25"></line><line x1="0" y1="16.181818181818187" x2="300" y2="16.181818181818187" fill="rgb(0, 0, 0)" stroke="rgb(60, 60, 60)" stroke-width="1px" opacity="0.25"></line><line x1="0" y1="0" x2="300" y2="0" fill="rgb(0, 0, 0)" stroke="rgb(60, 60, 60)" stroke-width="1px" opacity="0.25"></line></g></g></g><g><g><line x1="0" y1="744.3636363636364" x2="300" y2="744.3636363636364" fill="rgb(0, 0, 0)" stroke="rgb(153, 153, 153)" stroke-width="1.5px"></line></g></g><g><g><line x1="20" y1="0" x2="20" y2="178" fill="rgb(0, 0, 0)" stroke="rgb(153, 153, 153)" stroke-width="1.5px"></line></g></g><g><g><g><g><g><path stroke="rgb(255, 112, 67)" stroke-width="2px" d="M27.499999999999996,194.54686788675446L27.75,175.78478596240697L27.9,195.95977369620405L29.101,182.1612990973719L29.201,156.37602207839865L29.250999999999998,173.97526473120797L29.450999999999997,182.2214552211425L30.301000000000002,193.87178228058377L30.551000000000002,173.4630201272905L31.101,171.0832949653001L31.401,166.63783819329205L31.651,175.42984376478358L31.801000000000002,187.26575573341685L32.401,167.47589364285446L32.701,195.01994794959018L32.951,168.92753534368387L33.301,179.75361876849934L33.601,205.93201806920317L34.551,174.10974721652624L34.801,150.19367141560153L34.851,153.41969650913092L35.101,137.3234402193853L35.351,147.49430705416344L35.451,150.71508039084065L35.851,171.76749174365045L35.900999999999996,160.90369390093605L36.251,143.34961103338452L36.451,151.29928666361974L36.901,167.86298407481388L37.301,161.51285765253118L38.052,149.8671792589829L38.251999999999995,139.29168336032535L38.752,144.9205031798173L38.852,146.91706441441664L40.952,142.67809853353137L41.002,134.70222959501592L41.402,133.7549337239194L41.852000000000004,133.05117473332024L41.952,165.5116480715186L42.002,148.08358995534672L42.152,148.82607602113887L42.452,153.66124249517344L42.902,145.49209708604315L43.052,132.96596422546668L43.102,136.9411364106399L43.602,142.79601640481488L44.452,141.4936362702105L44.552,141.3783867212399L45.252,148.134713734212L45.501999999999995,145.16505324990234L45.602000000000004,150.13578022113114L45.752,144.73221931525185L46.152,147.96256685103873L46.452,144.32084923178098L46.552,123.84574491790528L46.653000000000006,116.27870571968984L46.953,109.54701982193053L47.203,131.2942014804703L47.703,135.67007862595926L48.00300000000001,123.83780586983684L48.303,137.45671313213364L48.503,141.28455054686228L48.803,136.992661708914L48.903,122.63057806756147L49.053,128.94697489232553L49.153000000000006,114.15570258899115L49.202999999999996,121.2729220471164L49.453,143.96085007216496L49.503,122.20287862893821L49.952999999999996,148.34116844541532L50.253,136.09055625261874L50.353,118.51251767534626L50.603,124.68840419786758L50.853,141.554481852844L50.953,142.65949925500544L51.553,131.78117684448378L51.903,158.07417745242628L51.953,121.9208579581844L52.053,108.16198174991537L52.153,132.0232396194127L52.203,131.62166145269617L52.303,121.32027966083996L52.903,148.32540865522108L53.053,123.71351892557914L53.253,116.22719835012578L53.403,132.3812067407001L53.553,131.40402509427588L53.753,136.6165307787932L53.803,126.61358250245897L54.003,144.42057273380328L54.253,122.9740828919183L54.803,132.19753763113636L55.153,132.79460522244636L55.504,122.29218475054958L55.704,108.24723766726358L55.854000000000006,135.81695458653385L55.903999999999996,132.99241920899024L55.954,123.30763918987665L56.304,109.1692169306358L56.604,116.51625455340067L56.704,134.90687540610367L56.754,129.54146424148217L56.954,120.90604882222723L57.154,127.64513645730392L57.354,116.55470974656174L57.403999999999996,126.68079218255787L57.604,125.67445249851735L58.054,116.81547842200729L58.254,102.21615203823221L58.304,120.45166479204495L58.354000000000006,99.34645510944415L58.454,135.67861658376984L58.504000000000005,128.7446722470814L58.804,121.51911471733732L59.004,116.91841543992598L59.054,118.7714890290614L59.153999999999996,109.00334764865987L59.254000000000005,123.59620616837736L59.404,111.76206018980214L59.454,141.3531546059019L59.504000000000005,124.60688396500035L59.70399999999999,103.10901630311426L59.903999999999996,123.25945791772324L60.153999999999996,116.23780802295548L60.204,130.57522528319618L60.254000000000005,129.1614372693517L61.404,121.45302587962479L61.604000000000006,124.16523404673549L61.704,106.28762611944941L61.954,102.55068609855242L63.153999999999996,130.5769880422567L63.254,118.95517489556494L63.504000000000005,133.33545230997817L63.604,113.72128548158986L63.804,111.05519526472735L63.903999999999996,127.25154892476624L64.255,127.86264132981808L64.555,111.60957538289883L64.755,107.11800958330899L65.105,115.07462850531942L65.205,103.41197449741884L65.505,116.24362075831658L65.605,110.5951421828617L65.755,119.76236875460103L65.905,135.4285157993873L66.305,118.83493312171879L66.355,131.5526972466408L66.50500000000001,124.79986907999817L66.855,120.36414923385385L67.005,118.97717370858837L67.455,112.71224612891176L67.655,100.5738652532465L67.805,109.20527711303896L67.85499999999999,132.6351558129112L68.30499999999999,138.3317786968874L68.355,137.97506274225606L68.555,121.76523638526567L68.655,111.9680388776713L68.705,111.88001272919712L68.905,125.57869338563148L68.955,140.24414010353576L69.105,125.96114576474773L69.155,124.6553689313952L69.555,128.63546260812953L69.75500000000001,115.63457861564649L69.855,102.65400994833037L69.955,116.67868568658102L70.005,111.33483788093443L70.455,118.91119743583582L70.605,128.46388643578453L71.005,116.2516958934485L71.10499999999999,144.3580174794159L71.355,139.95508348035267L71.605,121.58776919027949L71.955,126.33937258281182L72.605,111.50622635059375L72.905,120.04589159236748L73.05499999999999,137.7631345153967L73.106,123.22451204595868L73.306,88.8401908191543L73.506,97.96966283656667L73.60600000000001,122.37085920586173L73.856,129.63076716394698L73.906,131.1145690330176L74.35600000000001,110.78566840055697L74.656,86.69300948012805L74.856,126.73254197367719L74.906,114.13027749300426L75.40599999999999,109.28226506608314L75.656,114.12080983543214L76.35600000000001,126.6248296538435L76.456,119.69920475275379L77.456,127.78483910693413L77.506,119.74348368121022L77.70599999999999,96.71566019724754L77.756,91.35488346733308L77.806,95.85077073755431L78.706,111.04587300593428L78.956,98.79808821237152L79.306,114.6778427539947L79.356,116.5642346316184L79.65599999999999,104.03722769539377L79.756,106.7579208221569L80.006,105.36989430750474L80.106,124.81471383945932L81.306,124.76959621693464L81.406,127.92560938099396L81.506,124.65579734122034L81.90599999999999,114.24450510757293L82.007,116.90314951977635L82.407,124.5339474249582L82.557,120.05968013258341L82.707,118.41825630972801L83.357,103.94100465281724L83.70700000000001,94.55378264972936L84.007,113.21023519220216L84.307,122.9694718277468L84.357,123.60823011754901L84.657,125.48747190669138L85.157,99.21292268828498L85.407,107.22781897012634L85.457,87.03776125167367L85.607,91.31219632316723L85.907,106.80196987384556L86.007,110.88699758668763L86.157,111.87281938542566L86.307,101.0914797711497L86.457,112.70476520931015L86.50699999999999,96.30673928846781L87.407,95.03603694267939L88.157,74.2520031548919L88.907,107.96216898124653L89.057,101.85258550605278L89.10699999999999,105.71631614586768L89.207,108.68032189565126L89.25699999999999,108.48888182204685L90.30699999999999,108.9355390167179L90.357,107.5971082520902L90.607,99.450640987257L90.75699999999999,92.4794040826207L90.908,100.05258046328949L91.00800000000001,109.14075638330507L91.208,95.52942097627086L91.408,86.3249302107835L91.608,92.43332355397999L92.858,102.89256843571198L92.908,120.6545897112889L93.458,119.8156001439221L93.858,119.64064444026033L93.908,115.83661222190418L94.058,115.38961628486851L94.15799999999999,105.13674530915551L94.208,105.34502569568524L94.658,95.60654802242634L95.008,93.76577614933711L95.758,98.07792342985084L95.80799999999999,113.25765700831427L95.958,108.59494569535647L96.908,113.80555169067375L97.158,105.26011567199703L97.208,120.71268359686283L97.30799999999999,111.44050026116558L97.658,99.40047290161415L98.008,113.43936510101965L98.05799999999999,119.72373561950604L98.508,107.6068517982453L98.70800000000001,111.72601486231632L98.80799999999999,104.5637048382226L99.00800000000001,104.72666663279666L99.45800000000001,117.23355022177267L99.759,121.98562701998975L99.809,113.41350940060806L100.059,82.06298603662421L100.459,93.97713867819702L100.909,87.76619437390039L100.959,81.05996445785556L101.15899999999999,90.20594134430357L101.409,90.34969529225155L101.559,78.45308856093098L101.659,100.260975743195L101.80900000000001,92.00495731812903L101.959,84.23785083180236L102.159,92.63004998498116L102.55900000000001,107.15593068097466L102.95899999999999,91.69148613844104L103.159,95.31924185649153L103.30900000000001,88.58247577072592L103.359,102.25121201388825L103.659,88.05857089065454L104.109,79.39632818913803L104.309,98.0177113923105L104.35900000000001,89.30062723549773L104.409,107.75976706968616L104.50900000000001,81.67137674843606L104.659,89.2976182330491L105.009,96.27335619578922L105.459,109.26120593877047L105.509,84.7311809122686L105.959,78.84870628839566L106.15899999999999,89.7863553696287L106.259,96.89757875222384L106.40899999999999,95.17599845143953L106.659,93.13515787838291L106.709,90.9999219473661L106.809,100.86666872843038L106.859,100.10366593224988L106.90899999999999,100.8604742664248L107.15899999999999,110.97839880791487L107.85900000000001,95.64031619832704L108.30900000000001,106.5396564356478L108.56,87.13667838322004L108.91,87.21642881903209L108.96000000000001,102.8183786579167L109.41000000000001,90.83645140255089L109.76,79.43065087209253L110.36,84.03441203353391L110.71,105.23757629283266L110.81,81.93171281261017L111.00999999999999,103.06131350697994L111.50999999999999,94.31329518901246L111.56,100.00217038875725L111.71000000000001,97.80825575030538L111.96,85.22802138063142L112.16000000000001,84.46388135093487L112.81,114.47381330054415L112.96,108.3512213050603L113.26,80.01696334863814L113.30999999999999,94.10883600832021L113.36,86.41736253622754L114.16,96.83300960870204L115.06,89.56139295884911L115.36,99.3033506657531L115.71,97.13734184190456L116.00999999999999,101.82455028927679L116.21000000000001,104.847937846238L116.31,91.81580269620099L116.41,90.86359214109133L116.71000000000001,90.98673988487003L116.86,74.79439662699336L116.96,81.21768834234605L117.10999999999999,88.15087030108805L117.25999999999999,103.50838621517106L117.361,82.29133103345232L117.811,63.74696788858239L117.91099999999999,88.9941570613546L118.511,73.9059473275905L118.561,69.46205893970999L118.611,71.71900493610786L119.311,77.48209226396891L119.511,97.4577863733712L119.711,100.18182214858363L119.911,83.61002898876903L119.961,84.5981167011141L120.111,80.72169887363769L120.21100000000001,83.04042864624445L120.31099999999999,88.9279158919025L120.711,122.1647379184275L120.811,113.93961566152795L120.96100000000001,82.11089137903372L121.111,101.6772072469177L121.26100000000001,91.43608051458493L121.36099999999999,100.80272509431695L121.511,93.1048823864716L122.461,93.99934364716042L123.06099999999999,78.14611726429199L123.111,96.55621616073287L123.161,101.90951649283991L123.26100000000001,87.2092185842156L123.31099999999999,84.03130888803099L123.411,80.21854974315822L123.511,105.3919729623873L123.711,87.17802362921692L123.911,99.83477888164514L124.161,108.02238537458764L124.261,95.12771177548449L124.611,94.77380450499088L124.76100000000001,81.81914745223862L125.011,75.29559372852495L125.21100000000001,97.10158538950927L125.461,102.0731272614728L125.561,95.29361183178442L125.61099999999999,84.24634299333866L126.161,90.43683236355557L126.31200000000001,99.05117716157022L126.462,80.06555227566834L126.61200000000001,71.6482324246439L126.662,81.67717402870714L126.812,86.70186769600572L126.862,91.32545975338175L126.962,85.41689812443431L127.21199999999999,78.60382635927193L127.262,93.39918962253655L127.612,86.10677054753872L127.66199999999999,106.87126477077348L127.86200000000001,90.81067454453556L127.96199999999999,75.40390168753505L128.062,86.54470420598979L128.262,79.78718521809586L128.762,89.13702351309392L128.862,81.92846265029712L128.962,91.11438328583397L129.012,100.29312721386633L129.21200000000002,92.55144524423807L129.362,109.56637510991482L129.762,102.0385926199773L129.96200000000002,83.73033548474591L130.662,76.965493259615L130.862,98.13282979606636L130.962,98.3048483284684L131.212,110.3708538848598L131.262,93.99534707454887L131.362,96.63288507273754L131.46200000000002,79.58502279832166L131.512,88.8777810926481L131.612,80.83996209379677L131.712,92.06577230844802L131.762,75.49956526076065L132.112,76.75567596361525L132.262,85.25501720614335L132.512,91.8472123789728L133.462,101.71832213598861L133.962,96.11929892295662L134.262,75.74330920813708L134.412,86.9849048829135L134.562,93.1229606588771L134.712,96.68712151841957L134.762,112.6780760279469L134.812,111.44979808304227L135.263,87.04007019273497L135.31300000000002,50.71465139562238L135.363,67.60683427255755L135.463,84.69143852917054L136.06300000000002,87.3111947922828L136.113,76.90354104377512L136.213,81.7246038087158L136.613,74.86758026981207L137.063,80.68002921899412L137.913,96.36870547645822L138.613,93.0731404959204L138.81300000000002,79.9446320374702L138.863,86.12670972953828L138.963,102.4333885347617L139.363,86.72820998916167L139.463,95.49242255540887L139.66299999999998,96.92472289366464L140.163,96.74376763159377L140.563,95.10410188593592L140.613,85.9801172290443L141.16299999999998,82.82097504631007L141.563,86.64544405586307L141.863,99.18997145417465L141.91299999999998,94.26075057765428L142.013,75.5916173269495L142.113,83.60936649580331L142.363,95.35814432429589L143.31300000000002,87.90377848294665L143.613,79.69405904315292L143.663,76.7156465237591L144.114,71.24694923389447L144.214,75.07963584827127L144.364,71.47559446763835L144.414,80.69303796220647L144.464,64.96766841325359L145.01399999999998,72.32944556015335L145.164,62.41965837785162L145.464,69.57638336707099L145.714,85.62314465489673L145.814,80.11025771642642L145.914,88.69749166873214L146.014,87.73613605319872L146.464,96.8407012396546L146.664,95.0602865021565L146.864,104.90696042075093L146.964,102.49716122969649L147.114,89.6509751927505L147.564,84.77299641524712L147.614,87.08551879484668L148.114,81.48637022141746L148.214,79.25915347587132L148.81400000000002,78.64180354897591L148.864,69.8169518673606L148.914,69.65386199952817L149.114,85.50128867409946L149.314,81.47764081088133L149.614,89.55255474437416L149.664,78.00826624298115L149.814,79.63266841604064L150.214,79.17956409681149L150.464,92.77049291678767L150.614,96.41459014687578L150.764,97.34910855873333L150.814,90.77141368389762L151.214,102.20490800575966L151.51399999999998,93.75792126536433L151.814,90.43524062077587L152.064,96.92363845376654L152.965,86.88107893514461L153.165,92.9593306579715L153.26500000000001,76.84490417508597L153.51500000000001,58.76585459214759L153.765,68.14285764329148L154.41500000000002,92.65231968423393L154.61499999999998,70.57042707315026L154.76500000000001,91.34137549465912L155.515,71.64002230360464L156.065,77.23534685387891L156.11499999999998,89.4639965843508L156.26500000000001,74.20781365758961L156.565,85.01449475423716L156.915,82.82995662773165L156.965,81.96735947200649L157.015,95.9305419535959L157.065,84.38293407322813L157.115,99.76889210440368L157.16500000000002,83.73521308586666L157.565,89.15112908356366L158.715,85.60395543261089L158.765,72.73056497284524L158.815,57.648695456763974L159.165,66.00636657437389L159.715,74.48530598227757L159.815,83.58015995708118L160.415,70.50412722185447L160.465,67.93379404146756L160.615,74.9278976673409L160.71499999999997,69.09625142189533L160.76500000000001,70.84815969226023L160.865,79.34146156845587L161.76600000000002,65.08611815526241L162.01600000000002,73.29136216610563L162.166,85.29601918449976L162.316,70.53354896380175L162.766,69.34344932437227L162.816,75.84295747686603L163.11599999999999,93.93537480021088L163.216,81.26847490566172L163.26600000000002,85.50743102427762L163.566,81.77033080874814L163.716,70.2167231051511L164.016,82.41858575423268L164.11599999999999,72.76450894271156L164.216,72.54169579471868L164.36599999999999,63.04618842314129L165.066,77.7377755110955L165.166,74.43181377681942L165.216,79.30173679329087L165.266,75.61712341891334L165.816,68.05571593025941L166.316,79.04139191697288L166.716,75.86698473873273L167.566,71.59189106204514L167.916,82.21435494123877L167.96599999999998,91.31928126375482L168.116,88.72420491412734L168.61599999999999,81.80461707060725L168.916,68.02657702126206L169.11599999999999,78.56917853684304L169.366,98.98653621208726L169.466,109.46853312092826L169.56599999999997,97.92437167888778L169.666,91.6542373015623L169.766,96.39864733071643L169.966,83.95052917457893L170.016,69.18139669793031L170.166,77.9373906169342L170.46599999999998,101.56495346604169L170.517,79.68135786321007L170.667,72.34359588268903L171.06699999999998,57.956452760500966L171.167,59.934813885456876L171.217,71.33309822392016L171.267,76.2214250088354L171.667,65.22733538672829L172.417,60.97135627231286L172.517,65.19892641294386L172.617,64.58595862179241L172.717,65.46400010262886L172.817,68.97244907087216L173.26700000000002,56.50834086139845L173.46699999999998,74.83020611584146L174.117,62.92963829793159L174.317,82.74832612350146L175.267,83.00112927903385L176.01700000000002,93.62931272724714L176.067,88.3328564846337L176.36700000000002,71.13815400904427L176.417,74.26346824195333L176.517,68.68873625394698L176.667,78.71342477022709L176.917,88.70427748100603L177.117,98.8080418613562L177.217,81.44641604850806L178.017,77.95336992175241L178.367,68.16240757187377L178.567,79.0522696625866L178.917,59.994635283319724L178.96699999999998,72.58953299666143L179.317,77.60411410764992L179.418,52.350969603277875L180.61800000000002,57.64891867195459L180.768,85.10945311457033L181.118,76.12799321087151L181.268,73.21988121465971L181.318,68.30907335654106L181.41799999999998,83.09886568094579L181.468,79.34320853795742L181.818,73.81452400714365L182.46800000000002,63.53982145773624L182.71800000000002,69.89946925614636L183.168,69.79748824610446L183.26799999999997,77.206250036065L183.368,80.89949167119777L183.71800000000002,76.0964498822854L184.368,72.16417167011886L184.468,66.44345066429919L184.768,83.24164573395777L185.168,80.85579144967951L185.46800000000002,60.73856331547479L185.518,57.82912826810218L185.568,48.29616945521764L185.768,50.088844663691575L186.01799999999997,59.46916542580763L186.36800000000002,84.11145684487217L186.768,80.00467922986438L186.96800000000002,73.99015027330942L187.16799999999998,64.9360846938093L187.268,83.35026004226486L187.568,60.17923614367207L187.81799999999998,77.79599121885633L187.918,77.29725725446198L188.018,75.77009855750867L188.168,99.0752247771026L188.369,72.42945871842024L188.969,79.45867645497039L189.219,60.19377379886241L189.46900000000002,70.57549143975193L190.369,62.7618658490066L190.569,69.03270868880625L190.719,61.80850978348853L190.96900000000002,45.11504605471987L191.31900000000002,50.13750086309125L191.51899999999998,73.83742834841614L191.619,75.17444863613886L191.919,81.36579672685022L191.969,68.03376502180596L192.269,94.10351371175315L192.619,62.72422081163502L192.91899999999998,59.508664864096005L193.06900000000002,61.52139114346615L193.369,71.44182862289169L193.91899999999998,75.15970472312027L194.019,75.20440729151436L194.51899999999998,63.04081839772603L194.669,63.37260332404972L194.769,80.2311824087917L195.019,80.96700993226558L195.81900000000002,64.20674421503128L195.919,76.71090992777299L196.169,64.95690076930318L196.219,60.51874851725664L196.419,65.45462774010242L196.519,55.90877476889682L196.819,53.271612727410954L196.869,71.4595570770568L197.17,55.41968530493527L197.77,69.35577224353581L198.02,65.61860377389083L198.62,71.40294833908753L198.67000000000002,54.39620944457522L198.97,46.8408902131888L199.02,44.84578360448404L199.72,48.27577397461141L199.92,75.55409574551742L200.01999999999998,73.26138600015564L200.12,70.16180043527838L200.26999999999998,60.259560166760664L200.42000000000002,68.84141514974861L200.87,71.56258356924988L201.17,61.19222387615052L201.27,63.373793483423995L201.82,69.97734675751836L201.87,69.53397953440218L202.17000000000002,59.02341178634609L202.52,60.2297100954076L203.72,51.48839475691595L204.02,50.93965363659187L204.12,60.494844491301635L205.17,60.21224847179134L205.32,70.53315703277053L205.52,58.71372955556541L205.57000000000002,85.57775523030604L205.62,74.8916799099344L205.871,51.700184692529376L206.021,37.837586702148L206.12099999999998,40.6220248426535L206.571,37.39167323204859L206.921,49.965266348942606L207.171,50.58957373180904L207.571,51.32062205018461L207.77100000000002,55.83139245611987L207.97099999999998,52.139799289792336L208.621,71.90164083951673L208.721,78.06141063675383L208.87099999999998,62.12617500266062L209.47099999999998,55.26058657062241L209.671,58.76909525774133L209.921,43.403704915102054L210.021,43.86177025194095L210.52100000000002,66.14394235543402L210.62099999999998,57.176161458072826L210.721,63.562544218782875L211.371,48.145541885574545L212.171,52.169896585558774L212.421,53.69937762268471L212.771,56.52060541216058L212.921,72.678089568761L213.021,57.18996272323403L214.021,70.37763596995762L214.071,65.1030040089827L214.121,57.64563737823201L214.371,58.17037481276826L214.471,72.98051932082801L214.922,65.05674096803467L215.322,49.3615150466471L215.622,52.25222400362928L215.672,45.472974510326225L215.87199999999999,41.041643149329275L216.422,39.93239928357727L216.72199999999998,42.341783314347936L217.022,49.84366082937632L217.172,67.5809026061682L217.922,48.353154975964486L218.122,38.13185536175243L218.472,50.62828022469235L218.672,48.68423165097039L218.92200000000003,50.77027880315251L219.172,42.85098997972415L219.372,52.92001929782795L219.422,47.90170200627847L219.972,57.025247276799206L220.022,51.525641699019886L220.572,53.967282727989925L220.672,57.546155027692166L220.72199999999998,42.65415405613709L221.072,67.9590152570356L221.172,48.132444941879015L221.222,65.2634290641733L221.272,60.222161639950656L221.32199999999997,59.38748887672861L221.62199999999999,39.00329014779308L222.722,49.88918041758461L222.872,48.70300921616234L223.572,45.19173911294891L223.773,58.5383021793304L223.823,44.03386593400597L223.923,56.29760255974284L224.323,52.26544619261661L224.573,34.186180988022954L224.923,75.67571111347907L226.323,66.73974162938727L227.223,58.13665866435336L227.473,43.406345374852094L227.923,41.79413733271497L227.97299999999998,65.93151276741929L228.523,46.13269881979434L228.57299999999998,48.85434960731976L228.673,58.347220145978795L228.773,60.815264385302086L228.923,45.94031940847506L228.973,62.86692990401902L229.073,42.6955136941061L230.223,59.75424175194192L230.47299999999998,47.9231673620084L230.623,52.59059434034977L230.773,50.9392376005336L231.023,54.65530456374054L231.573,53.31397522199424L232.02300000000002,55.27711423629826L232.173,55.894574617347274L232.22299999999998,60.68095554560465L232.624,44.07751047127641L232.92399999999998,39.663739355760555L233.724,31.645323963488693L234.024,39.85250637983148L234.22400000000002,32.17635793756452L234.374,36.78566286888477L234.674,42.88989412600196L234.77400000000003,41.09129768337948L235.224,49.07668580548L235.424,64.92715467574821L235.72400000000002,65.76426125146826L235.974,61.7808450369284L236.27399999999997,48.481715974457444L236.724,43.402088492288414L237.07399999999998,50.840367259245525L237.274,51.18054409889409L237.724,60.14836239293177L237.874,48.25058372731223L238.47400000000002,58.833945939505L238.824,35.80595118796833L238.974,40.64085248951372L239.074,61.02802671797906L239.124,67.90765853141829L239.324,49.52218769614433L239.374,45.56954277235539L239.424,47.810009046972056L240.024,45.170568826263235L240.324,54.82499842608836L240.374,60.40225576173546L240.474,38.1007320346952L240.774,41.06968036480316L240.924,52.042278829234164L241.22400000000002,38.36108147591867L241.375,47.31901079697934L241.725,42.627916554190705L242.225,19.7939879118139L242.525,31.42456000990785L242.72500000000002,34.91373163933602L242.875,33.401623251011614L243.27499999999998,49.23150701148066L243.375,44.86853886491889L244.025,54.98345254803661L244.22500000000002,57.09504498904255L244.275,60.313740769440074L245.225,54.37307661537574L245.275,51.570038371575635L245.425,48.99363578737382L245.775,50.62967899582242L245.875,61.68255673607804L246.27499999999998,71.05712651511938L246.375,53.6427555887022L246.425,72.62660949687886L247.075,46.07129042741059L247.17499999999998,32.2282053100414L247.225,44.838644393305486L247.675,46.36953522639456L247.825,46.534628004552815L248.375,50.330948232464976L248.525,56.21081505112713L248.625,48.82291567456227L248.725,47.292333617385594L249.325,45.24224893830964L250.126,35.51421000697681L250.376,41.377563103633406L250.87599999999998,31.073644075354906L251.176,56.92572772744491L251.526,37.90771661202342L251.82600000000002,37.055889590762575L251.92600000000002,40.77848084151768L252.12599999999998,27.326103303969006L252.476,36.41096901664804L252.526,33.73088639147346L252.576,32.867663744590516L253.07600000000002,30.426110766110696L254.126,32.092713739643216L254.376,50.15462540951286L254.626,65.11706050770826L254.92600000000002,59.96716965488717L255.426,45.251326849724336L255.676,45.1016717476553L255.976,48.78861691125957L256.176,29.95448488139465L256.226,23.84868101628723L256.626,55.4657180438999L256.776,56.87511767646461L256.826,55.29017951236774L256.926,50.911225786971116L257.076,56.200736801809626L257.126,54.794122879365744L257.176,63.03248305188686L257.426,65.61491147218447L257.526,61.04044365095044L257.676,66.02171880529052L257.726,80.46224108603407L257.776,66.26542458965972L257.82599999999996,44.472362598067235L257.926,49.39307548141335L258.076,40.501497251579565L258.126,54.277201439323306L258.426,59.54123996060561L258.726,48.22776269641153L258.826,47.863742502438186L258.976,61.376957708894665L259.527,46.562317576118346L259.927,52.85952834723177L259.977,32.0396581673665L260.027,34.537869088282605L260.327,33.724768138927146L260.677,47.215735051497006L260.92699999999996,18.138668491301388L261.277,31.723419214715562L261.927,36.032135849641975L262.22700000000003,40.063840112358946L262.327,45.32926895764675L262.47700000000003,51.86375843720532L262.827,58.5748847277614L263.127,43.89831519416302L263.277,67.39840656497384L263.377,52.31599635692122L263.427,48.80528509371078L263.877,43.337337342522005L264.377,51.15620920668505L264.427,51.87284938143476L264.827,50.033416454389666L265.42699999999996,33.73128313444818L265.577,53.65163265706481L265.727,53.963971519864444L266.377,40.81100708539833L266.777,48.99259862608562L267.177,75.02000935467139L267.227,58.21216388927611L267.377,42.46178169907597L267.477,42.685996973101766L267.527,43.33456724988952L268.178,43.67644161939168L268.478,37.25354179700798L268.578,38.299873532643886L269.328,47.7495583122346L269.678,39.23874029917911L269.978,31.32540959863158L270.128,43.69789961853664L270.178,41.373884739298575L270.478,43.55434439073929L271.128,51.77820330002102L271.228,38.217907845031164L271.27799999999996,23.429000463527956L271.32800000000003,28.25960189187711L271.628,46.31913991703931L271.878,44.41776935492811L272.528,46.326279348293156L273.328,34.99530950805686L273.678,51.95156977280509L273.928,31.093970562856327L273.978,43.10229832162233L274.27799999999996,39.939518370554566L274.728,42.23779499480895L274.878,41.09486658016323L274.928,59.18144833852877L275.028,56.52090886124434L275.32800000000003,71.6375945827563L275.378,53.84148256516781L275.478,53.910006123754L275.728,46.379076846558974L275.878,33.983525771696776L276.628,47.65628410812931L276.829,33.11899584201362L277.129,21.81899925642159L277.479,30.003823764297806L277.679,36.66888706681158L277.829,41.472612975068415L278.579,38.71474448600429L278.979,49.477633434357756L279.179,39.15623974843592L279.22900000000004,33.78913003110932L280.12899999999996,41.44449914394315L280.279,29.53984589519382L280.329,33.40940478784532L280.429,25.315400116218655L280.529,23.108391300068973L280.579,26.59091659046021L280.779,38.18334998657073L280.829,44.57711470389026L281.379,55.01934697164741L281.67900000000003,51.99375408705538L281.879,34.158858842194434L283.029,38.84592744469495L283.679,40.18403530238942L284.079,36.4058395302587L284.329,34.14343009005691L284.379,49.61656231059757L284.479,34.1275137343502L284.529,30.400180805985173L284.579,40.79981026763011L285.029,42.24107250811218L285.079,26.940777465879194L285.529,46.88655966132811" style="fill: none;" fill="none"></path></g></g></g></g><g opacity="0.2"><g><g><g><path stroke="rgb(255, 112, 67)" stroke-width="2px" d="M25.1,208.65912073308772L25.25,169.307297446511L25.299999999999997,187.2467797019265L25.650000000000002,236.20165009932086L26.3,178L26.95,194.75114232843572L27.499999999999996,194.9544150612571L27.75,167.74389371004972L27.9,204.60619701038706L28.35,190.37173531272194L28.4,175.16492254083806L28.851000000000003,190.42173559015447L29.101,179.9314921985973L29.201,145.3251890702681L29.250999999999998,181.51779729669744L29.851,189.06265397505328L30.251,176.7586968161843L30.301000000000002,199.88789922540838L30.551000000000002,164.7164077758789L31.101,170.06341275301847L31.401,164.7326424338601L31.651,179.1978461525657L31.801000000000002,192.3382894342596L32.401,158.99452417547053L32.701,206.8245426524769L32.951,157.74507279829547L33.301,184.39336880770597L33.601,216.0951496471058L34.551,160.47163113680753L34.801,139.94392464377663L34.851,154.8022786920721L35.101,130.42504466663706L35.351,151.85324998335403L35.451,152.0954118208452L35.851,180.7899537519975L35.900999999999996,156.24778053977272L36.251,135.8264326615767L36.451,154.70629050514916L36.901,174.96171153675425L37.301,158.79137490012428L38.052,144.8761742331765L38.251999999999995,134.75932797518644L38.752,147.33285453102806L38.852,147.77273351495916L40.952,140.86139887029475L41.002,131.28400004993784L41.402,133.34894977916372L41.852000000000004,132.74956373734906L41.952,179.42327950217506L42.002,140.6144221912731L42.152,149.14428433504972L42.452,155.73345669833097L42.902,141.99103476784447L43.052,127.59762157093394L43.102,138.6447816328569L43.602,145.3052506880327L44.452,140.93547335537997L44.552,141.32899405739525L45.252,151.03028245405716L45.501999999999995,143.89234161376953L45.602000000000004,152.26609178022903L45.752,142.41640749844638L46.152,149.34700150923294L46.452,142.76011310924184L46.552,115.07070021195844L46.653000000000006,113.03568892045455L46.953,106.66201158003373L47.203,140.6144221912731L47.703,137.54545454545456L48.00300000000001,118.76683183149859L48.303,143.2933876731179L48.503,142.9250522960316L48.803,135.15328077836472L48.903,116.47539936412466L49.053,131.65400210293856L49.153000000000006,107.81658588756214L49.202999999999996,124.32315895774147L49.453,153.68424779718572L49.503,112.87803372469816L49.952999999999996,159.5432926524769L50.253,130.84029388427734L50.353,110.97907257080078L50.603,127.33521270751953L50.853,148.7828008478338L50.953,143.13307814164597L51.553,127.11903866854581L51.903,169.34260628440163L51.953,106.42657817493786L52.053,102.26532051780008L52.153,142.24949299205434L52.203,131.44955652410334L52.303,116.90540175004438L52.903,159.89903536709872L53.053,113.16556618430398L53.253,113.01877524636008L53.403,139.30435319380325L53.553,130.9852329600941L53.753,138.85046178644353L53.803,122.32660466974431L54.003,152.05213997580788L54.253,113.78273010253906L54.803,136.150446805087L55.153,133.0504913330078L55.504,117.791147405451L55.704,102.22797463156961L55.854000000000006,147.63254755193537L55.903999999999996,131.78190404718572L55.954,119.157019181685L56.304,103.1098931052468L56.604,119.66498496315697L56.704,142.78857005726206L56.754,127.24200231378728L56.954,117.20515649968928L57.154,130.53331687233666L57.354,111.80166972767223L57.403999999999996,131.02054179798472L57.604,125.2431640625L58.054,113.01877524636008L58.254,95.95929787375711L58.304,128.26688454367897L58.354000000000006,90.3013652454723L58.454,151.24954292990944L58.504000000000005,125.7729818170721L58.804,118.42244720458984L59.004,114.94668717817828L59.054,119.56566342440519L59.153999999999996,104.81700134277344L59.254000000000005,129.85028839111328L59.404,106.69028334184127L59.454,154.03505221280184L59.504000000000005,117.42991083318537L59.70399999999999,93.89564444802024L59.903999999999996,131.89536146684125L60.153999999999996,113.22852949662642L60.204,136.71983268044212L60.254000000000005,128.5555281205611L61.404,118.14942099831322L61.604000000000006,125.32760897549716L61.704,98.62579415061258L61.954,100.94914037531073L63.153999999999996,142.5882603038441L63.254,113.97439783269708L63.504000000000005,139.49842834472656L63.604,105.31521398370917L63.804,109.91258517178622L63.903999999999996,134.19284335049716L64.255,128.1245380748402L64.555,104.64397569136186L64.755,105.19305281205611L65.105,118.48460804332387L65.205,98.41369420831855L65.505,121.74289772727272L65.605,108.1743656505238L65.755,123.69118014248934L65.905,142.1425788185813L66.305,111.72339768843217L66.355,137.0031675858931L66.50500000000001,121.90579986572266L66.855,118.46312644264916L67.005,118.38275562633169L67.455,110.02727716619317L67.655,95.37170202081855L67.805,112.90445362437855L67.85499999999999,142.67653239857066L68.30499999999999,140.77318850430575L68.355,137.82218447598544L68.555,114.8181679465554L68.655,107.76923994584517L68.705,111.84228723699395L68.905,131.44955652410334L68.955,146.52933155406606L69.105,119.83986247669566L69.155,124.09575028852984L69.555,130.34121704101562L69.75500000000001,110.06277119029652L69.855,97.0909090909091L69.955,122.68926100297406L70.005,109.04461739280008L70.455,122.15820867365056L70.605,132.55789600719106L71.005,111.01789994673295L71.10499999999999,156.403583873402L71.355,138.0681117664684L71.605,113.71606306596236L71.955,128.37577403675425L72.605,105.14916367964311L72.905,123.7057481245561L73.05499999999999,145.35623862526634L73.106,116.99367384477094L73.306,74.1040531505238L73.506,101.88229370117188L73.60600000000001,132.8285147927024L73.856,132.74215628884056L73.906,131.75048411976206L74.35600000000001,102.07328241521661L74.656,76.36758422851562L74.856,143.89234161376953L74.906,108.7293070012873L75.40599999999999,107.20454545454545L75.656,116.19447187943891L76.35600000000001,131.9836952903054L76.456,116.73107979514381L77.456,131.25011097301137L77.506,116.2971884987571L77.70599999999999,86.84659298983486L77.756,89.05740772594105L77.806,97.77757956764914L78.706,117.55805969238281L78.956,93.54903758655895L79.306,121.48345184326172L79.356,117.37268829345703L79.65599999999999,98.66851043701172L79.756,107.92393216219816L80.006,104.77502580122514L80.106,133.14820792458275L81.306,124.75026009299538L81.406,129.27818645130503L81.506,123.25444932417437L81.90599999999999,109.78252272172408L82.007,118.04256855357778L82.407,127.80428938432172L82.557,118.14213700727984L82.707,117.71478895707563L83.357,97.73646822842684L83.70700000000001,90.53068750554864L84.007,121.20585771040484L84.307,127.15200181440875L84.357,123.88198367032138L84.657,126.29286124489525L85.157,87.95240159468217L85.407,110.66277451948686L85.457,78.38487937233664L85.607,93.14409706809305L85.907,113.44044425270774L86.007,112.63772374933417L86.157,112.2953144420277L86.307,96.47090565074573L86.457,117.68188753995028L86.50699999999999,89.27901389382102L87.407,94.49145022305575L88.157,65.34456010298295L88.907,122.40938290682706L89.057,99.23419258811258L89.10699999999999,107.37220070578836L89.207,109.95061007412997L89.25699999999999,108.40683607621627L90.30699999999999,109.12696352871981L90.357,107.02349506724964L90.607,95.95929787375711L90.75699999999999,89.49173112349077L90.908,103.29822748357599L91.00800000000001,113.03568892045455L91.208,89.69599151611328L91.408,82.38014845414595L91.608,95.0512064153498L92.858,107.37510195645419L92.908,128.26688454367897L93.458,119.45603318647906L93.858,119.56566342440519L93.908,114.20631269975141L94.058,115.19804659756747L94.15799999999999,100.74265774813566L94.208,105.43428871848367L94.658,91.43291473388672L95.008,92.97687391801314L95.758,99.92598655007102L95.80799999999999,119.76325711337003L95.958,106.59664084694602L96.908,116.03866854580966L97.158,101.59778594970703L97.208,127.33521270751953L97.30799999999999,107.46670740300958L97.658,94.24046117609198L98.008,119.45603318647906L98.05799999999999,122.41703727028587L98.508,102.41390158913352L98.70800000000001,113.49137046120383L98.80799999999999,101.49414339932528L99.00800000000001,104.79650740189986L99.45800000000001,122.59364318847656L99.759,124.02223136208275L99.809,109.73974470658736L100.059,68.62704745205967L100.459,99.08320409601386L100.909,85.10436110063033L100.959,78.18586592240767L101.15899999999999,94.12564572420987L101.409,90.4113041270863L101.559,73.35454281893642L101.659,109.60721310702237L101.80900000000001,88.46666370738636L101.959,80.90909090909092L102.159,96.22670676491477L102.55900000000001,113.3813081221147L102.95899999999999,85.06386704878373L103.159,96.87399430708452L103.30900000000001,85.69529030539773L103.359,108.10924183238636L103.659,81.97601040926845L104.109,75.68393845991655L104.309,105.99830419367011L104.35900000000001,85.56473402543502L104.409,115.67082699862394L104.50900000000001,70.49063803932883L104.659,92.56600744074042L105.009,99.26295817982067L105.459,114.82742725719106L105.509,74.21831304376775L105.959,76.32764573530717L106.15899999999999,94.47391926158558L106.259,99.94524591619317L106.40899999999999,94.43817832253195L106.659,92.26051191850142L106.709,90.08482083407316L106.809,105.09527449174361L106.859,99.77666473388672L106.90899999999999,101.18482069535689L107.15899999999999,115.31465218283913L107.85900000000001,89.06685222278942L108.30900000000001,111.21080225164239L108.56,78.82111636075108L108.91,87.2506075772372L108.96000000000001,109.50492858886719L109.41000000000001,85.70133972167969L109.76,74.5424506447532L110.36,86.00745253129439L110.71,114.32464668967506L110.81,71.94348560680042L111.00999999999999,112.11685666170987L111.50999999999999,90.56414448131214L111.56,102.44025976007636L111.71000000000001,96.86800661954013L111.96,79.83649236505681L112.16000000000001,84.13639276677912L112.81,127.33521270751953L112.96,105.72725330699573L113.26,67.87370993874289L113.30999999999999,100.1482100053267L113.36,83.12101676247336L114.16,101.2968583540483L115.06,86.4449858231978L115.36,103.47847539728339L115.71,96.20905234596945L116.00999999999999,103.83335390957919L116.21000000000001,106.14367537064986L116.31,86.23060191761364L116.41,90.45550190318714L116.71000000000001,91.0395174893466L116.86,67.85482094504617L116.96,83.97052764892578L117.10999999999999,91.12223399769177L117.25999999999999,110.09017874977805L117.361,73.19830738414417L117.811,55.79938368363814L117.91099999999999,99.81438099254261L118.511,67.43957172740589L118.561,67.55753534490412L118.611,72.68626750599255L119.311,79.9519868330522L119.511,106.01879813454367L119.711,101.3492660522461L119.911,76.50783192027698L119.961,85.02158286354758L120.111,79.06037694757634L120.21100000000001,84.0341699773615L120.31099999999999,91.45112471147017L120.711,136.4090902155096L120.811,110.41456326571378L120.96100000000001,68.47000954367898L121.111,110.06277119029652L121.26100000000001,87.04702620072798L121.36099999999999,104.81700134277344L121.511,89.80580694025214L122.461,94.38268418745561L123.06099999999999,71.35187738591975L123.111,104.44625854492188L123.161,104.20378806374289L123.26100000000001,80.90909090909092L123.31099999999999,82.66934758966619L123.411,78.58451010964133L123.511,116.18058291348544L123.711,79.37204534357244L123.911,105.25910256125711L124.161,111.53135958584872L124.261,89.60142309015448L124.611,94.62212996049361L124.76100000000001,76.26715157248758L125.011,72.49978498979048L125.21100000000001,106.44701038707386L125.461,104.20378806374289L125.561,92.38810521906073L125.61099999999999,79.51179920543323L126.161,93.08989923650567L126.31200000000001,102.74303921786222L126.462,71.9288558959961L126.61200000000001,68.04080963134766L126.662,85.97529185901989L126.812,88.85530783913352L126.862,93.30699920654297L126.962,82.88465742631392L127.21199999999999,75.68393845991655L127.262,99.74005959250711L127.612,82.9814480868253L127.66199999999999,115.77033372358844L127.86200000000001,83.92756444757634L127.96199999999999,68.8009990345348L128.062,91.31933385675605L128.262,76.89110565185547L128.762,93.14409706809305L128.862,78.83907942338423L128.962,95.0512064153498L129.012,104.22687461159445L129.21200000000002,89.23358154296875L129.362,116.8584879094904L129.762,98.81240012428977L129.96200000000002,75.88393956964666L130.662,74.06627516313033L130.862,107.20454545454545L130.962,98.37857055664062L131.212,115.54199912331322L131.262,86.97727272727273L131.362,97.76325850053267L131.46200000000002,72.27879610928623L131.512,92.86039179021661L131.612,77.39518252286045L131.712,96.87683382901278L131.762,68.39976224032314L132.112,77.29400912198155L132.262,88.89759202436967L132.512,94.67243888161399L133.462,105.94879774613814L133.962,93.71971754594283L134.262,67.0107421875L134.412,91.80273160067472L134.562,95.75355599143289L134.712,98.21461902965198L134.762,119.53134224631569L134.812,110.92339324951172L135.263,76.5787582397461L135.31300000000002,35.146614768288345L135.363,74.84634121981533L135.463,92.01341178200461L136.06300000000002,88.43394747647373L136.113,72.4431180087003L136.213,83.79077356511897L136.613,71.9288558959961L137.063,83.17107876864345L137.913,103.0924238725142L138.613,91.66075550426136L138.81300000000002,74.3181284124201L138.863,88.77617159756748L138.963,109.42196516557173L139.363,79.99741918390447L139.463,99.24851365522905L139.66299999999998,97.53856589577414L140.163,96.66621537642045L140.563,94.40138799493964L140.613,82.06983809037642L141.16299999999998,81.46705696799539L141.563,88.28450220281428L141.863,104.56619748202237L141.91299999999998,92.14822734485973L142.013,67.59056021950461L142.113,87.04554471102627L142.363,100.39333482222123L143.31300000000002,84.70905026522549L143.613,76.17560785466975L143.663,75.43918401544744L144.114,68.90322182395242L144.214,76.72221582586116L144.364,69.93100530450994L144.414,84.64337088844992L144.464,58.22822432084517L145.01399999999998,75.48449290882458L145.164,58.17260672829367L145.464,72.64355121959339L145.714,92.50032806396484L145.814,77.74759188565342L145.914,92.3777347911488L146.014,87.3241265036843L146.464,100.74265774813566L146.664,94.29725161465731L146.864,109.12696352871981L146.964,101.46439014781605L147.114,84.14546689120205L147.564,82.68243408203125L147.614,88.07659981467508L148.114,79.08673511851917L148.214,78.30463201349431L148.81400000000002,78.37722500887783L148.864,66.0348725752397L148.914,69.58396634188564L149.114,92.29304296320136L149.314,79.75322029807351L149.614,93.01323214444247L149.664,73.06071402809836L149.814,80.3288407759233L150.214,78.98537653142756L150.464,98.59517669677734L150.614,97.97634610262784L150.764,97.74961644952948L150.814,87.95240159468217L151.214,107.10497700084339L151.51399999999998,90.1377840909091L151.814,89.01123463023792L152.064,99.70438038219105L152.965,82.57712485573508L153.165,95.56429568204013L153.26500000000001,69.93872139670633L153.51500000000001,51.017690485174L153.765,72.16157323663884L154.41500000000002,103.15637484463778L154.61499999999998,61.10675881125711L154.76500000000001,100.24321053244851L155.515,63.19658522172408L156.065,79.63334308971058L156.11499999999998,94.70484646883878L156.26500000000001,67.66944954612039L156.565,89.64592950994317L156.915,81.8937260020863L156.965,81.59767497669567L157.015,101.91476301713423L157.065,79.43395926735617L157.115,106.36287411776456L157.16500000000002,76.86363636363636L157.565,91.47223593971945L158.715,84.08373815363103L158.765,67.21339763294567L158.815,51.18503709272905L159.165,69.58822562477805L159.715,78.11913715709339L159.815,87.4779545177113L160.415,64.90011319247158L160.465,66.83222267844461L160.615,77.92537064985795L160.71499999999997,66.59697445956142L160.76500000000001,71.59897752241655L160.865,82.9814480868253L161.76600000000002,58.97668526389383L162.01600000000002,76.80789531360973L162.166,90.44087219238281L162.316,64.20677601207386L162.766,68.8334066217596L162.816,78.62846097079189L163.11599999999999,101.6892679387873L163.216,75.83980352228338L163.26600000000002,87.3241265036843L163.566,80.16871643066406L163.716,65.26517694646662L164.016,87.64795546098189L164.11599999999999,68.62704745205967L164.216,72.44620444557883L164.36599999999999,58.97668526389383L165.066,84.0341699773615L165.166,73.01497303355823L165.216,81.38884665749289L165.266,74.0380034013228L165.816,64.8151127208363L166.316,83.74953876842152L166.716,74.50652451948686L167.566,69.75970805775036L167.916,86.76683946089311L167.96599999999998,95.2213925448331L168.116,87.61202933571555L168.61599999999999,78.83907942338423L168.916,62.12170271439986L169.11599999999999,83.08743632923473L169.366,107.73683235862039L169.466,113.96081751043145L169.56599999999997,92.97687391801314L169.666,88.96703685413708L169.766,98.43196591463956L169.966,78.61562139337713L170.016,62.851768493652344L170.166,81.68995943936436L170.46599999999998,111.69105182994495L170.517,70.30267403342508L170.667,69.19884074818005L171.06699999999998,51.790534279563204L171.167,60.782682939009234L171.217,76.21807722611861L171.267,78.31642220237039L171.667,60.51558269153942L172.417,59.1473652232777L172.517,67.0107421875L172.617,64.32325813987039L172.717,65.84030359441584L172.817,70.47607005726208L173.26700000000002,51.16658020019531L173.46699999999998,82.68243408203125L174.117,57.8293949473988L174.317,91.24204947731711L175.267,83.10947348854758L176.01700000000002,98.18424849076705L176.067,86.06294666637073L176.36700000000002,63.76899580522017L176.417,75.6028886274858L176.517,66.29956540194424L176.667,83.00971984863281L176.917,92.98607149991122L177.117,103.1382265957919L177.217,74.00571927157314L178.017,76.45635015314275L178.367,63.96628085049717L178.567,83.7193534157493L178.917,51.82707769220525L178.96699999999998,77.98734630237927L179.317,79.75322029807351L179.418,41.52819338711825L180.61800000000002,59.91946827281605L180.768,96.87825358997692L181.118,72.27879610928623L181.268,71.97354750199752L181.318,66.2044414173473L181.41799999999998,89.4373481056907L181.468,77.73364119096236L181.818,71.44508777965198L182.46800000000002,59.13637750799006L182.71800000000002,72.6250325983221L183.168,69.75378209894353L183.26799999999997,80.38143366033381L183.368,82.482309514826L183.71800000000002,74.0380034013228L184.368,70.47890957919033L184.468,63.99171309037642L184.768,90.44087219238281L185.168,79.83328247070312L185.46800000000002,52.1168941151012L185.518,56.582227533513844L185.568,44.21061567826703L185.768,50.85713403875178L186.01799999999997,63.48930289528586L186.36800000000002,94.67243888161399L186.768,78.2446316805753L186.96800000000002,71.41249500621448L187.16799999999998,61.05577087402344L187.268,91.24204947731711L187.568,50.24879732998936L187.81799999999998,85.34602910822088L187.918,77.08351412686436L188.018,75.11560197310014L188.168,109.06313601407138L188.369,61.00984469327061L188.969,82.4711983420632L189.219,51.93738694624467L189.46900000000002,75.02479900013317L190.369,59.413169167258516L190.569,71.72021276300603L190.719,58.712424538352266L190.96900000000002,37.960704456676154L191.31900000000002,52.28998149525036L191.51899999999998,83.99454012784092L191.619,75.74745733087713L191.919,84.01923162286931L191.969,62.32003714821555L192.269,105.27626315030184L192.619,49.27595242587003L192.91899999999998,58.13056945800781L193.06900000000002,62.38398812033914L193.369,75.69344468550248L193.91899999999998,76.75308019464666L194.019,75.22356553511186L194.51899999999998,57.827851728959516L194.669,63.5147968639027L194.769,87.45628773082386L195.019,81.28236458518289L195.81900000000002,57.023773193359375L195.919,82.06983809037642L196.169,59.91946827281605L196.219,58.61668326637961L196.419,67.57000454989345L196.519,51.817694924094454L196.819,52.14140042391689L196.869,79.25439036976208L197.17,48.54545454545453L197.77,75.32838093150745L198.02,64.01696014404297L198.62,73.88195315274326L198.67000000000002,47.10760706121272L198.97,43.602896256880314L199.02,43.99073791503906L199.72,49.745769847523064L199.92,87.24480507590555L200.01999999999998,72.27879610928623L200.12,68.8334066217596L200.26999999999998,56.01574290882458L200.42000000000002,72.51935299960049L200.87,72.72879860617898L201.17,56.74778400767933L201.27,64.30875188654119L201.82,72.80744101784445L201.87,69.34396501020952L202.17000000000002,54.518882751464844L202.52,60.74669508500533L203.72,47.74211675470525L204.02,50.70447887073864L204.12,64.5899262861772L205.17,60.09113589200108L205.32,74.95640355890447L205.52,53.64826063676314L205.57000000000002,97.0909090909091L205.62,70.31193334406072L205.871,41.76097245649859L206.021,31.896473277698846L206.12099999999998,41.815355474298656L206.571,36.00723682750353L206.921,55.35394911332564L207.171,50.85713403875178L207.571,51.63392847234553L207.77100000000002,57.76457977294922L207.97099999999998,50.55768793279475L208.621,80.3710015036843L208.721,80.70131197842686L208.87099999999998,55.29678830233486L209.47099999999998,52.31819152832031L209.671,60.272741837935015L209.921,36.8185376253995L210.021,44.05808396772906L210.52100000000002,75.69344468550248L210.62099999999998,53.33282678777522L210.721,66.29956540194424L211.371,41.53825517134234L212.171,53.89462002840908L212.421,54.35486949573864L212.771,57.72970303622158L212.921,79.60272563587536L213.021,50.55219407515092L214.021,76.02949593283914L214.071,62.842447454279124L214.121,54.449623107910156L214.371,58.39526228471236L214.471,79.32772410999645L214.922,61.66083595969461L215.322,42.63498965176669L215.622,53.49109927090733L215.672,42.567581870339126L215.87199999999999,39.142501137473374L216.422,39.45700905539772L216.72199999999998,43.374376470392406L217.022,53.05875119295986L217.172,75.1825776533647L217.922,40.112691705877126L218.122,33.75129838423297L218.472,55.98389088023792L218.672,47.851067976518124L218.92200000000003,51.66429901123047L219.172,39.45700905539772L219.372,57.235317577015266L219.422,45.750994595614344L219.972,60.93533810702236L220.022,49.16866787997159L220.572,55.01370031183416L220.672,59.07995744185014L220.72199999999998,36.27186792547053L221.072,78.80395577170633L221.172,39.63534337824041L221.222,72.60527940229936L221.272,58.061618458140984L221.32199999999997,59.029771978204906L221.62199999999999,30.267204978249282L222.722,54.55456196178089L222.872,48.194650129838436L223.572,43.68690906871447L223.773,64.25825777920811L223.823,37.817678971724064L223.923,61.553489685058594L224.323,50.53737917813389L224.573,26.43792447176847L224.923,93.45693831010298L226.323,62.91004042191939L227.223,54.449623107910156L227.473,37.09335396506569L227.923,41.10319102894178L227.97299999999998,76.27610223943537L228.523,37.64749284224078L228.57299999999998,50.020771373401985L228.673,62.415593233975486L228.773,61.8729976307262L228.923,39.565342989834875L228.973,70.12119154496627L229.073,34.050621032714844L230.223,67.06512520530008L230.47299999999998,42.85270690917969L230.623,54.590920188210234L230.773,50.231513283469454L231.023,56.2479046908292L231.573,52.73911978981711L232.02300000000002,56.11845952814275L232.173,56.159200494939626L232.22299999999998,62.732261657714844L232.624,36.96174829656428L232.92399999999998,37.77212316339666L233.724,28.20886022394353L234.024,43.36987027254972L234.22400000000002,28.886580033735783L234.374,38.76107926802203L234.674,45.50599323619494L234.77400000000003,40.32047063654119L235.224,52.49899500066584L235.424,71.72021276300603L235.72400000000002,66.12302121249111L235.974,60.073666659268454L236.27399999999997,42.78208923339844L236.724,41.22510528564453L237.07399999999998,54.028201016512796L237.274,51.326334173029124L237.724,63.99171309037642L237.874,43.151535727761L238.47400000000002,63.36967260187322L238.824,25.936810580166906L238.974,42.712953047318905L239.074,69.76538710160689L239.124,70.8560721657493L239.324,41.6427001953125L239.374,43.87555209073153L239.424,48.770208878950626L240.024,44.03938016024503L240.324,58.96261111172764L240.374,62.79250890558416L240.474,28.542936151677907L240.774,42.34208679199219L240.924,56.74482102827592L241.22400000000002,32.497711181640625L241.375,51.15812336314808L241.725,40.617447592995376L242.225,10.008018493652344L242.525,36.40909090909091L242.72500000000002,36.40909090909091L242.875,32.7535767988725L243.27499999999998,56.01574290882458L243.375,42.998695373535156L244.025,59.318415555087014L244.22500000000002,58.000013178045094L244.275,61.69318181818181L245.225,51.82707769220525L245.275,50.368736267089844L245.425,47.88946325128728L245.775,51.3308403708718L245.875,66.41950433904475L246.27499999999998,75.0747992775657L246.375,46.17945376309481L246.425,80.7625468860973L247.075,34.6904393976385L247.17499999999998,26.295454545454533L247.225,50.24311828613281L247.675,47.02563129771838L247.825,46.605382052334875L248.375,51.95794261585583L248.525,58.73075797341086L248.625,45.65667308460584L248.725,46.63636987859553L249.325,44.363641218705624L250.126,31.345050464976936L250.376,43.890428716486156L250.87599999999998,26.657678777521312L251.176,68.00519214976917L251.526,29.757140419699937L251.82600000000002,36.69082086736506L251.92600000000002,42.37387709184125L252.12599999999998,21.56079864501953L252.476,40.30448289351031L252.526,32.58227955211291L252.576,32.497711181640625L253.07600000000002,29.37973091819069L254.126,32.80697215687147L254.376,57.89544469659978L254.626,71.52953269264914L254.92600000000002,57.760073575106546L255.426,38.944537076083094L255.676,45.03753384676847L255.976,50.368736267089844L256.176,21.882714011452407L256.226,21.231907931241125L256.626,69.01587677001953L256.776,57.4791460904208L256.826,54.610920299183235L256.926,49.03453133322975L257.076,58.46767009388317L257.126,54.19128834117542L257.176,66.56320884011008L257.426,66.7216665094549L257.526,59.07995744185014L257.676,68.15655101429333L257.726,86.65103634920986L257.776,60.18107466264205L257.82599999999996,35.13247888738459L257.926,51.50195243141867L258.076,36.69082086736506L258.126,60.18107466264205L258.426,61.79725646972656L258.726,43.379129583185374L258.826,47.70773384787819L258.976,67.16833565451883L259.527,40.21318609064275L259.927,55.5583329634233L259.977,23.116856661709875L260.027,35.60853091153231L260.327,33.376296303489L260.677,52.997578014026985L260.92699999999996,5.677068536931813L261.277,37.545455239035874L261.927,37.87872869318181L262.22700000000003,41.79171336780897L262.327,47.585881319913L262.47700000000003,54.66425392844461L262.827,61.451081709428266L263.127,37.60835682262072L263.277,77.46987429532139L263.377,45.85210626775569L263.427,47.300694552334875L263.877,40.99393116344103L264.377,54.507154291326344L264.427,52.1799808848988L264.827,49.24508805708453L265.42699999999996,26.744654568758875L265.577,62.1889253096147L265.727,54.09783103249289L266.377,35.174022327769904L266.777,52.49899500066584L267.177,86.17461395263672L267.227,51.00880154696377L267.377,35.711617903275936L267.477,42.78208923339844L267.527,43.612525939941406L268.178,43.82295920632103L268.478,34.500870444557876L268.578,38.74830141934481L269.328,51.79942321777344L269.678,35.59124686501244L269.978,27.93398215553978L270.128,49.00039534135297L270.178,40.37787836248225L270.478,44.48882709849963L271.128,55.3027142611417L271.228,32.40635265003553L271.27799999999996,17.090897300026626L271.32800000000003,30.329859646883875L271.628,54.05894192782314L271.878,43.602896256880314L272.528,47.14421220259234L273.328,30.13917957652697L273.678,59.21853845769709L273.928,22.15499947287819L273.978,48.248724503950626L274.27799999999996,38.58404124866834L274.728,43.22277069091797L274.878,40.605040116743595L274.928,66.93284052068537L275.028,55.38067765669389L275.32800000000003,78.11617417768998L275.378,46.21457741477272L275.478,53.93937336314808L275.728,43.151535727761L275.878,28.671146739612908L276.628,53.516037680886015L276.829,26.888729442249627L277.129,16.976143576882095L277.479,33.511605696244686L277.679,39.525342767888844L277.829,43.53135265003553L278.579,37.53280084783381L278.979,54.090300126509234L279.179,34.73278531161222L279.22900000000004,31.48894015225497L280.12899999999996,44.72537162087181L280.279,24.43785164572975L280.329,35.067787170410156L280.429,21.846540971235783L280.529,22.162530378861874L280.579,28.08342742919922L280.779,43.151535727761L280.829,47.31729958274147L281.379,59.4945893721147L281.67900000000003,50.69707142223011L281.879,26.51533230868253L283.029,40.85467113148084L283.679,40.75751009854403L284.079,34.786612770774155L284.329,33.17382604425603L284.379,56.2479046908292L284.479,27.48935005881569L284.529,28.802752408114344L284.579,45.25679432262072L285.029,42.858756325461655L285.079,20.383508162065L285.529,55.43475203080611" style="fill: none;" fill="none"></path></g></g></g></g></g></g><g transform="translate(30, 178)" clip-path="url(#clip_1)"><clipPath id="clip_1"><rect width="300" height="22"></rect></clipPath><g><g><line x1="0" y1="0" x2="0" y2="5" style="visibility: inherit;" fill="rgb(0, 0, 0)" stroke="rgb(204, 204, 204)" stroke-width="1px"></line><line x1="20" y1="0" x2="20" y2="5" style="visibility: inherit;" fill="rgb(0, 0, 0)" stroke="rgb(204, 204, 204)" stroke-width="1px"></line><line x1="40" y1="0" x2="40" y2="5" style="visibility: inherit;" fill="rgb(0, 0, 0)" stroke="rgb(204, 204, 204)" stroke-width="1px"></line><line x1="60" y1="0" x2="60" y2="5" style="visibility: inherit;" fill="rgb(0, 0, 0)" stroke="rgb(204, 204, 204)" stroke-width="1px"></line><line x1="80" y1="0" x2="80" y2="5" style="visibility: inherit;" fill="rgb(0, 0, 0)" stroke="rgb(204, 204, 204)" stroke-width="1px"></line><line x1="100" y1="0" x2="100" y2="5" style="visibility: inherit;" fill="rgb(0, 0, 0)" stroke="rgb(204, 204, 204)" stroke-width="1px"></line><line x1="120" y1="0" x2="120" y2="5" style="visibility: inherit;" fill="rgb(0, 0, 0)" stroke="rgb(204, 204, 204)" stroke-width="1px"></line><line x1="140" y1="0" x2="140" y2="5" style="visibility: inherit;" fill="rgb(0, 0, 0)" stroke="rgb(204, 204, 204)" stroke-width="1px"></line><line x1="160" y1="0" x2="160" y2="5" style="visibility: inherit;" fill="rgb(0, 0, 0)" stroke="rgb(204, 204, 204)" stroke-width="1px"></line><line x1="180" y1="0" x2="180" y2="5" style="visibility: inherit;" fill="rgb(0, 0, 0)" stroke="rgb(204, 204, 204)" stroke-width="1px"></line><line x1="200" y1="0" x2="200" y2="5" style="visibility: inherit;" fill="rgb(0, 0, 0)" stroke="rgb(204, 204, 204)" stroke-width="1px"></line><line x1="219.99999999999997" y1="0" x2="219.99999999999997" y2="5" style="visibility: inherit;" fill="rgb(0, 0, 0)" stroke="rgb(204, 204, 204)" stroke-width="1px"></line><line x1="240" y1="0" x2="240" y2="5" style="visibility: inherit;" fill="rgb(0, 0, 0)" stroke="rgb(204, 204, 204)" stroke-width="1px"></line><line x1="260" y1="0" x2="260" y2="5" style="visibility: inherit;" fill="rgb(0, 0, 0)" stroke="rgb(204, 204, 204)" stroke-width="1px"></line><line x1="280" y1="0" x2="280" y2="5" style="visibility: inherit;" fill="rgb(0, 0, 0)" stroke="rgb(204, 204, 204)" stroke-width="1px"></line><line x1="300" y1="0" x2="300" y2="5" style="visibility: inherit;" fill="rgb(0, 0, 0)" stroke="rgb(204, 204, 204)" stroke-width="1px"></line></g><g transform="translate(0, 8)"><text x="0" y="0" dx="0em" dy="0.95em" style="text-anchor: middle; visibility: hidden; font-family: &quot;Helvetica Neue&quot;, sans-serif; font-size: 12px; font-weight: 200;" fill="rgb(50, 49, 63)" stroke="none" stroke-width="1px">-20k</text><text x="20" y="0" dx="0em" dy="0.95em" style="text-anchor: middle; visibility: inherit; font-family: &quot;Helvetica Neue&quot;, sans-serif; font-size: 12px; font-weight: 200;" fill="rgb(50, 49, 63)" stroke="none" stroke-width="1px">0</text><text x="40" y="0" dx="0em" dy="0.95em" style="text-anchor: middle; visibility: hidden; font-family: &quot;Helvetica Neue&quot;, sans-serif; font-size: 12px; font-weight: 200;" fill="rgb(50, 49, 63)" stroke="none" stroke-width="1px">20k</text><text x="60" y="0" dx="0em" dy="0.95em" style="text-anchor: middle; visibility: inherit; font-family: &quot;Helvetica Neue&quot;, sans-serif; font-size: 12px; font-weight: 200;" fill="rgb(50, 49, 63)" stroke="none" stroke-width="1px">40k</text><text x="80" y="0" dx="0em" dy="0.95em" style="text-anchor: middle; visibility: hidden; font-family: &quot;Helvetica Neue&quot;, sans-serif; font-size: 12px; font-weight: 200;" fill="rgb(50, 49, 63)" stroke="none" stroke-width="1px">60k</text><text x="100" y="0" dx="0em" dy="0.95em" style="text-anchor: middle; visibility: inherit; font-family: &quot;Helvetica Neue&quot;, sans-serif; font-size: 12px; font-weight: 200;" fill="rgb(50, 49, 63)" stroke="none" stroke-width="1px">80k</text><text x="120" y="0" dx="0em" dy="0.95em" style="text-anchor: middle; visibility: hidden; font-family: &quot;Helvetica Neue&quot;, sans-serif; font-size: 12px; font-weight: 200;" fill="rgb(50, 49, 63)" stroke="none" stroke-width="1px">100k</text><text x="140" y="0" dx="0em" dy="0.95em" style="text-anchor: middle; visibility: inherit; font-family: &quot;Helvetica Neue&quot;, sans-serif; font-size: 12px; font-weight: 200;" fill="rgb(50, 49, 63)" stroke="none" stroke-width="1px">120k</text><text x="160" y="0" dx="0em" dy="0.95em" style="text-anchor: middle; visibility: hidden; font-family: &quot;Helvetica Neue&quot;, sans-serif; font-size: 12px; font-weight: 200;" fill="rgb(50, 49, 63)" stroke="none" stroke-width="1px">140k</text><text x="180" y="0" dx="0em" dy="0.95em" style="text-anchor: middle; visibility: inherit; font-family: &quot;Helvetica Neue&quot;, sans-serif; font-size: 12px; font-weight: 200;" fill="rgb(50, 49, 63)" stroke="none" stroke-width="1px">160k</text><text x="200" y="0" dx="0em" dy="0.95em" style="text-anchor: middle; visibility: hidden; font-family: &quot;Helvetica Neue&quot;, sans-serif; font-size: 12px; font-weight: 200;" fill="rgb(50, 49, 63)" stroke="none" stroke-width="1px">180k</text><text x="219.99999999999997" y="0" dx="0em" dy="0.95em" style="text-anchor: middle; visibility: inherit; font-family: &quot;Helvetica Neue&quot;, sans-serif; font-size: 12px; font-weight: 200;" fill="rgb(50, 49, 63)" stroke="none" stroke-width="1px">200k</text><text x="240" y="0" dx="0em" dy="0.95em" style="text-anchor: middle; visibility: hidden; font-family: &quot;Helvetica Neue&quot;, sans-serif; font-size: 12px; font-weight: 200;" fill="rgb(50, 49, 63)" stroke="none" stroke-width="1px">220k</text><text x="260" y="0" dx="0em" dy="0.95em" style="text-anchor: middle; visibility: inherit; font-family: &quot;Helvetica Neue&quot;, sans-serif; font-size: 12px; font-weight: 200;" fill="rgb(50, 49, 63)" stroke="none" stroke-width="1px">240k</text><text x="280" y="0" dx="0em" dy="0.95em" style="text-anchor: middle; visibility: hidden; font-family: &quot;Helvetica Neue&quot;, sans-serif; font-size: 12px; font-weight: 200;" fill="rgb(50, 49, 63)" stroke="none" stroke-width="1px">260k</text><text x="300" y="0" dx="0em" dy="0.95em" style="text-anchor: middle; visibility: hidden; font-family: &quot;Helvetica Neue&quot;, sans-serif; font-size: 12px; font-weight: 200;" fill="rgb(50, 49, 63)" stroke="none" stroke-width="1px">280k</text></g><line x1="0" y1="0" x2="300" y2="0" fill="rgb(0, 0, 0)" stroke="rgb(204, 204, 204)" stroke-width="1px"></line></g></g></g></g></svg>