<svg viewBox="0 0 330 200" xmlns="http://www.w3.org/2000/svg"><g><g><g><g><g><line x1="40" y1="178" x2="35" y2="178" style="visibility: inherit;" fill="rgb(0, 0, 0)" stroke="rgb(204, 204, 204)" stroke-width="1px"></line><line x1="40" y1="158.2222222222222" x2="35" y2="158.2222222222222" style="visibility: inherit;" fill="rgb(0, 0, 0)" stroke="rgb(204, 204, 204)" stroke-width="1px"></line><line x1="40" y1="138.44444444444446" x2="35" y2="138.44444444444446" style="visibility: inherit;" fill="rgb(0, 0, 0)" stroke="rgb(204, 204, 204)" stroke-width="1px"></line><line x1="40" y1="118.66666666666666" x2="35" y2="118.66666666666666" style="visibility: inherit;" fill="rgb(0, 0, 0)" stroke="rgb(204, 204, 204)" stroke-width="1px"></line><line x1="40" y1="98.8888888888889" x2="35" y2="98.8888888888889" style="visibility: inherit;" fill="rgb(0, 0, 0)" stroke="rgb(204, 204, 204)" stroke-width="1px"></line><line x1="40" y1="79.1111111111111" x2="35" y2="79.1111111111111" style="visibility: inherit;" fill="rgb(0, 0, 0)" stroke="rgb(204, 204, 204)" stroke-width="1px"></line><line x1="40" y1="59.3333333333333" x2="35" y2="59.3333333333333" style="visibility: inherit;" fill="rgb(0, 0, 0)" stroke="rgb(204, 204, 204)" stroke-width="1px"></line><line x1="40" y1="39.55555555555554" x2="35" y2="39.55555555555554" style="visibility: inherit;" fill="rgb(0, 0, 0)" stroke="rgb(204, 204, 204)" stroke-width="1px"></line><line x1="40" y1="19.777777777777743" x2="35" y2="19.777777777777743" style="visibility: inherit;" fill="rgb(0, 0, 0)" stroke="rgb(204, 204, 204)" stroke-width="1px"></line><line x1="40" y1="0" x2="35" y2="0" style="visibility: inherit;" fill="rgb(0, 0, 0)" stroke="rgb(204, 204, 204)" stroke-width="1px"></line></g><g transform="translate(30, 0)"><text x="0" y="178" dx="0em" dy="0.3em" style="text-anchor: end; visibility: hidden; font-family: &quot;Helvetica Neue&quot;, sans-serif; font-size: 12px; font-weight: 200;" fill="rgb(50, 49, 63)" stroke="none" stroke-width="1px">2</text><text x="0" y="158.2222222222222" dx="0em" dy="0.3em" style="text-anchor: end; visibility: inherit; font-family: &quot;Helvetica Neue&quot;, sans-serif; font-size: 12px; font-weight: 200;" fill="rgb(50, 49, 63)" stroke="none" stroke-width="1px">2.2</text><text x="0" y="138.44444444444446" dx="0em" dy="0.3em" style="text-anchor: end; visibility: hidden; font-family: &quot;Helvetica Neue&quot;, sans-serif; font-size: 12px; font-weight: 200;" fill="rgb(50, 49, 63)" stroke="none" stroke-width="1px">2.4</text><text x="0" y="118.66666666666666" dx="0em" dy="0.3em" style="text-anchor: end; visibility: inherit; font-family: &quot;Helvetica Neue&quot;, sans-serif; font-size: 12px; font-weight: 200;" fill="rgb(50, 49, 63)" stroke="none" stroke-width="1px">2.6</text><text x="0" y="98.8888888888889" dx="0em" dy="0.3em" style="text-anchor: end; visibility: hidden; font-family: &quot;Helvetica Neue&quot;, sans-serif; font-size: 12px; font-weight: 200;" fill="rgb(50, 49, 63)" stroke="none" stroke-width="1px">2.8</text><text x="0" y="79.1111111111111" dx="0em" dy="0.3em" style="text-anchor: end; visibility: inherit; font-family: &quot;Helvetica Neue&quot;, sans-serif; font-size: 12px; font-weight: 200;" fill="rgb(50, 49, 63)" stroke="none" stroke-width="1px">3</text><text x="0" y="59.3333333333333" dx="0em" dy="0.3em" style="text-anchor: end; visibility: hidden; font-family: &quot;Helvetica Neue&quot;, sans-serif; font-size: 12px; font-weight: 200;" fill="rgb(50, 49, 63)" stroke="none" stroke-width="1px">3.2</text><text x="0" y="39.55555555555554" dx="0em" dy="0.3em" style="text-anchor: end; visibility: inherit; font-family: &quot;Helvetica Neue&quot;, sans-serif; font-size: 12px; font-weight: 200;" fill="rgb(50, 49, 63)" stroke="none" stroke-width="1px">3.4</text><text x="0" y="19.777777777777743" dx="0em" dy="0.3em" style="text-anchor: end; visibility: hidden; font-family: &quot;Helvetica Neue&quot;, sans-serif; font-size: 12px; font-weight: 200;" fill="rgb(50, 49, 63)" stroke="none" stroke-width="1px">3.6</text><text x="0" y="0" dx="0em" dy="0.3em" style="text-anchor: end; visibility: hidden; font-family: &quot;Helvetica Neue&quot;, sans-serif; font-size: 12px; font-weight: 200;" fill="rgb(50, 49, 63)" stroke="none" stroke-width="1px">3.8</text></g><line x1="40" y1="0" x2="40" y2="178" fill="rgb(0, 0, 0)" stroke="rgb(204, 204, 204)" stroke-width="1px"></line></g></g><g transform="translate(40, 0)" clip-path="url(#clip_0)"><clipPath id="clip_0"><rect width="290" height="178"></rect></clipPath><g><g><g><line x1="0" y1="0" x2="0" y2="178" fill="rgb(0, 0, 0)" stroke="rgb(60, 60, 60)" stroke-width="1px" opacity="0.25"></line><line x1="19.333333333333332" y1="0" x2="19.333333333333332" y2="178" fill="rgb(0, 0, 0)" stroke="rgb(60, 60, 60)" stroke-width="1px" opacity="0.25"></line><line x1="38.666666666666664" y1="0" x2="38.666666666666664" y2="178" fill="rgb(0, 0, 0)" stroke="rgb(60, 60, 60)" stroke-width="1px" opacity="0.25"></line><line x1="58" y1="0" x2="58" y2="178" fill="rgb(0, 0, 0)" stroke="rgb(60, 60, 60)" stroke-width="1px" opacity="0.25"></line><line x1="77.33333333333333" y1="0" x2="77.33333333333333" y2="178" fill="rgb(0, 0, 0)" stroke="rgb(60, 60, 60)" stroke-width="1px" opacity="0.25"></line><line x1="96.66666666666666" y1="0" x2="96.66666666666666" y2="178" fill="rgb(0, 0, 0)" stroke="rgb(60, 60, 60)" stroke-width="1px" opacity="0.25"></line><line x1="116" y1="0" x2="116" y2="178" fill="rgb(0, 0, 0)" stroke="rgb(60, 60, 60)" stroke-width="1px" opacity="0.25"></line><line x1="135.33333333333334" y1="0" x2="135.33333333333334" y2="178" fill="rgb(0, 0, 0)" stroke="rgb(60, 60, 60)" stroke-width="1px" opacity="0.25"></line><line x1="154.66666666666666" y1="0" x2="154.66666666666666" y2="178" fill="rgb(0, 0, 0)" stroke="rgb(60, 60, 60)" stroke-width="1px" opacity="0.25"></line><line x1="174" y1="0" x2="174" y2="178" fill="rgb(0, 0, 0)" stroke="rgb(60, 60, 60)" stroke-width="1px" opacity="0.25"></line><line x1="193.33333333333331" y1="0" x2="193.33333333333331" y2="178" fill="rgb(0, 0, 0)" stroke="rgb(60, 60, 60)" stroke-width="1px" opacity="0.25"></line><line x1="212.66666666666666" y1="0" x2="212.66666666666666" y2="178" fill="rgb(0, 0, 0)" stroke="rgb(60, 60, 60)" stroke-width="1px" opacity="0.25"></line><line x1="232" y1="0" x2="232" y2="178" fill="rgb(0, 0, 0)" stroke="rgb(60, 60, 60)" stroke-width="1px" opacity="0.25"></line><line x1="251.33333333333334" y1="0" x2="251.33333333333334" y2="178" fill="rgb(0, 0, 0)" stroke="rgb(60, 60, 60)" stroke-width="1px" opacity="0.25"></line><line x1="270.6666666666667" y1="0" x2="270.6666666666667" y2="178" fill="rgb(0, 0, 0)" stroke="rgb(60, 60, 60)" stroke-width="1px" opacity="0.25"></line><line x1="290" y1="0" x2="290" y2="178" fill="rgb(0, 0, 0)" stroke="rgb(60, 60, 60)" stroke-width="1px" opacity="0.25"></line></g><g><line x1="0" y1="178" x2="290" y2="178" fill="rgb(0, 0, 0)" stroke="rgb(60, 60, 60)" stroke-width="1px" opacity="0.25"></line><line x1="0" y1="158.2222222222222" x2="290" y2="158.2222222222222" fill="rgb(0, 0, 0)" stroke="rgb(60, 60, 60)" stroke-width="1px" opacity="0.25"></line><line x1="0" y1="138.44444444444446" x2="290" y2="138.44444444444446" fill="rgb(0, 0, 0)" stroke="rgb(60, 60, 60)" stroke-width="1px" opacity="0.25"></line><line x1="0" y1="118.66666666666666" x2="290" y2="118.66666666666666" fill="rgb(0, 0, 0)" stroke="rgb(60, 60, 60)" stroke-width="1px" opacity="0.25"></line><line x1="0" y1="98.8888888888889" x2="290" y2="98.8888888888889" fill="rgb(0, 0, 0)" stroke="rgb(60, 60, 60)" stroke-width="1px" opacity="0.25"></line><line x1="0" y1="79.1111111111111" x2="290" y2="79.1111111111111" fill="rgb(0, 0, 0)" stroke="rgb(60, 60, 60)" stroke-width="1px" opacity="0.25"></line><line x1="0" y1="59.3333333333333" x2="290" y2="59.3333333333333" fill="rgb(0, 0, 0)" stroke="rgb(60, 60, 60)" stroke-width="1px" opacity="0.25"></line><line x1="0" y1="39.55555555555554" x2="290" y2="39.55555555555554" fill="rgb(0, 0, 0)" stroke="rgb(60, 60, 60)" stroke-width="1px" opacity="0.25"></line><line x1="0" y1="19.777777777777743" x2="290" y2="19.777777777777743" fill="rgb(0, 0, 0)" stroke="rgb(60, 60, 60)" stroke-width="1px" opacity="0.25"></line><line x1="0" y1="0" x2="290" y2="0" fill="rgb(0, 0, 0)" stroke="rgb(60, 60, 60)" stroke-width="1px" opacity="0.25"></line></g></g></g><g><g><line x1="0" y1="375.7777777777778" x2="290" y2="375.7777777777778" fill="rgb(0, 0, 0)" stroke="rgb(153, 153, 153)" stroke-width="1.5px"></line></g></g><g><g><line x1="19.333333333333332" y1="0" x2="19.333333333333332" y2="178" fill="rgb(0, 0, 0)" stroke="rgb(153, 153, 153)" stroke-width="1.5px"></line></g></g><g><g><g><g><g><path stroke="rgb(255, 112, 67)" stroke-width="2px" d="M24.408333333333335,-3.4763060438361606L24.456666666666667,0.4287115728582762L24.795,-25.09656552612944L26.583333333333332,-3.6744962427068515L26.825,7.5965440017688195L26.97,-0.30611621519125265L27.405,7.886895406065975L27.453333333333333,5.082492387635426L27.889300000000002,3.4789075217999823L28.130966666666666,0.3156901222504871L28.227633333333333,31.56757872700217L28.275966666666665,13.47918097860125L28.469299999999997,6.414653165531973L28.855966666666667,2.4278166098904705L29.242633333333334,10.747728508815527L29.290966666666666,3.4515140433758233L29.532633333333337,16.648294272081216L30.0643,19.866932000004795L30.3543,23.22366913052244L30.59596666666667,7.878694960483756L30.74096666666667,3.211316252452832L31.320966666666667,20.738261843466915L31.610966666666666,-6.11292836326038L31.852633333333333,13.244005306787244L32.19096666666667,15.630081986653892L32.3843,19.60295902813189L32.48096666666667,-3.7785399449790873L33.3993,22.137384482104494L33.640966666666664,37.98996147483288L33.689299999999996,29.87149947243512L33.93096666666667,44.47667892383811L34.17263333333334,37.754152585554635L34.2693,39.11165916275303L34.655966666666664,28.161348117113704L34.704299999999996,28.372317797425268L35.042633333333335,39.313503420960444L35.23596666666667,33.667400788251L35.670966666666665,25.38570615579195L36.057633333333335,34.34463038853991L36.7836,30.97591774374564L36.97693333333333,45.49411953766909L37.46026666666667,35.54581329541662L37.55693333333333,38.46003342199836L39.586933333333334,44.185511219752044L39.635266666666666,48.925144063574436L40.02193333333334,43.042687832126404L40.45693333333333,45.770764814790255L40.553599999999996,36.57442876639584L40.601933333333335,50.14717399692657L40.74693333333333,53.870534984451254L41.03693333333334,37.81611462677964L41.47193333333333,48.00663640439811L41.616933333333336,52.663413438884035L41.66526666666666,52.74220042305488L42.1486,45.26917090809866L42.97026666666667,43.38249121943076L43.06693333333334,47.808064434776924L43.7436,39.10812074623675L43.98526666666667,40.03798538451045L44.08193333333334,39.02522035904792L44.226933333333335,37.498471042915384L44.6136,30.917743808449586L44.903600000000004,52.59356255590228L45.00026666666667,55.95636556060245L45.0979,58.93514066060388L45.3879,64.58398197428386L45.62956666666667,56.55051433279253L46.1129,48.209959095420885L46.4029,55.497257421789L46.692899999999995,45.30802460092298L46.88623333333333,45.01281328737801L47.176233333333336,46.423658933129815L47.2729,58.065166530774135L47.417899999999996,55.255502866370676L47.51456666666667,68.14233315454489L47.5629,58.47821757535114L47.804566666666666,42.24326675999819L47.8529,58.00327150054045L48.2879,42.805993040484L48.5779,48.95213982134183L48.67456666666667,57.40937917564385L48.91623333333333,58.921215431626194L49.1579,46.89639288685788L49.25456666666667,49.254845352477076L49.83456666666666,55.4778403647594L50.1729,32.110793127850314L50.22123333333334,56.42511159473396L50.3179,66.75689376746406L50.414566666666666,62.04607386860353L50.4629,49.79010291339887L50.55956666666666,56.14247864318469L51.13956666666667,41.38760680638856L51.28456666666666,60.52681442106696L51.4779,71.21232562993781L51.6229,55.95631126947315L51.7679,59.000413658712986L51.96123333333334,45.995886466981716L52.009566666666665,57.286962143538304L52.2029,45.28804613906877L52.44456666666667,62.03502787213482L52.97623333333333,53.57841980641044L53.314566666666664,61.86744395814493L53.653866666666666,62.779930148952346L53.8472,68.71580511695475L53.992200000000004,56.197884016996284L54.04053333333333,63.33393557481935L54.08886666666667,56.149506827366594L54.427200000000006,66.59421810910273L54.7172,66.5123487355466L54.81386666666667,55.31001799762049L54.862199999999994,54.5742913316151L55.05553333333333,55.329116724842606L55.24886666666667,52.78433454587149L55.4422,70.36408637662294L55.49053333333333,60.95657072474428L55.68386666666667,54.714253328273315L56.11886666666667,57.53519097693322L56.3122,74.44242194147509L56.360533333333336,62.3504902924645L56.40886666666667,75.05807216581351L56.50553333333333,56.1556662945449L56.55386666666667,56.76765193295644L56.84386666666667,59.69390923306993L57.0372,67.7252871919774L57.08553333333334,69.99862622208704L57.1822,67.6562948779549L57.27886666666667,62.838967663071486L57.42386666666667,73.73095236480891L57.4722,51.609152140996855L57.52053333333333,52.36079778687947L57.71386666666666,77.10905271959011L57.907199999999996,57.4047583446653L58.14886666666666,67.1148887996931L58.1972,54.37373249506135L58.245533333333334,59.47106386786588L59.3572,58.2750792629497L59.550533333333334,58.37438163076108L59.6472,74.21843875786608L59.888866666666665,78.37476065161113L61.04886666666667,62.31240479867347L61.14553333333333,71.92239907267563L61.3872,63.10729360909791L61.483866666666664,75.49250071412449L61.6772,68.6585950170938L61.77386666666666,63.606271447853445L62.113166666666665,59.04965494073252L62.40316666666667,77.56971041824136L62.5965,68.16230084240152L62.93483333333333,72.90183481893851L63.031499999999994,76.99278239538184L63.32149999999999,61.763486373811716L63.41816666666667,66.50253020576334L63.56316666666667,61.28914545432241L63.70816666666667,58.36281858619704L64.09483333333333,72.8232485163973L64.14316666666667,52.907101113858815L64.28816666666667,63.48226556093718L64.6265,68.55639008952546L64.7715,75.03899576348078L65.2065,77.48074181435445L65.39983333333333,76.92041894992906L65.54483333333333,70.94997615244868L65.59316666666666,52.89129827540512L66.02816666666666,44.25294937527593L66.0765,56.287647473986866L66.26983333333334,67.48960322716445L66.3665,73.20020813650802L66.41483333333333,73.46067000036847L66.60816666666666,53.64985368167319L66.6565,44.62160752933383L66.8015,54.52060032834298L66.84983333333334,60.92551141598068L67.2365,61.202061134763596L67.42983333333333,62.84211609442015L67.5265,78.20655649606083L67.62316666666666,64.70887242401085L67.6715,62.93284241881638L68.1065,62.1415499014126L68.25150000000001,58.266413480911694L68.63816666666666,67.51318957136296L68.73483333333333,49.422047469197395L68.9765,53.984741193672335L69.21816666666666,66.56473956119959L69.5565,59.66844645556726L70.18483333333333,69.4189656690599L70.47483333333334,73.17390270048573L70.61983333333333,56.78686306580167L70.66913333333333,64.01518541552572L70.86246666666666,78.31872566203326L71.05579999999999,81.90527079533882L71.15246666666667,64.84578198534984L71.39413333333333,60.790338570900985L71.44246666666668,65.14329749263835L71.87746666666666,73.07286239639176L72.16746666666667,90.50571478763467L72.3608,61.13630916815107L72.40913333333333,75.50204504969055L72.89246666666666,77.3690619312992L73.13413333333334,72.18876005871243L73.8108,63.278385752760144L73.90746666666666,68.65934056934069L74.87413333333333,62.736724984005846L74.92246666666666,70.20195553773645L75.1158,86.08678731609251L75.16413333333334,87.21943934347892L75.21246666666667,88.0039810751147L76.08246666666666,77.78508655670092L76.32413333333334,85.50259724590025L76.66246666666666,67.97160757448792L76.71079999999999,68.97778803898183L77.0008,75.88866397445058L77.09746666666666,79.16672532106173L77.33913333333334,75.72960029280935L77.4358,60.973040905307016L78.5958,65.01430466110152L78.69246666666666,62.537245020936524L78.78913333333334,58.106107694276034L79.1758,68.90010879838833L79.27343333333334,77.18685758962874L79.6601,71.350132214921L79.8051,70.92120612896402L79.95009999999999,71.57646183673945L80.57843333333332,82.90740331296779L80.91676666666667,86.67260942543942L81.20676666666667,74.62542033432872L81.49676666666667,68.31090140149017L81.5451,68.46309085628893L81.8351,63.8492118078714L82.31843333333333,82.97671025867004L82.5601,74.79340599671758L82.60843333333332,89.60771128477714L82.75343333333333,89.74626031600057L83.04343333333333,77.9102252561992L83.1401,66.87138064885245L83.2851,67.92825051998332L83.4301,85.81501137802903L83.5751,74.93214396381019L83.62343333333332,85.9519390456189L84.49343333333333,92.4607494226124L85.21843333333334,101.01886600110012L85.94343333333333,81.2448224149405L86.08843333333333,83.28453671700532L86.13676666666666,74.81658624076213L86.23343333333334,74.73375845822036L86.28176666666666,75.74677210643925L87.29676666666666,79.3765678546016L87.3451,73.16890080660804L87.58676666666666,79.29554355376695L87.73176666666666,87.53989072577941L87.87773333333334,89.7973738496274L87.9744,82.05190487127484L88.16773333333333,83.66908979905605L88.36106666666666,95.56650210103611L88.5544,78.68658026262491L89.76273333333333,82.09459816410785L89.81106666666666,70.37767101756462L90.34273333333334,70.74689276115284L90.72940000000001,68.85234080151244L90.77773333333333,74.29017687822709L90.92273333333334,69.27127925318746L91.01939999999999,81.40834748674118L91.06773333333334,80.23194058317549L91.50273333333334,81.5514540606762L91.84106666666666,89.79476334057327L92.56606666666667,87.35503446414027L92.61439999999999,74.52857274154344L92.7594,77.83205550679091L93.67773333333334,77.0340484857283L93.9194,75.00960496769183L93.96773333333334,67.19051250396586L94.06439999999999,75.65884253886202L94.40273333333334,82.89338701352865L94.74106666666667,70.31561704094823L94.7894,72.3841257335546L95.2244,75.26768815443329L95.41773333333335,69.44846096149044L95.5144,76.46431356357157L95.70773333333334,76.76521352767273L96.14273333333334,71.24332810592449L96.4337,72.8727642941363L96.48203333333332,80.23035475621946L96.7237,94.09046554204261L97.11036666666666,86.98018865476979L97.54536666666667,84.78694900480191L97.5937,95.94665134928808L97.78703333333333,87.58682005035865L98.0287,83.94333881134854L98.1737,98.67274677288388L98.27036666666667,88.81635406540063L98.41536666666667,89.93768954884209L98.56036666666667,95.33437290108894L98.7537,95.28363248800247L99.14036666666667,83.10268613956211L99.52703333333334,84.72597481388402L99.72036666666668,83.31429090175597L99.86536666666667,92.40790386420561L99.9137,81.89681921495291L100.2037,90.83222751976375L100.6387,88.58643014379737L100.83203333333333,83.57986553521144L100.88036666666667,93.77033907310853L100.9287,86.77689210283432L101.02536666666667,96.96803113797274L101.17036666666668,98.19648067050863L101.5087,86.18239752684802L101.9437,75.98109958506723L101.99203333333332,98.58383892292248L102.42703333333333,101.24570890030272L102.62036666666665,85.34318485586152L102.71703333333333,78.57189528033297L102.86203333333333,83.72977304954212L103.1037,89.2461671049363L103.15203333333334,91.72812694753114L103.2487,79.64686912894386L103.29703333333333,84.37230813218528L103.34536666666666,88.36139035801767L103.58703333333334,75.06059288356902L104.2637,85.97114769696127L104.6987,76.34905311819925L104.94133333333333,94.15024915278396L105.27966666666666,93.26939396012625L105.328,91.03061512958314L105.763,98.54196026943185L106.10133333333333,108.77521304395417L106.68133333333334,92.0841884549987L107.01966666666667,77.36625513841307L107.11633333333333,98.38356041268719L107.30966666666666,86.85324086686173L107.79299999999999,89.98694350105583L107.84133333333334,87.2576512151422L107.98633333333333,86.96933072170005L108.228,92.14349069206035L108.42133333333334,102.42590307860677L109.04966666666667,73.2975931184232L109.19466666666666,76.94967299617221L109.48466666666667,102.67625752993823L109.533,92.17020430272676L109.58133333333333,92.28833188975938L110.35466666666667,82.19777498022904L111.22466666666666,88.46593061698337L111.51466666666667,82.98306291782716L111.853,93.53087764228542L112.143,85.29882544915095L112.33633333333334,87.85620420501033L112.43299999999999,89.82179639469541L112.52966666666667,90.86509925377986L112.81966666666666,88.53047425491069L112.96466666666667,101.25606252831953L113.06133333333332,92.93952066194505L113.20633333333332,94.77868730307402L113.35133333333333,82.15193696099091L113.44896666666668,98.61930202560231L113.88396666666667,110.52310235237064L113.98063333333333,91.99919958591953L114.56063333333333,108.51566610903357L114.60896666666667,110.38657853720497L114.6573,107.36393920430251L115.33396666666667,97.84978826000902L115.5273,82.94143438352198L115.72063333333332,83.30797663268694L115.91396666666667,100.97573991829664L115.9623,98.19950702916604L116.1073,100.05171678999372L116.20396666666667,96.68068140442298L116.30063333333332,88.43450597102647L116.68730000000001,65.45377729620434L116.78396666666667,68.67659228131944L116.92896666666667,100.52962581375309L117.07396666666668,89.98427529087718L117.21896666666667,98.52790051650989L117.31563333333332,85.89264586686026L117.46063333333333,89.00081659822675L118.37896666666666,93.5864475956298L118.95896666666665,101.28316626653618L119.0073,90.37113457234365L119.05563333333333,80.87555188331501L119.1523,95.56545068606455L119.20063333333333,95.93654895360687L119.2973,101.60466338158277L119.39396666666666,81.54841706244339L119.5873,92.67960234939845L119.78063333333333,89.98775291712357L120.0223,85.82590328403366L120.11896666666667,86.68941386829891L120.4573,86.51190683663546L120.6023,94.42038271718091L120.84396666666666,91.991687421347L121.0373,92.14039122790453L121.27896666666666,90.1988448731016L121.37563333333334,94.58655257717506L121.42396666666666,106.61813053331828L121.95563333333334,98.93235949131468L122.1016,98.31533653705438L122.2466,104.02384195609953L122.39160000000001,98.89230725267089L122.43993333333333,97.38590408096283L122.58493333333334,89.29655606434282L122.63326666666666,88.61800595852065L122.72993333333334,103.84764963076874L122.9716,106.33467932912289L123.01993333333334,95.67115552933788L123.35826666666667,96.23818110009233L123.4066,82.04697301759384L123.59993333333334,85.20492865806374L123.69659999999999,98.41897720611425L123.79326666666667,91.79157307368088L123.9866,97.419637449448L124.46993333333334,88.10172897414307L124.5666,97.45564280765701L124.66326666666667,96.24781320404911L124.71159999999999,85.10959648993517L124.90493333333333,89.30902744106524L125.04993333333334,75.49927765493547L125.4366,87.05094961897686L125.62993333333334,93.24326910746942L126.30659999999999,99.08014555492521L126.49993333333335,84.37045271710116L126.5966,86.2810333131552L126.83826666666667,76.38620273546776L126.8866,92.43444622704972L126.98326666666667,90.57835457005314L127.07993333333334,103.99891344159971L127.12826666666666,89.83277294206991L127.22493333333334,92.55554921312974L127.32159999999999,86.85140841204411L127.36993333333334,95.98822190529319L127.70826666666667,103.01416412840156L127.85326666666667,97.44700644766252L128.09493333333333,99.92746537830918L129.01326666666668,82.56153365014603L129.4966,94.47627880452328L129.7866,101.32881531864548L129.9316,97.87306142374915L130.07659999999998,86.48697677609834L130.2216,89.30035325494661L130.2699333333333,70.31636008999921L130.31826666666666,74.26285144105209L130.75423333333333,99.50354048137264L130.80256666666668,123.80761193723137L130.8509,108.77760505524476L130.94756666666666,96.27881843203467L131.52756666666667,95.27643212781595L131.5759,102.37099861103835L131.67256666666668,105.97438488502861L132.05923333333334,111.39520729743643L132.49423333333334,107.16753350842956L133.3159,89.24612306632622L133.99256666666665,91.53518356737239L134.1859,99.39453046477858L134.23423333333332,94.9901898889453L134.3309,84.64442642032569L134.71756666666667,91.29855737801896L134.81423333333333,97.57687267973974L135.00756666666666,92.01618394713749L135.4909,87.69664810139285L135.87756666666667,94.13124669338106L135.9259,98.64203839391588L136.45756666666665,99.3971593737639L136.84423333333334,101.590312589673L137.13423333333333,80.44807372176682L137.18256666666667,78.45674479244697L137.27923333333334,95.34710432627033L137.3759,101.75650444224284L137.61756666666668,93.45773891189141L138.5359,99.30077808704841L138.82590000000002,103.93293742552792L138.87423333333334,103.18894920280862L139.31019999999998,109.44776079581234L139.40686666666667,99.84701646756284L139.55186666666665,104.45479425076657L139.6002,101.29821844185598L139.64853333333335,108.02113586451178L140.18019999999999,105.7547798064252L140.3252,116.54174109817251L140.6152,106.74920073902817L140.85686666666666,95.27039201186963L140.95353333333333,99.80503075922257L141.0502,96.11763310115956L141.14686666666665,96.88242384232841L141.58186666666666,93.26193872555756L141.77519999999998,96.45970113382803L141.96853333333334,88.1801008495207L142.0652,84.28738492930148L142.2102,100.72439027224578L142.6452,96.30852857548376L142.69353333333333,96.69394995168363L143.17686666666665,103.95406602374702L143.27353333333335,103.14772364661692L143.85353333333333,105.30490510413726L143.90186666666668,113.447850446816L143.9502,110.70508799249073L144.14353333333335,101.06879985983083L144.33686666666668,105.0841698043526L144.62686666666667,99.50268903618664L144.6752,100.4003059735598L144.8202,107.16666714229954L145.20686666666666,104.35817073150113L145.44853333333333,95.63850912825026L145.5935333333333,90.53612201358932L145.73853333333335,97.45193487025453L145.78686666666667,98.58914373270484L146.17353333333332,88.01445278510991L146.46353333333332,90.64637190264791L146.75353333333334,90.765725726373L146.9952,83.83952543703658L147.8661666666667,97.65016614665971L148.05949999999999,94.94938755745143L148.15616666666668,109.20239556843377L148.39783333333335,119.35517535909321L148.6395,111.9305784717993L149.26783333333336,100.38508486000093L149.46116666666666,111.26755247156707L149.60616666666667,96.51683999921478L150.33116666666666,105.90885913121382L150.86283333333333,105.1445652808511L150.91116666666667,97.91511375603368L151.05616666666668,103.32998528681719L151.34616666666668,104.56558270567747L151.6845,105.59205946585435L151.73283333333333,103.90942196162149L151.78116666666665,95.3666053576617L151.8295,99.30397219813577L151.87783333333334,95.92559376498409L151.9261666666667,106.45191192635669L152.31283333333334,99.95159770650301L153.4245,99.4086888890875L153.47283333333334,105.90385451566087L153.52116666666666,114.94490669166322L153.8595,105.04904603360677L154.39116666666666,107.74568471199515L154.48783333333333,95.56567334598176L155.0678333333333,109.15825718614553L155.1161666666667,110.90167632161175L155.26116666666667,100.79517399010638L155.35783333333333,110.14590730953157L155.40616666666668,105.16453831864445L155.50283333333334,95.09341615215192L156.37380000000002,111.47522664334285L156.6154666666667,111.34151840024302L156.76046666666667,99.82220943183302L156.90546666666668,110.33099611159678L157.34046666666666,108.091209148039L157.3888,104.86733010119949L157.6788,92.45016522684392L157.7754666666667,105.56212564816352L157.8238,99.66919770260401L158.1138,102.90954883952202L158.2588,112.93130037272418L158.5488,102.81203883944617L158.64546666666666,106.68590005587473L158.74213333333333,113.00675366824152L158.8871333333333,115.34523078420017L159.56380000000001,108.93281640793359L159.66046666666668,104.83345373725535L159.7088,102.77737899167697L159.75713333333331,105.60273444648922L160.2888,113.48324811854863L160.77213333333333,101.57118038852686L161.15879999999999,99.19872778544065L161.98046666666667,106.27891173925768L162.3188,98.26876931942202L162.36713333333333,86.13910840948763L162.51213333333334,93.82225684026982L162.99546666666666,100.47481422732305L163.28546666666665,106.64521730409409L163.4788,109.99152227779133L163.72046666666668,92.351889970852L163.81713333333332,84.78327575480203L163.91379999999998,93.60541700535263L164.01046666666667,94.3457145693962L164.10713333333334,88.72589813877336L164.30046666666667,91.77184203362556L164.3488,101.13141151927077L164.4938,103.47248707942153L164.78379999999999,89.81766947129958L164.83309999999997,99.9340546793992L164.9781,108.02814719016453L165.36476666666667,118.33426330500704L165.46143333333336,117.45102700065401L165.50976666666668,109.36058401936872L165.5581,109.36067438353142L165.94476666666665,114.28944840499473L166.66976666666667,113.85133836607748L166.76643333333334,115.42082657200282L166.86309999999997,120.53338474566398L166.95976666666667,118.57854895022578L167.05643333333333,113.77258834509178L167.49143333333336,121.16729895386865L167.68476666666666,112.88367641270956L168.3131,115.39029880321928L168.50643333333332,100.73787605882093L169.42476666666667,101.49358278283931L170.14976666666666,91.5876155495396L170.1981,98.83313644395191L170.4881,104.89414581464175L170.53643333333332,104.42844589791629L170.63309999999998,112.57733944064293L170.7781,105.98602651061391L171.01976666666667,101.33238257120583L171.2131,93.7128308608647L171.3097666666667,101.19269768910488L172.0831,108.26355930588376L172.4214333333333,117.41391243398041L172.61476666666667,105.90803094861859L172.9531,117.07628032281053L173.00143333333332,101.85817538182816L173.3397666666667,99.86482157122029L173.4374,119.7904263907997L174.59740000000002,116.42248135000123L174.7424,100.48806634171368L175.0807333333333,99.68051894095609L175.22573333333335,103.16885412411017L175.27406666666667,109.98261340263326L175.37073333333333,101.65612573035082L175.41906666666665,102.01029466240529L175.75740000000002,107.83082666259352L176.38573333333335,121.57237410821921L176.62740000000002,116.95959075639831L177.0624,108.09202916991438L177.15906666666666,111.7967563589896L177.25573333333335,109.35248306156652L177.59406666666666,106.9978944940213L178.2224,102.37449087416329L178.31906666666666,114.10807456819111L178.60906666666665,101.99844596923425L178.99573333333333,109.24117457577564L179.28573333333335,121.92619526167076L179.33406666666667,116.71879287627483L179.3824,119.5683685450436L179.57573333333335,122.87695320572502L179.8174,118.78477066660403L180.15573333333333,97.33763814540053L180.5424,103.06732466920948L180.73573333333334,107.39095294076292L180.92906666666667,119.94938691469791L181.02573333333333,99.43004559414747L181.31573333333336,116.46415239123323L181.55739999999997,101.14799772962279L181.65406666666667,107.78348606340724L181.75073333333333,107.0384190816395L181.89573333333334,96.10613586455057L182.09003333333334,111.17161784753046L182.67003333333332,99.03551351880485L182.9117,110.61028747912883L183.15336666666667,106.06213889864081L184.02336666666667,109.10833543841143L184.2167,108.59759737542504L184.3617,117.69593041917389L184.6033666666667,130.53949322436466L184.9417,121.77958313068015L185.13503333333333,105.632750583676L185.23170000000002,103.43045780449735L185.5217,101.36496107859965L185.57003333333333,116.85007948933443L185.86003333333335,95.39605811613325L186.19836666666666,117.02366547001657L186.48836666666665,122.96225348244754L186.6333666666667,116.81378931475209L186.92336666666668,110.798443100205L187.45503333333332,107.68047825336983L187.5517,112.81144704771201L188.03503333333333,116.82783562116146L188.18003333333334,115.01812341198355L188.2767,103.29285174921661L188.51836666666665,102.3181030753055L189.29170000000002,112.10632104087271L189.38836666666666,108.51395690893982L189.63003333333333,112.32596294353495L189.67836666666668,114.49181408167905L189.8717,112.86080145250736L189.96836666666667,121.87894453561933L190.25836666666666,116.65221789068968L190.3067,111.97081199463308L190.59766666666667,121.89969256473412L191.17766666666668,114.55322592873557L191.41933333333333,113.26742889244447L191.99933333333334,106.5024842897494L192.04766666666666,124.41970280645607L192.33766666666668,124.72141557088985L192.386,130.365941698804L193.06266666666664,126.71425916284625L193.256,107.71057676135592L193.35266666666666,113.02065196492005L193.44933333333333,115.98801728543955L193.59433333333334,117.84929772751728L193.73933333333335,112.47799210840954L194.17433333333332,109.62955330671552L194.46433333333331,119.1193794746383L194.561,114.49116624942309L195.09266666666664,114.47164827782512L195.14100000000002,116.57563033891634L195.431,122.21018583798946L195.76933333333335,118.81891378065643L196.92933333333335,125.95765916596066L197.21933333333334,131.03246499459345L197.316,118.32207356964338L198.331,125.05811039728363L198.476,109.07992304202648L198.66933333333336,124.37516797765448L198.71766666666667,104.3249910641575L198.766,104.20503564317949L199.00863333333334,124.03970110971376L199.15363333333335,140.91998264028888L199.25029999999998,139.4758013922335L199.6853,138.58329399806013L200.02363333333332,137.16157511454017L200.2653,136.40551029583835L200.65196666666665,124.62171164435455L200.8453,124.16639109238677L201.0386333333333,122.28076494603101L201.66696666666667,109.4190713762637L201.76363333333333,108.73151668507049L201.9086333333333,116.876056858362L202.48863333333333,126.57672898293043L202.68196666666665,123.34178292581922L202.92363333333333,133.28358788042115L203.0203,129.17775284473754L203.50363333333334,113.31616871523259L203.6003,119.61991985132516L203.69696666666667,116.80117252250912L204.3253,127.12813603647007L205.0986333333333,122.99923261599648L205.34029999999998,124.53723766186906L205.67863333333332,117.73045305676318L205.82363333333333,107.32775828785485L205.9203,117.10579221842059L206.88696666666664,115.50834713928447L206.9353,121.27297091979878L206.98363333333333,125.70689573701617L207.2253,119.9406097668236L207.32196666666667,115.15024746073762L207.7579333333333,121.00604767584844L208.14460000000003,132.33225613264784L208.43460000000002,127.19174567621846L208.48293333333334,132.55573339656235L208.67626666666666,131.83578891706375L209.20793333333333,133.10769491605203L209.49793333333332,136.84975046810516L209.7879333333333,132.5250193072932L209.93293333333335,115.39955281596119L210.65793333333332,122.84407908996829L210.85126666666667,131.6763914113336L211.1896,129.14842692072472L211.38293333333334,121.60813780344114L211.62460000000002,127.88496868923284L211.86626666666666,132.6336333493507L212.0596,127.06340012570567L212.10793333333334,126.07998015038939L212.6396,126.23399128581913L212.68793333333332,126.69087677485166L213.2196,132.5179465583887L213.31626666666665,128.07244795079805L213.3646,130.08741584275896L213.70293333333333,114.06571570690892L213.7996,129.5289541949523L213.84793333333332,111.54880267986735L213.89626666666666,117.07793854722769L213.94459999999998,117.35126245533243L214.2346,129.35768085871584L215.29793333333333,129.67513942433396L215.44293333333334,129.62342659017017L216.1196,133.17893628359676L216.3139,123.85092760613482L216.36223333333334,134.59089208888287L216.4589,121.92084881041629L216.84556666666666,129.4063827194663L217.08723333333333,137.72147085925286L217.42556666666667,114.13035316200495L218.77890000000002,116.00354183858732L219.6489,118.0157094631973L219.89056666666667,127.06545964118324L220.32556666666667,128.77381403748467L220.3739,112.2518902763852L220.90556666666666,130.1071188201711L220.9539,132.34394549314132L221.05056666666667,122.63817258637997L221.14723333333333,122.43292585335064L221.29223333333331,135.73269847561818L221.3405666666667,119.56809520713793L221.43723333333332,132.17866342860154L222.5489,124.6186292378039L222.79056666666665,134.31453395774423L222.93556666666666,123.51953656408989L223.08056666666664,130.53878287686382L223.32223333333332,127.87715163162062L223.85389999999998,124.54640840986588L224.2889,124.16297761185068L224.4339,126.7774068899446L224.4822333333333,124.34934109147206L224.86986666666667,137.3390980347204L225.15986666666666,135.1934984487225L225.9332,142.7598306909447L226.2232,140.40503413537215L226.41653333333335,145.9683965469505L226.56153333333333,143.0897490787041L226.85153333333332,140.51198101794648L226.9482,138.9303573630927L227.3832,127.94802518276407L227.57653333333334,123.76997271918333L227.86653333333334,123.0816657826926L228.10819999999998,123.92637080672924L228.39819999999997,135.2820140548918L228.8332,133.83967377959146L229.17153333333334,134.95340024496653L229.36486666666667,126.75483902414305L229.79986666666665,123.99805257356067L229.94486666666668,128.77973924568067L230.52486666666667,117.97549142520195L230.8632,140.8295324824668L231.0082,141.42637386335846L231.10486666666668,118.37467002131052L231.1532,115.95208824784146L231.34653333333335,125.65588770905975L231.39486666666667,137.45534847027682L231.4432,134.2182710954281L232.0232,132.3969348321312L232.3132,126.2797702327357L232.36153333333334,121.6475129974381L232.45819999999998,135.9648106246275L232.7482,136.10888205813615L232.8932,125.4344447830072L233.1832,135.40699958870397L233.32916666666665,132.00041605652248L233.6675,136.96845237102372L234.15083333333334,156.671372155738L234.44083333333333,144.02556762375863L234.6341666666667,138.08916262636774L234.77916666666667,141.7485087959805L235.16583333333332,131.32133443302433L235.26250000000002,131.20106082502957L235.89083333333335,124.797276443937L236.08416666666668,131.7852899286577L236.13250000000002,124.2237153599026L237.05083333333334,128.7828749661454L237.09916666666666,124.44015391999909L237.24416666666667,130.41237282852657L237.5825,138.7643573949413L237.67916666666667,126.38158611862887L238.06583333333333,119.91150067901653L238.16250000000002,124.56489092373332L238.21083333333334,112.89628432339141L238.83916666666667,127.84764929059858L238.93583333333333,144.14406545923595L238.98416666666665,130.53318215731053L239.41916666666665,133.61290765732838L239.56416666666667,134.10660258411463L240.09583333333333,121.81350434201023L240.24083333333334,122.84762739055476L240.3375,134.24578719609912L240.43416666666664,134.1010441937266L241.01416666666665,132.5452732239298L241.78846666666666,138.9737407285213L242.03013333333334,137.28866096358882L242.51346666666666,140.33651794731367L242.80346666666665,131.10801290792156L243.14180000000002,140.70232427447948L243.4318,143.48055475783656L243.52846666666667,137.55387622531612L243.72179999999997,142.73173966465635L244.06013333333334,132.9447657115341L244.1084666666667,138.7802461154717L244.1568,136.27931336266172L244.64013333333335,143.0017850482866L245.65513333333334,141.7512236169962L245.8968,129.47586162881024L246.1384666666667,123.33024939694793L246.42846666666668,124.73705122708915L246.9118,132.40059114713034L247.15346666666665,132.05334107179345L247.44346666666667,128.8131348453926L247.6368,138.20762848280106L247.68513333333334,148.7328849060006L248.0718,125.23947783709899L248.2168,120.06040277203323L248.26513333333332,122.4452448444511L248.3618,125.80446792249055L248.5068,127.07159306653259L248.55513333333334,127.04816162666722L248.60346666666666,113.48784561578748L248.84513333333334,116.75415043321549L248.9418,122.21964354203331L249.0868,119.53626937401813L249.13513333333333,107.18201822989278L249.18346666666667,112.922257493131L249.2318,126.64008020267666L249.32846666666669,132.79655888284316L249.47346666666667,139.99352702811217L249.52179999999998,129.89226009177955L249.81179999999998,122.23053272550311L250.1018,130.03462372616434L250.1984666666667,137.61645495016032L250.34346666666667,116.66113926969234L250.8761,135.13958252602825L251.26276666666666,135.38534219470495L251.31109999999998,145.6922248690201L251.35943333333333,143.47199296288971L251.64943333333332,145.38854703174684L251.9877666666667,134.0447198390298L252.22943333333333,148.31651671778494L252.56776666666667,140.22781567588845L253.1961,143.4957480627095L253.48610000000002,137.58647428148376L253.58276666666666,132.7780539472039L253.7277666666667,132.7733279629291L254.0661,125.99595178853693L254.3561,139.93639967018402L254.5011,122.53215675836353L254.59776666666664,129.6245157372852L254.64610000000002,129.27713896720638L255.0811,137.63982069525497L255.56443333333334,130.72389570749485L255.61276666666666,125.28688504924051L255.99943333333331,130.3493859501902L256.5794333333333,143.06457201636502L256.72443333333337,127.87076962258091L256.86943333333335,127.09061090098191L257.4977666666667,132.039057103633L257.88443333333333,126.23911553192644L258.2711,112.74671509865809L258.31943333333334,117.69313866662816L258.4644333333333,129.79403436876353L258.5611,135.49758447351493L258.6094333333333,136.22223006562456L259.2387333333333,141.19659844037048L259.5287333333333,144.03260403704823L259.62539999999996,144.85521711657103L260.3504,130.86802910028132L260.68873333333335,140.4782295228124L260.9787333333333,147.6955838892517L261.12373333333335,147.2053680149811L261.1720666666667,145.93983639860443L261.46206666666666,142.06472456265112L262.0904,137.2701361796186L262.1870666666667,138.27969527240705L262.23539999999997,148.66759559577204L262.2837333333334,145.41545470475802L262.57373333333334,129.90986020276176L262.8154,127.15709992454549L263.44373333333334,133.21277242960363L264.21706666666665,140.92000026390173L264.55539999999996,134.89261766869723L264.79706666666664,148.4918820703659L264.8454,141.83177198105955L265.1354,139.31635932598022L265.5704,134.46366109326868L265.7154,139.8524330685134L265.76373333333333,124.53806429593547L265.8604,126.02966899123427L266.1504,116.86260995534386L266.19873333333334,126.94832285358044L266.2954,127.69780731499918L266.53706666666665,134.7722017615062L266.6820666666667,148.12099292358158L267.40706666666665,136.995828601494L267.6013666666667,148.7913982522147L267.89136666666667,152.43240960725453L268.22970000000004,147.90679775429922L268.4230333333333,152.90872960381324L268.56803333333335,148.4877888195493L269.2930333333333,140.41068358982608L269.6797,134.6824552356816L269.8730333333333,140.34035567593756L269.9213666666667,140.24091714136128L270.79136666666665,134.63088165045147L270.9363666666667,148.188215554053L270.9847,146.72828822078475L271.08136666666667,148.78176631751313L271.17803333333336,154.38998100757726L271.22636666666665,151.94652896006937L271.41970000000003,142.12717556818336L271.4680333333333,142.4638725462146L271.9997,135.44164895707797L272.28970000000004,133.4857116690112L272.4830333333333,145.5327703017576L273.5947,149.83160019559082L274.2230333333333,142.66422371525957L274.60970000000003,139.6050769726881L274.85136666666665,144.13334396337154L274.8997,136.43966928114233L274.9963666666667,143.44530789815974L275.0447,140.59491610754608L275.0930333333333,141.6965296778618L275.5280333333333,141.6354100671803L275.5763666666667,151.39181763498837L276.0113666666667,138.41626033621355" style="fill: none;" fill="none"></path></g></g></g></g><g opacity="0.2"><g><g><g><path stroke="rgb(255, 112, 67)" stroke-width="2px" d="M24.263333333333332,-26.24017217424182L24.408333333333335,5.870381938086609L24.456666666666667,2.102290471394838L24.795,-36.03596984015573L25.423333333333336,5.396273083156984L26.051666666666666,-4.559894985622861L26.583333333333332,-3.3989660474989307L26.825,12.426989820268403L26.97,-3.692970593770383L27.405,11.398186100853792L27.453333333333333,3.8806053797403592L27.889300000000002,2.791656865013948L28.130966666666666,-1.0399744775560293L28.227633333333333,44.961245271894654L28.275966666666665,5.727010515001069L28.469299999999997,3.3869983885023203L28.855966666666667,0.7191723717583329L29.242633333333334,14.313405036926241L29.290966666666666,0.3245649867587588L29.532633333333337,22.304057227240662L30.0643,21.24634816911484L30.3543,24.662270757887086L30.59596666666667,1.3022774590386064L30.74096666666667,1.2110110918680448L31.320966666666667,28.24980995390149L31.610966666666666,-17.62058130900067L31.852633333333333,21.539834022521944L32.19096666666667,16.6526862780253L32.3843,21.305620617336672L32.48096666666667,-13.79918236202667L33.3993,33.24420923656885L33.640966666666664,44.78392304314505L33.689299999999996,26.392158614264588L33.93096666666667,50.736041545867906L34.17263333333334,34.8730698691474L34.2693,39.693447695838074L34.655966666666664,23.468357668982605L34.704299999999996,28.4627333747016L35.042633333333335,44.00258297390408L35.23596666666667,31.247642517089815L35.670966666666665,21.836408456166566L36.057633333333335,38.184169345431854L36.7836,29.53218375311957L36.97693333333333,51.71620602077907L37.46026666666667,31.282253477308473L37.55693333333333,39.70898490481906L39.586933333333334,46.63928741878934L39.635266666666666,50.95641528235541L40.02193333333334,40.5216351615058L40.45693333333333,46.9399406645033L40.553599999999996,32.63314188851248L40.601933333333335,55.96406481001112L40.74693333333333,55.46626112196178L41.03693333333334,30.935648759206117L41.47193333333333,52.37400288052028L41.616933333333336,54.659175025092225L41.66526666666666,52.77596627341376L42.1486,42.0664439731174L42.97026666666667,42.57391421000162L43.06693333333334,49.70473866992526L43.7436,35.37957345114813L43.98526666666667,40.43649880091348L44.08193333333334,38.59117820527817L44.226933333333335,36.844149907429994L44.6136,28.097432136535616L44.903600000000004,61.883199161953385L45.00026666666667,57.39756684833101L45.0979,60.21175856060451L45.3879,67.004913965861L45.62956666666667,53.10759962929619L46.1129,44.63543542226154L46.4029,58.62038527594672L46.692899999999995,40.941210534837495L46.88623333333333,44.88629415300156L47.176233333333336,47.02830706702338L47.2729,63.054384072621644L47.417899999999996,54.051361295911974L47.51456666666667,73.66526042090521L47.5629,54.336453755696596L47.804566666666666,35.28543069627548L47.8529,64.75755924648708L48.2879,36.29287370045978L48.5779,51.58620272742377L48.67456666666667,61.033910327487504L48.91623333333333,59.56914525561861L49.1579,41.742897510528536L49.25456666666667,50.26561069488524L49.83456666666666,58.14483822716606L50.1729,22.096344312032045L50.22123333333334,66.84553379482692L50.3179,71.18480041291977L50.414566666666666,60.02715105480617L50.4629,44.53754393259683L50.55956666666666,58.86492538452147L51.13956666666667,35.06409030490451L51.28456666666666,68.72933197021483L51.4779,75.79183043373955L51.6229,49.418019400702576L51.7679,60.30502896838716L51.96123333333334,40.42251767052542L52.009566666666665,62.12599457634819L52.2029,40.14565356572467L52.44456666666667,69.21230575773451L52.97623333333333,49.95415920681424L53.314566666666664,65.41988288031683L53.653866666666666,63.170995659298356L53.8472,71.25975153181288L53.992200000000004,50.83306068844264L54.04053333333333,66.39224338531493L54.08886666666667,53.07046593560112L54.427200000000006,71.07052294413248L54.7172,66.47726186116535L54.81386666666667,50.50901910993785L54.862199999999994,54.25897990332709L55.05553333333333,55.652613321940095L55.24886666666667,51.69371361202663L55.4422,77.89826573265923L55.49053333333333,56.92477830251056L55.68386666666667,52.03897444407144L56.11886666666667,58.74416425493027L56.3122,81.68837806913588L56.360533333333336,57.16823387145995L56.40886666666667,80.50417868296304L56.50553333333333,48.05463520685831L56.55386666666667,57.02993149227565L56.84386666666667,60.948019504547105L57.0372,71.16730631722344L57.08553333333334,70.9729143778483L57.1822,66.65243858761256L57.27886666666667,60.77439885669283L57.42386666666667,78.39894580841064L57.4722,42.12838061650592L57.52053333333333,52.682931635114855L57.71386666666666,87.7154476907518L57.907199999999996,48.960060755411774L58.14886666666666,71.27637328041924L58.1972,48.91323693593341L58.245533333333334,61.65563445621065L59.3572,57.7625144322713L59.550533333333334,58.41693978839449L59.6472,81.0087489551968L59.888866666666665,80.15604146321613L61.04886666666667,55.42853800455728L61.14553333333333,76.04096804724799L61.3872,59.329391267564546L61.483866666666664,80.80044661627875L61.6772,65.72977828979491L61.77386666666666,61.44098991817897L62.113166666666665,57.09681929482353L62.40316666666667,85.50687705145941L62.5965,64.1305538813273L62.93483333333333,74.93306366602579L63.031499999999994,78.74604564242891L63.32149999999999,55.23664522171019L63.41816666666667,68.53354899088541L63.56316666666667,59.05483770370482L63.70816666666667,57.108678499857575L64.09483333333333,79.02057562934027L64.14316666666667,44.37160936991373L64.28816666666667,68.01447889539931L64.6265,70.73101488749185L64.7715,77.81725533803302L65.2065,78.52720440758598L65.39983333333333,76.68028057946098L65.54483333333333,68.3912149535285L65.59316666666666,45.15186489952933L66.02816666666666,40.55079984664914L66.0765,61.44537523057724L66.26983333333334,72.2904414070977L66.3665,75.6476102405124L66.41483333333333,73.57229651345146L66.60816666666666,45.15950383080374L66.6565,40.75235917833115L66.8015,58.763025813632524L66.84983333333334,63.67047331068251L67.2365,61.32058244281343L67.42983333333333,63.54499679141573L67.5265,84.79131666819254L67.62316666666666,58.92415067884657L67.6715,62.1716867023044L68.1065,61.802424536810975L68.25150000000001,56.60564072926837L68.63816666666666,71.47609361012775L68.73483333333333,41.66870085398355L68.9765,55.94018136130438L69.21816666666666,71.95616743299696L69.5565,56.7128922674391L70.18483333333333,73.59775961769951L70.47483333333334,74.7831614282396L70.61983333333333,49.763846079508454L70.66913333333333,67.11303785112167L70.86246666666666,84.44881433910793L71.05579999999999,83.44236156675551L71.15246666666667,57.53457249535454L71.39413333333333,59.052291393280015L71.44246666666668,67.00885131624008L71.87746666666666,76.47124735514322L72.16746666666667,97.97693724102443L72.3608,48.54942104551526L72.40913333333333,81.6587889989217L72.89246666666666,78.16921202341715L73.13413333333334,69.96863068474663L73.8108,59.459653907352006L73.90746666666666,70.9654640621609L74.87413333333333,60.19846116171942L74.92246666666666,73.40134006076387L75.1158,92.89457236395941L75.16413333333334,87.70486164093018L75.21246666666667,88.34021324581569L76.08246666666666,73.4055603345235L76.32413333333334,88.81010182698566L76.66246666666666,60.45832628673976L76.71079999999999,69.40900823805067L77.0008,78.85046794679428L77.09746666666666,80.57160875532362L77.33913333333334,74.2565467092726L77.4358,54.64880116780597L78.5958,66.7462748421563L78.69246666666666,61.47564803229437L78.78913333333334,56.207048839992936L79.1758,73.5261092715793L79.27343333333334,80.73832135730318L79.6601,68.84867848290337L79.8051,70.73738066355386L79.95009999999999,71.85728571150038L80.57843333333332,87.76352108849419L80.91676666666667,88.28626918792725L81.20676666666667,69.4623392952813L81.49676666666667,65.6046790017022L81.5451,68.52831490834552L81.8351,61.87183507283527L82.31843333333333,91.17420959472655L82.5601,71.28627559873793L82.60843333333332,95.95669926537407L82.75343333333333,89.80563847223917L83.04343333333333,72.83763880199855L83.1401,62.1404472457038L83.2851,68.38119475046793L83.4301,93.48076603147717L83.5751,70.26805792914496L83.62343333333332,90.67470836639403L84.49343333333333,95.25023958418103L85.21843333333334,104.68663024902342L85.94343333333333,72.77023230658637L86.08843333333333,84.15869998931885L86.13676666666666,71.18746460808647L86.23343333333334,74.69826083713106L86.28176666666666,76.18092081281874L87.29676666666666,80.93219460381401L87.3451,70.5084720717536L87.58676666666666,81.92124758826361L87.73176666666666,91.0731823709276L87.87773333333334,90.76486661699083L87.9744,78.73241816626654L88.16773333333333,84.36216905381943L88.36106666666666,100.665393087599L88.5544,71.4523280461629L89.76273333333333,83.55517726474336L89.81106666666666,65.35613081190321L90.34273333333334,70.90513065126206L90.72940000000001,68.04038996166652L90.77773333333333,76.62067805396185L90.92273333333334,67.12032312817043L91.01939999999999,86.60994815826416L91.06773333333334,79.72776619593301L91.50273333333334,82.1169598367479L91.84106666666666,93.32761017481485L92.56606666666667,86.30943637424043L92.61439999999999,69.03151771757338L92.7594,79.24783383475409L93.67773333333334,76.69204547670151L93.9194,74.14198631710475L93.96773333333334,63.839472876654725L94.06439999999999,79.28812683953178L94.40273333333334,85.99390607410005L94.74106666666667,64.92514419555663L94.7894,73.27062945895723L95.2244,76.50350062052408L95.41773333333335,66.9545064502292L95.5144,79.47110753589205L95.70773333333334,76.89417065514458L96.14273333333334,68.8768057823181L96.4337,73.57109408908418L96.48203333333332,83.38360781139797L96.7237,100.03051302168103L97.11036666666666,83.93292713165283L97.54536666666667,83.84698915481567L97.5937,100.72938092549641L97.78703333333333,84.00403520796034L98.0287,82.38184685177272L98.1737,104.98535018497043L98.27036666666667,84.59218576219345L98.41536666666667,90.41826189888847L98.56036666666667,97.64723719490898L98.7537,95.26188659667967L99.14036666666667,77.88228056165907L99.52703333333334,85.42166996002197L99.72036666666668,82.7092835108439L99.86536666666667,96.30516656239827L99.9137,77.3920686509874L100.2037,94.66168822182549L100.6387,87.62394555409747L100.83203333333333,81.43419498867458L100.88036666666667,98.13768487506442L100.9287,83.77970054414536L101.02536666666667,101.33566215303209L101.17036666666668,98.72295904159544L101.5087,81.0335047509935L101.9437,71.60911475287543L101.99203333333332,108.27072721057468L102.42703333333333,102.38651031917995L102.62036666666665,78.5278174082438L102.71703333333333,75.66991403367783L102.86203333333333,85.9402920934889L103.1037,91.61033598581949L103.15203333333334,92.79182402292886L103.2487,74.46918720669215L103.29703333333333,86.3974962764316L103.34536666666666,90.07099702623155L103.58703333333334,69.36025110880533L104.2637,90.64709975984361L104.6987,72.22529829872978L104.94133333333333,101.77933316760593L105.27966666666666,92.89188459184435L105.328,90.07113848792181L105.763,101.76110818650987L106.10133333333333,113.1608928044637L106.68133333333334,84.93089220258925L107.01966666666667,71.05856943130492L107.11633333333333,107.39097695880466L107.30966666666666,81.91167534722221L107.79299999999999,91.32995891571044L107.84133333333334,86.0879545211792L107.98633333333333,86.84576479593912L108.228,94.36098782221475L108.42133333333334,106.83265124426947L109.04966666666667,60.814031706915955L109.19466666666666,78.514850086636L109.48466666666667,113.70193661583794L109.533,87.66761006249321L109.58133333333333,92.33895799848767L110.35466666666667,77.87325059043036L111.22466666666666,91.15228303273517L111.51466666666667,80.6332624753316L111.853,98.05136966705321L112.143,81.77080308066473L112.33633333333334,88.95222367180718L112.43299999999999,90.66419304741753L112.52966666666667,91.31222905053032L112.81966666666666,87.52992068396674L112.96466666666667,106.70988607406615L113.06133333333332,89.3752884334988L113.20633333333332,95.56690157784355L113.35133333333333,76.74047252866957L113.44896666666668,105.67674419615003L113.88396666666667,115.62473106384277L113.98063333333333,84.06038411458331L114.56063333333333,115.59415176179672L114.60896666666667,111.18839814927843L114.6573,106.06852234734428L115.33396666666667,93.77229499816893L115.5273,76.55213986502753L115.72063333333332,83.46506616804335L115.91396666666667,108.54763846927219L115.9623,97.00969293382433L116.1073,100.84552097320555L116.20396666666667,95.23595195346408L116.30063333333332,84.9004307852851L116.68730000000001,55.604893578423386L116.78396666666667,70.05779870351154L116.92896666666667,114.18092589908176L117.07396666666668,85.46483935250176L117.21896666666667,102.18945418463812L117.31563333333332,80.4775367312961L117.46063333333333,90.33288976881238L118.37896666666666,95.55171802308824L118.95896666666665,104.58175998263889L119.0073,85.69454956054688L119.05563333333333,76.8060164451599L119.1523,101.86112160152858L119.20063333333333,96.09559106826781L119.2973,104.0338552792867L119.39396666666666,72.95288292566934L119.5873,97.45011032952202L119.78063333333333,88.83410316043428L120.0223,84.04225344128078L120.11896666666667,87.05948983298407L120.4573,86.43583239449394L120.6023,97.80972952312892L120.84396666666666,90.9508180088467L121.0373,92.2041214307149L121.27896666666666,89.36675357818602L121.37563333333334,96.46699873606363L121.42396666666666,111.77452108595106L121.95563333333334,95.63845761617024L122.1016,98.05089812808566L122.2466,106.4703442785475L122.39160000000001,96.69307809405856L122.43993333333333,96.74030272165933L122.58493333333334,85.82969262864853L122.63326666666666,88.32719877031113L122.72993333333334,110.37463977601793L122.9716,107.40054919984605L123.01993333333334,91.10107390085855L123.35826666666667,96.48119205898708L123.4066,75.96502669652301L123.59993333333334,86.55833821826509L123.69659999999999,104.08214086956447L123.79326666666667,88.95125701692368L123.9866,99.83166503906249L124.46993333333334,84.1083396275838L124.5666,101.46446302202013L124.66326666666667,95.73017194535997L124.71159999999999,80.33607504102919L124.90493333333333,91.10878356297809L125.04993333333334,69.58081346087984L125.4366,92.00166617499457L125.62993333333334,95.89712031682332L126.30659999999999,101.58166403240627L126.49993333333335,78.06629864374796L126.5966,87.09985356860689L126.83826666666667,72.14556105931598L126.8866,99.31226486629909L126.98326666666667,89.78288671705457L127.07993333333334,109.75058152940538L127.12826666666666,83.76156987084282L127.22493333333334,93.72245332929822L127.32159999999999,84.40677664015028L127.36993333333334,99.90399911668565L127.70826666666667,106.02528222401936L127.85326666666667,95.06108172734578L128.09493333333333,100.99051920572916L129.01326666666668,75.11899148093329L129.4966,99.58259815639919L129.7866,104.26561668184068L129.9316,96.39202404022215L130.07659999999998,81.6072262128194L130.2216,90.50608603159586L130.2699333333333,62.180363019307435L130.31826666666666,75.95420487721759L130.75423333333333,110.32097864151L130.80256666666668,134.22364256117078L130.8509,102.3361735343933L130.94756666666666,90.92219559351602L131.52756666666667,94.84683799743651L131.5759,105.41152710384792L131.67256666666668,107.51869328816731L132.05923333333334,113.71841690275404L132.49423333333334,105.35567331314085L133.3159,81.56551859113905L133.99256666666665,92.51620949639214L134.1859,102.76282199223836L134.23423333333332,93.1026153564453L134.3309,80.21052779091728L134.71756666666667,94.15032778845892L134.81423333333333,100.26757923762003L135.00756666666666,89.63303163316515L135.4909,85.84541845321655L135.87756666666667,96.88893180423312L135.9259,100.57523483700221L136.45756666666665,99.7207826508416L136.84423333333334,102.53023539649115L137.13423333333333,71.38711420694986L137.18256666666667,77.60331810845268L137.27923333333334,102.58582984076605L137.3759,104.503390206231L137.61756666666668,89.90112511316934L138.5359,101.80493773354424L138.82590000000002,105.91814857059055L138.87423333333334,102.87009710735744L139.31019999999998,112.13010862138536L139.40686666666667,95.73241175545586L139.55186666666665,106.42955615785387L139.6002,99.9454002380371L139.64853333333335,110.90238618850707L140.18019999999999,104.78348435295952L140.3252,121.1647245089213L140.6152,102.5523977279663L140.85686666666666,90.35090255737303L140.95353333333333,101.74844736523097L141.0502,94.53731981913248L141.14686666666665,97.21019130282932L141.58186666666666,91.71030224694145L141.77519999999998,97.8301707373725L141.96853333333334,84.6317007276747L142.0652,82.61907810635036L142.2102,107.76882113350761L142.6452,94.41601641972858L142.69353333333333,96.85913054148355L143.17686666666665,107.0655443403456L143.27353333333335,102.80214834213255L143.85353333333333,106.22941144307454L143.90186666666668,116.93768416510687L143.9502,109.52961836920844L144.14353333333335,96.93896208869086L144.33686666666668,106.80504263771904L144.62686666666667,97.11062584982977L144.6752,100.7849989467197L144.8202,110.06653621461656L145.20686666666666,103.15452941258748L145.44853333333333,91.90151129828558L145.5935333333333,88.34938467873467L145.73853333333335,100.41585466596814L145.78686666666667,99.07651895946925L146.17353333333332,83.4824423789978L146.46353333333332,91.77433723873561L146.75353333333334,90.81687736511229L146.9952,80.87115388446382L147.8661666666667,103.56901216506957L148.05949999999999,93.79191101921928L148.15616666666668,115.31082757314046L148.39783333333335,123.70636669794717L148.6395,108.74860837724474L149.26783333333336,95.43701616923013L149.46116666666666,115.93146716223822L149.60616666666667,90.1951060824924L150.33116666666666,109.93401018778482L150.86283333333333,104.81701077355278L150.91116666666667,94.81677738825479L151.05616666666668,105.65064451429578L151.34616666666668,105.09512445661755L151.6845,106.03197807735866L151.73283333333333,103.18829160266452L151.78116666666665,91.70539824167886L151.8295,100.99141512976752L151.87783333333334,94.47771729363335L151.9261666666667,110.96319113837347L152.31283333333334,97.16574875513712L153.4245,99.17601368162366L153.47283333333334,108.68749692704942L153.52116666666666,118.81964333852132L153.8595,100.80796289443968L154.39116666666666,108.90138700273302L154.48783333333333,90.34566847483316L155.0678333333333,114.98365026050143L155.1161666666667,111.64885595109727L155.26116666666667,96.46381584803262L155.35783333333333,114.15336444642807L155.40616666666668,103.02966589397853L155.50283333333334,90.7772209379408L156.37380000000002,118.49600256813896L156.6154666666667,111.28421486748589L156.76046666666667,94.88536273108588L156.90546666666668,114.83476183149548L157.34046666666666,107.13130044937132L157.3888,103.48566765255397L157.6788,87.12852313783432L157.7754666666667,111.18153725730048L157.8238,97.1436571545071L158.1138,104.29827075534396L158.2588,117.22633674409653L158.5488,98.4752124680413L158.64546666666666,108.34612629148695L158.74213333333333,115.7156909306844L158.8871333333333,116.34743526246811L159.56380000000001,106.18463881810506L159.66046666666668,103.0765840212504L159.7088,101.89620410071478L159.75713333333331,106.8136010699802L160.2888,116.86061112085977L160.77213333333333,96.46600850423177L161.15879999999999,98.18196238411797L161.98046666666667,109.31327629089354L162.3188,94.83585113949245L162.36713333333333,80.94068230523003L162.51213333333334,97.11503473917642L162.99546666666666,103.32591025034586L163.28546666666665,109.28967576556735L163.4788,111.42565298080443L163.72046666666668,84.79204755359224L163.81713333333332,81.53958394792343L163.91379999999998,97.38633468416002L164.01046666666667,94.66298495398627L164.10713333333334,86.31740538279215L164.30046666666667,93.07724655999077L164.3488,105.14265558454724L164.4938,104.47580517662895L164.78379999999999,83.96560478210449L164.83309999999997,104.26964834001329L164.9781,111.49704398049248L165.36476666666667,122.75117021136813L165.46143333333336,117.07249715593125L165.50976666666668,105.89325131310356L165.5581,109.36071311102972L165.94476666666665,116.401780128479L166.66976666666667,113.66357692082723L166.76643333333334,116.09346437454224L166.86309999999997,122.72448110580444L166.95976666666667,117.74076218075223L167.05643333333333,111.71289094289143L167.49143333333336,124.33646064334445L167.68476666666666,109.33355246649847L168.3131,116.46456554200913L168.50643333333332,94.45826631122165L169.42476666666667,101.81745709313286L170.14976666666666,87.34220102098251L170.1981,101.93835968441432L170.4881,107.49172125922308L170.53643333333332,104.22886021931966L170.63309999999998,116.06972238752576L170.7781,103.16117811203002L171.01976666666667,99.33796374003092L171.2131,90.44730869928995L171.3097666666667,104.39835490120781L172.0831,111.29392857021755L172.4214333333333,121.33549234602185L172.61476666666667,100.97693888346353L172.9531,121.86267291174994L173.00143333333332,95.33613040712144L173.3397666666667,99.01052708095973L173.4374,128.32997131347656L174.59740000000002,114.97907633251614L174.7424,93.65903133816188L175.0807333333333,99.33442719777425L175.22573333333335,104.66385491689046L175.27406666666667,112.90279595057169L175.37073333333333,98.08763101365831L175.41906666666665,102.16208134757147L175.75740000000002,110.3253403769599L176.38573333333335,127.46160872777303L176.62740000000002,114.98268360561795L177.0624,104.2916456328498L177.15906666666666,113.38449658287895L177.25573333333335,108.30493736267088L177.59406666666666,105.9887851079305L178.2224,100.39303217993842L178.31906666666666,119.136753294203L178.60906666666665,96.80860514110988L178.99573333333333,112.34520112143622L179.28573333333335,127.36263269848294L179.33406666666667,114.48704899681938L179.3824,120.78961526023016L179.57573333333335,124.29491806030273L179.8174,117.03097814983792L180.15573333333333,88.14600992202759L180.5424,105.52290460798474L180.73573333333334,109.24393648571437L180.92906666666667,125.33157290352715L181.02573333333333,90.63604217105441L181.31573333333336,123.76448387569852L181.55739999999997,94.58393144607543L181.65406666666667,110.62726677788628L181.75073333333333,106.71910466088188L181.89573333333334,91.42087162865532L182.09003333333334,117.62825298309326L182.67003333333332,93.83432594935098L182.9117,115.5709048906962L183.15336666666667,104.1129323641459L184.02336666666667,110.41384824117024L184.2167,108.3787096341451L184.3617,121.59521600935193L184.6033666666667,136.0438772837321L184.9417,118.02533594767252L185.13503333333333,98.71267949210272L185.23170000000002,102.48661804199217L185.5217,100.47974819607204L185.57003333333333,123.48655880822075L185.86003333333335,86.20147752761841L186.19836666666666,126.29264005025227L186.48836666666665,125.50736263063217L186.6333666666667,114.17873324288261L186.92336666666668,108.22043757968478L187.45503333333332,106.34420760472615L187.5517,115.01043367385864L188.03503333333333,118.54914500978256L188.18003333333334,114.242532465193L188.2767,98.26773532231648L188.51836666666665,101.90035364362927L189.29170000000002,116.30127159754434L189.38836666666666,106.97437228096855L189.63003333333333,113.95967981550429L189.67836666666668,115.42003599802652L189.8717,112.16179604000514L189.96836666666667,125.7438629998101L190.25836666666666,114.4121921857198L190.3067,109.96449518203734L190.59766666666667,126.15492709477742L191.17766666666668,111.40474022759331L191.41933333333333,112.71637301974826L191.99933333333334,103.60322231716579L192.04766666666666,132.0985107421875L192.33766666666668,124.85072104136148L192.386,132.7850243250529L193.06266666666664,125.14925236172147L193.256,99.56614144643147L193.35266666666666,115.29639848073323L193.44933333333333,117.25974527994791L193.59433333333334,118.64698934555054L193.73933333333335,110.17600398593478L194.17433333333332,108.40879382027519L194.46433333333331,123.18644783231946L194.561,112.50764629575941L195.09266666666664,114.46328343285454L195.14100000000002,117.47733693652683L195.431,124.62499533759222L195.76933333333335,117.36551147037082L196.92933333333335,129.01712147394815L197.21933333333334,133.20738177829318L197.316,112.87476295895046L198.331,127.94498332341512L198.476,102.23212846120198L198.66933333333336,130.93027295006647L198.71766666666667,95.7320581012302L198.766,104.15362617704602L199.00863333333334,132.54027202394272L199.15363333333335,148.15438901053534L199.25029999999998,138.8568665716383L199.6853,138.2007908291287L200.02363333333332,136.55226702160306L200.2653,136.08148251639471L200.65196666666665,119.57151222229004L200.8453,123.971253712972L201.0386333333333,121.47263945473564L201.66696666666667,103.9069169892205L201.76363333333333,108.4368503888448L201.9086333333333,120.36657407548691L202.48863333333333,130.73415989345975L202.68196666666665,121.95537747277153L202.92363333333333,137.54436143239337L203.0203,127.41810925801595L203.50363333333334,106.51834694544473L203.6003,122.3215274810791L203.69696666666667,115.59313795301648L204.3253,131.55397754245334L205.0986333333333,121.22970257865057L205.34029999999998,125.19638268152872L205.67863333333332,114.81325965457492L205.82363333333333,102.86946052975124L205.9203,121.29637818866306L206.88696666666664,114.82372781965466L206.9353,123.74352396859062L206.98363333333333,127.60714923010931L207.2253,117.46934435102673L207.32196666666667,113.09723504384358L207.7579333333333,123.51567633946736L208.14460000000003,137.18634547127618L208.43460000000002,124.98866976632011L208.48293333333334,134.85458527670966L208.67626666666666,131.5272412829929L209.20793333333333,133.652797487047L209.49793333333332,138.45348856184216L209.7879333333333,130.67156309551663L209.93293333333335,108.06006717681883L210.65793333333332,126.03459035025702L210.85126666666667,135.46166812049017L211.1896,128.0650135676066L211.38293333333334,118.3765853246053L211.62460000000002,130.57503906885782L211.86626666666666,134.66877534654407L212.0596,124.6761573155721L212.10793333333334,125.6585144466824L212.6396,126.29999605814615L212.68793333333332,126.88668484157986L213.2196,135.0152621799045L213.31626666666665,126.16723426183064L213.3646,130.9509735107422L213.70293333333333,107.19927279154459L213.7996,136.15605640411377L213.84793333333332,103.84302345911661L213.89626666666666,119.44756820466782L213.94459999999998,117.46840127309163L214.2346,134.50328874588013L215.29793333333333,129.81119309531317L215.44293333333334,129.60126394695706L216.1196,134.70272615220813L216.3139,119.85320960150824L216.36223333333334,139.1937340100606L216.4589,116.49083026250203L216.84556666666666,132.61446868048773L217.08723333333333,141.2850800620185L217.42556666666667,104.01987414889865L218.77890000000002,116.80633698569403L219.6489,118.87806701660156L219.89056666666667,130.94392400317722L220.32556666666667,129.5059659216139L220.3739,105.17106580734252L220.90556666666666,137.75935962465076L220.9539,133.30258549584283L221.05056666666667,118.47855562633939L221.14723333333333,122.34496296776665L221.29223333333331,141.43260102801852L221.3405666666667,112.64040809207492L221.43723333333332,137.58319266637164L222.5489,121.37861458460489L222.79056666666665,138.4699216948615L222.93556666666666,118.8931091096666L223.08056666666664,133.54703129662408L223.32223333333332,126.73645252651639L223.85389999999998,123.11894702911377L224.2889,123.99865012698703L224.4339,127.89787658055623L224.4822333333333,123.30874146355522L224.86986666666667,142.90613672468396L225.15986666666666,134.27395576900906L225.9332,146.00254450903998L226.2232,139.3958356115553L226.41653333333335,148.3526947233412L226.56153333333333,141.8560430208842L226.85153333333332,139.4072232776218L226.9482,138.25251865386963L227.3832,123.24131139119466L227.57653333333334,121.97937880622015L227.86653333333334,122.78667709562512L228.10819999999998,124.28838724560208L228.39819999999997,140.14871830410428L228.8332,133.22152794731988L229.17153333333334,135.43071158727008L229.36486666666667,123.2411699295044L229.79986666666665,122.81657266616821L229.94486666666668,130.8290335337321L230.52486666666667,113.34509950213962L230.8632,150.62412150700885L231.0082,141.68216302659778L231.10486666666668,108.49536837471855L231.1532,114.9138389163547L231.34653333333335,129.8146589067247L231.39486666666667,142.5122602250841L231.4432,132.8309522204929L232.0232,131.61636214786105L232.3132,123.65812826156616L232.36153333333334,119.66225989659627L232.45819999999998,142.10079532199435L232.7482,136.17062695821124L232.8932,120.85968595080905L233.1832,139.6809516482883L233.32916666666665,130.54045168558756L233.6675,139.09761079152423L234.15083333333334,165.11548063490125L234.44083333333333,138.60593711005316L234.6341666666667,135.5449890560574L234.77916666666667,143.31680001152887L235.16583333333332,126.85254542032877L235.26250000000002,131.1495149930318L235.89083333333335,122.05279742346869L236.08416666666668,134.78015285068088L236.13250000000002,120.9830405447218L237.05083333333334,130.73680051167804L237.09916666666666,122.5789877573649L237.24416666666667,132.9718952178955L237.5825,142.3437793519762L237.67916666666667,121.0746841430664L238.06583333333333,117.13860691918266L238.16250000000002,126.55920102861191L238.21083333333334,107.89545292324489L238.83916666666667,134.25537713368732L238.93583333333333,151.12824381722345L238.98416666666665,124.69994645648532L239.41916666666665,134.93279001447888L239.56416666666667,134.31818612416583L240.09583333333333,116.54503366682263L240.24083333333334,123.29082298278809L240.3375,139.1307128270467L240.43416666666664,134.03901147842407L241.01416666666665,131.87851423687405L241.78846666666666,141.72879823048908L242.03013333333334,136.56648392147488L242.51346666666666,141.64274236891004L242.80346666666665,127.1529393196106L243.14180000000002,144.81417200300427L243.4318,144.67122496498956L243.52846666666667,135.01387113995023L243.72179999999997,144.95082399580212L244.06013333333334,128.7503483030531L244.1084666666667,141.28116628858777L244.1568,135.20748504002887L244.64013333333335,145.8828443421258L245.65513333333334,141.21526871787177L245.8968,124.21499220530191L246.1384666666667,120.69641558329263L246.42846666666668,125.33996629714966L246.9118,135.68496539857654L247.15346666666665,131.90451961093478L247.44346666666667,127.42447503407796L247.6368,142.2338400416904L247.68513333333334,153.24370908737183L248.0718,115.1708748075697L248.2168,117.84079917271931L248.26513333333332,123.46732001834445L248.3618,127.244134955936L248.5068,127.61464669969345L248.55513333333334,127.03811958101059L248.60346666666666,107.67628161112467L248.84513333333334,118.15399535497029L248.9418,124.56199773152669L249.0868,118.38625187344022L249.13513333333333,101.88733916812473L249.18346666666667,115.38236003451877L249.2318,132.5191470781962L249.32846666666669,135.4350497457716L249.47346666666667,143.07794194751315L249.52179999999998,125.56314569049411L249.81179999999998,118.94693528281317L250.1018,133.3792341550191L250.1984666666667,140.8658111890157L250.34346666666667,107.6802896923489L250.8761,143.05891535017224L251.26276666666666,135.4906677669949L251.31109999999998,150.10946030086942L251.35943333333333,142.52046500311957L251.64943333333332,146.2099273469713L251.9877666666667,129.18307961357965L252.22943333333333,154.43300109439426L252.56776666666667,136.76122951507568L253.1961,144.89629051420422L253.48610000000002,135.05392837524414L253.58276666666666,130.7173023753696L253.7277666666667,132.771302541097L254.0661,123.09136199951172L254.3561,145.910877333747L254.5011,115.0731955104404L254.59776666666664,132.66409815682306L254.64610000000002,129.1282632086012L255.0811,141.22382715013293L255.56443333333334,127.7599278555976L255.61276666666666,122.95673762427435L255.99943333333331,132.51902919345432L256.5794333333333,148.51393747329712L256.72443333333337,121.35914002524481L256.86943333333335,126.75625716315375L257.4977666666667,134.15981976191202L257.88443333333333,123.7534262869093L258.2711,106.96425777011447L258.31943333333334,119.81303448147244L258.4644333333333,134.98013252682156L258.5611,137.94196308983697L258.6094333333333,136.53279246224298L259.2387333333333,143.3284706009759L259.5287333333333,145.24803500705295L259.62539999999996,145.20776557922363L260.3504,124.87351995044284L260.68873333333335,144.59688684675427L260.9787333333333,150.78873576058282L261.12373333333335,146.99527549743652L261.1720666666667,145.39746570587158L261.46206666666666,140.40396234724255L262.0904,135.21531258689032L262.1870666666667,138.71236345503064L262.23539999999997,153.11955287721423L262.2837333333334,144.02168003718057L262.57373333333334,123.26460541619194L262.8154,125.97734551959567L263.44373333333334,135.80806064605713L264.21706666666665,144.2230979071723L264.55539999999996,132.30945369932385L264.79706666666664,154.32013824250964L264.8454,138.9774390856425L265.1354,138.23832533094617L265.5704,132.3839332792494L265.7154,142.16190677218967L265.76373333333333,117.9747633934021L265.8604,126.6689281463623L266.1504,112.93387036853366L266.19873333333334,131.27077123853894L266.2954,128.01901494132147L266.53706666666665,137.80408509572345L266.6820666666667,153.8419034216139L267.40706666666665,132.22790103488498L267.6013666666667,153.84664238823785L267.89136666666667,153.99284304512872L268.22970000000004,145.9672498173184L268.4230333333333,155.0524146821764L268.56803333333335,146.59309991200763L269.2930333333333,136.9490670628018L269.6797,132.22750022676254L269.8730333333333,142.76517015033298L269.9213666666667,140.19830062654285L270.79136666666665,132.22658072577582L270.9363666666667,153.99850151273938L270.9847,146.10260507795545L271.08136666666667,149.66182835896808L271.17803333333336,156.79350158903333L271.22636666666665,150.89933522542316L271.41970000000003,137.91888125737506L271.4680333333333,142.60817125108508L271.9997,132.43212456173367L272.28970000000004,132.6474528312683L272.4830333333333,150.69579543007745L273.5947,151.6739558643765L274.2230333333333,139.59249093797473L274.60970000000003,138.2940140830146L274.85136666666665,146.07402981652154L274.8997,133.14238013161554L274.9963666666667,146.44772444831L275.0447,139.3733196258545L275.0930333333333,142.16864977942572L275.5280333333333,141.60921594831677L275.5763666666667,155.57313516404895L276.0113666666667,132.85530720816718" style="fill: none;" fill="none"></path></g></g></g></g></g></g><g transform="translate(40, 178)" clip-path="url(#clip_1)"><clipPath id="clip_1"><rect width="290" height="22"></rect></clipPath><g><g><line x1="0" y1="0" x2="0" y2="5" style="visibility: inherit;" fill="rgb(0, 0, 0)" stroke="rgb(204, 204, 204)" stroke-width="1px"></line><line x1="19.333333333333332" y1="0" x2="19.333333333333332" y2="5" style="visibility: inherit;" fill="rgb(0, 0, 0)" stroke="rgb(204, 204, 204)" stroke-width="1px"></line><line x1="38.666666666666664" y1="0" x2="38.666666666666664" y2="5" style="visibility: inherit;" fill="rgb(0, 0, 0)" stroke="rgb(204, 204, 204)" stroke-width="1px"></line><line x1="58" y1="0" x2="58" y2="5" style="visibility: inherit;" fill="rgb(0, 0, 0)" stroke="rgb(204, 204, 204)" stroke-width="1px"></line><line x1="77.33333333333333" y1="0" x2="77.33333333333333" y2="5" style="visibility: inherit;" fill="rgb(0, 0, 0)" stroke="rgb(204, 204, 204)" stroke-width="1px"></line><line x1="96.66666666666666" y1="0" x2="96.66666666666666" y2="5" style="visibility: inherit;" fill="rgb(0, 0, 0)" stroke="rgb(204, 204, 204)" stroke-width="1px"></line><line x1="116" y1="0" x2="116" y2="5" style="visibility: inherit;" fill="rgb(0, 0, 0)" stroke="rgb(204, 204, 204)" stroke-width="1px"></line><line x1="135.33333333333334" y1="0" x2="135.33333333333334" y2="5" style="visibility: inherit;" fill="rgb(0, 0, 0)" stroke="rgb(204, 204, 204)" stroke-width="1px"></line><line x1="154.66666666666666" y1="0" x2="154.66666666666666" y2="5" style="visibility: inherit;" fill="rgb(0, 0, 0)" stroke="rgb(204, 204, 204)" stroke-width="1px"></line><line x1="174" y1="0" x2="174" y2="5" style="visibility: inherit;" fill="rgb(0, 0, 0)" stroke="rgb(204, 204, 204)" stroke-width="1px"></line><line x1="193.33333333333331" y1="0" x2="193.33333333333331" y2="5" style="visibility: inherit;" fill="rgb(0, 0, 0)" stroke="rgb(204, 204, 204)" stroke-width="1px"></line><line x1="212.66666666666666" y1="0" x2="212.66666666666666" y2="5" style="visibility: inherit;" fill="rgb(0, 0, 0)" stroke="rgb(204, 204, 204)" stroke-width="1px"></line><line x1="232" y1="0" x2="232" y2="5" style="visibility: inherit;" fill="rgb(0, 0, 0)" stroke="rgb(204, 204, 204)" stroke-width="1px"></line><line x1="251.33333333333334" y1="0" x2="251.33333333333334" y2="5" style="visibility: inherit;" fill="rgb(0, 0, 0)" stroke="rgb(204, 204, 204)" stroke-width="1px"></line><line x1="270.6666666666667" y1="0" x2="270.6666666666667" y2="5" style="visibility: inherit;" fill="rgb(0, 0, 0)" stroke="rgb(204, 204, 204)" stroke-width="1px"></line><line x1="290" y1="0" x2="290" y2="5" style="visibility: inherit;" fill="rgb(0, 0, 0)" stroke="rgb(204, 204, 204)" stroke-width="1px"></line></g><g transform="translate(0, 8)"><text x="0" y="0" dx="0em" dy="0.95em" style="text-anchor: middle; visibility: hidden; font-family: &quot;Helvetica Neue&quot;, sans-serif; font-size: 12px; font-weight: 200;" fill="rgb(50, 49, 63)" stroke="none" stroke-width="1px">-20k</text><text x="19.333333333333332" y="0" dx="0em" dy="0.95em" style="text-anchor: middle; visibility: inherit; font-family: &quot;Helvetica Neue&quot;, sans-serif; font-size: 12px; font-weight: 200;" fill="rgb(50, 49, 63)" stroke="none" stroke-width="1px">0</text><text x="38.666666666666664" y="0" dx="0em" dy="0.95em" style="text-anchor: middle; visibility: hidden; font-family: &quot;Helvetica Neue&quot;, sans-serif; font-size: 12px; font-weight: 200;" fill="rgb(50, 49, 63)" stroke="none" stroke-width="1px">20k</text><text x="58" y="0" dx="0em" dy="0.95em" style="text-anchor: middle; visibility: inherit; font-family: &quot;Helvetica Neue&quot;, sans-serif; font-size: 12px; font-weight: 200;" fill="rgb(50, 49, 63)" stroke="none" stroke-width="1px">40k</text><text x="77.33333333333333" y="0" dx="0em" dy="0.95em" style="text-anchor: middle; visibility: hidden; font-family: &quot;Helvetica Neue&quot;, sans-serif; font-size: 12px; font-weight: 200;" fill="rgb(50, 49, 63)" stroke="none" stroke-width="1px">60k</text><text x="96.66666666666666" y="0" dx="0em" dy="0.95em" style="text-anchor: middle; visibility: inherit; font-family: &quot;Helvetica Neue&quot;, sans-serif; font-size: 12px; font-weight: 200;" fill="rgb(50, 49, 63)" stroke="none" stroke-width="1px">80k</text><text x="116" y="0" dx="0em" dy="0.95em" style="text-anchor: middle; visibility: hidden; font-family: &quot;Helvetica Neue&quot;, sans-serif; font-size: 12px; font-weight: 200;" fill="rgb(50, 49, 63)" stroke="none" stroke-width="1px">100k</text><text x="135.33333333333334" y="0" dx="0em" dy="0.95em" style="text-anchor: middle; visibility: inherit; font-family: &quot;Helvetica Neue&quot;, sans-serif; font-size: 12px; font-weight: 200;" fill="rgb(50, 49, 63)" stroke="none" stroke-width="1px">120k</text><text x="154.66666666666666" y="0" dx="0em" dy="0.95em" style="text-anchor: middle; visibility: hidden; font-family: &quot;Helvetica Neue&quot;, sans-serif; font-size: 12px; font-weight: 200;" fill="rgb(50, 49, 63)" stroke="none" stroke-width="1px">140k</text><text x="174" y="0" dx="0em" dy="0.95em" style="text-anchor: middle; visibility: inherit; font-family: &quot;Helvetica Neue&quot;, sans-serif; font-size: 12px; font-weight: 200;" fill="rgb(50, 49, 63)" stroke="none" stroke-width="1px">160k</text><text x="193.33333333333331" y="0" dx="0em" dy="0.95em" style="text-anchor: middle; visibility: hidden; font-family: &quot;Helvetica Neue&quot;, sans-serif; font-size: 12px; font-weight: 200;" fill="rgb(50, 49, 63)" stroke="none" stroke-width="1px">180k</text><text x="212.66666666666666" y="0" dx="0em" dy="0.95em" style="text-anchor: middle; visibility: inherit; font-family: &quot;Helvetica Neue&quot;, sans-serif; font-size: 12px; font-weight: 200;" fill="rgb(50, 49, 63)" stroke="none" stroke-width="1px">200k</text><text x="232" y="0" dx="0em" dy="0.95em" style="text-anchor: middle; visibility: hidden; font-family: &quot;Helvetica Neue&quot;, sans-serif; font-size: 12px; font-weight: 200;" fill="rgb(50, 49, 63)" stroke="none" stroke-width="1px">220k</text><text x="251.33333333333334" y="0" dx="0em" dy="0.95em" style="text-anchor: middle; visibility: inherit; font-family: &quot;Helvetica Neue&quot;, sans-serif; font-size: 12px; font-weight: 200;" fill="rgb(50, 49, 63)" stroke="none" stroke-width="1px">240k</text><text x="270.6666666666667" y="0" dx="0em" dy="0.95em" style="text-anchor: middle; visibility: hidden; font-family: &quot;Helvetica Neue&quot;, sans-serif; font-size: 12px; font-weight: 200;" fill="rgb(50, 49, 63)" stroke="none" stroke-width="1px">260k</text><text x="290" y="0" dx="0em" dy="0.95em" style="text-anchor: middle; visibility: hidden; font-family: &quot;Helvetica Neue&quot;, sans-serif; font-size: 12px; font-weight: 200;" fill="rgb(50, 49, 63)" stroke="none" stroke-width="1px">280k</text></g><line x1="0" y1="0" x2="290" y2="0" fill="rgb(0, 0, 0)" stroke="rgb(204, 204, 204)" stroke-width="1px"></line></g></g></g></g></svg>