<svg viewBox="0 0 330 200" xmlns="http://www.w3.org/2000/svg"><g><g><g><g><g><line x1="30" y1="178" x2="25" y2="178" style="visibility: inherit;" fill="rgb(0, 0, 0)" stroke="rgb(204, 204, 204)" stroke-width="1px"></line><line x1="30" y1="164.30769230769232" x2="25" y2="164.30769230769232" style="visibility: inherit;" fill="rgb(0, 0, 0)" stroke="rgb(204, 204, 204)" stroke-width="1px"></line><line x1="30" y1="150.6153846153846" x2="25" y2="150.6153846153846" style="visibility: inherit;" fill="rgb(0, 0, 0)" stroke="rgb(204, 204, 204)" stroke-width="1px"></line><line x1="30" y1="136.9230769230769" x2="25" y2="136.9230769230769" style="visibility: inherit;" fill="rgb(0, 0, 0)" stroke="rgb(204, 204, 204)" stroke-width="1px"></line><line x1="30" y1="123.23076923076923" x2="25" y2="123.23076923076923" style="visibility: inherit;" fill="rgb(0, 0, 0)" stroke="rgb(204, 204, 204)" stroke-width="1px"></line><line x1="30" y1="109.53846153846153" x2="25" y2="109.53846153846153" style="visibility: inherit;" fill="rgb(0, 0, 0)" stroke="rgb(204, 204, 204)" stroke-width="1px"></line><line x1="30" y1="95.84615384615384" x2="25" y2="95.84615384615384" style="visibility: inherit;" fill="rgb(0, 0, 0)" stroke="rgb(204, 204, 204)" stroke-width="1px"></line><line x1="30" y1="82.15384615384616" x2="25" y2="82.15384615384616" style="visibility: inherit;" fill="rgb(0, 0, 0)" stroke="rgb(204, 204, 204)" stroke-width="1px"></line><line x1="30" y1="68.46153846153845" x2="25" y2="68.46153846153845" style="visibility: inherit;" fill="rgb(0, 0, 0)" stroke="rgb(204, 204, 204)" stroke-width="1px"></line><line x1="30" y1="54.769230769230774" x2="25" y2="54.769230769230774" style="visibility: inherit;" fill="rgb(0, 0, 0)" stroke="rgb(204, 204, 204)" stroke-width="1px"></line><line x1="30" y1="41.076923076923066" x2="25" y2="41.076923076923066" style="visibility: inherit;" fill="rgb(0, 0, 0)" stroke="rgb(204, 204, 204)" stroke-width="1px"></line><line x1="30" y1="27.384615384615387" x2="25" y2="27.384615384615387" style="visibility: inherit;" fill="rgb(0, 0, 0)" stroke="rgb(204, 204, 204)" stroke-width="1px"></line><line x1="30" y1="13.69230769230768" x2="25" y2="13.69230769230768" style="visibility: inherit;" fill="rgb(0, 0, 0)" stroke="rgb(204, 204, 204)" stroke-width="1px"></line><line x1="30" y1="0" x2="25" y2="0" style="visibility: inherit;" fill="rgb(0, 0, 0)" stroke="rgb(204, 204, 204)" stroke-width="1px"></line></g><g transform="translate(20, 0)"><text x="0" y="178" dx="0em" dy="0.3em" style="text-anchor: end; visibility: hidden; font-family: &quot;Helvetica Neue&quot;, sans-serif; font-size: 12px; font-weight: 200;" fill="rgb(50, 49, 63)" stroke="none" stroke-width="1px">66</text><text x="0" y="164.30769230769232" dx="0em" dy="0.3em" style="text-anchor: end; visibility: inherit; font-family: &quot;Helvetica Neue&quot;, sans-serif; font-size: 12px; font-weight: 200;" fill="rgb(50, 49, 63)" stroke="none" stroke-width="1px">68</text><text x="0" y="150.6153846153846" dx="0em" dy="0.3em" style="text-anchor: end; visibility: hidden; font-family: &quot;Helvetica Neue&quot;, sans-serif; font-size: 12px; font-weight: 200;" fill="rgb(50, 49, 63)" stroke="none" stroke-width="1px">70</text><text x="0" y="136.9230769230769" dx="0em" dy="0.3em" style="text-anchor: end; visibility: inherit; font-family: &quot;Helvetica Neue&quot;, sans-serif; font-size: 12px; font-weight: 200;" fill="rgb(50, 49, 63)" stroke="none" stroke-width="1px">72</text><text x="0" y="123.23076923076923" dx="0em" dy="0.3em" style="text-anchor: end; visibility: hidden; font-family: &quot;Helvetica Neue&quot;, sans-serif; font-size: 12px; font-weight: 200;" fill="rgb(50, 49, 63)" stroke="none" stroke-width="1px">74</text><text x="0" y="109.53846153846153" dx="0em" dy="0.3em" style="text-anchor: end; visibility: inherit; font-family: &quot;Helvetica Neue&quot;, sans-serif; font-size: 12px; font-weight: 200;" fill="rgb(50, 49, 63)" stroke="none" stroke-width="1px">76</text><text x="0" y="95.84615384615384" dx="0em" dy="0.3em" style="text-anchor: end; visibility: hidden; font-family: &quot;Helvetica Neue&quot;, sans-serif; font-size: 12px; font-weight: 200;" fill="rgb(50, 49, 63)" stroke="none" stroke-width="1px">78</text><text x="0" y="82.15384615384616" dx="0em" dy="0.3em" style="text-anchor: end; visibility: inherit; font-family: &quot;Helvetica Neue&quot;, sans-serif; font-size: 12px; font-weight: 200;" fill="rgb(50, 49, 63)" stroke="none" stroke-width="1px">80</text><text x="0" y="68.46153846153845" dx="0em" dy="0.3em" style="text-anchor: end; visibility: hidden; font-family: &quot;Helvetica Neue&quot;, sans-serif; font-size: 12px; font-weight: 200;" fill="rgb(50, 49, 63)" stroke="none" stroke-width="1px">82</text><text x="0" y="54.769230769230774" dx="0em" dy="0.3em" style="text-anchor: end; visibility: inherit; font-family: &quot;Helvetica Neue&quot;, sans-serif; font-size: 12px; font-weight: 200;" fill="rgb(50, 49, 63)" stroke="none" stroke-width="1px">84</text><text x="0" y="41.076923076923066" dx="0em" dy="0.3em" style="text-anchor: end; visibility: hidden; font-family: &quot;Helvetica Neue&quot;, sans-serif; font-size: 12px; font-weight: 200;" fill="rgb(50, 49, 63)" stroke="none" stroke-width="1px">86</text><text x="0" y="27.384615384615387" dx="0em" dy="0.3em" style="text-anchor: end; visibility: inherit; font-family: &quot;Helvetica Neue&quot;, sans-serif; font-size: 12px; font-weight: 200;" fill="rgb(50, 49, 63)" stroke="none" stroke-width="1px">88</text><text x="0" y="13.69230769230768" dx="0em" dy="0.3em" style="text-anchor: end; visibility: hidden; font-family: &quot;Helvetica Neue&quot;, sans-serif; font-size: 12px; font-weight: 200;" fill="rgb(50, 49, 63)" stroke="none" stroke-width="1px">90</text><text x="0" y="0" dx="0em" dy="0.3em" style="text-anchor: end; visibility: hidden; font-family: &quot;Helvetica Neue&quot;, sans-serif; font-size: 12px; font-weight: 200;" fill="rgb(50, 49, 63)" stroke="none" stroke-width="1px">92</text></g><line x1="30" y1="0" x2="30" y2="178" fill="rgb(0, 0, 0)" stroke="rgb(204, 204, 204)" stroke-width="1px"></line></g></g><g transform="translate(30, 0)" clip-path="url(#clip_0)"><clipPath id="clip_0"><rect width="300" height="178"></rect></clipPath><g><g><g><line x1="0" y1="0" x2="0" y2="178" fill="rgb(0, 0, 0)" stroke="rgb(60, 60, 60)" stroke-width="1px" opacity="0.25"></line><line x1="20" y1="0" x2="20" y2="178" fill="rgb(0, 0, 0)" stroke="rgb(60, 60, 60)" stroke-width="1px" opacity="0.25"></line><line x1="40" y1="0" x2="40" y2="178" fill="rgb(0, 0, 0)" stroke="rgb(60, 60, 60)" stroke-width="1px" opacity="0.25"></line><line x1="60" y1="0" x2="60" y2="178" fill="rgb(0, 0, 0)" stroke="rgb(60, 60, 60)" stroke-width="1px" opacity="0.25"></line><line x1="80" y1="0" x2="80" y2="178" fill="rgb(0, 0, 0)" stroke="rgb(60, 60, 60)" stroke-width="1px" opacity="0.25"></line><line x1="100" y1="0" x2="100" y2="178" fill="rgb(0, 0, 0)" stroke="rgb(60, 60, 60)" stroke-width="1px" opacity="0.25"></line><line x1="120" y1="0" x2="120" y2="178" fill="rgb(0, 0, 0)" stroke="rgb(60, 60, 60)" stroke-width="1px" opacity="0.25"></line><line x1="140" y1="0" x2="140" y2="178" fill="rgb(0, 0, 0)" stroke="rgb(60, 60, 60)" stroke-width="1px" opacity="0.25"></line><line x1="160" y1="0" x2="160" y2="178" fill="rgb(0, 0, 0)" stroke="rgb(60, 60, 60)" stroke-width="1px" opacity="0.25"></line><line x1="180" y1="0" x2="180" y2="178" fill="rgb(0, 0, 0)" stroke="rgb(60, 60, 60)" stroke-width="1px" opacity="0.25"></line><line x1="200" y1="0" x2="200" y2="178" fill="rgb(0, 0, 0)" stroke="rgb(60, 60, 60)" stroke-width="1px" opacity="0.25"></line><line x1="219.99999999999997" y1="0" x2="219.99999999999997" y2="178" fill="rgb(0, 0, 0)" stroke="rgb(60, 60, 60)" stroke-width="1px" opacity="0.25"></line><line x1="240" y1="0" x2="240" y2="178" fill="rgb(0, 0, 0)" stroke="rgb(60, 60, 60)" stroke-width="1px" opacity="0.25"></line><line x1="260" y1="0" x2="260" y2="178" fill="rgb(0, 0, 0)" stroke="rgb(60, 60, 60)" stroke-width="1px" opacity="0.25"></line><line x1="280" y1="0" x2="280" y2="178" fill="rgb(0, 0, 0)" stroke="rgb(60, 60, 60)" stroke-width="1px" opacity="0.25"></line><line x1="300" y1="0" x2="300" y2="178" fill="rgb(0, 0, 0)" stroke="rgb(60, 60, 60)" stroke-width="1px" opacity="0.25"></line></g><g><line x1="0" y1="178" x2="300" y2="178" fill="rgb(0, 0, 0)" stroke="rgb(60, 60, 60)" stroke-width="1px" opacity="0.25"></line><line x1="0" y1="164.30769230769232" x2="300" y2="164.30769230769232" fill="rgb(0, 0, 0)" stroke="rgb(60, 60, 60)" stroke-width="1px" opacity="0.25"></line><line x1="0" y1="150.6153846153846" x2="300" y2="150.6153846153846" fill="rgb(0, 0, 0)" stroke="rgb(60, 60, 60)" stroke-width="1px" opacity="0.25"></line><line x1="0" y1="136.9230769230769" x2="300" y2="136.9230769230769" fill="rgb(0, 0, 0)" stroke="rgb(60, 60, 60)" stroke-width="1px" opacity="0.25"></line><line x1="0" y1="123.23076923076923" x2="300" y2="123.23076923076923" fill="rgb(0, 0, 0)" stroke="rgb(60, 60, 60)" stroke-width="1px" opacity="0.25"></line><line x1="0" y1="109.53846153846153" x2="300" y2="109.53846153846153" fill="rgb(0, 0, 0)" stroke="rgb(60, 60, 60)" stroke-width="1px" opacity="0.25"></line><line x1="0" y1="95.84615384615384" x2="300" y2="95.84615384615384" fill="rgb(0, 0, 0)" stroke="rgb(60, 60, 60)" stroke-width="1px" opacity="0.25"></line><line x1="0" y1="82.15384615384616" x2="300" y2="82.15384615384616" fill="rgb(0, 0, 0)" stroke="rgb(60, 60, 60)" stroke-width="1px" opacity="0.25"></line><line x1="0" y1="68.46153846153845" x2="300" y2="68.46153846153845" fill="rgb(0, 0, 0)" stroke="rgb(60, 60, 60)" stroke-width="1px" opacity="0.25"></line><line x1="0" y1="54.769230769230774" x2="300" y2="54.769230769230774" fill="rgb(0, 0, 0)" stroke="rgb(60, 60, 60)" stroke-width="1px" opacity="0.25"></line><line x1="0" y1="41.076923076923066" x2="300" y2="41.076923076923066" fill="rgb(0, 0, 0)" stroke="rgb(60, 60, 60)" stroke-width="1px" opacity="0.25"></line><line x1="0" y1="27.384615384615387" x2="300" y2="27.384615384615387" fill="rgb(0, 0, 0)" stroke="rgb(60, 60, 60)" stroke-width="1px" opacity="0.25"></line><line x1="0" y1="13.69230769230768" x2="300" y2="13.69230769230768" fill="rgb(0, 0, 0)" stroke="rgb(60, 60, 60)" stroke-width="1px" opacity="0.25"></line><line x1="0" y1="0" x2="300" y2="0" fill="rgb(0, 0, 0)" stroke="rgb(60, 60, 60)" stroke-width="1px" opacity="0.25"></line></g></g></g><g><g><line x1="0" y1="629.8461538461538" x2="300" y2="629.8461538461538" fill="rgb(0, 0, 0)" stroke="rgb(153, 153, 153)" stroke-width="1.5px"></line></g></g><g><g><line x1="20" y1="0" x2="20" y2="178" fill="rgb(0, 0, 0)" stroke="rgb(153, 153, 153)" stroke-width="1.5px"></line></g></g><g><g><g><g><g><path stroke="rgb(255, 112, 67)" stroke-width="2px" d="M28.4,200.93796104742023L28.851000000000003,173.06964708684816L29.101,158.1151960834037L29.201,153.2629442221251L29.250999999999998,151.852496360087L29.450999999999997,151.48219467828986L29.851,150.83999866274553L30.251,150.30420167683602L30.301000000000002,150.05300718837225L30.551000000000002,149.49930288283014L31.101,148.86234092541474L31.401,148.3700877991464L31.651,147.903587680076L31.801000000000002,147.62426175230252L32.401,147.05977802097695L32.701,146.66016286796307L32.951,146.41230990070972L33.301,146.0128045330885L33.501000000000005,145.7857153857116L33.601,145.66563346243072L34.551,144.92951193344825L34.801,144.52136626830452L34.851,144.36576046642887L35.101,144.15436508638675L35.351,143.90275976817867L35.451,143.73978433491948L35.851,143.3721772109701L35.900999999999996,143.21637487819115L36.251,142.90638485443918L36.451,142.69306096883926L36.901,142.2970040309613L37.301,141.8915742481819L38.052,131.6883737050248L38.251999999999995,128.80642308234204L38.752,128.00607804305452L38.852,127.75145925604664L40.952,127.08806419001264L41.002,126.89953908075309L41.402,126.7493817883598L41.852000000000004,126.60013174325749L41.952,126.54884862144107L42.002,126.5321474382765L42.152,126.51569305021802L42.452,126.40860137115773L42.902,126.22378925956704L43.052,126.07123587548881L43.102,126.01025989932788L43.602,125.84783810163434L44.452,125.55600812416894L44.552,125.4497757414124L45.252,125.18551537341536L45.501999999999995,125.02623871846993L45.602000000000004,124.93341083767146L45.752,124.87192505982013L46.152,124.74068430364697L46.452,124.61718198035939L46.552,124.54232575546605L46.653000000000006,118.3153382600871L46.953,116.74529874599872L47.203,115.55228905852022L47.703,115.2282063779189L48.00300000000001,115.12845876771759L48.303,115.01802406642554L48.503,115.12320923831336L48.803,115.1246373672535L48.903,115.08901527352123L49.053,115.05902369498077L49.153000000000006,115.01035601080045L49.202999999999996,114.99103915515946L49.453,115.04666894071481L49.503,115.03472951240524L49.952999999999996,114.91308767461629L50.253,114.93008592340351L50.353,114.89734330772646L50.603,114.93048135019055L50.853,114.97230518104882L50.953,114.98821607166745L51.553,114.88633680026L51.903,114.8234518518456L51.953,114.79946763046732L52.053,114.7696767970842L52.153,114.72490838909142L52.203,114.70467725915903L52.303,114.70215447357108L52.903,114.62936969787812L53.053,114.57623684554888L53.253,114.54731733568471L53.403,114.51703310072044L53.553,114.5012569099149L53.753,114.42895672620091L53.803,114.39684638534823L54.003,114.3741239417088L54.253,114.34723444766814L54.803,114.26344685642333L55.153,114.2073787834895L55.504,108.53501226128643L55.704,106.54723803930086L55.854000000000006,106.42186612567627L55.903999999999996,106.25032645804544L55.954,106.19904736978671L56.304,106.20556452456286L56.604,106.42729629406135L56.704,106.56518564161763L56.754,106.54732134800287L56.954,106.65837676094013L57.154,106.75107073232735L57.354,106.79127357941123L57.403999999999996,106.72201964237053L57.604,106.66365730778782L58.054,106.63287645399879L58.254,106.6111378549759L58.304,106.60670033241674L58.354000000000006,106.60068908766826L58.454,106.66696491440143L58.504000000000005,106.68915109400578L58.804,106.7126987795051L59.004,106.62894206840309L59.054,106.60220630920413L59.153999999999996,106.62497112738042L59.254000000000005,106.59819972162762L59.404,106.61440917514588L59.454,106.66022190603313L59.504000000000005,106.66270450422054L59.70399999999999,106.68399735590488L59.903999999999996,106.68797209260757L60.153999999999996,106.64609399923289L60.204,106.65747894721585L60.254000000000005,106.66820691283061L61.404,106.73782263199222L61.604000000000006,106.76550795527528L61.704,106.75081579882345L61.954,106.71873041047031L63.153999999999996,106.68332829766408L63.254,106.6732926623198L63.504000000000005,106.66991634765554L63.604,106.65270630735405L63.804,106.64717767120263L63.903999999999996,106.653526247293L64.255,107.88520734928558L64.555,101.26993930580358L64.755,99.50407520604773L65.105,99.29920951672345L65.205,99.29895527773715L65.505,99.46479920492199L65.605,99.60621433516951L65.755,99.66147227878483L65.905,99.71457550556308L66.305,99.72553398636693L66.355,99.70673783732386L66.50500000000001,99.74482763030623L66.855,99.8133650465288L67.005,99.88957425347944L67.455,100.00442802931158L67.655,100.06956002077891L67.805,100.12222515814551L67.85499999999999,100.12226630232651L68.30499999999999,100.23372085937282L68.355,100.28584061600374L68.555,100.35727077470123L68.655,100.37946763283864L68.705,100.40700382416281L68.905,100.46308830873852L68.955,100.4879208210471L69.105,100.48944746495145L69.155,100.49838793633789L69.555,100.45459925960101L69.75500000000001,100.46010948369087L69.855,100.4730237719966L69.955,100.47660555923942L70.005,100.46824699463862L70.455,100.44029199061293L70.605,100.44810263530742L71.005,100.44371834599336L71.10499999999999,100.41805249673673L71.355,100.42782957207544L71.605,100.45895230977999L71.955,100.47454130253436L72.605,100.47947393720337L72.905,100.50336648254321L73.05499999999999,100.50888893787071L73.106,99.44891965095637L73.306,95.79186712782153L73.506,94.37501312953864L73.60600000000001,93.7784061206337L73.856,93.8248312515672L73.906,93.92877543466489L74.35600000000001,93.913707245878L74.656,94.07152387232485L74.856,94.21915954019052L74.906,94.31683135345592L75.40599999999999,94.35443256362018L75.656,94.46786828931216L76.35600000000001,94.6533039306789L76.456,94.68173219295069L77.456,94.90283450069629L77.506,94.97881766823028L77.70599999999999,95.05528623064487L77.756,95.08685552720877L77.806,95.09113445451185L78.706,95.17801072538226L78.956,95.22831448188761L79.306,95.27941957884737L79.356,95.26988867178753L79.65599999999999,95.31975238926535L79.756,95.32944651803035L80.006,95.35846031461512L80.106,95.38061941903528L81.306,95.4305570391834L81.406,95.44418551620217L81.506,95.45149155104461L81.90599999999999,95.47068488033375L82.007,92.34315436358936L82.407,90.88969434421423L82.557,90.07629574504612L82.707,89.56833215566158L83.357,89.55067554532381L83.70700000000001,89.55850446601234L84.007,89.7559867035732L84.307,89.87303653888524L84.357,89.91893739927825L84.657,89.90470085432374L85.157,90.09644094993824L85.407,90.18134822079129L85.457,90.22744159908741L85.607,90.29019011193778L85.907,90.3042615529999L86.007,90.35659911174591L86.157,90.38198941698616L86.307,90.40477990708953L86.457,90.43304262409505L86.50699999999999,90.45607327682444L87.407,90.58817215112882L88.157,90.73185842118001L88.907,90.92022674162969L89.057,90.98609721372618L89.10699999999999,91.0207758170438L89.207,91.04957028830734L89.25699999999999,91.06032924924014L90.30699999999999,91.11766929854763L90.357,91.14722940660154L90.607,91.17386676838218L90.75699999999999,91.19114482806577L90.908,86.42526331160708L91.00800000000001,84.81988962017238L91.208,84.55278914932926L91.408,84.72406211241828L91.608,84.66392866274067L92.858,85.44053596200956L92.908,85.71260336391089L93.458,85.81341884768368L93.858,85.96172350211155L93.908,86.04716479327172L94.058,86.16285038684342L94.15799999999999,86.22629411610947L94.208,86.24785004091008L94.658,86.29223203347571L95.008,86.3892745412138L95.758,86.47739901698026L95.80799999999999,86.50829697325442L95.958,86.57698027004874L96.908,86.76072671510418L97.158,86.82795280503989L97.208,86.84625594930944L97.30799999999999,86.85642688057109L97.658,86.92638736311213L98.008,86.99567444633225L98.05799999999999,87.03214584351508L98.508,87.09924711843917L98.70800000000001,87.1344046498234L98.80799999999999,87.13043663401704L99.00800000000001,87.15962958874407L99.45800000000001,87.2216223384434L99.759,82.41646880179968L99.809,81.68598841463475L100.059,81.4838823797277L100.459,81.56792801019239L100.909,81.98297007316741L100.959,82.09015211156867L101.15899999999999,82.1250123411404L101.409,82.1144835889107L101.559,82.13022772719533L101.659,82.16972181688155L101.80900000000001,82.24665112664496L101.959,82.16896392836315L102.159,82.13008218388L102.55900000000001,82.22273020513772L102.95899999999999,82.37161930051741L103.159,82.4444025194221L103.30900000000001,82.47936338888334L103.359,82.48517166174085L103.659,82.52080749405265L104.109,82.66623071022383L104.309,82.74049697138668L104.35900000000001,82.75623217904376L104.409,82.78800892185467L104.50900000000001,82.83450653726479L104.659,82.84871175873056L105.009,82.96255085625124L105.459,83.0419668442589L105.509,83.05248292484092L105.959,83.10872636267241L106.15899999999999,83.14899933392572L106.259,83.18919771559234L106.40899999999999,83.22012343163983L106.659,83.2683766713565L106.709,83.29192011998417L106.809,83.299531590664L106.859,83.31004157324045L106.90899999999999,83.31696049584161L107.15899999999999,83.35863325842801L107.85900000000001,83.45329081371008L108.30900000000001,83.55572695264672L108.56,79.21721370300037L108.91,78.27466599359995L108.96000000000001,78.1792108872289L109.41000000000001,77.76381722359432L109.76,77.94153366054287L110.36,78.0502040744625L110.71,78.15216408300961L110.81,78.21613356234278L111.00999999999999,78.29312957018651L111.50999999999999,78.4661707999547L111.56,78.52199534633792L111.71000000000001,78.57113700205718L111.96,78.67436052153438L112.16000000000001,78.74379122859447L112.81,79.00095983374133L112.96,79.13167434022155L113.26,79.24309944421267L113.30999999999999,79.27506447916599L113.36,79.26575122569848L114.16,79.47297171029527L115.06,79.78357940512215L115.36,79.93467656483219L115.71,80.07408078363991L116.00999999999999,80.18080032010931L116.21000000000001,80.22173740813842L116.31,80.22473168339783L116.41,80.22628808928545L116.71000000000001,80.25205619607274L116.86,80.27836033040771L116.96,80.30537370909832L117.10999999999999,80.32451956934759L117.25999999999999,80.34009861466323L117.361,67.45795011193057L117.811,71.38731366939652L117.91099999999999,72.80143838229431L118.511,74.00295598743844L118.561,74.28926270941137L118.611,74.39643404635333L119.311,74.76232709031453L119.511,74.9321304743187L119.711,75.08657966118835L119.911,75.18454053466215L119.961,75.15659894393984L120.111,75.13655305917732L120.21100000000001,75.1702460667729L120.31099999999999,75.25143128650949L120.711,75.39088530683254L120.811,75.49831446947249L120.96100000000001,75.57968309206248L121.111,75.63027236160694L121.26100000000001,75.6928340207756L121.36099999999999,75.75035866899192L121.511,75.78688445147132L122.461,76.12964602157048L123.06099999999999,76.39908937719686L123.111,76.50317607416426L123.161,76.55696108781802L123.26100000000001,76.58984217390784L123.31099999999999,76.61648864413455L123.411,76.65267220030546L123.511,76.68853595292899L123.711,76.76390085029425L123.911,76.8124330654286L124.161,76.86728450149083L124.261,76.90852924364518L124.611,76.97640439875086L124.76100000000001,77.01654720698254L125.011,77.07392743301574L125.21100000000001,77.14887354005722L125.461,77.19775542937376L125.561,77.22931182778674L125.61099999999999,77.22704221495258L126.161,77.3411307238496L126.31200000000001,73.6203616076672L126.462,71.72549787251205L126.61200000000001,70.91821311532183L126.662,70.53709054498572L126.812,70.34337679024229L126.862,70.45359598150254L126.962,70.34783428291986L127.21199999999999,70.52688804451014L127.262,70.59577757151867L127.612,71.02554119147136L127.66199999999999,71.1909595587448L127.86200000000001,71.38815093994549L127.96199999999999,71.56196805983443L128.062,71.72665228177623L128.262,71.77481442655142L128.762,71.97211166288884L128.862,72.02471960069207L128.962,72.12192646041728L129.012,72.14940664765423L129.21200000000002,72.25388295667985L129.362,72.34306757583734L129.762,72.52473787622931L129.96200000000002,72.62845196495718L130.662,72.78852179788936L130.862,72.88710855540502L130.962,72.94099858271602L131.212,73.07485997614448L131.262,73.12207493855023L131.362,73.15016970399594L131.46200000000002,73.15739157422841L131.512,73.17370778645875L131.612,73.20039384416329L131.712,73.24689987509771L131.762,73.27971788592546L132.112,73.35961685926098L132.262,73.44651045215929L132.512,73.53012775722983L133.462,73.81250260047501L133.962,74.0082916431796L134.262,74.14633221482138L134.412,74.24163737290498L134.562,74.2876691880396L134.712,74.3343848980698L134.762,74.3584542727563L134.812,74.36344477839015L135.263,70.225163499435L135.31300000000002,69.03318461360759L135.363,68.1432423150469L135.463,67.9055461127645L136.06300000000002,68.0806313067861L136.113,68.122663454442L136.213,68.11073972424583L136.613,68.3452569937086L137.063,68.76624564904407L137.913,69.27092658637113L138.613,69.72111885021647L138.81300000000002,69.89778454751162L138.863,69.97312388682712L138.963,70.05166616995443L139.363,70.22795002517131L139.463,70.29626451711049L139.66299999999998,70.37302840767971L140.163,70.55382435717095L140.563,70.62528403529136L140.613,70.64123757781248L141.16299999999998,70.80104824243182L141.563,70.92449281041364L141.863,71.04858126973173L141.91299999999998,71.09589903161068L142.013,71.15773517532229L142.113,71.19277566358677L142.363,71.23948459210496L143.31300000000002,71.4172968499873L143.613,71.54873782678106L143.663,71.59987008977109L144.114,65.22772086063407L144.214,64.013211488997L144.364,63.79481580265612L144.414,64.03660412002242L144.464,64.3092466638162L145.01399999999998,64.71966233297906L145.164,64.8726585195114L145.464,65.06433168859078L145.714,65.31579720367387L145.814,65.49145441331822L145.914,65.57522962139636L146.014,65.69290163365827L146.464,66.09996978255924L146.664,66.24249204983312L146.864,66.37248663096929L146.964,66.4695095437906L147.114,66.58238089001154L147.564,66.88051536516677L147.614,66.98794441151448L148.114,67.21859730332217L148.214,67.3489620762694L148.81400000000002,67.5273742753936L148.864,67.60045882239429L148.914,67.62055606618948L149.114,67.69137382293677L149.314,67.79269081931946L149.614,67.89076293192494L149.664,67.93945295372117L149.814,68.00857450775476L150.214,68.12323979523511L150.464,68.23390856060337L150.614,68.31921061890596L150.764,68.39836516133285L150.814,68.42002746691321L151.214,68.51043688058635L151.51399999999998,68.59613267926007L151.814,68.73576987626903L152.064,68.81989061441698L152.965,63.61699526284448L153.165,62.48057962978487L153.26500000000001,62.062617950214815L153.51500000000001,62.12662270994048L153.765,62.47503204238042L154.41500000000002,63.21588695787264L154.61499999999998,63.584393056919396L154.76500000000001,63.79563775303211L155.515,64.0198491862988L156.065,64.38703403351509L156.11499999999998,64.52113786367528L156.26500000000001,64.623890727154L156.565,64.77263034586935L156.915,64.88595299254544L156.965,64.9256535218998L157.015,64.94747209275909L157.065,64.97083637082284L157.115,64.99177593096591L157.16500000000002,65.0230664847811L157.565,65.13051402408522L158.715,65.4516278564707L158.765,65.56170947087978L158.815,65.60200987401637L159.165,65.7256153335616L159.715,65.89121382886584L159.815,65.96868080609298L160.415,66.15272236128774L160.465,66.21170075567454L160.615,66.27436603349322L160.71499999999997,66.32044117178927L160.76500000000001,66.3519599178303L160.865,66.39282264848238L161.76600000000002,62.85410402486325L162.01600000000002,61.12906357909742L162.166,60.512832948898264L162.316,60.33527624105844L162.766,60.527013911981044L162.816,60.70478896691998L163.11599999999999,60.89446269574759L163.216,60.95505761741195L163.26600000000002,61.02983469855364L163.566,61.30732716784817L163.716,61.35902155217238L164.016,61.55449003029261L164.11599999999999,61.584904396219784L164.216,61.623205506065474L164.36599999999999,61.72306717456233L165.066,61.977116662096776L165.166,62.095268588153516L165.216,62.14866630736556L165.266,62.178104026167816L165.816,62.38605420542774L166.316,62.52796249247271L166.716,62.68172125553552L167.566,63.011244094133616L167.916,63.23748436856465L167.96599999999998,63.33793355472889L168.116,63.42302160694608L168.61599999999999,63.5805748710374L168.916,63.69529848951886L169.11599999999999,63.8007197677091L169.366,63.896074424998005L169.466,63.945704205692024L169.56599999999997,63.97913027979281L169.666,63.99818901632976L169.766,64.01491192152682L169.966,64.06654586086306L170.016,64.08265760356772L170.166,64.14028724078719L170.46599999999998,64.2216334674398L170.517,57.069422016550334L170.667,57.128142607444076L171.06699999999998,57.73817945074664L171.167,57.977679421161554L171.217,58.00803108136273L171.267,58.04781243814088L171.667,57.910352853850696L172.417,58.34252501274334L172.517,58.49195692211103L172.617,58.69327359302824L172.717,58.81736030572931L172.817,58.934657988898024L173.26700000000002,59.09072260841447L173.46699999999998,59.26872790735533L174.117,59.58029664650803L174.317,59.76513672109711L175.267,60.11670767047585L176.01700000000002,60.50356323263313L176.067,60.63336736597381L176.36700000000002,60.76784617311472L176.417,60.81261386639508L176.517,60.85726846918837L176.667,60.92309534037341L176.917,61.03446879141494L177.117,61.1301466043153L177.217,61.2036754580637L178.017,61.43695513422655L178.367,61.591654132008586L178.567,61.69349243899042L178.917,61.786017209424L178.96699999999998,61.82905772630386L179.317,61.92335779734577L179.418,58.13957823388529L180.61800000000002,56.333743587353126L180.768,55.825594044599086L181.118,55.93387569967035L181.268,56.088039883691664L181.318,56.23234951205767L181.41799999999998,56.38470805796301L181.468,56.467197402271026L181.818,56.63197822092546L182.46800000000002,56.93628899944325L182.71800000000002,57.10889702416438L183.168,57.28963503789467L183.26799999999997,57.39105850828858L183.368,57.466640120939886L183.71800000000002,57.66861664424853L184.368,57.94792591452982L184.468,58.065465796444315L184.768,58.196521265000015L185.168,58.363221328418334L185.46800000000002,58.489317714537464L185.518,58.53657973114693L185.568,58.555986760202046L185.768,58.607109690076186L186.01799999999997,58.716411952714765L186.36800000000002,58.871430755097805L186.768,59.04912230889872L186.96800000000002,59.17211772106505L187.16799999999998,59.25318373128346L187.268,59.301744409593155L187.568,59.38801149144774L187.81799999999998,59.4605818085935L187.918,59.493577562409826L188.018,59.52917966004284L188.168,59.587793603729494L188.369,54.86871807661163L188.969,53.22199413673802L189.219,52.849656642275946L189.46900000000002,53.02449497054114L190.369,53.62468787480114L190.569,53.95070287122944L190.719,54.13790245307189L190.96900000000002,54.26506652027024L191.31900000000002,54.610047452418996L191.51899999999998,54.81511209620875L191.619,54.885223654779125L191.919,55.044536142219556L191.969,55.105053605774344L192.269,55.252895699276706L192.619,55.41450396368924L192.91899999999998,55.5656171169351L193.06900000000002,55.64330879230717L193.369,55.76829634628223L193.91899999999998,56.0212548716206L194.019,56.13165734058023L194.51899999999998,56.35274541102699L194.669,56.49387851504112L194.769,56.5681739891766L195.019,56.6811008361385L195.81900000000002,56.96214075546146L195.919,57.080894517804325L196.169,57.16595301955404L196.219,57.206058970112835L196.419,57.27549373285704L196.519,57.32206409557455L196.819,57.42597872339522L196.869,57.47887118096466L197.17,52.046245723655446L197.77,50.61535757564536L198.02,50.20481108316535L198.62,50.27341695541466L198.67000000000002,50.3070880584732L198.97,50.218214956078626L199.02,50.17773243585454L199.72,50.33439630874997L199.92,50.4347765835242L200.01999999999998,50.53739391725229L200.12,50.604704961064414L200.26999999999998,50.65502569683426L200.42000000000002,50.690743114605425L200.87,50.78072563636104L201.17,50.911118877337856L201.27,50.99177174296024L201.82,51.182399675213134L201.87,51.26558392562586L202.17000000000002,51.36702775431034L202.52,51.46334635870751L203.72,51.734138818782625L204.02,51.860202066683456L204.12,51.92595471931392L205.17,52.14414125541258L205.32,52.232887468927714L205.52,52.2792550322761L205.57000000000002,52.300879968967735L205.62,52.31446055675855L205.871,40.429683391261335L206.021,43.958527021960805L206.12099999999998,44.577553740227074L206.571,44.35149593821143L206.921,44.751128959592165L207.171,45.10432357932899L207.571,45.482489078662695L207.77100000000002,45.71637529415548L207.97099999999998,45.866027829664176L208.621,46.27161172649093L208.721,46.45752704305622L208.87099999999998,46.60847358110351L209.47099999999998,46.81887336846421L209.671,46.97954180414655L209.921,47.15497950807844L210.021,47.25159539379601L210.52100000000002,47.48620713141631L210.62099999999998,47.63794200627433L210.721,47.71150583421027L211.371,47.927136360483246L212.171,48.27094292653061L212.421,48.44198128447215L212.771,48.59003691839459L212.921,48.68567753951709L213.021,48.74208402967744L214.021,49.02627716531481L214.071,49.124478197765285L214.121,49.15616881427249L214.371,49.228234276061386L214.471,49.27775103045215L214.922,44.32106944976067L215.322,43.02210543012427L215.622,42.861735635291126L215.672,42.865799250345475L215.87199999999999,42.909723225186326L216.422,43.20395563332747L216.72199999999998,43.44330121777398L217.022,43.77590453581749L217.172,43.93908474340756L217.922,44.29048302894171L218.122,44.486138532856245L218.472,44.71909161150205L218.672,44.8895607142762L218.92200000000003,45.03408183028728L219.172,45.197545669128345L219.372,45.289033774262435L219.422,45.33209235320726L219.972,45.50749325959799L220.022,45.57671286388447L220.572,45.77019955158573L220.672,45.87281513093171L220.72199999999998,45.92093038522685L221.072,46.08402770471696L221.172,46.15233497579686L221.222,46.194545226344076L221.272,46.224538881999536L221.32199999999997,46.2545237997974L221.62199999999999,46.29448763310327L222.722,46.56943360776461L222.872,46.68698074761264L223.572,46.8917847666516L223.773,41.98311529919249L223.823,40.257319796713915L223.923,40.07328622644283L224.323,40.47327811130356L224.573,40.74197498236947L224.923,41.148355082038165L226.323,41.857571041119144L227.223,42.42594179056971L227.473,42.65999847720627L227.923,42.891931005376506L227.97299999999998,42.98030384056278L228.523,43.1733574509031L228.57299999999998,43.26052345888499L228.673,43.307221333507556L228.773,43.36583683133611L228.923,43.41764389279405L228.973,43.435599130034035L229.073,43.47930310279855L230.223,43.85972022630605L230.47299999999998,44.041120190581864L230.623,44.16903061612513L230.773,44.2676220266344L231.023,44.35522398826757L231.573,44.549435707973714L232.02300000000002,44.73124359409661L232.173,44.8351452081682L232.22299999999998,44.8712881796192L232.624,39.996954867253436L232.92399999999998,38.902582366125614L233.724,38.704213407065794L234.024,38.80795386258333L234.22400000000002,38.97538064917842L234.374,39.07562605670148L234.674,39.338309706564985L234.77400000000003,39.431227890278535L235.224,39.77068817017482L235.424,39.944590756566214L235.72400000000002,40.11061686507844L235.974,40.31577836114991L236.27399999999997,40.495094320018694L236.724,40.695321544108936L237.07399999999998,40.87509502890657L237.274,40.96774666240549L237.724,41.15967079343699L237.874,41.258563551639156L238.47400000000002,41.494187412659784L238.824,41.73412194880174L238.974,41.88003149477805L239.074,41.9590505180511L239.124,41.99763712431556L239.324,42.073599503336595L239.374,42.11521785618433L239.424,42.13962270642713L240.024,42.36884140411942L240.324,42.523418980543255L240.374,42.58551408809336L240.474,42.61134541435996L240.774,42.7249795403049L240.924,42.7871131435669L241.22400000000002,42.89715923979483L241.375,39.03806837693779L241.725,36.935714794087176L242.225,36.5060653903746L242.525,36.730399974590654L242.72500000000002,36.87009391393292L242.875,36.88882153026836L243.27499999999998,37.002298913163344L243.375,37.08621324995187L244.025,37.46348352172919L244.22500000000002,37.708179578003154L244.275,37.79943084906205L245.225,38.3359742977249L245.275,38.500154824060616L245.425,38.62754284379653L245.775,38.844074104265815L245.875,38.929179368167524L246.27499999999998,39.17573069221106L246.375,39.28117632107603L246.425,39.33610026242107L247.075,39.61999488303829L247.17499999999998,39.74823378360898L247.225,39.80286603727623L247.675,39.93040542791968L247.825,40.011006511376195L248.375,40.22710290603078L248.525,40.34611731026706L248.625,40.40653781806134L248.725,40.46137262612379L249.325,40.64005046440721L250.126,30.757929645500866L250.376,32.841830434083704L250.87599999999998,33.92914948375957L251.176,34.58660059792612L251.526,34.935679604708355L251.82600000000002,35.154185514525494L251.92600000000002,35.252204704087234L252.12599999999998,35.48391025390575L252.476,35.74925016592164L252.526,35.85309301477048L252.576,35.927937944714415L253.07600000000002,36.16036932192844L254.126,36.72698183398842L254.376,36.996488457009946L254.626,37.19518107877596L254.92600000000002,37.38392728365008L255.426,37.61422257408623L255.676,37.77489998849691L255.976,37.921236710791845L256.176,38.03833566449214L256.226,38.081472517537975L256.626,38.240736322663L256.776,38.331768790616565L256.826,38.38119878669295L256.926,38.44085329539422L257.076,38.507926084208805L257.126,38.53985757802337L257.176,38.564464175074676L257.426,38.64317940849071L257.526,38.71172917561219L257.676,38.79013583219847L257.726,38.826344984090895L257.776,38.85548893270848L257.82599999999996,38.87406740453466L257.926,38.915728040902906L258.076,38.96683613265475L258.126,38.99737852111778L258.426,39.09246289199115L258.726,39.213198591436765L258.826,39.28649358105565L258.976,39.34844478780835L259.527,34.50569263481006L259.927,33.08277503710022L259.977,32.67447346008589L260.027,32.586790397588544L260.327,32.75616747628527L260.677,33.17878370752274L260.92699999999996,33.43843636066049L261.277,33.6843364126303L261.927,34.25893826697575L262.22700000000003,34.55826349725771L262.327,34.67445912354637L262.47700000000003,34.78251574844461L262.827,34.95167613472725L263.127,35.14775981485852L263.277,35.25974665736706L263.377,35.34123946211025L263.427,35.401189399856065L263.877,35.644581614784784L264.377,35.90545692180399L264.427,35.99154386881514L264.827,36.183143902174805L265.42699999999996,36.41425877875045L265.577,36.53006405987588L265.727,36.63091047444195L266.377,36.927192465593606L266.777,37.166933550506684L267.177,37.38554424925286L267.227,37.47635551908556L267.377,37.554859393387204L267.477,37.60254174370351L267.527,37.63699233455941L268.178,32.32003869345678L268.478,30.86414568114779L268.578,30.386245070592906L269.328,30.232600851312412L269.678,30.349795291169812L269.978,30.464732793236607L270.128,30.461189141512875L270.178,30.482867862589842L270.478,30.60878429723482L271.128,30.877487384554342L271.228,30.993527282260942L271.27799999999996,31.060111982473586L271.32800000000003,31.09248204820514L271.628,31.211404974944628L271.878,31.287702686143206L272.528,31.502654318744902L273.328,31.796861406050112L273.678,31.955725538420324L273.928,32.07318241137588L273.978,32.110649780034635L274.27799999999996,32.18514295318491L274.728,32.297836610602474L274.878,32.39932172151845L274.928,32.43821317060221L275.028,32.481360836979235L275.32800000000003,32.563700583669686L275.378,32.583941894132636L275.478,32.62511419712729L275.728,32.6963679242524L275.878,32.73869430108505L276.628,32.9285370716882L276.829,27.705732212439443L277.129,26.809189345691692L277.479,26.466041363690977L277.679,26.5381212070904L277.829,26.67429517842075L278.579,26.947391773365467L278.979,27.144931079936356L279.179,27.250005566750616L279.22900000000004,27.29370319402608L280.12899999999996,27.74161261554707L280.279,27.930755926340765L280.329,28.012178543696308L280.429,28.06973086882931L280.529,28.106045579947164L280.579,28.1374515031045L280.779,28.23378211935082L280.829,28.279134386969616L281.379,28.484875511309497L281.67900000000003,28.637601677393775L281.879,28.7506943544426L283.029,29.198435469794333L283.679,29.573374998942455L284.079,29.775361627819052L284.329,29.898442768506527L284.379,29.936683357332385L284.479,29.97546765133663L284.529,29.996828539560397L284.579,30.010914911308475L285.029,30.16486387581145L285.079,30.221834474961753L285.529,30.367223137710994" style="fill: none;" fill="none"></path></g></g></g></g><g opacity="0.2"><g><g><g><path stroke="rgb(255, 112, 67)" stroke-width="2px" d="M28.4,200.59475737351636L28.851000000000003,161.12608396089993L29.101,151.70614565335788L29.201,151.18340771014874L29.250999999999998,151.2480187049279L29.450999999999997,151.32349395751953L29.851,150.5647717989408L30.251,150.07457439716046L30.301000000000002,149.94535240760217L30.551000000000002,149.26200103759766L31.101,148.58935722937952L31.401,148.15912217360278L31.651,147.7036590576172L31.801000000000002,147.50455064039966L32.401,146.81785642183743L32.701,146.48889923095703L32.951,146.30608720045825L33.301,145.84158794696515L33.501000000000005,145.68839146540716L33.601,145.61416978102466L34.551,144.61403127817007L34.801,144.34644669752856L34.851,144.299072265625L35.101,144.06376706636868L35.351,143.79492891751804L35.451,143.66993772066556L35.851,143.21463130070612L35.900999999999996,143.14960244985727L36.251,142.77353198711688L36.451,142.6016364464393L36.901,142.12726534329929L37.301,141.7178186269907L38.052,127.31557347224309L38.251999999999995,127.57130138690655L38.752,127.66307302621695L38.852,127.64233691875751L40.952,126.80375201885516L41.002,126.81874260535606L41.402,126.68502866304837L41.852000000000004,126.53616743821364L41.952,126.52687014066257L42.002,126.52498978834886L42.152,126.5086411696214L42.452,126.36270493727464L42.902,126.14458406888522L43.052,126.00585585374098L43.102,125.98412733811598L43.602,125.77822875976562L44.452,125.43093813382663L44.552,125.4042475773738L45.252,125.07226092998798L45.501999999999995,124.95797729492188L45.602000000000004,124.8936274601863L45.752,124.84557401216946L46.152,124.68443826528696L46.452,124.56425241323618L46.552,124.51024451622597L46.653000000000006,115.6466293334961L46.953,116.07242466853215L47.203,115.04099919245793L47.703,115.08931380051833L48.00300000000001,115.08570979191707L48.303,114.97069490872897L48.503,115.16828859769382L48.803,115.12524942251352L48.903,115.07374866192157L49.053,115.04617016132062L49.153000000000006,114.98949843186598L49.202999999999996,114.98276050274188L49.453,115.07051027738132L49.503,115.02961261455829L49.952999999999996,114.86095545842097L50.253,114.93737088716946L50.353,114.88331075815054L50.603,114.94468336838942L50.853,114.99022967998798L50.953,114.99503502478966L51.553,114.8426742553711L51.903,114.79650115966797L51.953,114.78918867844801L52.053,114.7569092970628L52.153,114.70572192852313L52.203,114.69600677490234L52.303,114.70107327974759L52.903,114.59817622258113L53.053,114.553465623122L53.253,114.53492326002855L53.403,114.5040541428786L53.553,114.49449568528395L53.753,114.39797093318059L53.803,114.38308481069711L54.003,114.36438575157753L54.253,114.33571037879356L54.803,114.227537888747L55.153,114.183349609375L55.504,106.10399803748497L55.704,105.6953348013071L55.854000000000006,106.36813530555138L55.903999999999996,106.17680945763222L55.954,106.17707061767578L56.304,106.20835759089543L56.604,106.52232419527493L56.704,106.62428107628456L56.754,106.53966522216797L56.954,106.70597193791316L57.154,106.7907967200646L57.354,106.80850337101863L57.403999999999996,106.69233938363882L57.604,106.63864487868089L58.054,106.61968465951773L58.254,106.60182131253757L58.304,106.60479853703426L58.354000000000006,106.59811283991887L58.454,106.69536884014423L58.504000000000005,106.6986594566932L58.804,106.72279064471905L59.004,106.59304633507362L59.054,106.5907481266902L59.153999999999996,106.63472747802734L59.254000000000005,106.58672626201923L59.404,106.62135608379657L59.454,106.67985593355618L59.504000000000005,106.6637684748723L59.70399999999999,106.69312286376953L59.903999999999996,106.68967555119441L60.153999999999996,106.62814624492938L60.204,106.66235821063702L60.254000000000005,106.6728046123798L61.404,106.76765794020433L61.604000000000006,106.77737309382512L61.704,106.74451916034405L61.954,106.70497952974759L63.153999999999996,106.66815596360426L63.254,106.66899167574368L63.504000000000005,106.66846935565655L63.604,106.64533057579628L63.804,106.64480825570914L63.903999999999996,106.65624706561749L64.255,108.41307067871094L64.555,98.43482443002554L64.755,98.74727630615234L65.105,99.21140993558444L65.205,99.29884631817157L65.505,99.53587517371544L65.605,99.6668208195613L65.755,99.68515425461989L65.905,99.73733403132512L66.305,99.73023047814003L66.355,99.6986823448768L66.50500000000001,99.76115182729868L66.855,99.84273822490985L67.005,99.92223534217247L67.455,100.05365107609676L67.655,100.09747373140775L67.805,100.14479593130258L67.85499999999999,100.12228393554688L68.30499999999999,100.28148709810696L68.355,100.3081776545598L68.555,100.38788369985727L68.655,100.38898057204027L68.705,100.41880504901593L68.905,100.48712451641376L68.955,100.49856332632211L69.105,100.49010174091046L69.155,100.5022195669321L69.555,100.43583268385667L69.75500000000001,100.46247100830078L69.855,100.47855846698468L69.955,100.47814061091496L70.005,100.46466475266676L70.455,100.42831127460187L70.605,100.45145005446214L71.005,100.44183936485878L71.10499999999999,100.40705284705528L71.355,100.43201974722055L71.605,100.472290625939L71.955,100.48122229942909L72.605,100.48158792349008L72.905,100.51360614483173L73.05499999999999,100.5112557044396L73.106,98.99464709942157L73.306,94.22455890362079L73.506,93.76778998741737L73.60600000000001,93.52271740253155L73.856,93.844727736253L73.906,93.97332294170673L74.35600000000001,93.9072494506836L74.656,94.1391595693735L74.856,94.28243196927585L74.906,94.3586907019982L75.40599999999999,94.37054736797626L75.656,94.51648360032301L76.35600000000001,94.73277634840746L76.456,94.69391573392429L77.456,94.99759263258714L77.506,95.01138188288762L77.70599999999999,95.08805847167969L77.756,95.10038522573618L77.806,95.0929682804988L78.706,95.21524341289813L78.956,95.24987323467548L79.306,95.30132176325871L79.356,95.26580399733324L79.65599999999999,95.34112255389874L79.756,95.33360114464394L80.006,95.37089479886569L80.106,95.39011617807242L81.306,95.45195887638972L81.406,95.4500262920673L81.506,95.45462270883414L81.90599999999999,95.47891059288612L82.007,91.00278414212741L82.407,90.26678290733925L82.557,89.72769634540265L82.707,89.35063347449669L83.357,89.54310842660757L83.70700000000001,89.56185971773587L84.007,89.84062194824219L84.307,89.92320075401894L84.357,89.93860919658954L84.657,89.89859947791466L85.157,90.17861527663011L85.407,90.21773705115685L85.457,90.24719590407152L85.607,90.31708233173077L85.907,90.31029217059796L86.007,90.3790294940655L86.157,90.3928709763747L86.307,90.41454725999098L86.457,90.44515521709735L86.50699999999999,90.4659435565655L87.407,90.64478595440204L88.157,90.79343825120192L88.907,91.00095602182242L89.057,91.01432741605319L89.10699999999999,91.03563807560847L89.207,91.06191077599159L89.25699999999999,91.064940232497L90.30699999999999,91.14224360539363L90.357,91.15989802433894L90.607,91.18528278057391L90.75699999999999,91.19854971078726L90.908,84.38274266169623L91.00800000000001,84.13187232384314L91.208,84.43831751896784L91.408,84.79746481088492L91.608,84.6381571843074L92.858,85.77336766169623L92.908,85.82920367901141L93.458,85.85662548358624L93.858,86.02528263972357L93.908,86.08378248948318L94.058,86.21242992694562L94.15799999999999,86.25348428579477L94.208,86.25708829439603L94.658,86.3112528874324L95.008,86.43086418738733L95.758,86.51516664945163L95.80799999999999,86.52153895451471L95.958,86.60641596867487L96.908,86.83947519155649L97.158,86.8567639864408L97.208,86.8541001539964L97.30799999999999,86.86078585111179L97.658,86.95637042705829L98.008,87.0253689105694L98.05799999999999,87.04777644230768L98.508,87.12800480769232L98.70800000000001,87.14947216327374L98.80799999999999,87.1287360558143L99.00800000000001,87.1721408550556L99.45800000000001,87.2481906597431L99.759,80.35711728609525L99.809,81.372925391564L100.059,81.3972655076247L100.459,81.60394756610577L100.909,82.16084524301382L100.959,82.13608727088342L101.15899999999999,82.13995243952826L101.409,82.10997126652643L101.559,82.13697521503155L101.659,82.18664785531851L101.80900000000001,82.27962083082932L101.959,82.13566941481369L102.159,82.11341857910156L102.55900000000001,82.26243649996243L102.95899999999999,82.43542891282303L103.159,82.47559532752405L103.30900000000001,82.49434661865234L103.359,82.48766092153696L103.659,82.53607999361478L104.109,82.72855494572565L104.309,82.77232536902795L104.35900000000001,82.76297583946814L104.409,82.80162752591647L104.50900000000001,82.85443408672626L104.659,82.85479971078726L105.009,83.01133904090295L105.459,83.0760022676908L105.509,83.05698981651892L105.959,83.13283069317157L106.15899999999999,83.1662591787485L106.259,83.20642559344952L106.40899999999999,83.23337730994592L106.659,83.28905663123498L106.709,83.30201016939603L106.809,83.30279364952673L106.859,83.31454585148737L106.90899999999999,83.31992574838492L107.15899999999999,83.37649301382211L107.85900000000001,83.49385833740234L108.30900000000001,83.59962815504807L108.56,77.35785088172327L108.91,77.87071697528546L108.96000000000001,78.13830155592697L109.41000000000001,77.58579136775091L109.76,78.01769784780649L110.36,78.09677710899939L110.71,78.19586122952975L110.81,78.24354905348557L111.00999999999999,78.32612785926233L111.50999999999999,78.5403313269982L111.56,78.5459201519306L111.71000000000001,78.59219771165115L111.96,78.71859917273889L112.16000000000001,78.77354724590595L112.81,79.11117495023288L112.96,79.18769484299881L113.26,79.29085306020883L113.30999999999999,79.28876377986029L113.36,79.26175983135516L114.16,79.56178048940805L115.06,79.9166969886193L115.36,79.99943249042218L115.71,80.13382544884314L116.00999999999999,80.2265372643104L116.21000000000001,80.23928187443659L116.31,80.22601494422327L116.41,80.2269551203801L116.71000000000001,80.26309967041016L116.86,80.28963353083685L116.96,80.31695087139423L117.10999999999999,80.33272493802585L117.25999999999999,80.3467753483699L117.361,61.937029325045074L117.811,73.07132662259616L117.91099999999999,73.40749183067908L118.511,74.51789210392877L118.561,74.4119655902569L118.611,74.44236461932843L119.311,74.9191383948693L119.511,75.00490335317758L119.711,75.15277216984674L119.911,75.22652376615085L119.961,75.14462397648737L120.111,75.12796196570764L120.21100000000001,75.18468592717096L120.31099999999999,75.28622495211087L120.711,75.45065131554236L120.811,75.54435553917517L120.96100000000001,75.61455535888672L121.111,75.65195347712591L121.26100000000001,75.71964616041916L121.36099999999999,75.77501208965595L121.511,75.8025383582482L122.461,76.27654383732721L123.06099999999999,76.51456510103665L123.111,76.54778465857873L123.161,76.58001180795523L123.26100000000001,76.60393406794623L123.31099999999999,76.62790855994592L123.411,76.66817943866437L123.511,76.7039061326247L123.711,76.79620009202225L123.911,76.83323258620041L124.161,76.89079225980319L124.261,76.92620556171124L124.611,77.005493750939L124.76100000000001,77.03375126765326L125.011,77.09851895845853L125.21100000000001,77.18099330021784L125.461,77.21870481050931L125.561,77.24283599853516L125.61099999999999,77.22606952373798L126.161,77.39002579909103L126.31200000000001,72.02574627216046L126.462,70.91341341458835L126.61200000000001,70.57223393366888L126.662,70.37375230055588L126.812,70.26035660963791L126.862,70.5008327777569L126.962,70.30250784067007L127.21199999999999,70.60362537090595L127.262,70.62530165452225L127.612,71.20972560002252L127.66199999999999,71.26185314471905L127.86200000000001,71.47266153188852L127.96199999999999,71.63646111121545L128.062,71.79723123403696L128.262,71.79545534574069L128.762,72.05666762131912L128.862,72.04726585975061L128.962,72.16358654315655L129.012,72.1611838707557L129.21200000000002,72.2986585176908L129.362,72.38128955547626L129.762,72.60259657639725L129.96200000000002,72.67290086012619L130.662,72.85712315486029L130.862,72.92936002291165L130.962,72.96409430870642L131.212,73.13222914475662L131.262,73.14230992243841L131.362,73.16221031775842L131.46200000000002,73.16048666147086L131.512,73.18070044884314L131.612,73.21183072603665L131.712,73.26683103121243L131.762,73.29378274770883L132.112,73.39385927640475L132.262,73.48375056340143L132.512,73.56596374511719L133.462,73.9335203904372L133.962,74.09220123291016L134.262,74.2054924598107L134.412,74.28248244065506L134.562,74.30739710881159L134.712,74.35440591665414L134.762,74.36876971905048L134.812,74.36558356651892L135.263,68.45161437988281L135.31300000000002,68.52233651968149L135.363,67.76183847280649L135.463,67.80367631178635L136.06300000000002,68.15566781850961L136.113,68.14067723200873L136.213,68.10562955416165L136.613,68.44576439490686L137.063,68.94666935847357L137.913,69.48721841665414L138.613,69.91405839186447L138.81300000000002,69.97349841778095L138.863,70.00541217510516L138.963,70.0853271484375L139.363,70.30350024883563L139.463,70.32554215651291L139.66299999999998,70.40592721792368L140.163,70.63130833552435L140.563,70.6559096116286L140.613,70.6480748103215L141.16299999999998,70.86953852726862L141.563,70.97739762526291L141.863,71.1017620380108L141.91299999999998,71.11617807241586L142.013,71.18423637977014L142.113,71.20779301570013L142.363,71.25950270432693L143.31300000000002,71.49350210336539L143.613,71.60506967397836L143.663,71.62178391676682L144.114,62.4967997624324L144.214,63.49270747258112L144.364,63.70121765136719L144.414,64.14022768460788L144.464,64.42609346829929L145.01399999999998,64.89555476262018L145.164,64.93822831373947L145.464,65.14647733248196L145.714,65.42356813870944L145.814,65.56673607459436L145.914,65.61113328200119L146.014,65.74333249605618L146.464,66.27442756065955L146.664,66.30357302152194L146.864,66.42819859431341L146.964,66.51109079214243L147.114,66.63075432410608L147.564,67.00828728309045L147.614,67.03398543137772L148.114,67.31744854266827L148.214,67.4048326932467L148.81400000000002,67.60383664644681L148.864,67.63178077110877L148.914,67.62916917067307L149.114,67.7217242901142L149.314,67.83611238919772L149.614,67.93279383732721L149.664,67.96032010591946L149.814,68.03819803091196L150.214,68.17238206129807L150.464,68.28133803147537L150.614,68.35576864389273L150.764,68.43228853665866L150.814,68.42931131216196L151.214,68.54918377216046L151.51399999999998,68.63285945012018L151.814,68.79561438927283L152.064,68.85594235933743L152.965,61.387182969313415L153.165,61.99354435847357L153.26500000000001,61.88349151611328L153.51500000000001,62.154053321251496L153.765,62.62435032771185L154.41500000000002,63.53339620736929L154.61499999999998,63.74232424222507L154.76500000000001,63.886171194223266L155.515,64.11593980055588L156.065,64.54439896803635L156.11499999999998,64.57861093374399L156.26500000000001,64.66792766864484L156.565,64.83637589674728L156.915,64.93451984112079L156.965,64.94266803448016L157.015,64.95682290884164L157.065,64.98084963285007L157.115,65.00075002817007L157.16500000000002,65.0364767221304L157.565,65.17656296950119L158.715,65.58924807035007L158.765,65.6088873056265L158.815,65.61928147536057L159.165,65.77858910193811L159.715,65.9621846125676L159.815,66.00188093919022L160.415,66.23159731351413L160.465,66.23697721041165L160.615,66.30122258112982L160.71499999999997,66.3401876596304L160.76500000000001,66.36546795184796L160.865,66.41033524733322L161.76600000000002,61.33751032902643L162.01600000000002,60.38976053091196L162.166,60.24873410738431L162.316,60.259180509127106L162.766,60.609187199519226L162.816,60.78097827617938L163.11599999999999,60.975751436673676L163.216,60.98102686955377L163.26600000000002,61.06188201904297L163.566,61.42625251183142L163.716,61.38117628831131L164.016,61.638262235201324L164.11599999999999,61.59793912447415L164.216,61.63962026742789L164.36599999999999,61.76586503248947L165.066,62.08599501389725L165.166,62.14590512789212L165.216,62.171551044170684L165.266,62.19072019136868L165.816,62.47517571082483L166.316,62.58878032977765L166.716,62.747617868276734L167.566,63.15246816781851L167.916,63.33444448617789L167.96599999999998,63.380983205942016L168.116,63.45948791503906L168.61599999999999,63.6480976985051L168.916,63.744465754582336L169.11599999999999,63.84590031550482L169.366,63.93694070669321L169.466,63.966974111703735L169.56599999999997,63.9934557401217L169.666,64.00635704627405L169.766,64.02207888089694L169.966,64.0886746920072L170.016,64.08956263615534L170.166,64.16498565673828L170.46599999999998,64.2564961360051L170.517,54.004188537597656L170.667,57.15330857496994L171.06699999999998,57.99962381216196L171.167,58.080322265625L171.217,58.02103893573468L171.267,58.064861591045684L171.667,57.85144160344049L172.417,58.52774165226862L172.517,58.55599916898288L172.617,58.779552166278535L172.717,58.87054032545822L172.817,58.98492842454178L173.26700000000002,59.15760744535007L173.46699999999998,59.34501589261569L174.117,59.713826106144836L174.317,59.84435389592096L175.267,60.26738093449518L176.01700000000002,60.66935847355768L176.067,60.68899770883414L176.36700000000002,60.82547994760367L176.417,60.83180002065805L176.517,60.87640615609976L176.667,60.95130685659555L176.917,61.08220027043268L177.117,61.17115138127252L177.217,61.23518782395584L178.017,61.536932138296265L178.367,61.65795370248648L178.567,61.73713742769681L178.917,61.82567068246695L178.96699999999998,61.847503662109375L179.317,61.96377211350662L179.418,56.51795842097357L180.61800000000002,55.559814453125L180.768,55.60781566913312L181.118,55.98028212327225L181.268,56.15411024827225L181.318,56.294196495643035L181.41799999999998,56.45000457763672L181.468,56.50254997840295L181.818,56.702598571777344L182.46800000000002,57.06670790452225L182.71800000000002,57.18287189190204L183.168,57.36709418663611L183.26799999999997,57.434525709885804L183.368,57.49903224064752L183.71800000000002,57.75517801138071L184.368,58.06762988750751L184.468,58.115840031550476L184.768,58.25268789438101L185.168,58.43466421274039L185.46800000000002,58.543359022874085L185.518,58.556834881122285L185.568,58.56430405836838L185.768,58.62901951716498L186.01799999999997,58.763255779559785L186.36800000000002,58.93786738469049L186.768,59.12527583195612L186.96800000000002,59.22483004056491L187.16799999999998,59.28792630709134L187.268,59.32255612886868L187.568,59.424983097956726L187.81799999999998,59.49168337308444L187.918,59.50771859975961L188.018,59.54443770188553L188.168,59.61291386530951L188.369,52.846257136418274L188.969,52.516255305363586L189.219,52.690083430363586L189.46900000000002,53.099425682654754L190.369,53.881913405198304L190.569,54.090423583984375L190.719,54.21813084528998L190.96900000000002,54.31956540621243L191.31900000000002,54.757896423339844L191.51899999999998,54.90299694354718L191.619,54.91527146559494L191.919,55.112812922551086L191.969,55.13098966158353L192.269,55.31625659649188L192.619,55.4837646484375L192.91899999999998,55.63037989689752L193.06900000000002,55.676605224609375L193.369,55.821862440842835L193.91899999999998,56.12966566819412L194.019,56.178972684420074L194.51899999999998,56.447497441218445L194.669,56.55436413104718L194.769,56.60001490666315L195.019,56.729498056265015L195.81900000000002,57.082586435171265L195.919,57.13178898737982L196.169,57.20240666316107L196.219,57.22324723463791L196.419,57.30525148831882L196.519,57.34202282245343L196.819,57.47051356388971L196.869,57.5015393770658L197.17,49.71797767052283L197.77,50.002119797926696L198.02,50.028862586388215L198.62,50.302819472092835L198.67000000000002,50.32151853121243L198.97,50.18012648362381L199.02,50.160382784329926L199.72,50.401537968562195L199.92,50.47779670128455L200.01999999999998,50.5813727745643L200.12,50.63355255126953L200.26999999999998,50.67659172644983L200.42000000000002,50.70605057936447L200.87,50.81928957425632L201.17,50.96700169489935L201.27,51.02633725679837L201.82,51.264097360464234L201.87,51.30123431865985L202.17000000000002,51.410503680889434L202.52,51.50462576059195L203.72,51.85019273024338L204.02,51.914229172926696L204.12,51.95413442758414L205.17,52.23764977088342L205.32,52.2709215604342L205.52,52.29912684513971L205.57000000000002,52.31014779897836L205.62,52.32028080866888L205.871,35.3362074631911L206.021,45.47088857797476L206.12099999999998,44.842850905198304L206.571,44.25461402306189L206.921,44.922400254469665L207.171,45.255692702073304L207.571,45.64456000694861L207.77100000000002,45.816612243652344L207.97099999999998,45.930164630596465L208.621,46.44543339655951L208.721,46.5372050358699L208.87099999999998,46.67316495455228L209.47099999999998,46.90904470590445L209.671,47.04839970515326L209.921,47.23016709547775L210.021,47.29300220196063L210.52100000000002,47.586755018967835L210.62099999999998,47.70297123835638L210.721,47.74303318903998L211.371,48.01954944317157L212.171,48.41828859769382L212.421,48.51528343787561L212.771,48.65348933293268L212.921,48.72666637714093L213.021,48.766258239746094L214.021,49.14807422344501L214.071,49.166564354529754L214.121,49.16975050706131L214.371,49.259119473970856L214.471,49.2989724966196L214.922,42.19677734375L215.322,42.4654065645658L215.622,42.793005723219665L215.672,42.86754079965445L215.87199999999999,42.928547785832336L216.422,43.330055236816406L216.72199999999998,43.54587789682242L217.022,43.91844881497897L217.172,44.00901911808893L217.922,44.441082294170684L218.122,44.569990891676696L218.472,44.818928645207336L218.672,44.96261890117938L218.92200000000003,45.096019451434785L219.172,45.26760160006009L219.372,45.32824296217697L219.422,45.35054602989783L219.972,45.58266507662259L220.022,45.606378408578735L220.572,45.85312241774338L220.672,45.91679323636569L220.72199999999998,45.941551208496094L221.072,46.15392655592697L221.172,46.18160952054538L221.222,46.212635333721465L221.272,46.23739330585187L221.32199999999997,46.26737447885367L221.62199999999999,46.311614990234375L222.722,46.68726759690506L222.872,46.73735809326172L223.572,46.979557917668274L223.773,39.87939981313852L223.823,39.517693152794465L223.923,39.99441469632663L224.323,40.644703204815215L224.573,40.85713078425482L224.923,41.32251798189603L226.323,42.1615207378681L227.223,42.6695292546199L227.473,42.76030848576471L227.923,42.99133066030649L227.97299999999998,43.01817791278546L228.523,43.25609471247748L228.57299999999998,43.29788031944861L228.673,43.327234708345856L228.773,43.39095775897687L228.923,43.43984691913312L228.973,43.44329423170822L229.073,43.49803337684045L230.223,44.02275613638071L230.47299999999998,44.11886303241437L230.623,44.22384936992938L230.773,44.30987548828125L231.023,44.39276768611029L231.573,44.63266930213342L232.02300000000002,44.80916125957782L232.173,44.879674471341644L232.22299999999998,44.886778024526734L232.624,37.90795487623947L232.92399999999998,38.43356557992789L233.724,38.61919813889725L234.024,38.85241405780499L234.22400000000002,39.04713498629056L234.374,39.11858837421124L234.674,39.45088841364935L234.77400000000003,39.47104996901291L235.224,39.91617114727313L235.424,40.019120436448304L235.72400000000002,40.18177091158353L235.974,40.40370471660907L236.27399999999997,40.571944016676696L236.724,40.78113321157602L237.07399999999998,40.95214080810547L237.274,41.00745450533353L237.724,41.24192399245041L237.874,41.30094616229718L238.47400000000002,41.59516906738281L238.824,41.836951035719665L238.974,41.942564157339234L239.074,41.99291581373947L239.124,42.01417424128607L239.324,42.10615480863132L239.374,42.13305429311899L239.424,42.15008192795975L240.024,42.467077988844665L240.324,42.589666513296265L240.374,42.612126277043274L240.474,42.62241598275992L240.774,42.773679879995484L240.924,42.81374183067908L241.22400000000002,42.94432185246393L241.375,37.38417229285608L241.725,36.034706115722656L242.225,36.321929931640625L242.525,36.82654336782602L242.72500000000002,36.92996274507962L242.875,36.89684765155499L243.27499999999998,37.05093207726111L243.375,37.12217653714694L244.025,37.625170781062195L244.22500000000002,37.81304931640625L244.275,37.83853853665866L245.225,38.565921490009L245.275,38.57051790677585L245.425,38.68213770939752L245.775,38.936873215895446L245.875,38.96565305269681L246.27499999999998,39.28139554537259L246.375,39.326367304875305L246.425,39.359639094426086L247.075,39.74166400615985L247.17499999999998,39.80319331242487L247.225,39.82627986027643L247.675,39.985065166766816L247.825,40.045549832857574L248.375,40.31971564659705L248.525,40.39712348351111L248.625,40.432432321401734L248.725,40.48487325815054L249.325,40.7166266808143L250.126,26.52273500882663L250.376,33.73493077204779L250.87599999999998,34.395143362192016L251.176,34.86836536114032L251.526,35.085284893329316L251.82600000000002,35.24783090444711L251.92600000000002,35.29421292818509L252.12599999999998,35.58321263239935L252.476,35.86296727107123L252.526,35.89759709284857L252.576,35.96001434326172L253.07600000000002,36.25998276930588L254.126,36.96981576772836L254.376,37.11199129544772L254.626,37.280335059532746L254.92600000000002,37.464818514310394L255.426,37.71292055570163L255.676,37.84376173753006L255.976,37.983952448918274L256.176,38.088520930363586L256.226,38.09995974027194L256.626,38.30899223914514L256.776,38.370782705453735L256.826,38.40238307072565L256.926,38.466419513408965L257.076,38.53667156512921L257.126,38.55354250394382L257.176,38.57500985952524L257.426,38.67691450852615L257.526,38.741107647235566L257.676,38.82373868502103L257.726,38.84186319204477L257.776,38.867979196401734L257.82599999999996,38.88202960674579L257.926,38.933582599346465L258.076,38.98873960054837L258.126,39.01046811617337L258.426,39.13321333665115L258.726,39.264942462627715L258.826,39.31790571946365L258.976,39.374995304987976L259.527,32.4302274263822L259.927,32.47295320951022L259.977,32.49948706993689L260.027,32.549211942232574L260.327,32.8287576528696L260.677,33.35990494948166L260.92699999999996,33.54971606914813L261.277,33.78972214918869L261.927,34.50519620455228L262.22700000000003,34.6865457388071L262.327,34.72425724909857L262.47700000000003,34.82882573054388L262.827,35.024173443134L263.127,35.23179567777194L263.277,35.307741018442016L263.377,35.37616494985727L263.427,35.42688223031851L263.877,35.74889256403998L264.377,36.017260624812195L264.427,36.02843827467697L264.827,36.265258202186004L265.42699999999996,36.51330801156851L265.577,36.57969489464392L265.727,36.67413036639874L266.377,37.05417046180139L266.777,37.2696797297551L267.177,37.47923454871545L267.227,37.51527463472806L267.377,37.58850391094501L267.477,37.62297703669623L267.527,37.65175687349759L268.178,30.04134427584134L268.478,30.24019153301532L268.578,30.18143052321213L269.328,30.16675332876352L269.678,30.400021479679992L269.978,30.513991722693817L270.128,30.459670433631317L270.178,30.49215874305139L270.478,30.66274848351111L271.128,30.99264585054837L271.228,31.043258666992188L271.27799999999996,31.088648282564606L271.32800000000003,31.106354933518617L271.628,31.26237194354718L271.878,31.320401705228363L272.528,31.594776447002715L273.328,31.92295015775241L273.678,32.02381016657904L273.928,32.12352107121393L273.978,32.126707223745484L274.27799999999996,32.21706859882062L274.728,32.34613389235275L274.878,32.44281534048227L274.928,32.45488093449518L275.028,32.499852693997894L275.32800000000003,32.59898904653696L275.378,32.59261674147385L275.478,32.642759469839234L275.728,32.72690523587741L275.878,32.756834176870484L276.628,33.00989825908954L276.829,25.467387272761414L277.129,26.42495668851413L277.479,26.318977942833527L277.679,26.56901256854718L277.829,26.73265545184796L278.579,27.064433171198914L278.979,27.22959078275241L279.179,27.29503748967096L279.22900000000004,27.312430748572723L280.12899999999996,27.933573796198914L280.279,28.01181734525241L280.329,28.04707395113431L280.429,28.094396151029144L280.529,28.12160902756912L280.579,28.15091118445764L280.779,28.275066669170684L280.829,28.29857107309195L281.379,28.573050278883727L281.67900000000003,28.703055748572723L281.879,28.799162644606383L283.029,29.390324519230774L283.679,29.73406336857721L284.079,29.861927325908965L284.329,29.951191828801086L284.379,29.953072181114777L284.479,29.992089491624085L284.529,30.005983205942016L284.579,30.01695192777194L285.029,30.230842003455535L285.079,30.246250446026153L285.529,30.429532564603363" style="fill: none;" fill="none"></path></g></g></g></g></g></g><g transform="translate(30, 178)" clip-path="url(#clip_1)"><clipPath id="clip_1"><rect width="300" height="22"></rect></clipPath><g><g><line x1="0" y1="0" x2="0" y2="5" style="visibility: inherit;" fill="rgb(0, 0, 0)" stroke="rgb(204, 204, 204)" stroke-width="1px"></line><line x1="20" y1="0" x2="20" y2="5" style="visibility: inherit;" fill="rgb(0, 0, 0)" stroke="rgb(204, 204, 204)" stroke-width="1px"></line><line x1="40" y1="0" x2="40" y2="5" style="visibility: inherit;" fill="rgb(0, 0, 0)" stroke="rgb(204, 204, 204)" stroke-width="1px"></line><line x1="60" y1="0" x2="60" y2="5" style="visibility: inherit;" fill="rgb(0, 0, 0)" stroke="rgb(204, 204, 204)" stroke-width="1px"></line><line x1="80" y1="0" x2="80" y2="5" style="visibility: inherit;" fill="rgb(0, 0, 0)" stroke="rgb(204, 204, 204)" stroke-width="1px"></line><line x1="100" y1="0" x2="100" y2="5" style="visibility: inherit;" fill="rgb(0, 0, 0)" stroke="rgb(204, 204, 204)" stroke-width="1px"></line><line x1="120" y1="0" x2="120" y2="5" style="visibility: inherit;" fill="rgb(0, 0, 0)" stroke="rgb(204, 204, 204)" stroke-width="1px"></line><line x1="140" y1="0" x2="140" y2="5" style="visibility: inherit;" fill="rgb(0, 0, 0)" stroke="rgb(204, 204, 204)" stroke-width="1px"></line><line x1="160" y1="0" x2="160" y2="5" style="visibility: inherit;" fill="rgb(0, 0, 0)" stroke="rgb(204, 204, 204)" stroke-width="1px"></line><line x1="180" y1="0" x2="180" y2="5" style="visibility: inherit;" fill="rgb(0, 0, 0)" stroke="rgb(204, 204, 204)" stroke-width="1px"></line><line x1="200" y1="0" x2="200" y2="5" style="visibility: inherit;" fill="rgb(0, 0, 0)" stroke="rgb(204, 204, 204)" stroke-width="1px"></line><line x1="219.99999999999997" y1="0" x2="219.99999999999997" y2="5" style="visibility: inherit;" fill="rgb(0, 0, 0)" stroke="rgb(204, 204, 204)" stroke-width="1px"></line><line x1="240" y1="0" x2="240" y2="5" style="visibility: inherit;" fill="rgb(0, 0, 0)" stroke="rgb(204, 204, 204)" stroke-width="1px"></line><line x1="260" y1="0" x2="260" y2="5" style="visibility: inherit;" fill="rgb(0, 0, 0)" stroke="rgb(204, 204, 204)" stroke-width="1px"></line><line x1="280" y1="0" x2="280" y2="5" style="visibility: inherit;" fill="rgb(0, 0, 0)" stroke="rgb(204, 204, 204)" stroke-width="1px"></line><line x1="300" y1="0" x2="300" y2="5" style="visibility: inherit;" fill="rgb(0, 0, 0)" stroke="rgb(204, 204, 204)" stroke-width="1px"></line></g><g transform="translate(0, 8)"><text x="0" y="0" dx="0em" dy="0.95em" style="text-anchor: middle; visibility: hidden; font-family: &quot;Helvetica Neue&quot;, sans-serif; font-size: 12px; font-weight: 200;" fill="rgb(50, 49, 63)" stroke="none" stroke-width="1px">-20k</text><text x="20" y="0" dx="0em" dy="0.95em" style="text-anchor: middle; visibility: inherit; font-family: &quot;Helvetica Neue&quot;, sans-serif; font-size: 12px; font-weight: 200;" fill="rgb(50, 49, 63)" stroke="none" stroke-width="1px">0</text><text x="40" y="0" dx="0em" dy="0.95em" style="text-anchor: middle; visibility: hidden; font-family: &quot;Helvetica Neue&quot;, sans-serif; font-size: 12px; font-weight: 200;" fill="rgb(50, 49, 63)" stroke="none" stroke-width="1px">20k</text><text x="60" y="0" dx="0em" dy="0.95em" style="text-anchor: middle; visibility: inherit; font-family: &quot;Helvetica Neue&quot;, sans-serif; font-size: 12px; font-weight: 200;" fill="rgb(50, 49, 63)" stroke="none" stroke-width="1px">40k</text><text x="80" y="0" dx="0em" dy="0.95em" style="text-anchor: middle; visibility: hidden; font-family: &quot;Helvetica Neue&quot;, sans-serif; font-size: 12px; font-weight: 200;" fill="rgb(50, 49, 63)" stroke="none" stroke-width="1px">60k</text><text x="100" y="0" dx="0em" dy="0.95em" style="text-anchor: middle; visibility: inherit; font-family: &quot;Helvetica Neue&quot;, sans-serif; font-size: 12px; font-weight: 200;" fill="rgb(50, 49, 63)" stroke="none" stroke-width="1px">80k</text><text x="120" y="0" dx="0em" dy="0.95em" style="text-anchor: middle; visibility: hidden; font-family: &quot;Helvetica Neue&quot;, sans-serif; font-size: 12px; font-weight: 200;" fill="rgb(50, 49, 63)" stroke="none" stroke-width="1px">100k</text><text x="140" y="0" dx="0em" dy="0.95em" style="text-anchor: middle; visibility: inherit; font-family: &quot;Helvetica Neue&quot;, sans-serif; font-size: 12px; font-weight: 200;" fill="rgb(50, 49, 63)" stroke="none" stroke-width="1px">120k</text><text x="160" y="0" dx="0em" dy="0.95em" style="text-anchor: middle; visibility: hidden; font-family: &quot;Helvetica Neue&quot;, sans-serif; font-size: 12px; font-weight: 200;" fill="rgb(50, 49, 63)" stroke="none" stroke-width="1px">140k</text><text x="180" y="0" dx="0em" dy="0.95em" style="text-anchor: middle; visibility: inherit; font-family: &quot;Helvetica Neue&quot;, sans-serif; font-size: 12px; font-weight: 200;" fill="rgb(50, 49, 63)" stroke="none" stroke-width="1px">160k</text><text x="200" y="0" dx="0em" dy="0.95em" style="text-anchor: middle; visibility: hidden; font-family: &quot;Helvetica Neue&quot;, sans-serif; font-size: 12px; font-weight: 200;" fill="rgb(50, 49, 63)" stroke="none" stroke-width="1px">180k</text><text x="219.99999999999997" y="0" dx="0em" dy="0.95em" style="text-anchor: middle; visibility: inherit; font-family: &quot;Helvetica Neue&quot;, sans-serif; font-size: 12px; font-weight: 200;" fill="rgb(50, 49, 63)" stroke="none" stroke-width="1px">200k</text><text x="240" y="0" dx="0em" dy="0.95em" style="text-anchor: middle; visibility: hidden; font-family: &quot;Helvetica Neue&quot;, sans-serif; font-size: 12px; font-weight: 200;" fill="rgb(50, 49, 63)" stroke="none" stroke-width="1px">220k</text><text x="260" y="0" dx="0em" dy="0.95em" style="text-anchor: middle; visibility: inherit; font-family: &quot;Helvetica Neue&quot;, sans-serif; font-size: 12px; font-weight: 200;" fill="rgb(50, 49, 63)" stroke="none" stroke-width="1px">240k</text><text x="280" y="0" dx="0em" dy="0.95em" style="text-anchor: middle; visibility: hidden; font-family: &quot;Helvetica Neue&quot;, sans-serif; font-size: 12px; font-weight: 200;" fill="rgb(50, 49, 63)" stroke="none" stroke-width="1px">260k</text><text x="300" y="0" dx="0em" dy="0.95em" style="text-anchor: middle; visibility: hidden; font-family: &quot;Helvetica Neue&quot;, sans-serif; font-size: 12px; font-weight: 200;" fill="rgb(50, 49, 63)" stroke="none" stroke-width="1px">280k</text></g><line x1="0" y1="0" x2="300" y2="0" fill="rgb(0, 0, 0)" stroke="rgb(204, 204, 204)" stroke-width="1px"></line></g></g></g></g></svg>