<svg viewBox="0 0 330 200" xmlns="http://www.w3.org/2000/svg"><g><g><g><g><g><line x1="40" y1="178" x2="35" y2="178" style="visibility: inherit;" fill="rgb(0, 0, 0)" stroke="rgb(204, 204, 204)" stroke-width="1px"></line><line x1="40" y1="165.28571428571428" x2="35" y2="165.28571428571428" style="visibility: inherit;" fill="rgb(0, 0, 0)" stroke="rgb(204, 204, 204)" stroke-width="1px"></line><line x1="40" y1="152.57142857142856" x2="35" y2="152.57142857142856" style="visibility: inherit;" fill="rgb(0, 0, 0)" stroke="rgb(204, 204, 204)" stroke-width="1px"></line><line x1="40" y1="139.8571428571429" x2="35" y2="139.8571428571429" style="visibility: inherit;" fill="rgb(0, 0, 0)" stroke="rgb(204, 204, 204)" stroke-width="1px"></line><line x1="40" y1="127.14285714285715" x2="35" y2="127.14285714285715" style="visibility: inherit;" fill="rgb(0, 0, 0)" stroke="rgb(204, 204, 204)" stroke-width="1px"></line><line x1="40" y1="114.42857142857143" x2="35" y2="114.42857142857143" style="visibility: inherit;" fill="rgb(0, 0, 0)" stroke="rgb(204, 204, 204)" stroke-width="1px"></line><line x1="40" y1="101.7142857142857" x2="35" y2="101.7142857142857" style="visibility: inherit;" fill="rgb(0, 0, 0)" stroke="rgb(204, 204, 204)" stroke-width="1px"></line><line x1="40" y1="88.99999999999999" x2="35" y2="88.99999999999999" style="visibility: inherit;" fill="rgb(0, 0, 0)" stroke="rgb(204, 204, 204)" stroke-width="1px"></line><line x1="40" y1="76.2857142857143" x2="35" y2="76.2857142857143" style="visibility: inherit;" fill="rgb(0, 0, 0)" stroke="rgb(204, 204, 204)" stroke-width="1px"></line><line x1="40" y1="63.571428571428584" x2="35" y2="63.571428571428584" style="visibility: inherit;" fill="rgb(0, 0, 0)" stroke="rgb(204, 204, 204)" stroke-width="1px"></line><line x1="40" y1="50.85714285714286" x2="35" y2="50.85714285714286" style="visibility: inherit;" fill="rgb(0, 0, 0)" stroke="rgb(204, 204, 204)" stroke-width="1px"></line><line x1="40" y1="38.14285714285714" x2="35" y2="38.14285714285714" style="visibility: inherit;" fill="rgb(0, 0, 0)" stroke="rgb(204, 204, 204)" stroke-width="1px"></line><line x1="40" y1="25.428571428571388" x2="35" y2="25.428571428571388" style="visibility: inherit;" fill="rgb(0, 0, 0)" stroke="rgb(204, 204, 204)" stroke-width="1px"></line><line x1="40" y1="12.714285714285722" x2="35" y2="12.714285714285722" style="visibility: inherit;" fill="rgb(0, 0, 0)" stroke="rgb(204, 204, 204)" stroke-width="1px"></line><line x1="40" y1="0" x2="35" y2="0" style="visibility: inherit;" fill="rgb(0, 0, 0)" stroke="rgb(204, 204, 204)" stroke-width="1px"></line></g><g transform="translate(30, 0)"><text x="0" y="178" dx="0em" dy="0.3em" style="text-anchor: end; visibility: hidden; font-family: &quot;Helvetica Neue&quot;, sans-serif; font-size: 12px; font-weight: 200;" fill="rgb(50, 49, 63)" stroke="none" stroke-width="1px">2.5</text><text x="0" y="165.28571428571428" dx="0em" dy="0.3em" style="text-anchor: end; visibility: inherit; font-family: &quot;Helvetica Neue&quot;, sans-serif; font-size: 12px; font-weight: 200;" fill="rgb(50, 49, 63)" stroke="none" stroke-width="1px">2.6</text><text x="0" y="152.57142857142856" dx="0em" dy="0.3em" style="text-anchor: end; visibility: hidden; font-family: &quot;Helvetica Neue&quot;, sans-serif; font-size: 12px; font-weight: 200;" fill="rgb(50, 49, 63)" stroke="none" stroke-width="1px">2.7</text><text x="0" y="139.8571428571429" dx="0em" dy="0.3em" style="text-anchor: end; visibility: inherit; font-family: &quot;Helvetica Neue&quot;, sans-serif; font-size: 12px; font-weight: 200;" fill="rgb(50, 49, 63)" stroke="none" stroke-width="1px">2.8</text><text x="0" y="127.14285714285715" dx="0em" dy="0.3em" style="text-anchor: end; visibility: hidden; font-family: &quot;Helvetica Neue&quot;, sans-serif; font-size: 12px; font-weight: 200;" fill="rgb(50, 49, 63)" stroke="none" stroke-width="1px">2.9</text><text x="0" y="114.42857142857143" dx="0em" dy="0.3em" style="text-anchor: end; visibility: inherit; font-family: &quot;Helvetica Neue&quot;, sans-serif; font-size: 12px; font-weight: 200;" fill="rgb(50, 49, 63)" stroke="none" stroke-width="1px">3</text><text x="0" y="101.7142857142857" dx="0em" dy="0.3em" style="text-anchor: end; visibility: hidden; font-family: &quot;Helvetica Neue&quot;, sans-serif; font-size: 12px; font-weight: 200;" fill="rgb(50, 49, 63)" stroke="none" stroke-width="1px">3.1</text><text x="0" y="88.99999999999999" dx="0em" dy="0.3em" style="text-anchor: end; visibility: inherit; font-family: &quot;Helvetica Neue&quot;, sans-serif; font-size: 12px; font-weight: 200;" fill="rgb(50, 49, 63)" stroke="none" stroke-width="1px">3.2</text><text x="0" y="76.2857142857143" dx="0em" dy="0.3em" style="text-anchor: end; visibility: hidden; font-family: &quot;Helvetica Neue&quot;, sans-serif; font-size: 12px; font-weight: 200;" fill="rgb(50, 49, 63)" stroke="none" stroke-width="1px">3.3</text><text x="0" y="63.571428571428584" dx="0em" dy="0.3em" style="text-anchor: end; visibility: inherit; font-family: &quot;Helvetica Neue&quot;, sans-serif; font-size: 12px; font-weight: 200;" fill="rgb(50, 49, 63)" stroke="none" stroke-width="1px">3.4</text><text x="0" y="50.85714285714286" dx="0em" dy="0.3em" style="text-anchor: end; visibility: hidden; font-family: &quot;Helvetica Neue&quot;, sans-serif; font-size: 12px; font-weight: 200;" fill="rgb(50, 49, 63)" stroke="none" stroke-width="1px">3.5</text><text x="0" y="38.14285714285714" dx="0em" dy="0.3em" style="text-anchor: end; visibility: inherit; font-family: &quot;Helvetica Neue&quot;, sans-serif; font-size: 12px; font-weight: 200;" fill="rgb(50, 49, 63)" stroke="none" stroke-width="1px">3.6</text><text x="0" y="25.428571428571388" dx="0em" dy="0.3em" style="text-anchor: end; visibility: hidden; font-family: &quot;Helvetica Neue&quot;, sans-serif; font-size: 12px; font-weight: 200;" fill="rgb(50, 49, 63)" stroke="none" stroke-width="1px">3.7</text><text x="0" y="12.714285714285722" dx="0em" dy="0.3em" style="text-anchor: end; visibility: inherit; font-family: &quot;Helvetica Neue&quot;, sans-serif; font-size: 12px; font-weight: 200;" fill="rgb(50, 49, 63)" stroke="none" stroke-width="1px">3.8</text><text x="0" y="0" dx="0em" dy="0.3em" style="text-anchor: end; visibility: hidden; font-family: &quot;Helvetica Neue&quot;, sans-serif; font-size: 12px; font-weight: 200;" fill="rgb(50, 49, 63)" stroke="none" stroke-width="1px">3.9</text></g><line x1="40" y1="0" x2="40" y2="178" fill="rgb(0, 0, 0)" stroke="rgb(204, 204, 204)" stroke-width="1px"></line></g></g><g transform="translate(40, 0)" clip-path="url(#clip_0)"><clipPath id="clip_0"><rect width="290" height="178"></rect></clipPath><g><g><g><line x1="0" y1="0" x2="0" y2="178" fill="rgb(0, 0, 0)" stroke="rgb(60, 60, 60)" stroke-width="1px" opacity="0.25"></line><line x1="24.166666666666664" y1="0" x2="24.166666666666664" y2="178" fill="rgb(0, 0, 0)" stroke="rgb(60, 60, 60)" stroke-width="1px" opacity="0.25"></line><line x1="48.33333333333333" y1="0" x2="48.33333333333333" y2="178" fill="rgb(0, 0, 0)" stroke="rgb(60, 60, 60)" stroke-width="1px" opacity="0.25"></line><line x1="72.5" y1="0" x2="72.5" y2="178" fill="rgb(0, 0, 0)" stroke="rgb(60, 60, 60)" stroke-width="1px" opacity="0.25"></line><line x1="96.66666666666666" y1="0" x2="96.66666666666666" y2="178" fill="rgb(0, 0, 0)" stroke="rgb(60, 60, 60)" stroke-width="1px" opacity="0.25"></line><line x1="120.83333333333334" y1="0" x2="120.83333333333334" y2="178" fill="rgb(0, 0, 0)" stroke="rgb(60, 60, 60)" stroke-width="1px" opacity="0.25"></line><line x1="145" y1="0" x2="145" y2="178" fill="rgb(0, 0, 0)" stroke="rgb(60, 60, 60)" stroke-width="1px" opacity="0.25"></line><line x1="169.16666666666669" y1="0" x2="169.16666666666669" y2="178" fill="rgb(0, 0, 0)" stroke="rgb(60, 60, 60)" stroke-width="1px" opacity="0.25"></line><line x1="193.33333333333331" y1="0" x2="193.33333333333331" y2="178" fill="rgb(0, 0, 0)" stroke="rgb(60, 60, 60)" stroke-width="1px" opacity="0.25"></line><line x1="217.5" y1="0" x2="217.5" y2="178" fill="rgb(0, 0, 0)" stroke="rgb(60, 60, 60)" stroke-width="1px" opacity="0.25"></line><line x1="241.66666666666669" y1="0" x2="241.66666666666669" y2="178" fill="rgb(0, 0, 0)" stroke="rgb(60, 60, 60)" stroke-width="1px" opacity="0.25"></line><line x1="265.8333333333333" y1="0" x2="265.8333333333333" y2="178" fill="rgb(0, 0, 0)" stroke="rgb(60, 60, 60)" stroke-width="1px" opacity="0.25"></line><line x1="290" y1="0" x2="290" y2="178" fill="rgb(0, 0, 0)" stroke="rgb(60, 60, 60)" stroke-width="1px" opacity="0.25"></line></g><g><line x1="0" y1="178" x2="290" y2="178" fill="rgb(0, 0, 0)" stroke="rgb(60, 60, 60)" stroke-width="1px" opacity="0.25"></line><line x1="0" y1="165.28571428571428" x2="290" y2="165.28571428571428" fill="rgb(0, 0, 0)" stroke="rgb(60, 60, 60)" stroke-width="1px" opacity="0.25"></line><line x1="0" y1="152.57142857142856" x2="290" y2="152.57142857142856" fill="rgb(0, 0, 0)" stroke="rgb(60, 60, 60)" stroke-width="1px" opacity="0.25"></line><line x1="0" y1="139.8571428571429" x2="290" y2="139.8571428571429" fill="rgb(0, 0, 0)" stroke="rgb(60, 60, 60)" stroke-width="1px" opacity="0.25"></line><line x1="0" y1="127.14285714285715" x2="290" y2="127.14285714285715" fill="rgb(0, 0, 0)" stroke="rgb(60, 60, 60)" stroke-width="1px" opacity="0.25"></line><line x1="0" y1="114.42857142857143" x2="290" y2="114.42857142857143" fill="rgb(0, 0, 0)" stroke="rgb(60, 60, 60)" stroke-width="1px" opacity="0.25"></line><line x1="0" y1="101.7142857142857" x2="290" y2="101.7142857142857" fill="rgb(0, 0, 0)" stroke="rgb(60, 60, 60)" stroke-width="1px" opacity="0.25"></line><line x1="0" y1="88.99999999999999" x2="290" y2="88.99999999999999" fill="rgb(0, 0, 0)" stroke="rgb(60, 60, 60)" stroke-width="1px" opacity="0.25"></line><line x1="0" y1="76.2857142857143" x2="290" y2="76.2857142857143" fill="rgb(0, 0, 0)" stroke="rgb(60, 60, 60)" stroke-width="1px" opacity="0.25"></line><line x1="0" y1="63.571428571428584" x2="290" y2="63.571428571428584" fill="rgb(0, 0, 0)" stroke="rgb(60, 60, 60)" stroke-width="1px" opacity="0.25"></line><line x1="0" y1="50.85714285714286" x2="290" y2="50.85714285714286" fill="rgb(0, 0, 0)" stroke="rgb(60, 60, 60)" stroke-width="1px" opacity="0.25"></line><line x1="0" y1="38.14285714285714" x2="290" y2="38.14285714285714" fill="rgb(0, 0, 0)" stroke="rgb(60, 60, 60)" stroke-width="1px" opacity="0.25"></line><line x1="0" y1="25.428571428571388" x2="290" y2="25.428571428571388" fill="rgb(0, 0, 0)" stroke="rgb(60, 60, 60)" stroke-width="1px" opacity="0.25"></line><line x1="0" y1="12.714285714285722" x2="290" y2="12.714285714285722" fill="rgb(0, 0, 0)" stroke="rgb(60, 60, 60)" stroke-width="1px" opacity="0.25"></line><line x1="0" y1="0" x2="290" y2="0" fill="rgb(0, 0, 0)" stroke="rgb(60, 60, 60)" stroke-width="1px" opacity="0.25"></line></g></g></g><g><g><line x1="0" y1="495.8571428571429" x2="290" y2="495.8571428571429" fill="rgb(0, 0, 0)" stroke="rgb(153, 153, 153)" stroke-width="1.5px"></line></g></g><g><g><line x1="24.166666666666664" y1="0" x2="24.166666666666664" y2="178" fill="rgb(0, 0, 0)" stroke="rgb(153, 153, 153)" stroke-width="1.5px"></line></g></g><g><g><g><g><g><path stroke="rgb(255, 112, 67)" stroke-width="2px" d="M34.860416666666666,-47.353984779129235L34.861625,3.8484950226516332L35.16370833333333,15.64586849695354L35.28454166666667,19.42108107711647L35.34495833333333,20.519672826247756L35.586625,21.412027393376036L36.06995833333333,22.143904934702874L36.55329166666667,22.938297775500587L36.613708333333335,23.25975266310985L36.674125000000004,23.50194418195909L36.915791666666664,23.87508748699443L37.580375,24.577116700199923L37.942875,25.16150261526937L38.24495833333333,25.617124729054098L38.426208333333335,26.006362918823044L39.15120833333334,26.921169282141108L39.513708333333334,27.59111685786931L39.81579166666667,28.045204386813282L39.99704166666667,28.432496853382276L40.238708333333335,28.770510669860585L40.480375,29.099597405288648L40.60120833333334,29.27509468522493L41.749125,30.51222382106431L42.05120833333333,31.152825862521098L42.111625,31.419146546827022L42.41370833333333,31.746989729734167L42.655375,32.06767802319888L42.71579166666666,32.2222586777269L42.836625,32.37570522744838L43.31995833333333,32.8297005609256L43.380375,33.02707426892465L43.742875000000005,33.36332495554322L43.80329166666667,33.51402296884072L43.863708333333335,33.62076820809608L44.044958333333334,33.81163911187343L44.58870833333333,34.295110309611886L45.07204166666667,34.82706353798247L45.9795,47.59570287983041L46.22116666666666,51.43541896140704L46.583666666666666,52.568682062018325L46.82533333333333,52.82834611755264L46.94616666666666,53.068848474090274L47.671166666666664,53.725271327276545L47.73158333333333,53.900448448353885L48.698249999999994,54.55471595731193L49.483666666666664,55.090164758583384L49.54408333333333,55.27698395783321L49.66491666666667,55.42170497815202L50.02741666666667,55.62725760054707L50.57116666666667,55.934896974301694L50.692,56.11454845325244L50.75241666666666,56.18915388839277L50.93366666666667,56.282386606505014L51.296166666666664,56.451400800219346L51.83991666666667,56.70892912258843L52.021166666666666,56.781116217703044L52.081583333333334,56.797807040909134L52.62533333333333,56.94396476241923L52.68575,56.9832499393611L53.592,57.41674693729844L53.712833333333336,57.61111159415947L53.83366666666667,57.6994886734841L54.6795,58.02833372171989L54.98158333333333,58.25489689653003L55.10241666666667,58.3675535969284L55.28366666666666,58.49694334424575L55.767,58.777001961937685L56.1295,58.951413567325886L56.25033333333334,58.999153690177664L56.372375,66.96592147250131L56.734874999999995,69.42555095880974L57.03695833333333,70.32943802514596L57.641125,70.7562685890166L57.76195833333333,70.9686430717459L58.003625,70.89803754165625L58.366125000000004,70.99738124273674L58.607791666666664,71.02302537936707L58.66820833333333,70.9972770767771L58.97029166666667,71.01459130517732L59.091125000000005,70.99290077946218L59.15154166666667,70.97438352424389L59.272375,70.98064747190027L59.393208333333334,70.99924742798676L59.453624999999995,71.02723494655093L59.75570833333334,71.07584168757856L59.816125,71.08108723832925L60.359875,71.24250554047158L60.722375,71.32870130241554L60.84320833333334,71.39137543589071L61.14529166666667,71.41783782646115L61.447375,71.4468897009046L61.56820833333333,71.46778511476973L62.29320833333333,71.61221229872842L62.716125,71.72471522045657L62.77654166666667,71.77798781023183L62.897375000000004,71.81932659514474L62.957791666666665,71.84378076662944L63.018208333333334,71.8582254680107L63.078625,71.89298728800146L63.19945833333333,71.96862260012728L63.38070833333333,72.0405206427244L63.622375000000005,72.09033288196527L63.924458333333334,72.17205354462804L64.10570833333333,72.26892739799841L64.347375,72.35091037233842L64.528625,72.38825803601794L64.709875,72.42734443427345L64.77029166666667,72.46646441007024L64.95154166666667,72.52082988317126L65.01195833333334,72.55214153735439L65.19320833333333,72.59860506954374L65.253625,72.62533933908522L65.55570833333333,72.65816492733593L65.616125,72.67204426198377L66.03904166666668,72.76229457399005L66.22029166666667,72.81856736046299L66.46195833333333,72.88166473061516L66.64320833333333,72.95056528374758L66.884875,73.02973693169713L67.06733333333334,81.27866523730033L67.309,82.72575893779779L67.49025,82.53899047011195L67.55066666666666,82.64435357223172L67.61108333333333,82.61862807980249L68.034,82.35095335695473L68.3965,82.44664342896144L68.51733333333334,82.43121440320017L68.57775,82.4543829176092L68.81941666666667,82.52456684748124L69.06108333333333,82.40423814010558L69.24233333333333,82.35328605041491L69.30275,82.38882053573604L69.36316666666667,82.34522325003056L69.48400000000001,82.42663340033263L69.60483333333333,82.53255959827058L70.14858333333333,82.57150956534848L70.39025,82.68935448093268L70.45066666666666,82.70611988950687L70.51108333333333,82.71403533056058L70.63191666666667,82.77351097415298L70.69233333333334,82.77860089585307L71.05483333333333,82.84355222119432L71.29650000000001,82.78026131073698L71.35691666666666,82.74650543713592L71.47775,82.79235506589423L71.59858333333334,82.87685494582422L71.77983333333333,82.9066609530466L71.84025,82.91715176072178L71.90066666666667,82.91486687411806L71.96108333333333,82.96742051526886L72.14233333333333,82.94278514887391L72.384,82.92622782142612L72.68608333333333,82.90549471781158L72.74650000000001,82.91145463825912L72.80691666666667,82.93785694849987L73.16941666666668,82.90652202252298L73.53191666666666,82.96313464249302L73.77358333333333,82.97612920881846L73.95483333333334,83.03611006582246L74.1965,83.05947279406928L74.43816666666666,83.06578137717649L74.559,83.05653384400017L74.86108333333333,83.0333891006488L76.31108333333333,83.0143719223791L76.43191666666667,82.99778129183217L76.49233333333333,82.9926343486398L76.734,82.98773762362269L76.85483333333333,83.02391156189763L77.09649999999999,83.03913490960934L77.21733333333333,83.04064634141311L77.64145833333333,89.4329330763131L78.00395833333333,91.86174847605554L78.245625,92.46367171383716L78.66854166666667,92.19488855295427L78.72895833333334,91.99920281199532L78.789375,91.91059916146975L78.84979166666666,91.80351221838113L79.151875,91.7362894900993L79.27270833333334,91.61255149508588L79.45395833333333,91.40607923407877L79.51437499999999,91.29989541214564L79.63520833333332,91.25010999632437L80.11854166666667,91.14940614876915L80.17895833333333,91.09508992248111L80.36020833333333,91.06875834767027L80.783125,91.08250251383788L80.96437499999999,91.13572711637973L81.50812499999999,91.14218827155639L81.62895833333333,91.12923070212425L81.74979166666667,91.09506355649305L81.93104166666667,91.02652412332918L81.99145833333333,90.99499193929982L82.233125,91.00772762329383L82.53520833333333,90.99970798501673L82.59562500000001,90.97128728869352L82.83729166666666,90.91718212319256L82.89770833333334,90.90670099125163L82.958125,90.87244922597964L83.01854166666666,90.86716022097998L83.26020833333334,90.8220952689765L83.320625,90.79085770666954L83.501875,90.80714051550738L83.56229166666667,90.79753260799083L84.04562499999999,90.79013053473184L84.28729166666666,90.76537506549465L84.408125,90.73133948078427L84.52895833333334,90.75476132223211L84.58937499999999,90.7610664200461L85.01229166666667,90.80450524782171L85.07270833333334,90.82774335710717L85.133125,90.83887376358662L85.314375,90.83215495935252L85.79770833333333,90.86759130058046L85.91854166666666,90.8789012190621L86.16020833333333,90.87834741344815L86.220625,90.87298255464664L86.52270833333333,90.91595474869382L86.94562499999999,90.94864397046082L87.61020833333333,90.9673416042242L87.73104166666667,90.96280809116108L88.09354166666667,90.95491250715186L88.15395833333334,90.9584427844332L88.27479166666666,90.95706165346047L88.33641666666666,95.13369981203243L88.57808333333334,97.62561981604625L88.81975,97.85272996642031L88.94058333333332,97.78113422697139L89.24266666666668,98.22380545707155L89.30308333333333,98.35741315773609L89.36349999999999,98.50323100832547L89.84683333333334,98.78713587506849L90.20933333333333,98.81208709354469L90.45100000000001,98.59309936605477L90.51141666666666,98.52655427766615L90.57183333333334,98.51599088046781L91.11558333333333,98.15744180301975L91.23641666666667,97.98520079499531L91.41766666666666,97.91629845871346L91.78016666666667,97.82681371859859L92.2635,97.82428556112099L92.38433333333333,97.81796766945024L93.59266666666666,97.66656144150585L93.65308333333334,97.60919313337953L93.89474999999999,97.58899072619252L93.95516666666667,97.56553021613355L94.01558333333332,97.55460893971798L95.10308333333334,97.55648883540358L95.40516666666667,97.58618683921972L95.82808333333334,97.52433002980855L95.8885,97.4904102474222L96.25099999999999,97.45029394596133L96.37183333333333,97.40770333042539L96.67391666666666,97.39301641294601L96.79475,97.38935301157608L96.91558333333333,97.40739375785823L97.15725,97.41713470946506L97.76141666666668,97.34328573563921L98.24475,97.30269151216515L98.30516666666668,97.28675743724638L98.36558333333333,97.28424767489949L98.48641666666667,97.30110672663365L98.96975,97.28445714578248L99.09179166666667,99.98326199610598L99.45429166666666,102.65890338826055L99.575125,103.69401028993096L99.69595833333334,104.21217275632134L99.756375,104.19818575672126L99.937625,104.31735839692301L100.05845833333333,104.39784037544597L100.23970833333333,104.32679539762222L100.72304166666667,104.25956343961445L101.14595833333333,104.24819984243126L101.50845833333334,104.23632428111378L101.75012500000001,104.13863300401495L101.81054166666667,104.09880087112946L101.87095833333332,104.06696879069676L101.931375,104.09264312744338L102.293875,104.09941178131167L102.89804166666666,104.02991227378861L103.018875,103.98207153102886L103.20012500000001,103.88770150310141L103.26054166666667,103.83711027850613L103.44179166666666,103.89465129300929L103.80429166666667,103.82162567354733L103.925125,103.78159674518554L104.106375,103.71151096973794L104.287625,103.63410568044777L104.468875,103.56908216418685L104.52929166666667,103.53249361020886L105.61679166666667,103.41111326784662L106.28137500000001,103.27549915483831L106.52304166666666,103.241308012519L107.368875,103.0998308059316L107.42929166666666,103.05074601759738L107.61054166666668,103.05533010181854L107.67095833333333,103.03355512147274L107.79179166666667,103.00062587596514L107.85220833333332,103.0006564937161L109.06054166666667,102.83116628176352L109.12095833333333,102.76625085308073L109.18137499999999,102.74325382838823L109.48345833333335,102.71651471892052L109.66470833333334,102.67059539925772L109.84716666666668,108.76170494309582L109.96799999999999,109.22050204918247L110.20966666666666,108.86729740812025L110.27008333333333,108.61899726305501L110.45133333333334,108.54416771147875L110.693,108.72315321986152L110.81383333333333,108.89459451027L111.65966666666667,108.95583019252801L112.20341666666667,108.80913632391747L112.26383333333334,108.74320867442742L112.92841666666668,108.76676009530922L113.41175,108.70076763163542L113.47216666666667,108.64841955760282L113.65341666666667,108.60175624447814L113.77425,108.5560556857519L113.83466666666666,108.51698851015371L114.318,108.36295082398121L114.37841666666668,108.3177156037923L114.80133333333333,108.2107591029059L114.92216666666667,108.16623767006553L115.4055,107.99203929837995L115.70758333333335,107.90935137729778L115.768,107.87652412313503L115.94924999999999,107.82712325828754L116.37216666666666,107.79657953196015L117.09716666666667,107.70069332484381L117.39925,107.6136381732344L117.45966666666668,107.58847649416089L117.58049999999999,107.58043994760739L117.64091666666667,107.57546145396304L118.00341666666667,107.56100294195677L118.42633333333333,107.51738855005225L118.48675,107.50277644622601L119.03049999999999,107.47810720869388L119.27216666666666,107.44076607068924L119.393,107.44201943111581L119.63466666666666,107.4803779030805L120.17841666666666,107.43442370608346L120.542125,112.68867786560924L120.60254166666667,114.28651287506366L120.90462500000001,114.39643617376791L121.38795833333333,114.04076131553981L121.50879166666667,114.00185437313185L121.93170833333333,114.16294945273242L121.992125,114.19464208183717L122.23379166666668,113.92641106098307L122.535875,113.95653650417748L122.717125,113.8643370784963L122.83795833333333,113.8159248208298L123.01920833333332,113.79157662914078L123.20045833333333,113.74423144020406L123.442125,113.6472515754633L123.92545833333332,113.4541115669231L124.40879166666667,113.27869977676333L124.529625,113.18633257783493L124.65045833333333,113.15577903818208L124.83170833333334,113.15212998220662L124.89212500000001,113.1427597565334L125.25462499999999,113.09585507997517L125.31504166666667,113.03423132982451L125.798375,112.8924815609652L125.979625,112.79756629331709L126.04004166666667,112.76342617232741L126.10045833333334,112.75940137731772L126.160875,112.74921819456742L126.28170833333333,112.72074257400138L126.46295833333333,112.6721167178944L126.88587500000001,112.5411413553952L126.94629166666667,112.50278239380121L127.36920833333333,112.41643439808726L127.429625,112.38384593450797L127.49004166666667,112.39121455229453L128.03379166666667,112.32085529052361L128.27545833333332,112.2579455825184L128.39629166666666,112.20633136190457L128.45670833333332,112.192205127947L128.57754166666666,112.16944284941923L128.879625,112.10218173177894L128.94004166666667,112.06888989779908L129.06087499999998,112.03125366024246L129.12129166666668,112.00576710835718L129.18170833333332,111.98791468183884L129.48379166666666,111.92395137560575L130.329625,111.7762798035509L130.873375,111.63878337038655L131.17666666666665,114.3758349641952L131.59958333333333,116.88458133413772L131.66,117.79692256651634L132.20374999999999,118.08851276696419L132.62666666666667,118.28573580640764L133.11,118.15216823833649L133.17041666666665,118.0324621093794L133.35166666666666,117.8495432821669L133.77458333333334,117.66007390879862L133.89541666666668,117.63268542070175L134.13708333333335,117.55756456786092L134.74125,117.35623488168031L134.80166666666668,117.27981543940338L134.98291666666665,117.24220588327057L135.285,117.09758122718519L135.52666666666667,117.0688563345557L136.31208333333333,116.72868803020376L136.43291666666667,116.6006863918187L136.49333333333334,116.55647182483322L136.85583333333332,116.42138772016423L136.91625,116.39162065030831L136.97666666666666,116.35807619524515L137.0975,116.3066353143231L137.21833333333333,116.25092890682747L137.94333333333333,116.14900046236195L139.03083333333333,115.87819875969558L139.39333333333335,115.73088149337194L139.75583333333333,115.62224344047374L139.81625,115.60427209029342L140.17875,115.55047956791442L140.42041666666668,115.5210585584847L140.54125,115.49290151568081L140.66208333333333,115.46497512808986L141.02458333333334,115.41369188115468L141.20583333333335,115.3907316335603L141.32666666666668,115.36183919336095L141.50791666666666,115.33865749187973L141.68916666666667,115.32669523759995L141.81120833333333,114.33184913219308L142.35495833333331,120.01109243458896L142.47579166666665,121.60787794895887L143.20079166666667,121.52528240057208L143.26120833333334,121.5993854575526L143.321625,121.55263258138808L144.16745833333334,121.26914341783376L144.409125,121.09054097990949L144.65079166666666,121.06286895710457L144.89245833333334,120.93637610804508L144.952875,120.9009533444985L145.134125,120.83025480866263L145.25495833333332,120.84719746577693L145.3757916666667,120.80595863243329L145.859125,120.69241358155128L145.97995833333334,120.70261342917121L146.16120833333335,120.63866298077772L146.34245833333333,120.5929962178417L146.52370833333333,120.52087958396521L146.64454166666667,120.45805802268103L146.82579166666665,120.4146820972035L147.00704166666668,120.3722382149002L147.97370833333335,120.05063759568041L148.396625,119.82510190988395L148.69870833333331,119.71871606643445L148.75912499999998,119.66394717733695L148.81954166666668,119.63809516203594L148.940375,119.62666862658324L149.00079166666666,119.59247274831435L149.121625,119.54440127502536L149.24245833333333,119.47608292904694L149.484125,119.41947225572828L149.72579166666665,119.35194479180026L150.027875,119.26858049259381L150.14870833333333,119.24257389791549L150.57162499999998,119.1672098162405L150.69245833333335,119.13189025886756L150.752875,119.11611689379185L150.93412500000002,119.08290864601841L151.05495833333333,119.04920182697512L151.296625,118.96997867248223L151.477875,118.93318310446074L151.59870833333332,118.89273454864778L151.7195416666667,118.8650674883126L151.77995833333333,118.86169023703333L152.384125,118.82324629840492L152.44454166666665,118.79287041967285L152.627,126.13673826976174L152.80825,127.81298212088214L152.9895,126.93927742206174L153.04991666666666,126.73072340835076L153.23116666666667,126.30681453570406L153.29158333333334,126.25991431005203L153.41241666666664,126.27767312266644L153.71450000000002,125.98641925972174L153.77491666666668,125.8589599309012L154.1978333333333,125.29870727591648L154.25825,125.07087806145233L154.49991666666668,124.7963630297181L154.62075,124.7461344700574L154.74158333333335,124.72334209387061L154.98325,124.70544914992024L155.58741666666668,124.30011955675894L155.70825,124.13215660982559L155.82908333333336,124.04469768981112L155.8895,123.9832360529303L156.13116666666667,123.93534523795248L156.31241666666665,123.82797400519311L156.79575,123.62562666048126L157.03741666666667,123.48651731523728L157.21866666666668,123.42927323732631L157.88325,123.2950546114262L158.12491666666665,123.2451767018025L158.24575000000002,123.16636459501342L158.427,123.09733297965454L158.54783333333333,123.07276159090256L158.60825,123.05284959543486L158.7290833333333,122.99892048379408L158.84991666666667,122.97616378170443L158.91033333333334,122.95009090811669L159.03116666666668,122.92332025262911L159.152,122.92014826504355L159.21241666666666,122.90351564040172L159.45408333333333,122.84940328106403L159.5145,122.82875596852637L159.63533333333334,122.81785110047917L159.81658333333334,122.7914930922135L160.11866666666668,122.7408501131041L160.84366666666665,122.56842255063964L161.08533333333332,122.4988488896731L161.26658333333333,122.42900275421277L161.87075,122.3177822090153L162.23325,122.24161681106577L162.29366666666667,122.19527747801212L162.4145,122.14774316123503L162.59575,122.1357533263307L162.77700000000002,122.10998225591005L162.83741666666668,122.08898890132139L162.89783333333332,122.06957739625703L163.44279166666666,128.2952970088552L163.50320833333333,129.90876379671786L163.563625,130.76010911185475L163.68445833333334,130.56072044527215L164.40945833333333,129.42067408608102L164.469875,129.0882512809238L164.53029166666667,128.95349145178204L164.59070833333334,128.81307838035883L165.07404166666666,128.612531512002L165.61779166666668,128.30461144716136L165.919875,127.98809645256576L166.644875,127.70766445899366L167.49070833333334,127.32198804886451L167.67195833333335,127.20749462327753L167.73237500000002,127.12905298674522L167.79279166666666,127.07477379740602L167.91362500000002,127.0143115547339L168.39695833333332,126.86191866478445L168.51779166666668,126.79918295646053L168.638625,126.78944408447846L168.75945833333336,126.73990372285638L169.363625,126.46782182295735L169.84695833333333,126.2066611487854L169.907375,126.10819709417785L170.20945833333332,125.98402000700706L170.57195833333336,125.88346984754585L171.05529166666665,125.74795120588121L171.4177916666667,125.55250115880726L171.47820833333333,125.48200458195618L171.59904166666666,125.48455751510508L171.719875,125.45470401219148L172.02195833333334,125.36303531101827L173.169875,125.18205583981123L173.29070833333336,125.13266364601688L173.532375,125.05454895456862L173.59279166666667,125.03661033380098L174.13774999999998,130.88729712029718L174.25858333333335,132.16560043293367L174.43983333333335,132.02652486979406L174.50025,132.15445013290483L174.56066666666666,132.41000677182032L175.16483333333332,132.04348843405768L175.22525000000002,131.88837836119575L175.4065,131.65348202566216L175.52733333333333,131.59759075218412L175.769,131.37936777703163L175.88983333333334,131.28149908433022L176.07108333333335,131.15452991023557L176.19191666666666,131.09048801092774L176.31275000000002,131.0363061113014L176.43358333333333,130.92375856884877L176.97733333333332,130.80074612572363L177.219,130.67989902578168L177.46066666666667,130.55768569970837L177.58149999999998,130.47529421050763L177.76275,130.36862800657576L177.94400000000002,130.2850229207868L178.3065,130.14219575715646L178.36691666666667,130.04833652255707L178.6085833333333,129.91942973636918L178.78983333333335,129.80742396027847L178.97108333333335,129.73864070508185L179.09191666666666,129.6455207584301L179.63566666666665,129.50295836681127L179.81691666666669,129.401582071048L179.87733333333333,129.3583103146738L179.93775,129.35044262786462L179.99816666666666,129.35727025860476L180.17941666666667,129.32937818108178L180.42108333333334,129.2714423815554L180.78358333333333,129.209564867024L180.84400000000002,129.1885613985075L181.02525,129.12027891836212L181.50858333333332,128.94901015866293L181.81066666666666,128.77260568889523L181.99191666666667,128.68840716824695L182.17316666666667,128.60939924283556L182.23358333333334,128.57954328168552L182.35441666666665,128.52320390018556L182.53566666666666,128.455354657986L182.59608333333333,128.4266607186849L182.7169166666667,128.4201956815021L183.07941666666667,128.33274257858088L183.26066666666668,128.25002099478093L183.44191666666666,128.18285088957504L183.50233333333335,128.1497348941003L183.74400000000003,128.0771608590077L184.1065,127.97647424456449L184.83270833333333,134.6929511425405L185.074375,136.26630032651155L185.1952083333333,136.01061200080076L185.49729166666668,135.74227442436748L185.799375,135.25932878879706L186.34312500000001,134.74832809754614L186.58479166666666,134.35134598251705L186.82645833333333,134.13298767994803L187.0077083333333,133.92987332997012L187.91395833333334,133.53501163201716L188.57854166666667,133.06287060462594L188.63895833333333,132.9132922955846L188.82020833333334,132.8408337732701L189.18270833333332,132.66650856436934L189.605625,132.42709962398305L189.66604166666667,132.3299411531404L189.7264583333333,132.26276870954382L189.786875,132.21218856688841L189.84729166666668,132.17647428666507L189.90770833333332,132.13378258751322L190.39104166666667,132.04974204363373L191.780625,131.67704338449823L191.84104166666665,131.52383502310096L191.90145833333335,131.47740569110388L192.324375,131.35731696604395L192.98895833333333,131.16558346604913L193.10979166666667,131.1009974046219L193.35145833333334,131.03198975216355L193.83479166666666,130.91115379897064L193.89520833333333,130.8730357187012L194.07645833333333,130.82380880406552L194.19729166666667,130.7855722352596L194.2577083333333,130.77830267681873L194.37854166666668,130.74246807317198L195.46725,134.46081052845796L195.76933333333335,136.248454340178L195.95058333333333,136.99878609415245L196.13183333333333,137.18418439697132L196.67558333333332,137.04978547236593L196.736,136.9223183206954L197.0985,136.60967078841443L197.21933333333334,136.48099207591034L197.27974999999998,136.43721096429536L197.64225000000002,136.12376053545864L197.82350000000002,136.00177964989547L197.88391666666666,135.9583740038401L198.186,135.88447427161714L198.30683333333332,135.7416092378145L198.42766666666668,135.6889039940311L198.60891666666666,135.63324266274796L198.66933333333336,135.54355003118528L199.15266666666665,135.40112462544448L199.45475000000002,135.30668568284517L199.57558333333333,135.24404246709113L199.636,135.21665570468116L199.6964166666667,135.2016070763183L200.361,134.96047659158444L200.96516666666665,134.72194825243872L201.4485,134.5254507858513L202.47558333333333,134.2285276174235L202.77766666666668,134.0786362862494L202.89849999999998,133.98666824030602L202.95891666666668,133.9630246076814L203.14016666666666,133.90267119150855L203.74433333333334,133.7456214944765L204.10683333333333,133.62481211782236L204.3485,133.54144134271368L204.65058333333334,133.47000238343549L204.77141666666668,133.41992470337294L204.89225,133.3700169465344L205.01308333333333,133.33229757968786L205.13391666666666,133.2777157116658L205.37558333333334,133.22520476248042L205.436,133.2087300231045L205.61725,133.18006447583394L205.73808333333332,133.11695254930842L205.97975,133.0333851250678L206.04137500000002,138.95214610316367L206.22262500000002,140.40944315498476L206.28304166666666,140.72082331629218L206.403875,140.57868243113646L206.7059583333333,140.71381507174817L206.82679166666668,140.9208411272068L206.88720833333332,140.82639329122603L206.947625,140.65631432678435L207.310125,140.20341919465704L207.43095833333334,139.94520043910697L208.15595833333333,139.53020014638057L208.3372083333333,139.3355067678522L208.45804166666667,139.29286465967388L208.57887499999998,139.17930179215878L208.69970833333335,139.00739266090812L208.82054166666666,138.80285032276282L209.36429166666665,138.46226346398583L209.60595833333332,138.24461222858784L209.72679166666668,138.10428557745092L209.90804166666666,137.99498620614852L210.39137499999998,137.87462453539806L210.63304166666666,137.7407377138604L210.87470833333333,137.71302736922712L211.2372083333333,137.6073178920884L211.660125,137.41996182423057L211.78095833333333,137.33767654127246L212.08304166666667,137.22773199566117L212.50595833333333,137.0139393725631L212.68720833333333,136.93276252504106L212.747625,136.88498341487622L213.04970833333334,136.77104650570985L213.11012499999998,136.73968759368074L213.17054166666668,136.71423816439574L213.291375,136.6499903671654L213.472625,136.58165711381173L213.77470833333334,136.4575223035161L213.95595833333334,136.38435766418414L214.016375,136.34931599295032L214.13720833333332,136.27911373137204L214.49970833333333,136.1545243148767L215.10387500000002,135.94484715118298L215.5267916666667,135.78446275131193L215.70804166666667,135.68998336236564L215.7684583333333,135.64837751221924L216.191375,135.55572941730105L216.25179166666666,135.51734658130908L216.31220833333333,135.49023557915956L216.372625,135.47104704742034L216.67470833333334,135.3903440843952L216.79675,140.65893648299374L218.24675,141.26750263641122L218.428,141.37550802549677L218.54883333333333,141.3697574243574L218.85091666666665,141.078346994687L219.03216666666665,140.88705561970738L219.09258333333332,140.82693092350684L219.21341666666666,140.76577599145332L219.27383333333333,140.73446454792426L219.69675,140.55506245550276L219.81758333333332,140.43866624908674L219.93841666666668,140.3871751501472L220.48216666666667,140.18773567301963L220.78425000000001,140.10267413742224L220.84466666666665,140.0292213829961L221.20716666666667,139.92672214724445L221.328,139.85100877826758L221.44883333333334,139.8002429143946L221.56966666666668,139.7415985624898L221.81133333333335,139.70388940456243L221.99258333333333,139.6452789410434L222.23425,139.56671166731365L222.778,139.38947165105776L222.83841666666666,139.325965869707L222.89883333333333,139.28870801576443L223.26133333333334,139.15367387666845L223.74466666666666,138.97668139617008L223.98633333333333,138.86272683286776L224.10716666666667,138.77551354928053L224.1675833333333,138.73791238654624L224.228,138.70152966078814L224.46966666666668,138.62063374488562L224.77175,138.54187392702408L225.19466666666665,138.38458590361688L225.678,138.2245555062688L225.91966666666667,138.11946659504167L226.16133333333335,138.0535859501922L226.28216666666665,138.0077645133902L226.64466666666667,137.91181469413547L226.82591666666664,137.8585851682809L226.94675,137.8088564781424L227.06758333333332,137.7735249491953L227.18841666666668,137.7378443328268L227.36966666666666,137.69331665777347L227.43129166666665,143.74007107002492L227.61254166666666,145.47946927900006L227.85420833333333,145.3553746639338L228.33754166666668,145.14567618664046L228.639625,144.83197628586277L228.70004166666666,144.72961202600237L228.94170833333334,144.64458145898175L229.36462500000002,144.19178018033983L230.02920833333334,143.7455869944706L230.21045833333335,143.52784932946605L230.270875,143.39723638682202L230.45212500000002,143.3451299786229L230.75420833333334,143.1245625054735L231.11670833333332,142.89188478099996L231.177125,142.7701367309919L231.41879166666666,142.6243331602583L231.539625,142.5475749305299L231.902125,142.43445051108037L231.96254166666665,142.3786149155922L232.08337500000002,142.32768001949273L232.32504166666666,142.29043762324895L232.74795833333332,142.06853649746967L233.11045833333336,141.87987057486654L233.29170833333333,141.75354433095305L233.65420833333334,141.6028449059601L234.13754166666666,141.44156576159824L234.31879166666667,141.32387993622785L234.439625,141.24293157425217L234.50004166666668,141.21998387863246L234.802125,141.163255543381L234.86254166666666,141.15279379214945L235.04379166666666,141.11273376562033L235.164625,141.0568979991014L235.22504166666664,141.03524562157796L235.345875,140.97913929354434L235.64795833333332,140.88700026432065L236.25212499999998,140.6782310073358L236.61462500000002,140.53225100233504L236.73545833333333,140.4510686760973L236.795875,140.40823200839256L237.03754166666667,140.31451443284007L237.09795833333334,140.27491954400912L237.33962499999998,140.20167499612205L237.46045833333335,140.16484815427793L237.82295833333333,140.06075367495163L237.88337499999997,140.01588135112746L238.064625,139.94368476018138L238.2470833333333,145.8007775376583L238.97208333333333,146.98417919368583L239.27416666666664,147.0475834890933L239.3345833333333,146.97481028690137L239.45541666666668,146.76132602827016L239.99916666666667,146.318474636484L240.05958333333334,146.1263538438108L240.42208333333335,145.93115318530877L240.48250000000002,145.88473040078307L241.32833333333335,145.46405169431634L241.57,145.26116170008265L241.69083333333333,145.15102359509254L241.81166666666667,145.05169321553643L241.99291666666664,144.94009387927275L242.17416666666665,144.77363301645823L242.71791666666667,144.45213075080844L243.08041666666668,144.31476935028832L243.20125,144.22384421908797L243.8658333333333,143.9686931159614L243.92625,143.84586859305261L244.28875,143.75459385084974L244.71166666666667,143.6323825841185L246.16166666666666,143.1567777253698L246.22208333333333,143.0132899361107L246.34291666666667,142.9369081520216L246.52416666666664,142.8800215918772L246.645,142.84216075536466L247.91375000000002,142.46048409163015L248.095,142.29556414609868L248.33666666666664,142.20672644712246L248.3970833333333,142.16091415148296L248.4575,142.13352648276484L248.57833333333332,142.1103081698966L248.76079166666665,147.7946435450242L248.94204166666665,149.73291034217857L249.06287500000002,150.9216641983872L249.18370833333333,150.78570660357133L249.606625,150.1652941954269L249.84829166666668,149.8181799963753L250.02954166666666,149.50068614231472L250.331625,149.09954122706336L250.81495833333332,148.70472670794751L251.056625,148.33933267951375L251.1774583333333,148.13895972359293L251.29829166666667,147.9983844273928L251.35870833333334,147.91988447647225L251.72120833333335,147.81646522087138L251.96287500000003,147.72396726668563L252.08370833333333,147.59786664027183L252.20454166666664,147.53404286676113L252.38579166666668,147.4381456946536L252.92954166666667,147.19557134435192L253.050375,147.06234538592582L253.11079166666667,146.9915460230043L253.35245833333335,146.87991219404734L253.65454166666666,146.71348342193187L253.775375,146.62317455081052L254.37954166666668,146.3439122804043L254.500375,146.21631584072225L254.62120833333333,146.12897799463306L255.406625,145.86556660548223L255.64829166666667,145.69617038790992L255.769125,145.60444080181304L256.37329166666666,145.3571541170698L256.67537500000003,145.1927014070875L257.0982916666667,145.01615616912028L257.27954166666666,144.95351661811586L257.400375,144.89037651291585L258.6087083333333,144.55775025627344L258.669125,144.43899236661593L258.72954166666665,144.3783050612879L258.850375,144.3228802989803L259.03162499999996,144.27756443950184L259.15245833333336,144.2272391537805L259.45575,143.55716686904375L259.6974166666667,150.51900128561246L260.12033333333335,151.6245060325801L260.18075,151.92706586006702L260.2411666666667,152.05645284975597L260.54325,151.80465005017825L260.60366666666664,151.5076014226005L260.8453333333333,151.21295714453836L261.50991666666664,150.64965574764008L261.87241666666665,150.24528014905098L262.1140833333333,149.9968641407694L262.23491666666666,149.7985249938788L262.4161666666667,149.7143876964516L262.537,149.61840151592102L262.8995,149.3795774902225L263.08074999999997,149.15459995643258L263.32241666666664,148.9994287406682L263.5640833333333,148.88614282355547L263.68491666666665,148.83168046875554L263.8661666666667,148.73197131515673L263.987,148.6579861794744L264.2286666666667,148.53803353771076L264.3495,148.4978887714878L264.53075,148.43131186002304L264.8328333333333,148.35485313366L265.0745,148.23897518524572L265.13491666666664,148.17057928386046L265.25575,148.11218414587594L265.79949999999997,147.87984188164123L265.85991666666666,147.81512572695272L266.5245,147.57918961742362L266.6453333333333,147.46902584999458L266.70575,147.40660927286646L267.1286666666667,147.21216766116294L267.2495,147.1155132057586L267.30991666666665,147.07938719994783L267.37033333333335,147.04775452973536L267.43075,147.01305625546604L267.67241666666666,146.98102435382793L267.79325,146.93470547471227L269.12241666666665,146.61206967196998L269.3036666666667,146.47897278834031L269.8474166666667,146.3029009925385L270.02866666666665,146.19537621817173L270.1495,146.13222355270742L270.3319583333333,152.37662847824203L270.392375,154.00656511779817L270.45279166666666,153.7765741419679L270.573625,153.79905305122992L271.05695833333334,154.21827779357335L271.35904166666666,154.53809528990004L271.78195833333336,154.78930181695046L273.473625,154.14537351856535L273.8965416666667,153.9218939349947L274.50070833333336,153.76210070269994L274.561125,153.6855167407325L274.8632083333333,153.54613272722162L275.34654166666667,153.2952654372919L275.4069583333333,153.19965598616807L275.467375,153.15892061482015L276.0715416666667,153.04372296598595L276.13195833333333,153.0062354143472L276.192375,152.965536824942" style="fill: none;" fill="none"></path></g></g></g></g><g opacity="0.2"><g><g><g><path stroke="rgb(255, 112, 67)" stroke-width="2px" d="M34.860416666666666,-46.23597744532995L34.861625,25.792414937700528L35.16370833333333,20.7018857002258L35.28454166666667,21.039029325757696L35.34495833333333,20.990497861589688L35.586625,21.794465065002413L36.06995833333333,22.457566738128662L36.55329166666667,23.278751850128174L36.613708333333335,23.39751904351371L36.674125000000004,23.605740547180176L36.915791666666664,24.035006046295166L37.580375,24.877986363002236L37.942875,25.411953721727627L38.24495833333333,25.81239134924752L38.426208333333335,26.173179285866865L39.15120833333334,27.313229152134483L39.513708333333334,27.87823724746704L39.81579166666667,28.239813327789307L39.99704166666667,28.59847933905465L40.238708333333335,28.91537373406547L40.480375,29.240634577614912L40.60120833333334,29.350307805197588L41.749125,31.04242202213831L42.05120833333333,31.427369594573975L42.111625,31.533283982958096L42.41370833333333,31.88749395098006L42.655375,32.20511586325509L42.71579166666666,32.28850752966744L42.836625,32.44146803447177L43.31995833333333,33.02426998955863L43.380375,33.11166300092424L43.742875000000005,33.50743239266532L43.80329166666667,33.57860783168246L43.863708333333335,33.66651616777693L44.044958333333334,33.89344092777796L44.58870833333333,34.50231225149972L45.07204166666667,35.05504349299838L45.9795,53.06797688347953L46.22116666666666,53.08101156779698L46.583666666666666,53.05436624799455L46.82533333333333,52.93963071278162L46.94616666666666,53.17192091260637L47.671166666666664,54.00659540721348L47.73158333333333,53.975524357387L48.698249999999994,54.835116318293984L49.483666666666664,55.3196428162711L49.54408333333333,55.35704932894025L49.66491666666667,55.48372827257428L50.02741666666667,55.715351581573486L50.57116666666667,56.06674242019653L50.692,56.191541944231304L50.75241666666666,56.22112764630998L50.93366666666667,56.32234348569597L51.296166666666664,56.523835454668315L51.83991666666667,56.81929840360368L52.021166666666666,56.81205354418073L52.081583333333334,56.80496025085449L52.62533333333333,57.00660378592353L52.68575,57.000086443764815L53.592,57.60253136498588L53.712833333333336,57.69441073281425L53.83366666666667,57.73736456462315L54.6795,58.16926731382097L54.98158333333333,58.35199540002006L55.10241666666667,58.41583503995622L55.28366666666666,58.55239609309605L55.767,58.89702708380561L56.1295,59.026161398206426L56.25033333333334,59.01961374282837L56.372375,70.38025052206856L56.734874999999995,70.47967788151331L57.03695833333333,70.71681819643292L57.641125,70.93919597353253L57.76195833333333,71.05966070720127L58.003625,70.86777802876063L58.366125000000004,71.03995711462838L58.607791666666664,71.03401572363717L58.66820833333333,70.98624208995274L58.97029166666667,71.02201168877738L59.091125000000005,70.98360483986991L59.15154166666667,70.9664475577218L59.272375,70.98333202089582L59.393208333333334,71.00721883773804L59.453624999999995,71.03922959736414L59.75570833333334,71.09667314801897L59.816125,71.0833353315081L60.359875,71.31168481281824L60.722375,71.36564234324864L60.84320833333334,71.4182357788086L61.14529166666667,71.42917885099138L61.447375,71.45934050423759L61.56820833333333,71.47674029214042L62.29320833333333,71.67410966328211L62.716125,71.77293075834001L62.77654166666667,71.8008189201355L62.897375000000004,71.83704321725028L62.957791666666665,71.85426112583704L63.018208333333334,71.86441605431693L63.078625,71.90788521085466L63.19945833333333,72.00103773389543L63.38070833333333,72.07133408955164L63.622375000000005,72.11168098449707L63.924458333333334,72.20707668576921L64.10570833333333,72.31044476372855L64.347375,72.38604593276978L64.528625,72.40426417759485L64.709875,72.44409574781145L64.77029166666667,72.48323011398315L64.95154166666667,72.54412937164307L65.01195833333334,72.5655608177185L65.19320833333333,72.61851801191057L65.253625,72.63679688317436L65.55570833333333,72.67223303658622L65.616125,72.67799254826136L66.03904166666668,72.80097327913556L66.22029166666667,72.84268426895142L66.46195833333333,72.90870646068028L66.64320833333333,72.98009409223283L66.884875,73.06366763796125L67.06733333333334,84.8139202254159L67.309,83.34594195229667L67.49025,82.45894684110368L67.55066666666666,82.68950918742588L67.61108333333333,82.60760286876133L68.034,82.23623561859131L68.3965,82.48765345982142L68.51733333333334,82.42460196358817L68.57775,82.46431228092737L68.81941666666667,82.55464567456926L69.06108333333333,82.35266869408744L69.24233333333333,82.3314494405474L69.30275,82.40404960087366L69.36316666666667,82.32653869901384L69.48400000000001,82.46152346474784L69.60483333333333,82.57795654024396L70.14858333333333,82.58820240838187L70.39025,82.73985944475446L70.45066666666666,82.71330506461007L70.51108333333333,82.71742766244071L70.63191666666667,82.79900053569249L70.69233333333334,82.78078229086739L71.05483333333333,82.87138850348336L71.29650000000001,82.75313663482666L71.35691666666666,82.73203863416398L71.47775,82.81200490679059L71.59858333333334,82.91306918007987L71.77983333333333,82.91943495614188L71.84025,82.92164782115391L71.90066666666667,82.91388763700212L71.96108333333333,82.9899435043335L72.14233333333333,82.93222713470459L72.384,82.91913182394845L72.68608333333333,82.89660910197667L72.74650000000001,82.9140088898795L72.80691666666667,82.94917222431727L73.16941666666668,82.89309276853288L73.53191666666666,82.98739719390869L73.77358333333333,82.98169830867222L73.95483333333334,83.06181614739555L74.1965,83.06948539188929L74.43816666666666,83.06848505565098L74.559,83.05257061549595L74.86108333333333,83.02346992492676L76.31108333333333,83.00622170312064L76.43191666666667,82.99067102159772L76.49233333333333,82.99042851584298L76.734,82.9856390271868L76.85483333333333,83.03941467830113L77.09649999999999,83.04565920148576L77.21733333333333,83.04129409790039L77.64145833333333,92.17248453412736L78.00395833333333,92.90266936165946L78.245625,92.72163881574357L78.66854166666667,92.07969576971871L78.72895833333334,91.91533749444145L78.789375,91.87262616838727L78.84979166666666,91.75761781420026L79.151875,91.70747974940709L79.27270833333334,91.55952092579433L79.45395833333333,91.31759112221854L79.51437499999999,91.25438805988857L79.63520833333332,91.2287733895438L80.11854166666667,91.10624735695976L80.17895833333333,91.0718115397862L80.36020833333333,91.057473387037L80.783125,91.08839287076677L80.96437499999999,91.15853766032627L81.50812499999999,91.14495733806065L81.62895833333333,91.12367745808193L81.74979166666667,91.08042049407958L81.93104166666667,90.9971500805446L81.99145833333333,90.98147814614433L82.233125,91.013185773577L82.53520833333333,90.99627099718366L82.59562500000001,90.95910699026925L82.83729166666666,90.89399419512067L82.89770833333334,90.9022090775626L82.958125,90.8577698980059L83.01854166666666,90.86489350455147L83.26020833333334,90.80278171811784L83.320625,90.77747017996651L83.501875,90.81411886215209L83.56229166666667,90.79341493334088L84.04562499999999,90.78695821762084L84.28729166666666,90.75476557867867L84.408125,90.71675280162266L84.52895833333334,90.76479925428117L84.58937499999999,90.76376860482353L85.01229166666667,90.82312188829694L85.07270833333334,90.83770254680088L85.133125,90.8436439377921L85.314375,90.82927547182355L85.79770833333333,90.88277830396379L85.91854166666666,90.88374832698277L86.16020833333333,90.87811006818498L86.220625,90.87068332944597L86.52270833333333,90.93437140328544L86.94562499999999,90.96265363693236L87.61020833333333,90.97535487583706L87.73104166666667,90.96086515699113L88.09354166666667,90.95152868543352L88.15395833333334,90.95995576041085L88.27479166666666,90.95646974018642L88.33641666666666,96.92368759427751L88.57808333333334,98.69358553205217L88.81975,97.9500628880092L88.94058333333332,97.75045033863613L89.24266666666668,98.41352169854301L89.30308333333333,98.41467360087803L89.36349999999999,98.56572437286376L89.84683333333334,98.90880938938686L90.20933333333333,98.82278047289167L90.45100000000001,98.49924748284477L90.51141666666666,98.49803495407103L90.57183333333334,98.51146371023995L91.11558333333333,98.00377791268485L91.23641666666667,97.91138322012765L91.41766666666666,97.8867688860212L91.78016666666667,97.78846311569212L92.2635,97.82320206505912L92.38433333333333,97.81526000159127L93.59266666666666,97.60167305810111L93.65308333333334,97.58460671561105L93.89474999999999,97.5803325516837L93.95516666666667,97.5554757118225L94.01558333333332,97.54992839268276L95.10308333333334,97.55729450498308L95.40516666666667,97.59891455514091L95.82808333333334,97.49781996863229L95.8885,97.47587319782802L96.25099999999999,97.43310124533517L96.37183333333333,97.38945020948137L96.67391666666666,97.38672201974052L96.79475,97.38778298241752L96.91558333333333,97.41512550626481L97.15725,97.42130940301078L97.76141666666668,97.31163617542812L98.24475,97.28529398781913L98.30516666666668,97.27992854799542L98.36558333333333,97.28317206246513L98.48641666666667,97.30833203451974L98.96975,97.27732161113194L99.09179166666667,101.13989264624459L99.45429166666666,103.80560684204102L99.575125,104.13762753350395L99.69595833333334,104.43424238477434L99.756375,104.19219132832119L99.937625,104.36843238558087L100.05845833333333,104.43233265195573L100.23970833333333,104.29634754998344L100.72304166666667,104.23074974332536L101.14595833333333,104.24332972935268L101.50845833333334,104.23123475483486L101.75012500000001,104.09676531382969L101.81054166666667,104.0817299570356L101.87095833333332,104.0533264705113L101.931375,104.10364641462053L102.293875,104.10231263296944L102.89804166666666,104.00012677056449L103.018875,103.9615683555603L103.20012500000001,103.84725720541817L103.26054166666667,103.81542832510812L103.44179166666666,103.91931172779628L103.80429166666667,103.79032897949219L103.925125,103.76444149017334L104.106375,103.68147420883179L104.287625,103.60093198503766L104.468875,103.54121494293213L104.52929166666667,103.51681280136108L105.61679166666667,103.35909312111991L106.28137500000001,103.21737882069179L106.52304166666666,103.22665466581071L107.368875,103.03919771739415L107.42929166666666,103.02970967973981L107.61054166666668,103.05729470934186L107.67095833333333,103.02422298703874L107.79179166666667,102.98651334217617L107.85220833333332,103.0006696156093L109.06054166666667,102.75852761949811L109.12095833333333,102.73842995507377L109.18137499999999,102.73339796066284L109.48345833333335,102.70505510057721L109.66470833333334,102.65091569083077L109.84716666666668,111.37218046188354L109.96799999999999,109.41712938036237L110.20966666666666,108.71592399052211L110.27008333333333,108.51258291516984L110.45133333333334,108.51209790366036L110.693,108.79986129488263L110.81383333333333,108.96806934901646L111.65966666666667,108.98207405635289L112.20341666666667,108.74626752308437L112.26383333333334,108.71495396750313L112.92841666666668,108.77685356140137L113.41175,108.67248514720372L113.47216666666667,108.62598466873169L113.65341666666667,108.58175768171037L113.77425,108.53646973201207L113.83466666666666,108.50024543489728L114.318,108.29693467276437L114.37841666666668,108.29832908085415L114.80133333333333,108.16492060252598L114.92216666666667,108.14715705599103L115.4055,107.91738285337175L115.70758333333335,107.87391369683402L115.768,107.8624552999224L115.94924999999999,107.8059514590672L116.37216666666666,107.7834893635341L117.09716666666667,107.65959923607963L117.39925,107.57632882254464L117.45966666666668,107.57769291741508L117.58049999999999,107.57699571337018L117.64091666666667,107.57332781382969L118.00341666666667,107.55480643681118L118.42633333333333,107.49869666780744L118.48675,107.49651411601475L119.03049999999999,107.46753467832292L119.27216666666666,107.42476272583008L119.393,107.44255658558437L119.63466666666666,107.49681724820817L120.17841666666666,107.41472905022758L120.542125,114.94050107683454L120.60254166666667,114.97129930768693L120.90462500000001,114.44354615892682L121.38795833333333,113.88832923344204L121.50879166666667,113.98517996924264L121.93170833333333,114.23199020113263L121.992125,114.20822463716779L122.23379166666668,113.8114549091884L122.535875,113.96944740840367L122.717125,113.82482303891862L122.83795833333333,113.79517671040126L123.01920833333332,113.7811416898455L123.20045833333333,113.72394064494542L123.442125,113.60568877628872L123.92545833333332,113.37133727754865L124.40879166666667,113.20352329526628L124.529625,113.14674663543701L124.65045833333333,113.14268466404506L124.83170833333334,113.15056610107422L124.89212500000001,113.13874394553048L125.25462499999999,113.0757530757359L125.31504166666667,113.00782115118844L125.798375,112.83173166002545L125.979625,112.75688832146781L126.04004166666667,112.74879469190324L126.10045833333334,112.75767646517072L126.160875,112.74485397338867L126.28170833333333,112.70853873661586L126.46295833333333,112.6512770652771L126.88587500000001,112.48500905718122L126.94629166666667,112.48634283883231L127.36920833333333,112.37942811420986L127.429625,112.36987945011684L127.49004166666667,112.39437253134591L128.03379166666667,112.29070132119315L128.27545833333332,112.23098427908761L128.39629166666666,112.1842109816415L128.45670833333332,112.18615102767944L128.57754166666666,112.15968758719308L128.879625,112.07335553850446L128.94004166666667,112.05462196895054L129.06087499999998,112.01512384414673L129.12129166666668,111.99484430040631L129.18170833333332,111.98026364190238L129.48379166666666,111.89653853007725L130.329625,111.71299198695591L130.873375,111.57985632760185L131.17666666666665,115.54885707582746L131.59958333333333,117.95975834982735L131.66,118.18792595182146L132.20374999999999,118.21347999572754L132.62666666666667,118.37025996616909L133.11,118.0949249948774L133.17041666666665,117.98115948268344L133.35166666666666,117.77114949907575L133.77458333333334,117.57887274878365L133.89541666666668,117.62094749723161L134.13708333333335,117.5253699166434L134.74125,117.26995073046002L134.80166666666668,117.24706424985612L134.98291666666665,117.22608750207084L135.285,117.03559923171997L135.52666666666667,117.05654566628593L136.31208333333333,116.5829016140529L136.43291666666667,116.54582854679653L136.49333333333334,116.53752272469657L136.85583333333332,116.3634945324489L136.91625,116.37886333465576L136.97666666666666,116.34370000021798L137.0975,116.2845892224993L137.21833333333333,116.22705473218645L137.94333333333333,116.10531684330532L139.03083333333333,115.76214088712419L139.39333333333335,115.66774552209037L139.75583333333333,115.57568427494594L139.81625,115.5965700830732L140.17875,115.52742562975202L140.42041666666668,115.50844955444336L140.54125,115.48083421162197L140.66208333333333,115.45300667626518L141.02458333333334,115.3917133467538L141.20583333333335,115.38089152744838L141.32666666666668,115.34945671898979L141.50791666666666,115.32872247695923L141.68916666666667,115.3215685571943L141.81120833333333,113.90548651559013L142.35495833333331,122.44505384990147L142.47579166666665,122.2922145979745L143.20079166666667,121.48988430840629L143.26120833333334,121.63114391054425L143.321625,121.53259563446045L144.16745833333334,121.1476480620248L144.409125,121.0139970779419L144.65079166666666,121.05100951875959L144.89245833333334,120.88216488701957L144.952875,120.88577216012138L145.134125,120.79995543616158L145.25495833333332,120.85445860454013L145.3757916666667,120.78828484671456L145.859125,120.64375141688754L145.97995833333334,120.70698479243686L146.16120833333335,120.61125564575195L146.34245833333333,120.573424748012L146.52370833333333,120.48997245516095L146.64454166666667,120.43113449641635L146.82579166666665,120.39609241485596L147.00704166666668,120.35404797962734L147.97370833333335,119.91280875887189L148.396625,119.72844375882829L148.69870833333331,119.67312213352749L148.75912499999998,119.64047479629517L148.81954166666668,119.6270157269069L148.940375,119.62177153996059L149.00079166666666,119.57781737191337L149.121625,119.52379921504428L149.24245833333333,119.44680363791329L149.484125,119.39521053859164L149.72579166666665,119.32300445011684L150.027875,119.23285293579102L150.14870833333333,119.2314282144819L150.57162499999998,119.13491092409406L150.69245833333335,119.11675330570766L150.752875,119.10935688018799L150.93412500000002,119.0686765398298L151.05495833333333,119.03475604738507L151.296625,118.9360258919852L151.477875,118.91741357530866L151.59870833333332,118.87539945329938L151.7195416666667,118.85321017674038L151.77995833333333,118.86024284362793L152.384125,118.80677032470703L152.44454166666665,118.77985218593051L152.627,129.28411020551408L152.80825,128.53137234279086L152.9895,126.56483255113874L153.04991666666666,126.64134311676025L153.23116666666667,126.12513930456979L153.29158333333334,126.23981421334403L153.41241666666664,126.2852840423584L153.71450000000002,125.8615961756025L153.77491666666668,125.80433450426374L154.1978333333333,125.05859899520874L154.25825,124.9732369695391L154.49991666666668,124.67871373040336L154.62075,124.72460794448853L154.74158333333335,124.7135739326477L154.98325,124.69778074537004L155.58741666666668,124.12640687397548L155.70825,124.06017248971122L155.82908333333336,124.00721529551915L155.8895,123.95689535140991L156.13116666666667,123.91482060296195L156.31241666666665,123.78195776258195L156.79575,123.53890636989048L157.03741666666667,123.42689902441842L157.21866666666668,123.40474006107875L157.88325,123.23753234318325L158.12491666666665,123.2238004548209L158.24575000000002,123.13258797781808L158.427,123.0677480016436L158.54783333333333,123.06223099572318L158.60825,123.04431588309151L158.7290833333333,122.97580800737653L158.84991666666667,122.96641090938023L158.91033333333334,122.9389168194362L159.03116666666668,122.91184711456299L159.152,122.91878884179252L159.21241666666666,122.8963873726981L159.45408333333333,122.82621226991925L159.5145,122.81990712029594L159.63533333333334,122.8131775856018L159.81658333333334,122.78019680295671L160.11866666666668,122.71914597920009L160.84366666666665,122.4945250238691L161.08533333333332,122.46903160640171L161.26658333333333,122.39906869615827L161.87075,122.27011626107353L162.23325,122.20897449765886L162.29366666666667,122.17541776384626L162.4145,122.12737131118774L162.59575,122.13061482565743L162.77700000000002,122.09893751144409L162.83741666666668,122.07999174935478L162.89783333333332,122.06125817980084L163.44279166666666,130.96346255711148L163.50320833333333,130.60024956294467L163.563625,131.1249713897705L163.68445833333334,130.47526815959384L164.40945833333333,128.93208278928483L164.469875,128.94578436442782L164.53029166666667,128.89573723929269L164.59070833333334,128.75290134974887L165.07404166666666,128.5265828541347L165.61779166666668,128.17264570508684L165.919875,127.85244716916765L166.644875,127.58747931889125L167.49070833333334,127.15669815880912L167.67195833333335,127.15842601231166L167.73237500000002,127.09543514251709L167.79279166666666,127.05151128768921L167.91362500000002,126.98839916501726L168.39695833333332,126.79660742623466L168.51779166666668,126.77229622432164L168.638625,126.7852702822004L168.75945833333336,126.71867213930402L169.363625,126.35121529442924L169.84695833333333,126.09473514556885L169.907375,126.06599821363176L170.20945833333332,125.93080125536237L170.57195833333336,125.84037692206246L171.05529166666665,125.6898717880249L171.4177916666667,125.46873685291835L171.47820833333333,125.45179176330566L171.59904166666666,125.48565162931169L171.719875,125.44190965379987L172.02195833333334,125.32374872480119L173.169875,125.1044932092939L173.29070833333336,125.11149556296212L173.532375,125.02107122966221L173.59279166666667,125.02892235347203L174.13774999999998,133.3947343145098L174.25858333333335,132.71344470977783L174.43983333333335,131.96692105701993L174.50025,132.2092752456665L174.56066666666666,132.5195310456412L175.16483333333332,131.88640914644515L175.22525000000002,131.82190261568343L175.4065,131.55281216757638L175.52733333333333,131.57363734926497L175.769,131.28584364482333L175.88983333333334,131.23955535888672L176.07108333333335,131.10011454990934L176.19191666666666,131.06304148265292L176.31275000000002,131.01308529717582L176.43358333333333,130.87552390779769L176.97733333333332,130.74802650724138L177.219,130.62810741152083L177.46066666666667,130.50530855996269L177.58149999999998,130.43998357227872L177.76275,130.32291391917636L177.94400000000002,130.2491921697344L178.3065,130.0809841156006L178.36691666666667,130.00811113630022L178.6085833333333,129.86418397086007L178.78983333333335,129.75942148481096L178.97108333333335,129.70916216714042L179.09191666666666,129.60561220986503L179.63566666666665,129.4418601989746L179.81691666666669,129.3581350871495L179.87733333333333,129.3397652762277L179.93775,129.34707076208932L179.99816666666666,129.36019638606479L180.17941666666667,129.31742443357194L180.42108333333334,129.24661275318692L180.78358333333333,129.18304593222481L180.84400000000002,129.1795599120004L181.02525,129.09101499829973L181.50858333333332,128.875609261649L181.81066666666666,128.69700377328056L181.99191666666667,128.65232208796908L182.17316666666667,128.5755387033735L182.23358333333334,128.56674786976407L182.35441666666665,128.49905845097135L182.53566666666666,128.426276411329L182.59608333333333,128.41436331612724L182.7169166666667,128.41742495128085L183.07941666666667,128.29526267732894L183.26066666666668,128.21456888743808L183.44191666666666,128.15406370162964L183.50233333333335,128.13554232461112L183.74400000000003,128.04605770111084L184.1065,127.93332283837455L184.83270833333333,137.57144124167306L185.074375,136.9405928339277L185.1952083333333,135.90103128978183L185.49729166666668,135.627272605896L185.799375,135.0523520878383L186.34312500000001,134.5293278012957L186.58479166666666,134.18121079036166L186.82645833333333,134.03940555027555L187.0077083333333,133.84282432283675L187.91395833333334,133.36578519003731L188.57854166666667,132.86052445002963L188.63895833333333,132.8491873059954L188.82020833333334,132.8097801208496L189.18270833333332,132.59179776055473L189.605625,132.32449579238892L189.66604166666667,132.2883018084935L189.7264583333333,132.233980519431L189.786875,132.19051136289323L189.84729166666668,132.1611681665693L189.90770833333332,132.11548614501953L190.39104166666667,132.01372466768538L191.780625,131.51731538772583L191.84104166666665,131.4581742967878L191.90145833333335,131.45750740596225L192.324375,131.30585036958968L192.98895833333333,131.08341196605136L193.10979166666667,131.07331766401018L193.35145833333334,131.00241504396712L193.83479166666666,130.8593669618879L193.89520833333333,130.85669939858573L194.07645833333333,130.802711554936L194.19729166666667,130.76918513434273L194.2577083333333,130.77518715177263L194.37854166666668,130.72711038589478L195.46725,136.05438586643766L195.76933333333335,137.01458740234375L195.95058333333333,137.3203568458557L196.13183333333333,137.26364081246513L196.67558333333332,136.99218593324935L196.736,136.867689541408L197.0985,136.47567898886544L197.21933333333334,136.4258440562657L197.27974999999998,136.41844763074602L197.64225000000002,135.98942463738578L197.82350000000002,135.94950212751115L197.88391666666666,135.9397715841021L198.186,135.85280295780728L198.30683333333332,135.68038136618478L198.42766666666668,135.66631603240967L198.60891666666666,135.60938780648368L198.66933333333336,135.50511033194405L199.15266666666665,135.34008516584123L199.45475000000002,135.26621185030257L199.57558333333333,135.21719537462508L199.636,135.20491852079118L199.6964166666667,135.19515766416276L200.361,134.85713495526994L200.96516666666665,134.61972182137626L201.4485,134.44123758588518L202.47558333333333,134.10127483095442L202.77766666666668,134.01439714431763L202.89849999999998,133.94725336347307L202.95891666666668,133.95289162227084L203.14016666666666,133.87680544172014L203.74433333333334,133.67831448146273L204.10683333333333,133.57303667068481L204.3485,133.5057110105242L204.65058333333334,133.4393856866019L204.77141666666668,133.39846284048897L204.89225,133.34862790788924L205.01308333333333,133.31613213675362L205.13391666666666,133.25432348251343L205.37558333333334,133.20270006997245L205.436,133.2016694205148L205.61725,133.1677792412894L205.73808333333332,133.08990458079745L205.97975,132.99757051467896L206.04137500000002,141.48875795091902L206.22262500000002,141.03399903433663L206.28304166666666,140.8542719568525L206.403875,140.51776490892684L206.7059583333333,140.77172906058175L206.82679166666668,141.00956657954623L206.88720833333332,140.78591564723422L206.947625,140.5834233420236L207.310125,140.00932128088814L207.43095833333334,139.8345352581569L208.15595833333333,139.35234287806918L208.3372083333333,139.25206674848283L208.45804166666667,139.27458947045463L208.57887499999998,139.13063199179513L208.69970833333335,138.93371731894356L208.82054166666666,138.71518932070052L209.36429166666665,138.3162976673671L209.60595833333332,138.15133312770297L209.72679166666668,138.04414558410645L209.90804166666666,137.94814361844743L210.39137499999998,137.82304096221924L210.63304166666666,137.6833576474871L210.87470833333333,137.70115150724138L211.2372083333333,137.56201383045743L211.660125,137.33966636657715L211.78095833333333,137.30241142000472L212.08304166666667,137.1806129046849L212.50595833333333,136.9223139626639L212.68720833333333,136.89797244753157L212.747625,136.864506653377L213.04970833333334,136.72221640178134L213.11012499999998,136.72624805995395L213.17054166666668,136.7033312661307L213.291375,136.62245559692383L213.472625,136.55237143380302L213.77470833333334,136.40432167053223L213.95595833333334,136.35300139018466L214.016375,136.3342981338501L214.13720833333332,136.24902704783847L214.49970833333333,136.1011288506644L215.10387500000002,135.85498550959994L215.5267916666667,135.71572657993863L215.70804166666667,135.64949219567436L215.7684583333333,135.63054643358504L216.191375,135.5160230909075L216.25179166666666,135.5008967944554L216.31220833333333,135.47861657823836L216.372625,135.4628233909607L216.67470833333334,135.35575710024153L216.79675,142.9169046538217L218.24675,141.52831670216153L218.428,141.42179604939054L218.54883333333333,141.36729288101196L218.85091666666665,140.95345681054252L219.03216666666665,140.80507360185896L219.09258333333332,140.80116319656372L219.21341666666666,140.73956673485893L219.27383333333333,140.7210453578404L219.69675,140.478175844465L219.81758333333332,140.38878216062272L219.93841666666668,140.36510753631592L220.48216666666667,140.10226161139352L220.78425000000001,140.0662191935948L220.84466666666665,139.99774163109916L221.20716666666667,139.88279390335083L221.328,139.8185601915632L221.44883333333334,139.77848611559187L221.56966666666668,139.71646526881625L221.81133333333335,139.6877283368792L221.99258333333333,139.62016017096383L222.23425,139.5330399785723L222.778,139.3135116440909L222.83841666666666,139.29874910627092L222.89883333333333,139.2727403640747L223.26133333333334,139.0958021027701L223.74466666666666,138.9008274759565L223.98633333333333,138.81388916288103L224.10716666666667,138.7381364277431L224.1675833333333,138.72179760251726L224.228,138.6859370640346L224.46966666666668,138.58596406664168L224.77175,138.50811971936906L225.19466666666665,138.31717675072807L225.678,138.15597105026245L225.91966666666667,138.07442849023002L226.16133333333335,138.02535138811385L226.28216666666665,137.98812675476074L226.64466666666667,137.8706933430263L226.82591666666664,137.83577251434326L226.94675,137.7875441823687L227.06758333333332,137.7583828653608L227.18841666666668,137.7225526400975L227.36966666666666,137.67423336846488L227.43129166666665,146.3315372467041L227.61254166666666,146.22492565427507L227.85420833333333,145.3021912574768L228.33754166666668,145.05580541065763L228.639625,144.69753347124373L228.70004166666666,144.68574162891935L228.94170833333334,144.60813978740146L229.36462500000002,143.99772248949324L230.02920833333334,143.5543613433838L230.21045833333335,143.43453318732125L230.270875,143.34125941140312L230.45212500000002,143.32279866082328L230.75420833333334,143.03003358840942L231.11670833333332,142.7921657562256L231.177125,142.71795899527413L231.41879166666666,142.56184591565813L231.539625,142.51467854636056L231.902125,142.38596861703056L231.96254166666665,142.35468537466866L232.08337500000002,142.30585077830722L232.32504166666666,142.27447659628731L232.74795833333332,141.97343601499284L233.11045833333336,141.79901375089372L233.29170833333333,141.6994045121329L233.65420833333334,141.538259438106L234.13754166666666,141.37244612830025L234.31879166666667,141.2734431539263L234.439625,141.2082394191197L234.50004166666668,141.2101491519383L234.802125,141.13894339970182L234.86254166666666,141.14831018447876L235.04379166666666,141.0955651828221L235.164625,141.03296838487898L235.22504166666664,141.02596603121077L235.345875,140.95509372438704L235.64795833333332,140.84751210893904L236.25212499999998,140.58875846862793L236.61462500000002,140.46968814304898L236.73545833333333,140.41627625056674L236.795875,140.38987343651908L237.03754166666667,140.27434975760323L237.09795833333334,140.25795030593872L237.33962499999998,140.17028447559903L237.46045833333335,140.149065222059L237.82295833333333,140.0161417552403L237.88337499999997,139.9966503552028L238.064625,139.9127433640616L238.2470833333333,148.31096015657698L238.97208333333333,147.49135133198328L239.27416666666664,147.07475675855363L239.3345833333333,146.9436217716762L239.45541666666668,146.669832774571L239.99916666666667,146.12868118286133L240.05958333333334,146.04401636123657L240.42208333333335,145.84749576023648L240.48250000000002,145.8648349217006L241.32833333333335,145.2837608201163L241.57,145.17420884541104L241.69083333333333,145.10382155009677L241.81166666666667,145.00912305286954L241.99291666666664,144.89226559230258L242.17416666666665,144.70229264668058L242.71791666666667,144.31434406552995L243.08041666666668,144.2559001786368L243.20125,144.1848763057164L243.8658333333333,143.85934264319283L243.92625,143.79322951180595L244.28875,143.71547610419137L244.71166666666667,143.5800063269479L246.16166666666666,142.9529470716204L246.22208333333333,142.95179516928536L246.34291666666667,142.90417310169767L246.52416666666664,142.85564163752963L246.645,142.82593468257357L247.91375000000002,142.29690837860107L248.095,142.2248841694423L248.33666666666664,142.1686531475612L248.3970833333333,142.14128031049455L248.4575,142.12178891045707L248.57833333333332,142.10035746438163L248.76079166666665,150.23078727722168L248.94204166666665,150.56359611238753L249.06287500000002,151.43113013676233L249.18370833333333,150.72743906293596L249.606625,149.89940316336495L249.84829166666668,149.66941676821028L250.02954166666666,149.36461734771729L250.331625,148.92762197766984L250.81495833333332,148.53552048546928L251.056625,148.18273523875644L251.1774583333333,148.0530855996268L251.29829166666667,147.9381378718785L251.35870833333334,147.8862416403634L251.72120833333335,147.77214268275668L251.96287500000003,147.68432528632027L252.08370833333333,147.54382351466586L252.20454166666664,147.5066898209708L252.38579166666668,147.3970469066075L252.92954166666667,147.0916109085083L253.050375,147.00524854660034L253.11079166666667,146.9612034388951L253.35245833333335,146.83206912449427L253.65454166666666,146.64215680531092L253.775375,146.58447074890137L254.37954166666668,146.22422845023019L254.500375,146.16163165228707L254.62120833333333,146.09154748916626L255.406625,145.75267601013184L255.64829166666667,145.62357200895036L255.769125,145.56512812205722L256.37329166666666,145.25117410932268L256.67537500000003,145.12222167423795L257.0982916666667,144.94049392427718L257.27954166666666,144.9266710962568L257.400375,144.86331646783012L258.6087083333333,144.41519614628385L258.669125,144.38809612819125L258.72954166666665,144.3522962161473L258.850375,144.29912682941983L259.03162499999996,144.2581433568682L259.15245833333336,144.20567117418562L259.45575,143.26999303272794L259.6974166666667,153.50264460699898L260.12033333333335,152.09829378128052L260.18075,152.05673435756137L260.2411666666667,152.11190441676547L260.54325,151.69673456464494L260.60366666666664,151.38029486792428L260.8453333333333,151.08668102536882L261.50991666666664,150.4082408632551L261.87241666666665,150.07197632108415L262.1140833333333,149.8904001372201L262.23491666666666,149.7135225023542L262.4161666666667,149.6783288546971L262.537,149.5772645814078L262.8995,149.27722433635165L263.08074999999997,149.05818101337977L263.32241666666664,148.93292679105485L263.5640833333333,148.8375917162214L263.68491666666665,148.8083394595555L263.8661666666667,148.68923882075717L263.987,148.62627826418196L264.2286666666667,148.48662526266915L264.3495,148.48068387167794L264.53075,148.40277889796664L264.8328333333333,148.3220851080758L265.0745,148.18931320735385L265.13491666666664,148.14126675469535L265.25575,148.08715765816825L265.79949999999997,147.7802666255406L265.85991666666666,147.78739023208618L266.5245,147.4780741419111L266.6453333333333,147.42181280681064L266.70575,147.37985931124007L267.1286666666667,147.1288355418614L267.2495,147.0740898677281L267.30991666666665,147.0639046260289L267.37033333333335,147.03419767107283L267.43075,146.99818556649345L267.67241666666666,146.967296395983L267.79325,146.91485452651978L269.12241666666665,146.4737971850804L269.3036666666667,146.42193126678467L269.8474166666667,146.22744165148055L270.02866666666665,146.1492941720145L270.1495,146.1051581246512L270.3319583333333,155.05280201775687L270.392375,154.70510939189364L270.45279166666666,153.67800658089774L270.573625,153.80868686948503L271.05695833333334,154.39794554029191L271.35904166666666,154.67515993118286L271.78195833333336,154.89696175711495L273.473625,153.8694042478289L273.8965416666667,153.82611697060722L274.50070833333336,153.69361788885934L274.561125,153.65269504274642L274.8632083333333,153.4863967214312L275.34654166666667,153.1877508844648L275.4069583333333,153.15868050711495L275.467375,153.14146259852816L276.0715416666667,152.994352545057L276.13195833333333,152.9901693207877L276.192375,152.94809457233973" style="fill: none;" fill="none"></path></g></g></g></g></g></g><g transform="translate(40, 178)" clip-path="url(#clip_1)"><clipPath id="clip_1"><rect width="290" height="22"></rect></clipPath><g><g><line x1="0" y1="0" x2="0" y2="5" style="visibility: inherit;" fill="rgb(0, 0, 0)" stroke="rgb(204, 204, 204)" stroke-width="1px"></line><line x1="24.166666666666664" y1="0" x2="24.166666666666664" y2="5" style="visibility: inherit;" fill="rgb(0, 0, 0)" stroke="rgb(204, 204, 204)" stroke-width="1px"></line><line x1="48.33333333333333" y1="0" x2="48.33333333333333" y2="5" style="visibility: inherit;" fill="rgb(0, 0, 0)" stroke="rgb(204, 204, 204)" stroke-width="1px"></line><line x1="72.5" y1="0" x2="72.5" y2="5" style="visibility: inherit;" fill="rgb(0, 0, 0)" stroke="rgb(204, 204, 204)" stroke-width="1px"></line><line x1="96.66666666666666" y1="0" x2="96.66666666666666" y2="5" style="visibility: inherit;" fill="rgb(0, 0, 0)" stroke="rgb(204, 204, 204)" stroke-width="1px"></line><line x1="120.83333333333334" y1="0" x2="120.83333333333334" y2="5" style="visibility: inherit;" fill="rgb(0, 0, 0)" stroke="rgb(204, 204, 204)" stroke-width="1px"></line><line x1="145" y1="0" x2="145" y2="5" style="visibility: inherit;" fill="rgb(0, 0, 0)" stroke="rgb(204, 204, 204)" stroke-width="1px"></line><line x1="169.16666666666669" y1="0" x2="169.16666666666669" y2="5" style="visibility: inherit;" fill="rgb(0, 0, 0)" stroke="rgb(204, 204, 204)" stroke-width="1px"></line><line x1="193.33333333333331" y1="0" x2="193.33333333333331" y2="5" style="visibility: inherit;" fill="rgb(0, 0, 0)" stroke="rgb(204, 204, 204)" stroke-width="1px"></line><line x1="217.5" y1="0" x2="217.5" y2="5" style="visibility: inherit;" fill="rgb(0, 0, 0)" stroke="rgb(204, 204, 204)" stroke-width="1px"></line><line x1="241.66666666666669" y1="0" x2="241.66666666666669" y2="5" style="visibility: inherit;" fill="rgb(0, 0, 0)" stroke="rgb(204, 204, 204)" stroke-width="1px"></line><line x1="265.8333333333333" y1="0" x2="265.8333333333333" y2="5" style="visibility: inherit;" fill="rgb(0, 0, 0)" stroke="rgb(204, 204, 204)" stroke-width="1px"></line><line x1="290" y1="0" x2="290" y2="5" style="visibility: inherit;" fill="rgb(0, 0, 0)" stroke="rgb(204, 204, 204)" stroke-width="1px"></line></g><g transform="translate(0, 8)"><text x="0" y="0" dx="0em" dy="0.95em" style="text-anchor: middle; visibility: hidden; font-family: &quot;Helvetica Neue&quot;, sans-serif; font-size: 12px; font-weight: 200;" fill="rgb(50, 49, 63)" stroke="none" stroke-width="1px">-20k</text><text x="24.166666666666664" y="0" dx="0em" dy="0.95em" style="text-anchor: middle; visibility: inherit; font-family: &quot;Helvetica Neue&quot;, sans-serif; font-size: 12px; font-weight: 200;" fill="rgb(50, 49, 63)" stroke="none" stroke-width="1px">0</text><text x="48.33333333333333" y="0" dx="0em" dy="0.95em" style="text-anchor: middle; visibility: hidden; font-family: &quot;Helvetica Neue&quot;, sans-serif; font-size: 12px; font-weight: 200;" fill="rgb(50, 49, 63)" stroke="none" stroke-width="1px">20k</text><text x="72.5" y="0" dx="0em" dy="0.95em" style="text-anchor: middle; visibility: inherit; font-family: &quot;Helvetica Neue&quot;, sans-serif; font-size: 12px; font-weight: 200;" fill="rgb(50, 49, 63)" stroke="none" stroke-width="1px">40k</text><text x="96.66666666666666" y="0" dx="0em" dy="0.95em" style="text-anchor: middle; visibility: hidden; font-family: &quot;Helvetica Neue&quot;, sans-serif; font-size: 12px; font-weight: 200;" fill="rgb(50, 49, 63)" stroke="none" stroke-width="1px">60k</text><text x="120.83333333333334" y="0" dx="0em" dy="0.95em" style="text-anchor: middle; visibility: inherit; font-family: &quot;Helvetica Neue&quot;, sans-serif; font-size: 12px; font-weight: 200;" fill="rgb(50, 49, 63)" stroke="none" stroke-width="1px">80k</text><text x="145" y="0" dx="0em" dy="0.95em" style="text-anchor: middle; visibility: hidden; font-family: &quot;Helvetica Neue&quot;, sans-serif; font-size: 12px; font-weight: 200;" fill="rgb(50, 49, 63)" stroke="none" stroke-width="1px">100k</text><text x="169.16666666666669" y="0" dx="0em" dy="0.95em" style="text-anchor: middle; visibility: inherit; font-family: &quot;Helvetica Neue&quot;, sans-serif; font-size: 12px; font-weight: 200;" fill="rgb(50, 49, 63)" stroke="none" stroke-width="1px">120k</text><text x="193.33333333333331" y="0" dx="0em" dy="0.95em" style="text-anchor: middle; visibility: hidden; font-family: &quot;Helvetica Neue&quot;, sans-serif; font-size: 12px; font-weight: 200;" fill="rgb(50, 49, 63)" stroke="none" stroke-width="1px">140k</text><text x="217.5" y="0" dx="0em" dy="0.95em" style="text-anchor: middle; visibility: inherit; font-family: &quot;Helvetica Neue&quot;, sans-serif; font-size: 12px; font-weight: 200;" fill="rgb(50, 49, 63)" stroke="none" stroke-width="1px">160k</text><text x="241.66666666666669" y="0" dx="0em" dy="0.95em" style="text-anchor: middle; visibility: hidden; font-family: &quot;Helvetica Neue&quot;, sans-serif; font-size: 12px; font-weight: 200;" fill="rgb(50, 49, 63)" stroke="none" stroke-width="1px">180k</text><text x="265.8333333333333" y="0" dx="0em" dy="0.95em" style="text-anchor: middle; visibility: inherit; font-family: &quot;Helvetica Neue&quot;, sans-serif; font-size: 12px; font-weight: 200;" fill="rgb(50, 49, 63)" stroke="none" stroke-width="1px">200k</text><text x="290" y="0" dx="0em" dy="0.95em" style="text-anchor: middle; visibility: hidden; font-family: &quot;Helvetica Neue&quot;, sans-serif; font-size: 12px; font-weight: 200;" fill="rgb(50, 49, 63)" stroke="none" stroke-width="1px">220k</text></g><line x1="0" y1="0" x2="290" y2="0" fill="rgb(0, 0, 0)" stroke="rgb(204, 204, 204)" stroke-width="1px"></line></g></g></g></g></svg>