<svg viewBox="0 0 330 200" xmlns="http://www.w3.org/2000/svg"><g><g><g><g><g><line x1="30" y1="178" x2="25" y2="178" style="visibility: inherit;" fill="rgb(0, 0, 0)" stroke="rgb(204, 204, 204)" stroke-width="1px"></line><line x1="30" y1="160.2" x2="25" y2="160.2" style="visibility: inherit;" fill="rgb(0, 0, 0)" stroke="rgb(204, 204, 204)" stroke-width="1px"></line><line x1="30" y1="142.4" x2="25" y2="142.4" style="visibility: inherit;" fill="rgb(0, 0, 0)" stroke="rgb(204, 204, 204)" stroke-width="1px"></line><line x1="30" y1="124.6" x2="25" y2="124.6" style="visibility: inherit;" fill="rgb(0, 0, 0)" stroke="rgb(204, 204, 204)" stroke-width="1px"></line><line x1="30" y1="106.8" x2="25" y2="106.8" style="visibility: inherit;" fill="rgb(0, 0, 0)" stroke="rgb(204, 204, 204)" stroke-width="1px"></line><line x1="30" y1="89" x2="25" y2="89" style="visibility: inherit;" fill="rgb(0, 0, 0)" stroke="rgb(204, 204, 204)" stroke-width="1px"></line><line x1="30" y1="71.2" x2="25" y2="71.2" style="visibility: inherit;" fill="rgb(0, 0, 0)" stroke="rgb(204, 204, 204)" stroke-width="1px"></line><line x1="30" y1="53.400000000000006" x2="25" y2="53.400000000000006" style="visibility: inherit;" fill="rgb(0, 0, 0)" stroke="rgb(204, 204, 204)" stroke-width="1px"></line><line x1="30" y1="35.599999999999994" x2="25" y2="35.599999999999994" style="visibility: inherit;" fill="rgb(0, 0, 0)" stroke="rgb(204, 204, 204)" stroke-width="1px"></line><line x1="30" y1="17.799999999999983" x2="25" y2="17.799999999999983" style="visibility: inherit;" fill="rgb(0, 0, 0)" stroke="rgb(204, 204, 204)" stroke-width="1px"></line><line x1="30" y1="0" x2="25" y2="0" style="visibility: inherit;" fill="rgb(0, 0, 0)" stroke="rgb(204, 204, 204)" stroke-width="1px"></line></g><g transform="translate(20, 0)"><text x="0" y="178" dx="0em" dy="0.3em" style="text-anchor: end; visibility: hidden; font-family: &quot;Helvetica Neue&quot;, sans-serif; font-size: 12px; font-weight: 200;" fill="rgb(50, 49, 63)" stroke="none" stroke-width="1px">66</text><text x="0" y="160.2" dx="0em" dy="0.3em" style="text-anchor: end; visibility: inherit; font-family: &quot;Helvetica Neue&quot;, sans-serif; font-size: 12px; font-weight: 200;" fill="rgb(50, 49, 63)" stroke="none" stroke-width="1px">68</text><text x="0" y="142.4" dx="0em" dy="0.3em" style="text-anchor: end; visibility: hidden; font-family: &quot;Helvetica Neue&quot;, sans-serif; font-size: 12px; font-weight: 200;" fill="rgb(50, 49, 63)" stroke="none" stroke-width="1px">70</text><text x="0" y="124.6" dx="0em" dy="0.3em" style="text-anchor: end; visibility: inherit; font-family: &quot;Helvetica Neue&quot;, sans-serif; font-size: 12px; font-weight: 200;" fill="rgb(50, 49, 63)" stroke="none" stroke-width="1px">72</text><text x="0" y="106.8" dx="0em" dy="0.3em" style="text-anchor: end; visibility: hidden; font-family: &quot;Helvetica Neue&quot;, sans-serif; font-size: 12px; font-weight: 200;" fill="rgb(50, 49, 63)" stroke="none" stroke-width="1px">74</text><text x="0" y="89" dx="0em" dy="0.3em" style="text-anchor: end; visibility: inherit; font-family: &quot;Helvetica Neue&quot;, sans-serif; font-size: 12px; font-weight: 200;" fill="rgb(50, 49, 63)" stroke="none" stroke-width="1px">76</text><text x="0" y="71.2" dx="0em" dy="0.3em" style="text-anchor: end; visibility: hidden; font-family: &quot;Helvetica Neue&quot;, sans-serif; font-size: 12px; font-weight: 200;" fill="rgb(50, 49, 63)" stroke="none" stroke-width="1px">78</text><text x="0" y="53.400000000000006" dx="0em" dy="0.3em" style="text-anchor: end; visibility: inherit; font-family: &quot;Helvetica Neue&quot;, sans-serif; font-size: 12px; font-weight: 200;" fill="rgb(50, 49, 63)" stroke="none" stroke-width="1px">80</text><text x="0" y="35.599999999999994" dx="0em" dy="0.3em" style="text-anchor: end; visibility: hidden; font-family: &quot;Helvetica Neue&quot;, sans-serif; font-size: 12px; font-weight: 200;" fill="rgb(50, 49, 63)" stroke="none" stroke-width="1px">82</text><text x="0" y="17.799999999999983" dx="0em" dy="0.3em" style="text-anchor: end; visibility: inherit; font-family: &quot;Helvetica Neue&quot;, sans-serif; font-size: 12px; font-weight: 200;" fill="rgb(50, 49, 63)" stroke="none" stroke-width="1px">84</text><text x="0" y="0" dx="0em" dy="0.3em" style="text-anchor: end; visibility: hidden; font-family: &quot;Helvetica Neue&quot;, sans-serif; font-size: 12px; font-weight: 200;" fill="rgb(50, 49, 63)" stroke="none" stroke-width="1px">86</text></g><line x1="30" y1="0" x2="30" y2="178" fill="rgb(0, 0, 0)" stroke="rgb(204, 204, 204)" stroke-width="1px"></line></g></g><g transform="translate(30, 0)" clip-path="url(#clip_0)"><clipPath id="clip_0"><rect width="300" height="178"></rect></clipPath><g><g><g><line x1="0" y1="0" x2="0" y2="178" fill="rgb(0, 0, 0)" stroke="rgb(60, 60, 60)" stroke-width="1px" opacity="0.25"></line><line x1="25" y1="0" x2="25" y2="178" fill="rgb(0, 0, 0)" stroke="rgb(60, 60, 60)" stroke-width="1px" opacity="0.25"></line><line x1="50" y1="0" x2="50" y2="178" fill="rgb(0, 0, 0)" stroke="rgb(60, 60, 60)" stroke-width="1px" opacity="0.25"></line><line x1="75" y1="0" x2="75" y2="178" fill="rgb(0, 0, 0)" stroke="rgb(60, 60, 60)" stroke-width="1px" opacity="0.25"></line><line x1="100" y1="0" x2="100" y2="178" fill="rgb(0, 0, 0)" stroke="rgb(60, 60, 60)" stroke-width="1px" opacity="0.25"></line><line x1="125" y1="0" x2="125" y2="178" fill="rgb(0, 0, 0)" stroke="rgb(60, 60, 60)" stroke-width="1px" opacity="0.25"></line><line x1="150" y1="0" x2="150" y2="178" fill="rgb(0, 0, 0)" stroke="rgb(60, 60, 60)" stroke-width="1px" opacity="0.25"></line><line x1="175" y1="0" x2="175" y2="178" fill="rgb(0, 0, 0)" stroke="rgb(60, 60, 60)" stroke-width="1px" opacity="0.25"></line><line x1="200" y1="0" x2="200" y2="178" fill="rgb(0, 0, 0)" stroke="rgb(60, 60, 60)" stroke-width="1px" opacity="0.25"></line><line x1="225" y1="0" x2="225" y2="178" fill="rgb(0, 0, 0)" stroke="rgb(60, 60, 60)" stroke-width="1px" opacity="0.25"></line><line x1="250" y1="0" x2="250" y2="178" fill="rgb(0, 0, 0)" stroke="rgb(60, 60, 60)" stroke-width="1px" opacity="0.25"></line><line x1="275" y1="0" x2="275" y2="178" fill="rgb(0, 0, 0)" stroke="rgb(60, 60, 60)" stroke-width="1px" opacity="0.25"></line><line x1="300" y1="0" x2="300" y2="178" fill="rgb(0, 0, 0)" stroke="rgb(60, 60, 60)" stroke-width="1px" opacity="0.25"></line></g><g><line x1="0" y1="178" x2="300" y2="178" fill="rgb(0, 0, 0)" stroke="rgb(60, 60, 60)" stroke-width="1px" opacity="0.25"></line><line x1="0" y1="160.2" x2="300" y2="160.2" fill="rgb(0, 0, 0)" stroke="rgb(60, 60, 60)" stroke-width="1px" opacity="0.25"></line><line x1="0" y1="142.4" x2="300" y2="142.4" fill="rgb(0, 0, 0)" stroke="rgb(60, 60, 60)" stroke-width="1px" opacity="0.25"></line><line x1="0" y1="124.6" x2="300" y2="124.6" fill="rgb(0, 0, 0)" stroke="rgb(60, 60, 60)" stroke-width="1px" opacity="0.25"></line><line x1="0" y1="106.8" x2="300" y2="106.8" fill="rgb(0, 0, 0)" stroke="rgb(60, 60, 60)" stroke-width="1px" opacity="0.25"></line><line x1="0" y1="89" x2="300" y2="89" fill="rgb(0, 0, 0)" stroke="rgb(60, 60, 60)" stroke-width="1px" opacity="0.25"></line><line x1="0" y1="71.2" x2="300" y2="71.2" fill="rgb(0, 0, 0)" stroke="rgb(60, 60, 60)" stroke-width="1px" opacity="0.25"></line><line x1="0" y1="53.400000000000006" x2="300" y2="53.400000000000006" fill="rgb(0, 0, 0)" stroke="rgb(60, 60, 60)" stroke-width="1px" opacity="0.25"></line><line x1="0" y1="35.599999999999994" x2="300" y2="35.599999999999994" fill="rgb(0, 0, 0)" stroke="rgb(60, 60, 60)" stroke-width="1px" opacity="0.25"></line><line x1="0" y1="17.799999999999983" x2="300" y2="17.799999999999983" fill="rgb(0, 0, 0)" stroke="rgb(60, 60, 60)" stroke-width="1px" opacity="0.25"></line><line x1="0" y1="0" x2="300" y2="0" fill="rgb(0, 0, 0)" stroke="rgb(60, 60, 60)" stroke-width="1px" opacity="0.25"></line></g></g></g><g><g><line x1="0" y1="765.4" x2="300" y2="765.4" fill="rgb(0, 0, 0)" stroke="rgb(153, 153, 153)" stroke-width="1.5px"></line></g></g><g><g><line x1="25" y1="0" x2="25" y2="178" fill="rgb(0, 0, 0)" stroke="rgb(153, 153, 153)" stroke-width="1.5px"></line></g></g><g><g><g><g><g><path stroke="rgb(255, 112, 67)" stroke-width="2px" d="M29.5625,197.92343158115128L29.625,175.95757747549277L29.9375,162.73057461716795L30.4375,172.47306528748433L30.875,177.27429019227222L31.375,173.0607824646393L31.5625,157.9553805064458L31.625,178.8701196299047L32.0625,167.2989793856646L32.375,174.32949743508607L32.875,175.59806485247418L33.125,171.39554112932626L33.6875,189.0278607564616L33.875,168.17484214417482L34.375,164.3584241703521L34.6875,143.40200181470428L34.875,147.3647825970236L35.4375,185.04414306920725L35.5,159.8528144539653L36.0625,167.334835119881L36.06375,154.79469385261467L36.37625,176.19995593105298L36.50125,189.75272474013138L36.56375,156.51893052018397L36.81375,156.83334005998591L37.31375,146.38292972185326L37.81375,142.88894660454434L37.87625,149.7757407593174L37.93875,142.95136671326895L38.18875,140.00514580804804L38.87625,148.56599984287834L39.25125,145.6600485185374L39.56375,126.62505061207983L39.75125,126.3324819194639L40.501250000000006,111.28314804873956L40.876250000000006,124.65530948115014L41.18875,139.82146795115665L41.37625,127.73347194052283L41.626250000000006,153.22155258374374L41.87625,147.4073039404064L42.001250000000006,149.02271959398712L43.18875,133.7752539122538L43.50125,124.15154483212342L43.56375,139.52128093926112L43.87625,136.44898506608013L44.126250000000006,131.23618607463362L44.18875,131.8301169918238L44.31375,133.4434511436897L44.81375,139.18805403512357L44.876250000000006,126.59529682577147L45.251250000000006,125.43952433520704L45.31375,113.24138115004943L45.37625,119.38067034171902L45.563750000000006,124.42657796408803L46.12625,120.64029676874301L46.62625,128.73448214280552L47.565,114.54690111562L47.815,146.94244992758152L48.19,124.56125251062316L48.440000000000005,127.91103925111182L48.565,128.90675423444003L49.315,120.59986295551263L49.3775,116.08496582940289L50.3775,139.96434472928968L51.19,111.6207897774295L51.2525,110.42962682580699L51.377500000000005,103.3990977035038L51.752500000000005,141.7942550678871L52.315,107.85474449216787L52.440000000000005,119.6733868486269L52.5025,115.3280993523176L52.69,93.2228001517647L53.065,98.92696402319058L53.6275,120.94845427348547L53.815000000000005,117.67075576446746L53.877500000000005,115.970249022431L54.44,119.68390315216391L54.5025,122.88490109396456L55.44,105.19398587689548L55.565,98.62081478162335L55.690000000000005,112.0416291085593L56.565,92.87933733486281L56.8775,84.2774512553905L57.0025,117.87216146304296L57.19,137.460269883615L57.69,121.61383619884914L58.065,117.94033616238917L58.190000000000005,119.24502481417092L58.31625,138.1983825510628L58.69125,129.22051406341456L59.00375,105.35198849331638L59.628750000000004,93.69964417067563L59.75375,120.31391226365385L60.003750000000004,122.91063440297307L60.378750000000004,115.676948560638L60.628750000000004,111.20952080171185L60.691250000000004,118.95838488126068L61.003750000000004,106.08401532704912L61.128750000000004,111.83150037448202L61.19125,101.0052941522616L61.31625,106.46199786787093L61.441250000000004,106.94020008362786L61.50375,120.187184689395L61.816250000000004,122.17081902681363L61.87875,101.17684324222375L62.441250000000004,104.09555411707639L62.816250000000004,111.25696892372154L62.941250000000004,114.65222991356674L63.253750000000004,103.79577380195092L63.566250000000004,111.1899448328461L63.69125,109.28353992263214L64.44125,98.67523066270272L64.87875,103.01967224141345L64.94125,101.26347354132054L65.06625,98.28015770875848L65.12875,102.24636153687071L65.19125,102.44420051428392L65.25375,117.88776225999815L65.37875,97.92969865785791L65.56625,117.50936835285049L65.81625000000001,96.45080130480541L66.12875,98.29812834615363L66.31625,96.98525622235198L66.56625,88.98513077600734L66.75375,115.39152334840287L66.94125,118.61651012036563L67.00375,114.43971217612435L67.19125,102.65938351672897L67.25375000000001,93.86672611153726L67.44125,107.84452787374448L67.50375,122.0346152285785L67.81625,111.69830182016048L67.87875,102.24149783974933L68.31625,102.57002976574316L68.50375,100.5536918063099L68.75375,120.00055723366549L68.94125,86.68379715972372L69.19125,110.70589430538784L69.38000000000001,83.65180125060074L69.63,94.67935301250932L69.8175,60.92474622662873L69.88,72.49969880085003L69.9425,84.25643239110956L70.38,84.79659638908576L70.755,78.39397891672577L70.88000000000001,88.53193589303538L70.9425,90.54512962655319L71.19250000000001,91.41469168947964L71.4425,96.37881294812813L71.63,80.89254464127441L71.6925,85.54845835393029L71.755,86.33265129096915L71.88,84.91995743563072L72.005,79.76846563950274L72.5675,70.64256369392608L72.8175,81.3938895610587L72.88,77.93094465457244L72.9425,83.045441004404L73.0675,82.10874163054483L73.13,81.71360958022791L73.505,78.08028564811625L73.75500000000001,56.67367820847292L73.8175,76.62591083558888L73.9425,89.03241810236119L74.06750000000001,71.15922021220258L74.255,78.30027651593137L74.3175,72.63489267767989L74.38,61.821516463582256L74.44250000000001,82.54003655833742L74.63,104.81322365976206L74.88,66.24602131240619L75.1925,82.17380639372186L75.25500000000001,95.65437847512341L75.3175,85.05178549688281L75.69250000000001,81.10114592433344L76.0675,84.3648676267874L76.31750000000001,94.69055266474516L76.505,96.5104313328708L76.75500000000001,103.7131293998613L77.005,103.70328726966552L77.13,91.62134415209114L77.4425,98.48863980263428L78.9425,81.06558150377856L79.0675,93.0687454197616L79.13,98.1811844627205L79.38,97.76951464057395L79.50500000000001,90.76231809151305L79.755,76.26318540242954L79.88,76.50362168213032L80.31875000000001,92.70106796521047L80.69375,77.77266551285419L80.94375000000001,103.25814807304566L81.38125000000001,70.88310596671354L81.44375,93.25605346359808L81.50625000000001,91.24773438929913L81.56875,85.13438463258564L81.88125,93.22383353247585L82.00625000000001,96.71137285332193L82.19375,87.75342543631885L82.25625,105.07255839261451L82.38125,101.33895799324824L82.88125000000001,109.48050827504973L82.94375,94.60239268637233L83.13125,85.8733244648472L83.56875,104.38889225217389L83.75625,100.052952770867L84.31875,77.66322736873576L84.44375,82.56814583818421L84.56875000000001,70.21081995689961L84.75625,68.11768423475063L84.81875,84.56558641361366L85.06875,97.24914697816136L85.38125,86.70067007306268L85.44375000000001,97.889672075996L85.69375,98.90693809130471L85.75625000000001,79.06766538124887L85.81875,93.4896737751413L85.88125,94.43158467343596L86.13125,91.12365653911576L86.19375000000001,99.34756380438607L86.38125000000001,115.68864444649158L86.44375,71.02013741658912L86.94375,96.83604549743767L87.19375,75.39485165887496L87.31875,97.95719451133444L87.44375000000001,82.40589759595409L87.50625,100.89729379966028L87.94375,77.84532804773507L88.00625000000001,73.46157891358813L88.06875,87.46236199499937L88.25625,70.0395936082654L88.75625,88.91299372884194L88.88125,97.58012179724153L89.13125,97.8040365391725L89.19375,102.36794085066775L89.50625,91.08817591059587L89.94375,76.73681890782228L90.63125000000001,72.59962446873342L90.75625000000001,64.24201060111811L91.13125,92.80097659342144L91.19375000000001,83.92745171520912L91.31875,93.92012928287332L91.3825,81.96425945746942L91.6325,82.40633197542442L91.88250000000001,51.01093867038618L92.0075,69.29659909073993L92.32000000000001,80.5029536499515L92.38250000000001,88.29062593263204L92.445,87.64183019006798L92.94500000000001,71.56975090028214L93.32,77.63318318939618L93.57000000000001,88.24675488357671L93.6325,71.28052754844703L93.69500000000001,78.47488923682414L94.2575,83.96493968669662L94.3825,71.96667108447579L94.57,69.88129458400968L94.94500000000001,97.73514521114042L95.445,107.84519901988504L95.57,75.35078840469595L96.82,71.4227944285133L96.88250000000001,89.74998285980405L97.1325,75.85729290786793L97.19500000000001,66.78717291874713L97.2575,73.05489111817789L98.38250000000001,66.92502324365644L98.69500000000001,73.9790418546888L99.13250000000001,73.6015268111674L99.195,85.70144315077214L99.57,97.2111284408371L99.695,85.91032438735374L100.0075,60.644356852949386L100.1325,93.23915925925401L100.2575,88.24074268134073L100.50750000000001,88.77222280440223L101.13250000000001,57.2997962663696L101.6325,80.84614455312871L101.69500000000001,77.62977903488387L101.75750000000001,74.33047309339976L101.88250000000001,67.75506081229732L102.3825,71.63893752469514L102.50874999999999,83.00974667183726L102.88375,62.63489200387052L103.00875,60.95594909225004L103.13375,63.295340635878205L103.19625,51.741114168912915L103.38374999999999,53.40611667560074L103.50875,51.22177228905724L103.69624999999999,79.81931153290861L104.19625,79.56833542154257L104.63374999999999,64.5569084786357L105.00875,66.68763757654972L105.25875,76.95157699379014L105.32125,91.40182067809316L105.38374999999999,68.86360208111353L105.44625,77.14550083612606L105.82124999999999,78.42296993772756L106.44624999999999,83.92536067736322L106.57124999999999,90.20760606697861L106.75875,74.18188524416585L106.82125,87.96064620069122L107.00874999999999,75.96449116245347L107.38375,74.84781521372638L107.50874999999999,67.25514191214037L107.69625,60.04855207986779L107.88375,57.34144062396035L108.07124999999999,54.58243218718815L108.13375,66.84366154092206L109.25874999999999,47.54980843847301L109.94625,74.66341222758692L110.19624999999999,55.360577547060316L111.07124999999999,74.01318005427922L111.13374999999999,62.86288887651325L111.32125,66.47997101781243L111.38374999999999,71.81623221110544L111.50875,78.88841870507966L111.57124999999999,89.82690875971728L112.82125,83.23757137669448L112.88375,94.57243291203177L112.94624999999999,79.14253195185667L113.25875,81.16330905455116L113.44625,75.8536754098468L113.635,68.72920771023436L113.75999999999999,60.69643900984764L114.01,67.99721783576675L114.07249999999999,78.57522209816652L114.26,49.0046194706365L114.50999999999999,73.77288150769488L114.63499999999999,68.96428480142966L115.51,72.56941651342692L116.0725,73.53398192119114L116.135,64.45182917413572L116.8225,66.77218479960393L117.3225,61.96028932049646L117.38499999999999,71.2427375987613L117.5725,70.62795075045356L117.69749999999999,59.45840559561945L117.76,75.15350266623469L118.26,68.15273842194065L118.3225,54.981891549165184L118.75999999999999,64.48612943069195L118.88499999999999,62.82512822740098L119.385,71.57068162617938L119.6975,85.79175273614483L119.76,68.95277980338746L119.94749999999999,72.59082379392161L120.38499999999999,80.99608930126251L121.135,56.06929813437297L121.44749999999999,50.350768078007334L121.51,57.53189546246469L121.63499999999999,47.29962173932543L121.6975,78.32016766498609L122.07249999999999,63.66821887859744L122.50999999999999,79.94411190381365L122.5725,75.56634262570951L123.13499999999999,92.23137579491497L123.385,64.70186513105271L123.51,56.96628211927195L123.75999999999999,83.37446662125528L124.32249999999999,67.369466985278L124.69875,59.88307627112047L124.76125,69.45662957689284L125.07375,61.011438946310065L125.57375,85.57399938714013L125.69875,74.55625377122026L126.13625,84.39856291420301L126.19875,68.20400620641423L126.44875,81.3785688815777L126.76125,69.03175341898995L126.94875,73.29316532318231L127.07375,78.47436980874667L127.26125,80.46739593407915L127.44874999999999,73.96339276093671L127.69875,76.32906390982409L128.19875,76.02487876462204L128.69875000000002,85.99624819054391L128.82375,105.80973322181161L128.94875,51.41838284190979L129.13625000000002,69.91077951626927L129.19875,63.57890112172656L129.57375,60.639213930878356L129.63625,51.078551593814396L130.13625,95.06758449059546L130.32375,97.8876312279159L130.38625,62.97574005196853L130.44875,69.34264144918434L130.51125000000002,73.47541000372505L130.63625,46.598677154559994L130.82375000000002,76.61636118774993L131.26125000000002,82.8031180426043L131.32375,72.06239804400691L131.76125,59.167312323968716L131.82375,68.78018301603828L131.88625000000002,53.64214175783884L132.44875,63.24518502307916L132.69875,56.3535555069238L132.82375,69.36831144883016L132.88625,60.6825029408747L133.01125,79.40027006256034L133.32375,66.35592505868513L133.38625000000002,46.9308379576691L133.51125,54.32941854733495L133.57375,69.6711963985511L133.63625,49.216317263071176L133.94875,63.23942093575725L134.82375,84.40745479024875L135.38625,64.5823302023334L135.7,62.25913639285335L136.1375,58.86958738392056L136.20000000000002,66.63975477047404L136.7625,58.56999604173798L137.2,62.72813702663272L137.70000000000002,81.708492530109L137.7625,61.37555168054149L137.95,80.30133112305899L138.3875,68.7589650870398L138.5125,53.82647126439318L138.76250000000002,59.120073642501566L139.38750000000002,67.94248708908836L139.45,51.072834932878905L139.6375,34.12578259351116L139.95000000000002,51.13465799582684L140.2,47.24927938727353L141.01250000000002,63.04272471889203L141.1375,62.39210681386095L141.20000000000002,77.12278882821596L141.575,98.26971834707321L141.63750000000002,80.70535466732997L141.7,71.64577082891003L141.825,75.11839731007444L141.95000000000002,74.5052939732958L142.70000000000002,60.929657802584444L143.825,48.360159929276335L144.20000000000002,46.86243922939329L144.575,43.866357653827805L144.63750000000002,60.163487236944334L145.0125,58.221214750184856L145.26250000000002,58.191320021979394L145.3875,67.72702987195024L145.5125,68.85879804849914L145.88750000000002,81.81000033068742L146.075,78.05577788546111L146.2,79.0866638618542L146.3875,56.28054398887858L146.575,41.15731207666849L146.70125000000002,54.717629337722315L147.26375,33.70906191838213L147.38875,60.149972756422954L148.13875,73.49029021254708L148.20125000000002,67.55676365373003L148.26375,62.94551405095305L149.13875000000002,60.56018299336212L149.38875,40.43985810540619L149.63875,57.8640797002986L149.88875000000002,59.157670031305514L149.95125,48.34636770555869L150.13875000000002,55.144783343283834L150.26375,71.35001009148611L150.38875000000002,54.2286215729781L150.88875,45.80780407748426L151.01375000000002,47.1298215394074L151.20125000000002,44.95171310916115L151.38875000000002,45.34306230310969L151.57625,59.696182469619444L151.70125,44.19432898404992L151.88875,58.73817326796892L152.07625000000002,55.00145198039064L153.07625000000002,58.857562593018585L153.51375000000002,92.26635744672886L153.82625,72.79369705945815L153.88875,74.22596769938045L153.95125000000002,57.6051876181637L154.07625,44.911686137744084L154.13875000000002,67.42176382166997L154.26375,52.63496328956752L154.38875000000002,68.39385370244649L154.63875000000002,49.944962598771184L154.88875,77.01517556246831L155.20125000000002,76.53286764066434L155.32625,67.89136824202834L155.76375,56.063620265699356L155.88875000000002,54.70976051818644L155.95125,53.79292815545587L156.13875000000002,38.30606379514754L156.26375,55.16807753087821L156.51375000000002,81.56416547728101L156.70125000000002,75.4145860231893L156.82625,69.47785244575074L156.95125000000002,73.59606325325649L157.01375,70.97646683364299L157.63875000000002,52.374875474897664L157.70125,44.82024019984243L157.89,61.39713750489909L158.0775,46.53713060083501L158.265,55.27072765070949L158.3275,43.840557818528396L158.515,40.78690771726269L158.57750000000001,51.98616447826487L158.7025,58.40756404990037L159.01500000000001,67.80364326892513L159.07750000000001,47.02136077242557L159.515,52.727113264076394L159.5775,35.44986821689386L159.8275,52.37161611997544L159.9525,53.25675056780415L160.07750000000001,75.594891152397L160.32750000000001,60.883655257706465L160.95250000000001,68.34536642899657L161.0775,58.23068222484159L161.20250000000001,67.02458827340958L161.265,72.6173900623452L161.515,50.094043846706455L161.7025,50.558539310628205L162.20250000000001,42.620638193945354L162.45250000000001,24.292954687553703L162.64000000000001,45.18203061708161L163.32750000000001,32.06570201959718L163.5775,42.75199629618683L163.70250000000001,64.05003805206401L163.89000000000001,63.8647548390812L164.015,55.19786036590892L164.0775,55.634603318512916L164.2025,61.20979406623266L164.32750000000001,68.30208815273116L164.39000000000001,72.822635952045L164.515,68.36412728768876L164.64,73.77784856838676L164.7025,60.50485389912939L164.95250000000001,62.22483713592537L165.01500000000001,72.70435467471319L165.14,66.81986231061703L165.3275,50.645025389352114L165.64000000000001,47.28951965599023L166.39,39.07263348468777L166.64,69.21439670434182L166.8275,92.06414796027718L167.4525,72.05533539150117L167.8275,68.30485905556073L167.89,53.880078779900686L168.01500000000001,89.02040196038631L168.20250000000001,58.989642926983166L168.39000000000001,45.10191530851486L168.45250000000001,63.677625678980334L168.515,65.26033825606227L169.07874999999999,41.38310147681881L169.14124999999999,56.30774065422726L169.20375,42.867655829691046L169.32874999999999,52.69375851038197L170.07875,75.08167804444761L170.14124999999999,87.09297402490664L170.20374999999999,78.71153150495735L170.26625,47.03551595478305L170.76624999999999,44.824794343319695L171.32875,59.96929026222449L171.64124999999999,44.817213088799235L172.39125,43.142042283573346L173.26625,59.646413802015346L173.45375,63.13619060483809L173.51625,67.66330530156857L173.57874999999999,41.817854200333954L173.70375,49.7668399484547L174.20374999999999,45.91117388700229L174.32875,50.98518703548547L174.45374999999999,41.84078796794543L174.57875,61.7743792584257L175.20375,73.97761216314784L175.70374999999999,53.058239474750025L175.76625,49.36094382728831L176.07874999999999,53.166806478875L176.45375,62.66206594573775L176.95374999999999,43.016632555327874L177.32875,43.265260076046644L177.39124999999999,49.37720467076329L177.51625,62.67201645799172L177.64124999999999,58.235472506367216L177.95375,40.335728498126L179.14124999999999,46.58702348107849L179.26625,21.616213016613585L179.51624999999999,35.23088204768425L179.57874999999999,41.80700707646349L180.14249999999998,40.755343852675395L180.2675,49.272982168864104L180.455,44.8631572391603L180.51749999999998,16.841452359736394L180.57999999999998,15.694987969273484L181.20499999999998,47.316445151768335L181.2675,57.728028180540264L181.455,54.52064203570512L181.57999999999998,34.156172240228216L181.82999999999998,32.35552804841126L181.955,35.23567475668651L182.1425,42.77294653711337L182.26749999999998,40.922923160963194L182.3925,27.44405987065224L182.5175,34.74208850562934L183.07999999999998,60.02169126421322L183.32999999999998,47.9172758118811L183.58,59.17598009158682L183.70499999999998,52.460403890757334L183.8925,41.71107824425357L184.08,44.84195285254867L184.455,53.3928500616972L184.5175,40.83599581135584L184.76749999999998,45.55429155651723L184.955,72.59238541312216L185.1425,55.22118760879995L185.26749999999998,45.527452779222074L185.82999999999998,49.87838125002651L186.0175,56.24743603638494L186.07999999999998,45.54210777929936L186.1425,46.25030636027918L186.205,64.82042828808866L186.3925,50.205707801612235L186.6425,50.92423355020058L187.0175,45.307246566525066L187.08,49.77244076988441L187.2675,48.12347936231302L187.76749999999998,68.80794857859142L188.08,57.333991247771834L188.2675,76.42241424750048L188.45499999999998,75.44505580196011L188.5175,65.5667210099973L188.64249999999998,57.05001630299924L188.82999999999998,65.55521317337053L188.89249999999998,45.880408785385185L189.0175,49.7160498969682L189.3925,46.84784277060413L189.58,59.53422740393519L189.7675,56.28005917577049L189.83,70.0583739081266L190.08,49.64460743305821L190.455,60.79305172454636L191.20625,33.68130182412665L191.45625,33.48633077856124L191.58124999999998,38.589006991136756L191.89375,56.326451013967L192.20624999999998,52.78075230553287L192.76875,39.35101173291963L193.01874999999998,50.22509447446576L193.26874999999998,46.24200687322352L193.45624999999998,41.098717326859656L194.39375,26.66714228240855L195.08125,63.76375703408783L195.14375,39.18065626977227L195.33125,37.963146008128945L195.70625,45.23419641169161L196.14375,25.503756619430362L196.20625,51.63358090428616L196.26874999999998,62.53025318058761L196.33125,49.75374422810211L196.39375,36.97576598388471L196.45624999999998,44.89325561303653L196.95625,49.19764839106438L198.39374999999998,42.436812904160206L198.45625,33.74408021768366L198.51875,45.36627208471424L198.95625,39.58283870244071L199.64374999999998,26.13499801881329L199.76875,48.1502230689741L200.01875,36.41937279837782L200.51874999999998,48.305811839513325L200.58125,42.959514471653904L200.76874999999998,56.143604845036265L200.89375,34.02225702113796L200.95624999999998,42.89464181276236L201.08125,44.5216521263483L202.20749999999998,23.672461519252266L202.52,32.58973543453541L202.7075,44.97685791673763L202.895,39.22488904006039L203.45749999999998,48.333068366070876L203.52,44.77924530840528L203.89499999999998,48.06775773863973L204.02,30.469355260434696L204.08249999999998,23.136489790410707L204.4575,35.95851041368579L204.645,71.45566690889584L204.70749999999998,58.48307908573034L205.02,23.3871647840688L205.14499999999998,42.17116980570407L205.27,62.20778023248273L205.4575,54.12806542350464L205.52,46.77041990170957L206.01999999999998,23.62870638433128L206.3325,41.1295501782389L206.45749999999998,34.90626434546388L206.52,59.898358490650935L206.5825,51.30294497090135L207.26999999999998,39.45218613409281L207.89499999999998,29.029043215105872L208.395,47.72820416021051L209.4575,71.50743906178394L209.77,37.04900097512703L209.895,44.28524854082923L209.9575,35.59440451830349L210.145,63.59330014577432L210.77,55.25825684365914L211.14499999999998,72.79434823840049L211.395,61.37227259590982L211.7075,29.470131409510287L211.8325,50.28409530053867L211.95749999999998,46.57317490974171L212.0825,35.02258594155052L212.20749999999998,38.17768734252377L212.4575,40.83757233129728L212.52,69.91499041887158L212.7075,49.97946485332264L212.83249999999998,52.54129161969318L213.0825,28.723270512031064L213.14625,37.205671262862296L213.33375,50.52736177924933L213.39624999999998,38.2341908946147L213.52125,34.83698753877019L213.83374999999998,52.74058646548845L213.95875,19.730185278025488L214.02124999999998,36.31055384390581L214.08375,41.332148010471656L214.45874999999998,31.037597818058543L214.58375,43.53055440034922L215.33374999999998,27.970299056310807L215.52124999999998,37.37832833383666L215.64625,21.281446955961485L215.77124999999998,32.74538776110495L215.89625,62.161804881187976L216.02125,45.55938275769134L216.58374999999998,50.01805294071073L216.83374999999998,58.71813064966928L216.95875,39.78362454341155L217.14625,29.413709036607486L217.64624999999998,18.684064950972527L217.89624999999998,35.412845370301596L218.14625,61.11089485559741L218.52124999999998,64.36602510951127L218.95874999999998,37.866530250138595L219.08375,34.08112156588638L219.39624999999998,51.81378822147492L219.83374999999998,51.74864414161348L220.02124999999998,33.70900463469596L220.08375,26.447676594876526L220.39625,33.283936843819475L220.45874999999998,38.83091950224255L220.52125,49.519844622035095L220.64624999999998,62.854312303846854L220.83374999999998,42.48734456395687L221.14625,58.73613447575444L221.33375,53.36134914704762L221.39625,58.91893666550105L221.52124999999998,31.527487487687523L221.89624999999998,32.91927827450459L222.52125,56.097286244192276L222.95875,54.99283157943441L223.14625,23.48326169001686L223.20874999999998,32.711882651292285L223.64624999999998,28.85491489304391L223.70875,48.9866365162531L223.77125,38.42120099210746L223.83374999999998,40.37209874672902L224.14625,64.36925291503438L224.2725,48.115067180052336L225.7725,19.755629925744245L225.96,32.75311498785521L226.085,29.094483385516696L226.3975,24.35006811440985L226.58499999999998,25.179481341305376L226.6475,38.75532061393952L226.77249999999998,30.431669044899678L226.835,52.16532468807935L227.2725,39.97469780925593L227.39749999999998,29.734353465091317L227.5225,29.663365579322317L228.08499999999998,34.640537688933534L228.3975,27.60052098685594L228.45999999999998,39.80646023587619L228.835,36.00095921944444L228.96,56.53241003451021L229.085,35.023262744239844L229.21,30.30027136477588L229.46,43.856107028939704L229.6475,41.24573240775425L229.8975,35.53763466983611L230.46,29.10612484308956L230.5225,28.509064473190534L230.58499999999998,56.24992103263108L230.96,35.59021533872004L231.45999999999998,47.71189355059062L231.70999999999998,27.745389506827678L231.835,33.68380262780511L231.89749999999998,16.505349757457765L231.96,47.21789994066506L232.21,38.897336840109745L232.52249999999998,20.363024599396226L232.95999999999998,41.63923353643514L233.46,28.670653041277234L233.71,22.28963791372601L233.96,45.934199265963514L234.085,59.04210906872949L234.45999999999998,49.682592208533976L234.64749999999998,32.06603399495765L234.7725,31.61094209545996L234.89749999999998,41.57929466782261L235.0225,59.147597375566505L235.21,23.049038276390746L235.27375,33.897182186042244L235.46124999999998,35.83605880009992L235.71125,47.95557037135325L236.21125,36.0827772973191L236.52374999999998,34.415102354234875L236.58625,20.52841818795997L236.83625,21.611703175504232L237.27375,49.52713003224116L237.96125,42.44572850247022L238.14875,29.34703604036514L238.21124999999998,33.60347680942402L238.39875,38.29670886008799L238.71125,42.327921425726686L239.08624999999998,47.47576198680014L239.14875,50.0184579661573L239.39875,45.98665929231305L239.52374999999998,57.380853821019215L239.89875,47.85914284979697L239.96125,28.021278545246787L240.08625,33.41474393039539L240.33624999999998,27.615978812663627L240.77374999999998,38.74255029663112L241.14875,22.338039976074413L241.33625,27.981430684838983L241.71125,41.89123111585212L242.21125,51.86924296146461L242.39875,55.12378253199411L242.52375,44.399073922806224L242.58625,49.822250024131904L242.89874999999998,30.010240070716208L242.96125,27.807004134862353L243.14874999999998,21.60599520713353L243.27375,41.045056389898946L243.33624999999998,34.63199569199412L243.46125,47.76959870759819L243.77374999999998,48.55015466721113L244.39874999999998,47.6779393902757L244.77375,48.26746224615985L244.89875,36.71729662672885L244.96125,34.39712921934196L245.21125,60.05894314812677L245.27374999999998,32.96969245066367L245.52375,47.61089789328017L245.64875,39.437027455142356L246.02375,47.50426543258777L246.08624999999998,43.11303606898534L246.27375,55.31038298866433L246.46249999999998,52.09815449315697L247.2125,44.085857328171755L247.52499999999998,21.39735624325138L247.5875,16.18799440959654L247.7125,10.880113227664225L248.275,26.522678453772897L248.3375,32.16107981176671L248.7125,50.997553374682354L248.775,49.14808345625244L249.65,43.60618147608477L249.89999999999998,48.4866984217073L250.025,44.72765785720071L250.15,35.83949089964079L250.33749999999998,31.84316738402802L250.52499999999998,16.955257954466305L251.0875,28.109372415026428L251.4625,38.589601275289226L251.58749999999998,30.764578823138635L252.275,39.15468660470526L252.3375,19.368592718472144L252.7125,29.34613865233368L253.15,45.84104710107124L254.65,22.642488767162206L254.7125,25.122318087057863L254.8375,46.47205652536056L255.02499999999998,41.35362646383379L255.15,34.29906805694799L256.46250000000003,31.06828570944282L256.65000000000003,55.90484110528894L256.9,43.29420196537578L256.9625,33.89221299744972L257.025,11.32875429230134L257.15,6.394465749970777L257.33875,12.203885684463955L257.52625,28.902476130143896L257.65125,24.022964442436773L257.77625,29.05319388290198L258.21375,33.31645392292725L258.46375,14.367182041746446L258.65125,29.846680872899924L258.96375,20.691198399443266L259.46375,51.850836234920976L259.71375,43.79791436840111L259.83875,42.5661807985575L259.96375,28.66112636481148L260.02625,28.08453183339364L260.40125,24.90045651962268L260.65125,23.65614960542291L260.77625,13.882341173741167L260.90125,28.80935452802572L261.08875,27.954941291879436L261.65125,35.81869262315959L261.77625,35.41131625252402L261.83875,20.639581933252344L262.08875,29.928349494526515L262.40125,40.88510534274266L262.52625,48.11773855777892L263.15125,35.56314558771945L263.27625,31.796767696701608L263.40125,46.91903030901045L264.21375,32.84660707243947L264.46375,30.108041417386232L264.58875,24.911421519454194L265.21375,35.28175050673963L265.52625,31.488477559858893L265.96375,37.22920050977899L266.15125,22.317186208841946L266.27625,23.878989480816756L267.52625,37.06771585669625L267.58875,25.845790907521575L267.65125,44.63399499320374L267.77625,39.67923757572004L267.96375,32.959157854136976L268.08875,36.41049699003014L268.4025,53.16895819429908L268.65250000000003,49.6762091562878L269.09000000000003,35.842606094054275L269.1525,33.473944319061104L269.215,31.890816871157796L269.52750000000003,14.450450551459681L269.59,41.88605710147306L269.84,36.96663462006603L270.5275,44.395859755526715L270.9025,23.974428779319112L271.1525,26.274412908087754L271.27750000000003,31.099378620961573L271.46500000000003,32.68199933152769L271.59,29.239507636372394L271.965,29.827238872332686L272.1525,36.001273620928316L272.4025,31.085336615087158L272.6525,19.089778001738125L272.7775,24.128134267220673L272.96500000000003,28.40224536439473L273.09,23.96405991608117L273.34000000000003,48.6950624725051L273.465,48.131462772513316L273.6525,44.35733693356059L273.965,25.27534896825182L274.21500000000003,40.918181014938455L274.2775,23.291316044593856L274.40250000000003,25.71979257949141L274.965,36.32596935954086L275.0275,29.172463812012666L275.71500000000003,29.406913627856795L275.84,32.093219260476246L275.90250000000003,30.301819995672247L276.34000000000003,35.221924325117726L276.465,42.37502601274525L276.52750000000003,56.009277670766934L276.59000000000003,35.67953310286583L276.6525,17.382934027539505L276.9025,27.695297536142846L277.02750000000003,22.449717724587998L278.4025,15.030095294793398L278.59,24.25231838335995L279.15250000000003,29.059734287591084L279.34000000000003,48.64078809938775L279.465,56.37727877295602L279.65375,25.803358268727663L279.71625,56.35679574966127L279.77875,53.64313453483501L279.90375,37.18426047458635L280.40375,37.44797711698527L280.71625,34.006128746057584L281.15375,35.54068292313377L282.90375,29.723755703966503L283.34125,26.92234575110703L283.96625,9.480630650991287L284.02875,3.6284052750093565L284.34125,22.659811026472653L284.84125,16.39552372176027L284.90375,22.94659603559552L284.96625,33.00875031031251L285.59125,27.207235307327238L285.65375,35.45796649063573L285.71625,33.159919854417296" style="fill: none;" fill="none"></path></g></g></g></g><g opacity="0.2"><g><g><g><path stroke="rgb(255, 112, 67)" stroke-width="2px" d="M27.9375,211.4328182220459L28.3125,173.28749237060546L28.5,241.66923599243165L29.5625,197.44770050048828L29.625,166.54364013671875L29.9375,157.06185913085938L30.4375,176.64841842651367L30.875,179.3319580078125L31.375,171.2549934387207L31.5625,151.48163681030275L31.625,187.83357925415038L32.0625,162.33991928100585L32.375,177.3425765991211L32.875,176.1417366027832L33.125,169.5944595336914L33.6875,196.5845691680908L33.875,159.23783416748046L34.375,162.72281646728516L34.6875,134.42067794799806L34.875,149.06311721801757L35.4375,201.19244041442872L35.5,149.05653076171876L36.0625,170.54141540527343L36.06375,149.42034759521485L36.37625,185.37363967895507L36.50125,195.56105422973633L36.56375,142.2758758544922L36.81375,156.96808700561525L37.31375,141.90418243408203L37.81375,141.3915252685547L37.87625,152.72722396850585L37.93875,140.02663497924806L38.18875,138.74247970581055L38.87625,152.23493728637695L39.25125,144.41464080810547L39.56375,118.46719436645508L39.75125,126.20709533691407L40.501250000000006,104.83343353271484L40.876250000000006,130.38623580932617L41.18875,146.32125015258788L41.37625,122.55290222167969L41.626250000000006,164.14501571655273L41.87625,144.9154830932617L42.001250000000006,149.7150405883789L43.18875,127.24062576293946L43.50125,120.0270980834961L43.56375,146.1083106994629L43.87625,135.1322868347168L44.126250000000006,129.00212936401368L44.18875,132.08465881347655L44.31375,134.13488006591797L44.81375,141.65002670288087L44.876250000000006,121.19840087890626L45.251250000000006,124.94419326782227L45.31375,108.01360549926757L45.37625,122.01179428100586L45.563750000000006,126.5891098022461L46.12625,119.01760482788086L46.62625,132.20341873168945L47.565,108.46650924682616L47.815,160.8262565612793L48.19,114.96931076049805L48.440000000000005,129.34666213989257L48.565,129.33348922729493L49.315,117.03976669311524L49.3775,114.15000991821289L50.3775,150.1983642578125L51.19,99.47355194091797L51.2525,109.91912841796875L51.377500000000005,100.38601379394531L51.752500000000005,158.24932250976562L52.315,93.3092399597168L52.440000000000005,124.73851928710937L52.5025,113.46583328247071L52.69,83.74910049438476L53.065,101.37160568237304L53.6275,130.38623580932617L53.815000000000005,116.26602783203126L53.877500000000005,115.24146041870117L54.44,121.27546920776368L54.5025,124.25675735473632L55.44,97.61216506958009L55.565,95.80374145507812L55.690000000000005,117.7934066772461L56.565,84.66692657470703L56.8775,80.59092864990234L57.0025,132.2698944091797L57.19,145.85517349243165L57.69,114.82250747680663L58.065,116.36597900390625L58.190000000000005,119.80417709350586L58.31625,146.32125015258788L58.69125,125.37285614013672L59.00375,95.1226203918457L59.628750000000004,88.70578231811524L59.75375,131.72002716064452L60.003750000000004,124.02351531982421L60.378750000000004,112.57679748535156L60.628750000000004,109.29490890502929L60.691250000000004,122.27932662963867L61.003750000000004,100.56642837524414L61.128750000000004,114.29470825195312L61.19125,96.36549148559571L61.31625,108.80058517456054L61.441250000000004,107.14514389038085L61.50375,125.86446380615234L61.816250000000004,123.02094802856445L61.87875,92.17942504882812L62.441250000000004,105.34643020629882L62.816250000000004,114.32614669799804L62.941250000000004,116.10734176635742L63.253750000000004,99.14300689697266L63.566250000000004,114.3588752746582L63.69125,108.46650924682616L64.44125,94.12881240844727L64.87875,104.88157577514649L64.94125,100.5108169555664L65.06625,97.00159378051758L65.12875,103.94616317749023L65.19125,102.52898864746093L65.25375,124.50643157958984L65.37875,89.37624282836914L65.56625,125.90065536499023L65.81625000000001,87.42570114135742L66.12875,99.08983993530273L66.31625,96.42259674072265L66.56625,85.5565055847168L66.75375,126.70854873657227L66.94125,119.9986473083496L67.00375,112.64965591430665L67.19125,97.61067123413086L67.25375000000001,90.09844436645507L67.44125,113.83501434326172L67.50375,128.11608123779297L67.81625,107.26845321655274L67.87875,98.18858184814452L68.31625,102.71082916259765L68.50375,99.68954696655273L68.75375,128.3349281311035L68.94125,72.40518569946289L69.19125,121.00107879638672L69.38000000000001,72.05718994140625L69.63,99.40544662475587L69.8175,46.458486175537104L69.88,77.46039276123047L69.9425,89.2950325012207L70.38,85.02809524536133L70.755,75.65L70.88000000000001,92.87677459716797L70.9425,91.40792694091796L71.19250000000001,91.78736114501953L71.4425,98.50629348754883L71.63,74.25557250976563L71.6925,87.54384994506836L71.755,86.66873397827149L71.88,84.31451721191407L72.005,77.56068344116211L72.5675,66.73146286010743L72.8175,86.00160064697266L72.88,76.44682540893555L72.9425,85.23736801147462L73.0675,81.70729904174804L73.13,81.54426727294921L73.505,76.52314682006836L73.75500000000001,47.49941787719726L73.8175,85.17686767578125L73.9425,94.34949264526368L74.06750000000001,63.49927825927735L74.255,81.3607292175293L74.3175,70.20687103271484L74.38,57.18721237182618L74.44250000000001,91.41940231323242L74.63,114.3588752746582L74.88,49.717220306396484L75.1925,89L75.25500000000001,101.43176651000977L75.3175,80.50781707763672L75.69250000000001,79.40801467895508L76.0675,85.76360549926758L76.31750000000001,99.11584625244141L76.505,97.29037933349609L76.75500000000001,106.8L77.005,103.69906921386719L77.13,86.44336853027343L77.4425,101.43176651000977L78.9425,73.59855651855469L79.0675,98.21295852661133L79.13,100.3722297668457L79.38,97.59308471679687L79.50500000000001,87.75923385620118L79.755,70.04927139282226L79.88,76.60666580200196L80.31875000000001,99.64283065795898L80.69375,71.3747787475586L80.94375000000001,114.18049774169921L81.38125000000001,57.008087921142575L81.44375,102.8444595336914L81.50625000000001,90.3870262145996L81.56875,82.51437759399414L81.88125,96.69074020385743L82.00625000000001,98.20603256225586L82.19375,83.9143051147461L82.25625,112.4950439453125L82.38125,99.73884353637696L82.88125000000001,112.96974411010741L82.94375,88.22605743408204L83.13125,82.13229522705078L83.56875,112.3241355895996L83.75625,98.19469299316405L84.31875,68.06763076782227L84.44375,84.67025375366211L84.56875000000001,64.91482315063476L84.75625,67.22062606811524L84.81875,91.6146873474121L85.06875,102.68495864868164L85.38125,82.1798942565918L85.44375000000001,102.68495864868164L85.69375,99.34290924072265L85.75625000000001,70.56511993408203L85.81875,99.67053451538085L85.88125,94.83526077270507L86.13125,89.7059730529785L86.19375000000001,102.87209548950194L86.38125000000001,122.69196472167968L86.44375,51.87649154663086L86.94375,107.90000610351562L87.19375,66.20576858520508L87.31875,107.62677001953125L87.44375000000001,75.74105606079101L87.50625,108.82217788696289L87.94375,67.96591415405274L88.00625000000001,71.58282928466797L88.06875,93.46269760131837L88.25625,62.57269287109375L88.75625,97.00159378051758L88.88125,101.29460525512695L89.13125,97.89999999999999L89.19375,104.3238998413086L89.50625,86.2539909362793L89.94375,70.58623733520508L90.63125000000001,70.82654113769532L90.75625000000001,60.66017608642578L91.13125,105.04053344726562L91.19375000000001,80.12451248168945L91.31875,98.20270538330078L91.3825,76.84031524658204L91.6325,82.59579162597656L91.88250000000001,37.555770111084L92.0075,77.1333106994629L92.32000000000001,85.3056770324707L92.38250000000001,91.62819976806641L92.445,87.36377487182617L92.94500000000001,64.68171691894531L93.32,80.23179702758789L93.57000000000001,92.79542846679688L93.6325,64.0092872619629L93.69500000000001,81.55818710327148L94.2575,86.31781845092773L94.3825,66.82455596923828L94.57,68.9875617980957L94.94500000000001,109.67250976562501L95.445,112.17807922363282L95.57,61.42461242675782L96.82,69.7393684387207L96.88250000000001,97.6044921875L97.1325,69.9032829284668L97.19500000000001,62.89997863769531L97.2575,75.74105606079101L98.38250000000001,64.29793701171874L98.69500000000001,77.00219268798828L99.13250000000001,73.4397346496582L99.195,90.88712158203124L99.57,102.1438507080078L99.695,81.06712265014649L100.0075,49.81608505249025L100.1325,107.20836029052735L100.2575,86.09856414794922L100.50750000000001,89L101.13250000000001,43.811613464355474L101.6325,90.9374366760254L101.69500000000001,76.25133666992187L101.75750000000001,72.91648483276367L101.88250000000001,64.93702697753906L102.3825,73.30345611572265L102.50874999999999,87.88295059204101L102.88375,53.90281143188477L103.00875,60.23640213012695L103.13375,64.29793701171874L103.19625,46.789302825927734L103.38374999999999,54.1196891784668L103.50875,50.28562469482422L103.69624999999999,92.07539978027343L104.19625,79.46077423095703L104.63374999999999,58.12343978881836L105.00875,67.6008071899414L105.25875,81.35040817260742L105.32125,97.59478225708007L105.38374999999999,59.20436553955078L105.44625,80.6948860168457L105.82124999999999,78.97045669555663L106.44624999999999,86.28352813720703L106.57124999999999,92.89999694824219L106.75875,67.3137191772461L106.82125,93.86582946777344L107.00874999999999,70.82328186035156L107.38375,74.3692398071289L107.50874999999999,64.00113906860352L107.69625,56.96001358032227L107.88375,56.181250000000006L108.07124999999999,53.400000000000006L108.13375,72.09847412109374L109.25874999999999,39.28101425170897L109.94625,86.28352813720703L110.19624999999999,47.08793411254882L111.07124999999999,82.00715255737305L111.13374999999999,58.08419265747071L111.32125,68.03014907836913L111.38374999999999,74.10320129394532L111.50875,81.91935577392579L111.57124999999999,94.51483306884766L112.82125,80.41356964111328L112.88375,99.43023071289063L112.94624999999999,72.52971725463867L113.25875,82.02935638427735L113.44625,73.57811813354492L113.635,65.6758644104004L113.75999999999999,57.25382385253906L114.01,71.126123046875L114.07249999999999,83.1086524963379L114.26,36.33150405883791L114.50999999999999,84.38785095214844L114.63499999999999,66.90345764160156L115.51,74.11447296142578L116.0725,73.94736709594727L116.135,60.559477996826175L116.8225,67.7666229248047L117.3225,59.898048400878906L117.38499999999999,75.22092971801757L117.5725,70.36447067260742L117.69749999999999,54.671457672119146L117.76,81.87997283935547L118.26,65.15241088867188L118.3225,49.33724288940428L118.75999999999999,68.55937423706055L118.88499999999999,62.11327056884765L119.385,75.3187759399414L119.6975,91.8864974975586L119.76,61.73607711791992L119.94749999999999,74.1499855041504L120.38499999999999,84.59834594726563L121.135,45.38638763427733L121.44749999999999,47.89996948242188L121.51,60.609521484374994L121.63499999999999,42.91436157226562L121.6975,91.6146873474121L122.07249999999999,57.38881225585938L122.50999999999999,86.91949462890625L122.5725,73.69015579223633L123.13499999999999,99.37353286743165L123.385,52.90350341796875L123.51,53.651032257080075L123.75999999999999,94.69225997924805L124.32249999999999,60.51018142700195L124.69875,56.67462310791015L124.76125,73.55958099365235L125.07375,57.39207153320312L125.57375,96.10081100463867L125.69875,69.83436279296875L126.13625,88.61669540405273L126.19875,61.26348190307617L126.44875,87.02481002807617L126.76125,63.74026107788086L126.94875,75.11948471069336L127.07375,80.6948860168457L127.26125,81.32154998779296L127.44874999999999,71.17596282958985L127.69875,77.34292297363281L128.19875,75.89451370239257L128.69875000000002,90.2696922302246L128.82375,114.30122680664063L128.94875,28.107804107666L129.13625000000002,77.83609237670899L129.19875,60.865238952636716L129.57375,59.37934799194336L129.63625,46.98112487792969L130.13625,113.92002716064452L130.32375,99.09622268676758L130.38625,48.01350097656248L130.44875,72.0713134765625L130.51125000000002,75.24659652709961L130.63625,35.080077362060564L130.82375000000002,89.48108291625977L131.26125000000002,85.45458526611328L131.32375,67.45923233032227L131.76125,53.64084701538086L131.82375,72.89998474121094L131.88625000000002,47.15440979003907L132.44875,67.36077499389648L132.69875,53.400000000000006L132.82375,74.94606399536133L132.88625,56.96001358032227L133.01125,87.42217025756835L133.32375,60.7654914855957L133.38625000000002,38.60580062866211L133.51125,57.500238800048834L133.57375,76.24624404907226L133.63625,40.44994049072264L133.94875,69.24932250976562L134.82375,93.4794692993164L135.38625,56.08584823608399L135.7,61.26348190307617L136.1375,57.41692352294922L136.20000000000002,69.96982650756836L136.7625,55.11152801513671L137.2,64.51019744873047L137.70000000000002,89.84293060302734L137.7625,52.661434173583984L137.95,88.41237945556641L138.3875,63.81223678588867L138.5125,47.42683105468748L138.76250000000002,61.38876037597656L139.38750000000002,71.72352142333985L139.45,43.842984008789045L139.6375,26.86276016235351L139.95000000000002,58.42417602539062L140.2,45.58411712646486L141.01250000000002,69.81134414672852L141.1375,62.11327056884765L141.20000000000002,83.43593826293946L141.575,107.33268814086914L141.63750000000002,73.17777023315429L141.7,67.76309204101562L141.825,76.60666580200196L141.95000000000002,74.24253540039062L142.70000000000002,55.11152801513671L143.825,42.97323226928711L144.20000000000002,46.22055892944334L144.575,42.58232269287109L144.63750000000002,67.14797134399414L145.0125,57.38881225585938L145.26250000000002,58.17850799560547L145.3875,71.81376266479492L145.5125,69.34384155273438L145.88750000000002,87.36051559448242L146.075,76.44682540893555L146.2,79.52847213745117L146.3875,46.506492614746094L146.575,34.67592697143553L146.70125000000002,60.52919387817383L147.26375,24.705390167236345L147.38875,71.48179168701172L148.13875,79.20756912231445L148.20125000000002,65.01382369995117L148.26375,60.96926422119141L149.13875000000002,59.537898254394534L149.38875,31.81686172485351L149.63875,65.3316032409668L149.88875000000002,59.712065887451175L149.95125,43.712952423095686L150.13875000000002,58.05839004516602L150.26375,78.29510726928712L150.38875000000002,46.890883636474626L150.88875,42.19888229370119L151.01375000000002,47.69640045166014L151.20125000000002,44.01823806762695L151.38875000000002,45.510783386230486L151.57625,65.84751968383789L151.70125,37.55067749023439L151.88875,64.97124938964843L152.07625000000002,53.400000000000006L153.07625000000002,60.51018142700195L153.51375000000002,106.5844123840332L153.82625,64.44827117919922L153.88875,74.83979797363281L153.95125000000002,50.48199615478515L154.07625,39.47161407470705L154.13875000000002,77.06893997192383L154.26375,46.297763061523455L154.38875000000002,75.14766387939453L154.63875000000002,42.03829498291017L154.88875,88.61669540405273L155.20125000000002,76.32616424560547L155.32625,64.18786849975587L155.76375,50.99458541870118L155.88875000000002,54.12953491210938L155.95125,53.400000000000006L156.13875000000002,31.668836212158197L156.26375,62.3946548461914L156.51375000000002,92.87677459716797L156.70125000000002,72.77905197143555L156.82625,66.93353805541992L156.95125000000002,75.3610107421875L157.01375,69.8537826538086L157.63875000000002,44.40276489257812L157.70125,41.582539367675764L157.89,68.50152206420898L158.0775,40.168556213378906L158.265,59.01369781494141L158.3275,38.94191360473633L158.515,39.478200531005854L158.57750000000001,56.78584594726563L158.7025,61.15959243774414L159.01500000000001,71.83053436279297L159.07750000000001,38.11466827392579L159.515,55.17243576049805L159.5775,28.045334625244124L159.8275,59.62379379272461L159.9525,53.63609390258789L160.07750000000001,85.16837997436524L160.32750000000001,54.57883987426757L160.95250000000001,71.54324264526367L161.0775,53.895817565917966L161.20250000000001,70.79340515136718L161.265,75.0143051147461L161.515,40.44118118286133L161.7025,50.75760879516602L162.20250000000001,39.21868057250978L162.45250000000001,16.438233184814436L162.64000000000001,54.134491729736325L163.32750000000001,26.444418334960943L163.5775,47.33183670043945L163.70250000000001,73.17777023315429L163.89000000000001,63.78534774780273L164.015,51.48347702026368L164.0775,55.8217788696289L164.2025,63.59916152954102L164.32750000000001,71.34164276123047L164.39000000000001,74.76001358032227L164.515,66.45333786010742L164.64,76.09801483154297L164.7025,54.81642761230469L164.95250000000001,62.961972808837885L165.01500000000001,77.19557647705078L165.14,64.29793701171874L165.3275,43.712952423095686L165.64000000000001,45.851445770263666L166.39,35.551110839843744L166.64,82.13229522705078L166.8275,101.85689849853516L167.4525,63.48013000488281L167.8275,66.69751205444337L167.89,47.698030090332026L168.01500000000001,104.08054046630859L168.20250000000001,46.11931762695312L168.39000000000001,39.15003204345703L168.45250000000001,71.63864440917969L168.515,65.93864364624024L169.07874999999999,31.150000000000006L169.14124999999999,62.70401458740234L169.20375,37.107619476318376L169.32874999999999,56.904945373535156L170.07875,84.6765007019043L170.14124999999999,92.2406723022461L170.20374999999999,75.11948471069336L170.26625,33.460080718994135L170.76624999999999,43.877342224121094L171.32875,66.4597885131836L171.64124999999999,38.32346572875977L172.39125,42.42411193847656L173.26625,66.71971588134765L173.45375,64.63180923461914L173.51625,69.60349731445312L173.57874999999999,30.741232299804693L173.70375,53.17354812622071L174.20374999999999,44.25874557495118L174.32875,53.15976409912109L174.45374999999999,37.921759796142595L174.57875,70.31734695434571L175.20375,79.20756912231445L175.70374999999999,44.09279403686523L175.76625,47.77638854980469L176.07874999999999,54.79789047241211L176.45375,66.73146286010743L176.95374999999999,34.597161102294905L177.32875,43.3718147277832L177.39124999999999,51.99660949707031L177.51625,68.36979293823242L177.64124999999999,56.334096527099604L177.95375,32.66440963745117L179.14124999999999,49.266149902343756L179.26625,10.914437103271467L179.51624999999999,41.065740203857416L179.57874999999999,44.625346374511736L180.14249999999998,40.30463104248045L180.2675,52.923398590087885L180.455,42.97323226928711L180.51749999999998,4.8321502685546704L180.57999999999998,15.20364608764649L181.20499999999998,60.868498229980474L181.2675,62.1901351928711L181.455,53.14604797363282L181.57999999999998,25.428542327880876L181.82999999999998,31.583823394775408L181.955,36.47002334594728L182.1425,46.003205871582026L182.26749999999998,40.130055999755854L182.3925,21.667404174804688L182.5175,37.86981506347658L183.07999999999998,70.85580673217774L183.32999999999998,42.72966918945312L183.58,64.00113906860352L183.70499999999998,49.582299804687494L183.8925,37.10422439575197L184.08,46.18375625610352L184.455,57.05752029418946L184.5175,35.45448684692383L184.76749999999998,47.576418304443365L184.955,84.18013992309571L185.1425,47.77638854980469L185.26749999999998,41.37299499511718L185.82999999999998,51.743064880371094L186.0175,58.97703094482422L186.07999999999998,40.95410995483397L186.1425,46.5538200378418L186.205,72.77905197143555L186.3925,43.9422561645508L186.6425,51.232173156738284L187.0175,42.89996643066408L187.08,51.6860954284668L187.2675,47.416781616210955L187.76749999999998,77.67272109985352L188.08,52.41658096313476L188.2675,84.60316696166993L188.45499999999998,75.02618789672852L188.5175,61.33314895629883L188.64249999999998,53.400000000000006L188.82999999999998,69.20029754638672L188.89249999999998,37.448349761962874L189.0175,51.35989608764649L189.3925,45.618611145019514L189.58,64.97124938964843L189.7675,54.88541564941406L189.83,75.9633659362793L190.08,40.89585037231447L190.455,65.57095642089844L191.20625,22.06198043823244L191.45625,33.402771759033186L191.58124999999998,40.77586822509764L191.89375,63.928212738037104L192.20624999999998,51.261167144775385L192.76875,33.59540863037111L193.01874999999998,54.88541564941406L193.26874999999998,44.534969329833984L193.45624999999998,38.894450378417986L194.39375,20.482181549072266L195.08125,79.66230621337891L195.14375,28.645041656494158L195.33125,37.44135589599611L195.70625,48.35036087036133L196.14375,17.047853851318365L196.20625,62.83207702636719L196.26874999999998,67.2002555847168L196.33125,44.27809753417969L196.39375,31.499489593505842L196.45624999999998,48.286465454101545L196.95625,51.042388153076175L198.39374999999998,39.539311981201166L198.45625,30.01862335205078L198.51875,50.34721145629882L198.95625,37.10422439575197L199.64374999999998,20.371637725830084L199.76875,57.58531951904297L200.01875,31.391865539550764L200.51874999999998,53.400000000000006L200.58125,40.66824417114256L200.76874999999998,61.79392929077149L200.89375,24.54167938232422L200.95624999999998,46.697092437744146L201.08125,45.21894226074218L202.20749999999998,14.737094116210955L202.52,36.41142425537109L202.7075,50.28562469482422L202.895,36.75975952148437L203.45749999999998,52.2365737915039L203.52,43.25617828369141L203.89499999999998,49.47712020874022L204.02,22.927182769775385L204.08249999999998,19.993833160400385L204.4575,41.45366210937502L204.645,86.66873397827149L204.70749999999998,52.923398590087885L205.02,8.34605865478514L205.14499999999998,50.22145767211914L205.27,70.7948989868164L205.4575,50.66533050537109L205.52,43.61714324951171L206.01999999999998,13.710829162597662L206.3325,48.629911804199224L206.45749999999998,32.23914184570313L206.52,70.60925598144532L206.5825,47.619196319580084L207.26999999999998,34.3732894897461L207.89499999999998,24.56198196411131L208.395,55.742130279541016L209.4575,81.69853973388672L209.77,22.281098937988276L209.895,47.386497497558594L209.9575,31.86975708007813L210.145,75.59282684326172L210.77,51.6860954284668L211.14499999999998,80.3098159790039L211.395,56.47709732055664L211.7075,15.797785186767584L211.8325,59.20436553955078L211.95749999999998,44.98278045654297L212.0825,30.072333526611345L212.20749999999998,39.529873657226545L212.4575,41.9775230407715L212.52,82.37674102783203L212.7075,41.435668182373064L212.83249999999998,53.639217376708984L213.0825,18.515547180175787L213.14625,40.84098587036132L213.33375,56.236657714843744L213.39624999999998,32.96568908691407L213.52125,33.381043243408186L213.83374999999998,60.41355743408204L213.95875,5.5828704833984375L214.02124999999998,43.41642608642579L214.08375,43.484259796142595L214.45874999999998,26.62564773559572L214.58375,48.88467864990233L215.33374999999998,21.301618194580072L215.52124999999998,41.41034088134765L215.64625,14.382783508300776L215.77124999999998,37.65850524902342L215.89625,74.76884078979492L216.02125,38.44405899047851L216.58374999999998,51.92891159057618L216.83374999999998,62.44673538208008L216.95875,31.668836212158197L217.14625,24.969459533691406L217.64624999999998,14.085646057128912L217.89624999999998,42.58232269287109L218.14625,72.12434463500976L218.52124999999998,65.76108093261719L218.95874999999998,26.509603881835943L219.08375,32.458803558349615L219.39624999999998,59.4135025024414L219.83374999999998,51.72072525024414L220.02124999999998,25.977730560302717L220.08375,23.335678863525374L220.39625,36.21376266479493L220.45874999999998,41.208197784423845L220.52125,54.10081253051757L220.64624999999998,68.56908416748047L220.83374999999998,33.758644104003906L221.14625,65.69990158081055L221.33375,51.05786972045898L221.39625,61.30075988769531L221.52124999999998,19.788294982910173L221.89624999999998,33.5157600402832L222.52125,66.03071823120118L222.95875,54.519493865966794L223.14625,9.97916030883789L223.20874999999998,36.66700592041016L223.64624999999998,27.201928710937494L223.70875,57.61451721191406L223.77125,33.89315719604494L223.83374999999998,41.208197784423845L224.14625,74.65374755859375L224.2725,41.148987579345686L225.7725,7.601585388183594L225.96,38.32346572875977L226.085,27.526498413085932L226.3975,22.31674728393554L226.58499999999998,25.534944152832026L226.6475,44.573537445068354L226.77249999999998,26.864389801025396L226.835,61.47974853515625L227.2725,34.75014343261719L227.39749999999998,25.34563446044922L227.5225,29.63294219970703L228.08499999999998,36.77361145019532L228.3975,24.58337097167967L228.45999999999998,45.03757705688477L228.835,34.37003021240233L228.96,65.3316032409668L229.085,25.80505676269533L229.21,28.276132202148432L229.46,49.66575088500977L229.6475,40.12700042724609L229.8975,33.0913070678711L230.46,26.349763488769526L230.5225,28.25318145751953L230.58499999999998,68.13885955810547L230.96,26.73605575561524L231.45999999999998,52.906898498535156L231.70999999999998,19.188316345214844L231.835,36.22883682250975L231.89749999999998,9.14315567016601L231.96,60.3804214477539L232.21,35.33138122558594L232.52249999999998,12.419747924804682L232.95999999999998,50.75760879516602L233.46,23.112689971923828L233.71,19.554917144775374L233.96,56.06758270263671L234.085,64.65978469848633L234.45999999999998,45.6713706970215L234.64749999999998,24.51608047485351L234.7725,31.415902709960932L234.89749999999998,45.851445770263666L235.0225,66.6768699645996L235.21,7.578227233886736L235.27375,38.54638671875L235.46124999999998,36.66700592041016L235.71125,53.1496467590332L236.21125,30.994437408447283L236.52374999999998,33.70038452148438L236.58625,14.576982116699213L236.83625,22.07596817016602L237.27375,61.49088439941406L237.96125,39.410842132568376L238.14875,23.73331069946289L238.21124999999998,35.42766571044922L238.39875,40.3080940246582L238.71125,44.05558395385742L239.08624999999998,49.681979370117205L239.14875,51.108184814453125L239.39875,44.25874557495118L239.52374999999998,62.26408004760742L239.89875,43.77840957641601L239.96125,19.519336700439453L240.08625,35.72622909545899L240.33624999999998,25.13079376220705L240.77374999999998,43.511080932617205L241.14875,15.307535552978521L241.33625,30.400026702880865L241.71125,47.85257415771483L242.21125,56.14553375244141L242.39875,56.518585205078125L242.52375,39.80277023315429L242.58625,52.14646835327149L242.89874999999998,21.519378662109375L242.96125,26.86276016235351L243.14874999999998,18.948419952392584L243.27375,49.376082611084L243.33624999999998,31.883541107177734L243.46125,53.400000000000006L243.77374999999998,48.88467864990233L244.39874999999998,47.304132843017584L244.77375,48.52011489868164L244.89875,31.767225646972662L244.96125,33.402771759033186L245.21125,71.0568634033203L245.27374999999998,21.36001358032226L245.52375,53.88570022583008L245.64875,35.933940124511736L246.02375,50.96165313720704L246.08624999999998,41.2310806274414L246.27375,60.537817382812506L246.46249999999998,50.72148513793945L247.2125,40.652015686035156L247.52499999999998,11.673712921142595L247.5875,13.955410766601545L247.7125,8.605307006835943L248.275,33.22663497924805L248.3375,34.577537536621094L248.7125,59.07032775878906L248.775,48.35545349121094L249.65,41.2310806274414L249.89999999999998,50.57834854125977L250.025,43.116640472412115L250.15,32.03027648925783L250.33749999999998,30.13045730590821L250.52499999999998,10.574725341796892L251.0875,32.889707183837885L251.4625,43.08112792968748L251.58749999999998,27.410997772216803L252.275,42.750447082519514L252.3375,10.888838195800787L252.7125,33.62222976684572L253.15,52.91029357910156L254.65,12.700249481201155L254.7125,26.185102081298822L254.8375,55.621944427490234L255.02499999999998,39.16001358032227L255.15,31.275685882568354L256.46250000000003,29.683664703369146L256.65000000000003,66.54907913208008L256.9,37.88964233398437L256.9625,29.862789154052734L257.025,1.6587005615234318L257.15,4.279770660400374L257.33875,14.693637084960955L257.52625,36.05901489257812L257.65125,21.931745147705072L257.77625,31.209006500244158L258.21375,35.14356536865236L258.46375,6.24606552124024L258.65125,36.48075180053709L258.96375,16.76742019653321L259.46375,65.20496673583985L259.71375,40.34666213989257L259.83875,42.03829498291017L259.96375,22.701817321777327L260.02625,27.837419891357428L260.40125,23.53585281372071L260.65125,23.122875213623047L260.77625,9.69356613159178L260.90125,35.20664596557617L261.08875,27.588764190673828L261.65125,39.188871765136724L261.77625,35.236726379394526L261.83875,14.308838653564436L262.08875,33.90924987792968L262.40125,45.58085784912109L262.52625,51.217438507080075L263.15125,30.182605743408203L263.27625,30.182605743408203L263.40125,53.400000000000006L264.21375,26.815568542480463L264.46375,28.934370422363287L264.58875,22.684298706054705L265.21375,39.72617721557617L265.52625,29.862789154052734L265.96375,39.689510345458984L266.15125,15.926322937011719L266.27625,24.54833374023437L267.52625,42.72002716064455L267.58875,21.036394500732428L267.65125,52.68608245849609L267.77625,37.555770111084L267.96375,30.079123687744158L268.08875,37.88964233398437L268.4025,60.35115585327148L268.65250000000003,48.1793167114258L269.09000000000003,29.913919067382807L269.1525,32.458803558349615L269.215,31.21233367919922L269.52750000000003,6.976007843017584L269.59,53.64417419433593L269.84,34.85831069946289L270.5275,47.57981338500977L270.9025,15.222386932373041L271.1525,27.260120391845703L271.27750000000003,33.16722106933594L271.46500000000003,33.36026535034179L271.59,27.76415405273437L271.965,30.079123687744158L272.1525,38.64728851318361L272.4025,28.978506469726568L272.6525,13.94882431030274L272.7775,26.287429809570312L272.96500000000003,30.2340072631836L273.09,22.06198043823244L273.34000000000003,59.294063568115234L273.465,47.889920043945295L273.6525,42.73985443115234L273.965,17.09735412597658L274.21500000000003,47.62225189208985L274.2775,15.736945343017595L274.40250000000003,26.760568237304682L274.965,40.87147369384766L275.0275,26.106675720214838L275.71500000000003,29.507392120361345L275.84,33.24449310302734L275.90250000000003,29.534077453613264L276.34000000000003,37.33054046630858L276.465,45.44064102172851L276.52750000000003,61.85252838134765L276.59000000000003,26.966785430908203L276.6525,9.541534423828125L276.9025,32.11488189697266L277.02750000000003,20.201612091064447L278.4025,11.85025711059572L278.59,28.204699707031267L279.15250000000003,31.120055389404314L279.34000000000003,57.03266830444336L279.465,59.69291763305664L279.65375,12.700249481201155L279.71625,69.45112609863281L279.77875,52.48013687133789L279.90375,30.13045730590821L280.40375,37.560998535156244L280.71625,32.53105087280275L281.15375,36.19834899902344L282.90375,27.230786895751947L283.34125,25.721741485595686L283.96625,2.005609893798834L284.02875,1.1203086853027173L284.34125,30.81612777709961L284.84125,13.710829162597662L284.90375,25.754198455810553L284.96625,37.321102142333984L285.59125,24.720871734619124L285.65375,38.993994140625006L285.71625,32.17504272460937" style="fill: none;" fill="none"></path></g></g></g></g></g></g><g transform="translate(30, 178)" clip-path="url(#clip_1)"><clipPath id="clip_1"><rect width="300" height="22"></rect></clipPath><g><g><line x1="0" y1="0" x2="0" y2="5" style="visibility: inherit;" fill="rgb(0, 0, 0)" stroke="rgb(204, 204, 204)" stroke-width="1px"></line><line x1="25" y1="0" x2="25" y2="5" style="visibility: inherit;" fill="rgb(0, 0, 0)" stroke="rgb(204, 204, 204)" stroke-width="1px"></line><line x1="50" y1="0" x2="50" y2="5" style="visibility: inherit;" fill="rgb(0, 0, 0)" stroke="rgb(204, 204, 204)" stroke-width="1px"></line><line x1="75" y1="0" x2="75" y2="5" style="visibility: inherit;" fill="rgb(0, 0, 0)" stroke="rgb(204, 204, 204)" stroke-width="1px"></line><line x1="100" y1="0" x2="100" y2="5" style="visibility: inherit;" fill="rgb(0, 0, 0)" stroke="rgb(204, 204, 204)" stroke-width="1px"></line><line x1="125" y1="0" x2="125" y2="5" style="visibility: inherit;" fill="rgb(0, 0, 0)" stroke="rgb(204, 204, 204)" stroke-width="1px"></line><line x1="150" y1="0" x2="150" y2="5" style="visibility: inherit;" fill="rgb(0, 0, 0)" stroke="rgb(204, 204, 204)" stroke-width="1px"></line><line x1="175" y1="0" x2="175" y2="5" style="visibility: inherit;" fill="rgb(0, 0, 0)" stroke="rgb(204, 204, 204)" stroke-width="1px"></line><line x1="200" y1="0" x2="200" y2="5" style="visibility: inherit;" fill="rgb(0, 0, 0)" stroke="rgb(204, 204, 204)" stroke-width="1px"></line><line x1="225" y1="0" x2="225" y2="5" style="visibility: inherit;" fill="rgb(0, 0, 0)" stroke="rgb(204, 204, 204)" stroke-width="1px"></line><line x1="250" y1="0" x2="250" y2="5" style="visibility: inherit;" fill="rgb(0, 0, 0)" stroke="rgb(204, 204, 204)" stroke-width="1px"></line><line x1="275" y1="0" x2="275" y2="5" style="visibility: inherit;" fill="rgb(0, 0, 0)" stroke="rgb(204, 204, 204)" stroke-width="1px"></line><line x1="300" y1="0" x2="300" y2="5" style="visibility: inherit;" fill="rgb(0, 0, 0)" stroke="rgb(204, 204, 204)" stroke-width="1px"></line></g><g transform="translate(0, 8)"><text x="0" y="0" dx="0em" dy="0.95em" style="text-anchor: middle; visibility: hidden; font-family: &quot;Helvetica Neue&quot;, sans-serif; font-size: 12px; font-weight: 200;" fill="rgb(50, 49, 63)" stroke="none" stroke-width="1px">-20k</text><text x="25" y="0" dx="0em" dy="0.95em" style="text-anchor: middle; visibility: inherit; font-family: &quot;Helvetica Neue&quot;, sans-serif; font-size: 12px; font-weight: 200;" fill="rgb(50, 49, 63)" stroke="none" stroke-width="1px">0</text><text x="50" y="0" dx="0em" dy="0.95em" style="text-anchor: middle; visibility: hidden; font-family: &quot;Helvetica Neue&quot;, sans-serif; font-size: 12px; font-weight: 200;" fill="rgb(50, 49, 63)" stroke="none" stroke-width="1px">20k</text><text x="75" y="0" dx="0em" dy="0.95em" style="text-anchor: middle; visibility: inherit; font-family: &quot;Helvetica Neue&quot;, sans-serif; font-size: 12px; font-weight: 200;" fill="rgb(50, 49, 63)" stroke="none" stroke-width="1px">40k</text><text x="100" y="0" dx="0em" dy="0.95em" style="text-anchor: middle; visibility: hidden; font-family: &quot;Helvetica Neue&quot;, sans-serif; font-size: 12px; font-weight: 200;" fill="rgb(50, 49, 63)" stroke="none" stroke-width="1px">60k</text><text x="125" y="0" dx="0em" dy="0.95em" style="text-anchor: middle; visibility: inherit; font-family: &quot;Helvetica Neue&quot;, sans-serif; font-size: 12px; font-weight: 200;" fill="rgb(50, 49, 63)" stroke="none" stroke-width="1px">80k</text><text x="150" y="0" dx="0em" dy="0.95em" style="text-anchor: middle; visibility: hidden; font-family: &quot;Helvetica Neue&quot;, sans-serif; font-size: 12px; font-weight: 200;" fill="rgb(50, 49, 63)" stroke="none" stroke-width="1px">100k</text><text x="175" y="0" dx="0em" dy="0.95em" style="text-anchor: middle; visibility: inherit; font-family: &quot;Helvetica Neue&quot;, sans-serif; font-size: 12px; font-weight: 200;" fill="rgb(50, 49, 63)" stroke="none" stroke-width="1px">120k</text><text x="200" y="0" dx="0em" dy="0.95em" style="text-anchor: middle; visibility: hidden; font-family: &quot;Helvetica Neue&quot;, sans-serif; font-size: 12px; font-weight: 200;" fill="rgb(50, 49, 63)" stroke="none" stroke-width="1px">140k</text><text x="225" y="0" dx="0em" dy="0.95em" style="text-anchor: middle; visibility: inherit; font-family: &quot;Helvetica Neue&quot;, sans-serif; font-size: 12px; font-weight: 200;" fill="rgb(50, 49, 63)" stroke="none" stroke-width="1px">160k</text><text x="250" y="0" dx="0em" dy="0.95em" style="text-anchor: middle; visibility: hidden; font-family: &quot;Helvetica Neue&quot;, sans-serif; font-size: 12px; font-weight: 200;" fill="rgb(50, 49, 63)" stroke="none" stroke-width="1px">180k</text><text x="275" y="0" dx="0em" dy="0.95em" style="text-anchor: middle; visibility: inherit; font-family: &quot;Helvetica Neue&quot;, sans-serif; font-size: 12px; font-weight: 200;" fill="rgb(50, 49, 63)" stroke="none" stroke-width="1px">200k</text><text x="300" y="0" dx="0em" dy="0.95em" style="text-anchor: middle; visibility: hidden; font-family: &quot;Helvetica Neue&quot;, sans-serif; font-size: 12px; font-weight: 200;" fill="rgb(50, 49, 63)" stroke="none" stroke-width="1px">220k</text></g><line x1="0" y1="0" x2="300" y2="0" fill="rgb(0, 0, 0)" stroke="rgb(204, 204, 204)" stroke-width="1px"></line></g></g></g></g></svg>