<svg viewBox="0 0 330 200" xmlns="http://www.w3.org/2000/svg"><g><g><g><g><g><line x1="40" y1="178" x2="35" y2="178" style="visibility: inherit;" fill="rgb(0, 0, 0)" stroke="rgb(204, 204, 204)" stroke-width="1px"></line><line x1="40" y1="165.28571428571428" x2="35" y2="165.28571428571428" style="visibility: inherit;" fill="rgb(0, 0, 0)" stroke="rgb(204, 204, 204)" stroke-width="1px"></line><line x1="40" y1="152.57142857142856" x2="35" y2="152.57142857142856" style="visibility: inherit;" fill="rgb(0, 0, 0)" stroke="rgb(204, 204, 204)" stroke-width="1px"></line><line x1="40" y1="139.8571428571429" x2="35" y2="139.8571428571429" style="visibility: inherit;" fill="rgb(0, 0, 0)" stroke="rgb(204, 204, 204)" stroke-width="1px"></line><line x1="40" y1="127.14285714285715" x2="35" y2="127.14285714285715" style="visibility: inherit;" fill="rgb(0, 0, 0)" stroke="rgb(204, 204, 204)" stroke-width="1px"></line><line x1="40" y1="114.42857142857143" x2="35" y2="114.42857142857143" style="visibility: inherit;" fill="rgb(0, 0, 0)" stroke="rgb(204, 204, 204)" stroke-width="1px"></line><line x1="40" y1="101.7142857142857" x2="35" y2="101.7142857142857" style="visibility: inherit;" fill="rgb(0, 0, 0)" stroke="rgb(204, 204, 204)" stroke-width="1px"></line><line x1="40" y1="88.99999999999999" x2="35" y2="88.99999999999999" style="visibility: inherit;" fill="rgb(0, 0, 0)" stroke="rgb(204, 204, 204)" stroke-width="1px"></line><line x1="40" y1="76.2857142857143" x2="35" y2="76.2857142857143" style="visibility: inherit;" fill="rgb(0, 0, 0)" stroke="rgb(204, 204, 204)" stroke-width="1px"></line><line x1="40" y1="63.571428571428584" x2="35" y2="63.571428571428584" style="visibility: inherit;" fill="rgb(0, 0, 0)" stroke="rgb(204, 204, 204)" stroke-width="1px"></line><line x1="40" y1="50.85714285714286" x2="35" y2="50.85714285714286" style="visibility: inherit;" fill="rgb(0, 0, 0)" stroke="rgb(204, 204, 204)" stroke-width="1px"></line><line x1="40" y1="38.14285714285714" x2="35" y2="38.14285714285714" style="visibility: inherit;" fill="rgb(0, 0, 0)" stroke="rgb(204, 204, 204)" stroke-width="1px"></line><line x1="40" y1="25.428571428571388" x2="35" y2="25.428571428571388" style="visibility: inherit;" fill="rgb(0, 0, 0)" stroke="rgb(204, 204, 204)" stroke-width="1px"></line><line x1="40" y1="12.714285714285722" x2="35" y2="12.714285714285722" style="visibility: inherit;" fill="rgb(0, 0, 0)" stroke="rgb(204, 204, 204)" stroke-width="1px"></line><line x1="40" y1="0" x2="35" y2="0" style="visibility: inherit;" fill="rgb(0, 0, 0)" stroke="rgb(204, 204, 204)" stroke-width="1px"></line></g><g transform="translate(30, 0)"><text x="0" y="178" dx="0em" dy="0.3em" style="text-anchor: end; visibility: hidden; font-family: &quot;Helvetica Neue&quot;, sans-serif; font-size: 12px; font-weight: 200;" fill="rgb(50, 49, 63)" stroke="none" stroke-width="1px">2.5</text><text x="0" y="165.28571428571428" dx="0em" dy="0.3em" style="text-anchor: end; visibility: inherit; font-family: &quot;Helvetica Neue&quot;, sans-serif; font-size: 12px; font-weight: 200;" fill="rgb(50, 49, 63)" stroke="none" stroke-width="1px">2.6</text><text x="0" y="152.57142857142856" dx="0em" dy="0.3em" style="text-anchor: end; visibility: hidden; font-family: &quot;Helvetica Neue&quot;, sans-serif; font-size: 12px; font-weight: 200;" fill="rgb(50, 49, 63)" stroke="none" stroke-width="1px">2.7</text><text x="0" y="139.8571428571429" dx="0em" dy="0.3em" style="text-anchor: end; visibility: inherit; font-family: &quot;Helvetica Neue&quot;, sans-serif; font-size: 12px; font-weight: 200;" fill="rgb(50, 49, 63)" stroke="none" stroke-width="1px">2.8</text><text x="0" y="127.14285714285715" dx="0em" dy="0.3em" style="text-anchor: end; visibility: hidden; font-family: &quot;Helvetica Neue&quot;, sans-serif; font-size: 12px; font-weight: 200;" fill="rgb(50, 49, 63)" stroke="none" stroke-width="1px">2.9</text><text x="0" y="114.42857142857143" dx="0em" dy="0.3em" style="text-anchor: end; visibility: inherit; font-family: &quot;Helvetica Neue&quot;, sans-serif; font-size: 12px; font-weight: 200;" fill="rgb(50, 49, 63)" stroke="none" stroke-width="1px">3</text><text x="0" y="101.7142857142857" dx="0em" dy="0.3em" style="text-anchor: end; visibility: hidden; font-family: &quot;Helvetica Neue&quot;, sans-serif; font-size: 12px; font-weight: 200;" fill="rgb(50, 49, 63)" stroke="none" stroke-width="1px">3.1</text><text x="0" y="88.99999999999999" dx="0em" dy="0.3em" style="text-anchor: end; visibility: inherit; font-family: &quot;Helvetica Neue&quot;, sans-serif; font-size: 12px; font-weight: 200;" fill="rgb(50, 49, 63)" stroke="none" stroke-width="1px">3.2</text><text x="0" y="76.2857142857143" dx="0em" dy="0.3em" style="text-anchor: end; visibility: hidden; font-family: &quot;Helvetica Neue&quot;, sans-serif; font-size: 12px; font-weight: 200;" fill="rgb(50, 49, 63)" stroke="none" stroke-width="1px">3.3</text><text x="0" y="63.571428571428584" dx="0em" dy="0.3em" style="text-anchor: end; visibility: inherit; font-family: &quot;Helvetica Neue&quot;, sans-serif; font-size: 12px; font-weight: 200;" fill="rgb(50, 49, 63)" stroke="none" stroke-width="1px">3.4</text><text x="0" y="50.85714285714286" dx="0em" dy="0.3em" style="text-anchor: end; visibility: hidden; font-family: &quot;Helvetica Neue&quot;, sans-serif; font-size: 12px; font-weight: 200;" fill="rgb(50, 49, 63)" stroke="none" stroke-width="1px">3.5</text><text x="0" y="38.14285714285714" dx="0em" dy="0.3em" style="text-anchor: end; visibility: inherit; font-family: &quot;Helvetica Neue&quot;, sans-serif; font-size: 12px; font-weight: 200;" fill="rgb(50, 49, 63)" stroke="none" stroke-width="1px">3.6</text><text x="0" y="25.428571428571388" dx="0em" dy="0.3em" style="text-anchor: end; visibility: hidden; font-family: &quot;Helvetica Neue&quot;, sans-serif; font-size: 12px; font-weight: 200;" fill="rgb(50, 49, 63)" stroke="none" stroke-width="1px">3.7</text><text x="0" y="12.714285714285722" dx="0em" dy="0.3em" style="text-anchor: end; visibility: inherit; font-family: &quot;Helvetica Neue&quot;, sans-serif; font-size: 12px; font-weight: 200;" fill="rgb(50, 49, 63)" stroke="none" stroke-width="1px">3.8</text><text x="0" y="0" dx="0em" dy="0.3em" style="text-anchor: end; visibility: hidden; font-family: &quot;Helvetica Neue&quot;, sans-serif; font-size: 12px; font-weight: 200;" fill="rgb(50, 49, 63)" stroke="none" stroke-width="1px">3.9</text></g><line x1="40" y1="0" x2="40" y2="178" fill="rgb(0, 0, 0)" stroke="rgb(204, 204, 204)" stroke-width="1px"></line></g></g><g transform="translate(40, 0)" clip-path="url(#clip_0)"><clipPath id="clip_0"><rect width="290" height="178"></rect></clipPath><g><g><g><line x1="0" y1="0" x2="0" y2="178" fill="rgb(0, 0, 0)" stroke="rgb(60, 60, 60)" stroke-width="1px" opacity="0.25"></line><line x1="24.166666666666664" y1="0" x2="24.166666666666664" y2="178" fill="rgb(0, 0, 0)" stroke="rgb(60, 60, 60)" stroke-width="1px" opacity="0.25"></line><line x1="48.33333333333333" y1="0" x2="48.33333333333333" y2="178" fill="rgb(0, 0, 0)" stroke="rgb(60, 60, 60)" stroke-width="1px" opacity="0.25"></line><line x1="72.5" y1="0" x2="72.5" y2="178" fill="rgb(0, 0, 0)" stroke="rgb(60, 60, 60)" stroke-width="1px" opacity="0.25"></line><line x1="96.66666666666666" y1="0" x2="96.66666666666666" y2="178" fill="rgb(0, 0, 0)" stroke="rgb(60, 60, 60)" stroke-width="1px" opacity="0.25"></line><line x1="120.83333333333334" y1="0" x2="120.83333333333334" y2="178" fill="rgb(0, 0, 0)" stroke="rgb(60, 60, 60)" stroke-width="1px" opacity="0.25"></line><line x1="145" y1="0" x2="145" y2="178" fill="rgb(0, 0, 0)" stroke="rgb(60, 60, 60)" stroke-width="1px" opacity="0.25"></line><line x1="169.16666666666669" y1="0" x2="169.16666666666669" y2="178" fill="rgb(0, 0, 0)" stroke="rgb(60, 60, 60)" stroke-width="1px" opacity="0.25"></line><line x1="193.33333333333331" y1="0" x2="193.33333333333331" y2="178" fill="rgb(0, 0, 0)" stroke="rgb(60, 60, 60)" stroke-width="1px" opacity="0.25"></line><line x1="217.5" y1="0" x2="217.5" y2="178" fill="rgb(0, 0, 0)" stroke="rgb(60, 60, 60)" stroke-width="1px" opacity="0.25"></line><line x1="241.66666666666669" y1="0" x2="241.66666666666669" y2="178" fill="rgb(0, 0, 0)" stroke="rgb(60, 60, 60)" stroke-width="1px" opacity="0.25"></line><line x1="265.8333333333333" y1="0" x2="265.8333333333333" y2="178" fill="rgb(0, 0, 0)" stroke="rgb(60, 60, 60)" stroke-width="1px" opacity="0.25"></line><line x1="290" y1="0" x2="290" y2="178" fill="rgb(0, 0, 0)" stroke="rgb(60, 60, 60)" stroke-width="1px" opacity="0.25"></line></g><g><line x1="0" y1="178" x2="290" y2="178" fill="rgb(0, 0, 0)" stroke="rgb(60, 60, 60)" stroke-width="1px" opacity="0.25"></line><line x1="0" y1="165.28571428571428" x2="290" y2="165.28571428571428" fill="rgb(0, 0, 0)" stroke="rgb(60, 60, 60)" stroke-width="1px" opacity="0.25"></line><line x1="0" y1="152.57142857142856" x2="290" y2="152.57142857142856" fill="rgb(0, 0, 0)" stroke="rgb(60, 60, 60)" stroke-width="1px" opacity="0.25"></line><line x1="0" y1="139.8571428571429" x2="290" y2="139.8571428571429" fill="rgb(0, 0, 0)" stroke="rgb(60, 60, 60)" stroke-width="1px" opacity="0.25"></line><line x1="0" y1="127.14285714285715" x2="290" y2="127.14285714285715" fill="rgb(0, 0, 0)" stroke="rgb(60, 60, 60)" stroke-width="1px" opacity="0.25"></line><line x1="0" y1="114.42857142857143" x2="290" y2="114.42857142857143" fill="rgb(0, 0, 0)" stroke="rgb(60, 60, 60)" stroke-width="1px" opacity="0.25"></line><line x1="0" y1="101.7142857142857" x2="290" y2="101.7142857142857" fill="rgb(0, 0, 0)" stroke="rgb(60, 60, 60)" stroke-width="1px" opacity="0.25"></line><line x1="0" y1="88.99999999999999" x2="290" y2="88.99999999999999" fill="rgb(0, 0, 0)" stroke="rgb(60, 60, 60)" stroke-width="1px" opacity="0.25"></line><line x1="0" y1="76.2857142857143" x2="290" y2="76.2857142857143" fill="rgb(0, 0, 0)" stroke="rgb(60, 60, 60)" stroke-width="1px" opacity="0.25"></line><line x1="0" y1="63.571428571428584" x2="290" y2="63.571428571428584" fill="rgb(0, 0, 0)" stroke="rgb(60, 60, 60)" stroke-width="1px" opacity="0.25"></line><line x1="0" y1="50.85714285714286" x2="290" y2="50.85714285714286" fill="rgb(0, 0, 0)" stroke="rgb(60, 60, 60)" stroke-width="1px" opacity="0.25"></line><line x1="0" y1="38.14285714285714" x2="290" y2="38.14285714285714" fill="rgb(0, 0, 0)" stroke="rgb(60, 60, 60)" stroke-width="1px" opacity="0.25"></line><line x1="0" y1="25.428571428571388" x2="290" y2="25.428571428571388" fill="rgb(0, 0, 0)" stroke="rgb(60, 60, 60)" stroke-width="1px" opacity="0.25"></line><line x1="0" y1="12.714285714285722" x2="290" y2="12.714285714285722" fill="rgb(0, 0, 0)" stroke="rgb(60, 60, 60)" stroke-width="1px" opacity="0.25"></line><line x1="0" y1="0" x2="290" y2="0" fill="rgb(0, 0, 0)" stroke="rgb(60, 60, 60)" stroke-width="1px" opacity="0.25"></line></g></g></g><g><g><line x1="0" y1="495.8571428571429" x2="290" y2="495.8571428571429" fill="rgb(0, 0, 0)" stroke="rgb(153, 153, 153)" stroke-width="1.5px"></line></g></g><g><g><line x1="24.166666666666664" y1="0" x2="24.166666666666664" y2="178" fill="rgb(0, 0, 0)" stroke="rgb(153, 153, 153)" stroke-width="1.5px"></line></g></g><g><g><g><g><g><path stroke="rgb(255, 112, 67)" stroke-width="2px" d="M28.637500000000003,-18.398160312810205L28.939583333333335,8.753249962155365L29.422916666666666,-4.903346114971896L29.845833333333335,-9.471604554474453L30.329166666666666,1.8177701809109976L30.510416666666668,4.488454013438229L30.570833333333336,-14.863326886544485L30.99375,0.8340089263915331L31.29583333333333,-17.887387158208355L31.77916666666667,-10.56693636230571L32.020833333333336,4.748872366989218L32.56458333333333,-20.92545921580674L33.229166666666664,-6.228496226349449L33.53125,19.392667867935018L33.7125,29.0044521624435L34.25625,4.430167273717785L34.31666666666666,17.81557414413618L34.860416666666666,5.186155931595408L34.861625,19.61053723586906L35.16370833333333,-7.852452079971698L35.28454166666667,-25.018119084990047L35.34495833333333,13.788437441540964L35.586625,13.679309104547883L36.06995833333333,24.81018964489283L36.55329166666667,29.67673079979423L36.613708333333335,34.236062195336785L36.674125000000004,37.74511770797852L36.915791666666664,32.17101904270979L37.580375,24.246069563978722L37.942875,32.72796210454524L38.24495833333333,34.94469239952153L38.426208333333335,54.80904062581652L39.15120833333334,61.53463599679647L39.513708333333334,53.38061079263028L39.81579166666667,43.18876033091354L39.99704166666667,44.53137814123579L40.238708333333335,20.864952001330778L40.480375,25.90222499172617L40.60120833333334,27.911656181218433L41.749125,45.17624658352213L42.05120833333333,38.45253489615342L42.111625,27.70072786272118L42.41370833333333,14.265138746084489L42.655375,33.03650211119111L42.71579166666666,35.54685599453293L42.836625,44.54769503726675L43.31995833333333,37.246209155482404L43.380375,45.081202891755794L43.742875000000005,38.33233339407701L43.80329166666667,50.842882438953694L43.863708333333335,54.2924208535123L44.044958333333334,53.88802284876614L44.58870833333333,50.50466760063203L45.07204166666667,45.125284958076634L45.9795,57.32991489416135L46.22116666666666,19.666850044267704L46.583666666666666,40.71697968063873L46.82533333333333,46.700595050508156L46.94616666666666,60.36377792044118L47.671166666666664,61.726510037433044L47.73158333333333,65.69882745428414L48.698249999999994,34.68835326100452L49.483666666666664,69.58300639410335L49.54408333333333,64.51339173680405L49.66491666666667,70.20624721159304L50.02741666666667,27.015563834040677L50.57116666666667,61.92131343732159L50.692,59.49275069013204L50.75241666666666,60.29856730870897L50.93366666666667,87.06503701619059L51.296166666666664,77.57402808788942L51.83991666666667,57.236288855444L52.021166666666666,57.12076997458064L52.081583333333334,52.078052186069286L52.62533333333333,59.249089045255616L52.68575,55.43004483071839L53.592,75.71236134197676L53.712833333333336,76.69365606494658L53.83366666666667,68.79792187746736L54.6795,83.17787672917957L54.98158333333333,88.60250013423243L55.10241666666667,55.27952733442865L55.28366666666666,33.863685175197446L55.767,55.72320019138371L56.1295,55.211414775051296L56.25033333333334,49.800915181874615L56.372375,44.47366874821168L56.734874999999995,50.39069662513495L57.03695833333333,62.44545114643033L57.641125,72.59933854522306L57.76195833333333,51.06828313285713L58.003625,50.26135126714294L58.366125000000004,56.61705908764715L58.607791666666664,60.96415534493124L58.66820833333333,57.844515463342674L58.97029166666667,60.11767486948685L59.091125000000005,56.381116307434226L59.15154166666667,68.3257767905762L59.272375,66.35312558859496L59.393208333333334,62.26104460254285L59.453624999999995,57.909606677576846L59.75570833333334,57.70261117884071L59.816125,69.87914139350816L60.359875,72.57458164191414L60.722375,58.79414935677103L60.84320833333334,62.61337784459853L61.14529166666667,82.00227230647404L61.447375,63.93514299946783L61.56820833333333,61.26652603315645L62.29320833333333,70.85227750828068L62.716125,66.66986386504831L62.77654166666667,64.60339722790444L62.897375000000004,65.27694049405495L62.957791666666665,61.482399508140816L63.018208333333334,72.30061975860075L63.078625,61.1111369125351L63.19945833333333,75.88491349197342L63.38070833333333,46.631927075317265L63.622375000000005,81.3174123472961L63.924458333333334,75.9399012955127L64.10570833333333,85.03984592652614L64.347375,90.83830313174813L64.528625,62.74418517437252L64.709875,63.85835420038306L64.77029166666667,68.35894168301228L64.95154166666667,58.716526069890875L65.01195833333334,69.38504754264694L65.19320833333333,61.660659106849295L65.253625,61.421598706328524L65.55570833333333,64.83365763237587L65.616125,75.86017996373928L66.03904166666668,78.04792983026253L66.22029166666667,69.54103843775678L66.46195833333333,62.659097458145894L66.64320833333333,96.64615424431031L66.884875,72.93144268976651L67.06733333333334,87.16801188941896L67.309,82.88787810372149L67.49025,112.66574835886608L67.55066666666666,101.14175441297905L67.61108333333333,82.32446907291722L68.034,93.39152512052632L68.3965,93.88996925681529L68.51733333333334,88.35117232420946L68.57775,80.02066136485014L68.81941666666667,73.82534752215646L69.06108333333333,81.62541807271752L69.24233333333333,88.88410464697398L69.30275,96.29747655324138L69.36316666666667,93.0336374590755L69.48400000000001,88.40617459267266L69.60483333333333,99.1597411431369L70.14858333333333,104.53716756694011L70.39025,96.2404523902908L70.45066666666666,98.53652804534957L70.51108333333333,91.74314487409985L70.63191666666667,100.30849701295014L70.69233333333334,93.23700749316728L71.05483333333333,93.18000303339637L71.29650000000001,116.9478388387909L71.35691666666666,94.17852136370394L71.47775,91.70944978260056L71.59858333333334,94.78891540009695L71.77983333333333,89.84198176991622L71.84025,92.10420333186296L71.90066666666667,108.0435235346541L71.96108333333333,95.02584583297926L72.14233333333333,84.59884738545286L72.384,108.58555879479844L72.68608333333333,92.83271610226093L72.74650000000001,85.61977580632524L72.80691666666667,95.84350296093749L73.16941666666668,80.23672312567751L73.53191666666666,85.5951094689075L73.77358333333333,79.21915707773283L73.95483333333334,78.86912694509722L74.1965,81.3588506666896L74.43816666666666,74.3247099485421L74.559,78.32554909486845L74.86108333333333,74.29164756804497L76.31108333333333,91.84023088654816L76.43191666666667,88.12301414740367L76.49233333333333,84.09822264174306L76.734,78.89481780189183L76.85483333333333,90.3907032884893L77.09649999999999,95.90998003714498L77.21733333333333,97.46734816382296L77.64145833333333,93.76094362303606L78.00395833333333,98.29932753194869L78.245625,74.86402301773283L78.66854166666667,97.13089746470712L78.72895833333334,77.80430315207082L78.789375,80.01374968967039L78.84979166666666,82.49220908010366L79.151875,80.27460006572123L79.27270833333334,79.96361523776449L79.45395833333333,85.72670645090703L79.51437499999999,78.45139210990897L79.63520833333332,74.10619514456938L80.11854166666667,61.794554141973165L80.17895833333333,76.12677528495033L80.36020833333333,89.28755946765672L80.783125,76.6332778328965L80.96437499999999,85.09516513926721L81.50812499999999,95.35289260322733L81.62895833333333,96.38949157170919L81.74979166666667,99.71589694432164L81.93104166666667,97.329262739455L81.99145833333333,81.53894500912287L82.233125,79.3489027887018L82.53520833333333,87.07939422337509L82.59562500000001,79.97394653620809L82.83729166666666,81.68637098211796L82.89770833333334,92.15201310318342L82.958125,81.70896447897444L83.01854166666666,81.71637210011635L83.26020833333334,83.08275897729446L83.320625,84.21463892289415L83.501875,63.9756010694159L83.56229166666667,90.41509634026447L84.04562499999999,85.37718545725515L84.28729166666666,93.88736856976323L84.408125,93.1480441242432L84.52895833333334,93.14234366863897L84.58937499999999,71.96296972885708L85.01229166666667,97.38066099540883L85.07270833333334,107.7661264373556L85.133125,91.20971440177249L85.314375,107.16752109200091L85.79770833333333,95.25978782555565L85.91854166666666,90.08772710198494L86.16020833333333,82.03245011339885L86.220625,76.52948415091724L86.52270833333333,87.70866748038257L86.94562499999999,91.61166163785259L87.61020833333333,102.77364541442098L87.73104166666667,107.44585514471204L88.09354166666667,72.37764749647759L88.15395833333334,82.403470116024L88.27479166666666,74.74656860743904L88.33641666666666,90.27055189822602L88.57808333333334,92.7363284761146L88.81975,124.22142301602467L88.94058333333332,99.87057944119964L89.24266666666668,97.34269276851711L89.30308333333333,91.60652329800817L89.36349999999999,96.20818246089905L89.84683333333334,111.91108221019354L90.20933333333333,107.1358848399075L90.45100000000001,89.40307700592737L90.51141666666666,104.15268050419832L90.57183333333334,106.20730727549659L91.11558333333333,101.74537623416266L91.23641666666667,107.92838572410011L91.41766666666666,111.18868217154521L91.78016666666667,68.81367175961785L92.2635,74.23955631609337L92.38433333333333,96.33248539076916L93.59266666666666,108.73352886231746L93.65308333333334,91.26796624956131L93.89474999999999,95.67541889517786L93.95516666666667,106.63325406363394L94.01558333333332,106.51139202490684L95.10308333333334,105.4580916606642L95.40516666666667,101.84473564753702L95.82808333333334,90.02488995352321L95.8885,79.99632697331589L96.25099999999999,80.16652957507279L96.37183333333333,95.10204794379563L96.67391666666666,111.00207815877344L96.79475,90.02184403631615L96.91558333333333,84.05915488211373L97.15725,96.5644224328043L97.76141666666668,113.08621630198486L98.24475,94.53956656791784L98.30516666666668,96.23648192029601L98.36558333333333,98.15852539998714L98.48641666666667,105.97260144133104L98.96975,97.68860941761353L99.09179166666667,101.42258404980188L99.45429166666666,115.42286333826215L99.575125,108.71421375688024L99.69595833333334,119.02472159509696L99.756375,126.203110734358L99.937625,127.41404701463418L100.05845833333333,122.75797713158141L100.23970833333333,100.21931046354062L100.72304166666667,103.10077901514556L101.14595833333333,122.71179350564537L101.50845833333334,101.37849814996027L101.75012500000001,90.69620954783234L101.81054166666667,92.1861767166599L101.87095833333332,97.73839195352029L101.931375,95.17707512313495L102.293875,104.16384994248861L102.89804166666666,94.72558859366278L103.018875,94.8609013419691L103.20012500000001,104.70084352080057L103.26054166666667,96.05109320516597L103.44179166666666,102.65123456250194L103.80429166666667,111.63681352594664L103.925125,108.69883905786035L104.106375,120.94876957815215L104.287625,121.25548930430813L104.468875,117.148405919863L104.52929166666667,110.74016229224006L105.61679166666667,121.66072728607593L106.28137500000001,109.6811446975873L106.52304166666666,120.3360198924305L107.368875,99.5268438514877L107.42929166666666,107.2076771693471L107.61054166666668,118.71539644113308L107.67095833333333,102.26649261626943L107.79179166666667,101.96561839912339L107.85220833333332,86.51053708414436L109.06054166666667,91.41514394766152L109.12095833333333,77.42885150339028L109.18137499999999,92.5350365335519L109.48345833333335,109.6259104160898L109.66470833333334,106.57989806379179L109.84716666666668,115.3609378887573L109.96799999999999,122.50618728856324L110.20966666666666,121.5112647559049L110.27008333333333,109.87903297978056L110.45133333333334,131.40348950933642L110.693,105.39481685135138L110.81383333333333,110.30004405252156L111.65966666666667,105.12710003635893L112.20341666666667,92.97912794524909L112.26383333333334,116.3914701645806L112.92841666666668,115.54739190653663L113.41175,109.62635727380429L113.47216666666667,109.6757090200625L113.65341666666667,116.95310113756778L113.77425,123.10334309914391L113.83466666666666,110.85269897275772L114.318,104.67259407369379L114.37841666666668,122.3533893594983L114.80133333333333,107.8139761736942L114.92216666666667,106.41382953080397L115.4055,100.69451037810109L115.70758333333335,82.3630205862697L115.768,108.50150189617206L115.94924999999999,121.91407642906589L116.37216666666666,103.8494758431485L117.09716666666667,113.52487849665792L117.39925,122.91694116435389L117.45966666666668,113.92103762579544L117.58049999999999,113.80910576329407L117.64091666666667,93.12666741891438L118.00341666666667,112.90709745849294L118.42633333333333,100.56794799555878L118.48675,101.27325114366273L119.03049999999999,89.76375081764716L119.27216666666666,102.60181287117916L119.393,108.0349570846204L119.63466666666666,85.25853614615333L120.17841666666666,110.1442773717849L120.542125,118.13171752626326L120.60254166666667,103.621169806524L120.90462500000001,119.40074837237711L121.38795833333333,95.66755040892994L121.50879166666667,102.05207567336872L121.93170833333333,95.23382190740917L121.992125,110.59278069697862L122.23379166666668,99.5700691067071L122.535875,109.28784564503707L122.717125,100.7733852486869L122.83795833333333,85.09485393825359L123.01920833333332,85.68759900946377L123.20045833333333,107.97927980011393L123.442125,110.50670694227725L123.92545833333332,111.06171829377328L124.40879166666667,90.80668477676726L124.529625,76.79360097784533L124.65045833333333,121.11320703667025L124.83170833333334,109.9575912995387L124.89212500000001,111.35964820513874L125.25462499999999,111.35832042017502L125.31504166666667,119.43781066691561L125.798375,80.58008802162315L125.979625,93.91472317047926L126.04004166666667,124.33036830803161L126.10045833333334,115.65021961563951L126.160875,105.86831689367928L126.28170833333333,129.80349586156083L126.46295833333333,99.31872867866481L126.88587500000001,102.08332602776329L126.94629166666667,100.79082231699596L127.36920833333333,115.86354664855949L127.429625,114.20521391598513L127.49004166666667,121.47616769423524L128.03379166666667,113.86438637241854L128.27545833333332,118.70780510087356L128.39629166666666,108.13256953471767L128.45670833333332,113.28015305493436L128.57754166666666,96.2843811806863L128.879625,111.03766177585203L128.94004166666667,128.4483225539043L129.06087499999998,122.47976501568306L129.12129166666668,110.45752832825232L129.18170833333332,123.64462334375162L129.48379166666666,120.88536736506394L130.329625,104.01464661698992L130.873375,113.4101078293963L131.17666666666665,115.81615902728569L131.59958333333333,118.23407176061494L131.66,113.35140906251675L132.20374999999999,126.7710041835225L132.62666666666667,115.8565972755646L133.11,105.82139664024999L133.17041666666665,118.41810669043929L133.35166666666666,102.54482316237475L133.77458333333334,115.7355997540408L133.89541666666668,118.44891765051648L134.13708333333335,119.98455861310235L134.74125,106.3440596196058L134.80166666666668,131.07410688200602L134.98291666666665,143.3974210351676L135.285,127.77398786336096L135.52666666666667,130.29528687414498L136.31208333333333,114.97911054497061L136.43291666666667,118.30563840450375L136.49333333333334,96.14817121381029L136.85583333333332,79.10962918625614L136.91625,107.60299840934972L136.97666666666666,118.56881580164406L137.0975,101.85718653622384L137.21833333333333,107.00487682230208L137.94333333333333,118.10535961689635L139.03083333333333,122.96318461388978L139.39333333333335,126.89361489382574L139.75583333333333,137.6460860626912L139.81625,116.06023912599733L140.17875,116.62575482419453L140.42041666666668,120.00250873294866L140.54125,111.86244013705077L140.66208333333333,115.19139872431225L141.02458333333334,95.0233716322168L141.20583333333335,95.31225793818194L141.32666666666668,103.2363824405061L141.50791666666666,119.19996832483375L141.68916666666667,134.9040583570998L141.81120833333333,120.20505806804303L142.35495833333331,139.73623541891754L142.47579166666665,113.51148313254178L143.20079166666667,91.19684379687928L143.26120833333334,105.3604265254469L143.321625,111.11755369310775L144.16745833333334,114.10048970641253L144.409125,139.3874117167639L144.65079166666666,124.55159114694143L144.89245833333334,121.22678100733626L144.952875,133.45986083647213L145.134125,126.66470357030812L145.25495833333332,111.98260051086605L145.3757916666667,124.9691000404211L145.859125,135.62147241897145L145.97995833333334,130.00493423362596L146.16120833333335,132.46443250244863L146.34245833333333,132.48886945982576L146.52370833333333,124.88848279458226L146.64454166666667,126.8799298481403L146.82579166666665,127.03129281628901L147.00704166666668,129.6940541923904L147.97370833333335,132.72268664422225L148.396625,101.3832733737904L148.69870833333331,113.33947685085172L148.75912499999998,125.02063434935343L148.81954166666668,126.48695717339733L148.940375,129.60527551795545L149.00079166666666,112.43291784711337L149.121625,120.60250938352246L149.24245833333333,113.79247704868412L149.484125,122.8099820367244L149.72579166666665,106.24220992778982L150.027875,99.47144585149067L150.14870833333333,111.6413718143004L150.57162499999998,112.05117228266298L150.69245833333335,114.45159612487761L150.752875,118.69672933337391L150.93412500000002,129.9655986759582L151.05495833333333,123.94876134793516L151.296625,101.1031863820569L151.477875,113.3303759375816L151.59870833333332,112.1769666993501L151.7195416666667,105.52055011760842L151.77995833333333,107.1908001976361L152.384125,119.99017262688729L152.44454166666665,121.06019275257427L152.627,115.05911317130756L152.80825,132.13293337422857L152.9895,127.28795044302419L153.04991666666666,131.20403011047682L153.23116666666667,129.54799339593598L153.29158333333334,128.8895128888522L153.41241666666664,118.29209428795087L153.71450000000002,106.329540651345L153.77491666666668,131.1030229810786L154.1978333333333,127.92261874925828L154.25825,137.33537598923368L154.49991666666668,133.01584755323984L154.62075,117.79061003608304L154.74158333333335,108.91741882587314L154.98325,125.49107552416575L155.58741666666668,115.99563083901245L155.70825,118.97575662688683L155.82908333333336,111.83737325118862L155.8895,109.77309632136493L156.13116666666667,116.49155843208453L156.31241666666665,121.3327801822133L156.79575,131.51279544229826L157.03741666666667,154.42199506579496L157.21866666666668,139.9060444540342L157.88325,142.79646729548455L158.12491666666665,132.48369993901161L158.24575000000002,120.840356630492L158.427,113.80465072465175L158.54783333333333,121.28937028071954L158.60825,111.77855579323075L158.7290833333333,116.72272932608877L158.84991666666667,112.62569965147958L158.91033333333334,107.349081794095L159.03116666666668,102.74052795161965L159.152,102.96307101365974L159.21241666666666,120.28651918922978L159.45408333333333,112.285432571039L159.5145,109.62947823818489L159.63533333333334,114.93596461479655L159.81658333333334,131.66317969281914L160.11866666666668,127.79626983916594L160.84366666666665,133.36231830869866L161.08533333333332,95.88901828275547L161.26658333333333,89.94390565915835L161.87075,114.9178505860684L162.23325,115.90612066158407L162.29366666666667,125.66481853833423L162.4145,87.51057379636356L162.59575,117.27397926209325L162.77700000000002,128.47246372567997L162.83741666666668,114.55648111065442L162.89783333333332,112.59994709122249L163.44279166666666,135.19340871461648L163.50320833333333,118.57212755289206L163.563625,129.14531256320038L163.68445833333334,123.09219758976087L164.40945833333333,113.97028313061179L164.469875,105.38837736243181L164.53029166666667,99.84593229709323L164.59070833333334,129.20856961374952L165.07404166666666,128.70488822688304L165.61779166666668,125.47754374810944L165.919875,135.47784840961958L166.644875,130.5778843995949L167.49070833333334,114.87826377263727L167.67195833333335,109.7579123440715L167.73237500000002,111.26286545584598L167.79279166666666,133.0300464367569L167.91362500000002,133.1128578584105L168.39695833333332,132.93346596958372L168.51779166666668,124.04511828780807L168.638625,141.40521815884304L168.75945833333336,118.9014759167081L169.363625,105.2160709412112L169.84695833333333,126.83221639726206L169.907375,129.3375587866713L170.20945833333332,127.02488909977703L170.57195833333336,119.14334190731654L171.05529166666665,128.8516781474513L171.4177916666667,139.44892266229877L171.47820833333333,131.91377344976686L171.59904166666666,124.78521363511925L171.719875,122.70264330081719L172.02195833333334,137.334961100139L173.169875,120.34838042370018L173.29070833333336,143.25863800558903L173.532375,136.6067540470167L173.59279166666667,136.95897194812903L174.13774999999998,140.3121591957516L174.25858333333335,123.11995305276236L174.43983333333335,133.30236861007313L174.50025,150.42530983953748L174.56066666666666,155.40854359349333L175.16483333333332,129.28508501255732L175.22525000000002,114.23859385551279L175.4065,120.7694377300181L175.52733333333333,143.48485544315093L175.769,140.00756987032628L175.88983333333334,123.51286327867906L176.07108333333335,119.09822162398456L176.19191666666666,133.4460302841925L176.31275000000002,144.45966743982626L176.43358333333333,139.1435004936361L176.97733333333332,119.65990724762395L177.219,129.23972003042735L177.46066666666667,124.24395198935284L177.58149999999998,129.16623135600696L177.76275,135.2503577834196L177.94400000000002,132.95392546551906L178.3065,123.71359415500606L178.36691666666667,141.37731224193948L178.6085833333333,137.4026590046131L178.78983333333335,108.63278748562466L178.97108333333335,116.91588399997514L179.09191666666666,127.12574586329211L179.63566666666665,131.98542349653644L179.81691666666669,126.64764864777689L179.87733333333333,130.6248579488253L179.93775,130.61459199387002L179.99816666666666,111.46754410206731L180.17941666666667,127.06902271014292L180.42108333333334,126.36412584037136L180.78358333333333,138.88586400523948L180.84400000000002,123.30241510443443L181.02525,131.0610142385142L181.50858333333332,116.06010276780061L181.81066666666666,111.66550120921595L181.99191666666667,104.32081029776238L182.17316666666667,103.63415526736831L182.23358333333334,115.6104717236431L182.35441666666665,126.45300950949405L182.53566666666666,119.18042695029087L182.59608333333333,131.45274087042662L182.7169166666667,134.24619709328135L183.07941666666667,126.67440720461404L183.26066666666668,123.06348973531306L183.44191666666666,126.18758930569523L183.50233333333335,109.76974024118677L183.74400000000003,126.13686670583994L184.1065,122.0619663647488L184.83270833333333,145.730847723832L185.074375,145.0923623226733L185.1952083333333,141.00122716375148L185.49729166666668,126.39196437104928L185.799375,129.89184115381363L186.34312500000001,133.99391796008146L186.58479166666666,129.25509815757098L186.82645833333333,127.32467817468833L187.0077083333333,131.76829802752553L187.91395833333334,150.6931212537319L188.57854166666667,114.43429965355492L188.63895833333333,140.03441730314051L188.82020833333334,136.56364998571144L189.18270833333332,135.64653120443847L189.605625,149.1665415585209L189.66604166666667,127.0719153827479L189.7264583333333,119.93838198024187L189.786875,125.7994658918326L189.84729166666668,138.1246822586997L189.90770833333332,136.30148544047307L190.39104166666667,131.845982331437L191.780625,135.5772318179614L191.84104166666665,145.0925984661343L191.90145833333335,128.28795200230363L192.324375,135.0433596302321L192.98895833333333,150.8174906828776L193.10979166666667,129.7478603678577L193.35145833333334,137.9171326922665L193.83479166666666,127.28365583322321L193.89520833333333,144.23719869584409L194.07645833333333,123.62315946379476L194.19729166666667,133.9369597600674L194.2577083333333,129.6378450920217L194.37854166666668,124.6017878213535L195.46725,143.4768167781535L195.76933333333335,142.74897750758242L195.95058333333333,136.68206896943784L196.13183333333333,132.92951654959597L196.67558333333332,136.00834591260224L196.736,134.6062372179946L197.0985,137.07511524117356L197.21933333333334,150.30789271520487L197.27974999999998,159.32884194709933L197.64225000000002,146.31598857122088L197.82350000000002,120.80946832620336L197.88391666666666,121.35716230190761L198.186,153.05680365120463L198.30683333333332,133.63305557595217L198.42766666666668,120.60683256634037L198.60891666666666,126.79973351433267L198.66933333333336,131.6047883614135L199.15266666666665,153.85214363885623L199.45475000000002,138.17992993400307L199.57558333333333,138.11352688135452L199.636,128.64908596891686L199.6964166666667,125.91016320293701L200.361,129.46226257057654L200.96516666666665,147.11345508686205L201.4485,131.1726899951443L202.47558333333333,117.00989530115567L202.77766666666668,142.77545761355532L202.89849999999998,130.94712812688584L202.95891666666668,142.4305394619305L203.14016666666666,119.7790002384663L203.74433333333334,126.37354525205137L204.10683333333333,114.11124332033589L204.3485,122.21104209209388L204.65058333333334,147.93212561781675L204.77141666666668,135.88719326548423L204.89225,137.02247640577747L205.01308333333333,145.32666842069568L205.13391666666666,142.6624113080691L205.37558333333334,135.2984700488386L205.436,110.04747000596934L205.61725,126.39257085103398L205.73808333333332,122.59533716374222L205.97975,149.80574758390662L206.04137500000002,146.16869528156542L206.22262500000002,128.57585415560612L206.28304166666666,130.6531680146415L206.403875,136.69353150485634L206.7059583333333,128.7954342817029L206.82679166666668,152.10132311745767L206.88720833333332,146.73977083851184L206.947625,140.99925869372274L207.310125,149.22099895974037L207.43095833333334,133.46843653827918L208.15595833333333,147.12855686518554L208.3372083333333,129.76512164405884L208.45804166666667,152.4979648665545L208.57887499999998,142.1738068126428L208.69970833333335,117.73777780123916L208.82054166666666,142.5149462496888L209.36429166666665,134.10423186646852L209.60595833333332,124.57601147659702L209.72679166666668,134.83993491461302L209.90804166666666,149.28879115858805L210.39137499999998,155.7222019609187L210.63304166666666,137.7928499631993L210.87470833333333,113.58129905023908L211.2372083333333,113.05469214427092L211.660125,133.57383290382506L211.78095833333333,139.7433252079853L212.08304166666667,122.75455254744199L212.50595833333333,127.23711934814068L212.68720833333333,147.06487774589425L212.747625,147.06998941820493L213.04970833333334,139.65456625676643L213.11012499999998,145.51496294992117L213.17054166666668,131.87246602731034L213.291375,113.50705288039774L213.472625,128.8942983573292L213.77470833333334,113.97299283819244L213.95595833333334,127.81866272114767L214.016375,123.96670005268771L214.13720833333332,139.22363094552438L214.49970833333333,142.8657686831477L215.10387500000002,127.23776553040516L215.5267916666667,123.98851801742843L215.70804166666667,152.17928946551604L215.7684583333333,137.1272218601016L216.191375,143.6967518203291L216.25179166666666,135.30809537985422L216.31220833333333,140.3511121523932L216.372625,135.10600322045553L216.67470833333334,115.5566435621908L216.79675,131.58473684688605L218.24675,147.41733093947232L218.428,144.90636864867827L218.54883333333333,141.6197345005483L218.85091666666665,149.73162652692233L219.03216666666665,153.77064285767392L219.09258333333332,141.1260690989862L219.21341666666666,144.21174555727154L219.27383333333333,120.77683300289009L219.69675,131.58184207234532L219.81758333333332,145.40793284402415L219.93841666666668,146.9484867353026L220.48216666666667,137.27018382843687L220.78425000000001,140.48995416967975L220.84466666666665,131.7522994089392L221.20716666666667,142.70442898894157L221.328,124.1421939367795L221.44883333333334,142.45976128085687L221.56966666666668,144.62991079659534L221.81133333333335,138.01985440543677L221.99258333333333,141.3121773299318L222.23425,148.5708214252216L222.778,149.6151579799957L222.83841666666666,144.4798851186844L222.89883333333333,118.7347341589574L223.26133333333334,140.82958734668628L223.74466666666666,136.97653838586018L223.98633333333333,150.3885961192584L224.10716666666667,142.54369079523497L224.1675833333333,157.8927421911157L224.228,134.80085717271558L224.46966666666668,150.56418531725046L224.77175,154.7264599370636L225.19466666666665,140.68618210457794L225.678,147.4398058185072L225.91966666666667,154.09881987360393L226.16133333333335,132.7136493628838L226.28216666666665,119.20053375082072L226.64466666666667,127.2210545668508L226.82591666666664,146.17882271198948L226.94675,148.91699520226868L227.06758333333332,142.58140492283272L227.18841666666668,131.44753038836407L227.36966666666666,147.78062919364243L227.43129166666665,144.63423911209662L227.61254166666666,141.1332959397905L227.85420833333333,134.65676181507925L228.33754166666668,146.45946426687487L228.639625,148.52757392972066L228.70004166666666,160.96091380908894L228.94170833333334,154.0741381144369L229.36462500000002,129.9489089338733L230.02920833333334,136.54835175540308L230.21045833333335,144.06823463161666L230.270875,139.86660772240126L230.45212500000002,144.58570529721965L230.75420833333334,134.8801903775418L231.11670833333332,128.27464580688127L231.177125,133.20549378440754L231.41879166666666,124.992047791618L231.539625,129.1944880977088L231.902125,133.44976612612052L231.96254166666665,158.9528805633916L232.08337500000002,149.40923839272665L232.32504166666666,146.0060520811725L232.74795833333332,143.72458765041375L233.11045833333336,154.67137605289088L233.29170833333333,153.5498923729046L233.65420833333334,141.23271721214607L234.13754166666666,127.4714054155664L234.31879166666667,129.10936524535174L234.439625,133.2484065355806L234.50004166666668,138.8036960977897L234.802125,157.75463813002662L234.86254166666666,153.52403624491618L235.04379166666666,154.23268108259657L235.164625,143.43326705900142L235.22504166666664,143.98899439039025L235.345875,123.73854683358135L235.64795833333332,124.57929777657588L236.25212499999998,131.4268490062821L236.61462500000002,128.90463064869246L236.73545833333333,139.14821714985374L236.795875,149.77377713569405L237.03754166666667,128.01689700141077L237.09795833333334,143.7726591463522L237.33962499999998,131.5789216052185L237.46045833333335,137.035955086073L237.82295833333333,134.08181280336402L237.88337499999997,135.4161013437558L238.064625,136.5737030647173L238.2470833333333,135.24962785667108L238.97208333333333,133.2290687406836L239.27416666666664,162.4234753085607L239.3345833333333,155.36810613970263L239.45541666666668,157.20907714754438L239.99916666666667,150.53279631969363L240.05958333333334,149.39323862086843L240.42208333333335,138.46438548472855L240.48250000000002,143.29933551999136L241.32833333333335,143.01215463892288L241.57,135.50586082343958L241.69083333333333,137.18061676563232L241.81166666666667,144.23921997231668L241.99291666666664,144.47325267458686L242.17416666666665,152.91749236006956L242.71791666666667,142.5885015398843L243.08041666666668,140.33320596428462L243.20125,147.64036143604443L243.8658333333333,141.56799077029086L243.92625,152.1196506948324L244.28875,150.82825665864505L244.71166666666667,138.04446565268384L246.16166666666666,148.13588517653332L246.22208333333333,153.43080046697673L246.34291666666667,141.52839194215602L246.52416666666664,134.08717144273902L246.645,142.73949724657297L247.91375000000002,142.78833286232637L248.095,123.06975677092933L248.33666666666664,129.7166822745802L248.3970833333333,137.66734390242107L248.4575,164.28304141993286L248.57833333333332,165.40306752394127L248.76079166666665,154.7824713512376L248.94204166666665,142.41639781368124L249.06287500000002,145.25719273201332L249.18370833333333,143.79570502076066L249.606625,149.690675407748L249.84829166666668,161.91537809076925L250.02954166666666,159.9268605223388L250.331625,163.69580594036256L250.81495833333332,135.9915398339429L251.056625,131.97123867213725L251.1774583333333,135.82986585479978L251.29829166666667,149.54793651158218L251.35870833333334,142.9308078028399L251.72120833333335,151.5377264183056L251.96287500000003,150.54423046592748L252.08370833333333,158.6624590888139L252.20454166666664,157.86468635602347L252.38579166666668,156.16907716573348L252.92954166666667,142.83044860595783L253.050375,145.51578950236538L253.11079166666667,144.84332222744916L253.35245833333335,147.4022069305334L253.65454166666666,139.01157885581713L253.775375,139.86220425900956L254.37954166666668,145.07783799927574L254.500375,142.04380661714418L254.62120833333333,125.43654829999312L255.406625,135.6338184557572L255.64829166666667,145.2991472685997L255.769125,151.21947640790538L256.37329166666666,148.24969812218546L256.67537500000003,151.31394861931864L257.0982916666667,141.68634233115694L257.27954166666666,152.62906697165548L257.400375,143.92171173921702L258.6087083333333,140.32932419071042L258.669125,149.35842326429324L258.72954166666665,142.23839474662196L258.850375,148.97267074866312L259.03162499999996,149.36210537994867L259.15245833333336,132.63127284361408L259.45575,140.0783769759938L259.6974166666667,137.00483023147007L260.12033333333335,144.46012750572035L260.18075,152.35546722205305L260.2411666666667,148.7746148293967L260.54325,158.02074623661505L260.60366666666664,140.2151138322272L260.8453333333333,140.06104355861896L261.50991666666664,136.08017873111413L261.87241666666665,147.4485449294539L262.1140833333333,146.79285167158523L262.23491666666666,139.6133117392686L262.4161666666667,141.28842162236654L262.537,149.52083158238258L262.8995,144.86054587287762L263.08074999999997,138.76311695552786L263.32241666666664,148.68262823813237L263.5640833333333,156.66164209959828L263.68491666666665,154.42371369158607L263.8661666666667,147.94273696170862L263.987,151.955027919491L264.2286666666667,126.21382804557084L264.3495,135.27560056401614L264.53075,126.02197484121717L264.8328333333333,144.79694613202213L265.0745,139.95285546894016L265.13491666666664,157.290529215679L265.25575,148.3151419533329L265.79949999999997,148.43199738183728L265.85991666666666,153.541914344785L266.5245,153.86051155357285L266.6453333333333,144.84810808071117L266.70575,148.36105540623853L267.1286666666667,138.22350212106286L267.2495,139.19426649859304L267.30991666666665,123.1326234401785L267.37033333333335,144.3823017853952L267.43075,158.18042163188628L267.67241666666666,159.99004720489793L267.79325,162.49028370034878L269.12241666666665,159.53137766495996L269.3036666666667,146.54217458717721L269.8474166666667,141.79239967153285L270.02866666666665,132.59362390841784L270.1495,128.88247741224095L270.3319583333333,152.79444207239663L270.392375,130.0292773887173L270.45279166666666,136.8939976407485L270.573625,152.2747549925267L271.05695833333334,145.9415449116832L271.35904166666666,149.5035450641575L271.78195833333336,153.7775467689116L273.473625,154.3517032282138L273.8965416666667,156.04537064482525L274.50070833333336,162.81915571287206L274.561125,170.4107993185369L274.8632083333333,156.24112166583083L275.34654166666667,167.92290708309275L275.4069583333333,163.18624536063035L275.467375,151.7338235135846L276.0715416666667,151.2210703538648L276.13195833333333,149.65934693356726L276.192375,149.96280757051818" style="fill: none;" fill="none"></path></g></g></g></g><g opacity="0.2"><g><g><g><path stroke="rgb(255, 112, 67)" stroke-width="2px" d="M28.637500000000003,-11.676088265010293L28.939583333333335,20.38956860133578L29.422916666666666,-10.756172997610918L29.845833333333335,-11.42942959921703L30.329166666666666,6.656073638371055L30.510416666666668,5.633032798767061L30.570833333333336,-23.156947272164473L30.99375,7.561438560485811L31.29583333333333,-25.910842623029453L31.77916666666667,-7.429600306919667L32.020833333333336,11.312790393829317L32.56458333333333,-31.928744179861894L33.229166666666664,-3.1866893087114647L33.53125,30.37316676548548L33.7125,33.123788288661416L34.25625,-6.101669107164668L34.31666666666666,23.55217708860124L34.860416666666666,-0.22645187377929688L34.861625,25.792414937700528L35.16370833333333,-19.622304643903476L35.28454166666667,-32.3748335157122L35.34495833333333,30.419818810054238L35.586625,13.632539817265098L36.06995833333333,29.580567019326338L36.55329166666667,31.762391294751836L36.613708333333335,36.19006136485507L36.674125000000004,39.24899864196777L36.915791666666664,29.782119614737383L37.580375,20.84966264452254L37.942875,36.3630589076451L38.24495833333333,35.89471966879708L38.426208333333335,63.32233272280011L39.15120833333334,64.41703401293073L39.513708333333334,49.88602856227328L39.81579166666667,38.82082441874911L39.99704166666667,45.10678577423096L40.238708333333335,10.722197941371377L40.480375,28.06105627332414L40.60120833333334,28.772840976715088L41.749125,52.57535675593785L42.05120833333333,35.57094417299544L42.111625,23.09281056267875L42.41370833333333,8.507029124668662L42.655375,41.08137212480818L42.71579166666666,36.622721944536465L42.836625,48.405197484152666L43.31995833333333,34.11700092043196L43.380375,48.43905735015869L43.742875000000005,35.43996075221469L43.80329166666667,56.20454631532941L43.863708333333335,55.770794459751656L44.044958333333334,53.71470941816057L44.58870833333333,49.05465820857455L45.07204166666667,42.81983525412423L45.9795,62.56047058105469L46.22116666666666,3.5255365371703817L46.583666666666666,49.738463810512L46.82533333333333,49.26500163759505L46.94616666666666,66.21942772184099L47.671166666666664,62.31053808757237L47.73158333333333,67.40124920436314L48.698249999999994,21.398150035313193L49.483666666666664,84.53785773685999L49.54408333333333,62.34069974081855L49.66491666666667,72.64604241507394L50.02741666666667,8.505270957946749L50.57116666666667,76.88092041015625L50.692,58.45193808419364L50.75241666666666,60.643917288099004L50.93366666666667,98.53638117653983L51.296166666666664,73.50645283290318L51.83991666666667,48.52011489868164L52.021166666666666,57.07126188278198L52.081583333333334,49.916887419564375L52.62533333333333,62.32239055633545L52.68575,53.79331159591675L53.592,84.40478270394462L53.712833333333336,77.1142109462193L53.83366666666667,65.41403579711914L54.6795,89.34071452277047L54.98158333333333,90.92733873639787L55.10241666666667,40.99825327736991L55.28366666666666,24.6854671069554L55.767,65.09156376974921L56.1295,54.99207816805158L56.25033333333334,47.48212964194161L56.372375,42.19056313378471L56.734874999999995,52.92656571524482L57.03695833333333,67.61177451269967L57.641125,76.95100457327706L57.76195833333333,41.84068795612879L58.003625,49.915523324693936L58.366125000000004,59.34093386786323L58.607791666666664,62.82719659805298L58.66820833333333,56.50752694266181L58.97029166666667,61.091886043548584L59.091125000000005,54.77973406655448L59.15154166666667,73.44491699763707L59.272375,65.50770364488874L59.393208333333334,60.50729560852051L59.453624999999995,56.04470470973423L59.75570833333334,57.61389882223945L59.816125,75.09765434265137L60.359875,73.72977031980241L60.722375,52.8882498059954L60.84320833333334,64.25019005366734L61.14529166666667,90.3117985044207L61.447375,56.19208758217948L61.56820833333333,60.12283304759434L62.29320833333333,74.96045671190534L62.716125,64.87740087509155L62.77654166666667,63.71776866912842L62.897375000000004,65.56560189383369L62.957791666666665,59.85616765703473L63.018208333333334,76.93699986594063L63.078625,56.31564426422119L63.19945833333333,82.21653202601841L63.38070833333333,34.09493289675032L63.622375000000005,96.18262032100132L63.924458333333334,73.63525370189122L64.10570833333333,88.93982219696045L64.347375,93.3233562197004L64.528625,50.70384890692573L64.709875,64.3358552115304L64.77029166666667,70.28776488985334L64.95154166666667,54.58406223569597L65.01195833333334,73.95727103097099L65.19320833333333,58.350206920078804L65.253625,61.3191442489624L65.55570833333333,66.29596860068183L65.616125,80.58583239146641L66.03904166666668,78.98553691591535L66.22029166666667,65.89522784096854L66.46195833333333,59.70969418116978L66.64320833333333,111.21203572409493L66.884875,62.76799488067627L67.06733333333334,93.26939868927L67.309,81.05353505270821L67.49025,125.42769275392804L67.55066666666666,96.20289986474174L67.61108333333333,74.25991821289062L68.034,98.13454914093016L68.3965,94.10358817236764L68.51733333333334,85.9774022102356L68.57775,76.45044238226754L68.81941666666667,71.17021301814488L69.06108333333333,84.96830545152936L69.24233333333333,91.99497032165526L69.30275,99.47463594164167L69.36316666666667,91.63484927586147L69.48400000000001,86.42297622135706L69.60483333333333,103.76841252190727L70.14858333333333,106.84177889142717L70.39025,92.6847173145839L70.45066666666666,99.52056046894619L70.51108333333333,88.83169494356427L70.63191666666667,103.9793622153146L70.69233333333334,90.20636912754604L71.05483333333333,93.15557255063737L71.29650000000001,127.13405418395996L71.35691666666666,84.42024244580949L71.47775,90.65127624784196L71.59858333333334,96.10868637902396L71.77983333333333,87.72186735698155L71.84025,93.07372685841152L71.90066666666667,114.87466076442172L71.96108333333333,89.44684110369L72.14233333333333,80.1301337650844L72.384,118.86557797023227L72.68608333333333,86.08149780545915L72.74650000000001,82.52851567949567L72.80691666666667,100.22510031291417L73.16941666666668,73.54810319628034L73.53191666666666,87.89156075886316L73.77358333333333,76.48660605294364L73.95483333333334,78.71911403111048L74.1965,82.42587511880058L74.43816666666666,71.31007821219308L74.559,80.04019444329398L74.86108333333333,72.56283262797764L76.31108333333333,99.36105230876377L76.43191666666667,86.52992125919886L76.49233333333333,82.37331199645996L76.734,76.66478715624127L76.85483333333333,95.31751135417393L77.09649999999999,98.27538435799735L77.21733333333333,98.13479164668492L77.64145833333333,92.17248453412736L78.00395833333333,100.24434920719692L78.245625,64.82032108306885L78.66854166666667,106.67384365626744L78.72895833333334,69.52147701808384L78.789375,80.96065534864152L78.84979166666666,83.55440596171788L79.151875,79.32419620241437L79.27270833333334,79.830336025783L79.45395833333333,88.1966026851109L79.51437499999999,75.3334002494812L79.63520833333332,72.24396787370954L80.11854166666667,56.51813656943183L80.17895833333333,82.26915577479771L80.36020833333333,94.92789554595946L80.783125,71.21001427514213L80.96437499999999,88.72168827056885L81.50812499999999,99.74906151635307L81.62895833333333,96.8337482724871L81.74979166666667,101.14149924686977L81.93104166666667,96.30641950879777L81.99145833333333,74.77166598183769L82.233125,78.41031326566423L82.53520833333333,90.39246198109218L82.59562500000001,76.92875467027936L82.83729166666666,82.42026717322213L82.89770833333334,96.63728829792568L82.958125,77.2333722114563L83.01854166666666,81.71954679489136L83.26020833333334,83.66835335322789L83.320625,84.69973032815116L83.501875,55.30172770363944L83.56229166666667,101.74630859919957L84.04562499999999,83.21808079310826L84.28729166666666,97.53458990369523L84.408125,92.83119079044887L84.52895833333334,93.1399006162371L84.58937499999999,62.88609518323625L85.01229166666667,108.27395725250244L85.07270833333334,112.21704019818986L85.133125,84.11410924366541L85.314375,114.00658110209872L85.79770833333333,90.15647356850761L85.91854166666666,87.87112964902605L86.16020833333333,78.58018854686192L86.220625,74.17107016699654L86.52270833333333,92.49974605015346L86.94562499999999,93.28437341962541L87.61020833333333,107.55735274723598L87.73104166666667,109.4482307434082L88.09354166666667,57.34841564723423L88.15395833333334,86.70025123868669L88.27479166666666,71.46503938947404L88.33641666666666,96.92368759427751L88.57808333333334,93.79308986663817L88.81975,137.71503496170044L88.94058333333332,89.43450362341744L89.24266666666668,96.25931276593889L89.30308333333333,89.14816495350429L89.36349999999999,98.18032210213798L89.84683333333334,118.64089638846261L90.20933333333333,105.08937168121338L90.45100000000001,81.80330221993583L90.51141666666666,110.47393914631435L90.57183333333334,107.08786160605294L91.11558333333333,99.83312007359096L91.23641666666667,110.5782469340733L91.41766666666666,112.58595207759312L91.78016666666667,50.65295301164899L92.2635,76.56493541172571L92.38433333333333,105.80088356563023L93.59266666666666,114.04826177869523L93.65308333333334,83.7827251298087L93.89474999999999,97.56432717187064L93.95516666666667,111.32946913582938L94.01558333333332,106.45916543688092L95.10308333333334,105.00667721884591L95.40516666666667,100.29615449905396L95.82808333333334,84.95924179894584L95.8885,75.69837141036987L96.25099999999999,80.23947354725428L96.37183333333333,101.502984387534L96.67391666666666,117.81637682233537L96.79475,81.03031512669153L96.91558333333333,81.5037166731698L97.15725,101.92382281167167L97.76141666666668,120.16698510306222L98.24475,86.59100239617484L98.30516666666668,96.9637313570295L98.36558333333333,98.98225831985472L98.48641666666667,109.32149117333549L98.96975,94.1383271217346L99.09179166666667,103.02285889216832L99.45429166666666,121.42298303331647L99.575125,105.8390782220023L99.69595833333334,123.44351066861833L99.756375,129.27956322261264L99.937625,127.93301970618111L100.05845833333333,120.76251861027309L100.23970833333333,90.55988189152309L100.72304166666667,104.33569410869053L101.14595833333333,131.11651400157382L101.50845833333334,92.235657283238L101.75012500000001,86.11808586120605L101.81054166666667,92.82473407472882L101.87095833333332,100.11791276931761L101.931375,94.07936791011265L102.293875,108.0153248650687L102.89804166666666,90.68061944416591L103.018875,94.91889251981462L103.20012500000001,108.91796159744263L103.26054166666667,92.34405735560826L103.44179166666666,105.47986657278878L103.80429166666667,115.48777593885148L103.925125,107.43970714296613L104.106375,126.19873980113438L104.287625,121.38694061551774L104.468875,115.38822732652936L104.52929166666667,107.99377216611589L105.61679166666667,126.34096942629132L106.28137500000001,104.54703787394932L106.52304166666666,124.90239497593471L107.368875,90.60862554822648L107.42929166666666,110.49946287700108L107.61054166666668,123.6472761290414L107.67095833333333,95.21696240561349L107.79179166666667,101.83667230606079L107.85220833333332,79.8869308062962L109.06054166666667,93.5171183177403L109.12095833333333,71.43472617013114L109.18137499999999,99.00911583219255L109.48345833333335,116.9505706514631L109.66470833333334,105.2744641985212L109.84716666666668,119.12424067088534L109.96799999999999,125.5684370313372L110.20966666666666,121.08486938476562L110.27008333333333,104.8937907900129L110.45133333333334,140.62825659343173L110.693,94.24824285507201L110.81383333333333,112.4022842815944L111.65966666666667,102.91012402943203L112.20341666666667,87.77285419191632L112.26383333333334,126.42533111572266L112.92841666666668,115.18564408166068L113.41175,107.08877100263322L113.47216666666667,109.69685976845878L113.65341666666667,120.07198347364152L113.77425,125.73916108267647L113.83466666666666,105.60242291859218L114.318,102.02397768838065L114.37841666666668,129.93087305341447L114.80133333333333,101.58279909406389L114.92216666666667,105.81376668385097L115.4055,98.24337359837124L115.70758333333335,74.50666781834192L115.768,119.70370817184448L115.94924999999999,127.6623226574489L116.37216666666666,96.10750416346959L117.09716666666667,117.67147963387626L117.39925,126.94211087908063L117.45966666666668,110.06565039498466L117.58049999999999,113.76113496507917L117.64091666666667,84.26276527132306L118.00341666666667,121.3844246183123L118.42633333333333,95.27974108287266L118.48675,101.57552392142159L119.03049999999999,84.83110782078333L119.27216666666666,108.10383946555001L119.393,110.36344746180943L119.63466666666666,75.4972128868103L120.17841666666666,120.80959503991264L120.542125,121.55490616389682L120.60254166666667,97.40236364092145L120.90462500000001,126.16342490059989L121.38795833333333,85.49617985316685L121.50879166666667,104.78830078669957L121.93170833333333,92.31171315056937L121.992125,117.17519160679409L122.23379166666668,94.8460498537336L122.535875,113.452607018607L122.717125,97.12433079310826L122.83795833333333,78.37548337663922L123.01920833333332,85.94163261141095L123.20045833333333,117.53285728182111L123.442125,111.58989000320435L123.92545833333332,111.29958030155727L124.40879166666667,82.12595612662179L124.529625,70.78799363545008L124.65045833333333,140.10732391902377L124.83170833333334,105.17661312648228L124.89212500000001,111.96052973611015L125.25462499999999,111.35775136947632L125.31504166666667,122.90044934409005L125.798375,63.9267783164978L125.979625,99.62956680570329L126.04004166666667,137.36564479555403L126.10045833333334,111.93015589032854L126.160875,101.67607286998204L126.28170833333333,140.06142970493863L126.46295833333333,86.25382845742362L126.88587500000001,103.26815346309117L126.94629166666667,100.23689215523856L127.36920833333333,122.32328564780099L127.429625,113.49449988773891L127.49004166666667,124.5922907420567L128.03379166666667,110.60219437735421L128.27545833333332,120.78355598449707L128.39629166666666,103.6003257206508L128.45670833333332,115.48626027788434L128.57754166666666,89.00047894886562L128.879625,117.3604963166373L128.94004166666667,135.91003431592668L129.06087499999998,119.92181178501674L129.12129166666668,105.30514117649624L129.18170833333332,129.29623549325126L129.48379166666666,119.70282908848354L130.329625,96.78433772495815L130.873375,117.43673406328473L131.17666666666665,116.84732382638114L131.59958333333333,119.27032007489885L131.66,111.2588393347604L132.20374999999999,132.52225923538208L132.62666666666667,111.17899431501115L133.11,101.52059636797223L133.17041666666665,123.81669671194894L133.35166666666666,95.74198736463273L133.77458333333334,121.38878972189767L133.89541666666668,119.61176817757743L134.13708333333335,120.64269045421054L134.74125,100.49813147953579L134.80166666666668,141.6726985658918L134.98291666666665,148.67884138652255L135.285,121.07823078972953L135.52666666666667,131.37584359305245L136.31208333333333,108.41503497532436L136.43291666666667,119.73129320144653L136.49333333333334,86.65211384637016L136.85583333333332,71.80739688873291L136.91625,119.81444236210415L136.97666666666666,123.26845182691301L137.0975,94.69505970818656L137.21833333333333,109.21102980204991L137.94333333333333,122.86270938600812L139.03083333333333,125.04510961260114L139.39333333333335,128.5780850137983L139.75583333333333,142.25428799220492L139.81625,106.8091618674142L140.17875,116.86811869485038L140.42041666666668,121.44968897955758L140.54125,108.37383931023734L140.66208333333333,116.61809526171002L141.02458333333334,86.37993144989014L141.20583333333335,95.43606635502407L141.32666666666668,106.63243579864502L141.50791666666666,126.04150513240269L141.68916666666667,141.63438265664237L141.81120833333333,113.90548651559013L142.35495833333331,148.10673999786377L142.47579166666665,102.2723035812378L143.20079166666667,81.63342693873814L143.26120833333334,111.43053340911865L143.321625,113.58489390781948L144.16745833333334,115.37889085497174L144.409125,150.2246640069144L144.65079166666666,118.19338233130318L144.89245833333334,119.80186237607683L144.952875,138.70260933467318L145.134125,123.75249331338065L145.25495833333332,105.69027062824794L145.3757916666667,130.53474269594466L145.859125,140.18677486692155L145.97995833333334,127.59784643990653L146.16120833333335,133.5185031890869L146.34245833333333,132.49934244155884L146.52370833333333,121.6311742237636L146.64454166666667,127.73340715680803L146.82579166666665,127.09616265978131L147.00704166666668,130.83523763929094L147.97370833333335,134.0206719807216L148.396625,87.95209625789097L148.69870833333331,118.46356405530656L148.75912499999998,130.02684470585416L148.81954166666668,127.11538124084473L148.940375,130.94169766562325L149.00079166666666,105.07333598818097L149.121625,124.10376289912632L149.24245833333333,110.87389176232475L149.484125,126.67462703159877L149.72579166666665,99.1417361668178L150.027875,96.56968981879098L150.14870833333333,116.8570543697902L150.57162499999998,112.22680105481828L150.69245833333335,115.48034920011247L150.752875,120.5160721370152L150.93412500000002,134.79511410849435L151.05495833333333,121.37011677878243L151.296625,91.31222568239484L151.477875,118.5706000328064L151.59870833333332,111.68264845439366L151.7195416666667,102.66780015400478L151.77995833333333,107.90662166050502L152.384125,125.47561795370919L152.44454166666665,121.51877280644008L152.627,112.48722192219326L152.80825,139.45028488976615L152.9895,125.21152918679374L153.04991666666666,132.88234996795654L153.23116666666667,128.83826337541853L153.29158333333334,128.60730695724487L153.41241666666664,113.75034345899309L153.71450000000002,101.20273194994245L153.77491666666668,141.7202296938215L154.1978333333333,126.55958836419242L154.25825,141.36941480636597L154.49991666666668,131.16462108067105L154.62075,111.26550824301583L154.74158333333335,105.11462259292603L154.98325,132.59407125200545L155.58741666666668,111.92615454537528L155.70825,120.25295339311872L155.82908333333336,108.77806609017509L155.8895,108.88840620858329L156.13116666666667,119.37089933667863L156.31241666666665,123.40758950369698L156.79575,135.87565912519182L157.03741666666667,164.24022347586495L157.21866666666668,133.6849227632795L157.88325,144.0352199418204L158.12491666666665,128.06394250052315L158.24575000000002,115.85035235541207L158.427,110.78934819357735L158.54783333333333,124.49710723331997L158.60825,107.70249244144985L158.7290833333333,118.84166084017072L158.84991666666667,110.86982979093278L158.91033333333334,105.08767414093018L159.03116666666668,100.76543344770158L159.152,103.0584466116769L159.21241666666666,127.7108541216169L159.45408333333333,108.85639544895717L159.5145,108.4912120955331L159.63533333333334,117.21017306191581L159.81658333333334,138.83198615482877L160.11866666666668,126.13902275902885L160.84366666666665,135.7477676527841L161.08533333333332,79.82903255735124L161.26658333333333,87.39600024904523L161.87075,125.62096984045846L162.23325,116.3296649796622L162.29366666666667,129.84711762837003L162.4145,71.15875462123326L162.59575,130.02972446169173L162.77700000000002,133.2718142100743L162.83741666666668,108.59248856135777L162.89783333333332,111.76143251146588L163.44279166666666,144.87632083892822L163.50320833333333,111.4487213407244L163.563625,133.67667756761824L163.68445833333334,120.49800545828683L164.40945833333333,110.06089121954781L164.469875,101.71041774749756L164.53029166666667,97.47059869766234L164.59070833333334,141.79255703517367L165.07404166666666,128.48902477536882L165.61779166666668,124.09439611434937L165.919875,139.76369326455253L166.644875,128.47789982386996L167.49070833333334,108.14985493251255L167.67195833333335,107.56347601754325L167.73237500000002,111.90784536089215L167.79279166666666,142.35883828571866L167.91362500000002,133.1483484676906L168.39695833333332,132.85658373151506L168.51779166666668,120.23582642418998L168.638625,148.84526096071517L168.75945833333336,109.25701495579311L169.363625,99.3508973802839L169.84695833333333,136.09627873556954L169.907375,130.41127695356096L170.20945833333332,126.0337449482509L170.57195833333336,115.7655359676906L171.05529166666665,133.01239367893766L171.4177916666667,143.99059888294767L171.47820833333333,128.68442378725325L171.59904166666666,121.73011657169887L171.719875,121.81011315754482L172.02195833333334,143.6059544427054L173.169875,113.06841727665493L173.29070833333336,153.07731982639856L173.532375,133.75594663619995L173.59279166666667,137.1099224771772L174.13774999999998,141.74923944473267L174.25858333333335,115.75186470576693L174.43983333333335,137.66626099177768L174.50025,157.76371322359358L174.56066666666666,157.54421520233154L175.16483333333332,118.08931704929897L175.22525000000002,107.79009764535087L175.4065,123.5683708190918L175.52733333333333,153.22003446306502L175.769,138.51730462483L175.88983333333334,116.44370331083024L176.07108333333335,117.20623234340121L176.19191666666666,139.59509113856723L176.31275000000002,149.17979764938354L176.43358333333333,136.8651432309832L176.97733333333332,111.30979585647583L177.219,133.3453540802002L177.46066666666667,122.10290854317802L177.58149999999998,131.2757796560015L177.76275,137.8578405380249L177.94400000000002,131.9697401864188L178.3065,119.7534521647862L178.36691666666667,148.94747713633944L178.6085833333333,135.69923618861606L178.78983333333335,96.30284254891532L178.97108333333335,120.46578250612531L179.09191666666666,131.5014009475708L179.63566666666665,134.0681424822126L179.81691666666669,124.36003085545131L179.87733333333333,132.32937622070312L179.93775,130.61019229888916L179.99816666666666,103.26166643415178L180.17941666666667,133.75537068503243L180.42108333333334,126.06202718189785L180.78358333333333,144.25232321875436L180.84400000000002,116.6237941469465L181.02525,134.38612815311978L181.50858333333332,109.63114070892334L181.81066666666666,109.78210054125104L181.99191666666667,101.17308562142509L182.17316666666667,103.3398745400565L182.23358333333334,120.74317877633231L182.35441666666665,131.0998114177159L182.53566666666666,116.06360585348946L182.59608333333333,136.71230397905623L182.7169166666667,135.4433926173619L183.07941666666667,123.4293543951852L183.26066666666668,121.51595367704118L183.44191666666666,127.5264891215733L183.50233333333335,102.7335192135402L183.74400000000003,133.15134947640556L184.1065,120.31558050428117L184.83270833333333,155.87465402058191L185.074375,144.81872572217668L185.1952083333333,139.24788352421353L185.49729166666668,120.13085174560547L185.799375,131.39178834642684L186.34312500000001,135.7519508770534L186.58479166666666,127.22417538506645L186.82645833333333,126.49735532488141L187.0077083333333,133.67270653588432L187.91395833333334,158.8037597792489L188.57854166666667,98.89480468205043L188.63895833333333,151.00589629581995L188.82020833333334,135.07617827824185L189.18270833333332,135.25348029817854L189.605625,154.96083171027047L189.66604166666667,117.60278987884521L189.7264583333333,116.88115337916781L189.786875,128.3113589968L189.84729166666668,143.40691784449984L189.90770833333332,135.5201153755188L190.39104166666667,129.93648099899292L191.780625,137.17633874075753L191.84104166666665,149.17061274392265L191.90145833333335,121.08596066066195L192.324375,137.93853432791573L192.98895833333333,157.57783256258284L193.10979166666667,120.71801880427768L193.35145833333334,141.41824940272738L193.83479166666666,122.72645146506173L193.89520833333333,151.50300277982439L194.07645833333333,114.78857122148786L194.19729166666667,138.35715988704135L194.2577083333333,127.79536737714494L194.37854166666668,122.44347756249564L195.46725,151.56611490249634L195.76933333333335,142.43704639162337L195.95058333333333,134.081965310233L196.13183333333333,131.3212797982352L196.67558333333332,137.3278442110334L196.736,134.0053334917341L197.0985,138.13320582253593L197.21933333333334,155.97908306121826L197.27974999999998,163.19496304648263L197.64225000000002,140.7390514101301L197.82350000000002,109.87810250691005L197.88391666666666,121.59188829149518L198.186,166.64236422947474L198.30683333333332,125.30859211512974L198.42766666666668,115.02416556222099L198.60891666666666,129.45383392061507L198.66933333333336,133.6640975815909L199.15266666666665,163.3867244720459L199.45475000000002,131.4632669176374L199.57558333333333,138.0850684302194L199.636,124.59289700644356L199.6964166666667,124.73633916037423L200.361,130.9845908709935L200.96516666666665,154.67825187955583L201.4485,124.34093352726528L202.47558333333333,110.94012614658901L202.77766666666668,153.8178414617266L202.89849999999998,125.87784406117031L202.95891666666668,147.3520014626639L203.14016666666666,110.07119771412441L203.74433333333334,129.1997788293021L204.10683333333333,108.85597106388637L204.3485,125.6823844228472L204.65058333333334,158.95544712884086L204.77141666666668,130.7250794001988L204.89225,137.509026323046L205.01308333333333,148.88560785566057L205.13391666666666,141.52058683122908L205.37558333333334,132.14249522345406L205.436,99.22561284473964L205.61725,133.39761407034737L205.73808333333332,120.96795129776001L205.97975,161.46735204969133L206.04137500000002,144.60995858056205L206.22262500000002,121.03606510162354L206.28304166666666,131.5434453827994L206.403875,139.2822587149484L206.7059583333333,125.41053547177995L206.82679166666668,162.08956118992396L206.88720833333332,144.44196271896362L206.947625,138.53903920309884L207.310125,152.74460193089075L207.43095833333334,126.71733835765293L208.15595833333333,152.9828941481454L208.3372083333333,122.3236494064331L208.45804166666667,162.2406119619097L208.57887499999998,137.74916764668058L208.69970833333335,107.26519393920898L208.82054166666666,153.13373272759574L209.36429166666665,130.49963998794556L209.60595833333332,120.49248845236642L209.72679166666668,139.23875924519132L209.90804166666666,155.48115812029158L210.39137499999998,158.4793780190604L210.63304166666666,130.10884196417672L210.87470833333333,103.20492008754185L211.2372083333333,112.82900347028459L211.660125,142.36775037220548L211.78095833333333,142.38739333833968L212.08304166666667,115.4736499786377L212.50595833333333,129.15821940558297L212.68720833333333,155.5624884877886L212.747625,147.0721801349095L213.04970833333334,136.47652775900704L213.11012499999998,148.02656153270175L213.17054166666668,126.02568163190568L213.291375,105.63616153172084L213.472625,135.4888321331569L213.77470833333334,107.57814761570522L213.95595833333334,133.75252124241422L214.016375,122.31585890906197L214.13720833333332,145.7623156138829L214.49970833333333,144.4266848564148L215.10387500000002,120.54004989351544L215.5267916666667,122.59598336900983L215.70804166666667,164.26104865755354L215.7684583333333,130.6763357434954L216.191375,146.51226466042655L216.25179166666666,131.712956905365L216.31220833333333,142.51240505490983L216.372625,132.85809939248222L216.67470833333334,107.17834656579154L216.79675,138.45391968318393L218.24675,154.20272840772355L218.428,143.83024195262362L218.54883333333333,140.2111770084926L218.85091666666665,153.2081516810826L219.03216666666665,155.50164985656738L219.09258333333332,135.7069660595485L219.21341666666666,145.53417832510812L219.27383333333333,110.73329905101231L219.69675,136.21256024496896L219.81758333333332,151.3334003176008L219.93841666666668,147.60872411727905L220.48216666666667,133.12233972549438L220.78425000000001,141.86985574449812L220.84466666666665,128.0075902257647L221.20716666666667,147.3981988089425L221.328,116.18695034299577L221.44883333333334,150.31014728546143L221.56966666666668,145.55997487476895L221.81133333333335,135.18697309494019L221.99258333333333,142.72317286900113L222.23425,151.6816688946315L222.778,150.06273078918457L222.83841666666666,142.27905389240811L222.89883333333333,107.70109803336007L223.26133333333334,150.29881014142717L223.74466666666666,135.3252316883632L223.98633333333333,156.1366208621434L224.10716666666667,139.18158851351058L224.1675833333333,164.47090707506453L224.228,124.90433502197266L224.46966666666668,157.31989737919397L224.77175,156.51029191698348L225.19466666666665,134.6689201763698L225.678,150.3342159816197L225.91966666666667,156.95268304007394L226.16133333333335,123.54857628686088L226.28216666666665,113.40919848850795L226.64466666666667,130.65842063086373L226.82591666666664,154.30358048847742L226.94675,150.09049769810267L227.06758333333332,139.86615194593156L227.18841666666668,126.67586987359184L227.36966666666666,154.78052868161882L227.43129166666665,143.28578622000558L227.61254166666666,139.63289172308785L227.85420833333333,131.88110433306014L228.33754166666668,151.51776531764438L228.639625,149.41390664236886L228.70004166666666,166.2894880431039L228.94170833333334,151.12266281672885L229.36462500000002,119.60952499934604L230.02920833333334,139.37668439320157L230.21045833333335,147.2910415785653L230.270875,138.06591047559465L230.45212500000002,146.60817568642753L230.75420833333334,130.72068398339408L231.11670833333332,125.44369813374111L231.177125,135.3187143462045L231.41879166666666,121.47199950899396L231.539625,130.99553394317627L231.902125,135.2734567097255L231.96254166666665,169.88278675079346L232.08337500000002,145.31910603387016L232.32504166666666,144.54754366193498L232.74795833333332,142.74681718008858L233.11045833333336,159.3628567968096L233.29170833333333,153.06925651005335L233.65420833333334,135.95392785753523L234.13754166666666,121.57370035988944L234.31879166666667,129.81134802954537L234.439625,135.02228137425016L234.50004166666668,141.18453448159354L234.802125,165.87647042955672L234.86254166666666,151.71092115129744L235.04379166666666,154.536386013031L235.164625,138.80494676317488L235.22504166666664,144.22716324669975L235.345875,115.0597835949489L235.64795833333332,124.9396196092878L236.25212499999998,134.36151381901334L236.61462500000002,127.82367992401123L236.73545833333333,143.5383256503514L236.795875,154.32758855819702L237.03754166666667,118.69251980100358L237.09795833333334,150.52512863704135L237.33962499999998,126.3530340875898L237.46045833333335,139.37468372072493L237.82295833333333,132.81575182506015L237.88337499999997,135.98793928963798L238.064625,137.06981808798653L238.2470833333333,134.68216705322266L238.97208333333333,132.3631148338318L239.27416666666664,174.93536383765084L239.3345833333333,152.3443764959063L239.45541666666668,157.99806472233362L239.99916666666667,147.67153310775757L240.05958333333334,148.90485674994332L240.42208333333335,133.78059128352572L240.48250000000002,145.37145696367537L241.32833333333335,142.88907711846488L241.57,132.28887775966098L241.69083333333333,137.89836931228638L241.81166666666667,147.26433563232422L241.99291666666664,144.5735524041312L242.17416666666665,156.5364522252764L242.71791666666667,138.1617911883763L243.08041666666668,139.36665071759904L243.20125,150.77199949537004L243.8658333333333,138.96554619925362L243.92625,156.641790662493L244.28875,150.2748020717076L244.71166666666667,132.56569807870048L246.16166666666666,152.46077925818307L246.22208333333333,155.70004987716675L246.34291666666667,136.42735971723283L246.52416666666664,130.8980769429888L246.645,146.44763687678744L247.91375000000002,142.80926241193498L248.095,114.61893844604492L248.33666666666664,132.5653646332877L248.3970833333333,141.07477031435286L248.4575,175.6897689274379L248.57833333333332,165.88307871137346L248.76079166666665,150.23078727722168L248.94204166666665,137.11665201187134L249.06287500000002,146.47467626844133L249.18370833333333,143.16935314450944L249.606625,152.21709128788538L249.84829166666668,167.1545363834926L250.02954166666666,159.0746387072972L250.331625,165.3110682623727L250.81495833333332,124.11828293119157L251.056625,130.24825245993478L251.1774583333333,137.48356321879794L251.29829166666667,155.42710965020316L251.35870833333334,140.09489549909318L251.72120833333335,155.22640582493372L251.96287500000003,150.11844648633684L252.08370833333333,162.14169992719377L252.20454166666664,157.5227837562561L252.38579166666668,155.442387512752L252.92954166666667,137.11389350891113L253.050375,146.66664988654L253.11079166666667,144.5551219667707L253.35245833333335,148.4988718032837L253.65454166666666,135.41559539522444L253.775375,140.22675800323486L254.37954166666668,147.31310960224695L254.500375,140.7435074533735L254.62120833333333,118.31915187835693L255.406625,140.00407709394182L255.64829166666667,149.44143104553223L255.769125,153.75676032475062L256.37329166666666,146.97693599973405L256.67537500000003,152.62719883237565L257.0982916666667,137.5602253505162L257.27954166666666,157.31880610329765L257.400375,140.1899880681719L258.6087083333333,138.78972952706474L258.669125,153.22803715297152L258.72954166666665,139.18695395333427L258.850375,151.85878903525216L259.03162499999996,149.5290059362139L259.15245833333336,125.46091604232788L259.45575,143.26999303272794L259.6974166666667,135.6875959123884L260.12033333333335,147.65525490897042L260.18075,155.73918424333846L260.2411666666667,147.2399638039725L260.54325,161.98337398256575L260.60366666666664,132.58412851606096L260.8453333333333,139.9950134413583L261.50991666666664,134.37409380504062L261.87241666666665,152.32070187159945L262.1140833333333,146.51184027535575L262.23491666666666,136.53636605398995L262.4161666666667,142.0063258579799L262.537,153.0490072795323L262.8995,142.86328056880404L263.08074999999997,136.14993313380648L263.32241666666664,152.93384735924857L263.5640833333333,160.08121946879794L263.68491666666665,153.46460151672363L263.8661666666667,145.16517550604684L263.987,153.67458118711198L264.2286666666667,115.18188524246216L264.3495,139.1592173576355L264.53075,122.0561352457319L264.8328333333333,152.84336239950997L265.0745,137.87681661333357L265.13491666666664,164.7209608214242L265.25575,144.46854741232735L265.79949999999997,148.4820782797677L265.85991666666666,155.7318787574768L266.5245,153.9970532144819L266.6453333333333,140.9856494494847L266.70575,149.86660426003593L267.1286666666667,133.8788364274161L267.2495,139.6103083746774L267.30991666666665,116.2490621294294L267.37033333333335,153.48930679048811L267.43075,164.09390156609672L267.67241666666666,160.7656010219029L267.79325,163.56181362697058L269.12241666666665,158.26327507836479L269.3036666666667,140.97537326812744L269.8474166666667,139.75678185054232L270.02866666666665,128.65129143851144L270.1495,127.29198605673653L270.3319583333333,163.0424269267491L270.392375,120.27277823856899L270.45279166666666,139.8360206059047L270.573625,158.86650814328874L271.05695833333334,143.2273120198931L271.35904166666666,151.03011655807495L271.78195833333336,155.6092617852347L273.473625,154.5977702822004L273.8965416666667,156.77122810908725L274.50070833333336,165.72220645632063L274.561125,173.66436086382186L274.8632083333333,150.16840267181396L275.34654166666667,172.92938654763358L275.4069583333333,161.15624747957503L275.467375,146.82564272199357L276.0715416666667,151.00131899969918L276.13195833333333,148.9900368962969L276.192375,150.09286212921143" style="fill: none;" fill="none"></path></g></g></g></g></g></g><g transform="translate(40, 178)" clip-path="url(#clip_1)"><clipPath id="clip_1"><rect width="290" height="22"></rect></clipPath><g><g><line x1="0" y1="0" x2="0" y2="5" style="visibility: inherit;" fill="rgb(0, 0, 0)" stroke="rgb(204, 204, 204)" stroke-width="1px"></line><line x1="24.166666666666664" y1="0" x2="24.166666666666664" y2="5" style="visibility: inherit;" fill="rgb(0, 0, 0)" stroke="rgb(204, 204, 204)" stroke-width="1px"></line><line x1="48.33333333333333" y1="0" x2="48.33333333333333" y2="5" style="visibility: inherit;" fill="rgb(0, 0, 0)" stroke="rgb(204, 204, 204)" stroke-width="1px"></line><line x1="72.5" y1="0" x2="72.5" y2="5" style="visibility: inherit;" fill="rgb(0, 0, 0)" stroke="rgb(204, 204, 204)" stroke-width="1px"></line><line x1="96.66666666666666" y1="0" x2="96.66666666666666" y2="5" style="visibility: inherit;" fill="rgb(0, 0, 0)" stroke="rgb(204, 204, 204)" stroke-width="1px"></line><line x1="120.83333333333334" y1="0" x2="120.83333333333334" y2="5" style="visibility: inherit;" fill="rgb(0, 0, 0)" stroke="rgb(204, 204, 204)" stroke-width="1px"></line><line x1="145" y1="0" x2="145" y2="5" style="visibility: inherit;" fill="rgb(0, 0, 0)" stroke="rgb(204, 204, 204)" stroke-width="1px"></line><line x1="169.16666666666669" y1="0" x2="169.16666666666669" y2="5" style="visibility: inherit;" fill="rgb(0, 0, 0)" stroke="rgb(204, 204, 204)" stroke-width="1px"></line><line x1="193.33333333333331" y1="0" x2="193.33333333333331" y2="5" style="visibility: inherit;" fill="rgb(0, 0, 0)" stroke="rgb(204, 204, 204)" stroke-width="1px"></line><line x1="217.5" y1="0" x2="217.5" y2="5" style="visibility: inherit;" fill="rgb(0, 0, 0)" stroke="rgb(204, 204, 204)" stroke-width="1px"></line><line x1="241.66666666666669" y1="0" x2="241.66666666666669" y2="5" style="visibility: inherit;" fill="rgb(0, 0, 0)" stroke="rgb(204, 204, 204)" stroke-width="1px"></line><line x1="265.8333333333333" y1="0" x2="265.8333333333333" y2="5" style="visibility: inherit;" fill="rgb(0, 0, 0)" stroke="rgb(204, 204, 204)" stroke-width="1px"></line><line x1="290" y1="0" x2="290" y2="5" style="visibility: inherit;" fill="rgb(0, 0, 0)" stroke="rgb(204, 204, 204)" stroke-width="1px"></line></g><g transform="translate(0, 8)"><text x="0" y="0" dx="0em" dy="0.95em" style="text-anchor: middle; visibility: hidden; font-family: &quot;Helvetica Neue&quot;, sans-serif; font-size: 12px; font-weight: 200;" fill="rgb(50, 49, 63)" stroke="none" stroke-width="1px">-20k</text><text x="24.166666666666664" y="0" dx="0em" dy="0.95em" style="text-anchor: middle; visibility: inherit; font-family: &quot;Helvetica Neue&quot;, sans-serif; font-size: 12px; font-weight: 200;" fill="rgb(50, 49, 63)" stroke="none" stroke-width="1px">0</text><text x="48.33333333333333" y="0" dx="0em" dy="0.95em" style="text-anchor: middle; visibility: hidden; font-family: &quot;Helvetica Neue&quot;, sans-serif; font-size: 12px; font-weight: 200;" fill="rgb(50, 49, 63)" stroke="none" stroke-width="1px">20k</text><text x="72.5" y="0" dx="0em" dy="0.95em" style="text-anchor: middle; visibility: inherit; font-family: &quot;Helvetica Neue&quot;, sans-serif; font-size: 12px; font-weight: 200;" fill="rgb(50, 49, 63)" stroke="none" stroke-width="1px">40k</text><text x="96.66666666666666" y="0" dx="0em" dy="0.95em" style="text-anchor: middle; visibility: hidden; font-family: &quot;Helvetica Neue&quot;, sans-serif; font-size: 12px; font-weight: 200;" fill="rgb(50, 49, 63)" stroke="none" stroke-width="1px">60k</text><text x="120.83333333333334" y="0" dx="0em" dy="0.95em" style="text-anchor: middle; visibility: inherit; font-family: &quot;Helvetica Neue&quot;, sans-serif; font-size: 12px; font-weight: 200;" fill="rgb(50, 49, 63)" stroke="none" stroke-width="1px">80k</text><text x="145" y="0" dx="0em" dy="0.95em" style="text-anchor: middle; visibility: hidden; font-family: &quot;Helvetica Neue&quot;, sans-serif; font-size: 12px; font-weight: 200;" fill="rgb(50, 49, 63)" stroke="none" stroke-width="1px">100k</text><text x="169.16666666666669" y="0" dx="0em" dy="0.95em" style="text-anchor: middle; visibility: inherit; font-family: &quot;Helvetica Neue&quot;, sans-serif; font-size: 12px; font-weight: 200;" fill="rgb(50, 49, 63)" stroke="none" stroke-width="1px">120k</text><text x="193.33333333333331" y="0" dx="0em" dy="0.95em" style="text-anchor: middle; visibility: hidden; font-family: &quot;Helvetica Neue&quot;, sans-serif; font-size: 12px; font-weight: 200;" fill="rgb(50, 49, 63)" stroke="none" stroke-width="1px">140k</text><text x="217.5" y="0" dx="0em" dy="0.95em" style="text-anchor: middle; visibility: inherit; font-family: &quot;Helvetica Neue&quot;, sans-serif; font-size: 12px; font-weight: 200;" fill="rgb(50, 49, 63)" stroke="none" stroke-width="1px">160k</text><text x="241.66666666666669" y="0" dx="0em" dy="0.95em" style="text-anchor: middle; visibility: hidden; font-family: &quot;Helvetica Neue&quot;, sans-serif; font-size: 12px; font-weight: 200;" fill="rgb(50, 49, 63)" stroke="none" stroke-width="1px">180k</text><text x="265.8333333333333" y="0" dx="0em" dy="0.95em" style="text-anchor: middle; visibility: inherit; font-family: &quot;Helvetica Neue&quot;, sans-serif; font-size: 12px; font-weight: 200;" fill="rgb(50, 49, 63)" stroke="none" stroke-width="1px">200k</text><text x="290" y="0" dx="0em" dy="0.95em" style="text-anchor: middle; visibility: hidden; font-family: &quot;Helvetica Neue&quot;, sans-serif; font-size: 12px; font-weight: 200;" fill="rgb(50, 49, 63)" stroke="none" stroke-width="1px">220k</text></g><line x1="0" y1="0" x2="290" y2="0" fill="rgb(0, 0, 0)" stroke="rgb(204, 204, 204)" stroke-width="1px"></line></g></g></g></g></svg>