<svg viewBox="0 0 330 200" xmlns="http://www.w3.org/2000/svg"><g><g><g><g><g><line x1="30" y1="178" x2="25" y2="178" style="visibility: inherit;" fill="rgb(0, 0, 0)" stroke="rgb(204, 204, 204)" stroke-width="1px"></line><line x1="30" y1="160.2" x2="25" y2="160.2" style="visibility: inherit;" fill="rgb(0, 0, 0)" stroke="rgb(204, 204, 204)" stroke-width="1px"></line><line x1="30" y1="142.4" x2="25" y2="142.4" style="visibility: inherit;" fill="rgb(0, 0, 0)" stroke="rgb(204, 204, 204)" stroke-width="1px"></line><line x1="30" y1="124.6" x2="25" y2="124.6" style="visibility: inherit;" fill="rgb(0, 0, 0)" stroke="rgb(204, 204, 204)" stroke-width="1px"></line><line x1="30" y1="106.8" x2="25" y2="106.8" style="visibility: inherit;" fill="rgb(0, 0, 0)" stroke="rgb(204, 204, 204)" stroke-width="1px"></line><line x1="30" y1="89" x2="25" y2="89" style="visibility: inherit;" fill="rgb(0, 0, 0)" stroke="rgb(204, 204, 204)" stroke-width="1px"></line><line x1="30" y1="71.2" x2="25" y2="71.2" style="visibility: inherit;" fill="rgb(0, 0, 0)" stroke="rgb(204, 204, 204)" stroke-width="1px"></line><line x1="30" y1="53.400000000000006" x2="25" y2="53.400000000000006" style="visibility: inherit;" fill="rgb(0, 0, 0)" stroke="rgb(204, 204, 204)" stroke-width="1px"></line><line x1="30" y1="35.599999999999994" x2="25" y2="35.599999999999994" style="visibility: inherit;" fill="rgb(0, 0, 0)" stroke="rgb(204, 204, 204)" stroke-width="1px"></line><line x1="30" y1="17.799999999999983" x2="25" y2="17.799999999999983" style="visibility: inherit;" fill="rgb(0, 0, 0)" stroke="rgb(204, 204, 204)" stroke-width="1px"></line><line x1="30" y1="0" x2="25" y2="0" style="visibility: inherit;" fill="rgb(0, 0, 0)" stroke="rgb(204, 204, 204)" stroke-width="1px"></line></g><g transform="translate(20, 0)"><text x="0" y="178" dx="0em" dy="0.3em" style="text-anchor: end; visibility: hidden; font-family: &quot;Helvetica Neue&quot;, sans-serif; font-size: 12px; font-weight: 200;" fill="rgb(50, 49, 63)" stroke="none" stroke-width="1px">66</text><text x="0" y="160.2" dx="0em" dy="0.3em" style="text-anchor: end; visibility: inherit; font-family: &quot;Helvetica Neue&quot;, sans-serif; font-size: 12px; font-weight: 200;" fill="rgb(50, 49, 63)" stroke="none" stroke-width="1px">68</text><text x="0" y="142.4" dx="0em" dy="0.3em" style="text-anchor: end; visibility: hidden; font-family: &quot;Helvetica Neue&quot;, sans-serif; font-size: 12px; font-weight: 200;" fill="rgb(50, 49, 63)" stroke="none" stroke-width="1px">70</text><text x="0" y="124.6" dx="0em" dy="0.3em" style="text-anchor: end; visibility: inherit; font-family: &quot;Helvetica Neue&quot;, sans-serif; font-size: 12px; font-weight: 200;" fill="rgb(50, 49, 63)" stroke="none" stroke-width="1px">72</text><text x="0" y="106.8" dx="0em" dy="0.3em" style="text-anchor: end; visibility: hidden; font-family: &quot;Helvetica Neue&quot;, sans-serif; font-size: 12px; font-weight: 200;" fill="rgb(50, 49, 63)" stroke="none" stroke-width="1px">74</text><text x="0" y="89" dx="0em" dy="0.3em" style="text-anchor: end; visibility: inherit; font-family: &quot;Helvetica Neue&quot;, sans-serif; font-size: 12px; font-weight: 200;" fill="rgb(50, 49, 63)" stroke="none" stroke-width="1px">76</text><text x="0" y="71.2" dx="0em" dy="0.3em" style="text-anchor: end; visibility: hidden; font-family: &quot;Helvetica Neue&quot;, sans-serif; font-size: 12px; font-weight: 200;" fill="rgb(50, 49, 63)" stroke="none" stroke-width="1px">78</text><text x="0" y="53.400000000000006" dx="0em" dy="0.3em" style="text-anchor: end; visibility: inherit; font-family: &quot;Helvetica Neue&quot;, sans-serif; font-size: 12px; font-weight: 200;" fill="rgb(50, 49, 63)" stroke="none" stroke-width="1px">80</text><text x="0" y="35.599999999999994" dx="0em" dy="0.3em" style="text-anchor: end; visibility: hidden; font-family: &quot;Helvetica Neue&quot;, sans-serif; font-size: 12px; font-weight: 200;" fill="rgb(50, 49, 63)" stroke="none" stroke-width="1px">82</text><text x="0" y="17.799999999999983" dx="0em" dy="0.3em" style="text-anchor: end; visibility: inherit; font-family: &quot;Helvetica Neue&quot;, sans-serif; font-size: 12px; font-weight: 200;" fill="rgb(50, 49, 63)" stroke="none" stroke-width="1px">84</text><text x="0" y="0" dx="0em" dy="0.3em" style="text-anchor: end; visibility: hidden; font-family: &quot;Helvetica Neue&quot;, sans-serif; font-size: 12px; font-weight: 200;" fill="rgb(50, 49, 63)" stroke="none" stroke-width="1px">86</text></g><line x1="30" y1="0" x2="30" y2="178" fill="rgb(0, 0, 0)" stroke="rgb(204, 204, 204)" stroke-width="1px"></line></g></g><g transform="translate(30, 0)" clip-path="url(#clip_0)"><clipPath id="clip_0"><rect width="300" height="178"></rect></clipPath><g><g><g><line x1="0" y1="0" x2="0" y2="178" fill="rgb(0, 0, 0)" stroke="rgb(60, 60, 60)" stroke-width="1px" opacity="0.25"></line><line x1="25" y1="0" x2="25" y2="178" fill="rgb(0, 0, 0)" stroke="rgb(60, 60, 60)" stroke-width="1px" opacity="0.25"></line><line x1="50" y1="0" x2="50" y2="178" fill="rgb(0, 0, 0)" stroke="rgb(60, 60, 60)" stroke-width="1px" opacity="0.25"></line><line x1="75" y1="0" x2="75" y2="178" fill="rgb(0, 0, 0)" stroke="rgb(60, 60, 60)" stroke-width="1px" opacity="0.25"></line><line x1="100" y1="0" x2="100" y2="178" fill="rgb(0, 0, 0)" stroke="rgb(60, 60, 60)" stroke-width="1px" opacity="0.25"></line><line x1="125" y1="0" x2="125" y2="178" fill="rgb(0, 0, 0)" stroke="rgb(60, 60, 60)" stroke-width="1px" opacity="0.25"></line><line x1="150" y1="0" x2="150" y2="178" fill="rgb(0, 0, 0)" stroke="rgb(60, 60, 60)" stroke-width="1px" opacity="0.25"></line><line x1="175" y1="0" x2="175" y2="178" fill="rgb(0, 0, 0)" stroke="rgb(60, 60, 60)" stroke-width="1px" opacity="0.25"></line><line x1="200" y1="0" x2="200" y2="178" fill="rgb(0, 0, 0)" stroke="rgb(60, 60, 60)" stroke-width="1px" opacity="0.25"></line><line x1="225" y1="0" x2="225" y2="178" fill="rgb(0, 0, 0)" stroke="rgb(60, 60, 60)" stroke-width="1px" opacity="0.25"></line><line x1="250" y1="0" x2="250" y2="178" fill="rgb(0, 0, 0)" stroke="rgb(60, 60, 60)" stroke-width="1px" opacity="0.25"></line><line x1="275" y1="0" x2="275" y2="178" fill="rgb(0, 0, 0)" stroke="rgb(60, 60, 60)" stroke-width="1px" opacity="0.25"></line><line x1="300" y1="0" x2="300" y2="178" fill="rgb(0, 0, 0)" stroke="rgb(60, 60, 60)" stroke-width="1px" opacity="0.25"></line></g><g><line x1="0" y1="178" x2="300" y2="178" fill="rgb(0, 0, 0)" stroke="rgb(60, 60, 60)" stroke-width="1px" opacity="0.25"></line><line x1="0" y1="160.2" x2="300" y2="160.2" fill="rgb(0, 0, 0)" stroke="rgb(60, 60, 60)" stroke-width="1px" opacity="0.25"></line><line x1="0" y1="142.4" x2="300" y2="142.4" fill="rgb(0, 0, 0)" stroke="rgb(60, 60, 60)" stroke-width="1px" opacity="0.25"></line><line x1="0" y1="124.6" x2="300" y2="124.6" fill="rgb(0, 0, 0)" stroke="rgb(60, 60, 60)" stroke-width="1px" opacity="0.25"></line><line x1="0" y1="106.8" x2="300" y2="106.8" fill="rgb(0, 0, 0)" stroke="rgb(60, 60, 60)" stroke-width="1px" opacity="0.25"></line><line x1="0" y1="89" x2="300" y2="89" fill="rgb(0, 0, 0)" stroke="rgb(60, 60, 60)" stroke-width="1px" opacity="0.25"></line><line x1="0" y1="71.2" x2="300" y2="71.2" fill="rgb(0, 0, 0)" stroke="rgb(60, 60, 60)" stroke-width="1px" opacity="0.25"></line><line x1="0" y1="53.400000000000006" x2="300" y2="53.400000000000006" fill="rgb(0, 0, 0)" stroke="rgb(60, 60, 60)" stroke-width="1px" opacity="0.25"></line><line x1="0" y1="35.599999999999994" x2="300" y2="35.599999999999994" fill="rgb(0, 0, 0)" stroke="rgb(60, 60, 60)" stroke-width="1px" opacity="0.25"></line><line x1="0" y1="17.799999999999983" x2="300" y2="17.799999999999983" fill="rgb(0, 0, 0)" stroke="rgb(60, 60, 60)" stroke-width="1px" opacity="0.25"></line><line x1="0" y1="0" x2="300" y2="0" fill="rgb(0, 0, 0)" stroke="rgb(60, 60, 60)" stroke-width="1px" opacity="0.25"></line></g></g></g><g><g><line x1="0" y1="765.4" x2="300" y2="765.4" fill="rgb(0, 0, 0)" stroke="rgb(153, 153, 153)" stroke-width="1.5px"></line></g></g><g><g><line x1="25" y1="0" x2="25" y2="178" fill="rgb(0, 0, 0)" stroke="rgb(153, 153, 153)" stroke-width="1.5px"></line></g></g><g><g><g><g><g><path stroke="rgb(255, 112, 67)" stroke-width="2px" d="M36.0625,210.29193757572943L36.06375,167.68182458936917L36.37625,154.66969065684006L36.50125,150.90279753213505L36.56375,149.73242319823922L36.81375,148.91422250390536L37.31375,148.25776063239718L37.81375,147.65452598940178L37.87625,147.35035491290935L37.93875,147.11532192797432L38.18875,146.7529709070056L38.87625,146.17698708203824L39.25125,145.60797245212612L39.56375,145.12384780558415L39.75125,144.73848315332077L40.501250000000006,143.88538077668474L40.876250000000006,143.2153113460426L41.18875,142.7619002275433L41.37625,142.37434216298962L41.626250000000006,142.0516470550248L41.87625,141.73467433806505L42.001250000000006,141.56134628640484L43.18875,140.38072123821635L43.50125,139.7740483721974L43.56375,139.51461830499423L43.87625,139.20745159257248L44.126250000000006,138.896943577137L44.18875,138.74760937929346L44.31375,138.60518018317282L44.81375,138.20373400185125L44.876250000000006,138.03087331334834L45.251250000000006,137.70186109983945L45.31375,137.56575043810614L45.37625,137.46550332967405L45.563750000000006,137.28594379980552L46.12625,136.86176092314483L46.62625,136.37859297420903L47.565,124.28374665446975L47.815,120.7035368533966L48.19,119.96513873851416L48.440000000000005,119.82052466903966L48.565,119.64419588337802L49.315,119.19655123022339L49.3775,119.10902846415988L50.3775,118.46277560162596L51.19,118.02886754682083L51.2525,117.89964575293797L51.377500000000005,117.78516212798104L51.752500000000005,117.59828965096754L52.315,117.33974530288302L52.440000000000005,117.17201544877511L52.5025,117.08509752403695L52.69,117.03373558655679L53.065,116.8493538455227L53.6275,116.5794362806099L53.815000000000005,116.50202584573087L53.877500000000005,116.48702560039888L54.44,116.33784077338139L54.5025,116.287761838948L55.44,115.911121337329L55.565,115.73662390730222L55.690000000000005,115.64539421564768L56.565,115.33079470207221L56.8775,115.1159234386979L57.0025,115.00435871190717L57.19,114.88115052433882L57.69,114.6353362919453L58.065,114.48017120008362L58.190000000000005,114.4338593281647L58.31625,107.94641626707734L58.69125,105.67754205236439L59.00375,104.66910512974744L59.628750000000004,104.09745280662445L59.75375,103.80584594940926L60.003750000000004,103.83163057010118L60.378750000000004,103.71721095752947L60.628750000000004,103.66254175100401L60.691250000000004,103.70474686978363L61.003750000000004,103.70248363124765L61.128750000000004,103.70142441066335L61.19125,103.69720909199789L61.31625,103.69827352166682L61.441250000000004,103.6666994637266L61.50375,103.61212020593938L61.816250000000004,103.51584660255331L61.87875,103.48358981145454L62.441250000000004,103.22218792060919L62.816250000000004,103.13511668807247L62.941250000000004,103.0552851437509L63.253750000000004,103.03019493338402L63.566250000000004,103.01387461160701L63.69125,103.00788529913153L64.44125,102.88730821669267L64.87875,102.76106360453426L64.94125,102.70698210626267L65.06625,102.67174520560931L65.12875,102.63574498197092L65.19125,102.62380416780907L65.25375,102.59845266696863L65.37875,102.50790539847925L65.56625,102.4206618722293L65.81625000000001,102.3725294332509L66.12875,102.2874584454538L66.31625,102.2027608948423L66.56625,102.13048593752005L66.75375,102.10766270325313L66.94125,102.07743041803155L67.00375,102.03703771915951L67.19125,101.97154245283285L67.25375000000001,101.93734934778836L67.44125,101.89728939906314L67.50375,101.8600323855149L67.81625,101.81097297249052L67.87875,101.78508533351962L68.31625,101.69746674690656L68.50375,101.62906859157685L68.75375,101.57812922310305L68.94125,101.53651516768778L69.19125,101.4687047181531L69.38000000000001,93.93934646183271L69.63,92.54265858332525L69.8175,92.65813975334234L69.88,92.67244078159355L69.9425,92.71741773557679L70.38,93.10303202233322L70.755,92.98096560645587L70.88000000000001,92.98764653923658L70.9425,92.98741685605806L71.19250000000001,92.83396500127553L71.4425,92.90362021022158L71.63,92.91752969709961L71.6925,92.90929691877346L71.755,92.9338247659397L71.88,92.81189845212077L72.005,92.67550518932273L72.5675,92.65478793985352L72.8175,92.50189170422172L72.88,92.46495868558303L72.9425,92.4454657703478L73.0675,92.3980756899667L73.13,92.37796480598915L73.505,92.30538796169421L73.75500000000001,92.38290743465089L73.8175,92.42764734636214L73.9425,92.38740667644281L74.06750000000001,92.28207840246907L74.255,92.2328934029429L74.3175,92.19841248499428L74.38,92.1904447660061L74.44250000000001,92.13358377770223L74.63,92.1634387044777L74.88,92.19155022706599L75.1925,92.22412949683077L75.25500000000001,92.23480636919085L75.3175,92.22203897191454L75.69250000000001,92.27272695646694L76.0675,92.214735414821L76.31750000000001,92.21064666814749L76.505,92.17324885579093L76.75500000000001,92.14929116979881L77.005,92.103033276843L77.13,92.10108622206658L77.4425,92.11580712882702L78.9425,92.12991975095278L79.0675,92.14784250243434L79.13,92.15649897570599L79.38,92.1682218942499L79.50500000000001,92.14588183621932L79.755,92.13471189278475L79.88,92.12874669771821L80.31875000000001,97.38860546988678L80.69375,87.5693591220452L80.94375000000001,84.3309360630296L81.38125000000001,83.90207203289816L81.44375,83.82222729224253L81.50625000000001,83.80725725322462L81.56875,83.89545194098211L81.88125,83.88935152467745L82.00625000000001,84.07127674036221L82.19375,84.36189388636646L82.25625,84.50511822999691L82.38125,84.59575925439944L82.88125000000001,84.65422704389798L82.94375,84.681653855357L83.13125,84.71787773314523L83.56875,84.68145142419164L83.75625,84.70474594361498L84.31875,84.71981459119002L84.44375,84.71036103385127L84.56875000000001,84.73395227377846L84.75625,84.78542371924291L84.81875,84.81008619170065L85.06875,84.80650524288623L85.38125,84.81603039977021L85.44375000000001,84.84365166448674L85.69375,84.88991541511744L85.75625000000001,84.91876684560452L85.81875,84.96397371212868L85.88125,84.99393401122165L86.13125,85.03685932629134L86.19375000000001,85.05881536624678L86.38125000000001,84.99567401356062L86.44375,84.99864345773032L86.94375,85.00276640768044L87.19375,85.0222552457905L87.31875,85.04459519861518L87.44375000000001,85.0217328228903L87.50625,85.02105315680362L87.94375,84.95525630043464L88.00625000000001,84.91436589159518L88.06875,84.90281173586233L88.25625,84.90181710779487L88.75625,84.90218415516563L88.88125,84.88622874813662L89.13125,84.88648042558849L89.19375,84.89249731981529L89.50625,84.87262819374739L89.94375,84.84247411181084L90.63125000000001,84.83166923549646L90.75625000000001,84.83565250404746L91.13125,84.81170351793784L91.19375000000001,84.80508919564022L91.31875,84.80186908962469L91.3825,79.2287813994949L91.6325,78.06315666716303L91.88250000000001,78.27148468935799L92.0075,78.51018098725177L92.32000000000001,78.12615648428591L92.38250000000001,78.0473579773903L92.445,77.87651452212343L92.94500000000001,77.6471148180628L93.32,77.63827919029188L93.57000000000001,77.82142768103772L93.6325,77.84813873827129L93.69500000000001,77.84422174233102L94.2575,78.1587959263858L94.3825,78.27674362105549L94.57,78.35210160804522L94.94500000000001,78.4248068129801L95.445,78.43944117414314L95.57,78.44140739496751L96.82,78.59538021104409L96.88250000000001,78.65725732808377L97.1325,78.65514442254621L97.19500000000001,78.66639333286743L97.2575,78.67185937559266L98.38250000000001,78.69222645281455L98.69500000000001,78.66458947515105L99.13250000000001,78.74237725453264L99.195,78.7760753742358L99.57,78.79778240536153L99.695,78.83637802605186L100.0075,78.83189119101876L100.1325,78.83487047315033L100.2575,78.82511728513362L100.50750000000001,78.81648759337709L101.13250000000001,78.87934904900919L101.6325,78.91470078709052L101.69500000000001,78.92811064506279L101.75750000000001,78.9308027308724L101.88250000000001,78.90941331987213L102.3825,78.92020276488256L102.50874999999999,77.0611700061005L102.88375,74.32239931115629L103.00875,73.08919606592991L103.13375,72.63662599202023L103.19625,72.63532053076037L103.38374999999999,72.42983207536594L103.50875,72.3457983774927L103.69624999999999,72.4248240316805L104.19625,72.47282013430888L104.63374999999999,72.46834910730927L105.00875,72.49229435926802L105.25875,72.65557015897664L105.32125,72.72361288118906L105.38374999999999,72.73190526023082L105.44625,72.69921993927534L105.82124999999999,72.66498334323288L106.44624999999999,72.7198775408117L106.57124999999999,72.74395078055407L106.75875,72.80450267801389L106.82125,72.86763269427331L107.00874999999999,72.79830639458571L107.38375,72.87138248234062L107.50874999999999,72.9316629289063L107.69625,72.99913190479495L107.88375,73.06148517690728L108.07124999999999,73.10362400461032L108.13375,73.14592507674942L109.25874999999999,73.22425588606194L109.94625,73.31087646674635L110.19624999999999,73.32840210018013L111.07124999999999,73.44274372880898L111.13374999999999,73.481514143423L111.32125,73.46809636338824L111.38374999999999,73.49007055635543L111.50875,73.52404074393294L111.57124999999999,73.51868912137331L112.82125,73.67136967586522L112.88375,73.73138564946368L112.94624999999999,73.75347811854516L113.25875,73.7869609465499L113.44625,73.82580965847669L113.635,68.60148275044824L113.75999999999999,68.09422389312772L114.01,68.16202029599006L114.07249999999999,68.383035638968L114.26,68.29134677262302L114.50999999999999,68.13032517436505L114.63499999999999,67.93243823529292L115.51,68.00273707056341L116.0725,68.11774822993377L116.135,68.13575827635323L116.8225,68.02242853271072L117.3225,68.05411762841685L117.38499999999999,68.10302766218226L117.5725,68.14816812531495L117.69749999999999,68.19170240597833L117.76,68.22819553624673L118.26,68.3928116119239L118.3225,68.44457299102353L118.75999999999999,68.53515305575436L118.88499999999999,68.5619943572781L119.385,68.68930234771085L119.6975,68.74921647030453L119.76,68.77859817778578L119.94749999999999,68.84844265829182L120.38499999999999,68.88337015405497L121.135,68.96576299934155L121.44749999999999,69.06348866542754L121.51,69.08824337697209L121.63499999999999,69.08469009988369L121.6975,69.0740228289153L122.07249999999999,69.0830381475027L122.50999999999999,69.12519357926064L122.5725,69.13090066411026L123.13499999999999,69.13746096461396L123.385,69.1764082722944L123.51,69.18091526428114L123.75999999999999,69.15327337384L124.32249999999999,69.19778788983763L124.69875,64.14974255591619L124.76125,62.21239697942136L125.07375,62.16306662800616L125.57375,62.76717033935397L125.69875,63.05482364819295L126.13625,63.03474497653799L126.19875,62.99554464774657L126.44875,63.222390811316146L126.76125,63.26411241551402L126.94875,63.390608541548815L127.07375,63.45550752889538L127.26125,63.44089740637369L127.44874999999999,63.54550324595999L127.69875,63.63187851285048L128.19875,63.813550599143326L128.69875000000002,63.914062356867106L128.82375,63.98832477090288L128.94875,64.00670594262343L129.13625000000002,64.01103201594135L129.19875,64.01480145658911L129.57375,64.09502408565842L129.63625,64.17218314427662L130.13625,64.30303639775072L130.32375,64.36776905836331L130.38625,64.40073522800711L130.44875,64.41390472672731L130.51125000000002,64.41343518144595L130.63625,64.43938890709495L130.82375000000002,64.4662825382173L131.26125000000002,64.55843319286171L131.32375,64.57086842831752L131.76125,64.62037147515059L131.82375,64.6462496108802L131.88625000000002,64.63633147200919L132.44875,64.67594392097297L132.69875,64.7148253363261L132.82375,64.74597752338313L132.88625,64.75674911333822L133.01125,64.77804241893807L133.32375,64.83438562607203L133.38625000000002,64.85846578852971L133.51125,64.88983565025522L133.57375,64.90960839466162L133.63625,64.93379217110854L133.94875,65.00996743954065L134.82375,65.12997364555854L135.38625,65.24254815445863L135.7,63.22097947319301L136.1375,60.781708575844576L136.20000000000002,59.87786462353469L136.7625,59.60404969467764L137.2,59.341762241167004L137.70000000000002,59.451584458482984L137.7625,59.581161906758894L137.95,59.82437146021137L138.3875,59.8820768341816L138.5125,59.893494586509334L138.76250000000002,59.996164907324925L139.38750000000002,60.15168768325712L139.45,60.22329835819981L139.6375,60.21959006287993L139.95000000000002,60.2920557603191L140.2,60.27757675006835L141.01250000000002,60.52695420788183L141.1375,60.61231935562631L141.20000000000002,60.64928883952477L141.575,60.78324765039261L141.63750000000002,60.819109961011364L141.7,60.85453730959246L141.825,60.88569896143241L141.95000000000002,60.9174346182393L142.70000000000002,60.99254827182435L143.825,61.21138592624945L144.20000000000002,61.36073953886125L144.575,61.4537421863654L144.63750000000002,61.46952254299464L145.0125,61.511616116536146L145.26250000000002,61.52410159521476L145.3875,61.553561579028354L145.5125,61.57699163044677L145.88750000000002,61.63274005200023L146.075,61.66605294211381L146.2,61.69287282843494L146.3875,61.71432257240751L146.575,61.728124820428306L146.70125000000002,60.88887316085024L147.26375,56.78940532594069L147.38875,55.60685844775777L148.13875,55.70768024550905L148.20125000000002,55.650992351851L148.26375,55.687173315906946L149.13875000000002,55.960351900167666L149.38875,56.14696901914698L149.63875,56.156421180597675L149.88875000000002,56.28473900676728L149.95125,56.33454676306535L150.13875000000002,56.38741893004266L150.26375,56.354133393856586L150.38875000000002,56.3821726353445L150.88875,56.55009887312298L151.01375000000002,56.560788252635206L151.20125000000002,56.59579339107381L151.38875000000002,56.606722712756664L151.57625,56.691089613509604L151.70125,56.750099253437625L151.88875,56.7609101318662L152.07625000000002,56.807786970834286L153.07625000000002,57.13726658746609L153.51375000000002,57.3494246814401L153.82625,57.43745557826014L153.88875,57.4840655766763L153.95125000000002,57.50318193801756L154.07625,57.51709220042383L154.13875000000002,57.56233217367699L154.26375,57.62809334411973L154.38875000000002,57.70424114410508L154.63875000000002,57.756792439056696L154.88875,57.837295223782476L155.20125000000002,57.90256048485938L155.32625,57.92442155732306L155.76375,57.99215244070771L155.88875000000002,58.03210206155809L155.95125,58.037622714414766L156.13875000000002,58.066942026726835L156.26375,58.10530218199264L156.51375000000002,58.174513017879036L156.70125000000002,58.21048622958244L156.82625,58.246612284279976L156.95125000000002,58.278031079082794L157.01375,58.28084989074152L157.63875000000002,58.325329109678535L157.70125,58.36448227782547L157.89,51.86569951122851L158.0775,50.04881912155716L158.265,50.661137969743635L158.3275,50.74064539177765L158.515,51.19717347593186L158.57750000000001,51.21625470391244L158.7025,51.24198967716502L159.01500000000001,51.56721810371104L159.07750000000001,51.678855845542046L159.515,52.32107832348689L159.5775,52.55942248081078L159.8275,52.8639233171192L159.9525,52.87822560963767L160.07750000000001,52.93670178323305L160.32750000000001,52.96184961578048L160.95250000000001,53.28946858102327L161.0775,53.44612249569373L161.20250000000001,53.52510711919153L161.265,53.5810286109773L161.515,53.64333987906966L161.7025,53.747684352026624L162.20250000000001,53.9997697831471L162.45250000000001,54.16427862171176L162.64000000000001,54.24281538582994L163.32750000000001,54.3223205526386L163.5775,54.33243560670962L163.70250000000001,54.394218597052L163.89000000000001,54.459856841933046L164.015,54.48762860714537L164.0775,54.50651204710948L164.2025,54.55909030236529L164.32750000000001,54.57776317774572L164.39000000000001,54.59173051887552L164.515,54.610370184105136L164.64,54.61748307976765L164.7025,54.629170705180314L164.95250000000001,54.65696539917623L165.01500000000001,54.67837486755563L165.14,54.67833347467099L165.3275,54.69909215971096L165.64000000000001,54.76416330159982L166.39,54.937685498658695L166.64,54.981471741516515L166.8275,55.041378244256734L167.4525,55.12346968665591L167.8275,55.17438183312085L167.89,55.22064577247046L168.01500000000001,55.25971645207804L168.20250000000001,55.2644505801547L168.39000000000001,55.2847406763658L168.45250000000001,55.301712333525074L168.515,55.31811623912003L169.07874999999999,49.96670707327414L169.14124999999999,48.336663199252854L169.20375,47.34771763348189L169.32874999999999,47.25365916211496L170.07875,48.343041031715615L170.14124999999999,48.73297693048639L170.20374999999999,48.89245052848682L170.26625,49.01981218491326L170.76624999999999,49.16534596870645L171.32875,49.49561880526045L171.64124999999999,49.76738124399512L172.39125,49.97367918643101L173.26625,50.35469256208164L173.45375,50.45930022467924L173.51625,50.53521919032865L173.57874999999999,50.57800548488193L173.70375,50.62953171138264L174.20374999999999,50.7876304942498L174.32875,50.85887322420271L174.45374999999999,50.866414484961055L174.57875,50.906321516508854L175.20375,51.13812509264805L175.70374999999999,51.354157101769104L175.76625,51.44087855448099L176.07874999999999,51.55644363531407L176.45375,51.64273196449565L176.95374999999999,51.80755195018857L177.32875,52.01646488010056L177.39124999999999,52.087789424357396L177.51625,52.089271245031824L177.64124999999999,52.12517401266979L177.95375,52.22891572919161L179.14124999999999,52.39650011243434L179.26625,52.44164206559073L179.51624999999999,52.51597696415966L179.57874999999999,52.52249709925775L180.14249999999998,47.01507257032907L180.2675,45.464751949931696L180.455,45.79865402431059L180.51749999999998,45.80366732850911L180.57999999999998,45.63039936237121L181.20499999999998,45.882285473384314L181.2675,45.97443967033573L181.455,46.18351224472866L181.57999999999998,46.22137523713931L181.82999999999998,46.43098646945731L181.955,46.461833858928L182.1425,46.552366304529045L182.26749999999998,46.56431607727191L182.3925,46.641526726257865L182.5175,46.782424524835335L183.07999999999998,46.946658738676206L183.32999999999998,47.05876515395158L183.58,47.19083404447656L183.70499999999998,47.26985801668775L183.8925,47.35730445090482L184.08,47.43739114911432L184.455,47.558618315193286L184.5175,47.65677693132568L184.76749999999998,47.786230009329444L184.955,47.89612496898533L185.1425,47.95224111618401L185.26749999999998,48.04869059962576L185.82999999999998,48.17349572969246L186.0175,48.26873512027498L186.07999999999998,48.30733600544289L186.1425,48.30931498315141L186.205,48.301353073436644L186.3925,48.31926029214827L186.6425,48.37834263232227L187.0175,48.47031095620068L187.08,48.490629190790855L187.2675,48.575531271275366L187.76749999999998,48.747017520420684L188.08,48.922994950340126L188.2675,48.99817534057084L188.45499999999998,49.0779569356674L188.5175,49.10293709901086L188.64249999999998,49.14569924493762L188.82999999999998,49.20781766837885L188.89249999999998,49.23529398520614L189.0175,49.2509042050834L189.3925,49.358111913990854L189.58,49.43162630796189L189.7675,49.49194318413663L189.83,49.51845125663266L190.08,49.592804664099276L190.455,49.69505804351701L191.20625,43.439742388641065L191.45625,41.69979968497614L191.58124999999998,41.917543817846365L191.89375,42.07650337972902L192.20624999999998,42.48381176220974L192.76875,43.003982411109234L193.01874999999998,43.35529147931422L193.26874999999998,43.492149806465164L193.45624999999998,43.74087080253531L194.39375,44.11108318595106L195.08125,44.58780386813888L195.14375,44.731770695353845L195.33125,44.80718684825467L195.70625,44.96137785623418L196.14375,45.207551082700434L196.20625,45.31011185190968L196.26874999999998,45.38289759976243L196.33125,45.426645174093835L196.39375,45.46234673215983L196.45624999999998,45.509133325678334L196.95625,45.628118034202544L198.39374999999998,46.06008046030968L198.45625,46.239196623444485L198.51875,46.29492777975807L198.95625,46.41664338824876L199.64374999999998,46.612672536128L199.76875,46.67656711118022L200.01875,46.74022461943815L200.51874999999998,46.831569186368654L200.58125,46.8537441323754L200.76874999999998,46.899562265591584L200.89375,46.94320478502425L200.95624999999998,46.95320801753863L201.08125,47.00383517747841L202.20749999999998,43.36649379970356L202.52,41.615464268451234L202.7075,41.03620757887535L202.895,40.96319656321339L203.45749999999998,40.9194289396672L203.52,41.01067700953695L203.89499999999998,41.41934613874983L204.02,41.62194176581929L204.08249999999998,41.69061062117643L204.4575,42.05025081330615L204.645,42.138940295261364L204.70749999999998,42.20186092158633L205.02,42.224824786485755L205.14499999999998,42.33209968814299L205.27,42.37440628888925L205.4575,42.436768297799546L205.52,42.520594545736316L206.01999999999998,42.70045624152854L206.3325,42.80793480031508L206.45749999999998,42.84364814028993L206.52,42.86819370050978L206.5825,42.89010189372232L207.26999999999998,43.072064213746586L207.89499999999998,43.23193435811808L208.395,43.40148002667377L209.4575,43.69128270734299L209.77,43.832836777534936L209.895,43.91347049432011L209.9575,43.93010316001491L210.145,43.97782344373206L210.77,44.121281603432124L211.14499999999998,44.23133794172301L211.395,44.290449432443666L211.7075,44.353812762472415L211.8325,44.39454348694488L211.95749999999998,44.44564316693308L212.0825,44.47836946375185L212.20749999999998,44.52526163258267L212.4575,44.58182211160104L212.52,44.5971741969569L212.7075,44.61390026018569L212.83249999999998,44.672057880179864L213.0825,44.74563942826305L213.14625,38.55587078355714L213.33375,37.515287312337705L213.39624999999998,37.304828884741426L213.52125,37.42107383326919L213.83374999999998,37.12936093782261L213.95875,36.79882041208421L214.02124999999998,36.83212750790261L214.08375,36.98599636089136L214.45874999999998,37.59967868426844L214.58375,37.927327387629276L215.33374999999998,38.40430249485331L215.52124999999998,38.63784676347069L215.64625,38.72435581431955L215.77124999999998,38.884346310335985L215.89625,39.08548875333037L216.02125,39.32754298830389L216.58374999999998,39.72655551428906L216.83374999999998,39.95249134300744L216.95875,40.084724301095605L217.14625,40.18376056730628L217.64624999999998,40.2926583063003L217.89624999999998,40.41615961347222L218.14625,40.44988282666873L218.52124999999998,40.539899616677445L218.95874999999998,40.718861669671185L219.08375,40.817990043870054L219.39624999999998,40.90528875205271L219.83374999999998,41.097599656621725L220.02124999999998,41.17810786939867L220.08375,41.22631108396416L220.39625,41.33060588012091L220.45874999999998,41.36284494152659L220.52125,41.38359141275589L220.64624999999998,41.43487486340197L220.83374999999998,41.48633602469448L221.14625,41.61299721243776L221.33375,41.675711755284084L221.39625,41.70431753049155L221.52124999999998,41.762521760612344L221.89624999999998,41.852610593125206L222.52125,42.07570314558899L222.95875,42.221675177075184L223.14625,42.30334909548097L223.20874999999998,42.342300733893325L223.64624999999998,42.408837147047876L223.70875,42.434264150706156L223.77125,42.451018228366166L223.83374999999998,42.4636969632609L224.14625,42.53927258690314L224.2725,37.9195800091033L225.7725,37.33956250981112L225.96,37.22639710377348L226.085,37.21668835720635L226.3975,37.47700311971073L226.58499999999998,37.62896092126488L226.6475,37.66832168397224L226.77249999999998,37.70342016547005L226.835,37.742610980061016L227.2725,37.862929320629576L227.39749999999998,37.95031090983633L227.5225,37.95684749963547L228.08499999999998,38.11708713258116L228.3975,38.24016314233782L228.45999999999998,38.312021324293255L228.835,38.39460874714155L228.96,38.475519236081L229.085,38.532161080882844L229.21,38.58318592192106L229.46,38.62539599264082L229.6475,38.68563767291431L229.8975,38.757610476068635L230.46,38.87778187634112L230.5225,38.92913831961627L230.58499999999998,38.961941645421064L230.96,39.09398517306968L231.45999999999998,39.29929174332719L231.70999999999998,39.41830131694354L231.835,39.49754270221206L231.89749999999998,39.53671520324187L231.96,39.57765106609958L232.21,39.65956492737391L232.52249999999998,39.72620413397388L232.95999999999998,39.86749533443043L233.46,40.0078918803585L233.71,40.08537400331653L233.96,40.13651941229867L234.085,40.176674283772655L234.45999999999998,40.261966213354555L234.64749999999998,40.312602696648014L234.7725,40.36914572293489L234.89749999999998,40.40122352950263L235.0225,40.43532540235665L235.21,40.48025368760159L235.27375,35.24648577424921L235.46124999999998,32.723926658788486L235.71125,32.929046360063325L236.21125,33.329146494688956L236.52374999999998,33.79648648685884L236.58625,33.930889686902475L236.83625,33.9528636315346L237.27375,34.34583635386474L237.96125,34.71355177896217L238.14875,34.9297657595188L238.21124999999998,35.05884450751873L238.39875,35.099326783652174L238.71125,35.28491255230759L239.08624999999998,35.55409810956448L239.14875,35.675778077888936L239.39875,35.79959675039311L239.52374999999998,35.88432101120196L239.89875,36.01701604518195L239.96125,36.06851721284659L240.08625,36.123228274815915L240.33624999999998,36.15722811074076L240.77374999999998,36.36097481444796L241.14875,36.51430921374356L241.33625,36.63013276046104L241.71125,36.79117003138546L242.21125,36.934543468522065L242.39875,37.06677142678711L242.52375,37.14113753765531L242.58625,37.15684054413356L242.89874999999998,37.21554680740516L242.96125,37.214051172958875L243.14874999999998,37.24397487337205L243.27375,37.282468813940284L243.33624999999998,37.2907848794116L243.46125,37.34052564021508L243.77374999999998,37.41200991069255L244.39874999999998,37.59990920184549L244.77375,37.72714790093451L244.89875,37.81094939347372L244.96125,37.860045529712096L245.21125,37.95533963242437L245.27374999999998,37.99590570747637L245.52375,38.071672179161965L245.64875,38.10614230926615L246.02375,38.20028072683746L246.08624999999998,38.24130812552207L246.27375,38.3199697997172L246.46249999999998,32.98752315121894L247.2125,31.832870638603083L247.52499999999998,31.738675049613192L247.5875,31.748156088492436L247.7125,31.955099063486216L248.275,32.390063654592836L248.3375,32.575356422427745L248.7125,32.71958980636708L248.775,32.741375751724576L249.65,33.19494179351068L249.89999999999998,33.426073861905735L250.025,33.50121228003172L250.15,33.586304769825006L250.33749999999998,33.6875971346829L250.52499999999998,33.87597831337851L251.0875,34.18198355749013L251.4625,34.31504214976661L251.58749999999998,34.40890755764974L252.275,34.650244288779334L252.3375,34.768702971082035L252.7125,34.83632408712543L253.15,34.90827675799801L254.65,35.35326984685747L254.7125,35.489286923295566L254.8375,35.557755162682014L255.02499999999998,35.59445621799409L255.15,35.61720672318634L256.46250000000003,35.98588635167275L256.65000000000003,36.14192999851946L256.9,36.22172969535663L256.9625,36.262923403846344L257.025,36.28849516995763L257.15,36.30353402462018L257.33875,21.17660616685879L257.52625,25.541535850912112L257.65125,26.56834713833024L257.77625,27.259111166645596L258.21375,28.131443448260285L258.46375,28.69781766277407L258.65125,29.23628629309502L258.96375,29.662622795887557L259.46375,30.029557789083697L259.71375,30.368358074640184L259.83875,30.491339636747597L259.96375,30.620634618075087L260.02625,30.692362184128626L260.40125,30.81383841598074L260.65125,30.87637587476985L260.77625,31.02090447690847L260.90125,31.085129222711316L261.08875,31.146033914518483L261.65125,31.336082818398637L261.77625,31.46120959588586L261.83875,31.51172362705674L262.08875,31.68211450022642L262.40125,31.867507198578636L262.52625,31.945369575955425L263.15125,32.18627826170271L263.27625,32.29738379894536L263.40125,32.38827565604112L264.21375,32.61507888821862L264.46375,32.79058773812099L264.58875,32.88502025454187L265.21375,33.13237344696796L265.52625,33.27283779702995L265.96375,33.43860556579358L266.15125,33.49427728741384L266.27625,33.54800555255724L267.52625,33.87906528576235L267.58875,33.99140673477655L267.65125,34.05381797075046L267.77625,34.11009093260705L267.96375,34.1507383851289L268.08875,34.19544391238932L268.4025,52.50444227100691L268.65250000000003,33.631069543484784L269.09000000000003,29.053480408943955L269.1525,27.654822046267185L269.215,27.177284092517993L269.52750000000003,27.319969972018157L269.59,27.54039956094138L269.84,27.744986613277604L270.5275,28.294174694920798L270.9025,28.747254941435187L271.1525,29.066506575814344L271.27750000000003,29.25068996407734L271.46500000000003,29.363362583095324L271.59,29.48210249441098L271.965,29.72553055911436L272.1525,29.941152362314455L272.4025,30.103943151321374L272.6525,30.19413246932217L272.7775,30.22974486774973L272.96500000000003,30.351603895505576L273.09,30.429513685131212L273.34000000000003,30.53292904145252L273.465,30.578260517855682L273.6525,30.634495382529565L273.965,30.692860516614388L274.21500000000003,30.791648285599564L274.2775,30.850421197716003L274.40250000000003,30.90146745428558L274.965,31.104434224322773L275.0275,31.14878342281449L275.71500000000003,31.36067323485227L275.84,31.458177403805337L275.90250000000003,31.511526936351544L276.34000000000003,31.68390920700412L276.465,31.773363603776062L276.52750000000003,31.79934436250491L276.59000000000003,31.82667388370274L276.6525,31.862535856517127L276.9025,31.87904571484097L277.02750000000003,31.920740234227765L278.4025,32.18868087153791L278.59,32.30209719664205L279.15250000000003,32.45851474859225L279.34000000000003,32.544320476823856L279.465,32.59872346543489L279.65375,26.74499759382971L279.71625,25.430253886303262L279.77875,25.800606622434003L279.90375,25.76370051090018L280.40375,25.192379272532804L280.71625,24.72871399538292L281.15375,24.522500459601247L282.90375,25.138572876527917L283.34125,25.29135862138122L283.96625,25.366806237537475L284.02875,25.42247465629535L284.34125,25.577395701942436L284.84125,25.78329141871265L284.90375,25.863882460403943L284.96625,25.900180210533335L285.59125,26.02823376591877L285.65375,26.06783811073271L285.71625,26.117791847648647" style="fill: none;" fill="none"></path></g></g></g></g><g opacity="0.2"><g><g><g><path stroke="rgb(255, 112, 67)" stroke-width="2px" d="M36.0625,209.2797939300537L36.06375,149.42034759521485L36.37625,149.0930618286133L36.50125,149.2884147644043L36.56375,149.23083419799804L36.81375,148.56356506347657L37.31375,147.97641983032227L37.81375,147.39599685668946L37.87625,147.21999588012696L37.93875,147.01459350585938L38.18875,146.5976776123047L38.87625,145.93013687133788L39.25125,145.36410903930664L39.56375,144.91636581420897L39.75125,144.5733268737793L40.501250000000006,143.5197654724121L40.876250000000006,142.92813873291016L41.18875,142.5675811767578L41.37625,142.20824584960937L41.626250000000006,141.91334915161133L41.87625,141.59882888793945L42.001250000000006,141.48706283569337L43.18875,139.87473907470704L43.50125,139.51404571533203L43.56375,139.4034339904785L43.87625,139.0758087158203L44.126250000000006,138.7638687133789L44.18875,138.68360900878906L44.31375,138.54413909912108L44.81375,138.03168563842775L44.876250000000006,137.9567901611328L45.251250000000006,137.56085586547852L45.31375,137.50741729736328L45.37625,137.42254028320312L45.563750000000006,137.20898971557617L46.12625,136.67996826171876L46.62625,136.17152099609376L47.565,119.1002410888672L47.815,119.16916122436524L48.19,119.64868240356445L48.440000000000005,119.75854721069337L48.565,119.5686264038086L49.315,119.00470352172852L49.3775,119.07151870727539L50.3775,118.18581008911133L51.19,117.8429069519043L51.2525,117.84426498413086L51.377500000000005,117.73609771728516L51.752500000000005,117.5182014465332L52.315,117.22894058227538L52.440000000000005,117.10013122558594L52.5025,117.04784698486328L52.69,117.01172332763672L53.065,116.77033309936523L53.6275,116.46375732421875L53.815000000000005,116.46884994506836L53.877500000000005,116.48059692382813L54.44,116.2739044189453L54.5025,116.26629943847657L55.44,115.74970397949218L55.565,115.66183929443359L55.690000000000005,115.60629577636719L56.565,115.19596633911132L56.8775,115.02383575439453L57.0025,114.95654525756837L57.19,114.82834701538086L57.69,114.52998733520508L58.065,114.413671875L58.190000000000005,114.41401138305665L58.31625,105.16608352661133L58.69125,104.70516738891602L59.00375,104.23691787719726L59.628750000000004,103.85245895385742L59.75375,103.68087158203126L60.003750000000004,103.84268112182617L60.378750000000004,103.6681739807129L60.628750000000004,103.63911209106446L60.691250000000004,103.72283477783203L61.003750000000004,103.70151367187499L61.128750000000004,103.70097045898437L61.19125,103.69540252685546L61.31625,103.69872970581055L61.441250000000004,103.65316772460938L61.50375,103.58872909545899L61.816250000000004,103.4745864868164L61.87875,103.4697654724121L62.441250000000004,103.11015853881837L62.816250000000004,103.09780044555664L62.941250000000004,103.02107162475586L63.253750000000004,103.01944198608398L63.566250000000004,103.00688018798827L63.69125,103.00531845092773L64.44125,102.83563232421875L64.87875,102.70695877075195L64.94125,102.68380432128906L65.06625,102.65664367675781L65.12875,102.62031631469726L65.19125,102.61868667602539L65.25375,102.5875877380371L65.37875,102.46909942626952L65.56625,102.38327178955079L65.81625000000001,102.35190124511719L66.12875,102.2509994506836L66.31625,102.16646194458008L66.56625,102.09951095581054L66.75375,102.09788131713867L66.94125,102.06447372436524L67.00375,102.0197265625L67.19125,101.94347305297852L67.25375000000001,101.92269515991211L67.44125,101.88012084960938L67.50375,101.84406509399413L67.81625,101.78994750976562L67.87875,101.77399063110352L68.31625,101.65991592407227L68.50375,101.59975509643554L68.75375,101.55629806518554L68.94125,101.51868057250977L69.19125,101.43964309692383L69.38000000000001,90.71247863769531L69.63,91.94407806396485L69.8175,92.70763168334962L69.88,92.67856979370117L69.9425,92.73669357299805L70.38,93.26829528808594L70.755,92.92865142822266L70.88000000000001,92.99050979614258L70.9425,92.98731842041015L71.19250000000001,92.7681999206543L71.4425,92.93347244262695L71.63,92.92349090576171L71.6925,92.90576858520508L71.755,92.94433670043945L71.88,92.75964431762695L72.005,92.61705093383789L72.5675,92.64590911865234L72.8175,92.43636474609376L72.88,92.44913024902344L72.9425,92.43711166381836L73.0675,92.37776565551758L73.13,92.3693458557129L73.505,92.27428359985352L73.75500000000001,92.41613006591797L73.8175,92.44682159423827L73.9425,92.37016067504884L74.06750000000001,92.23693771362305L74.255,92.21181411743164L74.3175,92.18363494873047L74.38,92.18703002929688L74.44250000000001,92.10921478271484L74.63,92.1762336730957L74.88,92.20359802246094L75.1925,92.23809204101563L75.25500000000001,92.23938217163085L75.3175,92.21656723022461L75.69250000000001,92.29445037841798L76.0675,92.18988189697266L76.31750000000001,92.20889434814454L76.505,92.15722122192382L76.75500000000001,92.13902359008789L77.005,92.08320846557616L77.13,92.10025177001954L77.4425,92.12211608886719L78.9425,92.13596801757812L79.0675,92.15552368164062L79.13,92.16020889282227L79.38,92.17324600219727L79.50500000000001,92.13630752563476L79.755,92.12992477416992L79.88,92.12619018554688L80.31875000000001,99.64283065795898L80.69375,83.36111068725586L80.94375000000001,82.94304046630859L81.38125000000001,83.7182731628418L81.44375,83.78800811767579L81.50625000000001,83.8008415222168L81.56875,83.93324966430664L81.88125,83.88673706054688L82.00625000000001,84.14924468994141L82.19375,84.48644409179687L82.25625,84.56650009155274L82.38125,84.63460540771484L82.88125000000001,84.67928466796874L82.94375,84.693408203125L83.13125,84.73340225219727L83.56875,84.66584014892578L83.75625,84.71472930908203L84.31875,84.72627258300781L84.44375,84.70630950927735L84.56875000000001,84.74406280517579L84.75625,84.80748291015625L84.81875,84.8206558227539L85.06875,84.8049705505371L85.38125,84.82011260986329L85.44375000000001,84.85548934936523L85.69375,84.90974273681641L85.75625000000001,84.93113174438477L85.81875,84.9833480834961L85.88125,85.0067741394043L86.13125,85.05525588989258L86.19375000000001,85.06822509765625L86.38125000000001,84.96861343383789L86.44375,84.99991607666016L86.94375,85.00453338623046L87.19375,85.03060760498047L87.31875,85.05416946411133L87.44375000000001,85.01193466186524L87.50625,85.0207618713379L87.94375,84.92705764770508L88.00625000000001,84.89684143066407L88.06875,84.89785995483399L88.25625,84.90139083862304L88.75625,84.90234146118163L88.88125,84.87939071655273L89.13125,84.88658828735352L89.19375,84.89507598876953L89.50625,84.8641128540039L89.94375,84.8295509338379L90.63125000000001,84.82703857421875L90.75625000000001,84.83735961914063L91.13125,84.80143966674805L91.19375000000001,84.80225448608398L91.31875,84.80048904418945L91.3825,76.84031524658204L91.6325,77.56360321044922L91.88250000000001,78.3607681274414L92.0075,78.61247940063477L92.32000000000001,77.96157455444336L92.38250000000001,78.0135871887207L92.445,77.8032958984375L92.94500000000001,77.54880065917969L93.32,77.63449249267578L93.57000000000001,77.89991989135743L93.6325,77.85958633422851L93.69500000000001,77.84254302978516L94.2575,78.29361343383789L94.3825,78.32729263305664L94.57,78.3843978881836L94.94500000000001,78.45596618652344L95.445,78.44571304321289L95.57,78.44225006103515L96.82,78.66136856079102L96.88250000000001,78.6837760925293L97.1325,78.65423889160157L97.19500000000001,78.6712142944336L97.2575,78.67420196533203L98.38250000000001,78.70095520019531L98.69500000000001,78.65274505615234L99.13250000000001,78.77571487426758L99.195,78.7905174255371L99.57,78.80708541870118L99.695,78.85291900634766L100.0075,78.82996826171875L100.1325,78.83614730834961L100.2575,78.82093734741211L100.50750000000001,78.81278915405274L101.13250000000001,78.90628967285156L101.6325,78.92985153198242L101.69500000000001,78.93385772705078L101.75750000000001,78.9319564819336L101.88250000000001,78.90024642944336L102.3825,78.92482681274414L102.50874999999999,76.2644416809082L102.88375,73.14864044189453L103.00875,72.5606803894043L103.13375,72.44266738891602L103.19625,72.63476104736328L103.38374999999999,72.34176559448242L103.50875,72.30978393554688L103.69624999999999,72.45869216918945L104.19625,72.49338989257812L104.63374999999999,72.46643295288087L105.00875,72.50255661010742L105.25875,72.72554550170898L105.32125,72.75277404785156L105.38374999999999,72.73545913696289L105.44625,72.68521194458008L105.82124999999999,72.65031051635742L106.44624999999999,72.74340362548828L106.57124999999999,72.75426788330078L106.75875,72.83045349121093L106.82125,72.89468841552734L107.00874999999999,72.76859512329102L107.38375,72.90270080566407L107.50874999999999,72.95749740600586L107.69625,73.02804718017578L107.88375,73.0882080078125L108.07124999999999,73.12168350219727L108.13375,73.16405410766602L109.25874999999999,73.25782623291016L109.94625,73.3479995727539L110.19624999999999,73.3359130859375L111.07124999999999,73.49174728393555L111.13374999999999,73.4981300354004L111.32125,73.46234588623047L111.38374999999999,73.49948806762696L111.50875,73.53859939575196L111.57124999999999,73.51639556884766L112.82125,73.73680419921875L112.88375,73.75710678100586L112.94624999999999,73.76294631958008L113.25875,73.80131072998047L113.44625,73.84245910644532L113.635,66.36248550415038L113.75999999999999,67.87682723999023L114.01,68.19107589721679L114.07249999999999,68.47775650024414L114.26,68.25205154418946L114.50999999999999,68.06131591796876L114.63499999999999,67.84762954711914L115.51,68.03286514282226L116.0725,68.16703872680664L116.135,68.14347686767579L116.8225,67.97385864257812L117.3225,68.0676986694336L117.38499999999999,68.12398910522461L117.5725,68.16751403808594L117.69749999999999,68.21035995483399L117.76,68.24383544921875L118.26,68.46336135864257L118.3225,68.46675643920898L118.75999999999999,68.5739730834961L118.88499999999999,68.5734977722168L119.385,68.74386291503906L119.6975,68.77489395141602L119.76,68.79119033813477L119.94749999999999,68.87837600708008L120.38499999999999,68.89833908081054L121.135,69.00107421875L121.44749999999999,69.10537109375L121.51,69.0988525390625L121.63499999999999,69.0831672668457L121.6975,69.06945114135742L122.07249999999999,69.08690185546875L122.50999999999999,69.1432601928711L122.5725,69.13334655761719L123.13499999999999,69.14027252197266L123.385,69.19309997558594L123.51,69.18284683227539L123.75999999999999,69.14142684936523L124.32249999999999,69.21686553955078L124.69875,61.98629455566406L124.76125,61.38210601806641L125.07375,62.14192504882813L125.57375,63.026071929931646L125.69875,63.178103637695315L126.13625,63.02613983154296L126.19875,62.97874450683594L126.44875,63.319610595703125L126.76125,63.28199310302735L126.94875,63.444821166992185L127.07375,63.48332138061524L127.26125,63.434635925292966L127.44874999999999,63.590334320068365L127.69875,63.668896484375L128.19875,63.89141006469727L128.69875000000002,63.95713882446289L128.82375,64.0201515197754L128.94875,64.01458358764648L129.13625000000002,64.01288604736328L129.19875,64.01641693115235L129.57375,64.12940521240235L129.63625,64.20525131225585L130.13625,64.35911636352539L130.32375,64.39551162719727L130.38625,64.41486358642578L130.44875,64.41954879760742L130.51125000000002,64.41323394775391L130.63625,64.45051193237305L130.82375000000002,64.47780838012696L131.26125000000002,64.59792633056641L131.32375,64.57619781494141L131.76125,64.64158706665039L131.82375,64.65734024047852L131.88625000000002,64.63208084106445L132.44875,64.69292068481445L132.69875,64.73148880004882L132.82375,64.75932846069335L132.88625,64.7613655090332L133.01125,64.78716812133788L133.32375,64.85853271484375L133.38625000000002,64.8687858581543L133.51125,64.90327987670898L133.57375,64.91808242797852L133.63625,64.94415664672852L133.94875,65.0426139831543L134.82375,65.18140487670898L135.38625,65.2907943725586L135.7,62.35459289550781L136.1375,59.73630676269531L136.20000000000002,59.490502929687494L136.7625,59.48670043945313L137.2,59.22935333251954L137.70000000000002,59.49865112304687L137.7625,59.636695098876956L137.95,59.92860412597656L138.3875,59.90680770874023L138.5125,59.89838790893555L138.76250000000002,60.040166473388666L139.38750000000002,60.21834030151368L139.45,60.25398864746094L139.6375,60.21800079345704L139.95000000000002,60.32311248779297L140.2,60.27137145996093L141.01250000000002,60.63383026123047L141.1375,60.64890441894531L141.20000000000002,60.66513290405274L141.575,60.84065856933594L141.63750000000002,60.83447952270508L141.7,60.869720458984375L141.825,60.89905395507813L141.95000000000002,60.931035614013666L142.70000000000002,61.02473983764648L143.825,61.305173492431635L144.20000000000002,61.424748229980466L144.575,61.49360046386718L144.63750000000002,61.47628555297851L145.0125,61.52965621948242L145.26250000000002,61.52945251464844L145.3875,61.56618728637696L145.5125,61.587033081054685L145.88750000000002,61.65663223266601L146.075,61.680329895019526L146.2,61.70436706542969L146.3875,61.723515319824216L146.575,61.734040069580075L146.70125000000002,60.52919387817383L147.26375,55.03249053955078L147.38875,55.10005264282226L148.13875,55.75088958740234L148.20125000000002,55.6266975402832L148.26375,55.70267944335937L149.13875000000002,56.07742843627929L149.38875,56.22694778442383L149.63875,56.1604721069336L149.88875000000002,56.33973236083985L149.95125,56.355892944335935L150.13875000000002,56.41007843017579L150.26375,56.339868164062494L150.38875000000002,56.394189453124994L150.88875,56.622067260742185L151.01375000000002,56.5653694152832L151.20125000000002,56.61079559326171L151.38875000000002,56.61140670776368L151.57625,56.72724685668945L151.70125,56.7753890991211L151.88875,56.76554336547852L152.07625000000002,56.827877044677734L153.07625000000002,57.278472137451175L153.51375000000002,57.44034957885742L153.82625,57.475183105468744L153.88875,57.5040412902832L153.95125000000002,57.51137466430664L154.07625,57.52305374145507L154.13875000000002,57.581720733642584L154.26375,57.65627670288086L154.38875000000002,57.73687591552735L154.63875000000002,57.77931442260743L154.88875,57.871796417236325L155.20125000000002,57.93053131103515L155.32625,57.93379058837891L155.76375,58.0211799621582L155.88875000000002,58.049223327636724L155.95125,58.0399887084961L156.13875000000002,58.07950744628906L156.26375,58.121742248535156L156.51375000000002,58.2041748046875L156.70125000000002,58.2259033203125L156.82625,58.262094879150396L156.95125000000002,58.29149627685547L157.01375,58.28205795288086L157.63875000000002,58.344391632080075L157.70125,58.381262207031256L157.89,49.08050689697265L158.0775,49.270156097412126L158.265,50.923560333251956L158.3275,50.7747200012207L158.515,51.39282836914063L158.57750000000001,51.22443237304688L158.7025,51.25301895141601L159.01500000000001,51.706601715087885L159.07750000000001,51.72670059204101L159.515,52.596316528320315L159.5775,52.661569976806646L159.8275,52.99442367553711L159.9525,52.88435516357421L160.07750000000001,52.961763000488276L160.32750000000001,52.972627258300776L160.95250000000001,53.42987670898438L161.0775,53.51325988769531L161.20250000000001,53.558957672119135L161.265,53.60499496459961L161.515,53.67004470825195L161.7025,53.79240341186524L162.20250000000001,54.10780639648438L162.45250000000001,54.23478240966797L162.64000000000001,54.27647399902344L163.32750000000001,54.356394195556646L163.5775,54.33677062988281L163.70250000000001,54.42069702148437L163.89000000000001,54.48798751831055L164.015,54.49953079223633L164.0775,54.51460494995118L164.2025,54.58162384033203L164.32750000000001,54.58576583862305L164.39000000000001,54.5977165222168L164.515,54.61835861206055L164.64,54.62053146362305L164.7025,54.634179687499994L164.95250000000001,54.66887741088867L165.01500000000001,54.6875503540039L165.14,54.678315734863276L165.3275,54.70798873901367L165.64000000000001,54.792050933837885L166.39,55.01205215454101L166.64,55.00023727416992L166.8275,55.06705245971679L167.4525,55.15865173339844L167.8275,55.19620132446289L167.89,55.240473175048834L168.01500000000001,55.27646102905274L168.20250000000001,55.2664794921875L168.39000000000001,55.29343643188477L168.45250000000001,55.30898590087891L168.515,55.325146484375L169.07874999999999,47.67324600219726L169.14124999999999,47.6380729675293L169.20375,46.923883819580084L169.32874999999999,47.213348388671875L170.07875,48.80991897583007L170.14124999999999,48.900092315673845L170.20374999999999,48.96079635620117L170.26625,49.07439575195312L170.76624999999999,49.22771759033205L171.32875,49.63716430664064L171.64124999999999,49.883850860595686L172.39125,50.06209259033203L173.26625,50.51798400878906L173.45375,50.50413208007812L173.51625,50.56775588989258L173.57874999999999,50.596342468261724L173.70375,50.651614379882815L174.20374999999999,50.85538711547852L174.32875,50.8894058227539L174.45374999999999,50.86964645385743L174.57875,50.923424530029294L175.20375,51.23746948242187L175.70374999999999,51.44674224853516L175.76625,51.47804489135743L176.07874999999999,51.60597152709961L176.45375,51.67971267700196L176.95374999999999,51.87818908691406L177.32875,52.10599899291992L177.39124999999999,52.118357086181646L177.51625,52.08990631103515L177.64124999999999,52.140560913085935L177.95375,52.27337646484375L179.14124999999999,52.4683219909668L179.26625,52.460988616943354L179.51624999999999,52.54783477783204L179.57874999999999,52.525291442871094L180.14249999999998,44.65474777221678L180.2675,44.80032882690429L180.455,45.94175491333007L180.51749999999998,45.80581588745119L180.57999999999998,45.55614166259764L181.20499999999998,45.990236663818365L181.2675,46.01393432617189L181.455,46.27311477661132L181.57999999999998,46.23760223388672L181.82999999999998,46.520819854736345L181.955,46.47505416870118L182.1425,46.59116592407227L182.26749999999998,46.56943740844727L182.3925,46.67461700439455L182.5175,46.84280929565429L183.07999999999998,47.01704483032225L183.32999999999998,47.106810760498064L183.58,47.2474349975586L183.70499999999998,47.303725433349626L183.8925,47.39478149414063L184.08,47.47171401977539L184.455,47.610572814941406L184.5175,47.69884490966797L184.76749999999998,47.84170989990233L184.955,47.943222808837874L185.1425,47.976290893554705L185.26749999999998,48.090026092529314L185.82999999999998,48.22698364257812L186.0175,48.30955200195311L186.07999999999998,48.32387924194336L186.1425,48.31016311645507L186.205,48.29794082641601L186.3925,48.326934814453125L186.6425,48.403663635253906L187.0175,48.50972595214844L187.08,48.49933700561522L187.2675,48.61191787719727L187.76749999999998,48.82051162719725L188.08,48.998413848876936L188.2675,49.0303955078125L188.45499999999998,49.112149047851545L188.5175,49.1136428833008L188.64249999999998,49.164025878906244L188.82999999999998,49.234439849853516L188.89249999999998,49.247069549560564L189.0175,49.25759429931642L189.3925,49.404058074951166L189.58,49.463132476806635L189.7675,49.517793273925776L189.83,49.52981185913086L190.08,49.624670410156256L190.455,49.73888092041014L191.20625,40.75889282226561L191.45625,40.95410995483397L191.58124999999998,42.0108627319336L191.89375,42.144628906250006L192.20624999999998,42.65837249755859L192.76875,43.226912689209L193.01874999999998,43.505852508544905L193.26874999999998,43.55080337524416L193.45624999999998,43.84746551513672L194.39375,44.26974563598631L195.08125,44.7921127319336L195.14375,44.79347076416016L195.33125,44.839508056640625L195.70625,45.02745971679687L196.14375,45.31305389404295L196.20625,45.35406646728515L196.26874999999998,45.414091491699224L196.33125,45.44539413452148L196.39375,45.47764739990234L196.45624999999998,45.529184722900396L196.95625,45.67911148071289L198.39374999999998,46.245207214355474L198.45625,46.31596069335936L198.51875,46.31881256103517L198.95625,46.468807220458984L199.64374999999998,46.69668502807619L199.76875,46.703950500488276L200.01875,46.76750640869139L200.51874999999998,46.87071685791014L200.58125,46.863247680664045L200.76874999999998,46.91919860839843L200.89375,46.961908721923834L200.95624999999998,46.957495117187506L201.08125,47.025532531738264L202.20749999999998,41.8076332092285L202.52,40.86502304077149L202.7075,40.78795471191407L202.895,40.93190612792969L203.45749999999998,40.900671386718756L203.52,41.04978332519531L203.89499999999998,41.59449005126953L204.02,41.70876846313476L204.08249999999998,41.72004013061522L204.4575,42.204382324218756L204.645,42.17695007324218L204.70749999999998,42.22882690429688L205.02,42.23466644287109L205.14499999999998,42.378074645996094L205.27,42.39253768920898L205.4575,42.46349487304687L205.52,42.5565200805664L206.01999999999998,42.77753982543945L206.3325,42.853997039794905L206.45749999999998,42.85895385742188L206.52,42.878713226318354L206.5825,42.89949111938475L207.26999999999998,43.15004806518553L207.89499999999998,43.30045013427733L208.395,43.47414245605469L209.4575,43.815483856201155L209.77,43.89350280761718L209.895,43.94802780151369L209.9575,43.937231445312506L210.145,43.9982749938965L210.77,44.182763671874994L211.14499999999998,44.27850494384765L211.395,44.3157829284668L211.7075,44.3809684753418L211.8325,44.41199951171873L211.95749999999998,44.46754302978516L212.0825,44.492395019531244L212.20749999999998,44.54535827636718L212.4575,44.60606231689454L212.52,44.60375366210937L212.7075,44.62106857299804L212.83249999999998,44.69698257446291L213.0825,44.77717437744141L213.14625,35.903112792968756L213.33375,37.0693229675293L213.39624999999998,37.21463241577149L213.52125,37.470893096923845L213.83374999999998,37.00434112548828L213.95875,36.657160186767584L214.02124999999998,36.846401977539045L214.08375,37.051940155029314L214.45874999999998,37.862685394287126L214.58375,38.067748260498064L215.33374999999998,38.60872039794921L215.52124999999998,38.73793716430666L215.64625,38.76143112182618L215.77124999999998,38.95291366577149L215.89625,39.171692657470686L216.02125,39.43128051757813L216.58374999999998,39.89756088256834L216.83374999999998,40.0493209838867L216.95875,40.141395568847656L217.14625,40.22620468139647L217.64624999999998,40.33932876586914L217.89624999999998,40.469088745117205L218.14625,40.464335632324236L218.52124999999998,40.5784782409668L218.95874999999998,40.795559692382795L219.08375,40.8604736328125L219.39624999999998,40.942702484130876L219.83374999999998,41.18001861572267L220.02124999999998,41.21261138916017L220.08375,41.24696960449219L220.39625,41.37530364990235L220.45874999999998,41.37666168212891L220.52125,41.39248275756836L220.64624999999998,41.456853485107416L220.83374999999998,41.508390808105474L221.14625,41.66728057861329L221.33375,41.70258941650391L221.39625,41.716577148437494L221.52124999999998,41.78746643066407L221.89624999999998,41.89122009277344L222.52125,42.17131423950195L222.95875,42.28423461914062L223.14625,42.33835220336914L223.20874999999998,42.358994293212874L223.64624999999998,42.43735275268554L223.70875,42.445161437988276L223.77125,42.45819854736328L223.83374999999998,42.469130706787126L224.14625,42.571662139892595L224.2725,35.939711761474626L225.7725,37.090983581542986L225.96,37.177897644042986L226.085,37.21252746582033L226.3975,37.58856658935545L226.58499999999998,37.69408569335937L226.6475,37.685190582275396L226.77249999999998,37.71846237182618L226.835,37.75940704345703L227.2725,37.91449432373045L227.39749999999998,37.98776016235351L227.5225,37.959648895263655L228.08499999999998,38.18576126098631L228.3975,38.292910003662115L228.45999999999998,38.34281768798829L228.835,38.43000335693361L228.96,38.510195159912115L229.085,38.55643615722656L229.21,38.60505371093748L229.46,38.64348602294922L229.6475,38.71145553588869L229.8975,38.788455963134766L230.46,38.92928390502928L230.5225,38.95114822387697L230.58499999999998,38.97600021362305L230.96,39.15057525634765L231.45999999999998,39.38728027343748L231.70999999999998,39.46930541992188L231.835,39.53150329589843L231.89749999999998,39.553503417968756L231.96,39.595195007324236L232.21,39.69467086791994L232.52249999999998,39.75476379394533L232.95999999999998,39.92804870605468L233.46,40.06806182861328L233.71,40.11858062744139L233.96,40.15843887329103L234.085,40.19388351440429L234.45999999999998,40.29851989746092L234.64749999999998,40.334304046630876L234.7725,40.393378448486345L234.89749999999998,40.414971160888655L235.0225,40.44994049072264L235.21,40.49950866699217L235.27375,33.003442382812494L235.46124999999998,31.64282989501953L235.71125,33.0169548034668L236.21125,33.50061798095703L236.52374999999998,33.996775054931646L236.58625,33.98849105834961L236.83625,33.962281036376936L237.27375,34.514253234863276L237.96125,34.87114410400389L238.14875,35.022428894042974L238.21124999999998,35.11416397094726L238.39875,35.116676330566406L238.71125,35.36444931030272L239.08624999999998,35.66946334838869L239.14875,35.72792663574219L239.39875,35.852661895751936L239.52374999999998,35.920631408691406L239.89875,36.07388534545899L239.96125,36.0905891418457L240.08625,36.14667587280272L240.33624999999998,36.171799468994124L240.77374999999998,36.44829483032228L241.14875,36.580023956298845L241.33625,36.679771423339844L241.71125,36.86018600463868L242.21125,36.99598922729493L242.39875,37.123440551757795L242.52375,37.17300872802733L242.58625,37.163570404052734L242.89874999999998,37.2407066345215L242.96125,37.21341018676756L243.14874999999998,37.256799316406244L243.27375,37.298966217041L243.33624999999998,37.29434890747072L243.46125,37.36184310913086L243.77374999999998,37.44264602661133L244.39874999999998,37.68043746948243L244.77375,37.78167877197265L244.89875,37.84686431884765L244.96125,37.88108673095704L245.21125,37.99617996215821L245.27374999999998,38.013291168212874L245.52375,38.10414352416993L245.64875,38.12091522216795L246.02375,38.24062576293946L246.08624999999998,38.258891296386736L246.27375,38.35368194580079L246.46249999999998,30.70218887329102L247.2125,31.338019561767595L247.52499999999998,31.698305511474615L247.5875,31.752219390869158L247.7125,32.04378890991211L248.275,32.57647705078125L248.3375,32.65476760864257L248.7125,32.781404113769526L248.775,32.750712585449236L249.65,33.38932723999025L249.89999999999998,33.5251304626465L250.025,33.53341445922851L250.15,33.62277297973631L250.33749999999998,33.731008148193354L250.52499999999998,33.95671310424805L251.0875,34.31312866210939L251.4625,34.37206726074217L251.58749999999998,34.44913558959959L252.275,34.75367431640623L252.3375,34.8194709777832L252.7125,34.86530456542968L253.15,34.93911361694336L254.65,35.54398117065429L254.7125,35.547579956054705L254.8375,35.58709869384765L255.02499999999998,35.61018524169921L255.15,35.626956939697266L256.46250000000003,36.143891906738276L256.65000000000003,36.20880584716795L256.9,36.25592956542968L256.9625,36.280577850341814L257.025,36.299454498291L257.15,36.30997924804686L257.33875,14.693637084960955L257.52625,27.412220001220703L257.65125,27.008409118652338L257.77625,27.555152893066406L258.21375,28.505300140380854L258.46375,28.940549468994135L258.65125,29.467058563232428L258.96375,29.8453384399414L259.46375,30.186815643310553L259.71375,30.513558197021467L259.83875,30.544046020507807L259.96375,30.676046752929693L260.02625,30.723102569580078L260.40125,30.86589965820312L260.65125,30.90317764282227L260.77625,31.08284530639648L260.90125,31.112654113769537L261.08875,31.172135925292963L261.65125,31.417532348632818L261.77625,31.514835357666016L261.83875,31.533372497558588L262.08875,31.755139160156233L262.40125,31.946961212158186L262.52625,31.97873916625977L263.15125,32.28952484130858L263.27625,32.34500045776369L263.40125,32.42722930908204L264.21375,32.7122802734375L264.46375,32.86580581665041L264.58875,32.92549133300781L265.21375,33.23838195800781L265.52625,33.333036804199224L265.96375,33.509648895263666L266.15125,33.51813659667968L266.27625,33.5710319519043L267.52625,34.02094802856445L267.58875,34.039553070068365L267.65125,34.080565643310564L267.77625,34.13420791625978L267.96375,34.168158721923845L268.08875,34.214603424072266L268.4025,60.35115585327148L268.65250000000003,25.542481231689436L269.09000000000003,27.091656494140608L269.1525,27.055397033691406L269.215,26.97262496948244L269.52750000000003,27.381121063232428L269.59,27.634869384765608L269.84,27.83266677856446L270.5275,28.529541015625L270.9025,28.941432189941423L271.1525,29.20332870483398L271.27750000000003,29.32962570190429L271.46500000000003,29.41165084838869L271.59,29.532991027832026L271.965,29.829856872558594L272.1525,30.03356170654297L272.4025,30.1737106323242L272.6525,30.23278503417967L272.7775,30.245007324218733L272.96500000000003,30.40382919311523L273.09,30.462903594970697L273.34000000000003,30.57724990844727L273.465,30.597688293457026L273.6525,30.65859603881836L273.965,30.717874145507807L274.21500000000003,30.8339859008789L274.2775,30.875609588623064L274.40250000000003,30.9233444213867L274.965,31.191419982910162L275.0275,31.16779022216795L275.71500000000003,31.45148315429688L275.84,31.499964904785173L275.90250000000003,31.53439102172851L276.34000000000003,31.75778732299804L276.465,31.811701202392584L276.52750000000003,31.810478973388655L276.59000000000003,31.83838653564453L276.6525,31.877905273437506L276.9025,31.886121368408197L277.02750000000003,31.93860931396486L278.4025,32.30351257324219L278.59,32.350704193115234L279.15250000000003,32.525550842285156L279.34000000000003,32.58109436035156L279.465,32.62203903198244L279.65375,24.236257934570318L279.71625,24.866792297363276L279.77875,25.959329223632807L279.90375,25.747883605957014L280.40375,24.947527313232428L280.71625,24.530000305175776L281.15375,24.434123229980486L282.90375,25.4026039123535L283.34125,25.35683822631836L283.96625,25.399140930175776L284.02875,25.446332550048822L284.34125,25.643790435791033L284.84125,25.871532440185547L284.90375,25.8984214782715L284.96625,25.915736389160173L285.59125,26.083113861084L285.65375,26.084811401367205L285.71625,26.13920059204102" style="fill: none;" fill="none"></path></g></g></g></g></g></g><g transform="translate(30, 178)" clip-path="url(#clip_1)"><clipPath id="clip_1"><rect width="300" height="22"></rect></clipPath><g><g><line x1="0" y1="0" x2="0" y2="5" style="visibility: inherit;" fill="rgb(0, 0, 0)" stroke="rgb(204, 204, 204)" stroke-width="1px"></line><line x1="25" y1="0" x2="25" y2="5" style="visibility: inherit;" fill="rgb(0, 0, 0)" stroke="rgb(204, 204, 204)" stroke-width="1px"></line><line x1="50" y1="0" x2="50" y2="5" style="visibility: inherit;" fill="rgb(0, 0, 0)" stroke="rgb(204, 204, 204)" stroke-width="1px"></line><line x1="75" y1="0" x2="75" y2="5" style="visibility: inherit;" fill="rgb(0, 0, 0)" stroke="rgb(204, 204, 204)" stroke-width="1px"></line><line x1="100" y1="0" x2="100" y2="5" style="visibility: inherit;" fill="rgb(0, 0, 0)" stroke="rgb(204, 204, 204)" stroke-width="1px"></line><line x1="125" y1="0" x2="125" y2="5" style="visibility: inherit;" fill="rgb(0, 0, 0)" stroke="rgb(204, 204, 204)" stroke-width="1px"></line><line x1="150" y1="0" x2="150" y2="5" style="visibility: inherit;" fill="rgb(0, 0, 0)" stroke="rgb(204, 204, 204)" stroke-width="1px"></line><line x1="175" y1="0" x2="175" y2="5" style="visibility: inherit;" fill="rgb(0, 0, 0)" stroke="rgb(204, 204, 204)" stroke-width="1px"></line><line x1="200" y1="0" x2="200" y2="5" style="visibility: inherit;" fill="rgb(0, 0, 0)" stroke="rgb(204, 204, 204)" stroke-width="1px"></line><line x1="225" y1="0" x2="225" y2="5" style="visibility: inherit;" fill="rgb(0, 0, 0)" stroke="rgb(204, 204, 204)" stroke-width="1px"></line><line x1="250" y1="0" x2="250" y2="5" style="visibility: inherit;" fill="rgb(0, 0, 0)" stroke="rgb(204, 204, 204)" stroke-width="1px"></line><line x1="275" y1="0" x2="275" y2="5" style="visibility: inherit;" fill="rgb(0, 0, 0)" stroke="rgb(204, 204, 204)" stroke-width="1px"></line><line x1="300" y1="0" x2="300" y2="5" style="visibility: inherit;" fill="rgb(0, 0, 0)" stroke="rgb(204, 204, 204)" stroke-width="1px"></line></g><g transform="translate(0, 8)"><text x="0" y="0" dx="0em" dy="0.95em" style="text-anchor: middle; visibility: hidden; font-family: &quot;Helvetica Neue&quot;, sans-serif; font-size: 12px; font-weight: 200;" fill="rgb(50, 49, 63)" stroke="none" stroke-width="1px">-20k</text><text x="25" y="0" dx="0em" dy="0.95em" style="text-anchor: middle; visibility: inherit; font-family: &quot;Helvetica Neue&quot;, sans-serif; font-size: 12px; font-weight: 200;" fill="rgb(50, 49, 63)" stroke="none" stroke-width="1px">0</text><text x="50" y="0" dx="0em" dy="0.95em" style="text-anchor: middle; visibility: hidden; font-family: &quot;Helvetica Neue&quot;, sans-serif; font-size: 12px; font-weight: 200;" fill="rgb(50, 49, 63)" stroke="none" stroke-width="1px">20k</text><text x="75" y="0" dx="0em" dy="0.95em" style="text-anchor: middle; visibility: inherit; font-family: &quot;Helvetica Neue&quot;, sans-serif; font-size: 12px; font-weight: 200;" fill="rgb(50, 49, 63)" stroke="none" stroke-width="1px">40k</text><text x="100" y="0" dx="0em" dy="0.95em" style="text-anchor: middle; visibility: hidden; font-family: &quot;Helvetica Neue&quot;, sans-serif; font-size: 12px; font-weight: 200;" fill="rgb(50, 49, 63)" stroke="none" stroke-width="1px">60k</text><text x="125" y="0" dx="0em" dy="0.95em" style="text-anchor: middle; visibility: inherit; font-family: &quot;Helvetica Neue&quot;, sans-serif; font-size: 12px; font-weight: 200;" fill="rgb(50, 49, 63)" stroke="none" stroke-width="1px">80k</text><text x="150" y="0" dx="0em" dy="0.95em" style="text-anchor: middle; visibility: hidden; font-family: &quot;Helvetica Neue&quot;, sans-serif; font-size: 12px; font-weight: 200;" fill="rgb(50, 49, 63)" stroke="none" stroke-width="1px">100k</text><text x="175" y="0" dx="0em" dy="0.95em" style="text-anchor: middle; visibility: inherit; font-family: &quot;Helvetica Neue&quot;, sans-serif; font-size: 12px; font-weight: 200;" fill="rgb(50, 49, 63)" stroke="none" stroke-width="1px">120k</text><text x="200" y="0" dx="0em" dy="0.95em" style="text-anchor: middle; visibility: hidden; font-family: &quot;Helvetica Neue&quot;, sans-serif; font-size: 12px; font-weight: 200;" fill="rgb(50, 49, 63)" stroke="none" stroke-width="1px">140k</text><text x="225" y="0" dx="0em" dy="0.95em" style="text-anchor: middle; visibility: inherit; font-family: &quot;Helvetica Neue&quot;, sans-serif; font-size: 12px; font-weight: 200;" fill="rgb(50, 49, 63)" stroke="none" stroke-width="1px">160k</text><text x="250" y="0" dx="0em" dy="0.95em" style="text-anchor: middle; visibility: hidden; font-family: &quot;Helvetica Neue&quot;, sans-serif; font-size: 12px; font-weight: 200;" fill="rgb(50, 49, 63)" stroke="none" stroke-width="1px">180k</text><text x="275" y="0" dx="0em" dy="0.95em" style="text-anchor: middle; visibility: inherit; font-family: &quot;Helvetica Neue&quot;, sans-serif; font-size: 12px; font-weight: 200;" fill="rgb(50, 49, 63)" stroke="none" stroke-width="1px">200k</text><text x="300" y="0" dx="0em" dy="0.95em" style="text-anchor: middle; visibility: hidden; font-family: &quot;Helvetica Neue&quot;, sans-serif; font-size: 12px; font-weight: 200;" fill="rgb(50, 49, 63)" stroke="none" stroke-width="1px">220k</text></g><line x1="0" y1="0" x2="300" y2="0" fill="rgb(0, 0, 0)" stroke="rgb(204, 204, 204)" stroke-width="1px"></line></g></g></g></g></svg>