<svg viewBox="0 0 330 200" xmlns="http://www.w3.org/2000/svg"><g><g><g><g><g><line x1="40" y1="178" x2="35" y2="178" style="visibility: inherit;" fill="rgb(0, 0, 0)" stroke="rgb(204, 204, 204)" stroke-width="1px"></line><line x1="40" y1="158.22222222222226" x2="35" y2="158.22222222222226" style="visibility: inherit;" fill="rgb(0, 0, 0)" stroke="rgb(204, 204, 204)" stroke-width="1px"></line><line x1="40" y1="138.44444444444446" x2="35" y2="138.44444444444446" style="visibility: inherit;" fill="rgb(0, 0, 0)" stroke="rgb(204, 204, 204)" stroke-width="1px"></line><line x1="40" y1="118.6666666666667" x2="35" y2="118.6666666666667" style="visibility: inherit;" fill="rgb(0, 0, 0)" stroke="rgb(204, 204, 204)" stroke-width="1px"></line><line x1="40" y1="98.8888888888889" x2="35" y2="98.8888888888889" style="visibility: inherit;" fill="rgb(0, 0, 0)" stroke="rgb(204, 204, 204)" stroke-width="1px"></line><line x1="40" y1="79.1111111111111" x2="35" y2="79.1111111111111" style="visibility: inherit;" fill="rgb(0, 0, 0)" stroke="rgb(204, 204, 204)" stroke-width="1px"></line><line x1="40" y1="59.33333333333334" x2="35" y2="59.33333333333334" style="visibility: inherit;" fill="rgb(0, 0, 0)" stroke="rgb(204, 204, 204)" stroke-width="1px"></line><line x1="40" y1="39.55555555555554" x2="35" y2="39.55555555555554" style="visibility: inherit;" fill="rgb(0, 0, 0)" stroke="rgb(204, 204, 204)" stroke-width="1px"></line><line x1="40" y1="19.7777777777778" x2="35" y2="19.7777777777778" style="visibility: inherit;" fill="rgb(0, 0, 0)" stroke="rgb(204, 204, 204)" stroke-width="1px"></line><line x1="40" y1="0" x2="35" y2="0" style="visibility: inherit;" fill="rgb(0, 0, 0)" stroke="rgb(204, 204, 204)" stroke-width="1px"></line></g><g transform="translate(30, 0)"><text x="0" y="178" dx="0em" dy="0.3em" style="text-anchor: end; visibility: hidden; font-family: &quot;Helvetica Neue&quot;, sans-serif; font-size: 12px; font-weight: 200;" fill="rgb(50, 49, 63)" stroke="none" stroke-width="1px">2.2</text><text x="0" y="158.22222222222226" dx="0em" dy="0.3em" style="text-anchor: end; visibility: inherit; font-family: &quot;Helvetica Neue&quot;, sans-serif; font-size: 12px; font-weight: 200;" fill="rgb(50, 49, 63)" stroke="none" stroke-width="1px">2.4</text><text x="0" y="138.44444444444446" dx="0em" dy="0.3em" style="text-anchor: end; visibility: hidden; font-family: &quot;Helvetica Neue&quot;, sans-serif; font-size: 12px; font-weight: 200;" fill="rgb(50, 49, 63)" stroke="none" stroke-width="1px">2.6</text><text x="0" y="118.6666666666667" dx="0em" dy="0.3em" style="text-anchor: end; visibility: inherit; font-family: &quot;Helvetica Neue&quot;, sans-serif; font-size: 12px; font-weight: 200;" fill="rgb(50, 49, 63)" stroke="none" stroke-width="1px">2.8</text><text x="0" y="98.8888888888889" dx="0em" dy="0.3em" style="text-anchor: end; visibility: hidden; font-family: &quot;Helvetica Neue&quot;, sans-serif; font-size: 12px; font-weight: 200;" fill="rgb(50, 49, 63)" stroke="none" stroke-width="1px">3</text><text x="0" y="79.1111111111111" dx="0em" dy="0.3em" style="text-anchor: end; visibility: inherit; font-family: &quot;Helvetica Neue&quot;, sans-serif; font-size: 12px; font-weight: 200;" fill="rgb(50, 49, 63)" stroke="none" stroke-width="1px">3.2</text><text x="0" y="59.33333333333334" dx="0em" dy="0.3em" style="text-anchor: end; visibility: hidden; font-family: &quot;Helvetica Neue&quot;, sans-serif; font-size: 12px; font-weight: 200;" fill="rgb(50, 49, 63)" stroke="none" stroke-width="1px">3.4</text><text x="0" y="39.55555555555554" dx="0em" dy="0.3em" style="text-anchor: end; visibility: inherit; font-family: &quot;Helvetica Neue&quot;, sans-serif; font-size: 12px; font-weight: 200;" fill="rgb(50, 49, 63)" stroke="none" stroke-width="1px">3.6</text><text x="0" y="19.7777777777778" dx="0em" dy="0.3em" style="text-anchor: end; visibility: hidden; font-family: &quot;Helvetica Neue&quot;, sans-serif; font-size: 12px; font-weight: 200;" fill="rgb(50, 49, 63)" stroke="none" stroke-width="1px">3.8</text><text x="0" y="0" dx="0em" dy="0.3em" style="text-anchor: end; visibility: hidden; font-family: &quot;Helvetica Neue&quot;, sans-serif; font-size: 12px; font-weight: 200;" fill="rgb(50, 49, 63)" stroke="none" stroke-width="1px">4</text></g><line x1="40" y1="0" x2="40" y2="178" fill="rgb(0, 0, 0)" stroke="rgb(204, 204, 204)" stroke-width="1px"></line></g></g><g transform="translate(40, 0)" clip-path="url(#clip_0)"><clipPath id="clip_0"><rect width="290" height="178"></rect></clipPath><g><g><g><line x1="0" y1="0" x2="0" y2="178" fill="rgb(0, 0, 0)" stroke="rgb(60, 60, 60)" stroke-width="1px" opacity="0.25"></line><line x1="22.30769230769231" y1="0" x2="22.30769230769231" y2="178" fill="rgb(0, 0, 0)" stroke="rgb(60, 60, 60)" stroke-width="1px" opacity="0.25"></line><line x1="44.61538461538462" y1="0" x2="44.61538461538462" y2="178" fill="rgb(0, 0, 0)" stroke="rgb(60, 60, 60)" stroke-width="1px" opacity="0.25"></line><line x1="66.92307692307692" y1="0" x2="66.92307692307692" y2="178" fill="rgb(0, 0, 0)" stroke="rgb(60, 60, 60)" stroke-width="1px" opacity="0.25"></line><line x1="89.23076923076924" y1="0" x2="89.23076923076924" y2="178" fill="rgb(0, 0, 0)" stroke="rgb(60, 60, 60)" stroke-width="1px" opacity="0.25"></line><line x1="111.53846153846155" y1="0" x2="111.53846153846155" y2="178" fill="rgb(0, 0, 0)" stroke="rgb(60, 60, 60)" stroke-width="1px" opacity="0.25"></line><line x1="133.84615384615384" y1="0" x2="133.84615384615384" y2="178" fill="rgb(0, 0, 0)" stroke="rgb(60, 60, 60)" stroke-width="1px" opacity="0.25"></line><line x1="156.15384615384616" y1="0" x2="156.15384615384616" y2="178" fill="rgb(0, 0, 0)" stroke="rgb(60, 60, 60)" stroke-width="1px" opacity="0.25"></line><line x1="178.46153846153848" y1="0" x2="178.46153846153848" y2="178" fill="rgb(0, 0, 0)" stroke="rgb(60, 60, 60)" stroke-width="1px" opacity="0.25"></line><line x1="200.76923076923077" y1="0" x2="200.76923076923077" y2="178" fill="rgb(0, 0, 0)" stroke="rgb(60, 60, 60)" stroke-width="1px" opacity="0.25"></line><line x1="223.0769230769231" y1="0" x2="223.0769230769231" y2="178" fill="rgb(0, 0, 0)" stroke="rgb(60, 60, 60)" stroke-width="1px" opacity="0.25"></line><line x1="245.3846153846154" y1="0" x2="245.3846153846154" y2="178" fill="rgb(0, 0, 0)" stroke="rgb(60, 60, 60)" stroke-width="1px" opacity="0.25"></line><line x1="267.6923076923077" y1="0" x2="267.6923076923077" y2="178" fill="rgb(0, 0, 0)" stroke="rgb(60, 60, 60)" stroke-width="1px" opacity="0.25"></line><line x1="290" y1="0" x2="290" y2="178" fill="rgb(0, 0, 0)" stroke="rgb(60, 60, 60)" stroke-width="1px" opacity="0.25"></line></g><g><line x1="0" y1="178" x2="290" y2="178" fill="rgb(0, 0, 0)" stroke="rgb(60, 60, 60)" stroke-width="1px" opacity="0.25"></line><line x1="0" y1="158.22222222222226" x2="290" y2="158.22222222222226" fill="rgb(0, 0, 0)" stroke="rgb(60, 60, 60)" stroke-width="1px" opacity="0.25"></line><line x1="0" y1="138.44444444444446" x2="290" y2="138.44444444444446" fill="rgb(0, 0, 0)" stroke="rgb(60, 60, 60)" stroke-width="1px" opacity="0.25"></line><line x1="0" y1="118.6666666666667" x2="290" y2="118.6666666666667" fill="rgb(0, 0, 0)" stroke="rgb(60, 60, 60)" stroke-width="1px" opacity="0.25"></line><line x1="0" y1="98.8888888888889" x2="290" y2="98.8888888888889" fill="rgb(0, 0, 0)" stroke="rgb(60, 60, 60)" stroke-width="1px" opacity="0.25"></line><line x1="0" y1="79.1111111111111" x2="290" y2="79.1111111111111" fill="rgb(0, 0, 0)" stroke="rgb(60, 60, 60)" stroke-width="1px" opacity="0.25"></line><line x1="0" y1="59.33333333333334" x2="290" y2="59.33333333333334" fill="rgb(0, 0, 0)" stroke="rgb(60, 60, 60)" stroke-width="1px" opacity="0.25"></line><line x1="0" y1="39.55555555555554" x2="290" y2="39.55555555555554" fill="rgb(0, 0, 0)" stroke="rgb(60, 60, 60)" stroke-width="1px" opacity="0.25"></line><line x1="0" y1="19.7777777777778" x2="290" y2="19.7777777777778" fill="rgb(0, 0, 0)" stroke="rgb(60, 60, 60)" stroke-width="1px" opacity="0.25"></line><line x1="0" y1="0" x2="290" y2="0" fill="rgb(0, 0, 0)" stroke="rgb(60, 60, 60)" stroke-width="1px" opacity="0.25"></line></g></g></g><g><g><line x1="0" y1="395.5555555555556" x2="290" y2="395.5555555555556" fill="rgb(0, 0, 0)" stroke="rgb(153, 153, 153)" stroke-width="1.5px"></line></g></g><g><g><line x1="22.30769230769231" y1="0" x2="22.30769230769231" y2="178" fill="rgb(0, 0, 0)" stroke="rgb(153, 153, 153)" stroke-width="1.5px"></line></g></g><g><g><g><g><g><path stroke="rgb(255, 112, 67)" stroke-width="2px" d="M32.17996153846154,-12.743644316161976L32.458807692307694,19.434712794340783L32.57034615384615,29.14741928717342L32.62611538461538,32.015928128715245L32.849192307692306,32.6330157814491L33.295346153846154,33.07230158078215L33.7415,33.81187511511905L33.79726923076923,34.07657470214846L33.85303846153846,34.19445508492538L34.076115384615385,34.42831117045648L34.68957692307692,34.90959574884374L35.02419230769231,35.35227195784648L35.30303846153846,35.784190849226974L35.47034615384615,36.07413456181226L36.13957692307692,36.773741102237125L36.47419230769231,37.334544721714934L36.753038461538466,37.74275198814772L36.92034615384615,38.03008776808372L37.14342307692307,38.26913078531342L37.366499999999995,38.52050475251093L37.47803846153846,38.63432143388289L38.537653846153844,39.459612160365765L38.8165,39.91437238140139L38.87226923076923,40.09839759109721L39.15111538461538,40.37109307201203L39.42996153846154,40.62124112770411L39.5415,40.78314537993043L39.98765384615385,41.13301119430818L40.04342307692308,41.28324103720172L40.37803846153846,41.516338511077805L40.433807692307695,41.623170392841615L40.489576923076925,41.68354058776217L40.65688461538462,41.81024707046657L41.1588076923077,42.17465593092564L41.60496153846154,42.521535205528636L42.44261538461539,52.64636553754974L42.665692307692304,56.021780761372796L43.00030769230769,57.014749226657074L43.22338461538462,57.50502530731056L43.334923076923076,57.63339274988431L44.00415384615385,57.989074238403916L44.05992307692308,58.105747018733936L44.95223076923077,58.42446677652714L45.677230769230775,58.783203805456424L45.733000000000004,58.91421088923116L45.84453846153846,58.97930855358375L46.17915384615385,59.04935618017869L46.68107692307693,59.144885413505236L46.79261538461538,59.16756978478429L46.84838461538461,59.215106632185524L47.015692307692305,59.23410429533503L47.35030769230769,59.32054049630486L47.852230769230765,59.46734565553926L48.01953846153846,59.54969267133896L48.07530769230769,59.596198380243905L48.632999999999996,59.7860647778468L49.46953846153846,60.03727517481251L49.58107692307692,60.146685765054656L49.69261538461539,60.22139574861532L50.47338461538462,60.4800615549035L50.75223076923077,60.63346354351947L50.86376923076923,60.70565926819333L51.031076923076924,60.776978111963714L51.47723076923077,60.91667346127534L51.811846153846155,61.07561096473185L51.92338461538462,61.138987390303924L52.03603846153846,69.30920916904809L52.37065384615384,71.2958074619334L52.649499999999996,71.46971713532893L53.20719230769231,71.50548519666627L53.31873076923077,71.55470262559943L53.54180769230769,71.4989798517142L53.876423076923075,71.32067368845155L54.0995,71.23542840539756L54.43411538461539,71.24258198252458L54.54565384615385,71.33348583552583L54.601423076923076,71.35321472564011L54.71296153846154,71.3816446629856L54.8245,71.39887118044581L54.88026923076923,71.44138737960917L55.15911538461538,71.45559457937821L55.21488461538462,71.47098034355363L55.7168076923077,71.53096653607156L56.05142307692308,71.51493142653838L56.162961538461545,71.52284537271795L56.4418076923077,71.51751225214713L56.72065384615385,71.57559028770979L56.8321923076923,71.55251321645517L57.501423076923075,71.65022459197955L57.891807692307694,71.69269158413685L57.94757692307692,71.72647410821126L58.05911538461538,71.75091771540406L58.11488461538461,71.73654821658016L58.17065384615385,71.75273516585263L58.226423076923076,71.75760775449825L58.337961538461535,71.78504661281463L58.50526923076923,71.80535909865834L58.728346153846154,71.8267024146222L59.00719230769231,71.84794238302553L59.1745,71.86314394071404L59.397576923076926,71.89638812341703L59.564884615384614,71.94184468553657L59.73219230769231,71.96916335731608L59.95526923076923,72.02589682247535L60.01103846153846,72.05138334418561L60.234115384615386,72.09631152916853L60.51296153846154,72.13282937861821L60.56873076923077,72.14319059435398L60.95911538461539,72.17660005312989L61.12642307692308,72.20835847947218L61.3495,72.2359412344426L61.516807692307694,72.26867478718087L61.90830769230769,78.08491724552961L62.13138461538461,79.90938811845258L62.298692307692306,80.35594028370916L62.354461538461535,80.59127266514169L62.410230769230765,80.80605013429154L62.800615384615384,80.39837384532932L63.135230769230766,80.32554954250638L63.24676923076923,80.24110309602152L63.30253846153846,80.24777015410929L63.525615384615385,80.29027075345905L63.74869230769231,80.28740827804818L63.916000000000004,80.24566946463261L63.97176923076923,80.26731081880739L64.02753846153846,80.30847784303909L64.25061538461539,80.23814359234758L64.75253846153846,80.07720607861644L64.97561538461538,80.08353611002465L65.03138461538461,80.07984030959707L65.08715384615384,80.0857952232028L65.19869230769231,80.02952110420925L65.25446153846154,80.01887732905196L65.58907692307692,79.9562537827288L65.81215384615385,79.95022420559913L65.86792307692308,79.95759148076885L65.97946153846154,79.94446957378965L66.091,79.93318878227622L66.2583076923077,79.9626967455041L66.31407692307693,79.99107320542413L66.36984615384615,79.99283606307957L66.42561538461538,79.98537705026581L66.59292307692307,79.99289312996557L66.816,80.03774442650966L67.09484615384615,80.05252012458205L67.15061538461539,80.04553216020965L67.20638461538462,80.03330239848509L67.541,80.06734479889802L68.0986923076923,80.07749150356646L68.266,80.11636540341676L68.48907692307692,80.16011108472439L68.71215384615385,80.15466794226914L68.82369230769231,80.16328389899243L69.10253846153846,80.17487979567937L70.441,80.2518832782017L70.55253846153846,80.2879068483643L70.60830769230769,80.31183449118532L70.83138461538461,80.34500636961819L70.94292307692308,80.35868780638144L71.166,80.37005393751078L71.27753846153846,80.37758974281569L71.66903846153846,94.67546435608755L72.00365384615385,91.28369744344837L72.22673076923077,90.09626009117187L72.61711538461539,89.29810492278993L72.67288461538462,89.02665738024209L72.72865384615383,88.92956095067034L72.78442307692308,88.93477656250083L73.06326923076922,88.69871861412926L73.17480769230768,88.63811712134986L73.34211538461538,88.49670232204002L73.39788461538463,88.4213196661097L73.50942307692307,88.2919083662636L73.95557692307692,88.03153710779308L74.01134615384615,87.92109466094142L74.17865384615384,87.86081307082887L74.56903846153847,87.83488925845944L74.73634615384614,87.79067158333586L75.23826923076923,87.65361079795134L75.34980769230769,87.62817123300724L75.46134615384615,87.59294490314264L75.62865384615384,87.50429722424039L75.68442307692308,87.49518051240223L76.18634615384615,87.4776745406921L76.24211538461539,87.45128129956862L76.4651923076923,87.38713466304533L76.52096153846153,87.36881488846474L76.57673076923078,87.36807206888349L76.6325,87.36666094481089L76.85557692307692,87.32048889695683L76.91134615384615,87.29383028424176L77.07865384615384,87.24284013506028L77.13442307692308,87.1961692450995L77.58057692307693,87.12394234639737L77.80365384615385,87.0796804871563L77.91519230769231,87.05324834988396L78.02673076923078,87.03736384631956L78.0825,87.04877228183744L78.52865384615384,86.98439693973752L78.58442307692309,86.95562762311324L78.75173076923078,86.95328480025833L79.19788461538461,86.92589520553301L79.30942307692308,86.91913066713545L79.5325,86.91112690689727L79.58826923076924,86.92187935832581L79.86711538461539,86.90850220670666L80.2575,86.89648468724667L80.87096153846154,86.83082490327824L80.9825,86.82791139763789L81.31711538461539,86.80630849293202L81.48442307692308,86.77350395865645L81.5413076923077,86.13314898329536L81.76438461538461,92.11002176458906L81.98746153846153,93.71003790335442L82.099,94.13968945633351L82.37784615384616,93.98914149927394L82.43361538461538,93.82569391983935L82.48938461538462,93.66852632996901L82.93553846153847,93.686021687765L83.27015384615386,93.53920369345656L83.49323076923076,93.36172455581975L83.549,93.30184626125519L83.60476923076922,93.25656887819007L84.10669230769231,93.29203514667577L84.38553846153846,93.18343461080065L84.72015384615383,93.0850700486743L85.16630769230768,93.03917234321897L85.27784615384616,93.03368797124237L86.39323076923077,92.89195786316772L86.449,92.83422226826227L86.67207692307693,92.72886997993753L86.72784615384614,92.67498407722303L86.78361538461539,92.66928175609881L87.78746153846154,92.52131381819457L88.06630769230769,92.43369981736224L88.4566923076923,92.35329944750092L88.51246153846154,92.32122447415983L88.84707692307693,92.27555754347749L88.95861538461538,92.25783052148986L89.23746153846153,92.2534201274061L89.34899999999999,92.23625329987107L89.46053846153845,92.24826727002964L89.68361538461538,92.22282466067573L90.68746153846153,92.19751623967073L90.79899999999999,92.18177080462016L90.91053846153845,92.17488516793875L91.3566923076923,92.15580399329005L91.46934615384616,98.95160250513123L91.80396153846155,99.62836069326778L91.91550000000001,99.74967751971569L92.02703846153847,99.76496412576745L92.0828076923077,99.63982973760821L92.2501153846154,99.65602600190313L92.52896153846154,99.37809117387386L92.97511538461538,99.07743735768923L93.3655,98.77005036437737L93.70011538461537,98.51045207907032L93.9231923076923,98.42684575271723L93.97896153846153,98.41138560744432L94.03473076923076,98.38991362272067L94.0905,98.3662254895652L94.42511538461538,98.19419593802084L94.9828076923077,98.04521427575715L95.09434615384616,97.98763025939984L95.26165384615385,97.9482233730504L95.31742307692308,97.90426828420145L95.48473076923077,97.83254255241948L95.81934615384615,97.76773519796835L95.93088461538461,97.75575273809977L96.09819230769232,97.69119272702385L96.2655,97.65687222303983L96.43280769230769,97.63475930531769L96.48857692307692,97.60318809170181L97.49242307692307,97.40710753890143L98.10588461538462,97.28972766407014L98.32896153846153,97.25278079591502L99.1655,97.07348935496172L99.33280769230768,97.00915595366635L99.38857692307693,96.98650564891328L99.50011538461538,96.9647085452345L99.55588461538461,96.95075917925575L100.67126923076923,96.83390249085937L100.72703846153847,96.78405802231784L100.78280769230768,96.7685105426563L101.06165384615385,96.7749533991386L101.22896153846153,96.77472424991704L101.39738461538461,101.22741447964974L101.50892307692308,103.49385792802342L101.732,103.95801944637137L101.95507692307692,103.84147451584028L102.17815384615385,103.41640920651635L103.07046153846154,103.05577253663344L103.5723846153846,102.75093799772338L103.62815384615385,102.65762269943367L104.24161538461539,102.49975920519724L104.68776923076922,102.27737668064356L104.74353846153846,102.21293945649073L104.91084615384615,102.22212696600268L105.02238461538461,102.18989502746356L105.07815384615385,102.13130799340752L105.5243076923077,102.06337859454023L105.58007692307692,102.02916953696159L105.97046153846155,101.9634043255118L106.08200000000001,101.94161177909383L106.807,101.81254932983853L106.86276923076923,101.75693063846472L107.03007692307692,101.719367643264L107.42046153846154,101.6365049832597L108.08969230769232,101.53452362941971L108.36853846153846,101.47257188192522L108.42430769230768,101.44284624956838L108.53584615384617,101.40760489699746L108.92623076923077,101.33978058748032L109.31661538461537,101.2839334834527L109.37238461538462,101.25402577274444L109.87430769230768,101.16436606909855L110.09738461538461,101.10979117830404L110.20892307692307,101.07658476992395L110.432,101.02912606870981L110.93392307692308,100.93700672476908L111.26965384615384,106.59389577561117L111.32542307692309,108.24290323929043L111.60426923076923,108.16160412566019L112.05042307692308,108.21085463213436L112.16196153846154,108.09500170158928L112.55234615384614,107.86799231226853L112.60811538461539,107.81768066071818L112.8311923076923,107.66540704881157L113.11003846153845,107.57542859462735L113.27734615384615,107.42274163118024L113.38888461538461,107.31601978062237L113.5561923076923,107.11005250032342L113.7235,107.00942872456065L113.94657692307692,106.87891460339964L114.39273076923077,106.78658491767996L114.83888461538461,106.5418271944185L114.95042307692307,106.4254073120731L115.06196153846155,106.36120349287395L115.22926923076923,106.32855771352008L115.28503846153846,106.30648510499879L115.61965384615385,106.22688323643365L115.67542307692307,106.1791380887161L116.12157692307692,106.09310525590973L116.28888461538462,106.01316273259232L116.34465384615385,105.98990614560711L116.40042307692308,105.9743636641659L116.4561923076923,105.93408558151395L116.56773076923076,105.88219483707734L116.73503846153847,105.79590855708706L117.12542307692307,105.66999275420737L117.18119230769231,105.61559862243192L117.57157692307692,105.48723565112337L117.62734615384616,105.43575472273332L117.68311538461538,105.42126766832047L118.18503846153847,105.35146722791008L118.40811538461537,105.29364096004986L118.51965384615386,105.25947564241395L118.57542307692307,105.25034830986591L118.68696153846155,105.23003349508586L118.96580769230769,105.16048169409292L119.02157692307692,105.11784755735782L119.13311538461538,105.093521115496L119.18888461538461,105.08051284604034L119.24465384615385,105.06050259407192L119.5235,105.01063224832967L120.30426923076922,104.86014141455189L120.80619230769231,104.70903935840865L121.08615384615385,112.37921558661601L121.47653846153847,112.98763217713768L121.5323076923077,112.906656463834L122.03423076923077,112.63891525397803L122.42461538461538,112.11440789897279L122.92653846153846,111.58672549121624L123.09384615384614,111.39925844144074L123.48423076923078,111.17045392594112L123.59576923076924,111.04314133525305L123.81884615384615,110.8644831726961L124.37653846153846,110.59998284760486L124.43230769230769,110.50690153534228L124.59961538461539,110.3743921563543L124.87846153846154,110.27106645905198L125.10153846153845,110.16680809816687L125.82653846153846,109.88310399209418L125.93807692307693,109.79094561040226L125.99384615384615,109.73410276071843L126.32846153846154,109.57747672911141L126.38423076923077,109.50413224903774L126.44,109.44988035502446L126.55153846153846,109.3901006016737L126.66307692307691,109.35107473764967L127.3323076923077,109.2127658387381L128.33615384615385,108.95160674102844L128.67076923076925,108.81683230116289L129.0053846153846,108.71315716287458L129.06115384615384,108.66327322431032L129.39576923076922,108.54378907288732L129.61884615384616,108.44864544459537L129.73038461538462,108.40551294045157L129.84192307692308,108.37159677823672L130.17653846153846,108.30687665950019L130.34384615384616,108.25742359164585L130.45538461538462,108.23088643180962L130.62269230769232,108.20326918199618L130.79,108.16116758999384L130.90265384615384,118.70468900579695L131.40457692307692,116.63833112644036L131.51611538461538,115.66116462155912L132.18534615384615,114.97589936853868L132.24111538461537,114.7157910264243L132.2968846153846,114.58687711149587L133.07765384615385,114.33911548571827L133.30073076923077,114.18332392594996L133.52380769230768,114.03769530574354L133.74688461538463,113.89651839583415L133.80265384615385,113.81604139733437L133.96996153846155,113.767357052218L134.0815,113.66722872613734L134.19303846153846,113.5717524080905L134.6391923076923,113.53017048340674L134.75073076923078,113.4869492076221L134.91803846153846,113.43328429659691L135.08534615384616,113.31292991525744L135.25265384615383,113.22802167540837L135.3641923076923,113.17340337986899L135.5315,113.06565250085342L135.6988076923077,112.98586212467453L136.5911153846154,112.70603260260216L136.9815,112.50074733884887L137.26034615384614,112.34571688252218L137.3161153846154,112.28415622177977L137.3718846153846,112.24738523853138L137.4834230769231,112.20220744922123L137.5391923076923,112.17012027330843L137.65073076923076,112.12390505434702L137.76226923076925,112.07731332661534L137.98534615384614,112.01504550262838L138.20842307692308,111.96436416339907L138.48726923076924,111.87990954885494L138.5988076923077,111.82295176132739L138.9891923076923,111.74321575783958L139.10073076923075,111.70325320111694L139.1565,111.67740118845403L139.3238076923077,111.6456819743239L139.43534615384615,111.62824435542993L139.65842307692307,111.60972745935082L139.93726923076923,111.54749812201649L140.0488076923077,111.50110282952384L140.1045769230769,111.47337050772151L140.66226923076923,111.39660928773483L140.71803846153847,111.36486688161841L140.88646153846153,117.06754599350847L141.05376923076923,118.02125147615654L141.22107692307694,118.49091909485162L141.27684615384615,118.5515280827595L141.44415384615385,118.62907517745238L141.49992307692307,118.59333799254476L141.61146153846153,118.45938248559645L141.8903076923077,118.30556673080503L141.94607692307693,118.27118925930297L142.33646153846152,117.98034333988403L142.39223076923076,117.83291647640844L142.61530769230768,117.78929906032874L142.72684615384617,117.74030142773574L142.83838461538463,117.64945331008715L143.06146153846154,117.52730165757185L143.61915384615384,117.17896418887278L143.73069230769232,117.00681361028259L143.84223076923078,116.9082644556027L143.898,116.82941917169941L144.1210769230769,116.71720585303166L144.28838461538462,116.63870085931157L144.73453846153848,116.38331958549128L144.9576153846154,116.21679215301153L145.12492307692307,116.10773358676889L145.73838461538463,115.90835999959263L145.96146153846155,115.793474529724L146.073,115.73516080547924L146.24030769230768,115.64676608904404L146.35184615384617,115.57949963423206L146.4076153846154,115.55874206255322L146.51915384615384,115.51950706332063L146.63069230769233,115.50309897780495L146.68646153846154,115.46261072552231L146.798,115.42234166581243L146.90953846153846,115.4044845955469L146.9653076923077,115.38670006497732L147.18838461538462,115.34469312029955L147.3556923076923,115.31533961507378L147.52300000000002,115.28829679393581L147.80184615384616,115.22103409950412L148.4710769230769,114.98577693729283L148.69415384615385,114.90584209781824L148.86146153846153,114.84096507131974L149.41915384615385,114.72348551587905L149.75376923076922,114.64219586906498L149.80953846153847,114.59493461970456L149.92107692307692,114.56913752473584L150.08838461538463,114.53660959272082L150.2556923076923,114.48819916394567L150.31146153846154,114.47131598278052L150.3672307692308,114.4611678383607L150.87026923076925,120.48772753860132L150.92603846153847,121.7101713664897L150.98180769230768,121.90252468926415L151.09334615384617,121.63658991571413L151.76257692307695,121.23689858650016L151.81834615384614,121.14144991398314L151.87411538461538,121.15925718514262L151.92988461538462,121.18481659972448L152.37603846153846,120.97101907490165L152.87796153846153,120.67056099077935L153.82603846153845,120.04026860512226L154.6068076923077,119.65797015516375L154.77411538461538,119.44566026541784L154.82988461538463,119.33702727719107L154.88565384615384,119.28791701299473L154.9971923076923,119.25347832028163L155.44334615384616,119.10002520503497L155.5548846153846,119.01609639902813L155.77796153846154,118.89649915205744L156.33565384615386,118.803170027854L156.7818076923077,118.69187628966898L156.83757692307694,118.6474965948797L157.45103846153847,118.4523101066564L157.8971923076923,118.31522877592222L158.23180769230768,118.15377470526613L158.28757692307693,118.09170629251724L158.3991153846154,118.04484765762044L158.51065384615384,117.99850850943247L158.7895,117.92491228937831L159.84911538461537,117.61840583352166L159.96065384615383,117.49965162184876L160.18373076923075,117.39946224290907L160.2395,117.35658192700447L160.74253846153846,122.58673132015491L160.85407692307695,124.24360970158679L161.02138461538462,124.5275918296621L161.07715384615386,124.5891529350308L161.13292307692308,124.60981628053538L161.6906153846154,124.3152818768483L161.74638461538464,124.17630420526982L161.91369230769232,124.00508858018787L162.02523076923077,123.86889403239991L162.2483076923077,123.76263085556857L162.35984615384615,123.67424267264722L162.52715384615385,123.57444906221257L162.63869230769228,123.45959859949942L162.75023076923077,123.35587674404628L162.86176923076923,123.2617319313119L163.3636923076923,123.10526996912853L163.58676923076922,122.96723005194157L163.80984615384614,122.80836007766204L163.92138461538462,122.68179411224212L164.0886923076923,122.58153874039164L164.256,122.49813814469033L164.5906153846154,122.34740803492427L164.64638461538462,122.28004081668828L164.86946153846154,122.20513684637068L165.03676923076924,122.16449490116055L165.20407692307694,122.08453745257L165.31561538461537,122.04406285799223L165.81753846153845,121.8062796528638L165.98484615384615,121.65666686501604L166.0406153846154,121.6121296098029L166.0963846153846,121.56503453549999L166.15215384615385,121.55559311054662L166.31946153846155,121.521535372629L166.54253846153847,121.42468926982909L166.87715384615385,121.2917271120984L166.9329230769231,121.25370340139588L167.10023076923076,121.20742362383945L167.5463846153846,121.04601165148802L167.82523076923076,120.90160158754675L167.99253846153846,120.81446080980422L168.15984615384613,120.74842873752102L168.21561538461538,120.7041603895889L168.55023076923078,120.59221978702747L168.66176923076924,120.52752782287452L168.9963846153846,120.4349421012535L169.16369230769232,120.3646689353162L169.331,120.31610805220063L169.38676923076923,120.29566441173021L169.60984615384615,120.24884929516318L170.61480769230766,125.61120247586757L170.83788461538464,127.26798418551613L170.94942307692307,127.66711777796658L171.22826923076923,127.36285708915952L171.50711538461536,127.1319726980878L172.23211538461538,126.62286290491416L172.4551923076923,126.44073658541946L172.62249999999997,126.2646302515285L173.45903846153848,125.78411722317722L174.0725,125.40354546481325L174.12826923076923,125.28681583840503L174.29557692307694,125.18106138995944L174.6301923076923,125.03263623404007L175.02057692307693,124.83153653078199L175.07634615384615,124.74673138969354L175.1321153846154,124.69445456472337L175.18788461538463,124.66655865797259L175.24365384615385,124.65155533267384L175.29942307692306,124.63264646193053L175.74557692307692,124.52780208274592L177.0282692307692,124.08838975812458L177.08403846153846,123.92266712436054L177.1398076923077,123.85573680422067L177.5301923076923,123.73372984495171L178.14365384615382,123.52911842303067L178.2551923076923,123.44248408474172L178.9244230769231,123.2247849006053L178.9801923076923,123.13211173907706L179.1475,123.04588611253835L179.25903846153844,122.9886775870981L179.31480769230768,122.95870803110721L179.42634615384617,122.91857437319767L180.43130769230768,128.0440715697888L180.71015384615384,129.96218430243385L180.87746153846152,130.67397304547566L181.04476923076925,130.84128234570386L181.5466923076923,130.92506049873649L181.60246153846154,130.96369410528737L181.93707692307692,131.00167386557195L182.04861538461537,131.08655949944585L182.10438461538462,131.10588575225043L182.439,130.96978340658507L182.60630769230767,130.83281769587487L182.6620769230769,130.7696788205389L182.94092307692307,130.69237949531328L183.05246153846153,130.6509034165838L183.16400000000002,130.62263338751893L183.3313076923077,130.61722209747825L183.38707692307693,130.6201702807565L183.83323076923077,130.5462097131146L184.11207692307693,130.43600643683277L184.22361538461539,130.38758035669036L184.27938461538463,130.3790764429582L184.33515384615384,130.36122618703615L184.94861538461538,130.22511099686133L185.50630769230767,130.03968608849223L185.95246153846153,129.87787275587743L186.90053846153847,129.51568932721256L187.17938461538463,129.33626573036221L187.29092307692306,129.25941576121613L187.3466923076923,129.22601284782934L187.51399999999998,129.1728838813993L188.0716923076923,129.06694962181726L188.40630769230768,128.9768446890456L188.62938461538462,128.89526793914203L188.90823076923078,128.80037292706123L189.0197692307692,128.75294148385672L189.1313076923077,128.702469565849L189.24284615384613,128.67197939705267L189.35438461538462,128.64094822292952L189.57746153846153,128.57998177679673L189.63323076923078,128.56363929889295L189.80053846153845,128.52452404573071L190.13515384615383,128.46152846861898L190.19203846153846,134.29120305632264L190.35934615384613,135.85275357004417L190.41511538461538,136.38225001273148L190.80550000000002,136.52355533824976L190.91703846153845,136.57307660509466L190.9728076923077,136.54498993137278L191.0285769230769,136.6076130631928L191.47473076923075,136.56807534784173L192.31126923076923,136.25315358109304L192.42280769230769,136.12949821975607L192.53434615384617,136.01319956866934L192.6458846153846,135.8713649355015L192.7574230769231,135.79027802342762L193.25934615384614,135.51067018354982L193.48242307692306,135.31385189116185L193.59396153846154,135.20928874690725L194.20742307692308,134.88400249206842L194.4305,134.66598792099768L194.98819230769232,134.39884031779715L195.49011538461536,134.07097304023122L195.76896153846153,133.87888741407505L196.15934615384614,133.69048510896613L196.32665384615382,133.55741949683L196.38242307692306,133.50063286431967L196.71703846153846,133.3758596512593L196.7728076923077,133.31175744333618L196.88434615384617,133.24440151393043L197.05165384615384,133.17334633054227L197.3305,133.0554161564632L197.49780769230767,132.9665975930463L197.55357692307692,132.9335650287057L197.66511538461538,132.89969164907228L198.55742307692307,132.62731624610348L198.9478076923077,132.44101863990363L199.1151153846154,132.32675519155507L199.17088461538464,132.27494905362641L199.56126923076923,132.16629241232442L199.61703846153847,132.11984867815158L200.0074230769231,131.9857839328302L200.12007692307694,138.59114236381413L201.45853846153844,139.39232753406662L201.62584615384617,139.38225345486282L201.7373846153846,139.26886989343996L202.01623076923076,139.12310716278674L202.18353846153846,138.8973407251656L202.2393076923077,138.79495267976387L202.35084615384613,138.72640941016596L202.40661538461538,138.65671442656202L202.797,138.38823146964987L202.90853846153846,138.29357577897213L203.0200769230769,138.16948966908257L203.522,137.87315317344343L203.80084615384615,137.64756722422612L204.30276923076923,137.3428299389116L204.4143076923077,137.21744380148417L204.52584615384617,137.14342043657092L204.7489230769231,137.03524480022688L204.91623076923076,136.98694840001377L205.6412307692308,136.66535558115967L205.697,136.54101921330022L205.75276923076922,136.46930774678492L206.0873846153846,136.33570006346287L206.53353846153848,136.16444504847138L206.86815384615386,136.04300964186925L206.92392307692307,135.9958515083767L206.9796923076923,135.9570637995793L207.2027692307692,135.87285999752797L207.48161538461537,135.78404247717046L207.87199999999999,135.62952528384128L208.31815384615385,135.4400981300014L208.54123076923076,135.32015920843165L208.76430769230768,135.1868212390242L208.87584615384617,135.10851438017255L209.21046153846152,134.99331035102216L209.37776923076925,134.9092870622752L209.48930769230768,134.84866278379795L209.60084615384616,134.80101610325667L209.71238461538462,134.7668019354099L209.8796923076923,134.70978223872777L209.93657692307693,138.65284447945936L210.10388461538463,141.59826028535767L210.7731153846154,141.95669907123184L211.05196153846154,141.91505228152312L211.10773076923078,141.86917092801266L211.3308076923077,141.70419812123322L212.33465384615383,141.21137948807183L212.55773076923074,141.04250797556008L212.72503846153847,140.87762328000053L213.0038846153846,140.67109059893448L213.3385,140.39552128461676L213.39426923076925,140.28418327878887L213.61734615384617,140.20034606907063L213.7288846153846,140.15870754615455L214.0635,139.93631984865135L214.11926923076922,139.84456717791798L214.45388461538462,139.66601451847416L214.84426923076924,139.45627265689149L215.1788846153846,139.3011760187336L215.34619230769232,139.20102597359056L215.6808076923077,139.0840716129373L216.2942692307692,138.88795710501566L216.4058076923077,138.81946799227842L216.46157692307693,138.7818562632214L216.7961923076923,138.64339396956467L216.96349999999998,138.54460337772176L217.07503846153847,138.48639801181946L217.1308076923077,138.45073264020627L217.24234615384614,138.40331193162388L217.5211923076923,138.30315009990682L218.0788846153846,138.08330711595025L218.4135,137.92588980722638L218.52503846153846,137.85588928247626L218.5808076923077,137.81826973413965L218.80388461538462,137.74430219468144L218.85965384615386,137.70342955894935L219.08273076923078,137.60084212129948L219.1942692307692,137.54148119779126L219.5288846153846,137.396147564658L219.58465384615386,137.34066469273557L219.75196153846153,137.27143852088662L219.92038461538462,143.65266799713652L220.58961538461537,145.24847925969937L220.86846153846153,145.40706418336129L221.03576923076923,145.35967642778368L221.5376923076923,144.99575972968606L221.59346153846155,144.7933213855586L221.92807692307693,144.53485708936006L221.98384615384614,144.4132359801185L222.76461538461538,143.77521681721367L222.9876923076923,143.4507239101391L223.0992307692308,143.28795472165794L223.21076923076922,143.16464202749322L223.37807692307695,143.01226970696726L223.54538461538462,142.8824378166923L224.0473076923077,142.6329814660184L224.38192307692307,142.40104428069031L224.49346153846156,142.27147157994452L225.1069230769231,141.96023650436533L225.16269230769228,141.84362854137038L225.4973076923077,141.6877718535285L225.8876923076923,141.48228068452744L227.22615384615384,140.9721903449016L227.28192307692308,140.79118919376356L227.39346153846154,140.69260898167374L227.56076923076924,140.5890646002062L227.6723076923077,140.52441592280175L228.84346153846155,140.13805790655383L229.01076923076923,139.96006296582127L229.23384615384614,139.84269550726282L229.2896153846154,139.78546911530006L229.34538461538463,139.7515992874804L229.45692307692306,139.70062428379768L229.62534615384618,143.50175127816948L229.79265384615385,145.89494719402484L229.9041923076923,146.69790086768353L230.01573076923077,146.76057824777251L230.4061153846154,147.2829803637598L230.6291923076923,147.33896141352724L230.79649999999998,147.2016096399633L231.07534615384617,146.86085897875387L231.5215,146.56969754687054L231.74457692307692,146.38964691397877L231.85611538461538,146.22358699233536L231.96765384615384,146.117787909614L232.02342307692308,146.003314315245L232.35803846153846,145.80931385790936L232.69265384615386,145.51763355861794L232.80419230769232,145.37581525285253L232.9715,145.24253151759603L233.47342307692307,145.01032589458953L233.58496153846156,144.88915564856654L233.64073076923077,144.82966615762166L233.8638076923077,144.73596755201706L234.14265384615385,144.60800959395561L234.25419230769228,144.52141442018907L234.81188461538463,144.2363912208423L234.9234230769231,144.12428003248874L235.03496153846154,144.03930315550028L235.75996153846154,143.71771427081123L235.98303846153846,143.55622888564233L236.09457692307691,143.45709990416384L236.65226923076924,143.20574732574815L236.93111538461537,143.01745512339042L237.32150000000001,142.8559368730496L237.4888076923077,142.78165285099942L237.60034615384615,142.7279607914503L238.71573076923076,142.3337166447227L238.7715,142.20329655690017L238.82726923076925,142.14755113964188L238.93880769230768,142.09430446373233L239.1061153846154,142.02626077046705L239.21765384615384,141.98426060855274L239.4976153846154,145.26865394804844L239.7206923076923,148.46438394885786L240.11107692307692,149.15078919533684L240.16684615384617,149.47809668800377L240.22261538461538,149.59233069148007L240.5014615384615,149.71488006033405L240.55723076923076,149.6923464881252L240.78030769230767,149.6119626797631L241.3937692307692,149.30752940951638L241.7283846153846,148.9685589511559L242.063,148.63363520951503L242.2303076923077,148.42751685442624L242.34184615384615,148.30691108867825L242.67646153846155,148.111665119028L242.84376923076923,147.92573101069078L243.06684615384617,147.73182994150784L243.2899230769231,147.5376182709181L243.40146153846152,147.4076949928416L243.56876923076925,147.2845813114376L243.68030769230768,147.1639726172235L243.90338461538462,146.99037883842365L244.01492307692308,146.89623235579316L244.18223076923078,146.79035423538548L244.46107692307694,146.68339919549666L244.68415384615386,146.56607022666998L244.73992307692308,146.5048449427077L244.85146153846154,146.4360250456853L245.35338461538464,146.1797864199132L245.40915384615383,146.07997446140996L246.02261538461536,145.81019672418046L246.13415384615385,145.65643185177765L246.1899230769231,145.58595919085673L246.58030769230768,145.46343415686096L246.69184615384614,145.38695184634048L246.7476153846154,145.34109979014042L246.80338461538463,145.30729197868507L246.85915384615384,145.2743247915239L247.0822307692308,145.17064317703375L247.19376923076922,145.08877280743957L248.42069230769232,144.6236740584269L248.588,144.4249615779051L249.0899230769231,144.21171336503414L249.25723076923077,144.08827547966916L249.36876923076923,144.01252604943363L249.59296153846157,149.3258965004804L249.64873076923075,151.29277943208453L249.76026923076924,151.6638215342203L250.20642307692307,151.70245114840185L250.4852692307692,151.55159250063835L250.87565384615385,151.3634774606984L252.43719230769233,150.4863388064638L252.82757692307692,149.95136206848167L253.3852692307692,149.54816322509606L253.44103846153845,149.37904529732384L253.71988461538461,149.16356834989696L254.22180769230766,148.908091087804L254.2775769230769,148.81185782276896L254.83526923076923,148.5376744107769L254.89103846153847,148.44675485865042L254.9468076923077,148.39292427605457L255.05834615384617,148.32902942311586L255.1698846153846,148.25671852559066L255.2814230769231,148.17516574209665L255.33719230769233,148.12795758264318L255.39296153846152,148.0890558428743L255.5045,148.0350033985397L256.50834615384616,147.61739719219136L256.7871923076923,147.34993454309443L257.0660384615385,147.14852437987238L257.2333461538461,147.02124417839082L257.40065384615383,146.93283886020674L257.67949999999996,146.77715802614813L258.29296153846155,146.53331512206938L258.7948846153846,146.28850556279136L258.9621923076923,146.1592466274183L259.0179615384615,146.10535140750648L259.46523076923074,153.38908938674817L259.79984615384615,155.10718444088377L260.6363846153846,155.38282831903746L260.6921538461539,155.44172291079101L260.8036923076923,155.37581572170737L261.0267692307692,155.20422452129296L261.24984615384614,155.11691727271892L261.41715384615384,155.0627345450325L261.75176923076924,154.80121580583665L261.8633076923077,154.67230787224418L262.3652307692308,154.4682667762444L262.5883076923077,154.31762000916288L262.9229230769231,154.14595687024496L263.20176923076923,153.9789308815183L263.53638461538463,153.7752711355052L263.75946153846155,153.68969798159023L264.0383076923077,153.5717364286856L264.4286923076923,153.3972699020283L264.6517692307692,153.3100737835493L265.1536923076923,153.14876480681946L265.321,153.05531656545048L265.9902307692308,152.86328319781848L266.3806153846154,152.73794133022906L266.54792307692304,152.65973926484563L266.6594615384615,152.61264511217666L266.7152307692308,152.588895113743L266.9383076923077,152.5196660744909L266.99407692307693,152.47594048807977L267.04984615384615,152.4468305680718L267.7190769230769,152.25912969232303L268.0536923076923,152.12860155379985L268.1094615384615,152.06638721442422L268.221,152.02776974119936L268.4998461538462,151.93975510567554L268.55561538461535,151.90158346008303L268.7229230769231,151.84855873333063L269.05753846153846,151.75830140859546L269.22596153846155,158.1878493283709L269.61634615384617,159.72251891590054L270.17403846153843,159.89903682982663L270.50865384615383,159.82050592059616L270.73173076923075,159.74502549210936L270.78749999999997,159.64322883246933" style="fill: none;" fill="none"></path></g></g></g></g><g opacity="0.2"><g><g><g><path stroke="rgb(255, 112, 67)" stroke-width="2px" d="M32.17996153846154,-9.250981542799224L32.458807692307694,33.225437270270476L32.57034615384615,33.310007784101686L32.62611538461538,33.245289060804566L32.849192307692306,32.89748191833496L33.295346153846154,33.260566923353394L33.7415,34.12883520126343L33.79726923076923,34.19001738230389L33.85303846153846,34.244975248972594L34.076115384615385,34.52853520711264L34.68957692307692,35.115860568152556L35.02419230769231,35.54199033313327L35.30303846153846,35.96929894553293L35.47034615384615,36.198396152920196L36.13957692307692,37.073572476704925L36.47419230769231,37.57488913006253L36.753038461538466,37.917697959476044L36.92034615384615,38.15323167377048L37.14342307692307,38.37157779269748L37.366499999999995,38.62823645273846L37.47803846153846,38.68310001161365L38.537653846153844,39.81330818600125L38.8165,40.10926961898804L38.87226923076923,40.17726553810968L39.15111538461538,40.48796256383261L39.42996153846154,40.72844743728638L39.5415,40.85253291659885L39.98765384615385,41.28295368618436L40.04342307692308,41.34762525558472L40.37803846153846,41.616237428453246L40.433807692307695,41.66895548502606L40.489576923076925,41.70941352844238L40.65688461538462,41.86454984876843L41.1588076923077,42.33083115683664L41.60496153846154,42.670197751786986L42.44261538461539,56.985578536987305L42.665692307692304,57.468387285868346L43.00030769230769,57.44030714035034L43.22338461538462,57.71514362759062L43.334923076923076,57.68840736813017L44.00415384615385,58.14150916205513L44.05992307692308,58.155749638875335L44.95223076923077,58.56106095843846L45.677230769230775,58.93694824642607L45.733000000000004,58.970356782277435L45.84453846153846,59.00720755259198L46.17915384615385,59.07937659157648L46.68107692307693,59.185826513502334L46.79261538461538,59.17729165818956L46.84838461538461,59.235479566786026L47.015692307692305,59.24224615097046L47.35030769230769,59.35758458243477L47.852230769230765,59.53026215235394L48.01953846153846,59.58498424953886L48.07530769230769,59.61612939834595L48.632999999999996,59.86743609110516L49.46953846153846,60.1449367735121L49.58107692307692,60.19357601801556L49.69261538461539,60.25341431299847L50.47338461538462,60.59091832902696L50.75223076923077,60.699207252926314L50.86376923076923,60.73660029305353L51.031076923076924,60.807543330722396L51.47723076923077,60.976542896694625L51.811846153846155,61.14372703764174L51.92338461538462,61.166148715549056L52.03603846153846,72.81073278850981L52.37065384615384,72.14720673031279L52.649499999999996,71.54424985249838L53.20719230769231,71.52081436581084L53.31873076923077,71.57579580942792L53.54180769230769,71.47509866290623L53.876423076923075,71.24425676133897L54.0995,71.19889471266005L54.43411538461539,71.24564780129327L54.54565384615385,71.37244462966919L54.601423076923076,71.36166996426054L54.71296153846154,71.39382892184788L54.8245,71.406253973643L54.88026923076923,71.459608607822L55.15911538461538,71.46168337927925L55.21488461538462,71.4775742424859L55.7168076923077,71.5566749042935L56.05142307692308,71.50805923673842L56.162961538461545,71.52623706393773L56.4418076923077,71.51522662904527L56.72065384615385,71.60048087437949L56.8321923076923,71.5426230430603L57.501423076923075,71.6921008957757L57.891807692307694,71.71089172363281L57.94757692307692,71.74095233281454L58.05911538461538,71.7613935470581L58.11488461538461,71.73038985994127L58.17065384615385,71.75967242982652L58.226423076923076,71.7596960067749L58.337961538461535,71.79680612352159L58.50526923076923,71.81406444973418L58.728346153846154,71.83584955003526L59.00719230769231,71.85704522662694L59.1745,71.86965889400908L59.397576923076926,71.91063563028973L59.564884615384614,71.96132606930205L59.73219230769231,71.98087135950726L59.95526923076923,72.05021116468642L60.01103846153846,72.06230613920424L60.234115384615386,72.11556646558974L60.51296153846154,72.14847988552519L60.56873076923077,72.14763111538359L60.95911538461539,72.19091839260527L61.12642307692308,72.22196923361885L61.3495,72.24776241514418L61.516807692307694,72.28270345264012L61.90830769230769,80.57759258482193L62.13138461538461,80.69130420684814L62.298692307692306,80.5473197831048L62.354461538461535,80.69212940004137L62.410230769230765,80.89809762107002L62.800615384615384,80.22365543577408L63.135230769230766,80.29433912701079L63.24676923076923,80.2049117618137L63.30253846153846,80.2506274647183L63.525615384615385,80.30848529603746L63.74869230769231,80.28618150287205L63.916000000000004,80.22778140174019L63.97176923076923,80.27658568488228L64.02753846153846,80.32612085342407L64.25061538461539,80.2080003420512L64.75253846153846,80.00823285844591L64.97561538461538,80.08624898062813L65.03138461538461,80.07825639512804L65.08715384615384,80.08834732903375L65.19869230769231,80.00540362464058L65.25446153846154,80.0143157111274L65.58907692307692,79.92941512001886L65.81215384615385,79.94764010111493L65.86792307692308,79.960748884413L65.97946153846154,79.93884589936998L66.091,79.92835415734186L66.2583076923077,79.97534301545885L66.31407692307693,80.00323454538983L66.36984615384615,79.99359157350328L66.42561538461538,79.98218033048843L66.59292307692307,79.99611430697972L66.816,80.05696641074287L67.09484615384615,80.0588525666131L67.15061538461539,80.04253731833565L67.20638461538462,80.02806107203168L67.541,80.081934399075L68.0986923076923,80.08184009128148L68.266,80.13302564620972L68.48907692307692,80.1788592338562L68.71215384615385,80.15233516693115L68.82369230769231,80.16697645187378L69.10253846153846,80.17984946568808L70.441,80.28488477071127L70.55253846153846,80.3033455212911L70.60830769230769,80.32208919525146L70.83138461538461,80.35922288894653L70.94292307692308,80.36455127927994L71.166,80.37492513656616L71.27753846153846,80.38081937366063L71.66903846153846,100.80312490463258L72.00365384615385,89.83008305231732L72.22673076923077,89.58735836876764L72.61711538461539,88.95603842205473L72.67288461538462,88.91032271915013L72.72865384615383,88.88794819513959L72.78442307692308,88.93701182471382L73.06326923076922,88.59755092196995L73.17480769230768,88.61214505301582L73.34211538461538,88.43609597947862L73.39788461538463,88.38901281356812L73.50942307692307,88.23644638061523L73.95557692307692,87.91994942559137L74.01134615384615,87.87376218371922L74.17865384615384,87.8349781036377L74.56903846153847,87.82377905315825L74.73634615384614,87.77172115114L75.23826923076923,87.59487046135797L75.34980769230769,87.6172685623169L75.46134615384615,87.5778479046292L75.62865384615384,87.46630536185371L75.68442307692308,87.49127335018584L76.18634615384615,87.47017198138768L76.24211538461539,87.43996991051569L76.4651923076923,87.35964324739244L76.52096153846153,87.36096355650162L76.57673076923078,87.36775371763443L76.6325,87.36605617735123L76.85557692307692,87.3007008764479L76.91134615384615,87.2824051645067L77.07865384615384,87.22098721398248L77.13442307692308,87.17616743511626L77.58057692307693,87.0929879612393L77.80365384615385,87.06071111891006L77.91519230769231,87.04192029105293L78.02673076923078,87.03055620193481L78.0825,87.05366161134508L78.52865384615384,86.956807507409L78.58442307692309,86.94329791598851L78.75173076923078,86.95228073332046L79.19788461538461,86.91415680779352L79.30942307692308,86.91623157925078L79.5325,86.90769672393799L79.58826923076924,86.92648755179512L79.86711538461539,86.90276914172703L80.2575,86.89133432176378L80.87096153846154,86.80268499586319L80.9825,86.82666275236343L81.31711538461539,86.79705010520088L81.48442307692308,86.75944487253827L81.5413076923077,85.85871113671197L81.76438461538461,94.67153867085776L81.98746153846153,94.39575910568239L82.099,94.32382583618165L82.37784615384616,93.92462094624838L82.43361538461538,93.75564495722455L82.48938461538462,93.60116879145306L82.93553846153847,93.69351969824898L83.27015384615386,93.47628169589574L83.49323076923076,93.28566206826105L83.549,93.27618413501317L83.60476923076922,93.23716428544788L84.10669230769231,93.30723497602675L84.38553846153846,93.13689152399701L84.72015384615383,93.042913807763L85.16630769230768,93.01950189802382L85.27784615384616,93.0313375261095L86.39323076923077,92.83121638827855L86.449,92.8094784418742L86.67207692307693,92.6837189992269L86.72784615384614,92.65189011891684L86.78361538461539,92.66683790418837L87.78746153846154,92.45789898766412L88.06630769230769,92.39615095986261L88.4566923076923,92.31884214613173L88.51246153846154,92.30747805701363L88.84707692307693,92.25598600175647L88.95861538461538,92.25023322635228L89.23746153846153,92.25152995851306L89.34899999999999,92.22889608807034L89.46053846153845,92.25341611438328L89.68361538461538,92.21192068523831L90.68746153846153,92.18666977352567L90.79899999999999,92.17502276102704L90.91053846153845,92.17193418078953L91.3566923076923,92.147626347012L91.46934615384616,101.86408758163454L91.80396153846155,99.91839991675484L91.91550000000001,99.80167044533624L92.02703846153847,99.77151552836102L92.0828076923077,99.58620071411134L92.2501153846154,99.66296725802952L92.52896153846154,99.25897624757556L92.97511538461538,98.94858572218153L93.3655,98.63831308152942L93.70011538461537,98.39919567108156L93.9231923076923,98.39101446999445L93.97896153846153,98.40475983089871L94.03473076923076,98.38071134355334L94.0905,98.35607343249852L94.42511538461538,98.12046898735895L94.9828076923077,97.98136499192981L95.09434615384616,97.96295139524672L95.26165384615385,97.93133470747206L95.31742307692308,97.88543038898045L95.48473076923077,97.80180295308432L95.81934615384615,97.73996061748929L95.93088461538461,97.75061739815607L96.09819230769232,97.6635241508484L96.2655,97.6421634356181L96.43280769230769,97.62528234057957L96.48857692307692,97.58965757158069L97.49242307692307,97.32307301627266L98.10588461538462,97.23942200342816L98.32896153846153,97.23694642384848L99.1655,96.99665016598172L99.33280769230768,96.98158449596829L99.38857692307693,96.9767983754476L99.50011538461538,96.95536692937216L99.55588461538461,96.94478087955052L100.67126923076923,96.78382105297513L100.72703846153847,96.7626961072286L100.78280769230768,96.761847337087L101.06165384615385,96.77771462334528L101.22896153846153,96.77462604310779L101.39738461538461,103.13571029239232L101.50892307692308,104.46519083446927L101.732,104.15694581137764L101.95507692307692,103.79152668846979L102.17815384615385,103.23423835966322L103.07046153846154,102.9012139638265L103.5723846153846,102.62029462390477L103.62815384615385,102.61763042873807L104.24161538461539,102.432103421953L104.68776923076922,102.1820698844062L104.74353846153846,102.18532350328235L104.91084615384615,102.22606447007922L105.02238461538461,102.17608133951825L105.07815384615385,102.10619926452638L105.5243076923077,102.03426599502565L105.58007692307692,102.01450851228503L105.97046153846155,101.93521923489041L106.08200000000001,101.9322721163432L106.807,101.75723685158624L106.86276923076923,101.73309405644736L107.03007692307692,101.7032692167494L107.42046153846154,101.60099241468642L108.08969230769232,101.49081733491687L108.36853846153846,101.44602113299901L108.42430769230768,101.43010669284398L108.53584615384617,101.39250146018135L108.92623076923077,101.31071302625868L109.31661538461537,101.25999901029799L109.37238461538462,101.24120818244087L109.87430769230768,101.12594048182171L110.09738461538461,101.0864019393921L110.20892307692307,101.06235345204672L110.432,101.0087866253323L110.93392307692308,100.89752700593738L111.26965384615384,109.01827679740059L111.32542307692309,108.94962072372438L111.60426923076923,108.12676164839003L112.05042307692308,108.23196199205188L112.16196153846154,108.04535044564142L112.55234615384614,107.77070257398817L112.60811538461539,107.79611852433948L112.8311923076923,107.60014692942303L113.11003846153845,107.53686639997694L113.27734615384615,107.35730436113147L113.38888461538461,107.27028184466893L113.5561923076923,107.02178080876669L113.7235,106.96630424923369L113.94657692307692,106.8229799800449L114.39273076923077,106.74701505237157L114.83888461538461,106.43693102730646L114.95042307692307,106.37551307678224L115.06196153846155,106.33368757035998L115.22926923076923,106.31456666522557L115.28503846153846,106.29702541563246L115.61965384615385,106.19276814990575L115.67542307692307,106.1586758825514L116.12157692307692,106.05623404184979L116.28888461538462,105.97890165117053L116.34465384615385,105.97993903689915L116.40042307692308,105.96770260069106L116.4561923076923,105.91682354609173L116.56773076923076,105.85995594660443L116.73503846153847,105.75892872280546L117.12542307692307,105.61602883868748L117.18119230769231,105.59228685167102L117.57157692307692,105.43222294913399L117.62734615384616,105.41369146770901L117.68311538461538,105.41505893071493L118.18503846153847,105.3215527534485L118.40811538461537,105.26885827382407L118.51965384615386,105.24483336342706L118.57542307692307,105.24643659591676L118.68696153846155,105.22132714589438L118.96580769230769,105.13067377938165L119.02157692307692,105.09957578447131L119.13311538461538,105.0830954975552L119.18888461538461,105.07493787341649L119.24465384615385,105.05192677179974L119.5235,104.98925924301149L120.30426923076922,104.79564534293281L120.80619230769231,104.6442813343472L121.08615384615385,115.66643397013348L121.47653846153847,113.24838214450413L121.5323076923077,112.87195258670384L122.03423076923077,112.5241690211826L122.42461538461538,111.88961903254193L122.92653846153846,111.36057588789198L123.09384615384614,111.31891542010838L123.48423076923078,111.07239484786989L123.59576923076924,110.98857879638673L123.81884615384615,110.7879153887431L124.37653846153846,110.48662556542291L124.43230769230769,110.46700954437257L124.59961538461539,110.31760242250232L124.87846153846154,110.22678401735095L125.10153846153845,110.1221259435018L125.82653846153846,109.76151651806303L125.93807692307693,109.7514491611057L125.99384615384615,109.70974153942534L126.32846153846154,109.5103512869941L126.38423076923077,109.47269890043471L126.44,109.42662954330446L126.55153846153846,109.36448070738051L126.66307692307691,109.33434936735365L127.3323076923077,109.1534905963474L128.33615384615385,108.8396814134386L128.67076923076925,108.75907182693483L129.0053846153846,108.66872496075102L129.06115384615384,108.64189439349705L129.39576923076922,108.4925815794203L129.61884615384616,108.4078696038988L129.73038461538462,108.3870275815328L129.84192307692308,108.35706128014459L130.17653846153846,108.2791394657559L130.34384615384616,108.23622941970827L130.45538461538462,108.2195133633084L130.62269230769232,108.1914332177904L130.79,108.14312405056425L130.90265384615384,123.2233410411411L131.40457692307692,115.75274917814468L131.51611538461538,115.24237897660998L132.18534615384615,114.68221426010132L132.24111538461537,114.60431602266101L132.2968846153846,114.5316282908122L133.07765384615385,114.23293193181357L133.30073076923077,114.11655611462065L133.52380769230768,113.97528303994073L133.74688461538463,113.83601400587294L133.80265384615385,113.78155125512018L133.96996153846155,113.74649233288237L134.0815,113.62431658638849L134.19303846153846,113.53083398607043L134.6391923076923,113.51234965854222L134.75073076923078,113.46842580371434L134.91803846153846,113.41028504901463L135.08534615384616,113.26134946611194L135.25265384615383,113.19163242975873L135.3641923076923,113.14999553892348L135.5315,113.01947355270387L135.6988076923077,112.95166624916925L136.5911153846154,112.58610566457114L136.9815,112.4127679400974L137.26034615384614,112.27927525838217L137.3161153846154,112.25777308146161L137.3718846153846,112.23162624571059L137.4834230769231,112.18284553951689L137.5391923076923,112.15636862648859L137.65073076923076,112.10409853193495L137.76226923076925,112.05734544330174L137.98534615384614,111.98835929234824L138.20842307692308,111.94264358944365L138.48726923076924,111.84371471405031L138.5988076923077,111.79854128095839L138.9891923076923,111.7090431849162L139.10073076923075,111.68612639109296L139.1565,111.66632175445558L139.3238076923077,111.63208802541098L139.43534615384615,111.62077109018963L139.65842307692307,111.60179164674548L139.93726923076923,111.52082840601605L140.0488076923077,111.4812191327413L140.1045769230769,111.46148522694907L140.66226923076923,111.36371162202624L140.71803846153847,111.35126299328276L140.88646153846153,119.51155132717558L141.05376923076923,118.42998239729141L141.22107692307694,118.69220521714954L141.27684615384615,118.57750336329144L141.44415384615385,118.66230964660645L141.49992307692307,118.57802205615575L141.61146153846153,118.40197298261856L141.8903076923077,118.23964569303726L141.94607692307693,118.25645605723065L142.33646153846152,117.85569508870444L142.39223076923076,117.7697335349189L142.61530769230768,117.77060588200888L142.72684615384617,117.71930244233874L142.83838461538463,117.61051840252348L143.06146153846154,117.47495094935101L143.61915384615384,117.02967670228747L143.73069230769232,116.93303479088678L143.84223076923078,116.86602910359701L143.898,116.79562833574084L144.1210769230769,116.66911443074545L144.28838461538462,116.60505586200291L144.73453846153848,116.27387046813965L144.9576153846154,116.14542325337729L145.12492307692307,116.06099420123631L145.73838461538463,115.82291417651707L145.96146153846155,115.74423789978027L146.073,115.71016920937433L146.24030769230768,115.60888263914322L146.35184615384617,115.55067115359837L146.4076153846154,115.54984596040515L146.51915384615384,115.5026920636495L146.63069230769233,115.49606694115533L146.68646153846154,115.44525861740112L146.798,115.40508349736533L146.90953846153846,115.39683156543309L146.9653076923077,115.3790781233046L147.18838461538462,115.32669014400908L147.3556923076923,115.30275954140558L147.52300000000002,115.27670701344809L147.80184615384616,115.19220723046197L148.4710769230769,114.88495243920221L148.69415384615385,114.87158430947198L148.86146153846153,114.81316063139175L149.41915384615385,114.67313713497587L149.75376923076922,114.60735744900175L149.80953846153847,114.5746797985501L149.92107692307692,114.55808162689209L150.08838461538463,114.52266905042862L150.2556923076923,114.46745183732776L150.31146153846154,114.46408033370972L150.3672307692308,114.45681863360936L150.87026923076925,123.07053883870444L150.92603846153847,122.2340758641561L150.98180769230768,121.98496182759604L151.09334615384617,121.52261786990697L151.76257692307695,121.06560230255127L151.81834615384614,121.10054334004721L151.87411538461538,121.16688887278241L151.92988461538462,121.19577063454523L152.37603846153846,120.87939156426324L152.87796153846153,120.54179324044122L153.82603846153845,119.77014329698352L154.6068076923077,119.49412796232437L154.77411538461538,119.35467031266955L154.82988461538463,119.29047028223675L154.88565384615384,119.26686975691055L154.9971923076923,119.23871888054742L155.44334615384616,119.03425958421496L155.5548846153846,118.98012691073949L155.77796153846154,118.84524318906998L156.33565384615386,118.76317183176678L156.7818076923077,118.64417897330391L156.83757692307694,118.62847672568428L157.45103846153847,118.3686587545607L157.8971923076923,118.25647963417902L158.23180769230768,118.08458010355633L158.28757692307693,118.06510554419624L158.3991153846154,118.02476538552179L158.51065384615384,117.97864887449478L158.7895,117.8933710522122L159.84911538461537,117.48704592386883L159.96065384615383,117.44875695970325L160.18373076923075,117.35652393764921L160.2395,117.33820464875964L160.74253846153846,124.82822391721939L160.85407692307695,124.95370043648614L161.02138461538462,124.6492984559801L161.07715384615386,124.61553626590306L161.13292307692308,124.61867200003731L161.6906153846154,124.18905284669665L161.74638461538464,124.11674234602188L161.91369230769232,123.93171045515274L162.02523076923077,123.81052494049072L162.2483076923077,123.71708949406943L162.35984615384615,123.63636202282377L162.52715384615385,123.53168037202624L162.63869230769228,123.41037697262236L162.75023076923077,123.31142452028064L162.86176923076923,123.22138415442573L163.3636923076923,123.03821484247845L163.58676923076922,122.90807008743286L163.80984615384614,122.74027294582793L163.92138461538462,122.62755155563354L164.0886923076923,122.53857215245566L164.256,122.46239503224692L164.5906153846154,122.28280941645306L164.64638461538462,122.25116915173002L164.86946153846154,122.17303514480591L165.03676923076924,122.14707692464194L165.20407692307694,122.0502699746026L165.31561538461537,122.02671660317316L165.81753846153845,121.7043725649516L165.98484615384615,121.59254709879559L166.0406153846154,121.59304221471152L166.0963846153846,121.54485093222725L166.15215384615385,121.55154678556656L166.31946153846155,121.50693919923572L166.54253846153847,121.38318379720053L166.87715384615385,121.23474333021377L166.9329230769231,121.23740752538046L167.10023076923076,121.18758943345813L167.5463846153846,120.97683509190878L167.82523076923076,120.83971156014337L167.99253846153846,120.77711476220026L168.15984615384613,120.72012927797107L168.21561538461538,120.68518824047514L168.55023076923078,120.54424524307251L168.66176923076924,120.49980269538032L168.9963846153846,120.39526250627307L169.16369230769232,120.33455186420018L169.331,120.2952962451511L169.38676923076923,120.28690285152861L169.60984615384615,120.22878567377728L170.61480769230766,127.90935383902656L170.83788461538464,127.97803348965117L170.94942307692307,127.83817503187393L171.22826923076923,127.23245965109932L171.50711538461536,127.03302224477133L172.23211538461538,126.40467299355402L172.4551923076923,126.36268244849312L172.62249999999997,126.18915610843236L173.45903846153848,125.5781830681695L174.0725,125.24044328265721L174.12826923076923,125.23678885565865L174.29557692307694,125.13573805491131L174.6301923076923,124.96902545293173L175.02057692307693,124.74535094367134L175.07634615384615,124.71038632922703L175.1321153846154,124.6720502111647L175.18788461538463,124.65460326936511L175.24365384615385,124.64512533611723L175.29942307692306,124.6245426601834L175.74557692307692,124.48286877738106L177.0282692307692,123.90007019042969L177.08403846153846,123.85164313846165L177.1398076923077,123.82705238130359L177.5301923076923,123.68144114812216L178.14365384615382,123.44142781363594L178.2551923076923,123.40535508261787L178.9244230769231,123.13148525026111L178.9801923076923,123.09239466985068L179.1475,123.0089322725932L179.25903846153844,122.96415964762372L179.31480769230768,122.94586393568252L179.42634615384617,122.90137423409357L180.43130769230768,130.24071322547064L180.71015384615384,130.78423261642456L180.87746153846152,130.97902536392212L181.04476923076925,130.91298633151587L181.5466923076923,130.96096542146472L181.60246153846154,130.9802513652378L181.93707692307692,131.0179509056939L182.04861538461537,131.12293905682037L182.10438461538462,131.1141684320238L182.439,130.91145382987128L182.60630769230767,130.7741181055705L182.6620769230769,130.74261930253772L182.94092307692307,130.65925121307373L183.05246153846153,130.63312795427112L183.16400000000002,130.6105176607768L183.3313076923077,130.61490297317505L183.38707692307693,130.62143378787573L183.83323076923077,130.5145123269823L184.11207692307693,130.38877646128338L184.22361538461539,130.36682632234363L184.27938461538463,130.37543190850153L184.33515384615384,130.35357607735529L184.94861538461538,130.16677591535782L185.50630769230767,129.96021827061972L185.95246153846153,129.80852418475683L186.90053846153847,129.36046785778473L187.17938461538463,129.25936990314062L187.29092307692306,129.22648006015356L187.3466923076923,129.21169731352066L187.51399999999998,129.1501143243578L188.0716923076923,129.02154922485352L188.40630769230768,128.93822828928631L188.62938461538462,128.8603064748976L188.90823076923078,128.75970363616943L189.0197692307692,128.73261372248334L189.1313076923077,128.68083874384564L189.24284615384613,128.65891218185425L189.35438461538462,128.62764914830527L189.57746153846153,128.5538532998827L189.63323076923078,128.55663537979126L189.80053846153845,128.50776036580405L190.13515384615383,128.43453036414252L190.19203846153846,136.7896350224813L190.35934615384613,136.52198950449628L190.41511538461538,136.60917705959747L190.80550000000002,136.58411476347183L190.91703846153845,136.59430000517105L190.9728076923077,136.53295278549194L191.0285769230769,136.63445154825848L191.47473076923075,136.55113061269125L192.31126923076923,136.11818710962933L192.42280769230769,136.07650306489734L192.53434615384617,135.96335728963217L192.6458846153846,135.8105786641439L192.7574230769231,135.7555264896817L193.25934615384614,135.39083825217355L193.48242307692306,135.22950119442413L193.59396153846154,135.1644759707981L194.20742307692308,134.74459409713745L194.4305,134.57255310482452L194.98819230769232,134.284348487854L195.49011538461536,133.93045849270294L195.76896153846153,133.7965650028653L196.15934615384614,133.60974126391943L196.32665384615382,133.50039137734308L196.38242307692306,133.47629573610095L196.71703846153846,133.32238541709052L196.7728076923077,133.28428506851196L196.88434615384617,133.21553468704224L197.05165384615384,133.14289410909018L197.3305,133.00487465328644L197.49780769230767,132.92853249443903L197.55357692307692,132.9194082154168L197.66511538461538,132.88517448637222L198.55742307692307,132.5105839305454L198.9478076923077,132.36117680867514L199.1151153846154,132.2777851422628L199.17088461538464,132.25274642308554L199.56126923076923,132.1197252803379L199.61703846153847,132.09994422064887L200.0074230769231,131.92832761340674L200.12007692307694,141.42201026280722L201.45853846153844,139.73569260703195L201.62584615384617,139.3779359923469L201.7373846153846,139.2202769385444L202.01623076923076,139.06063742107818L202.18353846153846,138.8005836804708L202.2393076923077,138.75107208887738L202.35084615384613,138.6970337231954L202.40661538461538,138.62684514787463L202.797,138.27316734525894L202.90853846153846,138.2530090543959L203.0200769230769,138.1163099077013L203.522,137.7461518181695L203.80084615384615,137.5508875317044L204.30276923076923,137.21222824520538L204.4143076923077,137.16370688544382L204.52584615384617,137.11169613732233L204.7489230769231,136.98888381322226L204.91623076923076,136.96624994277954L205.6412307692308,136.52753008736505L205.697,136.4877321985033L205.75276923076922,136.43857426113556L206.0873846153846,136.2784396277534L206.53353846153848,136.09105004204645L206.86815384615386,135.99096589618262L206.92392307692307,135.97564087973703L206.9796923076923,135.94044049580893L207.2027692307692,135.83677265379166L207.48161538461537,135.74597782558868L207.87199999999999,135.5633036295573L208.31815384615385,135.35891506406998L208.54123076923076,135.2687568134732L208.76430769230768,135.12967639499243L208.87584615384617,135.0749542978075L209.21046153846152,134.94393719567194L209.37776923076925,134.8732770813836L209.48930769230768,134.8226809501648L209.60084615384616,134.7805960973104L209.71238461538462,134.75213872061838L209.8796923076923,134.685345225864L209.93657692307693,140.3427282969157L210.10388461538463,142.86058134502838L210.7731153846154,142.11031569374933L211.05196153846154,141.8972036573622L211.10773076923078,141.84950749079388L211.3308076923077,141.63349548975629L212.33465384615383,141.00017150243124L212.55773076923074,140.9701344701979L212.72503846153847,140.806958410475L213.0038846153846,140.58257659276327L213.3385,140.27742014990915L213.39426923076925,140.23646699057687L213.61734615384617,140.16441583633423L213.7288846153846,140.14086246490479L214.0635,139.84101083543567L214.11926923076922,139.80524460474652L214.45388461538462,139.58949195014108L214.84426923076924,139.36638328764175L215.1788846153846,139.23470603095163L215.34619230769232,139.1581045256721L215.6808076923077,139.03394831551446L216.2942692307692,138.80390803019208L216.4058076923077,138.79011551539105L216.46157692307693,138.76573695076837L216.7961923076923,138.5840529865689L216.96349999999998,138.50226455264624L217.07503846153847,138.4614528550042L217.1308076923077,138.43544748094348L217.24234615384614,138.38298877080283L217.5211923076923,138.26022360059952L218.0788846153846,137.98908869425458L218.4135,137.8584252463447L218.52503846153846,137.8258890575833L218.5808076923077,137.80214707056683L218.80388461538462,137.71260182062787L218.85965384615386,137.68591271506418L219.08273076923078,137.55687607659235L219.1942692307692,137.51604080200195L219.5288846153846,137.33386172188654L219.58465384615386,137.3168863190545L219.75196153846153,137.24177016152277L219.92038461538462,146.387480629815L220.58961538461537,145.93239837222632L220.86846153846153,145.47502915064496L221.03576923076923,145.33936738967896L221.5376923076923,144.8397954305013L221.59346153846155,144.70656209521826L221.92807692307693,144.42408667670358L221.98384615384614,144.36111264758642L222.76461538461538,143.50178003311157L222.9876923076923,143.31165552139282L223.0992307692308,143.21819649802316L223.21076923076922,143.11179372999405L223.37807692307695,142.9469672838847L223.54538461538462,142.82679557800293L224.0473076923077,142.52607160144385L224.38192307692307,142.30164262983536L224.49346153846156,142.215940422482L225.1069230769231,141.8268500434028L225.16269230769228,141.79365370008682L225.4973076923077,141.62097613016766L225.8876923076923,141.39421304066977L227.22615384615384,140.75358019934762L227.28192307692308,140.71361727184723L227.39346153846154,140.65036031934952L227.56076923076924,140.54468843672012L227.6723076923077,140.49670934677124L228.84346153846155,139.9724758995904L229.01076923076923,139.88377941979303L229.23384615384614,139.7923951678806L229.2896153846154,139.7609435187446L229.34538461538463,139.73708364698624L229.45692307692306,139.6787778536479L229.62534615384618,145.13080570432876L229.79265384615385,146.9206025865343L229.9041923076923,147.04202387068008L230.01573076923077,146.78743998209637L230.4061153846154,147.50686698489721L230.6291923076923,147.362953291999L230.79649999999998,147.14274459415014L231.07534615384617,146.71482298109268L231.5215,146.44491407606338L231.74457692307692,146.31248235702515L231.85611538461538,146.15241845448813L231.96765384615384,146.07244544559057L232.02342307692308,145.95425420337256L232.35803846153846,145.7261708047655L232.69265384615386,145.39262771606445L232.80419230769232,145.31503597895306L232.9715,145.1854099167718L233.47342307692307,144.91080919901532L233.58496153846156,144.83722554312814L233.64073076923077,144.80417066150244L233.8638076923077,144.69581100675796L234.14265384615385,144.55317046907214L234.25419230769228,144.48430220286053L234.81188461538463,144.11423842112225L234.9234230769231,144.07623238033722L235.03496153846154,144.0028844939338L235.75996153846154,143.5798904630873L235.98303846153846,143.48702086342706L236.09457692307691,143.4146160549588L236.65226923076924,143.09802479214142L236.93111538461537,142.93675846523712L237.32150000000001,142.78671476576065L237.4888076923077,142.74981684154938L237.60034615384615,142.70494990878638L238.71573076923076,142.1647548675537L238.7715,142.14740223354767L238.82726923076925,142.1236602465312L238.93880769230768,142.07148445977106L239.1061153846154,141.99709918763904L239.21765384615384,141.96626053916086L239.4976153846154,146.67625109354657L239.7206923076923,149.8339825206333L240.11107692307692,149.44496287239923L240.16684615384617,149.6183713277181L240.22261538461538,149.64128812154135L240.5014615384615,149.7674012184143L240.55723076923076,149.68268924289282L240.78030769230767,149.57751247617935L241.3937692307692,149.17705800798205L241.7283846153846,148.82328589757284L242.063,148.49009646309747L242.2303076923077,148.33918041653104L242.34184615384615,148.25522290335763L242.67646153846155,148.02798827489218L242.84376923076923,147.84604496426053L243.06684615384617,147.64872948328656L243.2899230769231,147.45438469780817L243.40146153846152,147.35201358795166L243.56876923076925,147.23181830512155L243.68030769230768,147.11228317684598L243.90338461538462,146.91598150465225L244.01492307692308,146.85588386323718L244.18223076923078,146.7449778980679L244.46107692307694,146.63756132125854L244.68415384615386,146.51578638288711L244.73992307692308,146.4786055352953L244.85146153846154,146.40653080410428L245.35338461538464,146.0699698660109L245.40915384615383,146.03719790776572L246.02261538461536,145.6945776939392L246.13415384615385,145.5905326207479L246.1899230769231,145.55575662189062L246.58030769230768,145.41092342800567L246.69184615384614,145.35417371326025L246.7476153846154,145.32144890891183L246.80338461538463,145.29280291663278L246.85915384615384,145.26019599702624L247.0822307692308,145.12620819939508L247.19376923076922,145.0536855061849L248.42069230769232,144.42434602313574L248.588,144.33979908625287L249.0899230769231,144.1203212738037L249.25723076923077,144.03537352879843L249.36876923076923,143.98006200790405L249.59296153846157,151.60305526521472L249.64873076923075,152.13572925991483L249.76026923076924,151.82283957799277L250.20642307692307,151.71900669733685L250.4852692307692,151.48693879445395L250.87565384615385,151.28285672929553L252.43719230769233,150.11042224036325L252.82757692307692,149.72208632363214L253.3852692307692,149.3753637207879L253.44103846153845,149.30656618542142L253.71988461538461,149.07122108671402L254.22180769230766,148.79860083262128L254.2775769230769,148.7706149948968L254.83526923076923,148.42016723420886L254.89103846153847,148.40778933631051L254.9468076923077,148.3698540263706L255.05834615384617,148.30164591471356L255.1698846153846,148.22572814093698L255.2814230769231,148.14021454917062L255.33719230769233,148.10772551430597L255.39296153846152,148.07238366868762L255.5045,148.0118380652534L256.50834615384616,147.43842310375638L256.7871923076923,147.23530769348145L257.0660384615385,147.06220573849149L257.2333461538461,146.96669552061294L257.40065384615383,146.89495086669922L257.67949999999996,146.7104376686944L258.29296153846155,146.42881102032132L258.7948846153846,146.18358718024362L258.9621923076923,146.10384994082983L259.0179615384615,146.08225345611572L259.46523076923074,156.5106913778517L259.79984615384615,155.84351089265613L260.6363846153846,155.50096140967477L260.6921538461539,155.46696345011395L260.8036923076923,155.34756978352866L261.0267692307692,155.1306854354011L261.24984615384614,155.07949988047284L261.41715384615384,155.03951337602405L261.75176923076924,154.68913634618124L261.8633076923077,154.61706161499023L262.3652307692308,154.38082059224448L262.5883076923077,154.25305710898508L262.9229230769231,154.07238695356583L263.20176923076923,153.90734831492108L263.53638461538463,153.68798838721384L263.75946153846155,153.65302377276953L264.0383076923077,153.52118147744073L264.4286923076923,153.32249853346084L264.6517692307692,153.27270401848688L265.1536923076923,153.07963238822092L265.321,153.01526731914944L265.9902307692308,152.78098318311905L266.3806153846154,152.68422338697647L266.54792307692304,152.62622409396704L266.6594615384615,152.59246190388998L266.7152307692308,152.57871654298572L266.9383076923077,152.48999648624L266.99407692307693,152.45720095104642L267.04984615384615,152.43435488806833L267.7190769230769,152.17868645985922L268.0536923076923,152.07266092300415L268.1094615384615,152.03972392612036L268.221,152.01121939553155L268.4998461538462,151.90203454759387L268.55561538461535,151.88522418340048L268.7229230769231,151.82583385043677L269.05753846153846,151.71961969799466L269.22596153846155,160.94336986541748L269.61634615384617,160.38023445341324L270.17403846153843,159.97468736436633L270.50865384615383,159.78684981664023L270.73173076923075,159.7126767370436L270.78749999999997,159.59960169262357" style="fill: none;" fill="none"></path></g></g></g></g></g></g><g transform="translate(40, 178)" clip-path="url(#clip_1)"><clipPath id="clip_1"><rect width="290" height="22"></rect></clipPath><g><g><line x1="0" y1="0" x2="0" y2="5" style="visibility: inherit;" fill="rgb(0, 0, 0)" stroke="rgb(204, 204, 204)" stroke-width="1px"></line><line x1="22.30769230769231" y1="0" x2="22.30769230769231" y2="5" style="visibility: inherit;" fill="rgb(0, 0, 0)" stroke="rgb(204, 204, 204)" stroke-width="1px"></line><line x1="44.61538461538462" y1="0" x2="44.61538461538462" y2="5" style="visibility: inherit;" fill="rgb(0, 0, 0)" stroke="rgb(204, 204, 204)" stroke-width="1px"></line><line x1="66.92307692307692" y1="0" x2="66.92307692307692" y2="5" style="visibility: inherit;" fill="rgb(0, 0, 0)" stroke="rgb(204, 204, 204)" stroke-width="1px"></line><line x1="89.23076923076924" y1="0" x2="89.23076923076924" y2="5" style="visibility: inherit;" fill="rgb(0, 0, 0)" stroke="rgb(204, 204, 204)" stroke-width="1px"></line><line x1="111.53846153846155" y1="0" x2="111.53846153846155" y2="5" style="visibility: inherit;" fill="rgb(0, 0, 0)" stroke="rgb(204, 204, 204)" stroke-width="1px"></line><line x1="133.84615384615384" y1="0" x2="133.84615384615384" y2="5" style="visibility: inherit;" fill="rgb(0, 0, 0)" stroke="rgb(204, 204, 204)" stroke-width="1px"></line><line x1="156.15384615384616" y1="0" x2="156.15384615384616" y2="5" style="visibility: inherit;" fill="rgb(0, 0, 0)" stroke="rgb(204, 204, 204)" stroke-width="1px"></line><line x1="178.46153846153848" y1="0" x2="178.46153846153848" y2="5" style="visibility: inherit;" fill="rgb(0, 0, 0)" stroke="rgb(204, 204, 204)" stroke-width="1px"></line><line x1="200.76923076923077" y1="0" x2="200.76923076923077" y2="5" style="visibility: inherit;" fill="rgb(0, 0, 0)" stroke="rgb(204, 204, 204)" stroke-width="1px"></line><line x1="223.0769230769231" y1="0" x2="223.0769230769231" y2="5" style="visibility: inherit;" fill="rgb(0, 0, 0)" stroke="rgb(204, 204, 204)" stroke-width="1px"></line><line x1="245.3846153846154" y1="0" x2="245.3846153846154" y2="5" style="visibility: inherit;" fill="rgb(0, 0, 0)" stroke="rgb(204, 204, 204)" stroke-width="1px"></line><line x1="267.6923076923077" y1="0" x2="267.6923076923077" y2="5" style="visibility: inherit;" fill="rgb(0, 0, 0)" stroke="rgb(204, 204, 204)" stroke-width="1px"></line><line x1="290" y1="0" x2="290" y2="5" style="visibility: inherit;" fill="rgb(0, 0, 0)" stroke="rgb(204, 204, 204)" stroke-width="1px"></line></g><g transform="translate(0, 8)"><text x="0" y="0" dx="0em" dy="0.95em" style="text-anchor: middle; visibility: hidden; font-family: &quot;Helvetica Neue&quot;, sans-serif; font-size: 12px; font-weight: 200;" fill="rgb(50, 49, 63)" stroke="none" stroke-width="1px">-20k</text><text x="22.30769230769231" y="0" dx="0em" dy="0.95em" style="text-anchor: middle; visibility: inherit; font-family: &quot;Helvetica Neue&quot;, sans-serif; font-size: 12px; font-weight: 200;" fill="rgb(50, 49, 63)" stroke="none" stroke-width="1px">0</text><text x="44.61538461538462" y="0" dx="0em" dy="0.95em" style="text-anchor: middle; visibility: hidden; font-family: &quot;Helvetica Neue&quot;, sans-serif; font-size: 12px; font-weight: 200;" fill="rgb(50, 49, 63)" stroke="none" stroke-width="1px">20k</text><text x="66.92307692307692" y="0" dx="0em" dy="0.95em" style="text-anchor: middle; visibility: inherit; font-family: &quot;Helvetica Neue&quot;, sans-serif; font-size: 12px; font-weight: 200;" fill="rgb(50, 49, 63)" stroke="none" stroke-width="1px">40k</text><text x="89.23076923076924" y="0" dx="0em" dy="0.95em" style="text-anchor: middle; visibility: hidden; font-family: &quot;Helvetica Neue&quot;, sans-serif; font-size: 12px; font-weight: 200;" fill="rgb(50, 49, 63)" stroke="none" stroke-width="1px">60k</text><text x="111.53846153846155" y="0" dx="0em" dy="0.95em" style="text-anchor: middle; visibility: inherit; font-family: &quot;Helvetica Neue&quot;, sans-serif; font-size: 12px; font-weight: 200;" fill="rgb(50, 49, 63)" stroke="none" stroke-width="1px">80k</text><text x="133.84615384615384" y="0" dx="0em" dy="0.95em" style="text-anchor: middle; visibility: hidden; font-family: &quot;Helvetica Neue&quot;, sans-serif; font-size: 12px; font-weight: 200;" fill="rgb(50, 49, 63)" stroke="none" stroke-width="1px">100k</text><text x="156.15384615384616" y="0" dx="0em" dy="0.95em" style="text-anchor: middle; visibility: inherit; font-family: &quot;Helvetica Neue&quot;, sans-serif; font-size: 12px; font-weight: 200;" fill="rgb(50, 49, 63)" stroke="none" stroke-width="1px">120k</text><text x="178.46153846153848" y="0" dx="0em" dy="0.95em" style="text-anchor: middle; visibility: hidden; font-family: &quot;Helvetica Neue&quot;, sans-serif; font-size: 12px; font-weight: 200;" fill="rgb(50, 49, 63)" stroke="none" stroke-width="1px">140k</text><text x="200.76923076923077" y="0" dx="0em" dy="0.95em" style="text-anchor: middle; visibility: inherit; font-family: &quot;Helvetica Neue&quot;, sans-serif; font-size: 12px; font-weight: 200;" fill="rgb(50, 49, 63)" stroke="none" stroke-width="1px">160k</text><text x="223.0769230769231" y="0" dx="0em" dy="0.95em" style="text-anchor: middle; visibility: hidden; font-family: &quot;Helvetica Neue&quot;, sans-serif; font-size: 12px; font-weight: 200;" fill="rgb(50, 49, 63)" stroke="none" stroke-width="1px">180k</text><text x="245.3846153846154" y="0" dx="0em" dy="0.95em" style="text-anchor: middle; visibility: inherit; font-family: &quot;Helvetica Neue&quot;, sans-serif; font-size: 12px; font-weight: 200;" fill="rgb(50, 49, 63)" stroke="none" stroke-width="1px">200k</text><text x="267.6923076923077" y="0" dx="0em" dy="0.95em" style="text-anchor: middle; visibility: hidden; font-family: &quot;Helvetica Neue&quot;, sans-serif; font-size: 12px; font-weight: 200;" fill="rgb(50, 49, 63)" stroke="none" stroke-width="1px">220k</text><text x="290" y="0" dx="0em" dy="0.95em" style="text-anchor: middle; visibility: hidden; font-family: &quot;Helvetica Neue&quot;, sans-serif; font-size: 12px; font-weight: 200;" fill="rgb(50, 49, 63)" stroke="none" stroke-width="1px">240k</text></g><line x1="0" y1="0" x2="290" y2="0" fill="rgb(0, 0, 0)" stroke="rgb(204, 204, 204)" stroke-width="1px"></line></g></g></g></g></svg>