<svg viewBox="0 0 330 200" xmlns="http://www.w3.org/2000/svg"><g><g><g><g><g><line x1="40" y1="178" x2="35" y2="178" style="visibility: inherit;" fill="rgb(0, 0, 0)" stroke="rgb(204, 204, 204)" stroke-width="1px"></line><line x1="40" y1="155.75000000000003" x2="35" y2="155.75000000000003" style="visibility: inherit;" fill="rgb(0, 0, 0)" stroke="rgb(204, 204, 204)" stroke-width="1px"></line><line x1="40" y1="133.5" x2="35" y2="133.5" style="visibility: inherit;" fill="rgb(0, 0, 0)" stroke="rgb(204, 204, 204)" stroke-width="1px"></line><line x1="40" y1="111.25000000000003" x2="35" y2="111.25000000000003" style="visibility: inherit;" fill="rgb(0, 0, 0)" stroke="rgb(204, 204, 204)" stroke-width="1px"></line><line x1="40" y1="89" x2="35" y2="89" style="visibility: inherit;" fill="rgb(0, 0, 0)" stroke="rgb(204, 204, 204)" stroke-width="1px"></line><line x1="40" y1="66.74999999999999" x2="35" y2="66.74999999999999" style="visibility: inherit;" fill="rgb(0, 0, 0)" stroke="rgb(204, 204, 204)" stroke-width="1px"></line><line x1="40" y1="44.5" x2="35" y2="44.5" style="visibility: inherit;" fill="rgb(0, 0, 0)" stroke="rgb(204, 204, 204)" stroke-width="1px"></line><line x1="40" y1="22.24999999999997" x2="35" y2="22.24999999999997" style="visibility: inherit;" fill="rgb(0, 0, 0)" stroke="rgb(204, 204, 204)" stroke-width="1px"></line><line x1="40" y1="0" x2="35" y2="0" style="visibility: inherit;" fill="rgb(0, 0, 0)" stroke="rgb(204, 204, 204)" stroke-width="1px"></line></g><g transform="translate(30, 0)"><text x="0" y="178" dx="0em" dy="0.3em" style="text-anchor: end; visibility: hidden; font-family: &quot;Helvetica Neue&quot;, sans-serif; font-size: 12px; font-weight: 200;" fill="rgb(50, 49, 63)" stroke="none" stroke-width="1px">2.2</text><text x="0" y="155.75000000000003" dx="0em" dy="0.3em" style="text-anchor: end; visibility: inherit; font-family: &quot;Helvetica Neue&quot;, sans-serif; font-size: 12px; font-weight: 200;" fill="rgb(50, 49, 63)" stroke="none" stroke-width="1px">2.4</text><text x="0" y="133.5" dx="0em" dy="0.3em" style="text-anchor: end; visibility: hidden; font-family: &quot;Helvetica Neue&quot;, sans-serif; font-size: 12px; font-weight: 200;" fill="rgb(50, 49, 63)" stroke="none" stroke-width="1px">2.6</text><text x="0" y="111.25000000000003" dx="0em" dy="0.3em" style="text-anchor: end; visibility: inherit; font-family: &quot;Helvetica Neue&quot;, sans-serif; font-size: 12px; font-weight: 200;" fill="rgb(50, 49, 63)" stroke="none" stroke-width="1px">2.8</text><text x="0" y="89" dx="0em" dy="0.3em" style="text-anchor: end; visibility: hidden; font-family: &quot;Helvetica Neue&quot;, sans-serif; font-size: 12px; font-weight: 200;" fill="rgb(50, 49, 63)" stroke="none" stroke-width="1px">3</text><text x="0" y="66.74999999999999" dx="0em" dy="0.3em" style="text-anchor: end; visibility: inherit; font-family: &quot;Helvetica Neue&quot;, sans-serif; font-size: 12px; font-weight: 200;" fill="rgb(50, 49, 63)" stroke="none" stroke-width="1px">3.2</text><text x="0" y="44.5" dx="0em" dy="0.3em" style="text-anchor: end; visibility: hidden; font-family: &quot;Helvetica Neue&quot;, sans-serif; font-size: 12px; font-weight: 200;" fill="rgb(50, 49, 63)" stroke="none" stroke-width="1px">3.4</text><text x="0" y="22.24999999999997" dx="0em" dy="0.3em" style="text-anchor: end; visibility: inherit; font-family: &quot;Helvetica Neue&quot;, sans-serif; font-size: 12px; font-weight: 200;" fill="rgb(50, 49, 63)" stroke="none" stroke-width="1px">3.6</text><text x="0" y="0" dx="0em" dy="0.3em" style="text-anchor: end; visibility: hidden; font-family: &quot;Helvetica Neue&quot;, sans-serif; font-size: 12px; font-weight: 200;" fill="rgb(50, 49, 63)" stroke="none" stroke-width="1px">3.8</text></g><line x1="40" y1="0" x2="40" y2="178" fill="rgb(0, 0, 0)" stroke="rgb(204, 204, 204)" stroke-width="1px"></line></g></g><g transform="translate(40, 0)" clip-path="url(#clip_0)"><clipPath id="clip_0"><rect width="290" height="178"></rect></clipPath><g><g><g><line x1="0" y1="0" x2="0" y2="178" fill="rgb(0, 0, 0)" stroke="rgb(60, 60, 60)" stroke-width="1px" opacity="0.25"></line><line x1="22.30769230769231" y1="0" x2="22.30769230769231" y2="178" fill="rgb(0, 0, 0)" stroke="rgb(60, 60, 60)" stroke-width="1px" opacity="0.25"></line><line x1="44.61538461538462" y1="0" x2="44.61538461538462" y2="178" fill="rgb(0, 0, 0)" stroke="rgb(60, 60, 60)" stroke-width="1px" opacity="0.25"></line><line x1="66.92307692307692" y1="0" x2="66.92307692307692" y2="178" fill="rgb(0, 0, 0)" stroke="rgb(60, 60, 60)" stroke-width="1px" opacity="0.25"></line><line x1="89.23076923076924" y1="0" x2="89.23076923076924" y2="178" fill="rgb(0, 0, 0)" stroke="rgb(60, 60, 60)" stroke-width="1px" opacity="0.25"></line><line x1="111.53846153846155" y1="0" x2="111.53846153846155" y2="178" fill="rgb(0, 0, 0)" stroke="rgb(60, 60, 60)" stroke-width="1px" opacity="0.25"></line><line x1="133.84615384615384" y1="0" x2="133.84615384615384" y2="178" fill="rgb(0, 0, 0)" stroke="rgb(60, 60, 60)" stroke-width="1px" opacity="0.25"></line><line x1="156.15384615384616" y1="0" x2="156.15384615384616" y2="178" fill="rgb(0, 0, 0)" stroke="rgb(60, 60, 60)" stroke-width="1px" opacity="0.25"></line><line x1="178.46153846153848" y1="0" x2="178.46153846153848" y2="178" fill="rgb(0, 0, 0)" stroke="rgb(60, 60, 60)" stroke-width="1px" opacity="0.25"></line><line x1="200.76923076923077" y1="0" x2="200.76923076923077" y2="178" fill="rgb(0, 0, 0)" stroke="rgb(60, 60, 60)" stroke-width="1px" opacity="0.25"></line><line x1="223.0769230769231" y1="0" x2="223.0769230769231" y2="178" fill="rgb(0, 0, 0)" stroke="rgb(60, 60, 60)" stroke-width="1px" opacity="0.25"></line><line x1="245.3846153846154" y1="0" x2="245.3846153846154" y2="178" fill="rgb(0, 0, 0)" stroke="rgb(60, 60, 60)" stroke-width="1px" opacity="0.25"></line><line x1="267.6923076923077" y1="0" x2="267.6923076923077" y2="178" fill="rgb(0, 0, 0)" stroke="rgb(60, 60, 60)" stroke-width="1px" opacity="0.25"></line><line x1="290" y1="0" x2="290" y2="178" fill="rgb(0, 0, 0)" stroke="rgb(60, 60, 60)" stroke-width="1px" opacity="0.25"></line></g><g><line x1="0" y1="178" x2="290" y2="178" fill="rgb(0, 0, 0)" stroke="rgb(60, 60, 60)" stroke-width="1px" opacity="0.25"></line><line x1="0" y1="155.75000000000003" x2="290" y2="155.75000000000003" fill="rgb(0, 0, 0)" stroke="rgb(60, 60, 60)" stroke-width="1px" opacity="0.25"></line><line x1="0" y1="133.5" x2="290" y2="133.5" fill="rgb(0, 0, 0)" stroke="rgb(60, 60, 60)" stroke-width="1px" opacity="0.25"></line><line x1="0" y1="111.25000000000003" x2="290" y2="111.25000000000003" fill="rgb(0, 0, 0)" stroke="rgb(60, 60, 60)" stroke-width="1px" opacity="0.25"></line><line x1="0" y1="89" x2="290" y2="89" fill="rgb(0, 0, 0)" stroke="rgb(60, 60, 60)" stroke-width="1px" opacity="0.25"></line><line x1="0" y1="66.74999999999999" x2="290" y2="66.74999999999999" fill="rgb(0, 0, 0)" stroke="rgb(60, 60, 60)" stroke-width="1px" opacity="0.25"></line><line x1="0" y1="44.5" x2="290" y2="44.5" fill="rgb(0, 0, 0)" stroke="rgb(60, 60, 60)" stroke-width="1px" opacity="0.25"></line><line x1="0" y1="22.24999999999997" x2="290" y2="22.24999999999997" fill="rgb(0, 0, 0)" stroke="rgb(60, 60, 60)" stroke-width="1px" opacity="0.25"></line><line x1="0" y1="0" x2="290" y2="0" fill="rgb(0, 0, 0)" stroke="rgb(60, 60, 60)" stroke-width="1px" opacity="0.25"></line></g></g></g><g><g><line x1="0" y1="422.7500000000001" x2="290" y2="422.7500000000001" fill="rgb(0, 0, 0)" stroke="rgb(153, 153, 153)" stroke-width="1.5px"></line></g></g><g><g><line x1="22.30769230769231" y1="0" x2="22.30769230769231" y2="178" fill="rgb(0, 0, 0)" stroke="rgb(153, 153, 153)" stroke-width="1.5px"></line></g></g><g><g><g><g><g><path stroke="rgb(255, 112, 67)" stroke-width="2px" d="M30.059615384615384,-12.475582895668737L30.673076923076923,2.473249233367369L30.951923076923077,-15.33061672550366L31.11923076923077,4.7259061238112565L31.62115384615385,4.214276888994647L31.676923076923075,1.3667386409724998L32.17996153846154,-22.450126372662623L32.458807692307694,21.408350884053903L32.57034615384615,9.626756840686141L32.62611538461538,34.95698571018585L32.849192307692306,35.48089744392695L33.295346153846154,22.0401579372396L33.7415,16.338033879766186L33.79726923076923,7.69540869145672L33.85303846153846,9.563751694408325L34.076115384615385,26.36948434616548L34.68957692307692,31.22971321375792L35.02419230769231,27.893079344128466L35.30303846153846,28.388335670141885L35.47034615384615,49.76672799143455L36.13957692307692,38.86976166592024L36.47419230769231,13.859228313046629L36.753038461538466,17.629616343998322L36.92034615384615,32.59104700208414L37.14342307692307,32.71511604583475L37.366499999999995,34.11551465450586L37.47803846153846,25.426145034607828L38.537653846153844,34.06681433247829L38.8165,42.034321519515856L38.87226923076923,49.89074622177543L39.15111538461538,38.37239048058828L39.42996153846154,28.797696641609235L39.5415,30.51969187603146L39.98765384615385,47.68568331940696L40.04342307692308,49.887529644202374L40.37803846153846,18.21559077287654L40.433807692307695,38.25523639257233L40.489576923076925,20.377168239758902L40.65688461538462,25.010713708879535L41.1588076923077,54.53914938345018L41.60496153846154,59.62456260315918L42.44261538461539,46.43954384384264L42.665692307692304,52.36510987299005L43.00030769230769,19.28053546314632L43.22338461538462,19.24414427389263L43.334923076923076,66.0356061080383L44.00415384615385,53.679603458025696L44.05992307692308,49.03710784929356L44.95223076923077,52.018782551340365L45.677230769230775,59.67217421986231L45.733000000000004,49.43003717797271L45.84453846153846,55.50442743223091L46.17915384615385,45.090412628415805L46.68107692307693,51.15178432815186L46.79261538461538,49.30198104009901L46.84838461538461,51.8860254491147L47.015692307692305,44.91333071603708L47.35030769230769,14.514303357047794L47.852230769230765,31.694700810504855L48.01953846153846,43.51535780823019L48.07530769230769,44.19422104834257L48.632999999999996,50.40000316762553L49.46953846153846,52.30375457782637L49.58107692307692,51.55349607759443L49.69261538461539,44.17182741014284L50.47338461538462,43.46618018581904L50.75223076923077,55.870361381871845L50.86376923076923,49.73633343401656L51.031076923076924,46.12965667373874L51.47723076923077,34.6713484827487L51.811846153846155,63.30927223276524L51.92338461538462,35.01432176325153L52.03603846153846,52.076955681721685L52.37065384615384,48.39247965981971L52.649499999999996,56.74993458441023L53.20719230769231,64.1322123380039L53.31873076923077,60.848342537031584L53.54180769230769,55.25815797422712L53.876423076923075,62.10074165038584L54.0995,82.707162572659L54.43411538461539,74.38314561060581L54.54565384615385,84.82900086048696L54.601423076923076,54.18568971456132L54.71296153846154,45.629687752428794L54.8245,54.62576237502793L54.88026923076923,50.42701972479553L55.15911538461538,65.1992936103193L55.21488461538462,68.53425069953941L55.7168076923077,43.1266659507333L56.05142307692308,40.353549617802486L56.162961538461545,47.81137763210404L56.4418076923077,57.993516936148L56.72065384615385,42.53277917928838L56.8321923076923,49.40201102562946L57.501423076923075,51.381662025654975L57.891807692307694,55.9717926068916L57.94757692307692,74.69735927235529L58.05911538461538,59.33943111554221L58.11488461538461,55.316277071402766L58.17065384615385,59.40972002880763L58.226423076923076,52.17385154526529L58.337961538461535,49.01941945422021L58.50526923076923,55.19613065203525L58.728346153846154,56.76280609929715L59.00719230769231,64.56931259681036L59.1745,50.47579888239285L59.397576923076926,66.58599877278442L59.564884615384614,76.2886599299921L59.73219230769231,66.76182464354079L59.95526923076923,43.4686382460381L60.01103846153846,55.574994726413095L60.234115384615386,51.98256012899684L60.51296153846154,58.82728473276798L60.56873076923077,55.02746651152046L60.95911538461539,63.30551697486419L61.12642307692308,67.74740025303896L61.3495,69.50518316299362L61.516807692307694,76.66630387982921L61.90830769230769,73.33127464855073L62.13138461538461,64.5952419102322L62.298692307692306,48.684802986983385L62.354461538461535,74.60926037961364L62.410230769230765,90.99931224564946L62.800615384615384,97.84091144913505L63.135230769230766,78.6612177971425L63.24676923076923,70.31721599946688L63.30253846153846,73.19702709928235L63.525615384615385,52.78336394195284L63.74869230769231,58.623703969611284L63.916000000000004,34.814530853359L63.97176923076923,58.09465292213207L64.02753846153846,58.87598874902086L64.25061538461539,64.1165498457413L64.75253846153846,60.94834223872607L64.97561538461538,73.45470351423677L65.03138461538461,79.455836857694L65.08715384615384,63.10782674114043L65.19869230769231,57.09323766577286L65.25446153846154,57.66900074108854L65.58907692307692,67.08248647339471L65.81215384615385,63.110843444726854L65.86792307692308,62.36796268965662L65.97946153846154,74.52174000485505L66.091,62.63104292316372L66.2583076923077,73.97635384965884L66.31407692307693,61.05541837384985L66.36984615384615,76.69192829182951L66.42561538461538,64.35975633398057L66.59292307692307,70.22227224211507L66.816,73.89781258255427L67.09484615384615,74.17779626771866L67.15061538461539,67.81900268293938L67.20638461538462,70.96583589165664L67.541,68.37423834278961L68.0986923076923,74.83823781929846L68.266,90.13023117697965L68.48907692307692,75.8211423025034L68.71215384615385,61.756944080159144L68.82369230769231,72.28820892571365L69.10253846153846,69.61247401952436L70.441,66.0644410059443L70.55253846153846,78.36023278849096L70.60830769230769,68.74539751951923L70.83138461538461,76.4150110934527L70.94292307692308,65.72387405199859L71.166,72.86110736120662L71.27753846153846,81.53914425727405L71.66903846153846,88.26920413958038L72.00365384615385,82.64328578110637L72.22673076923077,76.75284878908428L72.61711538461539,68.42515949159518L72.67288461538462,65.96738412901661L72.72865384615383,80.27686557449371L72.78442307692308,87.37142863058293L73.06326923076922,86.20926954800856L73.17480769230768,82.68595094816379L73.34211538461538,71.76457530658392L73.39788461538463,78.3791489672689L73.50942307692307,67.96248268699732L73.95557692307692,71.1239757764819L74.01134615384615,66.85434136475574L74.17865384615384,90.27927726413446L74.56903846153847,82.56278781862751L74.73634615384614,82.26847092739257L75.23826923076923,84.26380311379292L75.34980769230769,91.49581727662522L75.46134615384615,64.80719427251469L75.62865384615384,65.96161957378284L75.68442307692308,95.58086494146316L76.18634615384615,83.09372843962468L76.24211538461539,80.80389668840637L76.4651923076923,76.75907721012376L76.52096153846153,75.37546621528135L76.57673076923078,80.81222600569389L76.6325,79.26494396576305L76.85557692307692,74.79043183579753L76.91134615384615,84.74505759434315L77.07865384615384,70.31433189855937L77.13442307692308,76.21242040677946L77.58057692307693,77.85973280752921L77.80365384615385,60.42605771447789L77.91519230769231,45.01070287771694L78.02673076923078,71.83300630136631L78.0825,90.80355737174837L78.52865384615384,97.63836619128375L78.58442307692309,93.66431263944384L78.75173076923078,90.76233134824302L79.19788461538461,87.91912088441336L79.30942307692308,73.74695165648306L79.5325,66.48453813700154L79.58826923076924,66.02547543617573L79.86711538461539,68.97300956658275L80.2575,68.09260241392778L80.87096153846154,60.759097630392105L80.9825,89.55609993774021L81.31711538461539,73.93945334147905L81.48442307692308,82.04749957856986L81.5413076923077,76.65298489373167L81.76438461538461,72.79671273720638L81.98746153846153,103.18555372384901L82.099,89.76762400098958L82.37784615384616,93.45082855829097L82.43361538461538,71.97774291815911L82.48938461538462,86.32587688202432L82.93553846153847,94.60447637151113L83.27015384615386,88.53211898777016L83.49323076923076,113.64596776715857L83.549,90.09799536631093L83.60476923076922,73.659276940124L84.10669230769231,98.04552952578568L84.38553846153846,85.42607044020563L84.72015384615383,90.32127335917733L85.16630769230768,67.08759141341385L85.27784615384616,94.01366087310178L86.39323076923077,87.6016359284898L86.449,88.36752904520576L86.67207692307693,61.02033069451498L86.72784615384614,92.07714279508549L86.78361538461539,97.40847854619017L87.78746153846154,80.64109019876959L88.06630769230769,79.15262969863846L88.4566923076923,78.47437729994189L88.51246153846154,65.29310267138403L88.84707692307693,86.55110578825452L88.95861538461538,80.09361683455224L89.23746153846153,55.876822337887035L89.34899999999999,63.75919321935817L89.46053846153845,70.05556427169283L89.68361538461538,68.83809357502594L90.68746153846153,85.75840111261168L90.79899999999999,60.4249503662752L90.91053846153845,77.6431450560858L91.3566923076923,66.4589908991805L91.46934615384616,84.41536560280777L91.80396153846155,89.65418884343998L91.91550000000001,101.99590666647885L92.02703846153847,102.3665270792131L92.0828076923077,87.7153061087932L92.2501153846154,90.0041160838606L92.52896153846154,94.30620689561371L92.97511538461538,89.93905173352485L93.3655,83.21301166001298L93.70011538461537,82.98335409099856L93.9231923076923,95.43144515733421L93.97896153846153,101.72000219696908L94.03473076923076,90.35975535593678L94.0905,81.51590268576821L94.42511538461538,86.75395386446921L94.9828076923077,79.66779706784907L95.09434615384616,101.95584971877584L95.26165384615385,98.9246563767572L95.31742307692308,86.13533855245058L95.48473076923077,87.740467449324L95.81934615384615,90.75883153685832L95.93088461538461,100.80173593642985L96.09819230769232,84.56739687288604L96.2655,89.15798049975872L96.43280769230769,93.66589730325174L96.48857692307692,110.41111672324789L97.49242307692307,92.4497430932607L98.10588461538462,71.35147628224155L98.32896153846153,68.29677955221017L99.1655,69.41006109687949L99.33280769230768,98.53038198224684L99.38857692307693,69.55593118808268L99.50011538461538,79.00373952311755L99.55588461538461,81.9656548283174L100.67126923076923,71.00488632862793L100.72703846153847,93.91148741824931L100.78280769230768,82.5637466662631L101.06165384615385,90.76795552830416L101.22896153846153,106.42551174956715L101.39738461538461,90.16736262201718L101.50892307692308,83.84632697450954L101.732,100.97876914366437L101.95507692307692,95.7543207824956L102.17815384615385,87.34229961695465L103.07046153846154,89.92089991468845L103.5723846153846,87.15886962622005L103.62815384615385,89.58207666340353L104.24161538461539,94.64190955598022L104.68776923076922,97.83685416471619L104.74353846153846,97.3106582060208L104.91084615384615,89.42117448731516L105.02238461538461,88.99835250402768L105.07815384615385,76.90870081670667L105.5243076923077,83.19737416889545L105.58007692307692,89.6202096294948L105.97046153846155,86.93464704011647L106.08200000000001,91.98434905306928L106.807,102.75906605153214L106.86276923076923,103.56477570125145L107.03007692307692,104.55605077024904L107.42046153846154,85.92234204195917L108.08969230769232,98.09021158809361L108.36853846153846,86.95807602940471L108.42430769230768,79.23922173064499L108.53584615384617,79.3408203657912L108.92623076923077,80.3353092115059L109.31661538461537,99.73546927097247L109.37238461538462,90.06833476103189L109.87430769230768,101.92116954409137L110.09738461538461,93.87056837821922L110.20892307692307,94.12747292621411L110.432,104.76694495947208L110.93392307692308,99.30823268732743L111.26965384615384,102.3849270887414L111.32542307692309,85.85886844239351L111.60426923076923,84.49239890051399L112.05042307692308,97.4016269930378L112.16196153846154,99.39225558901359L112.55234615384614,88.7932084812657L112.60811538461539,114.40001643937637L112.8311923076923,106.50759355199874L113.11003846153845,102.90363032213614L113.27734615384615,113.11492757377559L113.38888461538461,84.17434576862321L113.5561923076923,103.08007338557624L113.7235,89.49375681553482L113.94657692307692,105.94106021068752L114.39273076923077,92.73445781630957L114.83888461538461,105.13928256202544L114.95042307692307,84.41695623924973L115.06196153846155,77.23693606057957L115.22926923076923,85.42484936952356L115.28503846153846,104.27556346011094L115.61965384615385,95.22988255665284L115.67542307692307,95.63494438482998L116.12157692307692,95.9332750158122L116.28888461538462,83.10002599706085L116.34465384615385,95.28007272049733L116.40042307692308,98.28268748272941L116.4561923076923,112.28271656557769L116.56773076923076,97.13068648971574L116.73503846153847,98.3428794765397L117.12542307692307,101.39353144836203L117.18119230769231,99.37934277853903L117.57157692307692,84.9510103893326L117.62734615384616,107.68044075465342L117.68311538461538,83.08440636723086L118.18503846153847,97.09233846404808L118.40811538461537,98.46650458019573L118.51965384615386,93.47489220691203L118.57542307692307,112.50051402685787L118.68696153846155,94.97557937990949L118.96580769230769,87.52379475799601L119.02157692307692,98.64833109011472L119.13311538461538,105.70299753078885L119.18888461538461,107.10331131377542L119.24465384615385,100.2666090588532L119.5235,72.02629966320879L120.30426923076922,78.3286081218192L120.80619230769231,76.27432844231929L121.08615384615385,81.50075273868562L121.47653846153847,100.53252620445829L121.5323076923077,102.52878170891745L122.03423076923077,111.87401717211056L122.42461538461538,110.1730479636945L122.92653846153846,96.771758301233L123.09384615384614,104.19317220544063L123.48423076923078,117.31579181818739L123.59576923076924,85.9395304419654L123.81884615384615,92.77566941672738L124.37653846153846,103.90603342084343L124.43230769230769,104.55540065296967L124.59961538461539,115.95966610410359L124.87846153846154,107.6006341847734L125.10153846153845,115.44197364070884L125.82653846153846,104.36835431879425L125.93807692307693,105.1421149367859L125.99384615384615,94.78220976575523L126.32846153846154,83.01417810673809L126.38423076923077,105.65676563666851L126.44,99.67813205625595L126.55153846153846,75.8559251067221L126.66307692307691,91.98525636902988L127.3323076923077,100.52498532984121L128.33615384615385,111.74325075642311L128.67076923076925,116.00432080893533L129.0053846153846,107.42477872630602L129.06115384615384,84.6531388600488L129.39576923076922,89.48472738384665L129.61884615384616,89.91219185626352L129.73038461538462,98.53487503181653L129.84192307692308,97.54689355984557L130.17653846153846,94.3085451015688L130.34384615384616,104.45709647801094L130.45538461538462,111.59745260496906L130.62269230769232,103.4121779215931L130.79,85.7372397545755L130.90265384615384,107.18455299627128L131.40457692307692,105.39443218973676L131.51611538461538,110.98642349322857L132.18534615384615,123.33403499746389L132.24111538461537,116.88492684907933L132.2968846153846,100.80394668980605L133.07765384615385,101.62117048980052L133.30073076923077,93.85936635995287L133.52380769230768,105.43267743070238L133.74688461538463,110.22351101720129L133.80265384615385,96.64361686016261L133.96996153846155,103.25789536984307L134.0815,105.53475529537066L134.19303846153846,110.28909574921568L134.6391923076923,106.40592952661409L134.75073076923078,116.3361188652894L134.91803846153846,111.2748769069547L135.08534615384616,94.7751755340348L135.25265384615383,85.27876420090945L135.3641923076923,97.44017100116717L135.5315,108.18391356402965L135.6988076923077,98.31488421420555L136.5911153846154,95.84231637972681L136.9815,113.73274817782071L137.26034615384614,126.81007650708386L137.3161153846154,101.77177895073659L137.3718846153846,112.05239771295956L137.4834230769231,102.7219354644101L137.5391923076923,115.06227797671204L137.65073076923076,90.32613555313367L137.76226923076925,94.47461073315505L137.98534615384614,92.9330493829142L138.20842307692308,103.2679079598633L138.48726923076924,98.83611140329982L138.5988076923077,102.73128313922687L138.9891923076923,104.16959237785281L139.10073076923075,88.22702004829397L139.1565,75.31564566588212L139.3238076923077,84.5320089134449L139.43534615384615,86.94056439616902L139.65842307692307,103.81378127401659L139.93726923076923,103.53538274546142L140.0488076923077,101.65128751331476L140.1045769230769,110.02482598940705L140.66226923076923,102.6085632500654L140.71803846153847,106.28727331929224L140.88646153846153,98.84582928172597L141.05376923076923,117.71320643231824L141.22107692307694,117.01616835059392L141.27684615384615,120.59105458099151L141.44415384615385,126.8350742704824L141.49992307692307,122.55985027692186L141.61146153846153,111.5085965458795L141.8903076923077,135.94605188561218L141.94607692307693,121.84301494655827L142.33646153846152,104.47188217967097L142.39223076923076,110.31643124082488L142.61530769230768,119.67559336918237L142.72684615384617,119.54905609875215L142.83838461538463,88.84105904873996L143.06146153846154,79.89852905266522L143.61915384615384,99.71501936314418L143.73069230769232,108.22467927872516L143.84223076923078,108.97503349405345L143.898,102.56793209678479L144.1210769230769,123.20589454402497L144.28838461538462,117.11137791702146L144.73453846153848,106.32815842696726L144.9576153846154,93.72107532879326L145.12492307692307,105.16853649395892L145.73838461538463,100.11698316031156L145.96146153846155,99.75628219989977L146.073,129.5611745683791L146.24030769230768,100.61912647391685L146.35184615384617,117.62727236004274L146.4076153846154,112.72190717235685L146.51915384615384,102.75043226294363L146.63069230769233,106.74389327470256L146.68646153846154,99.6030964878315L146.798,104.34798792085394L146.90953846153846,96.22551527941629L146.9653076923077,111.40733719862821L147.18838461538462,114.55286433397927L147.3556923076923,103.82185627847674L147.52300000000002,119.29571096846395L147.80184615384616,99.86971950754206L148.4710769230769,101.42432317800728L148.69415384615385,104.91871563097064L148.86146153846153,111.38101450651952L149.41915384615385,126.77829157724997L149.75376923076922,122.15898304407304L149.80953846153847,110.25767110355052L149.92107692307692,119.82592102458287L150.08838461538463,101.27038470676607L150.2556923076923,95.82806598475898L150.31146153846154,114.892707190905L150.3672307692308,124.78785767614664L150.87026923076925,122.60380575197885L150.92603846153847,122.04755146842587L150.98180769230768,114.48843364578903L151.09334615384617,133.07761717040069L151.76257692307695,118.08356846630195L151.81834615384614,120.85811773317943L151.87411538461538,112.06964378171531L151.92988461538462,106.07608571831399L152.37603846153846,104.45848805065164L152.87796153846153,111.9320733200169L153.82603846153845,103.54401637466718L154.6068076923077,126.39954827830786L154.77411538461538,114.55863183321237L154.82988461538463,113.94862655276566L154.88565384615384,104.32406771026406L154.9971923076923,111.04207260561694L155.44334615384616,110.24188601718164L155.5548846153846,93.70724961085864L155.77796153846154,94.25558644808456L156.33565384615386,106.58803768240547L156.7818076923077,83.00202775979977L156.83757692307694,108.18433876331135L157.45103846153847,126.69375020711273L157.8971923076923,116.29003979101377L158.23180769230768,107.79246912400305L158.28757692307693,115.36794087886926L158.3991153846154,86.07870661497151L158.51065384615384,104.67064583086979L158.7895,111.53206935460572L159.84911538461537,115.50067218224765L159.96065384615383,108.49963446879559L160.18373076923075,81.18833016283565L160.2395,98.85777672209517L160.74253846153846,118.42762239598687L160.85407692307695,111.27510274596052L161.02138461538462,135.08412772758913L161.07715384615386,121.47177407248059L161.13292307692308,124.95420660109296L161.6906153846154,126.598404143843L161.74638461538464,117.24950786071807L161.91369230769232,116.64337644469084L162.02523076923077,107.77800841775935L162.2483076923077,100.07272741093459L162.35984615384615,113.13516070513197L162.52715384615385,126.3885586144575L162.63869230769228,116.82360947972685L162.75023076923077,118.9328989888613L162.86176923076923,115.99049094633418L163.3636923076923,112.17494940553951L163.58676923076922,119.50421441136257L163.80984615384614,114.72566570204037L163.92138461538462,110.90449741888506L164.0886923076923,125.71310260119577L164.256,123.8427705592589L164.5906153846154,129.87704198439948L164.64638461538462,118.44466843271267L164.86946153846154,113.38801784534459L165.03676923076924,116.1363843954182L165.20407692307694,105.32139377226166L165.31561538461537,105.34640691408435L165.81753846153845,116.99402415075578L165.98484615384615,96.77731331979837L166.0406153846154,122.36719576357488L166.0963846153846,107.1990850980243L166.15215384615385,108.04306358144171L166.31946153846155,113.39980058683604L166.54253846153847,113.4108712339808L166.87715384615385,114.31531577302246L166.9329230769231,98.2167801409758L167.10023076923076,113.15768071263427L167.5463846153846,106.59119166210112L167.82523076923076,103.5926044978941L167.99253846153846,122.95491691226499L168.15984615384613,108.6647204214178L168.21561538461538,125.56995330017335L168.55023076923078,125.29781753945807L168.66176923076924,94.76478413083689L168.9963846153846,104.39381757777495L169.16369230769232,109.24077294886582L169.331,117.93531712478543L169.38676923076923,118.97884795840429L169.60984615384615,108.98025180630638L170.61480769230766,109.89189065019119L170.83788461538464,128.92903772747468L170.94942307692307,115.89468480275858L171.22826923076923,114.03449302055475L171.50711538461536,112.04446742277757L172.23211538461538,119.23107184571452L172.4551923076923,108.88124207735785L172.62249999999997,114.20586441779358L173.45903846153848,105.3198709512479L174.0725,123.18868988826058L174.12826923076923,107.8099819722002L174.29557692307694,116.11948914236505L174.6301923076923,118.59769205125178L175.02057692307693,113.12996708116536L175.07634615384615,110.60130023587229L175.1321153846154,96.95693713315873L175.18788461538463,111.38450353708434L175.24365384615385,119.37723775317245L175.29942307692306,134.36826326134792L175.74557692307692,112.05654798055585L177.0282692307692,121.80208246143135L177.08403846153846,119.02417977521264L177.1398076923077,103.73616592845158L177.5301923076923,123.95072452056661L178.14365384615382,119.37983512231187L178.2551923076923,110.49126048489954L178.9244230769231,108.40495775820179L178.9801923076923,125.99873231852463L179.1475,117.79716677369004L179.25903846153844,113.30496419340773L179.31480769230768,107.30872197410584L179.42634615384617,117.44406145650484L180.43130769230768,114.85601227831349L180.71015384615384,125.72609781429622L180.87746153846152,131.25428400994974L181.04476923076925,117.5298658864547L181.5466923076923,112.72703389694841L181.60246153846154,130.82637952676578L181.93707692307692,127.15423215303176L182.04861538461537,128.8882838930886L182.10438461538462,134.4078642978132L182.439,132.67053575676266L182.60630769230767,116.71572001982211L182.6620769230769,120.13524603309776L182.94092307692307,128.02224072057766L183.05246153846153,119.24771114658945L183.16400000000002,124.74362075469385L183.3313076923077,120.95173193854538L183.38707692307693,119.19965836358801L183.83323076923077,127.1425793735765L184.11207692307693,115.5078390767748L184.22361538461539,132.6978022793107L184.27938461538463,131.12367798504752L184.33515384615384,126.08585305695988L184.94861538461538,122.49147246386192L185.50630769230767,115.25351401002882L185.95246153846153,135.91067737886812L186.90053846153847,122.5339323358223L187.17938461538463,109.95540966619508L187.29092307692306,117.43031709202967L187.3466923076923,117.44408072474255L187.51399999999998,128.71644773317175L188.0716923076923,122.07155923316719L188.40630769230768,111.93567626556707L188.62938461538462,121.71138295197773L188.90823076923078,112.47761155564875L189.0197692307692,102.32125425755771L189.1313076923077,114.63573920851887L189.24284615384613,120.57864124812465L189.35438461538462,134.73631528388793L189.57746153846153,116.9819782476763L189.63323076923078,135.4801908403975L189.80053846153845,126.85264163822956L190.13515384615383,129.2115874874921L190.19203846153846,126.85022715891398L190.35934615384613,137.42634010364117L190.41511538461538,141.8973307849452L190.80550000000002,143.87964837674758L190.91703846153845,123.69536840595146L190.9728076923077,129.97383654021428L191.0285769230769,132.43855642051463L191.47473076923075,128.68795181146555L192.31126923076923,135.06310814866814L192.42280769230769,128.34830972626625L192.53434615384617,115.29086670003778L192.6458846153846,115.32174380636948L192.7574230769231,129.26912029986607L193.25934615384614,128.03563873888564L193.48242307692306,142.3621076253698L193.59396153846154,136.1361366959705L194.20742307692308,134.73650846041127L194.4305,134.2563891385701L194.98819230769232,143.11840664072955L195.49011538461536,141.47514774419108L195.76896153846153,129.10415977244747L196.15934615384614,119.73006792666068L196.32665384615382,121.75372416913976L196.38242307692306,129.92573425513646L196.71703846153846,135.33876791996406L196.7728076923077,124.84066221535996L196.88434615384617,136.64526602453233L197.05165384615384,141.5829854512997L197.3305,144.9778190822836L197.49780769230767,132.4400944164824L197.55357692307692,124.99895793948865L197.66511538461538,130.22577345L198.55742307692307,120.16840975173206L198.9478076923077,121.75108124818775L199.1151153846154,116.92124171854967L199.17088461538464,139.6715753668604L199.56126923076923,132.25141075235777L199.61703846153847,120.49173111612254L200.0074230769231,110.09062189130385L200.12007692307694,142.1627261467827L201.45853846153844,149.21968173468272L201.62584615384617,132.2001421674614L201.7373846153846,127.17081284000054L202.01623076923076,130.30350295148367L202.18353846153846,129.52921868396427L202.2393076923077,130.52847235510538L202.35084615384613,124.6967143866712L202.40661538461538,129.82406856576486L202.797,138.11069237577885L202.90853846153846,136.24756274636974L203.0200769230769,137.2087473094952L203.522,123.9524393683819L203.80084615384615,129.50434985775198L204.30276923076923,115.97438850706355L204.4143076923077,126.34280557842717L204.52584615384617,108.74531794015076L204.7489230769231,115.0919998718009L204.91623076923076,125.10841684438901L205.6412307692308,131.58058918386138L205.697,133.97124294301705L205.75276923076922,114.32485988694683L206.0873846153846,134.4061865119882L206.53353846153848,141.66411010351027L206.86815384615386,145.48899776913598L206.92392307692307,138.83829555862508L206.9796923076923,113.1494117616217L207.2027692307692,133.79276214357023L207.48161538461537,124.48170746658985L207.87199999999999,123.9111211338483L208.31815384615385,134.39337915297878L208.54123076923076,134.46403656040593L208.76430769230768,120.84625089059764L208.87584615384617,115.81001412835867L209.21046153846152,125.64305948605286L209.37776923076925,116.55153740462704L209.48930769230768,125.01266692583873L209.60084615384616,115.33654564769603L209.71238461538462,128.88918998882633L209.8796923076923,117.5541923017665L209.93657692307693,132.68214360390203L210.10388461538463,133.94459453676376L210.7731153846154,129.6328615649171L211.05196153846154,135.2563461990246L211.10773076923078,134.18699463996558L211.3308076923077,137.55930211184403L212.33465384615383,152.07932234417794L212.55773076923074,135.9226760167223L212.72503846153847,131.59471832210846L213.0038846153846,136.43861528782557L213.3385,128.41530288025294L213.39426923076925,109.32698130835463L213.61734615384617,113.86221398779566L213.7288846153846,129.0693811651135L214.0635,115.22924243438436L214.11926923076922,114.06248985239327L214.45388461538462,140.03776495012187L214.84426923076924,141.58121100173162L215.1788846153846,138.3138125154548L215.34619230769232,127.59208830038229L215.6808076923077,123.78728049349641L216.2942692307692,135.15835187838036L216.4058076923077,130.62761172057856L216.46157692307693,123.82082110763096L216.7961923076923,127.6729408565775L216.96349999999998,132.64447227906038L217.07503846153847,113.56705889639514L217.1308076923077,120.86183101396935L217.24234615384614,132.64442082184908L217.5211923076923,124.8891438005518L218.0788846153846,136.7413746582911L218.4135,125.1395900209977L218.52503846153846,141.01657065034613L218.5808076923077,138.43972610914918L218.80388461538462,133.84216223205394L218.85965384615386,124.12435504807613L219.08273076923078,122.74003508393047L219.1942692307692,129.4742933771136L219.5288846153846,140.72069699946417L219.58465384615386,148.54830334002784L219.75196153846153,136.11208360020822L219.92038461538462,140.58949070162927L220.58961538461537,139.66948846872856L220.86846153846153,148.94195296137397L221.03576923076923,148.99473715951703L221.5376923076923,131.47377710083325L221.59346153846155,132.6056541101313L221.92807692307693,130.4886191396766L221.98384615384614,126.91458102789088L222.76461538461538,133.17866922237448L222.9876923076923,134.54942401295295L223.0992307692308,151.9756802381438L223.21076923076922,139.504357578199L223.37807692307695,148.09108715112237L223.54538461538462,121.50198735849631L224.0473076923077,128.25572953837093L224.38192307692307,141.81401783888634L224.49346153846156,144.15070286591381L225.1069230769231,133.82595347523554L225.16269230769228,124.91560168015918L225.4973076923077,123.21695853158228L225.8876923076923,134.31396572257398L227.22615384615384,121.0097538961927L227.28192307692308,145.7041944603312L227.39346153846154,127.57141510069934L227.56076923076924,115.08475737399033L227.6723076923077,135.7750327963417L228.84346153846155,141.9614690893527L229.01076923076923,143.24062087993735L229.23384615384614,131.03483740943943L229.2896153846154,133.7929795696088L229.34538461538463,140.3776115212962L229.45692307692306,146.3097447047867L229.62534615384618,142.60843290359492L229.79265384615385,121.5166772886238L229.9041923076923,139.77052325261005L230.01573076923077,152.0813561685454L230.4061153846154,133.15101456068672L230.6291923076923,128.7257683796368L230.79649999999998,129.2388188875521L231.07534615384617,152.56750093808188L231.5215,137.1879677859259L231.74457692307692,138.9914785172735L231.85611538461538,134.34072148639544L231.96765384615384,130.64680733632622L232.02342307692308,136.95822359428286L232.35803846153846,144.24674712808576L232.69265384615386,139.47426432130231L232.80419230769232,147.7601100497171L232.9715,141.29079503097313L233.47342307692307,145.02488299691134L233.58496153846156,132.92909783269008L233.64073076923077,146.0675989334138L233.8638076923077,148.02283085418793L234.14265384615385,136.57851071069555L234.25419230769228,123.83635466369967L234.81188461538463,139.08666837535196L234.9234230769231,143.43875609136197L235.03496153846154,133.08226739852603L235.75996153846154,141.74777856912905L235.98303846153846,140.15732162429902L236.09457692307691,125.94463547835952L236.65226923076924,113.56119473806088L236.93111538461537,131.1995217383834L237.32150000000001,123.44424509349267L237.4888076923077,131.62061172527908L237.60034615384615,137.5435539895381L238.71573076923076,136.44146139663715L238.7715,130.10930461061676L238.82726923076925,135.391908074536L238.93880769230768,133.18985073122923L239.1061153846154,120.9960281382607L239.21765384615384,115.14732763560437L239.4976153846154,134.4767460268492L239.7206923076923,131.49792759542925L240.11107692307692,153.57951106108803L240.16684615384617,156.91895388805148L240.22261538461538,143.85677158607032L240.5014615384615,153.8559738271624L240.55723076923076,143.98460212568017L240.78030769230767,149.74762198096388L241.3937692307692,151.5034869991716L241.7283846153846,144.81451998004246L242.063,152.69915043070594L242.2303076923077,154.06016598568766L242.34184615384615,146.71889158018354L242.67646153846155,137.1113080618618L242.84376923076923,132.23339403980492L243.06684615384617,148.53117692862014L243.2899230769231,138.1195361745181L243.40146153846152,145.8261228481478L243.56876923076925,139.062995448099L243.68030769230768,134.2564012391527L243.90338461538462,136.83306844184284L244.01492307692308,141.96138670191021L244.18223076923078,152.33487911863583L244.46107692307694,147.96474749995312L244.68415384615386,146.40658328280762L244.73992307692308,145.5674071769295L244.85146153846154,155.17632103742298L245.35338461538464,131.96371898883925L245.40915384615383,138.01825014303435L246.02261538461536,135.3171842502067L246.13415384615385,142.3676589669737L246.1899230769231,126.49243656223874L246.58030769230768,155.96074843235573L246.69184615384614,144.14243137785127L246.7476153846154,127.61210051759579L246.80338461538463,141.30347318525466L246.85915384615384,141.90722815118835L247.0822307692308,130.6166240809042L247.19376923076922,132.9490157317424L248.42069230769232,132.09923702333288L248.588,143.8463216836867L249.0899230769231,139.87909571574983L249.25723076923077,135.078084684154L249.36876923076923,129.74297677777432L249.59296153846157,152.5170937815375L249.64873076923075,151.38027111408317L249.76026923076924,129.65868322765L250.20642307692307,139.23132656429758L250.4852692307692,148.90857447509336L250.87565384615385,162.37797428764216L252.43719230769233,143.61829783200417L252.82757692307692,127.6384865691638L253.3852692307692,131.9532525852435L253.44103846153845,124.35137772307138L253.71988461538461,122.34898376388954L254.22180769230766,135.4415936288941L254.2775769230769,138.46957148962343L254.83526923076923,146.0062920387183L254.89103846153847,138.9364093522905L254.9468076923077,148.8525355929339L255.05834615384617,147.46370028478518L255.1698846153846,139.99667950577324L255.2814230769231,146.1979901913011L255.33719230769233,146.4882594264509L255.39296153846152,146.37275733104238L255.5045,141.36362139448795L256.50834615384616,144.47856682558438L256.7871923076923,147.79306028491135L257.0660384615385,144.08331200541818L257.2333461538461,149.3069924147778L257.40065384615383,123.1434153268294L257.67949999999996,124.4667358800637L258.29296153846155,131.99705890431608L258.7948846153846,135.48305305127684L258.9621923076923,142.909496749295L259.0179615384615,137.05780651714005L259.46523076923074,155.88626710339068L259.79984615384615,159.56980161000396L260.6363846153846,147.27084251680705L260.6921538461539,139.7750440193377L260.8036923076923,126.7939057515014L261.0267692307692,150.3361651946887L261.24984615384614,166.43343356996138L261.41715384615384,160.21496887132332L261.75176923076924,156.62224853374005L261.8633076923077,154.70680770378542L262.3652307692308,149.90487576455246L262.5883076923077,138.41309650817627L262.9229230769231,161.20809260034298L263.20176923076923,152.56650143570823L263.53638461538463,153.6816005996082L263.75946153846155,154.10764633688967L264.0383076923077,144.82368402205003L264.4286923076923,151.9216650382343L264.6517692307692,155.98366386460256L265.1536923076923,151.87053350438777L265.321,146.09729741165074L265.9902307692308,155.36497649594855L266.3806153846154,145.98189748240924L266.54792307692304,133.08723686013644L266.6594615384615,136.17535344920765L266.7152307692308,141.66232588339517L266.9383076923077,137.72529249921047L266.99407692307693,135.47838977436606L267.04984615384615,159.53725277620669L267.7190769230769,154.4717727757636L268.0536923076923,147.5952963905675L268.1094615384615,139.03893299332688L268.221,150.94217033216785L268.4998461538462,137.3145413310213L268.55561538461535,132.9705128821994L268.7229230769231,144.30139378766017L269.05753846153846,148.51045108455364L269.22596153846155,156.12859994953263L269.61634615384617,149.9345470869106L270.17403846153843,151.59341189275872L270.50865384615383,163.72227254215093L270.73173076923075,161.90446865172154L270.78749999999997,154.82335602525166" style="fill: none;" fill="none"></path></g></g></g></g><g opacity="0.2"><g><g><g><path stroke="rgb(255, 112, 67)" stroke-width="2px" d="M30.059615384615384,-5.806510806083708L30.673076923076923,8.879891574382754L30.951923076923077,-22.960844993591337L31.11923076923077,13.32155877351758L31.62115384615385,3.995007216930361L31.676923076923075,0.14636510610577602L32.17996153846154,-32.65735423564914L32.458807692307694,40.204841136932345L32.57034615384615,4.577502250671358L32.62611538461538,45.81279808282852L32.849192307692306,35.70543104410169L33.295346153846154,16.279841005802126L33.7415,13.894266426563235L33.79726923076923,3.9914264678954794L33.85303846153846,10.364470124244662L34.076115384615385,33.57194119691846L34.68957692307692,33.31266844272611L35.02419230769231,26.463093400001497L35.30303846153846,28.600588381290407L35.47034615384615,58.92889612913132L36.13957692307692,34.19963324069974L36.47419230769231,3.140428304672213L36.753038461538466,19.245496928691836L36.92034615384615,39.00308871269223L37.14342307692307,32.768288493156405L37.366499999999995,34.71568548679349L37.47803846153846,21.702129483222933L38.537653846153844,37.76995831727979L38.8165,45.44896745681763L38.87226923076923,53.25778537988663L39.15111538461538,33.435952305793734L39.42996153846154,24.69425642490384L39.5415,31.257689833641024L39.98765384615385,55.04253679513931L40.04342307692308,50.831178069114685L40.37803846153846,4.641902685165377L40.433807692307695,46.843655943870544L40.489576923076925,12.715139031410189L40.65688461538462,26.996518909931154L41.1588076923077,67.19419324398041L41.60496153846154,61.804025411605835L42.44261538461539,40.788821518421145L42.665692307692304,54.904638171195984L43.00030769230769,5.101432144641848L43.22338461538462,19.22854804992673L43.334923076923076,86.08908975124359L44.00415384615385,48.38417375087738L44.05992307692308,47.04746687412262L44.95223076923077,53.296643137931824L45.677230769230775,62.95219922065735L45.733000000000004,45.040549874305725L45.84453846153846,58.10773754119873L46.17915384615385,40.62726342678067L46.68107692307693,53.74951505661011L46.79261538461538,48.50920820236206L46.84838461538461,52.993473052978516L47.015692307692305,41.92503297328946L47.35030769230769,1.4861487746238424L47.852230769230765,39.05772829055783L48.01953846153846,48.58135366439819L48.07530769230769,44.4851624369621L48.632999999999996,53.05962407588959L49.46953846153846,53.11964803934097L49.58107692307692,51.23195672035217L49.69261538461539,41.008255124092074L50.47338461538462,43.16375994682309L50.75223076923077,61.186439037323L50.86376923076923,47.10746431350708L51.031076923076924,44.58393806219101L51.47723076923077,29.760644972324343L51.811846153846155,75.58266812562943L51.92338461538462,22.887914419174166L52.03603846153846,59.389513075351715L52.37065384615384,46.81341850757599L52.649499999999996,60.3317009806633L53.20719230769231,67.2960456609726L53.31873076923077,59.44096976518631L53.54180769230769,52.862364590168L53.876423076923075,65.03327751159668L54.0995,91.5384858250618L54.43411538461539,70.8157097697258L54.54565384615385,89.30579596757889L54.601423076923076,41.05284208059308L54.71296153846154,41.962829768657656L54.8245,58.48122292757034L54.88026923076923,48.62755858898163L55.15911538461538,71.53026813268661L55.21488461538462,69.9635180234909L55.7168076923077,32.23770105838773L56.05142307692308,39.165071189403506L56.162961538461545,51.007589638233185L56.4418076923077,62.35729092359543L56.72065384615385,35.90674871206281L56.8321923076923,52.345967531204224L57.501423076923075,52.230083882808685L57.891807692307694,57.93899142742157L57.94757692307692,82.72260212898254L58.05911538461538,52.75746190547943L58.11488461538461,53.59206819534302L58.17065384615385,61.16405272483826L58.226423076923076,49.07276505231857L58.337961538461535,47.667519986629486L58.50526923076923,57.843292593955994L58.728346153846154,57.43423843383789L59.00719230769231,67.91495823860168L59.1745,44.43572157621381L59.397576923076926,73.4903701543808L59.564884615384614,80.44694328308105L59.73219230769231,62.678895235061646L59.95526923076923,33.48584407567975L60.01103846153846,60.76343321800232L60.234115384615386,50.442945301532745L60.51296153846154,61.760738134384155L60.56873076923077,53.39897298812866L60.95911538461539,66.85325288772583L61.12642307692308,69.65106451511383L61.3495,70.2585186958313L61.516807692307694,79.73535561561584L61.90830769230769,71.90197640657425L62.13138461538461,60.85122787952423L62.298692307692306,41.86604344844815L62.354461538461535,85.71974211931229L62.410230769230765,98.02362018823624L62.800615384615384,100.77302539348602L63.135230769230766,70.44134908914566L63.24676923076923,66.74121522903442L63.30253846153846,74.43123185634613L63.525615384615385,44.034651160240145L63.74869230769231,61.12670683860779L63.916000000000004,24.610599517822237L63.97176923076923,68.07184809446335L64.02753846153846,59.210846960544586L64.25061538461539,66.36250460147858L64.75253846153846,59.59053897857666L64.97561538461538,78.81457263231277L65.03138461538461,82.02775114774704L65.08715384615384,56.10153669118881L65.19869230769231,54.51555663347244L65.25446153846154,57.91575634479523L65.58907692307692,71.11683750152588L65.81215384615385,61.40871071815491L65.86792307692308,62.04958522319794L65.97946153846154,79.73050171136856L66.091,57.535029888153076L66.2583076923077,78.8386299610138L66.31407692307693,55.51787459850311L66.36984615384615,83.39328968524933L66.42561538461538,59.07453978061676L66.59292307692307,72.73477905988693L66.816,75.4730441570282L67.09484615384615,74.29778927564621L67.15061538461539,65.09380543231964L67.20638461538462,72.31447869539261L67.541,67.26355367898941L68.0986923076923,77.6085233092308L68.266,96.68394261598587L68.48907692307692,69.68867564201355L68.71215384615385,55.7294305562973L68.82369230769231,76.80160814523697L69.10253846153846,68.46573048830032L70.441,64.54385542869568L70.55253846153846,83.62985783815384L70.60830769230769,64.62475383281708L70.83138461538461,79.70198833942413L70.94292307692308,61.14195817708969L71.166,75.91992163658142L71.27753846153846,85.25830292701721L71.66903846153846,91.15351551771164L72.00365384615385,80.23217791318893L72.22673076923077,74.22837579250336L72.61711538461539,64.8561497926712L72.67288461538462,64.91405183076859L72.72865384615383,86.40950047969818L72.78442307692308,90.41195565462112L73.06326923076922,85.71120136976242L73.17480769230768,81.17595726251602L73.34211538461538,67.08398574590683L73.39788461538463,81.21396625041962L73.50942307692307,63.49819713830948L73.95557692307692,72.47890138626099L74.01134615384615,65.02449804544449L74.17865384615384,100.31853550672531L74.56903846153847,79.25572091341019L74.73634615384614,82.14233511686325L75.23826923076923,85.118945479393L75.34980769230769,94.59525191783905L75.46134615384615,53.36921298503876L75.62865384615384,66.45637327432632L75.68442307692308,108.27482724189758L76.18634615384615,77.74209851026535L76.24211538461539,79.82254022359848L76.4651923076923,75.02558314800262L76.52096153846153,74.78249007463455L76.57673076923078,83.14226591587067L76.6325,78.60182309150696L76.85557692307692,72.87278378009796L76.91134615384615,89.011325776577L77.07865384615384,64.12973517179489L77.13442307692308,78.74017262458801L77.58057692307693,78.56572383642197L77.80365384615385,52.954482674598694L77.91519230769231,38.40412223339078L78.02673076923078,83.32827919721603L78.0825,98.93379354476929L78.52865384615384,100.5675699710846L78.58442307692309,91.96114683151245L78.75173076923078,89.51862508058548L79.19788461538461,86.70060211420059L79.30942307692308,67.67316484451294L79.5325,63.37207520008087L79.58826923076924,65.8287342786789L79.86711538461539,70.23623847961426L80.2575,67.71528506278992L80.87096153846154,57.6161670088768L80.9825,101.89767235517502L81.31711538461539,67.2466048002243L81.48442307692308,85.522376537323L81.5413076923077,74.34105002880096L81.76438461538461,71.14402467012405L81.98746153846153,116.20934271812439L82.099,84.01708269119263L82.37784615384616,95.0293447971344L82.43361538461538,62.7749919295311L82.48938461538462,92.4750771522522L82.93553846153847,98.1524475812912L83.27015384615386,85.92968010902405L83.49323076923076,124.40904581546783L83.549,80.00600719451904L83.60476923076922,66.61411190032959L84.10669230769231,108.49678063392639L84.38553846153846,80.01773083209991L84.72015384615383,92.41921746730804L85.16630769230768,57.130299150943756L85.27784615384616,105.55340492725372L86.39323076923077,84.85362523794174L86.449,88.69576895236969L86.67207692307693,49.30010282993317L86.72784615384614,105.38720512390137L86.78361538461539,99.69333672523499L87.78746153846154,73.45506662130356L88.06630769230769,78.5147180557251L88.4566923076923,78.18369770050049L88.51246153846154,59.64398497343063L88.84707692307693,95.66167855262756L88.95861538461538,77.32612156867981L89.23746153846153,45.49819612503052L89.34899999999999,67.13735216856003L89.46053846153845,72.75400900840759L89.68361538461538,68.31632041931152L90.68746153846153,93.00996148586273L90.79899999999999,49.567757189273834L90.91053846153845,85.0223713517189L91.3566923076923,61.66578197479248L91.46934615384616,92.11095476150513L91.80396153846155,91.89939880371094L91.91550000000001,107.28521430492401L92.02703846153847,102.5253643989563L92.0828076923077,81.4362114071846L92.2501153846154,90.98503464460373L92.52896153846154,96.14996010065079L92.97511538461538,88.06741380691528L93.3655,80.33042305707932L93.70011538461537,82.88492941856384L93.9231923076923,100.76634132862091L93.97896153846153,104.41509807109833L94.03473076923076,85.49107813835144L94.0905,77.72568011283875L94.42511538461538,88.9988329410553L94.9828076923077,76.63087272644043L95.09434615384616,111.50787228345872L95.26165384615385,97.62557351589203L95.31742307692308,80.65420234203339L95.48473076923077,88.42837983369827L95.81934615384615,92.05241614580154L95.93088461538461,105.10583782196045L96.09819230769232,77.60982298851013L96.2655,91.12537348270416L96.43280769230769,95.5978616476059L96.48857692307692,117.58763933181763L97.49242307692307,84.75201153755188L98.10588461538462,62.309361934661865L98.32896153846153,66.98762381076813L99.1655,69.88718175888062L99.33280769230768,111.01051950454712L99.38857692307693,57.13830941915512L99.50011538461538,83.05280023813248L99.55588461538461,83.23504710197449L100.67126923076923,66.30741411447525L100.72703846153847,103.72860217094421L100.78280769230768,77.7004292011261L101.06165384615385,94.28404504060745L101.22896153846153,113.1358929872513L101.39738461538461,83.1995844244957L101.50892307692308,81.13731169700623L101.732,108.32124435901642L101.95507692307692,93.51527148485184L102.17815384615385,83.73714768886566L103.07046153846154,91.02601432800293L103.5723846153846,85.97514235973358L103.62815384615385,90.62059396505356L104.24161538461539,96.8104093670845L104.68776923076922,99.20611613988876L104.74353846153846,97.08514565229416L104.91084615384615,86.0399671792984L105.02238461538461,88.81714308261871L105.07815384615385,71.7274215221405L105.5243076923077,85.89251989126205L105.58007692307692,92.37285339832306L105.97046153846155,85.78369164466858L106.08200000000001,94.14850705862045L106.807,107.3768019080162L106.86276923076923,103.9100798368454L107.03007692307692,104.98088294267654L107.42046153846154,77.93646687269211L108.08969230769232,103.30501282215118L108.36853846153846,82.18716078996658L108.42430769230768,75.93114131689072L108.53584615384617,79.38436263799667L108.92623076923077,80.76151871681213L109.31661538461537,108.0498235821724L109.37238461538462,85.92527711391449L109.87430769230768,107.00095587968826L110.09738461538461,90.42031073570251L110.20892307692307,94.23757487535477L110.432,109.32671868801117L110.93392307692308,96.96878457069397L111.26965384615384,103.70351040363312L111.32542307692309,78.776271879673L111.60426923076923,83.90676909685135L112.05042307692308,102.93415331840515L112.16196153846154,100.24538213014603L112.55234615384614,84.25075972080231L112.60811538461539,125.37436270713806L112.8311923076923,103.1251266002655L113.11003846153845,101.35907465219498L113.27734615384615,117.49119782447815L113.38888461538461,71.77123928070068L113.5561923076923,111.18252807855606L113.7235,83.67104971408844L113.94657692307692,112.98990452289583L114.39273076923077,87.07448536157608L114.83888461538461,110.4556360244751L114.95042307692307,75.53595924377441L115.06196153846155,74.15978455543518L115.22926923076923,88.93395507335663L115.28503846153846,112.35444092750551L115.61965384615385,91.35316216945648L115.67542307692307,95.80854231119156L116.12157692307692,96.0611310005188L116.28888461538462,77.60006213188171L116.34465384615385,100.50009274482727L116.40042307692308,99.56952238082886L116.4561923076923,118.28272902965546L116.56773076923076,90.63695931434631L116.73503846153847,98.86239075660706L117.12542307692307,102.70095372200012L117.18119230769231,98.51611906290054L117.57157692307692,78.76743936538696L117.62734615384616,117.42162519693375L117.68311538461538,72.54324877262115L118.18503846153847,103.09573793411255L118.40811538461537,99.05543291568756L118.51965384615386,91.33562976121902L118.57542307692307,120.65435194969177L118.68696153846155,87.46489310264587L118.96580769230769,84.3301727771759L119.02157692307692,103.41598951816559L119.13311538461538,108.72642600536346L119.18888461538461,107.70344579219818L119.24465384615385,97.33659380674362L119.5235,59.92330992221832L120.30426923076922,81.0295974612236L120.80619230769231,75.39392286539078L121.08615384615385,83.74064886569977L121.47653846153847,108.68900054693222L121.5323076923077,103.38431978225708L122.03423076923077,115.87911808490753L122.42461538461538,109.44406116008759L122.92653846153846,91.02834844589233L123.09384615384614,107.37377816438675L123.48423076923078,122.93977165222168L123.59576923076924,72.49256128072739L123.81884615384615,95.7054432630539L124.37653846153846,108.67618942260742L124.43230769230769,104.83370089530945L124.59961538461539,120.8472084403038L124.87846153846154,104.0181919336319L125.10153846153845,118.80254769325256L125.82653846153846,99.6225174665451L125.93807692307693,105.47372663021088L125.99384615384615,90.3422504067421L126.32846153846154,77.97073596715927L126.38423076923077,115.36073172092438L126.44,97.11586052179337L126.55153846153846,65.64640784263611L126.66307692307691,98.89782691001892L127.3323076923077,104.1848691701889L128.33615384615385,116.55107879638672L128.67076923076925,117.83049368858337L129.0053846153846,103.74783211946487L129.06115384615384,74.89386463165283L129.39576923076922,91.55540817975998L129.61884615384616,90.09539091587067L129.73038461538462,102.23031067848206L129.84192307692308,97.12347292900085L130.17653846153846,92.92068147659302L130.34384615384616,108.80647563934326L130.45538461538462,114.65760523080826L130.62269230769232,99.90420305728912L130.79,78.16226625442505L130.90265384615384,116.37625867128372L131.40457692307692,104.62723755836487L131.51611538461538,113.38299119472505L132.18534615384615,128.62586849927902L132.24111538461537,114.12102335691452L132.2968846153846,93.91209805011749L133.07765384615385,101.97140926122665L133.30073076923077,90.53287887573242L133.52380769230768,110.39266788959503L133.74688461538463,112.27672541141511L133.80265384615385,90.82366222143173L133.96996153846155,106.09258615970612L134.0815,106.51055240631104L134.19303846153846,112.32667022943498L134.6391923076923,104.74171543121338L134.75073076923078,120.59191429615021L134.91803846153846,109.10577321052551L135.08534615384616,87.70387494564056L135.25265384615383,81.20887362957001L135.3641923076923,102.65220248699188L135.5315,112.7883746623993L135.6988076923077,94.08530020713806L136.5911153846154,94.78264445066452L136.9815,121.40007609128952L137.26034615384614,132.41464579105377L137.3161153846154,91.04107999801636L137.3718846153846,116.45837718248367L137.4834230769231,98.72316592931747L137.5391923076923,120.35099619626999L137.65073076923076,79.7249316573143L137.76226923076925,96.25252866744995L137.98534615384614,92.27238023281097L138.20842307692308,107.69713306427002L138.48726923076924,96.93677002191544L138.5988076923077,104.40064245462418L138.9891923076923,104.78601062297821L139.10073076923075,81.3944890499115L139.1565,69.78219950199127L139.3238076923077,88.4818788766861L139.43534615384615,87.97280246019363L139.65842307692307,111.04515993595123L139.93726923076923,103.41606909036636L140.0488076923077,100.84381812810898L140.1045769230769,113.61348533630373L140.66226923076923,99.43016493320465L140.71803846153847,107.86386334896088L140.88646153846153,95.6566389799118L141.05376923076923,125.7992252111435L141.22107692307694,116.71743774414062L141.27684615384615,122.12314867973328L141.44415384615385,129.5110827088356L141.49992307692307,120.72761142253876L141.61146153846153,106.77234494686127L141.8903076923077,146.41924703121185L141.94607692307693,115.79885625839233L142.33646153846152,97.02711099386215L142.39223076923076,112.82123798131944L142.61530769230768,123.68666285276413L142.72684615384617,119.49482583999634L142.83838461538463,75.680488884449L143.06146153846154,76.06601619720459L143.61915384615384,108.20780092477798L143.73069230769232,111.8716763854027L143.84223076923078,109.29661387205124L143.898,99.82203149795532L144.1210769230769,132.0507355928421L144.28838461538462,114.49944221973419L144.73453846153848,101.70677864551544L144.9576153846154,88.31803971529007L145.12492307692307,110.07459127902985L145.73838461538463,97.95203173160553L145.96146153846155,99.60169607400894L146.073,142.33469986915588L146.24030769230768,88.21539157629013L146.35184615384617,124.91647773981094L146.4076153846154,110.61960780620575L146.51915384615384,98.47694301605225L146.63069230769233,108.45537656545639L146.68646153846154,96.54275500774384L146.798,106.38151282072067L146.90953846153846,92.744455575943L146.9653076923077,117.91383230686188L147.18838461538462,115.90094739198685L147.3556923076923,99.22285282611847L147.52300000000002,125.9273629784584L147.80184615384616,91.54429459571838L148.4710769230769,102.0905818939209L148.69415384615385,106.41631239652634L148.86146153846153,114.15057116746902L149.41915384615385,133.37712460756302L149.75376923076922,120.17927938699722L149.80953846153847,105.15710884332657L149.92107692307692,123.92659956216812L150.08838461538463,93.31801199913025L150.2556923076923,93.4956436753273L150.31146153846154,123.0632677078247L150.3672307692308,129.0286364555359L150.87026923076925,121.66778349876404L150.92603846153847,121.80915677547455L150.98180769230768,111.24881172180176L151.09334615384617,141.04441010951996L151.76257692307695,111.65754759311677L151.81834615384614,122.04721027612686L151.87411538461538,108.30315494537354L151.92988461538462,103.50741797685623L152.37603846153846,103.7652319073677L152.87796153846153,115.13503843545914L153.82603846153845,99.94913482666016L154.6068076923077,136.19477623701096L154.77411538461538,109.48395335674286L154.82988461538463,113.68719571828844L154.88565384615384,100.19925677776337L154.9971923076923,113.92121756076814L155.44334615384616,109.89894890785217L155.5548846153846,86.6209768652916L155.77796153846154,94.49058794975281L156.33565384615386,111.8733739256859L156.7818076923077,72.89373779296875L156.83757692307694,118.97675776481628L157.45103846153847,134.62635511159897L157.8971923076923,111.83130675554277L158.23180769230768,104.15065312385559L158.28757692307693,118.61457163095474L158.3991153846154,73.52617764472961L158.51065384615384,112.63861978054048L158.7895,114.47267943620682L159.84911538461537,117.20150196552277L159.96065384615383,105.49918973445892L160.18373076923075,69.48348546028137L160.2395,106.43039667606354L160.74253846153846,126.81469911336899L160.85407692307695,108.20973718166351L161.02138461538462,145.28799557685852L161.07715384615386,115.63790822029114L161.13292307692308,126.44667768478394L161.6906153846154,127.30306023359299L161.74638461538464,113.24283802509309L161.91369230769232,116.38360583782196L162.02523076923077,103.97856497764587L162.2483076923077,96.77046412229538L162.35984615384615,118.73334640264511L162.52715384615385,132.06858628988266L162.63869230769228,112.72434556484224L162.75023076923077,119.83688020706177L162.86176923076923,114.72945892810822L163.3636923076923,110.5397173166275L163.58676923076922,122.64532798528671L163.80984615384614,112.677716255188L163.92138461538462,109.26685386896133L164.0886923076923,132.05964767932892L164.256,123.04119968414307L164.5906153846154,132.4631583094597L164.64638461538462,113.54507976770402L164.86946153846154,111.22088187932968L165.03676923076924,117.31425577402115L165.20407692307694,100.68639779090881L165.31561538461537,105.35712683200836L165.81753846153845,121.98586010932922L165.98484615384615,88.11300867795944L166.0406153846154,133.33428823947906L166.0963846153846,100.69846624135971L166.15215384615385,108.4047686457634L166.31946153846155,115.69554501771927L166.54253846153847,113.41561579704286L166.87715384615385,114.70293486118317L166.9329230769231,91.31740772724152L167.10023076923076,119.56092381477356L167.5463846153846,103.7769820690155L167.82523076923076,102.30749571323395L167.99253846153846,131.25305080413818L168.15984615384613,102.54035049676895L168.21561538461538,132.8150531053543L168.55023076923078,125.18118792772293L168.66176923076924,81.67919838428497L168.9963846153846,108.52054619789124L169.16369230769232,111.31803953647615L169.331,121.66155034303665L169.38676923076923,119.42607545852661L169.60984615384615,104.695139169693L170.61480769230766,110.28259301185608L170.83788461538464,137.08781504631042L170.94942307692307,110.30853354930878L171.22826923076923,113.23726797103883L171.50711538461536,111.19159930944443L172.23211538461538,122.31104516983032L172.4551923076923,104.44560074806213L172.62249999999997,116.4878454208374L173.45903846153848,101.51158803701401L174.0725,130.84675514698029L174.12826923076923,101.2191071510315L174.29557692307694,119.68070650100708L174.6301923076923,119.65977901220322L175.02057692307693,110.7866563796997L175.07634615384615,109.51758587360382L175.1321153846154,91.10935294628143L175.18788461538463,117.56774628162384L175.24365384615385,122.80269527435303L175.29942307692306,140.79298847913742L175.74557692307692,102.49438428878784L177.0282692307692,125.97874009609222L177.08403846153846,117.83365005254745L177.1398076923077,97.18415999412537L177.5301923076923,132.61410677433014L178.14365384615382,117.42088252305984L178.2551923076923,106.68187135457993L178.9244230769231,107.51082801818848L178.9801923076923,133.53892141580582L179.1475,114.28221011161804L179.25903846153844,111.37973451614381L179.31480769230768,104.73890388011932L179.42634615384617,121.78777837753296L180.43130769230768,113.74684834480287L180.71015384615384,130.38470590114594L180.87746153846152,133.6235066652298L181.04476923076925,111.64797240495683L181.5466923076923,110.66867733001709L181.60246153846154,138.58324193954468L181.93707692307692,125.58045470714569L182.04861538461537,129.63144892454147L182.10438461538462,136.7733987569809L182.439,131.92596638202667L182.60630769230767,109.87794184684753L182.6620769230769,121.60075718164444L182.94092307692307,131.4023813009262L183.05246153846153,115.48719847202301L183.16400000000002,127.09901058673859L183.3313076923077,119.3266367316246L183.38707692307693,118.44876968860626L183.83323076923077,130.5466883778572L184.11207692307693,110.52152180671692L184.22361538461539,140.06492936611176L184.27938461538463,130.4490532875061L184.33515384615384,123.9267852306366L184.94861538461538,120.95102363824844L185.50630769230767,112.15153181552888L185.95246153846153,144.76374739408493L186.90053846153847,116.80104160308838L187.17938461538463,104.56461423635483L187.29092307692306,120.63384884595871L187.3466923076923,117.44997942447662L187.51399999999998,133.54746216535568L188.0716923076923,119.22374987602234L188.40630769230768,107.59172642230988L188.62938461538462,125.90097153186798L188.90823076923078,108.52028095722198L189.0197692307692,97.96852970123291L189.1313076923077,119.91337561607361L189.24284615384613,123.12559926509857L189.35438461538462,140.80388987064362L189.57746153846153,109.37297666072845L189.63323076923078,143.40799623727798L189.80053846153845,123.15512055158615L190.13515384615383,130.2225642800331L190.19203846153846,125.83821558952332L190.35934615384613,141.95895993709564L190.41511538461538,143.8134696483612L190.80550000000002,144.72921305894852L190.91703846153845,115.04496270418167L190.9728076923077,132.66460859775543L191.0285769230769,133.4948649406433L191.47473076923075,127.08054983615875L192.31126923076923,137.79531800746918L192.42280769230769,125.47053897380829L192.53434615384617,109.694819688797L192.6458846153846,115.33497685194016L192.7574230769231,135.24656736850739L193.25934615384614,127.50700378417969L193.48242307692306,148.5020228624344L193.59396153846154,133.4678634405136L194.20742307692308,134.13666778802872L194.4305,134.05062371492386L194.98819230769232,146.91641414165497L195.49011538461536,140.77089393138885L195.76896153846153,123.80230778455734L196.15934615384614,115.71259999275208L196.32665384615382,122.62100541591644L196.38242307692306,133.4280242919922L196.71703846153846,137.6586394906044L196.7728076923077,120.3414740562439L196.88434615384617,141.70438194274902L197.05165384615384,143.69915091991425L197.3305,146.4327477812767L197.49780769230767,127.06678384542465L197.55357692307692,121.80989944934845L197.66511538461538,132.46583724021912L198.55742307692307,115.8581110239029L198.9478076923077,122.42936903238297L199.1151153846154,114.85131049156189L199.17088461538464,149.42171835899353L199.56126923076923,129.07134020328522L199.61703846153847,115.45186841487885L200.0074230769231,105.6330036520958L200.12007692307694,155.90791368484497L201.45853846153844,152.24409127235413L201.62584615384617,124.9060537815094L201.7373846153846,125.01538598537445L202.01623076923076,131.64608442783356L202.18353846153846,129.19738256931305L202.2393076923077,130.95672392845154L202.35084615384613,122.19738954305649L202.40661538461538,132.0215060710907L202.797,141.6621025800705L202.90853846153846,135.44907861948013L203.0200769230769,137.62068355083466L203.522,118.27116453647614L203.80084615384615,131.883740067482L204.30276923076923,110.17583364248276L204.4143076923077,130.7864128947258L204.52584615384617,101.20353752374649L204.7489230769231,117.81200641393661L204.91623076923076,129.4011669754982L205.6412307692308,134.35437732934952L205.697,134.99580883979797L205.75276923076922,105.90498143434525L206.0873846153846,143.01246935129166L206.53353846153848,144.77464878559113L206.86815384615386,147.1282353401184L206.92392307692307,135.98799461126328L206.9796923076923,102.13989013433456L207.2027692307692,142.63991230726242L207.48161538461537,120.49125546216965L207.87199999999999,123.66658413410187L208.31815384615385,138.88577544689178L208.54123076923076,134.49431830644608L208.76430769230768,115.0100570321083L208.87584615384617,113.65162694454195L209.21046153846152,129.8572217822075L209.37776923076925,112.65517079830171L209.48930769230768,128.6388652920723L209.60084615384616,111.18963652849197L209.71238461538462,134.69746613502502L209.8796923076923,112.69633615016939L209.93657692307693,139.1655513048172L210.10388461538463,134.48564493656158L210.7731153846154,127.7849760055542L211.05196153846154,137.66641104221344L211.10773076923078,133.72870111465454L211.3308076923077,139.00457674264908L212.33465384615383,158.30218815803528L212.55773076923074,128.99839901924133L212.72503846153847,129.73987931013107L213.0038846153846,138.51457113027573L213.3385,124.97674041986465L213.39426923076925,101.14627206325531L213.61734615384617,115.80588513612747L213.7288846153846,135.58673852682114L214.0635,109.29775440692902L214.11926923076922,113.56245303153993L214.45388461538462,151.1700257062912L214.84426923076924,142.2426878809929L215.1788846153846,136.913498878479L215.34619230769232,122.99706363677979L215.6808076923077,122.15664857625961L216.2942692307692,140.03166818618774L216.4058076923077,128.68586593866348L216.46157692307693,120.90362513065338L216.7961923076923,129.32384932041168L216.96349999999998,134.77512860298157L217.07503846153847,105.39102458953857L217.1308076923077,123.98816192150116L217.24234615384614,137.6941021680832L217.5211923076923,121.5654536485672L218.0788846153846,141.82090216875076L218.4135,120.1673966050148L218.52503846153846,147.82099092006683L218.5808076923077,137.3353641629219L218.80388461538462,131.8717777132988L218.85965384615386,119.95958054065704L219.08273076923078,122.14675509929657L219.1942692307692,132.36040407419205L219.5288846153846,145.54058426618576L219.58465384615386,151.902991771698L219.75196153846153,130.7822751402855L219.92038461538462,142.5083794593811L220.58961538461537,139.27520179748535L220.86846153846153,152.91586631536484L221.03576923076923,149.01735895872116L221.5376923076923,123.96479421854019L221.59346153846155,133.09074425697327L221.92807692307693,129.58131843805313L221.98384615384614,125.38285040855408L222.76461538461538,135.8632784485817L222.9876923076923,135.1368903517723L223.0992307692308,159.44407576322556L223.21076923076922,134.15950500965118L223.37807692307695,151.77111411094666L223.54538461538462,110.10665887594223L224.0473076923077,131.15019047260284L224.38192307692307,147.62471282482147L224.49346153846156,145.15213930606842L225.1069230769231,129.4010608792305L225.16269230769228,121.09687948226929L225.4973076923077,122.48896861076355L225.8876923076923,139.0698259472847L227.22615384615384,115.30794882774353L227.28192307692308,156.28752613067627L227.39346153846154,119.80022394657135L227.56076923076924,109.73333263397217L227.6723076923077,144.64229369163513L228.84346153846155,144.61279892921448L229.01076923076923,143.78882879018784L229.23384615384614,125.8037873506546L229.2896153846154,134.97504049539566L229.34538461538463,143.19959664344788L229.45692307692306,148.85208749771118L229.62534615384618,141.02215641736984L229.79265384615385,112.47735345363618L229.9041923076923,147.5936000943184L230.01573076923077,157.35742741823196L230.4061153846154,125.03801101446152L230.6291923076923,126.82923430204391L230.79649999999998,129.45869767665863L231.07534615384617,162.5655075311661L231.5215,130.59673929214478L231.74457692307692,139.76441168785095L231.85611538461538,132.3475399017334L231.96765384615384,129.0637012720108L232.02342307692308,139.6631162762642L232.35803846153846,147.3704000711441L232.69265384615386,137.42891454696655L232.80419230769232,151.3111867904663L232.9715,138.51823145151138L233.47342307692307,146.62520641088486L233.58496153846156,127.74518990516663L233.64073076923077,151.69838511943817L233.8638076923077,148.8607873916626L234.14265384615385,131.67380207777023L234.25419230769228,118.3754306435585L234.81188461538463,145.62251710891724L234.9234230769231,145.30393654108047L235.03496153846154,128.64377224445343L235.75996153846154,145.46156907081604L235.98303846153846,139.4756972193718L236.09457692307691,119.85348427295685L236.65226923076924,108.25400584936142L236.93111538461537,138.75880473852158L237.32150000000001,120.12055510282516L237.4888076923077,135.12476885318756L237.60034615384615,140.08195781707764L238.71573076923076,135.96913599967957L238.7715,127.39552313089371L238.82726923076925,137.6558809876442L238.93880769230768,132.246111869812L239.1061153846154,115.77010416984558L239.21765384615384,112.64074170589448L239.4976153846154,142.76078248023987L239.7206923076923,130.2212911248207L240.11107692307692,163.04304683208468L240.16684615384617,158.35014367103577L240.22261538461538,138.25869345664978L240.5014615384615,158.14134621620178L240.55723076923076,139.75401425361633L240.78030769230767,152.2174876332283L241.3937692307692,152.25600057840347L241.7283846153846,141.94781982898712L242.063,156.07827776670456L242.2303076923077,154.64345836639404L242.34184615384615,143.57263112068176L242.67646153846155,132.9937722682953L242.84376923076923,130.14285945892334L243.06684615384617,155.5159410238266L243.2899230769231,133.65740442276L243.40146153846152,149.12894570827484L243.56876923076925,136.16451227664948L243.68030769230768,132.1964322924614L243.90338461538462,137.9373543858528L244.01492307692308,144.15923738479614L244.18223076923078,156.78066158294678L244.46107692307694,146.09183394908905L244.68415384615386,145.73879861831665L244.73992307692308,145.20776027441025L244.85146153846154,159.29442697763443L245.35338461538464,122.01546096801758L245.40915384615383,140.6130492091179L246.02261538461536,134.15958458185196L246.13415384615385,145.38929098844528L246.1899230769231,119.6887698173523L246.58030769230768,168.59002494812015L246.69184615384614,139.0774383544922L246.7476153846154,120.52767300605774L246.80338461538463,147.171204328537L246.85915384615384,142.16598027944565L247.0822307692308,125.77779376506805L247.19376923076922,133.94861215353012L248.42069230769232,131.73504614830017L248.588,148.88078653812408L249.0899230769231,138.17885601520538L249.25723076923077,133.02050852775574L249.36876923076923,127.4565019607544L249.59296153846157,162.27742964029315L249.64873076923075,150.89306139945984L249.76026923076924,120.34943127632141L250.20642307692307,143.3338879942894L250.4852692307692,153.05596643686295L250.87565384615385,168.15057420730594L252.43719230769233,135.5784364938736L252.82757692307692,120.78999602794647L253.3852692307692,133.80243802070618L253.44103846153845,121.09343135356903L253.71988461538461,121.49081492424011L254.22180769230766,141.0527121424675L254.2775769230769,139.76727628707886L254.83526923076923,149.23631513118744L254.89103846153847,135.90645962953568L254.9468076923077,153.102303981781L255.05834615384617,146.8684851527214L255.1698846153846,136.79652774333954L255.2814230769231,148.855694770813L255.33719230769233,146.6126605272293L255.39296153846152,146.3232564330101L255.5045,139.21684885025024L256.50834615384616,145.81354343891144L256.7871923076923,149.21355748176575L257.0660384615385,142.49341988563538L257.2333461538461,151.5457125902176L257.40065384615383,111.9304537177086L257.67949999999996,125.03387326002121L258.29296153846155,135.2243402004242L258.7948846153846,136.97705054283142L258.9621923076923,146.09225833415985L259.0179615384615,134.5499392747879L259.46523076923074,163.955607354641L259.79984615384615,161.14845925569534L260.6363846153846,141.99986004829407L260.6921538461539,136.56255894899368L260.8036923076923,121.23056077957153L261.0267692307692,160.4257049560547L261.24984615384614,173.33226287364963L261.41715384615384,157.54991257190704L261.75176923076924,155.08251124620438L261.8633076923077,153.88590449094772L262.3652307692308,147.8469049334526L262.5883076923077,133.48804825544357L262.9229230769231,170.97737663984302L263.20176923076923,148.86296236515045L263.53638461538463,154.1595002412796L263.75946153846155,154.29023736715317L264.0383076923077,140.8448430299759L264.4286923076923,154.96365690231323L264.6517692307692,157.72452050447464L265.1536923076923,150.10776335000992L265.321,143.62305337190628L265.9902307692308,159.33683896064758L266.3806153846154,141.96057790517807L266.54792307692304,127.56095373630524L266.6594615384615,137.49883198738098L266.7152307692308,144.01388549804688L266.9383076923077,136.037992477417L266.99407692307693,134.51543146371841L267.04984615384615,169.84819406270984L267.7190769230769,152.30085277557373L268.0536923076923,144.64823508262634L268.1094615384615,135.37192010879517L268.221,156.04355776309967L268.4998461538462,131.47412890195847L268.55561538461535,131.10878640413284L268.7229230769231,149.1574856042862L269.05753846153846,150.3143327832222L269.22596153846155,159.3935208916664L269.61634615384617,147.2799530029297L270.17403846153843,152.30435395240784L270.50865384615383,168.9203556776047L270.73173076923075,161.12540984153748L270.78749999999997,151.78859347105026" style="fill: none;" fill="none"></path></g></g></g></g></g></g><g transform="translate(40, 178)" clip-path="url(#clip_1)"><clipPath id="clip_1"><rect width="290" height="22"></rect></clipPath><g><g><line x1="0" y1="0" x2="0" y2="5" style="visibility: inherit;" fill="rgb(0, 0, 0)" stroke="rgb(204, 204, 204)" stroke-width="1px"></line><line x1="22.30769230769231" y1="0" x2="22.30769230769231" y2="5" style="visibility: inherit;" fill="rgb(0, 0, 0)" stroke="rgb(204, 204, 204)" stroke-width="1px"></line><line x1="44.61538461538462" y1="0" x2="44.61538461538462" y2="5" style="visibility: inherit;" fill="rgb(0, 0, 0)" stroke="rgb(204, 204, 204)" stroke-width="1px"></line><line x1="66.92307692307692" y1="0" x2="66.92307692307692" y2="5" style="visibility: inherit;" fill="rgb(0, 0, 0)" stroke="rgb(204, 204, 204)" stroke-width="1px"></line><line x1="89.23076923076924" y1="0" x2="89.23076923076924" y2="5" style="visibility: inherit;" fill="rgb(0, 0, 0)" stroke="rgb(204, 204, 204)" stroke-width="1px"></line><line x1="111.53846153846155" y1="0" x2="111.53846153846155" y2="5" style="visibility: inherit;" fill="rgb(0, 0, 0)" stroke="rgb(204, 204, 204)" stroke-width="1px"></line><line x1="133.84615384615384" y1="0" x2="133.84615384615384" y2="5" style="visibility: inherit;" fill="rgb(0, 0, 0)" stroke="rgb(204, 204, 204)" stroke-width="1px"></line><line x1="156.15384615384616" y1="0" x2="156.15384615384616" y2="5" style="visibility: inherit;" fill="rgb(0, 0, 0)" stroke="rgb(204, 204, 204)" stroke-width="1px"></line><line x1="178.46153846153848" y1="0" x2="178.46153846153848" y2="5" style="visibility: inherit;" fill="rgb(0, 0, 0)" stroke="rgb(204, 204, 204)" stroke-width="1px"></line><line x1="200.76923076923077" y1="0" x2="200.76923076923077" y2="5" style="visibility: inherit;" fill="rgb(0, 0, 0)" stroke="rgb(204, 204, 204)" stroke-width="1px"></line><line x1="223.0769230769231" y1="0" x2="223.0769230769231" y2="5" style="visibility: inherit;" fill="rgb(0, 0, 0)" stroke="rgb(204, 204, 204)" stroke-width="1px"></line><line x1="245.3846153846154" y1="0" x2="245.3846153846154" y2="5" style="visibility: inherit;" fill="rgb(0, 0, 0)" stroke="rgb(204, 204, 204)" stroke-width="1px"></line><line x1="267.6923076923077" y1="0" x2="267.6923076923077" y2="5" style="visibility: inherit;" fill="rgb(0, 0, 0)" stroke="rgb(204, 204, 204)" stroke-width="1px"></line><line x1="290" y1="0" x2="290" y2="5" style="visibility: inherit;" fill="rgb(0, 0, 0)" stroke="rgb(204, 204, 204)" stroke-width="1px"></line></g><g transform="translate(0, 8)"><text x="0" y="0" dx="0em" dy="0.95em" style="text-anchor: middle; visibility: hidden; font-family: &quot;Helvetica Neue&quot;, sans-serif; font-size: 12px; font-weight: 200;" fill="rgb(50, 49, 63)" stroke="none" stroke-width="1px">-20k</text><text x="22.30769230769231" y="0" dx="0em" dy="0.95em" style="text-anchor: middle; visibility: inherit; font-family: &quot;Helvetica Neue&quot;, sans-serif; font-size: 12px; font-weight: 200;" fill="rgb(50, 49, 63)" stroke="none" stroke-width="1px">0</text><text x="44.61538461538462" y="0" dx="0em" dy="0.95em" style="text-anchor: middle; visibility: hidden; font-family: &quot;Helvetica Neue&quot;, sans-serif; font-size: 12px; font-weight: 200;" fill="rgb(50, 49, 63)" stroke="none" stroke-width="1px">20k</text><text x="66.92307692307692" y="0" dx="0em" dy="0.95em" style="text-anchor: middle; visibility: inherit; font-family: &quot;Helvetica Neue&quot;, sans-serif; font-size: 12px; font-weight: 200;" fill="rgb(50, 49, 63)" stroke="none" stroke-width="1px">40k</text><text x="89.23076923076924" y="0" dx="0em" dy="0.95em" style="text-anchor: middle; visibility: hidden; font-family: &quot;Helvetica Neue&quot;, sans-serif; font-size: 12px; font-weight: 200;" fill="rgb(50, 49, 63)" stroke="none" stroke-width="1px">60k</text><text x="111.53846153846155" y="0" dx="0em" dy="0.95em" style="text-anchor: middle; visibility: inherit; font-family: &quot;Helvetica Neue&quot;, sans-serif; font-size: 12px; font-weight: 200;" fill="rgb(50, 49, 63)" stroke="none" stroke-width="1px">80k</text><text x="133.84615384615384" y="0" dx="0em" dy="0.95em" style="text-anchor: middle; visibility: hidden; font-family: &quot;Helvetica Neue&quot;, sans-serif; font-size: 12px; font-weight: 200;" fill="rgb(50, 49, 63)" stroke="none" stroke-width="1px">100k</text><text x="156.15384615384616" y="0" dx="0em" dy="0.95em" style="text-anchor: middle; visibility: inherit; font-family: &quot;Helvetica Neue&quot;, sans-serif; font-size: 12px; font-weight: 200;" fill="rgb(50, 49, 63)" stroke="none" stroke-width="1px">120k</text><text x="178.46153846153848" y="0" dx="0em" dy="0.95em" style="text-anchor: middle; visibility: hidden; font-family: &quot;Helvetica Neue&quot;, sans-serif; font-size: 12px; font-weight: 200;" fill="rgb(50, 49, 63)" stroke="none" stroke-width="1px">140k</text><text x="200.76923076923077" y="0" dx="0em" dy="0.95em" style="text-anchor: middle; visibility: inherit; font-family: &quot;Helvetica Neue&quot;, sans-serif; font-size: 12px; font-weight: 200;" fill="rgb(50, 49, 63)" stroke="none" stroke-width="1px">160k</text><text x="223.0769230769231" y="0" dx="0em" dy="0.95em" style="text-anchor: middle; visibility: hidden; font-family: &quot;Helvetica Neue&quot;, sans-serif; font-size: 12px; font-weight: 200;" fill="rgb(50, 49, 63)" stroke="none" stroke-width="1px">180k</text><text x="245.3846153846154" y="0" dx="0em" dy="0.95em" style="text-anchor: middle; visibility: inherit; font-family: &quot;Helvetica Neue&quot;, sans-serif; font-size: 12px; font-weight: 200;" fill="rgb(50, 49, 63)" stroke="none" stroke-width="1px">200k</text><text x="267.6923076923077" y="0" dx="0em" dy="0.95em" style="text-anchor: middle; visibility: hidden; font-family: &quot;Helvetica Neue&quot;, sans-serif; font-size: 12px; font-weight: 200;" fill="rgb(50, 49, 63)" stroke="none" stroke-width="1px">220k</text><text x="290" y="0" dx="0em" dy="0.95em" style="text-anchor: middle; visibility: hidden; font-family: &quot;Helvetica Neue&quot;, sans-serif; font-size: 12px; font-weight: 200;" fill="rgb(50, 49, 63)" stroke="none" stroke-width="1px">240k</text></g><line x1="0" y1="0" x2="290" y2="0" fill="rgb(0, 0, 0)" stroke="rgb(204, 204, 204)" stroke-width="1px"></line></g></g></g></g></svg>