<svg viewBox="0 0 330 200" xmlns="http://www.w3.org/2000/svg"><g><g><g><g><g><line x1="30" y1="178" x2="25" y2="178" style="visibility: inherit;" fill="rgb(0, 0, 0)" stroke="rgb(204, 204, 204)" stroke-width="1px"></line><line x1="30" y1="161.8181818181818" x2="25" y2="161.8181818181818" style="visibility: inherit;" fill="rgb(0, 0, 0)" stroke="rgb(204, 204, 204)" stroke-width="1px"></line><line x1="30" y1="145.63636363636363" x2="25" y2="145.63636363636363" style="visibility: inherit;" fill="rgb(0, 0, 0)" stroke="rgb(204, 204, 204)" stroke-width="1px"></line><line x1="30" y1="129.45454545454547" x2="25" y2="129.45454545454547" style="visibility: inherit;" fill="rgb(0, 0, 0)" stroke="rgb(204, 204, 204)" stroke-width="1px"></line><line x1="30" y1="113.27272727272727" x2="25" y2="113.27272727272727" style="visibility: inherit;" fill="rgb(0, 0, 0)" stroke="rgb(204, 204, 204)" stroke-width="1px"></line><line x1="30" y1="97.0909090909091" x2="25" y2="97.0909090909091" style="visibility: inherit;" fill="rgb(0, 0, 0)" stroke="rgb(204, 204, 204)" stroke-width="1px"></line><line x1="30" y1="80.90909090909092" x2="25" y2="80.90909090909092" style="visibility: inherit;" fill="rgb(0, 0, 0)" stroke="rgb(204, 204, 204)" stroke-width="1px"></line><line x1="30" y1="64.72727272727273" x2="25" y2="64.72727272727273" style="visibility: inherit;" fill="rgb(0, 0, 0)" stroke="rgb(204, 204, 204)" stroke-width="1px"></line><line x1="30" y1="48.54545454545453" x2="25" y2="48.54545454545453" style="visibility: inherit;" fill="rgb(0, 0, 0)" stroke="rgb(204, 204, 204)" stroke-width="1px"></line><line x1="30" y1="32.363636363636346" x2="25" y2="32.363636363636346" style="visibility: inherit;" fill="rgb(0, 0, 0)" stroke="rgb(204, 204, 204)" stroke-width="1px"></line><line x1="30" y1="16.181818181818187" x2="25" y2="16.181818181818187" style="visibility: inherit;" fill="rgb(0, 0, 0)" stroke="rgb(204, 204, 204)" stroke-width="1px"></line><line x1="30" y1="0" x2="25" y2="0" style="visibility: inherit;" fill="rgb(0, 0, 0)" stroke="rgb(204, 204, 204)" stroke-width="1px"></line></g><g transform="translate(20, 0)"><text x="0" y="178" dx="0em" dy="0.3em" style="text-anchor: end; visibility: hidden; font-family: &quot;Helvetica Neue&quot;, sans-serif; font-size: 12px; font-weight: 200;" fill="rgb(50, 49, 63)" stroke="none" stroke-width="1px">68</text><text x="0" y="161.8181818181818" dx="0em" dy="0.3em" style="text-anchor: end; visibility: inherit; font-family: &quot;Helvetica Neue&quot;, sans-serif; font-size: 12px; font-weight: 200;" fill="rgb(50, 49, 63)" stroke="none" stroke-width="1px">70</text><text x="0" y="145.63636363636363" dx="0em" dy="0.3em" style="text-anchor: end; visibility: hidden; font-family: &quot;Helvetica Neue&quot;, sans-serif; font-size: 12px; font-weight: 200;" fill="rgb(50, 49, 63)" stroke="none" stroke-width="1px">72</text><text x="0" y="129.45454545454547" dx="0em" dy="0.3em" style="text-anchor: end; visibility: inherit; font-family: &quot;Helvetica Neue&quot;, sans-serif; font-size: 12px; font-weight: 200;" fill="rgb(50, 49, 63)" stroke="none" stroke-width="1px">74</text><text x="0" y="113.27272727272727" dx="0em" dy="0.3em" style="text-anchor: end; visibility: hidden; font-family: &quot;Helvetica Neue&quot;, sans-serif; font-size: 12px; font-weight: 200;" fill="rgb(50, 49, 63)" stroke="none" stroke-width="1px">76</text><text x="0" y="97.0909090909091" dx="0em" dy="0.3em" style="text-anchor: end; visibility: inherit; font-family: &quot;Helvetica Neue&quot;, sans-serif; font-size: 12px; font-weight: 200;" fill="rgb(50, 49, 63)" stroke="none" stroke-width="1px">78</text><text x="0" y="80.90909090909092" dx="0em" dy="0.3em" style="text-anchor: end; visibility: hidden; font-family: &quot;Helvetica Neue&quot;, sans-serif; font-size: 12px; font-weight: 200;" fill="rgb(50, 49, 63)" stroke="none" stroke-width="1px">80</text><text x="0" y="64.72727272727273" dx="0em" dy="0.3em" style="text-anchor: end; visibility: inherit; font-family: &quot;Helvetica Neue&quot;, sans-serif; font-size: 12px; font-weight: 200;" fill="rgb(50, 49, 63)" stroke="none" stroke-width="1px">82</text><text x="0" y="48.54545454545453" dx="0em" dy="0.3em" style="text-anchor: end; visibility: hidden; font-family: &quot;Helvetica Neue&quot;, sans-serif; font-size: 12px; font-weight: 200;" fill="rgb(50, 49, 63)" stroke="none" stroke-width="1px">84</text><text x="0" y="32.363636363636346" dx="0em" dy="0.3em" style="text-anchor: end; visibility: inherit; font-family: &quot;Helvetica Neue&quot;, sans-serif; font-size: 12px; font-weight: 200;" fill="rgb(50, 49, 63)" stroke="none" stroke-width="1px">86</text><text x="0" y="16.181818181818187" dx="0em" dy="0.3em" style="text-anchor: end; visibility: hidden; font-family: &quot;Helvetica Neue&quot;, sans-serif; font-size: 12px; font-weight: 200;" fill="rgb(50, 49, 63)" stroke="none" stroke-width="1px">88</text><text x="0" y="0" dx="0em" dy="0.3em" style="text-anchor: end; visibility: hidden; font-family: &quot;Helvetica Neue&quot;, sans-serif; font-size: 12px; font-weight: 200;" fill="rgb(50, 49, 63)" stroke="none" stroke-width="1px">90</text></g><line x1="30" y1="0" x2="30" y2="178" fill="rgb(0, 0, 0)" stroke="rgb(204, 204, 204)" stroke-width="1px"></line></g></g><g transform="translate(30, 0)" clip-path="url(#clip_0)"><clipPath id="clip_0"><rect width="300" height="178"></rect></clipPath><g><g><g><line x1="0" y1="0" x2="0" y2="178" fill="rgb(0, 0, 0)" stroke="rgb(60, 60, 60)" stroke-width="1px" opacity="0.25"></line><line x1="23.076923076923077" y1="0" x2="23.076923076923077" y2="178" fill="rgb(0, 0, 0)" stroke="rgb(60, 60, 60)" stroke-width="1px" opacity="0.25"></line><line x1="46.15384615384615" y1="0" x2="46.15384615384615" y2="178" fill="rgb(0, 0, 0)" stroke="rgb(60, 60, 60)" stroke-width="1px" opacity="0.25"></line><line x1="69.23076923076924" y1="0" x2="69.23076923076924" y2="178" fill="rgb(0, 0, 0)" stroke="rgb(60, 60, 60)" stroke-width="1px" opacity="0.25"></line><line x1="92.3076923076923" y1="0" x2="92.3076923076923" y2="178" fill="rgb(0, 0, 0)" stroke="rgb(60, 60, 60)" stroke-width="1px" opacity="0.25"></line><line x1="115.38461538461539" y1="0" x2="115.38461538461539" y2="178" fill="rgb(0, 0, 0)" stroke="rgb(60, 60, 60)" stroke-width="1px" opacity="0.25"></line><line x1="138.46153846153848" y1="0" x2="138.46153846153848" y2="178" fill="rgb(0, 0, 0)" stroke="rgb(60, 60, 60)" stroke-width="1px" opacity="0.25"></line><line x1="161.53846153846152" y1="0" x2="161.53846153846152" y2="178" fill="rgb(0, 0, 0)" stroke="rgb(60, 60, 60)" stroke-width="1px" opacity="0.25"></line><line x1="184.6153846153846" y1="0" x2="184.6153846153846" y2="178" fill="rgb(0, 0, 0)" stroke="rgb(60, 60, 60)" stroke-width="1px" opacity="0.25"></line><line x1="207.69230769230768" y1="0" x2="207.69230769230768" y2="178" fill="rgb(0, 0, 0)" stroke="rgb(60, 60, 60)" stroke-width="1px" opacity="0.25"></line><line x1="230.76923076923077" y1="0" x2="230.76923076923077" y2="178" fill="rgb(0, 0, 0)" stroke="rgb(60, 60, 60)" stroke-width="1px" opacity="0.25"></line><line x1="253.84615384615384" y1="0" x2="253.84615384615384" y2="178" fill="rgb(0, 0, 0)" stroke="rgb(60, 60, 60)" stroke-width="1px" opacity="0.25"></line><line x1="276.92307692307696" y1="0" x2="276.92307692307696" y2="178" fill="rgb(0, 0, 0)" stroke="rgb(60, 60, 60)" stroke-width="1px" opacity="0.25"></line><line x1="300" y1="0" x2="300" y2="178" fill="rgb(0, 0, 0)" stroke="rgb(60, 60, 60)" stroke-width="1px" opacity="0.25"></line></g><g><line x1="0" y1="178" x2="300" y2="178" fill="rgb(0, 0, 0)" stroke="rgb(60, 60, 60)" stroke-width="1px" opacity="0.25"></line><line x1="0" y1="161.8181818181818" x2="300" y2="161.8181818181818" fill="rgb(0, 0, 0)" stroke="rgb(60, 60, 60)" stroke-width="1px" opacity="0.25"></line><line x1="0" y1="145.63636363636363" x2="300" y2="145.63636363636363" fill="rgb(0, 0, 0)" stroke="rgb(60, 60, 60)" stroke-width="1px" opacity="0.25"></line><line x1="0" y1="129.45454545454547" x2="300" y2="129.45454545454547" fill="rgb(0, 0, 0)" stroke="rgb(60, 60, 60)" stroke-width="1px" opacity="0.25"></line><line x1="0" y1="113.27272727272727" x2="300" y2="113.27272727272727" fill="rgb(0, 0, 0)" stroke="rgb(60, 60, 60)" stroke-width="1px" opacity="0.25"></line><line x1="0" y1="97.0909090909091" x2="300" y2="97.0909090909091" fill="rgb(0, 0, 0)" stroke="rgb(60, 60, 60)" stroke-width="1px" opacity="0.25"></line><line x1="0" y1="80.90909090909092" x2="300" y2="80.90909090909092" fill="rgb(0, 0, 0)" stroke="rgb(60, 60, 60)" stroke-width="1px" opacity="0.25"></line><line x1="0" y1="64.72727272727273" x2="300" y2="64.72727272727273" fill="rgb(0, 0, 0)" stroke="rgb(60, 60, 60)" stroke-width="1px" opacity="0.25"></line><line x1="0" y1="48.54545454545453" x2="300" y2="48.54545454545453" fill="rgb(0, 0, 0)" stroke="rgb(60, 60, 60)" stroke-width="1px" opacity="0.25"></line><line x1="0" y1="32.363636363636346" x2="300" y2="32.363636363636346" fill="rgb(0, 0, 0)" stroke="rgb(60, 60, 60)" stroke-width="1px" opacity="0.25"></line><line x1="0" y1="16.181818181818187" x2="300" y2="16.181818181818187" fill="rgb(0, 0, 0)" stroke="rgb(60, 60, 60)" stroke-width="1px" opacity="0.25"></line><line x1="0" y1="0" x2="300" y2="0" fill="rgb(0, 0, 0)" stroke="rgb(60, 60, 60)" stroke-width="1px" opacity="0.25"></line></g></g></g><g><g><line x1="0" y1="728.1818181818181" x2="300" y2="728.1818181818181" fill="rgb(0, 0, 0)" stroke="rgb(153, 153, 153)" stroke-width="1.5px"></line></g></g><g><g><line x1="23.076923076923077" y1="0" x2="23.076923076923077" y2="178" fill="rgb(0, 0, 0)" stroke="rgb(153, 153, 153)" stroke-width="1.5px"></line></g></g><g><g><g><g><g><path stroke="rgb(255, 112, 67)" stroke-width="2px" d="M28.5,201.7126594511401L28.961538461538463,174.82499383216293L29.134615384615387,174.70287402910878L29.19230769230769,193.41588533279253L29.596153846153843,180.98632440997335L29.884615384615387,177.54480340653154L30.346153846153847,188.82835371394387L31.096153846153847,186.83864176539626L31.73076923076923,168.62893940073485L32.01923076923077,175.13160125658857L32.19230769230769,160.10099694802145L32.71153846153846,162.63843500137642L32.76923076923077,167.21300239094919L33.28961538461539,194.17777386958412L33.57807692307692,139.69735813688288L33.69346153846154,153.8428099995477L33.75115384615385,136.20622538789254L33.981923076923074,142.16915195419188L34.44346153846154,152.72324522559532L34.905,162.85520321522836L34.96269230769231,156.32824370382642L35.020384615384614,158.885742634075L35.25115384615385,146.9733293659284L35.88576923076923,135.97217528460985L36.23192307692308,137.545454867543L36.520384615384614,137.5925104587315L36.693461538461534,125.47512772424506L37.385769230769235,132.9764993879412L37.73192307692308,161.7325147466913L38.020384615384614,161.00588473961466L38.193461538461534,138.76261920661892L38.42423076923077,137.67070137810782L38.655,141.08909743180953L38.770384615384614,152.87441051782852L39.86653846153846,142.19638236777314L40.155,126.48075017619664L40.21269230769231,113.35331013586679L40.50115384615384,133.55345897204558L40.78961538461539,155.3221525126142L40.905,149.03391784296218L41.36653846153846,121.29003853703736L41.42423076923077,121.34155701565672L41.770384615384614,153.63004348187215L41.82807692307693,134.91216021142066L41.885769230769235,150.82221713580287L42.058846153846154,151.29729678524996L42.57807692307693,118.09803074089729L43.03961538461538,115.28511774333197L43.90615384615385,121.4279739687959L44.136923076923075,118.02581407951041L44.48307692307692,152.91419869162655L44.713846153846156,151.26844316517182L44.82923076923077,100.54792547219014L45.52153846153846,110.90131327453614L45.57923076923077,118.80443030660183L46.502307692307696,119.83464192767397L47.252307692307696,116.80369305437637L47.31,127.25672452397893L47.425384615384615,119.69674745695843L47.77153846153846,126.88459692718436L48.290769230769236,123.76512619840565L48.40615384615385,119.08002960867833L48.46384615384615,115.44879075127801L48.636923076923075,132.60234130475132L48.98307692307692,159.8436401799553L49.50230769230769,142.71309314984512L49.675384615384615,137.71812119890416L49.73307692307692,135.13172851554393L50.309999999999995,120.14728742839816L51.175384615384615,120.61913081137189L51.29076923076923,122.29771087316126L51.40615384615385,137.03417867942886L52.213846153846156,133.91020061421582L52.502307692307696,115.79193038190769L52.6176923076923,122.85618533516447L52.79076923076923,124.21124770426479L53.252307692307696,137.86745721644195L53.598461538461535,122.61431146968675L53.713846153846156,125.58453924612624L53.83038461538462,128.81966996808512L54.176538461538456,127.31111518220908L54.464999999999996,111.95948459572273L55.04192307692308,111.7999707060872L55.15730769230769,117.69458778331503L55.38807692307692,122.54666285621258L55.73423076923077,116.29433520218959L55.964999999999996,96.53811794069506L56.31115384615385,103.14274822067621L56.42653846153846,95.89864784433232L56.48423076923077,112.4251572916432L56.59961538461539,122.47957050292277L56.714999999999996,123.21275834126212L56.7726923076923,116.68860937105327L57.06115384615384,100.82721345706794L57.11884615384616,109.94416796833934L57.63807692307692,133.67012387849462L57.98423076923077,134.2290903085235L58.09961538461539,126.75399091701992L58.38807692307692,107.16372286825671L58.67653846153846,133.01276293425184L58.79192307692308,120.69927101062447L59.48423076923077,131.13553640517154L59.88807692307693,118.99501030065751L59.94576923076923,106.17217189956783L60.06115384615384,127.45511413589927L60.11884615384615,120.31708843998857L60.17653846153846,119.70117067706052L60.23423076923077,124.2313968185745L60.34961538461538,130.79944418095943L60.52269230769231,119.81136056197158L60.753461538461536,129.50294581341123L61.04192307692308,121.49688552514021L61.215,127.74893027046818L61.44576923076924,116.64824329844782L61.61884615384615,101.81610918948553L61.79192307692308,104.60774987665215L62.02269230769231,127.53926590870773L62.08038461538462,119.06932073552522L62.31115384615385,126.6634860122503L62.59961538461538,113.56636633257247L62.65730769230769,117.99095579266063L63.06115384615385,113.98819194465196L63.23423076923077,108.61309271523157L63.464999999999996,105.70741379590385L63.63807692307692,93.54598698389721L64.04307692307692,111.66249452046212L64.27384615384615,116.96284726915806L64.44692307692307,129.53242759494316L64.50461538461538,102.69502692072825L64.56230769230768,93.36560826820178L64.96615384615384,79.06217562787718L65.31230769230768,109.24335562748334L65.42769230769231,107.99689321279229L65.48538461538462,103.79704437097554L65.71615384615384,125.23458602857784L65.94692307692308,123.73510699032497L66.12,139.94578782053057L66.17769230769231,112.16871836853129L66.23538461538462,121.12318728235451L66.46615384615384,113.22737047470106L66.98538461538462,118.92275659695571L67.21615384615384,103.07877504094306L67.27384615384615,85.76975782023312L67.33153846153846,109.9242401817634L67.44692307692308,113.77850434046204L67.50461538461539,123.5068064596093L67.85076923076923,109.3746284136019L68.08153846153846,110.51562831178921L68.13923076923076,106.45330507623387L68.25461538461539,97.11525441238545L68.37,105.62443283561203L68.54307692307692,106.76343777748588L68.60076923076923,118.53952986562774L68.65846153846154,101.84509711054507L68.71615384615384,114.71707019872642L68.88923076923076,104.4239786479525L69.12,104.39243233894811L69.40846153846154,102.95712102858869L69.46615384615384,113.30282816981598L69.52384615384615,93.30917758579922L69.87,104.03862584265649L70.44692307692307,99.84333893465954L70.62,85.6596132443405L70.85076923076923,96.43647400570632L71.08153846153846,118.52478500289263L71.19692307692307,105.64886762145106L71.48538461538462,103.74329462481425L72.87,112.41737773070606L72.98538461538462,102.94743074031003L73.04307692307692,99.60896857423256L73.27384615384615,102.373969342023L73.38923076923076,109.06794655655753L73.62,106.08156879806633L73.73538461538462,88.61837835981224L74.14038461538462,84.89661483185174L74.48653846153846,91.37456618395268L74.7173076923077,98.66455532992836L75.12115384615385,108.85989897812897L75.17884615384615,106.72088681324514L75.23653846153846,94.85937399574463L75.29423076923077,89.88034436702507L75.58269230769231,100.32528814120667L75.69807692307691,95.54233228642273L75.87115384615385,102.32700348286845L75.92884615384615,92.51177118590732L76.04423076923077,98.00739030352612L76.50576923076923,109.99720749189233L76.56346153846152,114.29355159082942L76.73653846153846,83.00328022389743L77.14038461538462,91.62328020974735L77.31346153846152,100.23877662384837L77.83269230769231,96.92234959537545L77.94807692307693,81.76521944936903L78.06346153846152,108.50760587109885L78.23653846153846,104.96081315836894L78.29423076923077,78.75030248299991L78.81346153846154,88.7235075068185L78.87115384615385,89.9729778640618L79.10192307692307,104.06962350337258L79.15961538461538,101.69667315608105L79.2173076923077,94.68661113039583L79.27499999999999,96.19185328429815L79.50576923076923,98.16671216038273L79.56346153846154,92.97566859695633L79.73653846153846,104.61066329492948L79.79423076923078,108.38319413340959L80.25576923076923,99.34744017916535L80.48653846153846,123.26970127538495L80.60192307692307,146.96603916679513L80.7173076923077,111.27385119539541L80.77499999999999,89.07589030790395L81.23653846153846,76.27958527418947L81.29423076923078,91.30951450936975L81.4673076923077,94.7211723764926L81.92884615384615,82.6068931363986L82.04423076923078,100.53221047188111L82.27499999999999,107.6205373869479L82.33269230769231,116.64328360266995L82.62115384615385,103.87505246638781L83.025,106.39815541609713L83.65961538461539,112.81751278138985L83.775,83.20862032556137L84.12115384615385,100.32426968309548L84.29423076923078,90.20441071283439L84.35307692307693,101.87540499541109L84.58384615384615,101.11493271965938L84.81461538461538,72.1961380162485L84.93,85.92243871988252L85.21846153846154,86.26372155626133L85.27615384615385,102.41473249193614L85.33384615384615,89.19021328784181L85.79538461538462,89.7964754964733L86.14153846153847,88.16746139505791L86.37230769230769,59.93483779207476L86.43,85.21180586032752L86.4876923076923,96.20836583813211L87.00692307692309,78.26869746783701L87.29538461538462,95.30619295839095L87.64153846153846,90.98523494884098L88.10307692307691,110.1310486257435L88.21846153846154,82.6460404538675L89.3723076923077,92.57423760668583L89.42999999999999,89.71341126613667L89.66076923076923,125.44579231738544L89.71846153846153,92.26117660457288L89.77615384615385,82.74147949337913L90.81461538461538,98.88536096782019L91.10307692307693,96.82458586824913L91.50692307692307,104.63898037473264L91.56461538461538,116.91639705154L91.91076923076923,85.93534329592634L92.02615384615385,106.67866914533867L92.31461538461538,121.82714852303161L92.42999999999999,114.86859764584335L92.5453846153846,115.82548754681584L92.77615384615385,106.02472076577592L93.81461538461538,91.28743761978075L93.92999999999999,111.20806675179894L94.0453846153846,100.29631610763752L94.50692307692307,117.57831854944325L94.62346153846154,96.46027333860351L94.9696153846154,90.94706186830255L95.08500000000001,76.7914179490295L95.20038461538462,77.87819263823785L95.25807692307693,85.30256690013618L95.43115384615385,96.08172292593135L95.7196153846154,95.34480572665642L96.18115384615383,97.39286661423714L96.58500000000001,102.12209783550078L96.93115384615383,96.59955090937721L97.16192307692307,87.01083541275014L97.21961538461538,76.25848570627805L97.27730769230769,81.34333925214447L97.33500000000001,94.89395463153379L97.68115384615383,91.06629298181188L98.25807692307693,95.07862188668678L98.37346153846154,75.70765084157426L98.54653846153847,70.0536875614878L98.60423076923077,84.49444613993958L98.77730769230769,90.52759673149716L99.12346153846154,79.04196196400709L99.23884615384615,78.94086416570693L99.41192307692307,95.76489994961888L99.58500000000001,93.2869825109643L99.75807692307691,91.24842725340027L99.81576923076923,67.47243584924897L100.85423076923077,83.9954919075624L101.48884615384615,91.68480042926886L101.71961538461538,101.08565703940296L102.585,103.79991960716009L102.75807692307691,75.47727127565837L102.81576923076923,113.07361524555706L102.93115384615385,103.05528915518785L102.98884615384615,103.64880512479685L104.14269230769231,105.21606515471538L104.20038461538462,86.5745383546755L104.25807692307691,101.04846943320486L104.54653846153846,85.58982901300034L104.71961538461538,75.73513386514391L104.89384615384616,85.71713044441094L105.00923076923078,84.47726765116782L105.24,69.8716372433707L105.47076923076922,77.1178768375176L105.70153846153846,98.44476239595961L106.6246153846154,83.90432916767375L107.14384615384616,78.30764296638883L107.20153846153846,77.5679818242429L107.83615384615385,73.25257311394556L108.2976923076923,78.30473880319117L108.35538461538461,78.60735091508286L108.52846153846154,77.32586767520407L108.64384615384616,81.55513966102633L108.70153846153846,106.54709609752666L109.16307692307693,91.7553062667802L109.22076923076922,84.78703922611459L109.6246153846154,88.42285014618578L109.74000000000001,80.1905787293805L110.49000000000001,75.4465760430196L110.5476923076923,74.17076494380973L110.72076923076922,75.3811786020173L111.12461538461538,90.3382602190107L111.81692307692308,81.82873234371283L112.10538461538462,92.73068320464527L112.16307692307691,96.01401544723348L112.27846153846154,102.49581722461305L112.68230769230769,94.83725509114547L113.08615384615385,78.29732964790476L113.14384615384616,88.37722560002663L113.66307692307691,80.02474854604137L113.89384615384616,86.6470992880445L114.00923076923077,84.8809626998988L114.24000000000001,74.58999966146564L114.75923076923077,81.66300786630194L115.10653846153846,78.1830212203087L115.16423076923077,89.9410592230928L115.45269230769232,93.50152636289735L115.91423076923077,74.94294031964701L116.02961538461538,75.18617452642505L116.43346153846153,81.80370579309714L116.49115384615385,66.40276993827986L116.72192307692308,83.92071695671481L117.01038461538461,79.77586989159101L117.18346153846154,77.93849272351433L117.29884615384614,94.65758527599435L117.47192307692308,76.00916321985007L117.645,89.05660423772797L117.87576923076922,73.12844866744776L118.33730769230769,86.56207218401897L118.79884615384614,74.36403833112011L118.91423076923076,89.27153983795908L119.02961538461538,100.40873467866044L119.20269230769232,91.19203950149854L119.26038461538461,74.3998173142058L119.60653846153846,74.8345390469118L119.66423076923076,86.28362948085271L120.12576923076922,83.79416324611135L120.29884615384616,97.91078239058142L120.35653846153846,86.16182759326195L120.41423076923076,84.63954115351127L120.47192307692308,72.71813111436397L120.58730769230769,88.30159219130935L120.76038461538461,75.42122446414442L121.16423076923077,80.03329697957989L121.22192307692308,80.64635273023761L121.62576923076922,95.64524671983924L121.68346153846154,68.42592410528518L121.74115384615384,103.02479053170099L122.26038461538461,84.08392357363944L122.49115384615384,86.54975190674205L122.60653846153846,91.2433556784457L122.66423076923077,58.167084975573076L122.7796153846154,81.56529605819036L123.06807692307693,97.97634853037L123.12576923076922,83.88336739979816L123.24115384615384,76.521702586106L123.29884615384616,74.65413095960315L123.35653846153846,74.99250026033744L123.64500000000001,108.60345624098747L124.4526923076923,103.9281549725493L124.97192307692308,99.62374602179408L125.26153846153846,98.49666498862278L125.66538461538462,73.27102604410553L125.72307692307692,79.42103393183969L126.2423076923077,66.5519978654317L126.64615384615385,62.78449126636778L127.16538461538461,76.56086520772462L127.33846153846153,79.14724411764864L127.7423076923077,58.929695626873965L127.85769230769232,91.56570137383102L128.08846153846153,82.69798598865412L128.6653846153846,71.56913673010126L128.72307692307692,60.599964305052225L128.89615384615385,52.34648751039887L129.1846153846154,63.17285161533569L129.4153846153846,51.575017979607L130.16538461538462,64.1877201405308L130.28076923076924,73.24394275946658L130.33846153846153,80.87500965168151L130.6846153846154,90.24884433726588L130.7423076923077,71.32898527139461L130.8,74.20828489804667L130.91538461538462,100.72203192271661L131.0307692307692,92.3977817569908L131.72307692307692,78.52323987544152L132.76153846153846,69.53426411018226L133.1076923076923,61.47039962490042L133.45384615384614,72.01604678399896L133.51153846153846,90.91397021029297L133.8576923076923,89.0387313019018L134.08846153846153,88.00508294148501L134.20384615384614,84.54821171383317L134.31923076923076,83.86797948594064L134.66538461538462,93.10873382824848L134.83846153846153,81.59634383399927L134.95384615384614,58.64540136908296L135.12692307692308,79.01399207321158L135.3,89.88425001509647L135.41653846153847,70.41559634075504L135.93576923076924,71.39230349717505L136.05115384615385,65.5404050051185L136.74346153846153,52.168487052183636L136.80115384615385,66.51097029611944L136.85884615384617,78.5221407564717L137.66653846153847,75.83634588738633L137.8973076923077,92.46861159092293L138.12807692307692,71.87790245255209L138.35884615384617,64.74008561558195L138.41653846153847,75.15940285142273L138.58961538461537,67.71146651305295L138.70499999999998,79.75435618871258L138.82038461538463,79.35118846228227L139.28192307692308,75.23023446837217L139.3973076923077,61.791152166461615L139.5703846153846,61.66268370147442L139.74346153846153,86.57366431343416L139.91653846153847,93.35118920436412L140.03192307692308,87.14496885514802L140.20499999999998,70.36640887220936L140.37807692307692,72.42686172083374L141.30115384615385,79.11956214506755L141.70499999999998,58.49888251792106L141.99346153846153,53.832335209921794L142.05115384615385,75.76691407227612L142.10884615384614,62.789956992568065L142.2242307692308,77.73881392161191L142.28192307692308,66.39720417404214L142.3973076923077,80.24921205010868L142.5126923076923,77.67561658134123L142.74346153846153,81.02077066221318L142.9742307692308,71.93764980828311L143.2626923076923,76.19494982474261L143.37807692307692,70.71165787389208L143.78192307692308,70.24764597722452L143.8973076923077,95.8756285904197L143.955,101.73796385955225L144.12807692307692,97.7298855290483L144.24346153846153,86.71556808125533L144.4742307692308,68.5676472754064L144.7626923076923,73.4517419226566L144.87807692307692,73.13135547086218L144.9357692307692,68.5626900274892L145.5126923076923,69.39325692890111L145.57038461538463,70.87616223991411L145.74461538461537,74.60724959804409L145.9176923076923,55.49741417884066L146.09076923076924,67.96616331282307L146.14846153846153,54.65136625847319L146.32153846153847,55.59312119789891L146.37923076923076,61.17791784074842L146.49461538461537,62.71465236028122L146.78307692307692,40.16135983328411L146.84076923076924,51.44760804264776L147.24461538461537,72.07064604915801L147.3023076923077,71.08260405977585L147.53307692307692,56.26080839799758L147.64846153846153,65.06815188219224L147.76384615384615,92.20508960485215L147.99461538461537,92.38881195447591L148.57153846153847,83.07308036779257L148.68692307692308,71.84919066473687L148.8023076923077,71.40739183742707L148.85999999999999,71.30721656634267L149.09076923076924,63.55823843958508L149.26384615384615,55.81279270164201L149.72538461538463,64.1658601965234L149.95615384615385,78.79053287252242L150.12923076923076,71.26857847137592L150.76384615384615,71.61998193041765L150.99461538461537,82.90852674742693L151.11,52.43611837135164L151.28307692307692,69.4549237294009L151.39846153846156,62.86704366378659L151.45615384615385,66.63714980068518L151.57153846153847,83.9551233087913L151.68692307692308,72.31749603527322L151.7446153846154,80.85538570966318L151.85999999999999,76.53631937334379L151.97538461538463,85.55900240435487L152.03307692307695,71.78931465729733L152.26384615384617,63.60953401566398L152.43692307692308,67.15878128069353L152.61,50.104041341661L152.89846153846156,85.53772090025673L153.5907692307692,69.58038094792242L153.82153846153847,65.15061304425339L153.99461538461537,53.175531009112305L154.57153846153847,46.74673757477302L154.9176923076923,62.47012341476598L154.97538461538463,67.21924428317449L155.0907692307692,53.19727137899092L155.26384615384617,70.73863351219694L155.43692307692308,83.50672577365205L155.4946153846154,64.67508943730697L155.5523076923077,50.78214538920878L156.0726923076923,51.64374687160108L156.13038461538463,51.79441807615093L156.18807692307692,55.14674889863099L156.30346153846153,42.535773826194514L156.99576923076924,65.64217988789301L157.05346153846153,55.98158988777686L157.11115384615383,59.29097819535923L157.16884615384615,64.48468219429238L157.6303846153846,67.13946614565907L158.1496153846154,69.26755069519372L159.1303846153846,74.970806632009L159.93807692307692,45.84060611424758L160.11115384615385,59.12215579723153L160.16884615384615,63.077108192694L160.22653846153847,62.820159976340776L160.34192307692305,59.25515492372172L160.80346153846153,59.77219924811263L160.91884615384615,86.82180745176872L161.1496153846154,80.59356711845406L161.72653846153847,79.74580438569159L162.18807692307692,94.26825508745819L162.24576923076924,72.53480849645236L162.88038461538463,51.89936903763865L163.34192307692308,62.87590035529023L163.68807692307692,69.33464892128431L163.74576923076924,67.00376215241518L163.86115384615385,96.11308127134605L163.97653846153847,80.03942455063778L164.265,72.40166993610309L165.36115384615383,58.56918074878642L165.47653846153847,65.43762475797233L165.7073076923077,99.4953355009002L165.765,81.35034937685482L166.2853846153846,58.41691081558669L166.40076923076924,69.0963902585032L166.57384615384615,47.88332083343255L166.63153846153847,54.21440254441899L166.6892307692308,54.15319766096415L167.26615384615386,47.25232887170904L167.32384615384618,60.86768613265981L167.49692307692308,62.56765662271259L167.6123076923077,67.61712974771133L167.84307692307692,82.88324551666514L167.95846153846153,66.89554019996582L168.13153846153847,52.42154527754124L168.24692307692305,65.23588026749981L168.3623076923077,70.37466942859422L168.4776923076923,61.88114555736033L168.99692307692308,70.3805756202222L169.2276923076923,56.76826557880018L169.45846153846153,73.3573724570651L169.57384615384615,67.71647153326215L169.74692307692305,55.43582151757364L169.92000000000002,59.53238573472433L170.26615384615386,44.08622543887873L170.32384615384618,62.782685813481834L170.5546153846154,69.71666214219354L170.7276923076923,69.13243284953393L170.90076923076924,72.01860080157095L171.01615384615383,76.6687067524786L171.5353846153846,60.101768503238276L171.70846153846153,76.25110668123166L171.76615384615386,49.99698249209595L171.82384615384615,76.02828522725417L171.88153846153844,68.3428308135376L172.0546153846154,70.82919638706117L172.28538461538463,68.70085554309372L172.63153846153847,60.8090599577169L172.6892307692308,85.13422494532291L172.8623076923077,60.578659429175744L173.32384615384615,73.70408495865782L173.61230769230767,71.22738690339105L173.78538461538463,56.00531566652067L173.95846153846153,72.37650182941734L174.01615384615386,56.6489777288901L174.3623076923077,56.67869128786094L174.47769230769234,89.49817012495022L174.82384615384615,69.48063819901738L174.99692307692308,72.43534191691403L175.17,59.48816392927796L175.2276923076923,57.81131290392538L175.45846153846153,67.6868090101159L176.4980769230769,67.38147674622549L176.72884615384618,47.33026014589365L176.84423076923076,56.91102491266459L177.1326923076923,67.22340055241273L177.42115384615383,76.80338380208742L178.17115384615386,64.56394923930347L178.40192307692308,71.70795666121758L178.575,60.371849528328056L179.44038461538463,76.97833827802087L180.075,58.13189342898515L180.1326923076923,75.11513496206737L180.30576923076924,61.970814861067836L180.65192307692308,69.12590757200115L181.05576923076922,67.972651643937L181.11346153846154,71.70873455235194L181.17115384615386,82.70501545459506L181.22884615384618,64.74050396499176L181.28653846153844,65.34352944655544L181.34423076923076,43.090263229607615L181.80576923076924,64.0928690412367L183.1326923076923,52.25935880640958L183.19038461538463,57.16993292767843L183.24807692307692,78.30535006484925L183.65192307692305,59.180266005228106L184.28653846153844,58.821406433981494L184.40192307692308,66.20275307920906L185.0942307692308,69.70084320780927L185.15192307692305,45.182974062196365L185.32500000000002,47.77116849151943L185.4403846153846,61.81753995619171L185.49807692307692,72.39889413351955L185.61346153846154,61.76097066093216L186.65307692307692,67.0963322888115L186.94153846153847,53.03331682864453L187.11461538461538,53.262461562487175L187.2876923076923,61.47350324757694L187.80692307692308,67.66805250570069L187.86461538461538,47.6307711011643L188.21076923076924,58.33974118197837L188.32615384615383,44.77126501983233L188.38384615384615,36.184141554844444L188.73,47.851571201804944L188.9030769230769,61.886815340810585L188.96076923076922,52.23100300123558L189.24923076923076,53.03192179159497L189.36461538461538,61.024135502988145L189.48000000000002,48.91750308819678L189.65307692307692,54.886282684160605L189.71076923076924,59.19157249112803L190.1723076923077,57.70427364386724L190.46076923076922,63.65011328378961L190.57615384615386,39.835112026907154L190.63384615384618,40.3836543356112L190.69153846153844,49.99969539680825L191.32615384615383,49.28994456042659L191.90307692307692,55.72066111082597L192.36461538461538,37.59031415577982L193.34538461538463,55.04868279764844L193.63384615384618,84.012738620034L193.74923076923076,67.30590087345254L193.80692307692308,57.31919849024068L193.98,49.27650545216815L194.55692307692306,52.16445534769771L194.90307692307692,64.70189272890988L195.13384615384618,57.43330965660799L195.4223076923077,63.97162879175781L195.5376923076923,74.46677682056621L195.65307692307692,59.70265393739409L195.76846153846154,48.888690287996525L195.88384615384615,38.60406089388303L196.11461538461538,61.37059329590821L196.1723076923077,45.44217365250199L196.3453846153846,49.51307957766204L196.69153846153844,56.653575556759236L196.75038461538463,60.44985081255777L196.92346153846154,43.63696094223147L196.98115384615386,37.25595693223886L197.38500000000002,26.535779708289425L197.5003846153846,52.4034187796522L197.55807692307692,49.582201171005096L197.61576923076925,46.91893691824043L198.07730769230767,50.837033198385825L198.94269230769228,41.60966979338923L199.05807692307692,62.287961237976944L199.17346153846154,70.90754232425185L199.28884615384615,75.47918075480398L199.40423076923076,53.422795378008175L199.92346153846154,50.637968929009716L200.15423076923076,31.65902526122241L200.26961538461538,45.972749470678565L200.90423076923076,43.27776005238522L201.135,39.704463935459955L201.71192307692309,36.96957698470408L202.23115384615383,38.21792484767511L202.51961538461538,47.342607387607785L202.92346153846154,61.19892569606307L203.09653846153844,52.89782613799592L203.15423076923076,48.938914047897356L203.5003846153846,41.08063550698293L203.55807692307692,55.399750649653484L203.67346153846157,41.997961069696316L203.84653846153847,36.30947049642384L204.135,35.85122037422465L204.3080769230769,43.839969439238274L204.36576923076922,53.58469048609062L204.48115384615386,47.7430643390978L205.40423076923076,60.87659119060105L205.8080769230769,53.34540041126856L205.98115384615386,67.57493713720775L206.03884615384618,41.22018379175279L206.4426923076923,46.68417765450482L206.5003846153846,59.1060714448778L206.9042307692308,55.94762607102548L207.02076923076922,34.808394003059306L208.4053846153846,32.27356525902334L208.57846153846154,42.3478372473848L208.69384615384615,52.42032462947108L208.98230769230767,47.6317559026908L209.15538461538463,47.943034488980175L209.21307692307693,54.29445278832223L209.32846153846154,55.896759312282455L209.38615384615383,50.007070243635994L209.79000000000002,43.28137057648658L209.9053846153846,42.320709751381685L210.02076923076925,41.825707887239815L210.54,54.142461678139284L210.82846153846154,45.61576568073232L211.34769230769228,52.8705582425942L211.46307692307693,51.297567799593836L211.57846153846154,71.30873493671324L211.80923076923077,72.05112378800969L211.98230769230767,58.99074822205199L212.7323076923077,46.09564747076604L212.79000000000002,42.265012517375055L212.84769230769228,66.48033313975618L213.19384615384615,43.88155374941093L213.65538461538463,28.81292332253284L214.00153846153847,33.13528449520629L214.05923076923077,35.642394624796L214.11692307692306,73.68930867230655L214.34769230769228,47.16503040575799L214.63615384615383,63.657888763173716L215.04,66.37364129270394L215.50153846153847,49.35654588734516L215.7323076923077,48.85026994351628L215.96307692307693,54.237967280107426L216.07846153846154,54.5351148405708L216.42461538461538,53.36295581392105L216.5976923076923,55.54748267202169L216.7130769230769,42.66995082577645L216.82846153846154,66.10135506529328L216.94384615384615,59.04021667250885L217.1169230769231,56.212883566427806L217.17576923076925,34.91281706855227L217.34884615384615,40.612771609268606L218.04115384615386,51.80690318799185L218.3296153846154,49.76616826030832L218.3873076923077,49.54098079369979L218.61807692307693,46.72024878356456L219.65653846153845,32.89487691722934L219.88730769230767,40.95688865944169L220.0603846153846,49.53578562249075L220.34884615384615,45.52652312349264L220.69500000000002,44.21381783792671L220.7526923076923,66.3187792375419L220.98346153846154,64.04643430282334L221.09884615384615,47.84503977127136L221.445,59.6183124712651L221.5026923076923,63.87358841800426L221.84884615384615,32.821917750765266L222.2526923076923,34.46752675234248L222.59884615384615,37.77945965811577L222.7719230769231,47.85913315500315L223.11807692307693,55.08837335270661L223.75269230769229,40.5837874657951L223.86807692307693,51.44302078896621L223.92576923076922,53.70911861683899L224.2719230769231,55.27536029097325L224.445,54.09499524161109L224.56038461538463,60.03863054713712L224.61807692307693,59.05130453223869L224.73346153846154,45.717188706306956L225.02192307692306,61.90506597468509L225.59884615384615,42.84424089225911L225.945,47.085752334150555L226.06038461538463,37.62049186623864L226.11807692307693,36.92828366549577L226.34884615384615,42.984143613498276L226.40653846153847,55.097958732353845L226.6373076923077,63.51541993227276L226.75269230769229,51.31970624091237L227.09884615384615,31.291142044170954L227.15653846153845,28.01271756331346L227.32961538461538,40.03193520585043L227.50384615384615,36.38751829479847L228.19615384615383,40.8628105393762L228.48461538461538,22.071687733013135L228.65769230769232,22.25345725318698L229.1769230769231,43.287147724495725L229.23461538461538,38.26185863675124L229.58076923076925,49.10186511388585L229.6384615384615,58.48140722925638L230.44615384615386,52.25705304757227L230.6769230769231,43.34053484016391L230.7923076923077,22.95280208412933L230.90769230769232,39.465706583712745L231.08076923076925,29.621798295470768L231.25384615384615,56.24560473522335L231.77307692307693,54.242783829236245L232.11923076923077,45.42505863176987L232.23461538461538,33.140903639668636L232.8692307692308,41.751743886866876L232.92692307692306,52.854129650213125L233.27307692307693,55.78523822367718L233.6769230769231,35.45229260302287L235.06153846153845,52.80176125058908L235.11923076923077,32.359453365744L235.2346153846154,48.640453266581346L235.40769230769232,59.9899372578287L235.52307692307693,40.313148211151L236.7346153846154,35.58114885898627L236.90769230769232,40.88041966712862L237.13846153846154,44.36319289454565L237.19615384615383,47.89895843710045L237.25384615384615,41.49133801885651L237.36923076923077,29.446131527616274L237.54346153846154,29.824925065640144L237.71653846153845,55.00764667030461L237.8319230769231,45.67858551886934L237.94730769230767,30.8043248622038L238.35115384615386,46.104755086391094L238.58192307692306,56.02359890584451L238.755,54.172984531816496L239.04346153846154,25.30411225352134L239.505,41.233549974107774L239.73576923076922,42.98227188476605L239.85115384615386,43.83187174265376L239.96653846153845,50.65408443594869L240.02423076923077,43.70971687464123L240.3703846153846,33.27160098934999L240.71653846153848,43.64643869579743L240.8319230769231,26.379011495435805L241.005,35.31838019812034L241.52423076923077,30.603785571554397L241.63961538461538,49.16436369603579L241.6973076923077,37.89359802149721L241.92807692307693,35.419132609685164L242.21653846153848,34.89846088275911L242.33192307692306,57.43629886552468L242.90884615384616,41.83840274060111L243.02423076923077,33.48889625497509L243.13961538461538,46.532081196716234L243.88961538461538,37.794410930170784L244.1203846153846,29.504720373777843L244.23576923076922,48.45983958791902L244.81269230769232,61.990048503351034L245.10115384615384,58.56187827614741L245.505,60.831352914329486L245.67807692307693,44.76339249650232L245.79346153846154,43.988205828784686L246.9473076923077,41.32201286835317L247.005,50.28020912395593L247.06269230769232,36.274519821149L247.17807692307693,34.93340914958068L247.35115384615386,49.23120072338983L247.46653846153845,59.98585184687758L247.75615384615384,47.89789060544382L247.98692307692306,48.959367750369864L248.39076923076925,35.741939492147566L248.44846153846154,15.577108783568491L248.50615384615384,46.331271187649634L248.79461538461538,34.05806728325251L248.85230769230768,38.22781634475473L249.0830769230769,25.923641159751952L249.7176923076923,28.37211402927781L250.06384615384616,29.44900964157813L250.41,25.38015889444887L250.5830769230769,27.234205915848975L250.69846153846154,33.872071050988694L251.04461538461538,40.300547803999564L251.2176923076923,44.553406195780894L251.44846153846154,22.453800678425324L251.67923076923077,42.19142335116618L251.79461538461538,32.27758525286407L251.96769230769232,36.6343757345507L252.0830769230769,39.46322996501638L252.31384615384616,37.46770995907622L252.42923076923077,34.080057000728914L252.6023076923077,17.982436691948948L252.89076923076925,24.064353116737692L253.12153846153848,28.34991700790843L253.17923076923077,39.969631169267075L253.29461538461538,21.482164236478013L253.81384615384616,49.75479698989318L253.87153846153845,39.537236146750445L254.50615384615384,42.94959642829812L254.62153846153848,35.22036088427785L254.67923076923077,49.64205347790772L255.0830769230769,19.76542085849138L255.19846153846154,35.67499500699262L255.25615384615386,56.382202578691405L255.31384615384616,34.59395022728728L255.37153846153845,31.78101987376155L255.6023076923077,47.41994210104454L255.7176923076923,46.857527887881815L256.98692307692306,41.17890885409105L257.15999999999997,37.07340240920141L257.6792307692308,39.40014676313237L257.8523076923077,42.90846961321262L257.96769230769235,49.92037607794458L258.1996153846154,24.710487823383403L258.2573076923077,29.748628302803468L258.3726923076923,52.712553675833064L258.83423076923077,43.38674625522694L259.1226923076923,33.79058359114555L259.52653846153845,23.054234403515494L261.1419230769231,31.411869200782178L261.5457692307692,43.90812864520012L262.1226923076923,54.7585890923837L262.1803846153846,56.24280382011126L262.46884615384613,50.69733129440432L262.9880769230769,44.8547959792304L263.0457692307692,39.22747067631536L263.6226923076923,26.02261041842644L263.6803846153846,36.08490916589997L263.7380769230769,33.41727711544826L263.85346153846154,33.32831243483875L263.96884615384613,42.28202471134213L264.08423076923077,26.843698322493594L264.1419230769231,39.980848380026714L264.19961538461536,36.69734837220676L264.315,35.85821893260493L265.35346153846154,35.83929620734713L265.6419230769231,24.540223393676172L265.93038461538464,44.1797219225551L266.10346153846154,34.308045743803206L266.27653846153845,62.79905691439188L266.565,50.37497847124585L267.19961538461536,48.100176577484405L267.7188461538462,48.99434352278365L267.8919230769231,34.186065508007005L267.9496153846154,32.972587674419174L268.4123076923077,21.882713205845874L268.7584615384616,13.292326598805431L269.62384615384616,30.901075706803454L269.6815384615385,44.17497934767229L269.79692307692306,54.06289308519662L270.02769230769235,25.801100106067793L270.2584615384616,13.698097657108974L270.4315384615385,15.653660018346386L270.7776923076923,20.394203626841886L270.89307692307693,23.191917551675573L271.4123076923077,27.129440277931735L271.64307692307693,39.10825700736302L271.98923076923074,20.11433225191149L272.2776923076923,32.80352845475943L272.62384615384616,31.74046399851943L272.8546153846154,26.11573127108909L273.14307692307693,30.173355675605023L273.54692307692306,27.982747544633867L273.7776923076923,24.20938114815587L274.29692307692306,26.291426099817897L274.47,31.162643395019956L275.1623076923077,15.380622783132225L275.56615384615384,24.101949286111676L275.73923076923074,41.42612020287015L275.8546153846154,43.90921444276364L275.9123076923077,31.339161427555666L276.14307692307693,38.44019967504849L276.20076923076925,38.519845449944455L276.2584615384616,17.765765868648145L276.9507692307692,19.875680840916687L277.29692307692306,30.342586440551855L277.3546153846154,38.088640467410585L277.47,27.74290489546118L277.7584615384616,38.32568609099718L277.81615384615384,51.181703796493125L277.9892307692308,29.04101300606891L278.3353846153846,32.98502500167419L278.5096153846154,25.128715480571543L278.91346153846155,27.084321861301248L279.4903846153846,32.50824666492457L279.83653846153845,21.02003034602393L280.0673076923077,15.27483047332521L280.125,24.781450107462774" style="fill: none;" fill="none"></path></g></g></g></g><g opacity="0.2"><g><g><g><path stroke="rgb(255, 112, 67)" stroke-width="2px" d="M28.5,197.75387503884056L28.961538461538463,163.30170856822622L29.134615384615387,174.65053697065875L29.19230769230769,201.43574732000178L29.596153846153843,175.65936972878197L29.884615384615387,176.06986583362925L30.346153846153847,193.6641609885476L31.096153846153847,180.62649605490944L31.73076923076923,160.82478124445134L32.01923076923077,177.9184563376687L32.19230769230769,153.65930938720703L32.71153846153846,163.72590845281428L32.76923076923077,169.1735312721946L33.28961538461539,205.7341045032848L33.57807692307692,116.34860853715375L33.69346153846154,159.90514651211825L33.75115384615385,128.64768912575462L33.981923076923074,144.72469191117722L34.44346153846154,157.24642805619672L34.905,167.19747092507103L34.96269230769231,153.53097534179688L35.020384615384614,159.98181360418147L35.25115384615385,141.8680093938654L35.88576923076923,131.25739496404475L36.23192307692308,138.21971754594284L36.520384615384614,137.6126771406694L36.693461538461534,120.28196369517934L37.385769230769235,136.1913729580966L37.73192307692308,174.05652132901278L38.020384615384614,160.6944718794389L38.193461538461534,129.22979112104937L38.42423076923077,137.20273659446022L38.655,142.5541243119673L38.770384615384614,157.92525898326528L39.86653846153846,137.6200845891779L40.155,119.74547923694956L40.21269230769231,107.72726440429688L40.50115384615384,142.21066561612216L40.78961538461539,164.65159260142934L40.905,146.338960127397L41.36653846153846,109.39980454878373L41.42423076923077,121.36363636363637L41.770384615384614,167.46796625310725L41.82807692307693,126.89021023837003L41.885769230769235,157.640812960538L42.058846153846154,151.50090234929866L42.57807692307693,103.8697738647461L43.03961538461538,114.07958360151812L43.90615384615385,124.06062663685191L44.136923076923075,116.5677455555309L44.48307692307692,167.86636352539062L44.713846153846156,150.56311936811966L44.82923076923077,78.81056074662642L45.52153846153846,115.33847947554156L45.57923076923077,122.19148046320134L46.502307692307696,120.27616119384766L47.252307692307696,115.50471496582031L47.31,131.7365951538086L47.425384615384615,116.45675728537819L47.77153846153846,129.96510384299538L48.290769230769236,122.42821017178622L48.40615384615385,117.07213107022372L48.46384615384615,113.89254552667792L48.636923076923075,139.95386297052556L48.98307692307692,171.51848255504262L49.50230769230769,135.3714301369407L49.675384615384615,135.5774189342152L49.73307692307692,134.02327450838956L50.309999999999995,113.72538410533558L51.175384615384615,120.82134940407494L51.29076923076923,123.01710232821378L51.40615384615385,143.3498077392578L52.213846153846156,132.57135287198153L52.502307692307696,108.02695742520419L52.6176923076923,125.8837231722745L52.79076923076923,124.7919887195934L53.252307692307696,143.72011843594638L53.598461538461535,116.07724900679156L53.713846153846156,126.85749400745738L53.83038461538462,130.20615456321022L54.176538461538456,126.66459170254794L54.464999999999996,105.38021434437145L55.04192307692308,111.73160761052911L55.15730769230769,120.22085224498403L55.38807692307692,124.62612360174006L55.73423076923077,113.61476620760831L55.964999999999996,88.07116768576883L56.31115384615385,105.97330405495383L56.42653846153846,92.79403339732777L56.48423076923077,119.50794705477628L56.59961538461539,126.78860473632812L56.714999999999996,123.52698170055044L56.7726923076923,113.89254552667792L57.06115384615384,94.02947235107422L57.11884615384616,113.85143418745561L57.63807692307692,143.83839069713247L57.98423076923077,134.4686473499645L58.09961538461539,123.55037689208984L58.38807692307692,98.76789370450106L58.67653846153846,144.0909229625355L58.79192307692308,115.42206018621272L59.48423076923077,135.60822157426315L59.88807692307693,113.79192768443714L59.94576923076923,100.67666972767223L60.06115384615384,136.57637509432706L60.11884615384615,117.2579345703125L60.17653846153846,119.43720592151988L60.23423076923077,126.17292230779475L60.34961538461538,133.61432162198153L60.52269230769231,115.10218186811969L60.753461538461536,133.65648234974253L61.04192307692308,118.0657168301669L61.215,130.4283780184659L61.44576923076924,111.8908060247248L61.61884615384615,95.45948028564453L61.79192307692308,105.80416731400923L62.02269230769231,137.36705849387428L62.08038461538462,115.4393442327326L62.31115384615385,129.91812827370384L62.59961538461538,107.95331504128195L62.65730769230769,119.88720841841265L63.06115384615385,112.2727217240767L63.23423076923077,106.30947875976562L63.464999999999996,104.46212283047763L63.63807692307692,88.33394692160867L64.04307692307692,119.42671203613281L64.27384615384615,119.23442701859906L64.44692307692307,134.9193905917081L64.50461538461538,91.19328377463601L64.56230769230768,89.36728598854758L64.96615384615384,72.93213306773792L65.31230769230768,122.178147055886L65.42769230769231,107.46269503506747L65.48538461538462,101.99710915305398L65.71615384615384,134.42210388183594L65.94692307692308,123.092473116788L66.12,146.89322246204722L66.17769230769231,100.26426003196023L66.23538461538462,124.96081681685015L66.46615384615384,109.84344898570667L66.98538461538462,121.36363636363637L67.21615384615384,96.28849723122336L67.27384615384615,78.35160758278586L67.33153846153846,120.27616119384766L67.44692307692308,115.43033183704722L67.50461538461539,127.67607879638672L67.85076923076923,103.31798067959872L68.08153846153846,111.00462826815519L68.13923076923076,104.71230940385298L68.25461538461539,93.11323269930753L68.37,109.2712235884233L68.54307692307692,107.25158275257458L68.60076923076923,123.58642647483131L68.65846153846154,94.69034021550958L68.71615384615384,120.23363009366122L68.88923076923076,100.01265369762073L69.12,104.37891249223189L69.40846153846154,102.34198760986328L69.46615384615384,117.73670265891334L69.52384615384615,84.74047019264914L69.87,108.63696080988105L70.44692307692307,98.04535883123224L70.62,79.58087366277522L70.85076923076923,101.05512861772017L71.08153846153846,127.99120400168678L71.19692307692307,100.13061731511895L71.48538461538462,102.92662048339844L72.87,116.13484191894531L72.98538461538462,98.88888203014027L73.04307692307692,98.17819907448508L73.27384615384615,103.55896967107599L73.38923076923076,111.9367939342152L73.62,104.80169261585583L73.73538461538462,81.13415388627486L74.14038461538462,83.30157331986861L74.48653846153846,94.15083104913886L74.7173076923077,101.78883639248934L75.12115384615385,113.22933197021484L75.17884615384615,105.80416731400923L75.23653846153846,89.77586850253019L75.29423076923077,87.74647452614524L75.58269230769231,104.80169261585583L75.69807692307691,93.49249406294389L75.87115384615385,105.23471970991655L75.92884615384615,88.30524305863814L76.04423076923077,100.36265563964844L76.50576923076923,115.13570057262075L76.56346153846152,116.13484191894531L76.73653846153846,69.59316392378373L77.14038461538462,95.31756591796875L77.31346153846152,103.93113222989169L77.83269230769231,95.50102372602983L77.94807692307693,75.26930652965198L78.06346153846152,119.96862862326881L78.23653846153846,103.44075913862748L78.29423076923077,67.51722647927024L78.81346153846154,92.99773823131214L78.87115384615385,90.50846516002308L79.10192307692307,110.11104306307706L79.15961538461538,100.6796944358132L79.2173076923077,91.68229883367364L79.27499999999999,96.8369570645419L79.50576923076923,99.01308025013317L79.56346153846154,90.75093564120206L79.73653846153846,109.59708959406073L79.79423076923078,109.9999930641868L80.25576923076923,95.47497419877486L80.48653846153846,133.52209888805044L80.60192307692307,157.12161254882812L80.7173076923077,95.9771992076527L80.77499999999999,79.56247849897905L81.23653846153846,70.79545454545455L81.29423076923078,97.75091275301847L81.4673076923077,96.18331146240234L81.92884615384615,77.4150591763583L82.04423076923078,108.21448932994495L82.27499999999999,110.65839177911933L82.33269230769231,120.5101748379794L82.62115384615385,98.40295340798117L83.025,107.4794852516868L83.65961538461539,115.5686659379439L83.775,70.51909498734908L84.12115384615385,107.65954797918145L84.29423076923078,85.86732829700817L84.35307692307693,106.87725968794389L84.58384615384615,100.78901603005149L84.81461538461538,59.80236885764383L84.93,91.80513902143998L85.21846153846154,86.40998562899502L85.27615384615385,109.33659432151101L85.33384615384615,83.52256220037287L85.79538461538462,90.05630215731534L86.14153846153847,87.46931249445134L86.37230769230769,47.83514196222478L86.43,96.04479217529297L86.4876923076923,100.92117725719105L87.00692307692309,70.58026816628195L87.29538461538462,102.60797674005683L87.64153846153846,89.13339580189098L88.10307692307691,118.33639734441584L88.21846153846154,70.86675123734908L89.3723076923077,96.82917924360795L89.42999999999999,88.48734283447266L89.66076923076923,140.7596699107777L89.71846153846153,78.03919844193892L89.77615384615385,78.66160930286755L90.81461538461538,105.80416731400923L91.10307692307693,95.94139653986151L91.50692307692307,107.98800659179688L91.56461538461538,122.178147055886L91.91076923076923,72.65774882923473L92.02615384615385,115.5686659379439L92.31461538461538,128.31935397061434L92.42999999999999,111.88636155561967L92.5453846153846,116.23558321866122L92.77615384615385,101.82439214533026L93.81461538461538,84.97145912863992L93.92999999999999,119.74547923694956L94.0453846153846,95.61985154585405L94.50692307692307,124.98489102450284L94.62346153846154,87.40968253395774L94.9696153846154,88.58425695245916L95.08500000000001,70.72471341219814L95.20038461538462,78.34395321932705L95.25807692307693,88.48444158380681L95.43115384615385,100.70136122270064L95.7196153846154,95.02898406982422L96.18115384615383,98.2706069946289L96.58500000000001,104.14891121604226L96.93115384615383,94.2327450838956L97.16192307692307,82.90138591419567L97.21961538461538,71.65033583207564L97.27730769230769,83.52256220037287L97.33500000000001,100.70136122270064L97.68115384615383,89.42586656050248L98.25807692307693,96.7981914173473L98.37346153846154,67.40580610795455L98.54653846153847,67.63056044145064L98.60423076923077,90.6833426735618L98.77730769230769,93.11323269930753L99.12346153846154,74.11954706365412L99.23884615384615,78.89753653786399L99.41192307692307,102.97520099986683L99.58500000000001,92.22501789439808L99.75807692307691,90.37476071444425L99.81576923076923,57.28272524746983L100.85423076923077,91.07680164683948L101.48884615384615,94.98021836714311L101.71961538461538,105.11459558660333L102.585,104.96317499334161L102.75807692307691,63.33899341930042L102.81576923076923,129.18633408979937L102.93115384615385,98.76172083074395L102.98884615384615,103.90316911177202L104.14269230769231,105.88774802468039L104.20038461538462,78.58531258322976L104.25807692307691,107.25158275257458L104.54653846153846,78.96469740434127L104.71961538461538,71.51169308749111L104.89384615384616,89.99512897838245L105.00923076923078,83.94589788263494L105.24,63.612081354314626L105.47076923076922,80.22340809215198L105.70153846153846,107.58485620672052L106.6246153846154,77.67271492697976L107.14384615384616,75.90906316583806L107.20153846153846,77.25098419189453L107.83615384615385,71.40311223810369L108.2976923076923,80.46995267001064L108.35538461538461,78.73704182017933L108.52846153846154,76.7766605723988L108.64384615384616,83.36768479780717L108.70153846153846,117.2579345703125L109.16307692307693,85.41596776788884L109.22076923076922,81.8006390658292L109.6246153846154,89.98105482621627L109.74000000000001,76.6624624078924L110.49000000000001,73.4134320345792L110.5476923076923,73.62398875843395L110.72076923076922,75.89992731267756L111.12461538461538,96.74843805486505L111.81692307692308,78.18179182572798L112.10538461538462,97.40294785933061L112.16307692307691,97.42115783691406L112.27846153846154,105.27373227206144L112.68230769230769,91.5550141768022L113.08615384615385,71.20879017223011L113.14384615384616,92.69718100807883L113.66307692307691,76.44511552290483L113.89384615384616,89.48524960604581L114.00923076923077,84.12404701926492L114.24000000000001,70.17958693070845L114.75923076923077,84.69429709694602L115.10653846153846,76.69159837202592L115.16423076923077,94.98021836714311L115.45269230769232,95.02744085138495L115.91423076923077,66.9892605868253L116.02961538461538,75.29041775790127L116.43346153846153,84.6397906216708L116.49115384615385,59.80236885764383L116.72192307692308,91.42840853604403L117.01038461538461,77.99950686368076L117.18346153846154,77.15104536576705L117.29884615384614,101.82291065562855L117.47192307692308,68.01698233864524L117.645,94.6483646739613L117.87576923076922,66.30209628018467L118.33730769230769,92.31933940540661L118.79884615384614,69.13630953702061L118.91423076923076,95.66046905517578L119.02961538461538,105.18181818181817L119.20269230769232,87.24202728271484L119.26038461538461,67.20315066250889L119.60653846153846,75.02084836092861L119.66423076923076,91.19038252397017L120.12576923076922,82.72724914550781L120.29884615384616,103.96076202392578L120.35653846153846,81.12656125155361L120.41423076923076,83.98713267933239L120.47192307692308,67.60895538330078L120.58730769230769,94.98021836714311L120.76038461538461,69.90106686678799L121.16423076923077,82.00989948619495L121.22192307692308,80.90909090909092L121.62576923076922,102.07334414395419L121.68346153846154,56.76050012761897L121.74115384615384,117.85287614302203L122.26038461538461,75.96640916304155L122.49115384615384,87.60653547807173L122.60653846153846,93.25490015203302L122.66423076923077,43.9915403886275L122.7796153846154,91.59310080788352L123.06807692307693,105.00965673273261L123.12576923076922,77.84351834383877L123.24115384615384,73.36670338023792L123.29884615384616,73.8537431196733L123.35653846153846,75.13751567493786L123.64500000000001,123.00815166126597L124.4526923076923,101.92445442893289L124.97192307692308,97.77899932861328L125.26153846153846,98.01363026012073L125.66538461538462,62.46003792502664L125.72307692307692,82.05675159801136L126.2423076923077,61.036696694113985L126.64615384615385,61.16984558105469L127.16538461538461,82.46502546830611L127.33846153846153,80.25569222190164L127.7423076923077,50.26503198797053L127.85769230769232,105.55256097966974L128.08846153846153,78.89753653786399L128.6653846153846,66.79962990500711L128.72307692307692,55.89889040860264L128.89615384615385,48.809283169833094L129.1846153846154,67.81272194602273L129.4153846153846,46.604517850008875L130.16538461538462,69.59316392378373L130.28076923076924,77.12518102472478L130.33846153846153,84.14546689120205L130.6846153846154,94.2662020596591L130.7423076923077,63.22047424316406L130.8,75.442270452326L130.91538461538462,112.0850663618608L131.0307692307692,88.83024597167969L131.72307692307692,72.57700764049183L132.76153846153846,65.68184592507102L133.1076923076923,58.01445770263672L133.45384615384614,76.53560985218395L133.51153846153846,99.01308025013317L133.8576923076923,88.23505748401989L134.08846153846153,87.56209078702061L134.20384615384614,83.06669547341086L134.31923076923076,83.57645138827236L134.66538461538462,97.06905711780895L134.83846153846153,76.6624624078924L134.95384615384614,48.809283169833094L135.12692307692308,87.7433880892667L135.3,94.54293199018998L135.41653846153847,62.07188762318005L135.93576923076924,71.81089227849787L136.05115384615385,63.032448508522734L136.74346153846153,46.437665072354406L136.80115384615385,72.65774882923473L136.85884615384617,83.66978523947976L137.66653846153847,74.68529094349255L137.8973076923077,99.59672546386719L138.12807692307692,63.053312821821734L138.35884615384617,61.68102125688033L138.41653846153847,79.62482452392578L138.58961538461537,64.51949379660867L138.70499999999998,84.91559462113814L138.82038461538463,79.17840229381214L139.28192307692308,73.464111328125L139.3973076923077,56.03154546564275L139.5703846153846,61.607625787908376L139.74346153846153,97.2497988614169L139.91653846153847,96.2558427290483L140.03192307692308,84.48516013405539L140.20499999999998,63.17559745094992L140.37807692307692,73.30991294167258L141.30115384615385,81.98786232688211L141.70499999999998,49.66144839200106L141.99346153846153,51.83238636363636L142.05115384615385,85.1674478704279L142.10884615384614,57.22840395840733L142.2242307692308,84.14546689120205L142.28192307692308,61.53651428222656L142.3973076923077,86.18578685413708L142.5126923076923,76.57264709472656L142.74346153846153,82.45440812544389L142.9742307692308,68.04488372802734L143.2626923076923,78.01950697465377L143.37807692307692,68.36167560924183L143.78192307692308,70.04878373579545L143.8973076923077,106.85904971036044L143.955,104.25039326060902L144.12807692307692,96.01213767311789L144.24346153846153,81.99514631791548L144.4742307692308,60.78996693004261L144.7626923076923,75.54492534290661L144.87807692307692,72.99404699152166L144.9357692307692,66.60469055175781L145.5126923076923,69.74921417236328L145.57038461538463,71.51169308749111L145.74461538461537,76.20628703724255L145.9176923076923,47.30748471346769L146.09076923076924,73.30991294167258L146.14846153846153,48.94502466375178L146.32153846153847,55.9967304576527L146.37923076923076,63.57140211625533L146.49461538461537,63.373252868652344L146.78307692307692,30.495663035999627L146.84076923076924,56.28457156094639L147.24461538461537,80.90909090909092L147.3023076923077,70.65915749289773L147.53307692307692,49.90861025723544L147.64846153846153,68.84272766113281L147.76384615384615,103.83520577170633L147.99461538461537,92.46755010431464L148.57153846153847,79.08062397349964L148.68692307692308,67.03895222056995L148.8023076923077,71.21804948286577L148.85999999999999,71.26428430730647L149.09076923076924,60.23724781383167L149.26384615384615,52.4933159568093L149.72538461538463,67.74574626575817L149.95615384615385,85.05824973366477L150.12923076923076,68.04488372802734L150.76384615384615,71.77058341286399L150.99461538461537,87.74647452614524L151.11,39.376514781605096L151.28307692307692,76.74869745427912L151.39846153846156,60.04366649280895L151.45615384615385,68.2529095736417L151.57153846153847,91.37711195512252L151.68692307692308,67.32994148947976L151.7446153846154,84.51448128440164L151.85999999999999,74.68529094349255L151.97538461538463,89.42586656050248L152.03307692307695,65.88801990855823L152.26384615384617,60.103913740678266L152.43692307692308,68.67988725142045L152.61,42.794867082075626L152.89846153846156,100.7235835682262L153.5907692307692,62.741520968350486L153.82153846153847,63.252141085537986L153.99461538461537,48.043352994051844L154.57153846153847,43.9915403886275L154.9176923076923,69.2087173461914L154.97538461538463,69.25458179820667L155.0907692307692,47.18785442005506L155.26384615384617,78.25636014071377L155.43692307692308,88.97876531427556L155.4946153846154,56.60438815030186L155.5523076923077,44.82802651145241L156.0726923076923,52.01300464976917L156.13038461538463,51.85899144952947L156.18807692307692,56.583462108265266L156.30346153846153,37.13107022372159L156.99576923076924,75.54492534290661L157.05346153846153,51.84133703058416L157.11115384615383,60.70928747003728L157.16884615384615,66.71055533669211L157.6303846153846,68.27723069624467L158.1496153846154,70.17958693070845L159.1303846153846,77.4150591763583L159.93807692307692,33.35623446377841L160.11115384615385,64.8142485185103L160.16884615384615,64.7720877907493L160.22653846153847,62.71003931218928L160.34192307692305,57.72729561545633L160.80346153846153,59.99378967285156L160.91884615384615,98.41449668190695L161.1496153846154,77.92432126131924L161.72653846153847,79.38247750022195L162.18807692307692,100.49216253107245L162.24576923076924,63.22047424316406L162.88038461538463,43.055609269575626L163.34192307692308,67.58012806285511L163.68807692307692,72.1026840209961L163.74576923076924,66.00481068004261L163.86115384615385,108.58850375088778L163.97653846153847,73.15071452747692L164.265,69.12834652987392L165.36115384615383,52.6409710970792L165.47653846153847,68.38124361905186L165.7073076923077,114.09149724786931L165.765,73.57392675226384L166.2853846153846,48.58829428932884L166.40076923076924,73.6733100197532L166.57384615384615,38.792005365545094L166.63153846153847,56.92772327769886L166.6892307692308,54.12696699662642L167.26615384615386,44.29481367631391L167.32384615384618,66.70283924449573L167.49692307692308,63.2962154041637L167.6123076923077,69.78118965842508L167.84307692307692,89.42586656050248L167.95846153846153,60.04366649280895L168.13153846153847,46.218404596502126L168.24692307692305,70.72773812033914L168.3623076923077,72.57700764049183L168.4776923076923,58.24106389825994L168.99692307692308,74.02318850430576L169.2276923076923,50.9344184181907L169.45846153846153,80.46698969060725L169.57384615384615,65.29894256591797L169.74692307692305,50.17268579656428L169.92000000000002,61.2880561135032L170.26615384615386,37.46644245494494L170.32384615384618,70.79545454545455L170.5546153846154,72.68836628306995L170.7276923076923,68.88204886696555L170.90076923076924,73.25552992387252L171.01615384615383,78.66160930286755L171.5353846153846,53.00165211070667L171.70846153846153,83.17225161465733L171.76615384615386,38.74521498246625L171.82384615384615,87.18455782803623L171.88153846153844,65.04906463623047L172.0546153846154,71.89478163285689L172.28538461538463,67.7887094671076L172.63153846153847,57.42686184969814L172.6892307692308,95.55929565429688L172.8623076923077,50.05484563654119L173.32384615384615,79.32926732843572L173.61230769230767,70.16594487970525L173.78538461538463,49.48157085071912L173.95846153846153,79.39272447065873L174.01615384615386,49.90861025723544L174.3623076923077,56.691425670276985L174.47769230769234,103.56366105513139L174.82384615384615,60.90169594504617L174.99692307692308,73.7016435102983L175.17,53.93937336314808L175.2276923076923,57.09266246448864L175.45846153846153,71.91916448419744L176.4980769230769,67.250620061701L176.72884615384618,38.73688160289416L176.84423076923076,61.017066955566406L177.1326923076923,71.64299011230469L177.42115384615383,80.90909090909092L178.17115384615386,59.31847728382458L178.40192307692308,74.76967412775213L178.575,55.513517899946734L179.44038461538463,84.09540488503195L180.075,50.05484563654119L180.1326923076923,82.393667047674L180.30576923076924,56.33753481778233L180.65192307692308,72.1923758766868L181.05576923076922,67.47839910333806L181.11346153846154,73.30991294167258L181.17115384615386,87.41770726984197L181.22884615384618,57.04142761230469L181.28653846153844,65.60196893865412L181.34423076923076,33.55314913662997L181.80576923076924,73.09398581764914L183.1326923076923,47.18785442005506L183.19038461538463,59.27446469393642L183.24807692307692,87.36338598077947L183.65192307692305,50.983801408247515L184.28653846153844,58.667609474875704L184.40192307692308,69.36618735573508L185.0942307692308,71.20002469149502L185.15192307692305,34.675315856933594L185.32500000000002,48.88039467551491L185.4403846153846,67.83741344105114L185.49807692307692,76.93376020951705L185.61346153846154,57.20186060125178L186.65307692307692,69.38291584361683L186.94153846153847,47.00631020285866L187.11461538461538,53.36066644841975L187.2876923076923,64.9925211126154L187.80692307692308,70.3228593306108L187.86461538461538,39.04336478493431L188.21076923076924,62.92929978804155L188.32615384615383,38.956203807484L188.38384615384615,32.50394578413531L188.73,52.851898193359375L188.9030769230769,67.90191997181286L188.96076923076922,48.09279771284625L189.24923076923076,53.37517270174892L189.36461538461538,64.44936995072798L189.48000000000002,43.72894633900037L189.65307692307692,57.444331082430764L189.71076923076924,61.036696694113985L190.1723076923077,57.06685985218395L190.46076923076922,66.19833027232777L190.57615384615386,29.628682916814626L190.63384615384618,40.618743896484375L190.69153846153844,54.12085585160689L191.32615384615383,48.985765630548656L191.90307692307692,58.47668248956853L192.36461538461538,29.820165460759938L193.34538461538463,62.53084078702061L193.63384615384618,96.42590540105645L193.74923076923076,60.145827553488985L193.80692307692308,53.03918318314986L193.98,45.82963700727984L194.55692307692306,53.40214816006748L194.90307692307692,70.0750801780007L195.13384615384618,54.31820262562145L195.4223076923077,66.77376556396484L195.5376923076923,78.96469740434127L195.65307692307692,53.37517270174892L195.76846153846154,44.254134438254624L195.88384615384615,34.19636258212003L196.11461538461538,71.1276786110618L196.1723076923077,38.61570809104225L196.3453846153846,51.25775354558772L196.69153846153844,59.71378811922939L196.75038461538463,62.07682592218572L196.92346153846154,36.431436712091624L196.98115384615386,34.52124092795631L197.38500000000002,21.94141804088244L197.5003846153846,63.489549810236156L197.55807692307692,48.37310791015625L197.61576923076925,45.777537952769904L198.07730769230767,52.51621731844814L198.94269230769228,37.655085476962L199.05807692307692,71.15008614280008L199.17346153846154,74.60164850408381L199.28884615384615,77.43845436789773L199.40423076923076,43.97005878795275L199.92346153846154,49.44447187943891L200.15423076923076,23.525192260742188L200.26961538461538,52.10720270330256L200.90423076923076,42.122764587402344L201.135,38.17305131392047L201.71192307692309,35.79748257723722L202.23115384615383,38.752931074662655L202.51961538461538,51.25318561900745L202.92346153846154,67.13734782825817L203.09653846153844,49.34021204168147L203.15423076923076,47.242237437855096L203.5003846153846,37.71280184659091L203.55807692307692,61.53651428222656L203.67346153846157,36.25433696400037L203.84653846153847,33.87154596502131L204.135,35.654827464710564L204.3080769230769,47.26371903852984L204.36576923076922,57.760999506170094L204.48115384615386,45.239510276100845L205.40423076923076,66.50524555553089L205.8080769230769,50.11774722012608L205.98115384615386,73.6733100197532L206.03884615384618,29.925289500843377L206.4426923076923,49.02588930996981L206.5003846153846,64.42974021218039L206.9042307692308,54.59400662508877L207.02076923076922,25.748723116788L208.4053846153846,31.187210083007812L208.57846153846154,46.665382385253906L208.69384615384615,56.73710493607955L208.98230769230767,45.57951216264203L209.15538461538463,48.07643959738991L209.21307692307693,57.016489202326L209.32846153846154,56.583462108265266L209.38615384615383,47.48291778564453L209.79000000000002,40.39892786199397L209.9053846153846,41.908997969193905L210.02076923076925,41.61356423117897L210.54,59.42107044566761L210.82846153846154,41.96146739612928L211.34769230769228,55.97975505482067L211.46307692307693,50.62342903830789L211.57846153846154,79.88494942405008L211.80923076923077,72.36929043856533L211.98230769230767,53.39344440806995L212.7323076923077,40.569175720214844L212.79000000000002,40.623311823064626L212.84769230769228,76.85832769220525L213.19384615384615,34.19636258212003L213.65538461538463,22.35493885387072L214.00153846153847,34.98772499778053L214.05923076923077,36.71687039462003L214.11692307692306,89.99512897838245L214.34769230769228,35.79748257723722L214.63615384615383,70.72625663063742L215.04,67.53753523393111L215.50153846153847,42.06350499933416L215.7323076923077,48.633294539018124L215.96307692307693,56.5469804243608L216.07846153846154,54.66246379505505L216.42461538461538,52.86060194535689L216.5976923076923,56.483708468350486L216.7130769230769,37.15100860595703L216.82846153846154,76.14338545365767L216.94384615384615,56.01401450417258L217.1169230769231,55.00116937810725L217.17576923076925,25.784217140891343L217.34884615384615,43.055609269575626L218.04115384615386,56.60438815030186L218.3296153846154,48.89156757701525L218.3873076923077,49.44447187943891L218.61807692307693,45.511363636363654L219.65653846153845,26.969717545942814L219.88730769230767,44.41203654896131L220.0603846153846,53.21245574951172L220.34884615384615,43.808267766779124L220.69500000000002,43.65122985839844L220.7526923076923,75.79233412309127L220.98346153846154,63.07257218794389L221.09884615384615,40.90158497203478L221.445,64.66400077126242L221.5026923076923,65.69727810946377L221.84884615384615,19.514058893377126L222.2526923076923,35.17278775301847L222.59884615384615,39.19885947487572L222.7719230769231,52.178993225097656L223.11807692307693,58.1866191517223L223.75269230769229,34.36753637140447L223.86807692307693,56.096977927468046L223.92576923076922,54.68030340021306L224.2719230769231,55.94660672274502L224.445,53.589124506170094L224.56038461538463,62.58590282093395L224.61807692307693,58.62816481156783L224.73346153846154,40.00256763805041L225.02192307692306,68.84272766113281L225.59884615384615,34.675315856933594L225.945,48.90354295210406L226.06038461538463,33.563951665704906L226.11807692307693,36.63162300803444L226.34884615384615,45.57951216264203L226.40653846153847,60.28959378329189L226.6373076923077,67.12290330366655L226.75269230769229,46.09297180175781L227.09884615384615,22.707471674138844L227.15653846153845,26.60767850008878L227.32961538461538,45.183028481223374L227.50384615384615,34.82562533291903L228.19615384615383,42.78079292990944L228.48461538461538,14.01834938742897L228.65769230769232,22.331358476118595L229.1769230769231,52.3015864979137L229.23461538461538,36.108163313432186L229.58076923076925,53.74758217551492L229.6384615384615,62.5012109929865L230.44615384615386,49.58947268399325L230.6769230769231,39.51916989413175L230.7923076923077,14.215202331542969L230.90769230769232,46.54266565496272L231.08076923076925,25.402980457652717L231.25384615384615,67.65580749511719L231.77307692307693,53.38443201238459L232.11923076923077,41.64603354714134L232.23461538461538,27.876265785910874L232.8692307692308,45.44210399280897L232.92692307692306,57.6122949773615L233.27307692307693,57.04142761230469L233.6769230769231,26.738173051313908L235.06153846153845,60.23724781383167L235.11923076923077,23.598464272239L235.2346153846154,55.61802465265447L235.40769230769232,64.85400182550603L235.52307692307693,31.880238619717687L236.7346153846154,33.55314913662997L236.90769230769232,43.151535727761L237.13846153846154,45.85580999200994L237.19615384615383,49.41428652676669L237.25384615384615,38.74521498246625L237.36923076923077,24.283900174227625L237.54346153846154,29.98726515336469L237.71653846153845,65.80024164373225L237.8319230769231,41.68041645396838L237.94730769230767,24.429641723632812L238.35115384615386,52.662082325328484L238.58192307692306,60.27453197132458L238.755,53.37986408580433L239.04346153846154,12.931738419966251L239.505,48.060451854359L239.73576923076922,43.73172413219103L239.85115384615386,44.19598596746272L239.96653846153845,53.57788987593217L240.02423076923077,40.73355934836647L240.3703846153846,28.798122752796502L240.71653846153848,48.09279771284625L240.8319230769231,18.978685552423656L241.005,39.14953821355647L241.52423076923077,28.583245017311782L241.63961538461538,57.11889717795633L241.6973076923077,33.06326987526634L241.92807692307693,34.35864743319425L242.21653846153848,34.675315856933594L242.33192307692306,67.09537228670986L242.90884615384616,35.153590115633875L243.02423076923077,29.910536332563908L243.13961538461538,52.12201760031961L243.88961538461538,34.04969510165128L244.1203846153846,25.951995849609375L244.23576923076922,56.583462108265266L244.81269230769232,67.7887094671076L245.10115384615384,57.09266246448864L245.505,61.8039849021218L245.67807692307693,37.87712374600497L245.79346153846154,43.655982971191406L246.9473076923077,40.17935874245384L247.005,54.11943609064275L247.06269230769232,30.272081548517406L247.17807692307693,34.35864743319425L247.35115384615386,55.35882568359375L247.46653846153845,64.59498804265803L247.75615384615384,42.71733578768644L247.98692307692306,49.41428652676669L248.39076923076925,30.077327381480842L248.44846153846154,6.935038479891688L248.50615384615384,59.5116265036843L248.79461538461538,28.798122752796502L248.85230769230768,40.01485165682706L249.0830769230769,20.650423223322093L249.7176923076923,29.42145954478869L250.06384615384616,29.910536332563908L250.41,23.636365717107594L250.5830769230769,28.028797496448846L250.69846153846154,36.71687039462003L251.04461538461538,43.055609269575626L251.2176923076923,46.37605979225853L251.44846153846154,12.982541170987218L251.67923076923077,50.65040449662642L251.79461538461538,28.028797496448846L251.96769230769232,38.50157165527344L252.0830769230769,40.67559606378728L252.31384615384616,36.61248709938744L252.42923076923077,32.62820573286578L252.6023076923077,11.083456559614689L252.89076923076925,26.6708887273615L253.12153846153848,30.18658724698153L253.17923076923077,44.94950866699219L253.29461538461538,13.558964122425408L253.81384615384616,61.87163959849964L253.87153846153845,35.15828149968928L254.50615384615384,44.41203654896131L254.62153846153848,31.907831365411937L254.67923076923077,55.82277887517756L255.0830769230769,6.96114973588422L255.19846153846154,42.49338392777875L255.25615384615386,65.25672010941939L255.31384615384616,25.25612779097125L255.37153846153845,30.57547829367897L255.6023076923077,54.122337341308594L255.7176923076923,46.616493225097656L256.98692307692306,38.74521498246625L257.15999999999997,35.31389964710584L257.6792307692308,40.397322914817124L257.8523076923077,44.41203654896131L257.96769230769235,52.925478848544046L258.1996153846154,13.90625L258.2573076923077,31.907831365411937L258.3726923076923,62.554235978560015L258.83423076923077,39.389971646395594L259.1226923076923,29.677942449396312L259.52653846153845,18.45294189453125L261.1419230769231,34.99371268532494L261.5457692307692,49.26366840709338L262.1226923076923,59.408786426890984L262.1803846153846,56.87889584628017L262.46884615384613,48.32070021195844L262.9880769230769,42.35085227272728L263.0457692307692,36.81575983220881L263.6226923076923,20.363384593616814L263.6803846153846,40.397322914817124L263.7380769230769,32.27400623668322L263.85346153846154,33.29018471457741L263.96884615384613,46.119329972700626L264.08423076923077,20.22727272727272L264.1419230769231,45.61105554754084L264.19961538461536,35.290134083141L264.315,35.49859202991834L265.35346153846154,35.831186467951L265.6419230769231,19.6977636163885L265.93038461538464,52.5966498635032L266.10346153846154,30.077327381480842L266.27653846153845,75.00949027321555L266.565,45.05037342418322L267.19961538461536,47.12526148015803L267.7188461538462,49.37755792791194L267.8919230769231,27.83966064453125L267.9496153846154,32.452525745738654L268.4123076923077,17.129909862171502L268.7584615384616,9.61073233864525L269.62384615384616,38.44768246737394L269.6815384615385,49.863795193758875L269.79692307692306,58.30057040127842L270.02769230769235,13.688903115012437L270.2584615384616,8.51109660755506L270.4315384615385,16.49175817316228L270.7776923076923,22.425865173339844L270.89307692307693,24.39093780517578L271.4123076923077,28.816950017755687L271.64307692307693,44.24203560569069L271.98923076923074,11.974078785289436L272.2776923076923,38.241755398837L272.62384615384616,31.284864945845158L272.8546153846154,23.70513153076172L273.14307692307693,31.912337563254624L273.54692307692306,27.04391548850319L273.7776923076923,22.59222412109375L274.29692307692306,27.183731079101562L274.47,33.25030795010653L275.1623076923077,8.61689966375178L275.56615384615384,27.83966064453125L275.73923076923074,48.85076488148084L275.8546153846154,44.973397688432186L275.9123076923077,25.951995849609375L276.14307692307693,41.483501781116814L276.20076923076925,38.55397935347125L276.2584615384616,8.871160333806813L276.9507692307692,20.779930114746094L277.29692307692306,34.82840312610975L277.3546153846154,41.408377907492905L277.47,23.30901822176847L277.7584615384616,42.861163746226936L277.81615384615384,56.691425670276985L277.9892307692308,19.55214552445844L278.3353846153846,34.675315856933594L278.5096153846154,21.761725685813218L278.91346153846155,27.922438881614L279.4903846153846,34.83278586647728L279.83653846153845,16.09650906649503L280.0673076923077,12.812601956454188L280.125,28.85571566495028" style="fill: none;" fill="none"></path></g></g></g></g></g></g><g transform="translate(30, 178)" clip-path="url(#clip_1)"><clipPath id="clip_1"><rect width="300" height="22"></rect></clipPath><g><g><line x1="0" y1="0" x2="0" y2="5" style="visibility: inherit;" fill="rgb(0, 0, 0)" stroke="rgb(204, 204, 204)" stroke-width="1px"></line><line x1="23.076923076923077" y1="0" x2="23.076923076923077" y2="5" style="visibility: inherit;" fill="rgb(0, 0, 0)" stroke="rgb(204, 204, 204)" stroke-width="1px"></line><line x1="46.15384615384615" y1="0" x2="46.15384615384615" y2="5" style="visibility: inherit;" fill="rgb(0, 0, 0)" stroke="rgb(204, 204, 204)" stroke-width="1px"></line><line x1="69.23076923076924" y1="0" x2="69.23076923076924" y2="5" style="visibility: inherit;" fill="rgb(0, 0, 0)" stroke="rgb(204, 204, 204)" stroke-width="1px"></line><line x1="92.3076923076923" y1="0" x2="92.3076923076923" y2="5" style="visibility: inherit;" fill="rgb(0, 0, 0)" stroke="rgb(204, 204, 204)" stroke-width="1px"></line><line x1="115.38461538461539" y1="0" x2="115.38461538461539" y2="5" style="visibility: inherit;" fill="rgb(0, 0, 0)" stroke="rgb(204, 204, 204)" stroke-width="1px"></line><line x1="138.46153846153848" y1="0" x2="138.46153846153848" y2="5" style="visibility: inherit;" fill="rgb(0, 0, 0)" stroke="rgb(204, 204, 204)" stroke-width="1px"></line><line x1="161.53846153846152" y1="0" x2="161.53846153846152" y2="5" style="visibility: inherit;" fill="rgb(0, 0, 0)" stroke="rgb(204, 204, 204)" stroke-width="1px"></line><line x1="184.6153846153846" y1="0" x2="184.6153846153846" y2="5" style="visibility: inherit;" fill="rgb(0, 0, 0)" stroke="rgb(204, 204, 204)" stroke-width="1px"></line><line x1="207.69230769230768" y1="0" x2="207.69230769230768" y2="5" style="visibility: inherit;" fill="rgb(0, 0, 0)" stroke="rgb(204, 204, 204)" stroke-width="1px"></line><line x1="230.76923076923077" y1="0" x2="230.76923076923077" y2="5" style="visibility: inherit;" fill="rgb(0, 0, 0)" stroke="rgb(204, 204, 204)" stroke-width="1px"></line><line x1="253.84615384615384" y1="0" x2="253.84615384615384" y2="5" style="visibility: inherit;" fill="rgb(0, 0, 0)" stroke="rgb(204, 204, 204)" stroke-width="1px"></line><line x1="276.92307692307696" y1="0" x2="276.92307692307696" y2="5" style="visibility: inherit;" fill="rgb(0, 0, 0)" stroke="rgb(204, 204, 204)" stroke-width="1px"></line><line x1="300" y1="0" x2="300" y2="5" style="visibility: inherit;" fill="rgb(0, 0, 0)" stroke="rgb(204, 204, 204)" stroke-width="1px"></line></g><g transform="translate(0, 8)"><text x="0" y="0" dx="0em" dy="0.95em" style="text-anchor: middle; visibility: hidden; font-family: &quot;Helvetica Neue&quot;, sans-serif; font-size: 12px; font-weight: 200;" fill="rgb(50, 49, 63)" stroke="none" stroke-width="1px">-20k</text><text x="23.076923076923077" y="0" dx="0em" dy="0.95em" style="text-anchor: middle; visibility: inherit; font-family: &quot;Helvetica Neue&quot;, sans-serif; font-size: 12px; font-weight: 200;" fill="rgb(50, 49, 63)" stroke="none" stroke-width="1px">0</text><text x="46.15384615384615" y="0" dx="0em" dy="0.95em" style="text-anchor: middle; visibility: hidden; font-family: &quot;Helvetica Neue&quot;, sans-serif; font-size: 12px; font-weight: 200;" fill="rgb(50, 49, 63)" stroke="none" stroke-width="1px">20k</text><text x="69.23076923076924" y="0" dx="0em" dy="0.95em" style="text-anchor: middle; visibility: inherit; font-family: &quot;Helvetica Neue&quot;, sans-serif; font-size: 12px; font-weight: 200;" fill="rgb(50, 49, 63)" stroke="none" stroke-width="1px">40k</text><text x="92.3076923076923" y="0" dx="0em" dy="0.95em" style="text-anchor: middle; visibility: hidden; font-family: &quot;Helvetica Neue&quot;, sans-serif; font-size: 12px; font-weight: 200;" fill="rgb(50, 49, 63)" stroke="none" stroke-width="1px">60k</text><text x="115.38461538461539" y="0" dx="0em" dy="0.95em" style="text-anchor: middle; visibility: inherit; font-family: &quot;Helvetica Neue&quot;, sans-serif; font-size: 12px; font-weight: 200;" fill="rgb(50, 49, 63)" stroke="none" stroke-width="1px">80k</text><text x="138.46153846153848" y="0" dx="0em" dy="0.95em" style="text-anchor: middle; visibility: hidden; font-family: &quot;Helvetica Neue&quot;, sans-serif; font-size: 12px; font-weight: 200;" fill="rgb(50, 49, 63)" stroke="none" stroke-width="1px">100k</text><text x="161.53846153846152" y="0" dx="0em" dy="0.95em" style="text-anchor: middle; visibility: inherit; font-family: &quot;Helvetica Neue&quot;, sans-serif; font-size: 12px; font-weight: 200;" fill="rgb(50, 49, 63)" stroke="none" stroke-width="1px">120k</text><text x="184.6153846153846" y="0" dx="0em" dy="0.95em" style="text-anchor: middle; visibility: hidden; font-family: &quot;Helvetica Neue&quot;, sans-serif; font-size: 12px; font-weight: 200;" fill="rgb(50, 49, 63)" stroke="none" stroke-width="1px">140k</text><text x="207.69230769230768" y="0" dx="0em" dy="0.95em" style="text-anchor: middle; visibility: inherit; font-family: &quot;Helvetica Neue&quot;, sans-serif; font-size: 12px; font-weight: 200;" fill="rgb(50, 49, 63)" stroke="none" stroke-width="1px">160k</text><text x="230.76923076923077" y="0" dx="0em" dy="0.95em" style="text-anchor: middle; visibility: hidden; font-family: &quot;Helvetica Neue&quot;, sans-serif; font-size: 12px; font-weight: 200;" fill="rgb(50, 49, 63)" stroke="none" stroke-width="1px">180k</text><text x="253.84615384615384" y="0" dx="0em" dy="0.95em" style="text-anchor: middle; visibility: inherit; font-family: &quot;Helvetica Neue&quot;, sans-serif; font-size: 12px; font-weight: 200;" fill="rgb(50, 49, 63)" stroke="none" stroke-width="1px">200k</text><text x="276.92307692307696" y="0" dx="0em" dy="0.95em" style="text-anchor: middle; visibility: hidden; font-family: &quot;Helvetica Neue&quot;, sans-serif; font-size: 12px; font-weight: 200;" fill="rgb(50, 49, 63)" stroke="none" stroke-width="1px">220k</text><text x="300" y="0" dx="0em" dy="0.95em" style="text-anchor: middle; visibility: hidden; font-family: &quot;Helvetica Neue&quot;, sans-serif; font-size: 12px; font-weight: 200;" fill="rgb(50, 49, 63)" stroke="none" stroke-width="1px">240k</text></g><line x1="0" y1="0" x2="300" y2="0" fill="rgb(0, 0, 0)" stroke="rgb(204, 204, 204)" stroke-width="1px"></line></g></g></g></g></svg>