<svg viewBox="0 0 330 200" xmlns="http://www.w3.org/2000/svg"><g><g><g><g><g><line x1="30" y1="178" x2="25" y2="178" style="visibility: inherit;" fill="rgb(0, 0, 0)" stroke="rgb(204, 204, 204)" stroke-width="1px"></line><line x1="30" y1="161.8181818181818" x2="25" y2="161.8181818181818" style="visibility: inherit;" fill="rgb(0, 0, 0)" stroke="rgb(204, 204, 204)" stroke-width="1px"></line><line x1="30" y1="145.63636363636363" x2="25" y2="145.63636363636363" style="visibility: inherit;" fill="rgb(0, 0, 0)" stroke="rgb(204, 204, 204)" stroke-width="1px"></line><line x1="30" y1="129.45454545454547" x2="25" y2="129.45454545454547" style="visibility: inherit;" fill="rgb(0, 0, 0)" stroke="rgb(204, 204, 204)" stroke-width="1px"></line><line x1="30" y1="113.27272727272727" x2="25" y2="113.27272727272727" style="visibility: inherit;" fill="rgb(0, 0, 0)" stroke="rgb(204, 204, 204)" stroke-width="1px"></line><line x1="30" y1="97.0909090909091" x2="25" y2="97.0909090909091" style="visibility: inherit;" fill="rgb(0, 0, 0)" stroke="rgb(204, 204, 204)" stroke-width="1px"></line><line x1="30" y1="80.90909090909092" x2="25" y2="80.90909090909092" style="visibility: inherit;" fill="rgb(0, 0, 0)" stroke="rgb(204, 204, 204)" stroke-width="1px"></line><line x1="30" y1="64.72727272727273" x2="25" y2="64.72727272727273" style="visibility: inherit;" fill="rgb(0, 0, 0)" stroke="rgb(204, 204, 204)" stroke-width="1px"></line><line x1="30" y1="48.54545454545453" x2="25" y2="48.54545454545453" style="visibility: inherit;" fill="rgb(0, 0, 0)" stroke="rgb(204, 204, 204)" stroke-width="1px"></line><line x1="30" y1="32.363636363636346" x2="25" y2="32.363636363636346" style="visibility: inherit;" fill="rgb(0, 0, 0)" stroke="rgb(204, 204, 204)" stroke-width="1px"></line><line x1="30" y1="16.181818181818187" x2="25" y2="16.181818181818187" style="visibility: inherit;" fill="rgb(0, 0, 0)" stroke="rgb(204, 204, 204)" stroke-width="1px"></line><line x1="30" y1="0" x2="25" y2="0" style="visibility: inherit;" fill="rgb(0, 0, 0)" stroke="rgb(204, 204, 204)" stroke-width="1px"></line></g><g transform="translate(20, 0)"><text x="0" y="178" dx="0em" dy="0.3em" style="text-anchor: end; visibility: hidden; font-family: &quot;Helvetica Neue&quot;, sans-serif; font-size: 12px; font-weight: 200;" fill="rgb(50, 49, 63)" stroke="none" stroke-width="1px">68</text><text x="0" y="161.8181818181818" dx="0em" dy="0.3em" style="text-anchor: end; visibility: inherit; font-family: &quot;Helvetica Neue&quot;, sans-serif; font-size: 12px; font-weight: 200;" fill="rgb(50, 49, 63)" stroke="none" stroke-width="1px">70</text><text x="0" y="145.63636363636363" dx="0em" dy="0.3em" style="text-anchor: end; visibility: hidden; font-family: &quot;Helvetica Neue&quot;, sans-serif; font-size: 12px; font-weight: 200;" fill="rgb(50, 49, 63)" stroke="none" stroke-width="1px">72</text><text x="0" y="129.45454545454547" dx="0em" dy="0.3em" style="text-anchor: end; visibility: inherit; font-family: &quot;Helvetica Neue&quot;, sans-serif; font-size: 12px; font-weight: 200;" fill="rgb(50, 49, 63)" stroke="none" stroke-width="1px">74</text><text x="0" y="113.27272727272727" dx="0em" dy="0.3em" style="text-anchor: end; visibility: hidden; font-family: &quot;Helvetica Neue&quot;, sans-serif; font-size: 12px; font-weight: 200;" fill="rgb(50, 49, 63)" stroke="none" stroke-width="1px">76</text><text x="0" y="97.0909090909091" dx="0em" dy="0.3em" style="text-anchor: end; visibility: inherit; font-family: &quot;Helvetica Neue&quot;, sans-serif; font-size: 12px; font-weight: 200;" fill="rgb(50, 49, 63)" stroke="none" stroke-width="1px">78</text><text x="0" y="80.90909090909092" dx="0em" dy="0.3em" style="text-anchor: end; visibility: hidden; font-family: &quot;Helvetica Neue&quot;, sans-serif; font-size: 12px; font-weight: 200;" fill="rgb(50, 49, 63)" stroke="none" stroke-width="1px">80</text><text x="0" y="64.72727272727273" dx="0em" dy="0.3em" style="text-anchor: end; visibility: inherit; font-family: &quot;Helvetica Neue&quot;, sans-serif; font-size: 12px; font-weight: 200;" fill="rgb(50, 49, 63)" stroke="none" stroke-width="1px">82</text><text x="0" y="48.54545454545453" dx="0em" dy="0.3em" style="text-anchor: end; visibility: hidden; font-family: &quot;Helvetica Neue&quot;, sans-serif; font-size: 12px; font-weight: 200;" fill="rgb(50, 49, 63)" stroke="none" stroke-width="1px">84</text><text x="0" y="32.363636363636346" dx="0em" dy="0.3em" style="text-anchor: end; visibility: inherit; font-family: &quot;Helvetica Neue&quot;, sans-serif; font-size: 12px; font-weight: 200;" fill="rgb(50, 49, 63)" stroke="none" stroke-width="1px">86</text><text x="0" y="16.181818181818187" dx="0em" dy="0.3em" style="text-anchor: end; visibility: hidden; font-family: &quot;Helvetica Neue&quot;, sans-serif; font-size: 12px; font-weight: 200;" fill="rgb(50, 49, 63)" stroke="none" stroke-width="1px">88</text><text x="0" y="0" dx="0em" dy="0.3em" style="text-anchor: end; visibility: hidden; font-family: &quot;Helvetica Neue&quot;, sans-serif; font-size: 12px; font-weight: 200;" fill="rgb(50, 49, 63)" stroke="none" stroke-width="1px">90</text></g><line x1="30" y1="0" x2="30" y2="178" fill="rgb(0, 0, 0)" stroke="rgb(204, 204, 204)" stroke-width="1px"></line></g></g><g transform="translate(30, 0)" clip-path="url(#clip_0)"><clipPath id="clip_0"><rect width="300" height="178"></rect></clipPath><g><g><g><line x1="0" y1="0" x2="0" y2="178" fill="rgb(0, 0, 0)" stroke="rgb(60, 60, 60)" stroke-width="1px" opacity="0.25"></line><line x1="23.076923076923077" y1="0" x2="23.076923076923077" y2="178" fill="rgb(0, 0, 0)" stroke="rgb(60, 60, 60)" stroke-width="1px" opacity="0.25"></line><line x1="46.15384615384615" y1="0" x2="46.15384615384615" y2="178" fill="rgb(0, 0, 0)" stroke="rgb(60, 60, 60)" stroke-width="1px" opacity="0.25"></line><line x1="69.23076923076924" y1="0" x2="69.23076923076924" y2="178" fill="rgb(0, 0, 0)" stroke="rgb(60, 60, 60)" stroke-width="1px" opacity="0.25"></line><line x1="92.3076923076923" y1="0" x2="92.3076923076923" y2="178" fill="rgb(0, 0, 0)" stroke="rgb(60, 60, 60)" stroke-width="1px" opacity="0.25"></line><line x1="115.38461538461539" y1="0" x2="115.38461538461539" y2="178" fill="rgb(0, 0, 0)" stroke="rgb(60, 60, 60)" stroke-width="1px" opacity="0.25"></line><line x1="138.46153846153848" y1="0" x2="138.46153846153848" y2="178" fill="rgb(0, 0, 0)" stroke="rgb(60, 60, 60)" stroke-width="1px" opacity="0.25"></line><line x1="161.53846153846152" y1="0" x2="161.53846153846152" y2="178" fill="rgb(0, 0, 0)" stroke="rgb(60, 60, 60)" stroke-width="1px" opacity="0.25"></line><line x1="184.6153846153846" y1="0" x2="184.6153846153846" y2="178" fill="rgb(0, 0, 0)" stroke="rgb(60, 60, 60)" stroke-width="1px" opacity="0.25"></line><line x1="207.69230769230768" y1="0" x2="207.69230769230768" y2="178" fill="rgb(0, 0, 0)" stroke="rgb(60, 60, 60)" stroke-width="1px" opacity="0.25"></line><line x1="230.76923076923077" y1="0" x2="230.76923076923077" y2="178" fill="rgb(0, 0, 0)" stroke="rgb(60, 60, 60)" stroke-width="1px" opacity="0.25"></line><line x1="253.84615384615384" y1="0" x2="253.84615384615384" y2="178" fill="rgb(0, 0, 0)" stroke="rgb(60, 60, 60)" stroke-width="1px" opacity="0.25"></line><line x1="276.92307692307696" y1="0" x2="276.92307692307696" y2="178" fill="rgb(0, 0, 0)" stroke="rgb(60, 60, 60)" stroke-width="1px" opacity="0.25"></line><line x1="300" y1="0" x2="300" y2="178" fill="rgb(0, 0, 0)" stroke="rgb(60, 60, 60)" stroke-width="1px" opacity="0.25"></line></g><g><line x1="0" y1="178" x2="300" y2="178" fill="rgb(0, 0, 0)" stroke="rgb(60, 60, 60)" stroke-width="1px" opacity="0.25"></line><line x1="0" y1="161.8181818181818" x2="300" y2="161.8181818181818" fill="rgb(0, 0, 0)" stroke="rgb(60, 60, 60)" stroke-width="1px" opacity="0.25"></line><line x1="0" y1="145.63636363636363" x2="300" y2="145.63636363636363" fill="rgb(0, 0, 0)" stroke="rgb(60, 60, 60)" stroke-width="1px" opacity="0.25"></line><line x1="0" y1="129.45454545454547" x2="300" y2="129.45454545454547" fill="rgb(0, 0, 0)" stroke="rgb(60, 60, 60)" stroke-width="1px" opacity="0.25"></line><line x1="0" y1="113.27272727272727" x2="300" y2="113.27272727272727" fill="rgb(0, 0, 0)" stroke="rgb(60, 60, 60)" stroke-width="1px" opacity="0.25"></line><line x1="0" y1="97.0909090909091" x2="300" y2="97.0909090909091" fill="rgb(0, 0, 0)" stroke="rgb(60, 60, 60)" stroke-width="1px" opacity="0.25"></line><line x1="0" y1="80.90909090909092" x2="300" y2="80.90909090909092" fill="rgb(0, 0, 0)" stroke="rgb(60, 60, 60)" stroke-width="1px" opacity="0.25"></line><line x1="0" y1="64.72727272727273" x2="300" y2="64.72727272727273" fill="rgb(0, 0, 0)" stroke="rgb(60, 60, 60)" stroke-width="1px" opacity="0.25"></line><line x1="0" y1="48.54545454545453" x2="300" y2="48.54545454545453" fill="rgb(0, 0, 0)" stroke="rgb(60, 60, 60)" stroke-width="1px" opacity="0.25"></line><line x1="0" y1="32.363636363636346" x2="300" y2="32.363636363636346" fill="rgb(0, 0, 0)" stroke="rgb(60, 60, 60)" stroke-width="1px" opacity="0.25"></line><line x1="0" y1="16.181818181818187" x2="300" y2="16.181818181818187" fill="rgb(0, 0, 0)" stroke="rgb(60, 60, 60)" stroke-width="1px" opacity="0.25"></line><line x1="0" y1="0" x2="300" y2="0" fill="rgb(0, 0, 0)" stroke="rgb(60, 60, 60)" stroke-width="1px" opacity="0.25"></line></g></g></g><g><g><line x1="0" y1="728.1818181818181" x2="300" y2="728.1818181818181" fill="rgb(0, 0, 0)" stroke="rgb(153, 153, 153)" stroke-width="1.5px"></line></g></g><g><g><line x1="23.076923076923077" y1="0" x2="23.076923076923077" y2="178" fill="rgb(0, 0, 0)" stroke="rgb(153, 153, 153)" stroke-width="1.5px"></line></g></g><g><g><g><g><g><path stroke="rgb(255, 112, 67)" stroke-width="2px" d="M33.28961538461539,208.4302219806636L33.57807692307692,173.83197429517116L33.69346153846154,163.56350677829755L33.75115384615385,160.4016018742431L33.981923076923074,159.52458635561902L34.44346153846154,159.0249927335235L34.905,158.16011685248333L34.96269230769231,157.82784504220632L35.020384615384614,157.68944723491867L35.25115384615385,157.4278155603016L35.88576923076923,156.78992789230045L36.23192307692308,156.33925768398547L36.520384615384614,155.91355500960796L36.693461538461534,155.5892813882473L37.385769230769235,154.89155152573818L37.73192307692308,154.2989156252908L38.020384615384614,153.8445801108383L38.193461538461534,153.53107476955742L38.42423076923077,153.26288639848534L38.655,153.01313265150145L38.770384615384614,152.8828543684263L39.86653846153846,151.9658709506425L40.155,151.4630154022915L40.21269230769231,151.25983128694725L40.50115384615384,150.95037467350429L40.78961538461539,150.67207987031304L40.905,150.50666504885137L41.36653846153846,150.1324029986531L41.42423076923077,149.97401918950183L41.770384615384614,149.72138562468177L41.82807692307693,149.6060150887052L41.885769230769235,149.54608279976057L42.058846153846154,149.41631854220975L42.57807692307693,149.03503551350195L43.03961538461538,148.67569245558653L43.90615384615385,137.3873151557766L44.136923076923075,133.7942143998048L44.48307692307692,132.91859393752844L44.713846153846156,132.55790725507777L44.82923076923077,132.46024451871966L45.52153846153846,132.05212260821267L45.57923076923077,131.8968031365565L46.502307692307696,131.59967504075385L47.252307692307696,131.21791770443144L47.31,131.0622544728174L47.425384615384615,130.98336396668986L47.77153846153846,130.9303571458842L48.290769230769236,130.83261513937077L48.40615384615385,130.82446549440363L48.46384615384615,130.7744030527511L48.636923076923075,130.7676806625849L48.98307692307692,130.68088569735502L49.50230769230769,130.55058119715488L49.675384615384615,130.47126122881983L49.73307692307692,130.42279226191215L50.309999999999995,130.2252135191942L51.175384615384615,129.9760746453579L51.29076923076923,129.86430191353818L51.40615384615385,129.7860044135058L52.213846153846156,129.5249891541965L52.502307692307696,129.3559433321743L52.6176923076923,129.2874702277685L52.79076923076923,129.21801444479544L53.252307692307696,129.06767699135324L53.598461538461535,128.88071694350862L53.713846153846156,128.80712883205393L53.83038461538462,120.62499477588132L54.176538461538456,118.25941060872326L54.464999999999996,118.09867667604739L55.04192307692308,117.84918377452061L55.15730769230769,117.76042224661404L55.38807692307692,117.8217695850283L55.73423076923077,118.09031714981158L55.964999999999996,118.2089495317066L56.31115384615385,118.18849572543442L56.42653846153846,118.05925396221483L56.48423076923077,118.06265450675748L56.59961538461539,118.07149570117055L56.714999999999996,118.08629010217466L56.7726923076923,118.04462322838421L57.06115384615384,118.04370347741528L57.11884615384616,118.02445831106911L57.63807692307692,117.97789441137826L57.98423076923077,117.9761969145002L58.09961538461539,117.95944066170807L58.38807692307692,117.96387680134002L58.67653846153846,117.87671332504783L58.79192307692308,117.89671268636823L59.48423076923077,117.76703272958324L59.88807692307693,117.71559780882083L59.94576923076923,117.69143888909957L60.06115384615384,117.67014792538578L60.11884615384615,117.68731014965496L60.17653846153846,117.67366241634537L60.23423076923077,117.66174706530222L60.34961538461538,117.62541919183408L60.52269230769231,117.59282935141118L60.753461538461536,117.55505224392212L61.04192307692308,117.52444739980578L61.215,117.51811781424666L61.44576923076924,117.48203973658583L61.61884615384615,117.44974088548653L61.79192307692308,117.43184130805989L62.02269230769231,117.36831061829247L62.08038461538462,117.33801678112434L62.31115384615385,117.28908890274556L62.59961538461538,117.25911415806186L62.65730769230769,117.25906622873075L63.06115384615385,117.22457017712424L63.23423076923077,117.1986657197744L63.464999999999996,117.16950537500105L63.63807692307692,117.13608429516196L64.04307692307692,110.96036326628744L64.27384615384615,108.85888631808763L64.44692307692307,108.08818319611878L64.50461538461538,107.63353274814234L64.56230769230768,107.45263119396066L64.96615384615384,108.07014840581783L65.31230769230768,108.26032952263321L65.42769230769231,108.40393372062607L65.48538461538462,108.41382961070586L65.71615384615384,108.43464415576149L65.94692307692308,108.5250186157137L66.12,108.55368651788619L66.17769230769231,108.54184850352816L66.23538461538462,108.51656241072206L66.46615384615384,108.61510062851234L66.98538461538462,108.77502701472564L67.21615384615384,108.73986866682891L67.27384615384615,108.73416069548556L67.33153846153846,108.70405925767359L67.44692307692308,108.72130057704024L67.50461538461539,108.71536797296116L67.85076923076923,108.76937245188041L68.08153846153846,108.76405515763885L68.13923076923076,108.7430586271479L68.25461538461539,108.74025968742093L68.37,108.75311761236982L68.54307692307692,108.71605500971862L68.60076923076923,108.67352247437339L68.65846153846154,108.65817010679177L68.71615384615384,108.65088536930679L68.88923076923076,108.64610734108331L69.12,108.61274165667064L69.40846153846154,108.59711463622797L69.46615384615384,108.58892651067485L69.52384615384615,108.59839606510768L69.87,108.5696503364224L70.44692307692307,108.56889085898332L70.62,108.55600245167581L70.85076923076923,108.49263559933885L71.08153846153846,108.48261324782816L71.19692307692307,108.45493356596779L71.48538461538462,108.446240770363L72.87,108.34424966419223L72.98538461538462,108.31239923896828L73.04307692307692,108.28417734115966L73.27384615384615,108.24537727017456L73.38923076923076,108.22185446689672L73.62,108.20935315125949L73.73538461538462,108.200936064008L74.14038461538462,90.77138214311043L74.48653846153846,95.64988069074033L74.7173076923077,97.24007910590376L75.12115384615385,98.0760850665545L75.17884615384615,98.40259097850685L75.23653846153846,98.5799197357351L75.29423076923077,98.6115565148701L75.58269230769231,99.05958701893641L75.69807692307691,99.1349279411745L75.87115384615385,99.34372260898147L75.92884615384615,99.45592301271935L76.04423076923077,99.62422585623058L76.50576923076923,99.93389098684969L76.56346153846152,100.03413624580634L76.73653846153846,100.07095060163614L77.14038461538462,100.1301309779429L77.31346153846152,100.15631106351343L77.83269230769231,100.30511648855428L77.94807692307693,100.35079515885771L78.06346153846152,100.38675196984302L78.23653846153846,100.48050243643408L78.29423076923077,100.48170767395679L78.81346153846154,100.49555080149905L78.87115384615385,100.52977798070631L79.10192307692307,100.61065146450221L79.15961538461538,100.6412221866208L79.2173076923077,100.64360941499724L79.27499999999999,100.64458484420798L79.50576923076923,100.68730980717751L79.56346153846154,100.70457793804721L79.73653846153846,100.76320929117098L79.79423076923078,100.80555809374772L80.25576923076923,100.87499761722242L80.48653846153846,100.94742235312661L80.60192307692307,100.9818103379737L80.7173076923077,101.00271321192125L80.77499999999999,100.98111354909223L81.23653846153846,101.05206617865261L81.29423076923078,101.0811297884547L81.4673076923077,101.07520064196964L81.92884615384615,101.09208866826563L82.04423076923078,101.09585877266545L82.27499999999999,101.10113797515015L82.33269230769231,101.09861677484705L82.62115384615385,101.12590378023468L83.025,101.13655285848006L83.65961538461539,101.21903814536368L83.775,101.21824655269563L84.12115384615385,101.24786726525828L84.29423076923078,101.28276596903952L84.35307692307693,105.19891157227265L84.58384615384615,96.0773894806484L84.81461538461538,93.81455893792231L84.93,93.11267878311679L85.21846153846154,93.38455568516146L85.27615384615385,93.5672736380324L85.33384615384615,93.74044153243874L85.79538461538462,93.65191581267025L86.14153846153847,93.79802572147331L86.37230769230769,94.04736600723568L86.43,94.1221248828481L86.4876923076923,94.19653431544036L87.00692307692309,94.08399837224663L87.29538461538462,94.20518906633929L87.64153846153846,94.33492333589085L88.10307692307691,94.35422622395619L88.21846153846154,94.3416960010647L89.3723076923077,94.57157403302979L89.42999999999999,94.66642030228287L89.66076923076923,94.80328836485482L89.71846153846153,94.87273783003528L89.77615384615385,94.87983185260619L90.81461538461538,95.04015229515063L91.10307692307693,95.11931650153348L91.50692307692307,95.20511549045477L91.56461538461538,95.23720707422721L91.91076923076923,95.30555709741016L92.02615384615385,95.313790431336L92.31461538461538,95.32719259093753L92.42999999999999,95.3456022075459L92.5453846153846,95.34248306926838L92.77615384615385,95.37551047919675L93.81461538461538,95.3965237020643L93.92999999999999,95.41401908904612L94.0453846153846,95.42052079851345L94.50692307692307,95.42450218681968L94.62346153846154,88.46260241219386L94.9696153846154,87.77265752419528L95.08500000000001,87.69007598262267L95.20038461538462,87.52568963438647L95.25807692307693,87.6172387090527L95.43115384615385,87.54544979431202L95.7196153846154,87.7334821839435L96.18115384615383,87.98930658755607L96.58500000000001,88.24913517140179L96.93115384615383,88.52403545664954L97.16192307692307,88.63778966642492L97.21961538461538,88.67545915889413L97.27730769230769,88.69233411163749L97.33500000000001,88.71204482688617L97.68115384615383,88.92251473202363L98.25807692307693,89.00013109252527L98.37346153846154,89.02942220684149L98.54653846153847,89.08124681697075L98.60423076923077,89.11126958896998L98.77730769230769,89.21058556363614L99.12346153846154,89.29612140606265L99.23884615384615,89.32126363739495L99.41192307692307,89.40308449671382L99.58500000000001,89.45018643521804L99.75807692307691,89.49681102422674L99.81576923076923,89.5313664162879L100.85423076923077,89.73073408260123L101.48884615384615,89.83120510193328L101.71961538461538,89.85292043505444L102.585,90.06230653101795L102.75807692307691,90.13480142585814L102.81576923076923,90.16938329885124L102.93115384615385,90.1881838334276L102.98884615384615,90.2047561532243L104.14269230769231,90.33598780899104L104.20038461538462,90.38615983479608L104.25807692307691,90.40194601451473L104.54653846153846,90.39043486470155L104.71961538461538,90.38590126685014L104.89384615384616,85.24521637503913L105.00923076923078,82.55962802008897L105.24,82.05620627712048L105.47076923076922,82.30556469186307L105.70153846153846,82.74221373017967L106.6246153846154,83.42815596531192L107.14384615384616,83.88628571504195L107.20153846153846,84.00255168297404L107.83615384615385,84.15535188073565L108.2976923076923,84.3796929304983L108.35538461538461,84.44198287193632L108.52846153846154,84.44541668331392L108.64384615384616,84.4799778769758L108.70153846153846,84.54984656521899L109.16307692307693,84.61756051752828L109.22076923076922,84.64876365252856L109.6246153846154,84.73270525376188L109.74000000000001,84.75183831784997L110.49000000000001,84.84723922839832L110.5476923076923,84.88497683610207L110.72076923076922,84.9242982737754L111.12461538461538,85.01711367313942L111.81692307692308,85.10156354530123L112.10538461538462,85.14958381800713L112.16307692307691,85.17094672854316L112.27846153846154,85.21762743009523L112.68230769230769,85.26995901371883L113.08615384615385,85.31638088149495L113.14384615384616,85.35904216916707L113.66307692307691,85.44927308387781L113.89384615384616,85.51268206609915L114.00923076923077,85.5488591769365L114.24000000000001,85.60586071439575L114.75923076923077,85.69922703090258L115.10653846153846,80.31149699942969L115.16423076923077,78.50665225257224L115.45269230769232,78.49944870644467L115.91423076923077,78.22337871538254L116.02961538461538,78.1848912973873L116.43346153846153,78.22251818433786L116.49115384615385,78.1628984495752L116.72192307692308,78.38806943333228L117.01038461538461,78.45272565066732L117.18346153846154,78.59721580255548L117.29884615384614,78.74491527898574L117.47192307692308,78.96236805792788L117.645,79.0889190466398L117.87576923076922,79.25517517854723L118.33730769230769,79.44820713342035L118.79884615384614,79.73305625068842L118.91423076923076,79.87995577124705L119.02961538461538,79.96784068534258L119.20269230769232,79.98154559549539L119.26038461538461,79.97960765225932L119.60653846153846,80.05015012071777L119.66423076923076,80.07325731648884L120.12576923076922,80.1529985211852L120.29884615384616,80.22721745796697L120.35653846153846,80.23742751655384L120.41423076923076,80.25384246006655L120.47192307692308,80.27704482231508L120.58730769230769,80.34475895450711L120.76038461538461,80.43697482768742L121.16423076923077,80.57664021109035L121.22192307692308,80.64753381414842L121.62576923076922,80.7937655514046L121.68346153846154,80.8484808117726L121.74115384615384,80.86333982569626L122.26038461538461,80.93105714013608L122.49115384615384,80.98745278157828L122.60653846153846,81.01405054006206L122.66423076923077,81.01507303888295L122.7796153846154,81.04355278435666L123.06807692307693,81.12460328314978L123.12576923076922,81.17808526129004L123.24115384615384,81.20709288962196L123.29884615384616,81.21899272672775L123.35653846153846,81.24101339751932L123.64500000000001,81.29424331424427L124.4526923076923,81.42428699629302L124.97192307692308,81.58277607247639L125.26153846153846,72.87323099568208L125.66538461538462,72.3420148253825L125.72307692307692,72.57599166296909L126.2423076923077,72.97924829068315L126.64615384615385,73.64882091553862L127.16538461538461,74.18958347780885L127.33846153846153,74.32869483426951L127.7423076923077,74.56975650769829L127.85769230769232,74.69215553451828L128.08846153846153,74.93442576580205L128.6653846153846,75.19437947923012L128.72307692307692,75.27141497070001L128.89615384615385,75.41689666750175L129.1846153846154,75.53088724587828L129.4153846153846,75.6377638350073L130.16538461538462,75.9518592408343L130.28076923076924,76.07611889341071L130.33846153846153,76.15271799501636L130.6846153846154,76.32287138161489L130.7423076923077,76.40546078249317L130.8,76.4616081471902L130.91538461538462,76.52330445731852L131.0307692307692,76.56938140455624L131.72307692307692,76.69546437087428L132.76153846153846,76.9507657761061L133.1076923076923,77.07674536060613L133.45384615384614,77.1729161030771L133.51153846153846,77.2200019948969L133.8576923076923,77.36596182727331L134.08846153846153,77.4508858077035L134.20384615384614,77.48923961648987L134.31923076923076,77.52749282111539L134.66538461538462,77.60490741997637L134.83846153846153,77.66079864755714L134.95384615384614,77.6820166578103L135.12692307692308,77.70583894787137L135.3,77.7397759069955L135.41653846153847,66.77225410832473L135.93576923076924,68.97733052937248L136.05115384615385,69.92512047617235L136.74346153846153,70.39599553227819L136.80115384615385,70.57459158959287L136.85884615384617,70.66982495890022L137.66653846153847,71.01158189263282L137.8973076923077,71.20485021698194L138.12807692307692,71.31451001338118L138.35884615384617,71.44886530537268L138.41653846153847,71.54854259276603L138.58961538461537,71.61940896923618L138.70499999999998,71.72553355058979L138.82038461538463,71.85368627422798L139.28192307692308,71.89628026248417L139.3973076923077,71.94086110455765L139.5703846153846,71.97052557102458L139.74346153846153,72.07647483217386L139.91653846153847,72.15129688635314L140.03192307692308,72.1940954673841L140.20499999999998,72.31362081883746L140.37807692307692,72.3811946496375L141.30115384615385,72.67321522028641L141.70499999999998,72.90224810213L141.99346153846153,73.07081654545172L142.05115384615385,73.14018347903864L142.10884615384614,73.17827760563453L142.2242307692308,73.2297184113069L142.28192307692308,73.26239148941214L142.3973076923077,73.31082325681574L142.5126923076923,73.36385300065974L142.74346153846153,73.43070665093036L142.9742307692308,73.50291735638525L143.2626923076923,73.61739589783362L143.37807692307692,73.68293716423653L143.78192307692308,73.76840855128184L143.8973076923077,73.81034018124036L143.955,73.841370389888L144.12807692307692,73.87777219540219L144.24346153846153,73.89819896264231L144.4742307692308,73.90920973595627L144.7626923076923,73.95442678076115L144.87807692307692,74.00126368375338L144.9357692307692,74.02948767279737L145.5126923076923,74.12528251455228L145.57038461538463,74.15657036394046L145.74461538461537,68.81075416526794L145.9176923076923,67.84202517480679L146.09076923076924,67.2506640682225L146.14846153846153,67.09741019125863L146.32153846153847,66.85024772667806L146.37923076923076,66.88658725468234L146.49461538461537,67.04950230222597L146.78307692307692,67.09556815892951L146.84076923076924,67.04154803335003L147.24461538461537,67.33001652570556L147.3023076923077,67.47964384320974L147.53307692307692,67.41304993840778L147.64846153846153,67.38542357638211L147.76384615384615,67.4630373789782L147.99461538461537,67.60307525399894L148.57153846153847,68.09295947195157L148.68692307692308,68.33533267412732L148.8023076923077,68.45643996503564L148.85999999999999,68.53451312465369L149.09076923076924,68.61998479954549L149.26384615384615,68.65798439527475L149.72538461538463,68.85890384408407L149.95615384615385,69.00257520318527L150.12923076923076,69.10798559861986L150.76384615384615,69.33526412385538L150.99461538461537,69.47370733052934L151.11,69.53624040905322L151.28307692307692,69.63830943683618L151.39846153846156,69.708856292632L151.45615384615385,69.72267462959987L151.57153846153847,69.77383273722434L151.68692307692308,69.80205678416898L151.7446153846154,69.84647481501376L151.85999999999999,69.89683129393596L151.97538461538463,69.9091295800532L152.03307692307695,69.92167713972982L152.26384615384617,69.95262057078521L152.43692307692308,69.97145303580407L152.61,69.99032507089748L152.89846153846156,70.0627031009923L153.5907692307692,70.32272030141364L153.82153846153847,70.41515764038417L153.99461538461537,70.47715446430108L154.57153846153847,70.58930341326501L154.9176923076923,70.67804099623633L154.97538461538463,70.73166859381497L155.0907692307692,70.75959644495474L155.26384615384617,70.7874193526315L155.43692307692308,70.8458899598422L155.4946153846154,70.87021513026448L155.5523076923077,70.87842009383341L156.0726923076923,64.45670396227646L156.13038461538463,63.284205652239436L156.18807692307692,63.025012228342376L156.30346153846153,63.362892309860214L156.99576923076924,63.91424648546075L157.05346153846153,64.03341791370022L157.11115384615383,64.04561982878872L157.16884615384615,64.01501478108963L157.6303846153846,64.15577237033993L158.1496153846154,64.39646371127955L159.1303846153846,65.01774206138197L159.93807692307692,65.36879931963088L160.11115384615385,65.61221602879941L160.16884615384615,65.739728998204L160.22653846153847,65.79042740251965L160.34192307692305,65.82525431661439L160.80346153846153,65.97527106649093L160.91884615384615,66.07186897031576L161.1496153846154,66.20221927430241L161.72653846153847,66.29140489028973L162.18807692307692,66.39140172221398L162.24576923076924,66.4425737287781L162.88038461538463,66.62670404501402L163.34192307692308,66.78923385865697L163.68807692307692,66.96576511664809L163.74576923076924,67.03415050556447L163.86115384615385,67.08469715306768L163.97653846153847,67.12825019372747L164.265,67.21192143595917L165.36115384615383,67.5136971832958L165.47653846153847,67.63309426518498L165.7073076923077,67.71510500407614L165.765,67.75193668865626L166.2853846153846,62.63057500018269L166.40076923076924,60.78836850058751L166.57384615384615,60.35107756122915L166.63153846153847,60.19634076603833L166.6892307692308,60.17498159493499L167.26615384615386,60.39197014487347L167.32384615384618,60.50425215685429L167.49692307692308,60.67832642830626L167.6123076923077,60.80996890350083L167.84307692307692,60.897338454919264L167.95846153846153,61.014549825272L168.13153846153847,61.13254702932434L168.24692307692305,61.262878816050545L168.3623076923077,61.395744304438765L168.4776923076923,61.49540675191409L168.99692307692308,61.67861497878809L169.2276923076923,61.819435947937734L169.45846153846153,61.95173212105122L169.57384615384615,62.06064357929746L169.74692307692305,62.14123703574769L169.92000000000002,62.20840913840098L170.26615384615386,62.36583930868122L170.32384615384618,62.42940178372659L170.5546153846154,62.508359747431555L170.7276923076923,62.56333126074402L170.90076923076924,62.652199659539804L171.01615384615383,62.7006812879099L171.5353846153846,62.90768363441987L171.70846153846153,63.049118111899176L171.76615384615386,63.08040024513765L171.82384615384615,63.12016159686782L171.88153846153844,63.12059611145122L172.0546153846154,63.14112164071973L172.28538461538463,63.244199590360495L172.63153846153847,63.38790137879489L172.6892307692308,63.42072790764598L172.8623076923077,63.465792111085506L173.32384615384615,63.6415221487065L173.61230769230767,63.78347005015172L173.78538461538463,63.87332628781721L173.95846153846153,63.940382147043024L174.01615384615386,63.98646818470684L174.3623076923077,64.13031323595182L174.47769230769234,64.20112122575723L174.82384615384615,64.28981461424269L174.99692307692308,64.34100918696285L175.17,64.38613932890944L175.2276923076923,64.40028331312159L175.45846153846153,64.43434148863197L176.4980769230769,58.28919145415797L176.72884615384618,56.56231375782498L176.84423076923076,56.194232762601445L177.1326923076923,56.7263861035274L177.42115384615383,57.10588517753823L178.17115384615386,57.723953746842824L178.40192307692308,57.96917711859304L178.575,58.15725093831233L179.44038461538463,58.67234846874955L180.075,59.119237374764666L180.1326923076923,59.250538599126L180.30576923076924,59.3540095689069L180.65192307692308,59.49273046966012L181.05576923076922,59.69806987054568L181.11346153846154,59.79354842199034L181.17115384615386,59.84297605336384L181.22884615384618,59.873576035225256L181.28653846153844,59.87934243059604L181.34423076923076,59.90094900270515L181.80576923076924,59.987715370422805L183.1326923076923,60.41953148290867L183.19038461538463,60.58169995446073L183.24807692307692,60.644955515235566L183.65192307692305,60.76335866107375L184.28653846153844,60.97362131514123L184.40192307692308,61.06081135625675L185.0942307692308,61.27704967019382L185.15192307692305,61.37035342090019L185.32500000000002,61.45961649102513L185.4403846153846,61.5265808202213L185.49807692307692,61.56218255073176L185.61346153846154,61.600647174665525L186.65307692307692,56.090841111184375L186.94153846153847,54.52449236520462L187.11461538461538,53.930790758212L187.2876923076923,53.7944644585761L187.80692307692308,53.56223217371007L187.86461538461538,53.45518573765105L188.21076923076924,53.280824103974695L188.32615384615383,53.159465848024794L188.38384615384615,53.1395646356664L188.73,53.216989796417295L188.9030769230769,53.3026991728119L188.96076923076922,53.32041811421493L189.24923076923076,53.40865400981495L189.36461538461538,53.39627888394149L189.48000000000002,53.41745537316818L189.65307692307692,53.43599357273264L189.71076923076924,53.4453143127201L190.1723076923077,53.539067829527156L190.46076923076922,53.600595304468996L190.57615384615386,53.622510356255475L190.63384615384618,53.6195786462055L190.69153846153844,53.63326094238353L191.32615384615383,53.78842819782075L191.90307692307692,53.936349307290996L192.36461538461538,54.10988067775202L193.34538461538463,54.51876922929334L193.63384615384618,54.69449781757173L193.74923076923076,54.76951281406589L193.80692307692308,54.79690005615602L193.98,54.860598018111986L194.55692307692306,54.9649177560417L194.90307692307692,55.06301651722001L195.13384615384618,55.14416865478435L195.4223076923077,55.255582680397524L195.5376923076923,55.306723035764406L195.65307692307692,55.35196654285376L195.76846153846154,55.38857058696843L195.88384615384615,55.41022469892876L196.11461538461538,55.4736718657999L196.1723076923077,55.48989735830182L196.3453846153846,55.51952440269203L196.69153846153844,55.57702389684637L196.75038461538463,49.89810016388256L196.92346153846154,47.003379398308084L196.98115384615386,46.23711188356825L197.38500000000002,46.53612345265486L197.5003846153846,46.69859275922951L197.55807692307692,46.86486506753718L197.61576923076925,46.7787645240343L198.07730769230767,46.84190399044459L198.94269230769228,47.19589707215562L199.05807692307692,47.28628009410318L199.17346153846154,47.42154992178567L199.28884615384615,47.59828594655082L199.40423076923076,47.68902918551004L199.92346153846154,47.98186474209214L200.15423076923076,48.16866657539316L200.26961538461538,48.27141726110344L200.90423076923076,48.658941976870636L201.135,48.90893470154836L201.71192307692309,49.20443374242927L202.23115384615383,49.56405409400901L202.51961538461538,49.777156832672745L202.92346153846154,49.981823003060015L203.09653846153844,50.11784672502584L203.15423076923076,50.18004284918398L203.5003846153846,50.28201079065725L203.55807692307692,50.3340333907838L203.67346153846157,50.39937501468276L203.84653846153847,50.4578666065223L204.135,50.5679269430718L204.3080769230769,50.65448237813203L204.36576923076922,50.688010779002525L204.48115384615386,50.724729941020485L205.40423076923076,51.01038918882699L205.8080769230769,51.213402428922606L205.98115384615386,51.33713391005108L206.03884615384618,51.39253123358449L206.4426923076923,51.5294473944228L206.5003846153846,51.58940506349735L206.9042307692308,51.722460903925835L207.02076923076922,45.42220050151343L208.4053846153846,44.49367709880718L208.57846153846154,44.40014579599077L208.69384615384615,44.447531268205125L208.98230769230767,44.56026597503285L209.15538461538463,44.75793914808958L209.21307692307693,44.844333842926545L209.32846153846154,44.90170921604383L209.38615384615383,44.960446749743085L209.79000000000002,45.170569077968025L209.9053846153846,45.22967365585231L210.02076923076925,45.37388103962681L210.54,45.66707056743678L210.82846153846154,45.895373883521245L211.34769230769228,46.23544045929026L211.46307692307693,46.36096673528809L211.57846153846154,46.43068652438174L211.80923076923077,46.53927578708195L211.98230769230767,46.593155153227826L212.7323076923077,46.943765263231285L212.79000000000002,47.07189286798757L212.84769230769228,47.13370782233255L213.19384615384615,47.2734998949731L213.65538461538463,47.44830862438687L214.00153846153847,47.585659121739866L214.05923076923077,47.629716138621575L214.11692307692306,47.67771738730738L214.34769230769228,47.76103789741114L214.63615384615383,47.873404905600324L215.04,48.02239959834469L215.50153846153847,48.19132709052968L215.7323076923077,48.2874191704162L215.96307692307693,48.40495716314547L216.07846153846154,48.48740400796365L216.42461538461538,48.622021387159236L216.5976923076923,48.70730191175332L216.7130769230769,48.777954220432065L216.82846153846154,48.83566246130897L216.94384615384615,48.86922193730081L217.1169230769231,48.92971598582005L217.17576923076925,44.70501967079045L217.34884615384615,41.63756375146801L218.04115384615386,41.31997846770338L218.3296153846154,41.41862988452709L218.3873076923077,41.48236130145105L218.61807692307693,41.60639488890391L219.65653846153845,42.183342527839585L219.88730769230767,42.3623898155696L220.0603846153846,42.51397491530747L220.34884615384615,42.75726635764897L220.69500000000002,43.062853846392755L220.7526923076923,43.19303030663892L220.98346153846154,43.27447236880275L221.09884615384615,43.30123833373216L221.445,43.52220757633597L221.5026923076923,43.60876389366172L221.84884615384615,43.780694561719855L222.2526923076923,43.97776222371843L222.59884615384615,44.12196324131216L222.7719230769231,44.20592747614464L223.11807692307693,44.31027767965537L223.75269230769229,44.48244771984565L223.86807692307693,44.53945678632397L223.92576923076922,44.579849758952975L224.2719230769231,44.7373696920902L224.445,44.857132247182335L224.56038461538463,44.914752492092504L224.61807692307693,44.95528560813469L224.73346153846154,45.00668032854742L225.02192307692306,45.10437080610603L225.59884615384615,45.35439522343256L225.945,45.50592766459732L226.06038461538463,45.57061589870011L226.11807692307693,45.608213827893195L226.34884615384615,45.67856143563273L226.40653846153847,45.71941274110361L226.6373076923077,45.82513161430117L226.75269230769229,45.88130420208603L227.09884615384615,46.045848155933925L227.15653846153845,46.099791614416006L227.32961538461538,46.17776511826921L227.50384615384615,39.49861997959485L228.19615384615383,37.747785248694754L228.48461538461538,37.567870078892014L228.65769230769232,37.599754029038735L229.1769230769231,37.936203743890104L229.23461538461538,38.14347875455917L229.58076923076925,38.47356397881805L229.6384615384615,38.62033672460697L230.44615384615386,39.303402958300154L230.6769230769231,39.66591012255313L230.7923076923077,39.83965028674379L230.90769230769232,39.96669867766468L231.08076923076925,40.14399297954239L231.25384615384615,40.280101483284795L231.77307692307693,40.5505958025405L232.11923076923077,40.80920804596013L232.23461538461538,40.94408833319943L232.8692307692308,41.228905627046174L232.92692307692306,41.339801573700726L233.27307692307693,41.49496609577852L233.6769230769231,41.69409037305621L235.06153846153845,42.24495383810208L235.11923076923077,42.4377809318151L235.2346153846154,42.54030832018293L235.40769230769232,42.66107320894562L235.52307692307693,42.733944854196466L236.7346153846154,43.11842564375891L236.90769230769232,43.30364063868433L237.13846153846154,43.41909435835336L237.19615384615383,43.477971349498205L237.25384615384615,43.51680740382858L237.36923076923077,43.57175475665997L237.54346153846154,34.06261203435335L237.71653846153845,36.26307626833156L237.8319230769231,36.852610208491285L237.94730769230767,37.16748350200055L238.35115384615386,36.56379964099884L238.58192307692306,36.34008930802682L238.755,36.38549535097965L239.04346153846154,36.68015576027878L239.505,36.91568432906908L239.73576923076922,36.996626907385576L239.85115384615386,37.15671907641044L239.96653846153845,37.23443207701584L240.02423076923077,37.35073414747441L240.3703846153846,37.54567503938617L240.71653846153848,37.85909699312808L240.8319230769231,38.00908067985878L241.005,38.11348969579004L241.52423076923077,38.32439364391104L241.63961538461538,38.44491823244448L241.6973076923077,38.507044888900566L241.92807692307693,38.61495498611265L242.21653846153848,38.759458267074024L242.33192307692306,38.855871274178554L242.90884615384616,39.16337079609414L243.02423076923077,39.27847880419142L243.13961538461538,39.3420051946577L243.88961538461538,39.65700919833432L244.1203846153846,39.81230703307108L244.23576923076922,39.92163747235924L244.81269230769232,40.18504899483722L245.10115384615384,40.376548384308734L245.505,40.53873952306074L245.67807692307693,40.60684141702126L245.79346153846154,40.65263632347737L246.9473076923077,41.005142107203966L247.005,41.13051123512193L247.06269230769232,41.183072673737L247.17807692307693,41.23215610498872L247.35115384615386,41.29367769031671L247.46653846153845,41.327214496503814L247.75615384615384,42.30029940033165L247.98692307692306,36.197300499587215L248.39076923076925,34.871959190070584L248.44846153846154,34.24205921198839L248.50615384615384,33.981360425506125L248.79461538461538,33.709742309003985L248.85230769230768,33.64895451976096L249.0830769230769,33.70223092546405L249.7176923076923,33.99972775486759L250.06384615384616,34.35169431079089L250.41,34.68016205744175L250.5830769230769,34.87540662171597L250.69846153846154,34.969412286363905L251.04461538461538,35.128670268495256L251.2176923076923,35.316578070294725L251.44846153846154,35.51070426159808L251.67923076923077,35.674677273574474L251.79461538461538,35.78881398196583L251.96769230769232,35.89046277591078L252.0830769230769,36.00729122646115L252.31384615384616,36.17317999378176L252.42923076923077,36.26317524225297L252.6023076923077,36.37469280427666L252.89076923076925,36.479099083847785L253.12153846153848,36.592995499968L253.17923076923077,36.66791156447459L253.29461538461538,36.71220749255795L253.81384615384616,36.933725821431324L253.87153846153845,37.01979871289333L254.50615384615384,37.28375153125967L254.62153846153848,37.43669704529327L254.67923076923077,37.502241302419634L255.0830769230769,37.61273224401964L255.19846153846154,37.68520073233233L255.25615384615386,37.7260401502306L255.31384615384616,37.763872364449554L255.37153846153845,37.79648140593463L255.6023076923077,37.902665887844876L255.7176923076923,37.986762263024275L256.98692307692306,38.439166385317094L257.15999999999997,38.63663487819724L257.6792307692308,38.85035159183275L257.8523076923077,38.97513360920823L257.96769230769235,39.04717951757692L258.1996153846154,34.43895895892189L258.2573076923077,32.606113749133414L258.3726923076923,32.10214932970723L258.83423076923077,31.908527669672964L259.1226923076923,31.985299944634107L259.52653846153845,32.108406256472705L261.1419230769231,32.834107403841756L261.5457692307692,33.31643650027189L262.1226923076923,33.70423534350317L262.1803846153846,33.86884069637932L262.46884615384613,34.06085889614744L262.9880769230769,34.26663184486969L263.0457692307692,34.349623106705735L263.6226923076923,34.600898284550794L263.6803846153846,34.68600311407178L263.7380769230769,34.7477878505035L263.85346153846154,34.79985432168155L263.96884615384613,34.867456032943664L264.08423076923077,34.932675067273976L264.1419230769231,34.97285200304802L264.19961538461536,35.00231876064905L264.315,35.05341828167039L265.35346153846154,35.474663970496266L265.6419230769231,35.756507675590484L265.93038461538464,35.965808392876L266.10346153846154,36.10041382135185L266.27653846153845,36.178906772470896L266.565,36.320591115770014L267.19961538461536,36.560566650249484L267.7188461538462,36.81110351114381L267.8919230769231,36.93695003583164L267.9496153846154,36.98226576359045L268.4123076923077,29.821684872676286L268.7584615384616,28.103321632235208L269.62384615384616,27.69324534387428L269.6815384615385,27.6164140716904L269.79692307692306,27.700698618923724L270.02769230769235,27.88236139398245L270.2584615384616,27.929384876380084L270.4315384615385,27.978448905185985L270.7776923076923,28.27792278024279L270.89307692307693,28.41793188778385L271.4123076923077,28.59941687546157L271.64307692307693,28.70299227399775L271.98923076923074,28.846022304891136L272.2776923076923,29.03286421155346L272.62384615384616,29.236176859901605L272.8546153846154,29.29613361161489L273.14307692307693,29.394232192748603L273.54692307692306,29.56603910029628L273.7776923076923,29.667877747933403L274.29692307692306,29.824948562750023L274.47,29.911866324307084L275.1623076923077,30.090041262149242L275.56615384615384,30.203426174809664L275.73923076923074,30.275164080137415L275.8546153846154,30.315309011860904L275.9123076923077,30.33167350300792L276.14307692307693,30.398718997591004L276.20076923076925,30.4422957391167L276.2584615384616,30.466992282858968L276.9507692307692,30.649272586646532L277.29692307692306,30.776031151770894L277.3546153846154,30.829830413757577L277.47,30.867013518991484L277.7584615384616,30.940261387684416L277.81615384615384,30.976711137252607L277.9892307692308,31.021393162953217L278.3353846153846,31.107909287442453L278.5096153846154,24.753760822787285L278.91346153846155,23.544409039072576L279.4903846153846,23.45162352071503L279.83653846153845,23.557782435853255L280.0673076923077,23.570790499687973L280.125,23.64166859910307" style="fill: none;" fill="none"></path></g></g></g></g><g opacity="0.2"><g><g><g><path stroke="rgb(255, 112, 67)" stroke-width="2px" d="M33.28961538461539,205.7341045032848L33.57807692307692,159.0041538585316L33.69346153846154,159.16273498535156L33.75115384615385,159.0464997725053L33.981923076923074,159.14872256192294L34.44346153846154,158.81088118119672L34.905,157.78945576060903L34.96269230769231,157.68544283780184L35.020384615384614,157.63013388893822L35.25115384615385,157.3156876997514L35.88576923076923,156.51654746315697L36.23192307692308,156.14611330899325L36.520384615384614,155.73111100630325L36.693461538461534,155.4503069790927L37.385769230769235,154.59252444180575L37.73192307692308,154.04492881081322L38.020384615384614,153.64986489035866L38.193461538461534,153.3967153375799L38.42423076923077,153.1479485251687L38.655,152.9060953313654L38.770384615384614,152.82702081853694L39.86653846153846,151.57287805730647L40.155,151.2475058815696L40.21269230769231,151.1727523803711L40.50115384615384,150.81775041060013L40.78961538461539,150.5528106689453L40.905,150.43577298251066L41.36653846153846,149.97200497713956L41.42423076923077,149.90614041415128L41.770384615384614,149.61311409690163L41.82807692307693,149.5565705732866L41.885769230769235,149.52039753306997L42.058846153846154,149.36070528897372L42.57807692307693,148.8716285011985L43.03961538461538,148.52168828790838L43.90615384615385,132.5494391701438L44.136923076923075,132.25431407581675L44.48307692307692,132.54332802512428L44.713846153846156,132.40332724831322L44.82923076923077,132.41838906028053L45.52153846153846,131.87721321799538L45.57923076923077,131.83023764870384L46.502307692307696,131.47233442826703L47.252307692307696,131.0543074174361L47.31,130.99554165926847L47.425384615384615,130.94955374977806L47.77153846153846,130.90763993696734L48.290769230769236,130.7907257080078L48.40615384615385,130.82097278941762L48.46384615384615,130.75294772061434L48.636923076923075,130.76479963822797L48.98307692307692,130.64368785511363L49.50230769230769,130.49473641135475L49.675384615384615,130.43726695667613L49.73307692307692,130.4020198475231L50.309999999999995,130.14053691517222L51.175384615384615,129.86930084228516L51.29076923076923,129.81639931418678L51.40615384615385,129.75244834206322L52.213846153846156,129.4131254716353L52.502307692307696,129.28349512273616L52.6176923076923,129.25812461159447L52.79076923076923,129.18824768066406L53.252307692307696,129.00324665416372L53.598461538461535,128.80059120871803L53.713846153846156,128.77559107000178L53.83038461538462,117.11836589466441L54.176538461538456,117.24558882279828L54.464999999999996,118.02979070490056L55.04192307692308,117.74225824529475L55.15730769230769,117.72238159179688L55.38807692307692,117.84806130149147L55.73423076923077,118.20540896329013L55.964999999999996,118.25979198109019L56.31115384615385,118.17972980846059L56.42653846153846,118.00386463512075L56.48423076923077,118.06411188299006L56.59961538461539,118.0752847844904L56.714999999999996,118.09263055974787L56.7726923076923,118.0267659967596L57.06115384615384,118.04330929842862L57.11884615384616,118.01621038263494L57.63807692307692,117.9579384543679L57.98423076923077,117.97546941583806L58.09961538461539,117.95225941051137L58.38807692307692,117.96577800403941L58.67653846153846,117.83935754949397L58.79192307692308,117.90528384121981L59.48423076923077,117.71145560524681L59.88807692307693,117.69355427135122L59.94576923076923,117.68108506636187L60.06115384615384,117.66102322665128L60.11884615384615,117.6946653886275L60.17653846153846,117.6678133877841L60.23423076923077,117.65664048628375L60.34961538461538,117.6098501032049L60.52269230769231,117.57886227694425L60.753461538461536,117.53886205499822L61.04192307692308,117.51133103804156L61.215,117.51540513472125L61.44576923076924,117.46657770330256L61.61884615384615,117.43589852072975L61.79192307692308,117.42417006059125L62.02269230769231,117.34108317982066L62.08038461538462,117.32503370805219L62.31115384615385,117.26811981201172L62.59961538461538,117.24626783891156L62.65730769230769,117.25904568758878L63.06115384615385,117.2097861550071L63.23423076923077,117.18756380948153L63.464999999999996,117.15700808438388L63.63807692307692,117.12176097523081L64.04307692307692,108.31362568248402L64.27384615384615,107.95825334028764L64.44692307692307,107.75788185813211L64.50461538461538,107.43868255615234L64.56230769230768,107.37510195645419L64.96615384615384,108.33479863947089L65.31230769230768,108.34183571555398L65.42769230769231,108.46547837690873L65.48538461538462,108.41807070645419L65.71615384615384,108.44356467507102L65.94692307692308,108.5637505271218L66.12,108.56597276167436L66.17769230769231,108.53677506880327L66.23538461538462,108.50572551380505L66.46615384615384,108.65733129327948L66.98538461538462,108.84356689453125L67.21615384615384,108.72480080344461L67.27384615384615,108.73171442205255L67.33153846153846,108.69115864146839L67.44692307692308,108.72868971391158L67.50461538461539,108.71282542835583L67.85076923076923,108.79251722856002L68.08153846153846,108.76177631724964L68.13923076923076,108.73406011408026L68.25461538461539,108.73906014182351L68.37,108.75862815163352L68.54307692307692,108.70017103715377L68.60076923076923,108.65529424493964L68.65846153846154,108.65159052068536L68.71615384615384,108.64776333895597L68.88923076923076,108.6440596147017L69.12,108.59844207763672L69.40846153846154,108.59041734175248L69.46615384615384,108.58541731400923L69.52384615384615,108.60245444557883L69.87,108.55733073841442L70.44692307692307,108.56856536865234L70.62,108.55047884854403L70.85076923076923,108.46547837690873L71.08153846153846,108.47831795432351L71.19692307692307,108.44307084517045L71.48538461538462,108.44251528653231L72.87,108.30053919011895L72.98538461538462,108.2987490567294L73.04307692307692,108.27208224209872L73.27384615384615,108.22874866832386L73.38923076923076,108.21177326549183L73.62,108.20399544455789L73.73538461538462,108.1973287409002L74.14038461538462,83.30157331986861L74.48653846153846,97.74066578258167L74.7173076923077,97.92159271240234L75.12115384615385,98.43437333540483L75.17884615384615,98.54252208362927L75.23653846153846,98.65591777454723L75.29423076923077,98.6251151344993L75.58269230769231,99.25160009210761L75.69807692307691,99.16721690784802L75.87115384615385,99.43320603804155L75.92884615384615,99.50400890003552L76.04423076923077,99.69635564630683L76.50576923076923,100.06660461425781L76.56346153846152,100.07709849964489L76.73653846153846,100.08672818270597L77.14038461538462,100.15549399636008L77.31346153846152,100.16753110018644L77.83269230769231,100.36889024214311L77.94807692307693,100.37037173184481L78.06346153846152,100.40216203169389L78.23653846153846,100.52068120783026L78.29423076923077,100.48222420432351L78.81346153846154,100.50148357044567L78.87115384615385,100.54444677179511L79.10192307692307,100.64531152898614L79.15961538461538,100.65432392467152L79.2173076923077,100.64463251287286L79.27499999999999,100.6450028852983L79.50576923076923,100.70562050559305L79.56346153846154,100.71197856556286L79.73653846153846,100.7883370139382L79.79423076923078,100.8237075805664L80.25576923076923,100.90475741299716L80.48653846153846,100.97846152565695L80.60192307692307,100.99654804576527L80.7173076923077,101.01167158647017L80.77499999999999,100.97185655073686L81.23653846153846,101.08247444846414L81.29423076923078,101.09358562122692L81.4673076923077,101.07265957919034L81.92884615384615,101.09932639382102L82.04423076923078,101.09747453169389L82.27499999999999,101.1034004905007L82.33269230769231,101.09753626043145L82.62115384615385,101.13759821111505L83.025,101.14111674915661L83.65961538461539,101.25438898259942L83.775,101.21790729869495L84.12115384615385,101.26056185635653L84.29423076923078,101.2977225563743L84.35307692307693,106.87725968794389L84.58384615384615,92.16816572709517L84.81461538461538,92.84477441961114L84.93,92.8118730024858L85.21846153846154,93.50107435746627L85.27615384615385,93.64558133212003L85.33384615384615,93.81465634432706L85.79538461538462,93.61397621848367L86.14153846153847,93.86064425381747L86.37230769230769,94.15422612970526L86.43,94.15416440096769L86.4876923076923,94.22842407226562L87.00692307692309,94.03576868230645L87.29538461538462,94.25712793523614L87.64153846153846,94.39052373712714L88.10307692307691,94.36249889026989L88.21846153846154,94.33632590553977L89.3723076923077,94.6700931895863L89.42999999999999,94.70706870339133L89.66076923076923,94.86194610595703L89.71846153846153,94.9025018865412L89.77615384615385,94.88287214799361L90.81461538461538,95.10886105624112L91.10307692307693,95.15324401855469L91.50692307692307,95.24188648570667L91.56461538461538,95.25096061012961L91.91076923076923,95.33484996448864L92.02615384615385,95.31731900301847L92.31461538461538,95.33293637362394L92.42999999999999,95.35349204323508L92.5453846153846,95.34114629572089L92.77615384615385,95.3896650834517L93.81461538461538,95.40552936900745L93.92999999999999,95.42151711203836L94.0453846153846,95.42330724542792L94.50692307692307,95.42620849609375L94.62346153846154,85.4789310802113L94.9696153846154,87.47696685791016L95.08500000000001,87.65468389337713L95.20038461538462,87.45523834228516L95.25807692307693,87.6564740267667L95.43115384615385,87.51468311656605L95.7196153846154,87.81406749378552L96.18115384615383,88.09894561767578L96.58500000000001,88.3604902787642L96.93115384615383,88.64184986461292L97.16192307692307,88.68654147061436L97.21961538461538,88.69160322709517L97.27730769230769,88.69956623424183L97.33500000000001,88.72049227627842L97.68115384615383,89.01271611993964L98.25807692307693,89.03339524702592L98.37346153846154,89.0419755415483L98.54653846153847,89.10345736416903L98.60423076923077,89.12413649125533L98.77730769230769,89.25314955277877L99.12346153846154,89.33277962424539L99.23884615384615,89.33203887939453L99.41192307692307,89.43815057927911L99.58500000000001,89.4703729802912L99.75807692307691,89.51679299094461L99.81576923076923,89.5461758700284L100.85423076923077,89.81617736816406L101.48884615384615,89.87426411021839L101.71961538461538,89.86222700639205L102.585,90.152043429288L102.75807692307691,90.1658706665039L102.81576923076923,90.1842041015625L102.93115384615385,90.19624120538886L102.98884615384615,90.21185857599433L104.14269230769231,90.39222994717684L104.20038461538462,90.40766213156961L104.25807692307691,90.40871152010831L104.54653846153846,90.38550151478161L104.71961538461538,90.38395829634233L104.89384615384616,83.04206570712002L105.00923076923078,81.4086615822532L105.24,81.8404541015625L105.47076923076922,82.41243258389561L105.70153846153846,82.92934903231533L106.6246153846154,83.72213120893998L107.14384615384616,84.08262703635476L107.20153846153846,84.05237995494495L107.83615384615385,84.22083767977627L108.2976923076923,84.47583909468217L108.35538461538461,84.46867856112392L108.52846153846154,84.44688831676136L108.64384615384616,84.49478981711648L108.70153846153846,84.57979028875178L109.16307692307693,84.64658078280361L109.22076923076922,84.66213642467152L109.6246153846154,84.76868022571911L109.74000000000001,84.76003820245916L110.49000000000001,84.88812533291905L110.5476923076923,84.90115009654652L110.72076923076922,84.94115031849255L111.12461538461538,85.0568917014382L111.81692307692308,85.13775634765625L112.10538461538462,85.17016393488103L112.16307692307691,85.18010226162998L112.27846153846154,85.23763344504617L112.68230769230769,85.29238683527166L113.08615384615385,85.33627596768467L113.14384615384616,85.37732557816939L113.66307692307691,85.48794347589666L113.89384615384616,85.53985734419389L114.00923076923077,85.5643636530096L114.24000000000001,85.63028994473545L114.75923076923077,85.7392411665483L115.10653846153846,78.00246984308416L115.16423076923077,77.7331473610618L115.45269230769232,78.49636147238992L115.91423076923077,78.1050630049272L116.02961538461538,78.16839668967508L116.43346153846153,78.23864399303089L116.49115384615385,78.13734713467686L116.72192307692308,78.48457128351384L117.01038461538461,78.48043545809658L117.18346153846154,78.6591401533647L117.29884615384614,78.80821505459873L117.47192307692308,79.0555621060458L117.645,79.14315518465908L117.87576923076922,79.32642780650745L118.33730769230769,79.53093511408025L118.79884615384614,79.85513444380327L118.91423076923076,79.94291270862927L119.02961538461538,80.00550564852627L119.20269230769232,79.98741912841797L119.26038461538461,79.97877710515803L119.60653846153846,80.08038260719992L119.66423076923076,80.08316040039062L120.12576923076922,80.1871733231978L120.29884615384616,80.25902557373047L120.35653846153846,80.24180325594814L120.41423076923076,80.2608774358576L120.47192307692308,80.28698869185014L120.58730769230769,80.373779296875L120.76038461538461,80.47649591619319L121.16423076923077,80.63649680397727L121.22192307692308,80.67791678688742L121.62576923076922,80.85643629594283L121.68346153846154,80.87193020907314L121.74115384615384,80.86970797452061L122.26038461538461,80.96007884632458L122.49115384615384,81.01162234219639L122.60653846153846,81.02544957941228L122.66423076923077,81.01551125266336L122.7796153846154,81.05575838955967L123.06807692307693,81.15933921120383L123.12576923076922,81.20100610906428L123.24115384615384,81.21952473033558L123.29884615384616,81.22409265691584L123.35653846153846,81.25045082785867L123.64500000000001,81.3170561356978L124.4526923076923,81.4800200028853L124.97192307692308,81.65069996226917L125.26153846153846,69.14056881991299L125.66538461538462,72.11435075239702L125.72307692307692,72.67626745050603L126.2423076923077,73.15207255970348L126.64615384615385,73.93578061190517L127.16538461538461,74.42133886163884L127.33846153846153,74.38831398703836L127.7423076923077,74.67306865345348L127.85769230769232,74.7446122602983L128.08846153846153,75.03825586492366L128.6653846153846,75.30578821355647L128.72307692307692,75.3044301813299L128.89615384615385,75.47924596613103L129.1846153846154,75.57974035089666L129.4153846153846,75.68356808749111L130.16538461538462,76.08647155761719L130.28076923076924,76.12937303022905L130.33846153846153,76.18554618141867L130.6846153846154,76.39579426158558L130.7423076923077,76.44085624001242L130.8,76.48567130348899L130.91538461538462,76.54974573308772L131.0307692307692,76.58912866765803L131.72307692307692,76.74949992786755L132.76153846153846,77.0601806640625L133.1076923076923,77.13073661110617L133.45384615384614,77.21413213556463L133.51153846153846,77.24018166281961L133.8576923076923,77.4285160411488L134.08846153846153,77.4872817993164L134.20384615384614,77.50567696311258L134.31923076923076,77.54388705166905L134.66538461538462,77.63808510520242L134.83846153846153,77.68475203080611L134.95384615384614,77.69111009077592L135.12692307692308,77.71604850075461L135.3,77.75432031804866L135.41653846153847,62.07188762318005L135.93576923076924,69.92236328125L136.05115384615385,70.33131616765803L136.74346153846153,70.59779912775213L136.80115384615385,70.6511327570135L136.85884615384617,70.71063926003195L137.66653846153847,71.15804914994673L137.8973076923077,71.28767949884588L138.12807692307692,71.36150706898083L138.35884615384617,71.50644614479758L138.41653846153847,71.59126143022017L138.58961538461537,71.6497802734375L138.70499999999998,71.77101551402698L138.82038461538463,71.9086088700728L139.28192307692308,71.91453482887961L139.3973076923077,71.95996717973189L139.5703846153846,71.98323891379617L139.74346153846153,72.12188165838069L139.91653846153847,72.18336348100142L140.03192307692308,72.21243771639736L140.20499999999998,72.36484596946023L140.37807692307692,72.41015486283736L141.30115384615385,72.79836689342152L141.70499999999998,73.00040505149148L141.99346153846153,73.14306016401811L142.05115384615385,73.1699121648615L142.10884615384614,73.19460365988992L142.2242307692308,73.25176447088069L142.28192307692308,73.27639423717152L142.3973076923077,73.33157972856002L142.5126923076923,73.3865800337358L142.74346153846153,73.45935821533203L142.9742307692308,73.53386480158025L143.2626923076923,73.66645812988281L143.37807692307692,73.71102627840908L143.78192307692308,73.80503914572976L143.8973076923077,73.82831087979405L143.955,73.85466905073686L144.12807692307692,73.89337296919389L144.24346153846153,73.90695329145952L144.4742307692308,73.91392863880505L144.7626923076923,73.97380551424892L144.87807692307692,74.02133664217861L144.9357692307692,74.04158366810192L145.5126923076923,74.16633744673295L145.57038461538463,74.16997944224964L145.74461538461537,66.51969008012252L145.9176923076923,67.42685560746627L146.09076923076924,66.99722359397195L146.14846153846153,67.03172995827414L146.32153846153847,66.74432095614345L146.37923076923076,66.90216133811258L146.49461538461537,67.11932303688742L146.78307692307692,67.11531066894531L146.84076923076924,67.01839655095881L147.24461538461537,67.4536458795721L147.3023076923077,67.54376983642578L147.53307692307692,67.38450969349255L147.64846153846153,67.37358370694248L147.76384615384615,67.49630043723367L147.99461538461537,67.66309148615056L148.57153846153847,68.30290985107422L148.68692307692308,68.43920690363103L148.8023076923077,68.50834308971058L148.85999999999999,68.5679730502042L149.09076923076924,68.65661551735617L149.26384615384615,68.67426993630149L149.72538461538463,68.94501217928799L149.95615384615385,69.06414864280008L150.12923076923076,69.15316148237748L150.76384615384615,69.43266920609908L150.99461538461537,69.53304013338955L151.11,69.56304029984908L151.28307692307692,69.68205330588601L151.39846153846156,69.73909065940164L151.45615384615385,69.72859677401455L151.57153846153847,69.79575764049183L151.68692307692308,69.81415280428799L151.7446153846154,69.8655111139471L151.85999999999999,69.91841264204545L151.97538461538463,69.91440027410334L152.03307692307695,69.92705466530539L152.26384615384617,69.96588204123758L152.43692307692308,69.97952409224077L152.61,69.9984130859375L152.89846153846156,70.09372225674717L153.5907692307692,70.43415624445134L153.82153846153847,70.45477364280008L153.99461538461537,70.50372453169389L154.57153846153847,70.63736724853516L154.9176923076923,70.7160713889382L154.97538461538463,70.7546518499201L155.0907692307692,70.77156552401455L155.26384615384617,70.79934345592152L155.43692307692308,70.8709487915039L155.4946153846154,70.88064020330256L155.5523076923077,70.88193650679155L156.0726923076923,61.70453990589489L156.13038461538463,62.781706376509234L156.18807692307692,62.91392933238636L156.30346153846153,63.50769805908203L156.99576923076924,64.15054113214666L157.05346153846153,64.08449138294567L157.11115384615383,64.05084922096945L157.16884615384615,64.00189833207564L157.6303846153846,64.2160970514471L158.1496153846154,64.4996171431108L159.1303846153846,65.28400421142578L159.93807692307692,65.51925243030895L160.11115384615385,65.71653747558594L160.16884615384615,65.79437741366299L160.22653846153847,65.81215529008345L160.34192307692305,65.8401801369407L160.80346153846153,66.0395639592951L160.91884615384615,66.1132680719549L161.1496153846154,66.25808369029652L161.72653846153847,66.32962729714133L162.18807692307692,66.43425750732422L162.24576923076924,66.46450458873402L162.88038461538463,66.70561703768642L163.34192307692308,66.8588894930753L163.68807692307692,67.0414213700728L163.74576923076924,67.06345852938564L163.86115384615385,67.10636000199752L163.97653846153847,67.14691578258167L164.265,67.24778053977273L165.36115384615383,67.64302964643998L165.47653846153847,67.68426444313742L165.7073076923077,67.75025246360086L165.765,67.76772169633345L166.2853846153846,60.435705705122515L166.40076923076924,59.99885142933239L166.57384615384615,60.163667158647016L166.63153846153847,60.1300249966708L166.6892307692308,60.165827664462014L167.26615384615386,60.4849652377042L167.32384615384618,60.552373019131736L167.49692307692308,60.7529296875L167.6123076923077,60.866387107155546L167.84307692307692,60.934782548384234L167.95846153846153,61.06478326970881L168.13153846153847,61.18311725963245L168.24692307692305,61.318735296076L168.3623076923077,61.45268665660511L168.4776923076923,61.53811922940342L168.99692307692308,61.75713279030539L169.2276923076923,61.879787791859016L169.45846153846153,62.00843048095703L169.57384615384615,62.1073199185458L169.74692307692305,62.17577708851208L169.92000000000002,62.237197182395235L170.26615384615386,62.433309381658376L170.32384615384618,62.456642844460234L170.5546153846154,62.54219887473367L170.7276923076923,62.58689048073508L170.90076923076924,62.69028611616655L171.01615384615383,62.72145912863992L171.5353846153846,62.99639892578125L171.70846153846153,63.10973288796164L171.76615384615386,63.09380687366833L171.82384615384615,63.137202176180764L171.88153846153844,63.12078233198686L172.0546153846154,63.14991829612039L172.28538461538463,63.28837585449219L172.63153846153847,63.44948785955256L172.6892307692308,63.43479642001064L172.8623076923077,63.48510534113103L173.32384615384615,63.716835021972656L173.61230769230767,63.84430486505681L173.78538461538463,63.911836103959516L173.95846153846153,63.96912037242542L174.01615384615386,64.00621934370561L174.3623076923077,64.19196111505681L174.47769230769234,64.23146750710227L174.82384615384615,64.32782606645064L174.99692307692308,64.36294971812855L175.17,64.40548081831498L175.2276923076923,64.40634502064098L175.45846153846153,64.44893784956498L176.4980769230769,55.655555725097656L176.72884615384618,55.82222331653942L176.84423076923076,56.03648376464844L177.1326923076923,56.95445182106711L177.42115384615383,57.268527637828484L178.17115384615386,57.98884027654475L178.40192307692308,58.074272849343046L178.575,58.23785400390625L179.44038461538463,58.893104553222656L180.075,59.3107611916282L180.1326923076923,59.306810552423656L180.30576923076924,59.398354270241484L180.65192307692308,59.552182284268454L181.05576923076922,59.78607247092508L181.11346153846154,59.834467801180764L181.17115384615386,59.86415932395242L181.22884615384618,59.88669031316584L181.28653846153844,59.881813742897734L181.34423076923076,59.91020896218039L181.80576923076924,60.02490095658736L183.1326923076923,60.60459553111683L183.19038461538463,60.65120072798295L183.24807692307692,60.672065041281954L183.65192307692305,60.81410286643289L184.28653846153844,61.063733881170094L184.40192307692308,61.098178516734734L185.0942307692308,61.36972323330967L185.15192307692305,61.41034074263139L185.32500000000002,61.49787209250711L185.4403846153846,61.55527981844814L185.49807692307692,61.577440435236156L185.61346153846154,61.61713201349431L186.65307692307692,53.72949565540661L186.94153846153847,53.85320004549892L187.11461538461538,53.67634721235795L187.2876923076923,53.73603890158914L187.80692307692308,53.46270405162464L187.86461538461538,53.409308693625704L188.21076923076924,53.20609768954189L188.32615384615383,53.10745516690342L188.38384615384615,53.131035544655546L188.73,53.25017200816761L188.9030769230769,53.33943176269531L188.96076923076922,53.32801194624467L189.24923076923076,53.446469393643454L189.36461538461538,53.39097525856711L189.48000000000002,53.42653101140803L189.65307692307692,53.44393851540305L189.71076923076924,53.449308915571734L190.1723076923077,53.579247908158735L190.46076923076922,53.62696422230114L190.57615384615386,53.63190252130681L190.63384615384618,53.61832219904119L190.69153846153844,53.63912478360264L191.32615384615383,53.85492845015092L191.90307692307692,53.99974406849255L192.36461538461538,54.18425126509233L193.34538461538463,54.69400717995383L193.63384615384618,54.76981006969105L193.74923076923076,54.8016620982777L193.80692307692308,54.80863744562322L193.98,54.88789714466442L194.55692307692306,55.00962621515447L194.90307692307692,55.10505884343928L195.13384615384618,55.178948142311796L195.4223076923077,55.303331548517406L195.5376923076923,55.328640330921516L195.65307692307692,55.37135661732067L195.76846153846154,55.404258034446016L195.88384615384615,55.41950503262608L196.11461538461538,55.50086350874467L196.1723076923077,55.49685114080256L196.3453846153846,55.532221707430764L196.69153846153844,55.60166653719814L196.75038461538463,47.464275706898064L196.92346153846154,45.76278478449041L196.98115384615386,45.90871152010831L197.38500000000002,46.664271267977625L197.5003846153846,46.76822246204725L197.55807692307692,46.93612462824041L197.61576923076925,46.741864291104406L198.07730769230767,46.868963761763126L198.94269230769228,47.347608392888844L199.05807692307692,47.32501567493787L199.17346153846154,47.479522705078125L199.28884615384615,47.674029957164436L199.40423076923076,47.72791914506391L199.92346153846154,48.107365694913L200.15423076923076,48.248724503950626L200.26961538461538,48.31545326926491L200.90423076923076,48.82502399791369L201.135,49.01607444069603L201.71192307692309,49.33107618852094L202.23115384615383,49.71817710182884L202.51961538461538,49.86848657781428L202.92346153846154,50.06953707608311L203.09653846153844,50.176142605868264L203.15423076923076,50.20669833096592L203.5003846153846,50.32571133700283L203.55807692307692,50.35632879083806L203.67346153846157,50.42737856778233L203.84653846153847,50.482934431596235L204.135,50.6150956587358L204.3080769230769,50.6915775645863L204.36576923076922,50.70238009366123L204.48115384615386,50.74046672474255L205.40423076923076,51.13281458074397L205.8080769230769,51.300408103249296L205.98115384615386,51.39016168767756L206.03884615384618,51.416272943670094L206.4426923076923,51.58812574906783L206.5003846153846,51.61510120738636L206.9042307692308,51.779484835537986L207.02076923076922,42.722088900479406L208.4053846153846,44.095738497647375L208.57846153846154,44.3600609519265L208.69384615384615,44.4678393277255L208.98230769230767,44.60858084938744L209.15538461538463,44.84265622225675L209.21307692307693,44.88136014071378L209.32846153846154,44.92629866166547L209.38615384615383,44.98561997847125L209.79000000000002,45.260621504350155L209.9053846153846,45.25500418923119L210.02076923076925,45.43568420410156L210.54,45.792723222212345L210.82846153846154,45.99321816184303L211.34769230769228,46.381183277476936L211.46307692307693,46.41476371071556L211.57846153846154,46.46056643399325L211.80923076923077,46.585814042524845L211.98230769230767,46.616246310147375L212.7323076923077,47.09402673894709L212.79000000000002,47.12680469859728L212.84769230769228,47.16019994562322L213.19384615384615,47.3334107832475L213.65538461538463,47.52322665127841L214.00153846153847,47.64452362060547L214.05923076923077,47.648597717285156L214.11692307692306,47.69828935102984L214.34769230769228,47.796746687455624L214.63615384615383,47.92156219482422L215.04,48.08625446666369L215.50153846153847,48.263724587180405L215.7323076923077,48.32860149036756L215.96307692307693,48.455330588600845L216.07846153846154,48.52273837002841L216.42461538461538,48.6797145496715L216.5976923076923,48.74385070800781L216.7130769230769,48.808233781294376L216.82846153846154,48.860394564541906L216.94384615384615,48.883604569868595L217.1169230769231,48.955642006614L217.17576923076925,42.89443553577772L217.34884615384615,40.32293978604403L218.04115384615386,41.18387048894709L218.3296153846154,41.46090906316584L218.3873076923077,41.50967476584694L218.61807692307693,41.659552140669376L219.65653846153845,42.43060580166903L219.88730769230767,42.43912436745384L220.0603846153846,42.57893995805219L220.34884615384615,42.861534118652344L220.69500000000002,43.19381991299716L220.7526923076923,43.24882021817294L220.98346153846154,43.309376109730096L221.09884615384615,43.31270946155897L221.445,43.61690868030897L221.5026923076923,43.64585945822975L221.84884615384615,43.854379133744686L222.2526923076923,44.06221979314631L222.59884615384615,44.183763677423656L222.7719230769231,44.24191214821556L223.11807692307693,44.354999195445686L223.75269230769229,44.55623487992719L223.86807692307693,44.563889243386L223.92576923076922,44.59716103293678L224.2719230769231,44.80487823486328L224.445,44.90845905650744L224.56038461538463,44.939446882768124L224.61807692307693,44.97265694358131L224.73346153846154,45.02870663729581L225.02192307692306,45.14623815363103L225.59884615384615,45.46154854514381L225.945,45.570870139382095L226.06038461538463,45.59833942760119L226.11807692307693,45.624327226118595L226.34884615384615,45.70871041037819L226.40653846153847,45.736920443448156L226.6373076923077,45.87043970281428L226.75269230769229,45.90537816827947L227.09884615384615,46.11636699329725L227.15653846153845,46.12291023947975L227.32961538461538,46.21118233420631L227.50384615384615,36.636129205877126L228.19615384615383,36.997427506880314L228.48461538461538,37.49076357754794L228.65769230769232,37.61341857910156L229.1769230769231,38.080396478826344L229.23461538461538,38.232310901988654L229.58076923076925,38.61502907492897L229.6384615384615,38.68323932994494L230.44615384615386,39.59614562988281L230.6769230769231,39.821270335804314L230.7923076923077,39.914110357111156L230.90769230769232,40.02114798805931L231.08076923076925,40.21997625177556L231.25384615384615,40.338433699174374L231.77307692307693,40.666521939364344L232.11923076923077,40.92004186456853L232.23461538461538,41.00189417058772L232.8692307692308,41.350970181551844L232.92692307692306,41.38732840798119L233.27307692307693,41.56146517666903L233.6769230769231,41.77942934903231L235.06153846153845,42.48103818026456L235.11923076923077,42.520421114834875L235.2346153846154,42.58424862948331L235.40769230769232,42.71282958984375L235.52307692307693,42.76517555930397L236.7346153846154,43.283203125L236.90769230769232,43.383018493652344L237.13846153846154,43.46857452392578L237.19615384615383,43.503204345703125L237.25384615384615,43.53345142711291L237.36923076923077,43.59530362215909L237.54346153846154,29.98726515336469L237.71653846153845,37.20613236860797L237.8319230769231,37.105267611416906L237.94730769230767,37.30242919921875L238.35115384615386,36.30507798628375L238.58192307692306,36.24421345103869L238.755,36.404955083673656L239.04346153846154,36.806438792835564L239.505,37.01662514426491L239.73576923076922,37.03131658380681L239.85115384615386,37.22533000599256L239.96653846153845,37.26773764870384L240.02423076923077,37.40057789195666L240.3703846153846,37.62922113591975L240.71653846153848,37.99342068758878L240.8319230769231,38.07335940274325L241.005,38.15823641690341L241.52423076923077,38.41478105024859L241.63961538461538,38.49657162753019L241.6973076923077,38.533670598810374L241.92807692307693,38.661202170632095L242.21653846153848,38.821388244628906L242.33192307692306,38.897191134366125L242.90884615384616,39.2951563054865L243.02423076923077,39.327810807661564L243.13961538461538,39.36923079057172L243.88961538461538,39.792010914195686L244.1203846153846,39.878863247958094L244.23576923076922,39.96849337491122L244.81269230769232,40.29793964732775L245.10115384615384,40.458619551225155L245.505,40.60825001109728L245.67807692307693,40.63602794300428L245.79346153846154,40.67226271195844L246.9473076923077,41.15621601451525L247.005,41.1842408613725L247.06269230769232,41.20559900457209L247.17807692307693,41.253191861239344L247.35115384615386,41.32004408402875L247.46653846153845,41.34158741344103L247.75615384615384,42.71733578768644L247.98692307692306,33.58172954212537L248.39076923076925,34.30395577170631L248.44846153846154,33.9721020785245L248.50615384615384,33.86963237415662L248.79461538461538,33.59333454478869L248.85230769230768,33.62290261008522L249.0830769230769,33.72506367076525L249.7176923076923,34.12722639604047L250.06384615384616,34.50253712047228L250.41,34.820933948863654L250.5830769230769,34.95908286354759L250.69846153846154,35.00970042835584L251.04461538461538,35.19692368940875L251.2176923076923,35.39710998535156L251.44846153846154,35.59390120072797L251.67923076923077,35.74495142156428L251.79461538461538,35.83772971413353L251.96769230769232,35.93402654474431L252.0830769230769,36.05736056241122L252.31384615384616,36.24427517977628L252.42923076923077,36.301744634454906L252.6023076923077,36.42248604514381L252.89076923076925,36.52384463223544L253.12153846153848,36.64180824973366L253.17923076923077,36.700018449263126L253.29461538461538,36.7311914617365L253.81384615384616,37.02866224809125L253.87153846153845,37.0566870949485L254.50615384615384,37.39687416770241L254.62153846153848,37.502245122736156L254.67923076923077,37.53033169833097L255.0830769230769,37.66008550470525L255.19846153846154,37.716258655894904L255.25615384615386,37.74354275790128L255.31384615384616,37.78008617054334L255.37153846153845,37.81045670942828L255.6023076923077,37.94817352294922L255.7176923076923,38.02280356667259L256.98692307692306,38.63305386629972L257.15999999999997,38.72126423228869L257.6792307692308,38.941944469105096L257.8523076923077,39.02861161665484L257.96769230769235,39.07805633544922L258.1996153846154,32.464007290926844L258.2573076923077,31.820608659224064L258.3726923076923,31.8861645785245L258.83423076923077,31.82554695822975L259.1226923076923,32.01820234818891L259.52653846153845,32.16116610440341L261.1419230769231,33.14512218128553L261.5457692307692,33.52314897017047L262.1226923076923,33.87043484774503L262.1803846153846,33.939385847611874L262.46884615384613,34.14315241033381L262.9880769230769,34.354820251464844L263.0457692307692,34.38519079034978L263.6226923076923,34.708587646484375L263.6803846153846,34.72247661243787L263.7380769230769,34.77426702325994L263.85346153846154,34.82216852361506L263.96884615384613,34.896428194913L264.08423076923077,34.960626081986874L264.1419230769231,34.99007068980822L264.19961538461536,35.014947371049374L264.315,35.07531807639381L265.35346153846154,35.655197837136L265.6419230769231,35.87729783491656L265.93038461538464,36.05550870028409L266.10346153846154,36.158101862127126L266.27653846153845,36.21254660866478L266.565,36.38131297718397L267.19961538461536,36.66341330788353L267.7188461538462,36.91847645152697L267.8919230769231,36.99088426069781L267.9496153846154,37.00168678977272L268.4123076923077,26.752864490855842L268.7584615384616,27.36688024347478L269.62384615384616,27.517498363148064L269.6815384615385,27.5834863836115L269.79692307692306,27.736820567737908L270.02769230769235,27.96021686900744L270.2584615384616,27.949537797407658L270.4315384615385,27.999476346102625L270.7776923076923,28.406268726695686L270.89307692307693,28.477935791015625L271.4123076923077,28.677196155894904L271.64307692307693,28.747381730513126L271.98923076923074,28.907320889559657L272.2776923076923,29.11293931440875L272.62384615384616,29.32331085205078L272.8546153846154,29.321829362349064L273.14307692307693,29.43627444180575L273.54692307692306,29.63967063210228L273.7776923076923,29.711522882634938L274.29692307692306,29.892264626242905L274.47,29.949116793545812L275.1623076923077,30.166401949795812L275.56615384615384,30.252019708806813L275.73923076923074,30.305908896706313L275.8546153846154,30.332513982599437L275.9123076923077,30.33868685635653L276.14307692307693,30.427452780983657L276.20076923076925,30.460971485484748L276.2584615384616,30.477576515891343L276.9507692307692,30.72739271684125L277.29692307692306,30.830356251109748L277.3546153846154,30.852887240323156L277.47,30.88294913552025L277.7584615384616,30.971653331409783L277.81615384615384,30.992332458496094L277.9892307692308,31.040542602539062L278.3353846153846,31.14498762650922L278.5096153846154,22.030554337935L278.91346153846155,23.02611541748047L279.4903846153846,23.411858298561782L279.83653846153845,23.60327911376953L280.0673076923077,23.576365384188563L280.125,23.672044927423656" style="fill: none;" fill="none"></path></g></g></g></g></g></g><g transform="translate(30, 178)" clip-path="url(#clip_1)"><clipPath id="clip_1"><rect width="300" height="22"></rect></clipPath><g><g><line x1="0" y1="0" x2="0" y2="5" style="visibility: inherit;" fill="rgb(0, 0, 0)" stroke="rgb(204, 204, 204)" stroke-width="1px"></line><line x1="23.076923076923077" y1="0" x2="23.076923076923077" y2="5" style="visibility: inherit;" fill="rgb(0, 0, 0)" stroke="rgb(204, 204, 204)" stroke-width="1px"></line><line x1="46.15384615384615" y1="0" x2="46.15384615384615" y2="5" style="visibility: inherit;" fill="rgb(0, 0, 0)" stroke="rgb(204, 204, 204)" stroke-width="1px"></line><line x1="69.23076923076924" y1="0" x2="69.23076923076924" y2="5" style="visibility: inherit;" fill="rgb(0, 0, 0)" stroke="rgb(204, 204, 204)" stroke-width="1px"></line><line x1="92.3076923076923" y1="0" x2="92.3076923076923" y2="5" style="visibility: inherit;" fill="rgb(0, 0, 0)" stroke="rgb(204, 204, 204)" stroke-width="1px"></line><line x1="115.38461538461539" y1="0" x2="115.38461538461539" y2="5" style="visibility: inherit;" fill="rgb(0, 0, 0)" stroke="rgb(204, 204, 204)" stroke-width="1px"></line><line x1="138.46153846153848" y1="0" x2="138.46153846153848" y2="5" style="visibility: inherit;" fill="rgb(0, 0, 0)" stroke="rgb(204, 204, 204)" stroke-width="1px"></line><line x1="161.53846153846152" y1="0" x2="161.53846153846152" y2="5" style="visibility: inherit;" fill="rgb(0, 0, 0)" stroke="rgb(204, 204, 204)" stroke-width="1px"></line><line x1="184.6153846153846" y1="0" x2="184.6153846153846" y2="5" style="visibility: inherit;" fill="rgb(0, 0, 0)" stroke="rgb(204, 204, 204)" stroke-width="1px"></line><line x1="207.69230769230768" y1="0" x2="207.69230769230768" y2="5" style="visibility: inherit;" fill="rgb(0, 0, 0)" stroke="rgb(204, 204, 204)" stroke-width="1px"></line><line x1="230.76923076923077" y1="0" x2="230.76923076923077" y2="5" style="visibility: inherit;" fill="rgb(0, 0, 0)" stroke="rgb(204, 204, 204)" stroke-width="1px"></line><line x1="253.84615384615384" y1="0" x2="253.84615384615384" y2="5" style="visibility: inherit;" fill="rgb(0, 0, 0)" stroke="rgb(204, 204, 204)" stroke-width="1px"></line><line x1="276.92307692307696" y1="0" x2="276.92307692307696" y2="5" style="visibility: inherit;" fill="rgb(0, 0, 0)" stroke="rgb(204, 204, 204)" stroke-width="1px"></line><line x1="300" y1="0" x2="300" y2="5" style="visibility: inherit;" fill="rgb(0, 0, 0)" stroke="rgb(204, 204, 204)" stroke-width="1px"></line></g><g transform="translate(0, 8)"><text x="0" y="0" dx="0em" dy="0.95em" style="text-anchor: middle; visibility: hidden; font-family: &quot;Helvetica Neue&quot;, sans-serif; font-size: 12px; font-weight: 200;" fill="rgb(50, 49, 63)" stroke="none" stroke-width="1px">-20k</text><text x="23.076923076923077" y="0" dx="0em" dy="0.95em" style="text-anchor: middle; visibility: inherit; font-family: &quot;Helvetica Neue&quot;, sans-serif; font-size: 12px; font-weight: 200;" fill="rgb(50, 49, 63)" stroke="none" stroke-width="1px">0</text><text x="46.15384615384615" y="0" dx="0em" dy="0.95em" style="text-anchor: middle; visibility: hidden; font-family: &quot;Helvetica Neue&quot;, sans-serif; font-size: 12px; font-weight: 200;" fill="rgb(50, 49, 63)" stroke="none" stroke-width="1px">20k</text><text x="69.23076923076924" y="0" dx="0em" dy="0.95em" style="text-anchor: middle; visibility: inherit; font-family: &quot;Helvetica Neue&quot;, sans-serif; font-size: 12px; font-weight: 200;" fill="rgb(50, 49, 63)" stroke="none" stroke-width="1px">40k</text><text x="92.3076923076923" y="0" dx="0em" dy="0.95em" style="text-anchor: middle; visibility: hidden; font-family: &quot;Helvetica Neue&quot;, sans-serif; font-size: 12px; font-weight: 200;" fill="rgb(50, 49, 63)" stroke="none" stroke-width="1px">60k</text><text x="115.38461538461539" y="0" dx="0em" dy="0.95em" style="text-anchor: middle; visibility: inherit; font-family: &quot;Helvetica Neue&quot;, sans-serif; font-size: 12px; font-weight: 200;" fill="rgb(50, 49, 63)" stroke="none" stroke-width="1px">80k</text><text x="138.46153846153848" y="0" dx="0em" dy="0.95em" style="text-anchor: middle; visibility: hidden; font-family: &quot;Helvetica Neue&quot;, sans-serif; font-size: 12px; font-weight: 200;" fill="rgb(50, 49, 63)" stroke="none" stroke-width="1px">100k</text><text x="161.53846153846152" y="0" dx="0em" dy="0.95em" style="text-anchor: middle; visibility: inherit; font-family: &quot;Helvetica Neue&quot;, sans-serif; font-size: 12px; font-weight: 200;" fill="rgb(50, 49, 63)" stroke="none" stroke-width="1px">120k</text><text x="184.6153846153846" y="0" dx="0em" dy="0.95em" style="text-anchor: middle; visibility: hidden; font-family: &quot;Helvetica Neue&quot;, sans-serif; font-size: 12px; font-weight: 200;" fill="rgb(50, 49, 63)" stroke="none" stroke-width="1px">140k</text><text x="207.69230769230768" y="0" dx="0em" dy="0.95em" style="text-anchor: middle; visibility: inherit; font-family: &quot;Helvetica Neue&quot;, sans-serif; font-size: 12px; font-weight: 200;" fill="rgb(50, 49, 63)" stroke="none" stroke-width="1px">160k</text><text x="230.76923076923077" y="0" dx="0em" dy="0.95em" style="text-anchor: middle; visibility: hidden; font-family: &quot;Helvetica Neue&quot;, sans-serif; font-size: 12px; font-weight: 200;" fill="rgb(50, 49, 63)" stroke="none" stroke-width="1px">180k</text><text x="253.84615384615384" y="0" dx="0em" dy="0.95em" style="text-anchor: middle; visibility: inherit; font-family: &quot;Helvetica Neue&quot;, sans-serif; font-size: 12px; font-weight: 200;" fill="rgb(50, 49, 63)" stroke="none" stroke-width="1px">200k</text><text x="276.92307692307696" y="0" dx="0em" dy="0.95em" style="text-anchor: middle; visibility: hidden; font-family: &quot;Helvetica Neue&quot;, sans-serif; font-size: 12px; font-weight: 200;" fill="rgb(50, 49, 63)" stroke="none" stroke-width="1px">220k</text><text x="300" y="0" dx="0em" dy="0.95em" style="text-anchor: middle; visibility: hidden; font-family: &quot;Helvetica Neue&quot;, sans-serif; font-size: 12px; font-weight: 200;" fill="rgb(50, 49, 63)" stroke="none" stroke-width="1px">240k</text></g><line x1="0" y1="0" x2="300" y2="0" fill="rgb(0, 0, 0)" stroke="rgb(204, 204, 204)" stroke-width="1px"></line></g></g></g></g></svg>