<svg viewBox="0 0 330 200" xmlns="http://www.w3.org/2000/svg"><g><g><g><g><g><line x1="40" y1="178" x2="35" y2="178" style="visibility: inherit;" fill="rgb(0, 0, 0)" stroke="rgb(204, 204, 204)" stroke-width="1px"></line><line x1="40" y1="158.22222222222226" x2="35" y2="158.22222222222226" style="visibility: inherit;" fill="rgb(0, 0, 0)" stroke="rgb(204, 204, 204)" stroke-width="1px"></line><line x1="40" y1="138.44444444444446" x2="35" y2="138.44444444444446" style="visibility: inherit;" fill="rgb(0, 0, 0)" stroke="rgb(204, 204, 204)" stroke-width="1px"></line><line x1="40" y1="118.6666666666667" x2="35" y2="118.6666666666667" style="visibility: inherit;" fill="rgb(0, 0, 0)" stroke="rgb(204, 204, 204)" stroke-width="1px"></line><line x1="40" y1="98.8888888888889" x2="35" y2="98.8888888888889" style="visibility: inherit;" fill="rgb(0, 0, 0)" stroke="rgb(204, 204, 204)" stroke-width="1px"></line><line x1="40" y1="79.1111111111111" x2="35" y2="79.1111111111111" style="visibility: inherit;" fill="rgb(0, 0, 0)" stroke="rgb(204, 204, 204)" stroke-width="1px"></line><line x1="40" y1="59.33333333333334" x2="35" y2="59.33333333333334" style="visibility: inherit;" fill="rgb(0, 0, 0)" stroke="rgb(204, 204, 204)" stroke-width="1px"></line><line x1="40" y1="39.55555555555554" x2="35" y2="39.55555555555554" style="visibility: inherit;" fill="rgb(0, 0, 0)" stroke="rgb(204, 204, 204)" stroke-width="1px"></line><line x1="40" y1="19.7777777777778" x2="35" y2="19.7777777777778" style="visibility: inherit;" fill="rgb(0, 0, 0)" stroke="rgb(204, 204, 204)" stroke-width="1px"></line><line x1="40" y1="0" x2="35" y2="0" style="visibility: inherit;" fill="rgb(0, 0, 0)" stroke="rgb(204, 204, 204)" stroke-width="1px"></line></g><g transform="translate(30, 0)"><text x="0" y="178" dx="0em" dy="0.3em" style="text-anchor: end; visibility: hidden; font-family: &quot;Helvetica Neue&quot;, sans-serif; font-size: 12px; font-weight: 200;" fill="rgb(50, 49, 63)" stroke="none" stroke-width="1px">2.2</text><text x="0" y="158.22222222222226" dx="0em" dy="0.3em" style="text-anchor: end; visibility: inherit; font-family: &quot;Helvetica Neue&quot;, sans-serif; font-size: 12px; font-weight: 200;" fill="rgb(50, 49, 63)" stroke="none" stroke-width="1px">2.4</text><text x="0" y="138.44444444444446" dx="0em" dy="0.3em" style="text-anchor: end; visibility: hidden; font-family: &quot;Helvetica Neue&quot;, sans-serif; font-size: 12px; font-weight: 200;" fill="rgb(50, 49, 63)" stroke="none" stroke-width="1px">2.6</text><text x="0" y="118.6666666666667" dx="0em" dy="0.3em" style="text-anchor: end; visibility: inherit; font-family: &quot;Helvetica Neue&quot;, sans-serif; font-size: 12px; font-weight: 200;" fill="rgb(50, 49, 63)" stroke="none" stroke-width="1px">2.8</text><text x="0" y="98.8888888888889" dx="0em" dy="0.3em" style="text-anchor: end; visibility: hidden; font-family: &quot;Helvetica Neue&quot;, sans-serif; font-size: 12px; font-weight: 200;" fill="rgb(50, 49, 63)" stroke="none" stroke-width="1px">3</text><text x="0" y="79.1111111111111" dx="0em" dy="0.3em" style="text-anchor: end; visibility: inherit; font-family: &quot;Helvetica Neue&quot;, sans-serif; font-size: 12px; font-weight: 200;" fill="rgb(50, 49, 63)" stroke="none" stroke-width="1px">3.2</text><text x="0" y="59.33333333333334" dx="0em" dy="0.3em" style="text-anchor: end; visibility: hidden; font-family: &quot;Helvetica Neue&quot;, sans-serif; font-size: 12px; font-weight: 200;" fill="rgb(50, 49, 63)" stroke="none" stroke-width="1px">3.4</text><text x="0" y="39.55555555555554" dx="0em" dy="0.3em" style="text-anchor: end; visibility: inherit; font-family: &quot;Helvetica Neue&quot;, sans-serif; font-size: 12px; font-weight: 200;" fill="rgb(50, 49, 63)" stroke="none" stroke-width="1px">3.6</text><text x="0" y="19.7777777777778" dx="0em" dy="0.3em" style="text-anchor: end; visibility: hidden; font-family: &quot;Helvetica Neue&quot;, sans-serif; font-size: 12px; font-weight: 200;" fill="rgb(50, 49, 63)" stroke="none" stroke-width="1px">3.8</text><text x="0" y="0" dx="0em" dy="0.3em" style="text-anchor: end; visibility: hidden; font-family: &quot;Helvetica Neue&quot;, sans-serif; font-size: 12px; font-weight: 200;" fill="rgb(50, 49, 63)" stroke="none" stroke-width="1px">4</text></g><line x1="40" y1="0" x2="40" y2="178" fill="rgb(0, 0, 0)" stroke="rgb(204, 204, 204)" stroke-width="1px"></line></g></g><g transform="translate(40, 0)" clip-path="url(#clip_0)"><clipPath id="clip_0"><rect width="290" height="178"></rect></clipPath><g><g><g><line x1="0" y1="0" x2="0" y2="178" fill="rgb(0, 0, 0)" stroke="rgb(60, 60, 60)" stroke-width="1px" opacity="0.25"></line><line x1="24.166666666666664" y1="0" x2="24.166666666666664" y2="178" fill="rgb(0, 0, 0)" stroke="rgb(60, 60, 60)" stroke-width="1px" opacity="0.25"></line><line x1="48.33333333333333" y1="0" x2="48.33333333333333" y2="178" fill="rgb(0, 0, 0)" stroke="rgb(60, 60, 60)" stroke-width="1px" opacity="0.25"></line><line x1="72.5" y1="0" x2="72.5" y2="178" fill="rgb(0, 0, 0)" stroke="rgb(60, 60, 60)" stroke-width="1px" opacity="0.25"></line><line x1="96.66666666666666" y1="0" x2="96.66666666666666" y2="178" fill="rgb(0, 0, 0)" stroke="rgb(60, 60, 60)" stroke-width="1px" opacity="0.25"></line><line x1="120.83333333333334" y1="0" x2="120.83333333333334" y2="178" fill="rgb(0, 0, 0)" stroke="rgb(60, 60, 60)" stroke-width="1px" opacity="0.25"></line><line x1="145" y1="0" x2="145" y2="178" fill="rgb(0, 0, 0)" stroke="rgb(60, 60, 60)" stroke-width="1px" opacity="0.25"></line><line x1="169.16666666666669" y1="0" x2="169.16666666666669" y2="178" fill="rgb(0, 0, 0)" stroke="rgb(60, 60, 60)" stroke-width="1px" opacity="0.25"></line><line x1="193.33333333333331" y1="0" x2="193.33333333333331" y2="178" fill="rgb(0, 0, 0)" stroke="rgb(60, 60, 60)" stroke-width="1px" opacity="0.25"></line><line x1="217.5" y1="0" x2="217.5" y2="178" fill="rgb(0, 0, 0)" stroke="rgb(60, 60, 60)" stroke-width="1px" opacity="0.25"></line><line x1="241.66666666666669" y1="0" x2="241.66666666666669" y2="178" fill="rgb(0, 0, 0)" stroke="rgb(60, 60, 60)" stroke-width="1px" opacity="0.25"></line><line x1="265.8333333333333" y1="0" x2="265.8333333333333" y2="178" fill="rgb(0, 0, 0)" stroke="rgb(60, 60, 60)" stroke-width="1px" opacity="0.25"></line><line x1="290" y1="0" x2="290" y2="178" fill="rgb(0, 0, 0)" stroke="rgb(60, 60, 60)" stroke-width="1px" opacity="0.25"></line></g><g><line x1="0" y1="178" x2="290" y2="178" fill="rgb(0, 0, 0)" stroke="rgb(60, 60, 60)" stroke-width="1px" opacity="0.25"></line><line x1="0" y1="158.22222222222226" x2="290" y2="158.22222222222226" fill="rgb(0, 0, 0)" stroke="rgb(60, 60, 60)" stroke-width="1px" opacity="0.25"></line><line x1="0" y1="138.44444444444446" x2="290" y2="138.44444444444446" fill="rgb(0, 0, 0)" stroke="rgb(60, 60, 60)" stroke-width="1px" opacity="0.25"></line><line x1="0" y1="118.6666666666667" x2="290" y2="118.6666666666667" fill="rgb(0, 0, 0)" stroke="rgb(60, 60, 60)" stroke-width="1px" opacity="0.25"></line><line x1="0" y1="98.8888888888889" x2="290" y2="98.8888888888889" fill="rgb(0, 0, 0)" stroke="rgb(60, 60, 60)" stroke-width="1px" opacity="0.25"></line><line x1="0" y1="79.1111111111111" x2="290" y2="79.1111111111111" fill="rgb(0, 0, 0)" stroke="rgb(60, 60, 60)" stroke-width="1px" opacity="0.25"></line><line x1="0" y1="59.33333333333334" x2="290" y2="59.33333333333334" fill="rgb(0, 0, 0)" stroke="rgb(60, 60, 60)" stroke-width="1px" opacity="0.25"></line><line x1="0" y1="39.55555555555554" x2="290" y2="39.55555555555554" fill="rgb(0, 0, 0)" stroke="rgb(60, 60, 60)" stroke-width="1px" opacity="0.25"></line><line x1="0" y1="19.7777777777778" x2="290" y2="19.7777777777778" fill="rgb(0, 0, 0)" stroke="rgb(60, 60, 60)" stroke-width="1px" opacity="0.25"></line><line x1="0" y1="0" x2="290" y2="0" fill="rgb(0, 0, 0)" stroke="rgb(60, 60, 60)" stroke-width="1px" opacity="0.25"></line></g></g></g><g><g><line x1="0" y1="395.5555555555556" x2="290" y2="395.5555555555556" fill="rgb(0, 0, 0)" stroke="rgb(153, 153, 153)" stroke-width="1.5px"></line></g></g><g><g><line x1="24.166666666666664" y1="0" x2="24.166666666666664" y2="178" fill="rgb(0, 0, 0)" stroke="rgb(153, 153, 153)" stroke-width="1.5px"></line></g></g><g><g><g><g><g><path stroke="rgb(255, 112, 67)" stroke-width="2px" d="M34.861625,-0.36802029635865097L35.16370833333333,11.59019221697045L35.28454166666667,18.890992290071495L35.34495833333333,23.34481548775932L35.586625,26.101750644811005L36.06995833333333,27.864761792041435L36.55329166666667,29.18143394200834L36.613708333333335,29.995938396344286L36.674125000000004,30.529578732411267L36.915791666666664,31.01590497383836L37.580375,31.58185347441676L37.942875,32.13236081649572L38.24495833333333,32.601486293781676L38.426208333333335,32.94927882054452L39.15120833333334,33.48650382763648L39.513708333333334,33.94670739522374L39.81579166666667,34.332707545994964L39.99704166666667,34.61731804718974L40.238708333333335,34.87278217725893L40.480375,35.121783065714254L40.60120833333334,35.30381409534223L41.749125,35.92293609107594L42.05120833333333,36.39363994884866L42.111625,36.70794772849834L42.41370833333333,37.01365324504991L42.655375,37.30821828963386L42.71579166666666,37.506563231877664L42.836625,37.6620295901954L43.31995833333333,37.9332116268657L43.380375,38.11465037665923L43.742875000000005,38.366870903451826L43.80329166666667,38.54405298572894L43.863708333333335,38.6699499638074L44.044958333333334,38.80488319900792L44.58870833333333,39.06950756799142L45.07204166666667,39.41311603388431L45.9795,45.69653191196332L46.22116666666666,49.321479467714255L46.583666666666666,51.62759241882162L46.82533333333333,53.1897471194855L46.94616666666666,54.15315376790714L47.671166666666664,54.75926375630907L47.73158333333333,55.17648714528531L48.698249999999994,55.599253548327056L49.483666666666664,55.96424374039219L49.54408333333333,56.1946679602048L49.66491666666667,56.3370531734482L50.02741666666667,56.44892820669479L50.57116666666667,56.598195314791084L50.692,56.710964727631975L50.75241666666666,56.78561458283569L50.93366666666667,56.847719406846565L51.296166666666664,56.96507791028226L51.83991666666667,57.10509216395502L52.021166666666666,57.22380598417085L52.081583333333334,57.30876549103556L52.62533333333333,57.43358419747372L52.68575,57.522338666982805L53.592,57.698097172459356L53.712833333333336,57.81378467134131L53.83366666666667,57.8980978020452L54.6795,58.05342391594121L54.98158333333333,58.18935987629813L55.10241666666667,58.30387259556511L55.28366666666666,58.42245961911344L55.767,58.577404307777215L56.1295,58.72489988718371L56.25033333333334,58.83669125982489L56.372375,63.413715661588824L56.734874999999995,65.56900709928487L57.03695833333333,66.99916403197757L57.641125,67.86413322974023L57.76195833333333,68.37165635148618L58.003625,68.7022274678809L58.366125000000004,68.93515280559834L58.607791666666664,69.06372310391835L58.66820833333333,69.19724248187141L58.97029166666667,69.3000822868795L59.091125000000005,69.31209539348322L59.15154166666667,69.3399849565625L59.272375,69.36221683877176L59.393208333333334,69.36080622919216L59.453624999999995,69.35144386969031L59.75570833333334,69.36513125932096L59.816125,69.38351007323988L60.359875,69.349194174471L60.722375,69.31364741915876L60.84320833333334,69.2950259996452L61.14529166666667,69.31726639917815L61.447375,69.34123912722663L61.56820833333333,69.3708157495904L62.29320833333333,69.44513696833606L62.716125,69.50572430136293L62.77654166666667,69.54705615267648L62.897375000000004,69.5773817001644L62.957791666666665,69.60305563668257L63.018208333333334,69.61598913440348L63.078625,69.62434337213512L63.19945833333333,69.64234209794063L63.38070833333333,69.65800761556915L63.622375000000005,69.68220381894814L63.924458333333334,69.73630252191221L64.10570833333333,69.76461220077618L64.347375,69.79349022085634L64.528625,69.82362403126324L64.709875,69.84652344575582L64.77029166666667,69.87585217271882L64.95154166666667,69.91109439706256L65.01195833333334,69.93854892305468L65.19320833333333,69.9498252792275L65.253625,69.96161769832531L65.55570833333333,70.00178575452713L65.616125,70.02848948334915L66.03904166666668,70.08167842206514L66.22029166666667,70.11844863666056L66.46195833333333,70.14980951385807L66.64320833333333,70.18229123945632L66.884875,70.23227941523683L67.06733333333334,73.88842584277273L67.309,75.83834691462631L67.49025,76.93727635844513L67.55066666666666,77.704512709734L67.61108333333333,78.22821049618815L68.034,78.40152389377545L68.3965,78.50729434962517L68.51733333333334,78.48926525876196L68.57775,78.52795939583741L68.81941666666667,78.56548237035834L69.06108333333333,78.53724913138248L69.24233333333333,78.52702390289497L69.30275,78.53398811832119L69.36316666666667,78.54320268375041L69.48400000000001,78.51526158709079L69.60483333333333,78.50882363248452L70.14858333333333,78.50240511851659L70.209,78.48336102460117L70.39025,78.47802685171273L70.45066666666666,78.4628964121005L70.51108333333333,78.48014888428149L70.63191666666667,78.46446198580166L70.69233333333334,78.45156988913315L71.05483333333333,78.42920749235849L71.29650000000001,78.40374694906228L71.35691666666666,78.39101693350939L71.47775,78.39213068741549L71.59858333333334,78.42964499468401L71.77983333333333,78.46576219364879L71.84025,78.48336784712731L71.90066666666667,78.49802419745282L71.96108333333333,78.50240440291181L72.14233333333333,78.50441009475003L72.384,78.49618273050183L72.68608333333333,78.50742952931942L72.74650000000001,78.51578084109964L72.80691666666667,78.52850600567704L73.16941666666668,78.50594374894118L73.53191666666666,78.50836327356174L73.77358333333333,78.50981498833411L73.95483333333334,78.51218551111437L74.1965,78.47976075769128L74.43816666666666,78.45865551925102L74.559,78.44676570009362L74.86108333333333,78.44052773263756L75.04233333333333,78.43677552138456L76.31108333333333,78.42995969742685L76.43191666666667,78.42329560028934L76.49233333333333,78.41669424690592L76.734,78.40563205802448L76.85483333333333,78.4063035986927L77.09649999999999,78.42827471546968L77.21733333333333,78.4398164299288L77.64145833333333,73.66525145056798L78.00395833333333,78.86470587064598L78.245625,81.85460156804189L78.66854166666667,83.62298157443787L78.72895833333334,84.68919650691858L78.789375,85.32131482747067L78.84979166666666,85.6996427418668L79.151875,85.81872308238951L79.27270833333334,85.79785338763489L79.45395833333333,85.75354984436886L79.51437499999999,85.7440940137109L79.63520833333332,85.69170043441066L80.11854166666667,85.58761899348873L80.17895833333333,85.54570093558299L80.36020833333333,85.52911324849036L80.783125,85.44808085226536L80.96437499999999,85.39836744412561L81.50812499999999,85.3250917987711L81.62895833333333,85.29074580649656L81.689375,85.26200887933118L81.74979166666667,85.26917357999267L81.93104166666667,85.27970614554063L81.99145833333333,85.27965047802803L82.233125,85.27357194795643L82.53520833333333,85.26604877960014L82.59562500000001,85.26569385228021L82.83729166666666,85.22553211455687L82.89770833333334,85.21377053131415L82.958125,85.20921273789659L83.01854166666666,85.19992367019698L83.26020833333334,85.18417441865735L83.320625,85.17927050338083L83.501875,85.19308664912187L83.56229166666667,85.1993298574473L84.04562499999999,85.1649377107466L84.28729166666666,85.12275309190882L84.408125,85.09156694507043L84.52895833333334,85.0573227633761L84.58937499999999,85.03780420930877L85.01229166666667,85.01916145404526L85.07270833333334,85.00405259667713L85.133125,84.99697717669932L85.314375,84.96807043670943L85.79770833333333,84.96095878831147L85.91854166666666,84.95460759703606L86.16020833333333,84.94776960209917L86.220625,84.94251625005616L86.52270833333333,84.9351581112398L86.94562499999999,84.93530772515585L87.61020833333333,84.93091787331376L87.73104166666667,84.93472518450528L88.09354166666667,84.93106818022902L88.15395833333334,84.9294398244243L88.27479166666666,84.92917955017217L88.33641666666666,90.84253699306988L88.57808333333334,91.08199829294887L88.81975,91.03375871308081L88.94058333333332,91.23810415396885L89.24266666666668,91.29054642012925L89.30308333333333,91.42058228560346L89.36349999999999,91.5137684980846L89.84683333333334,91.48078569940958L90.20933333333333,91.41719005011856L90.45100000000001,91.3422620518539L90.51141666666666,91.31199840712418L90.57183333333334,91.28842695293882L91.11558333333333,91.30769733166862L91.23641666666667,91.30376478843259L91.41766666666666,91.26144705038026L91.78016666666667,91.20069098498212L92.2635,91.11980894422007L92.38433333333333,91.0546343942081L93.59266666666666,90.94906153133418L93.65308333333334,90.88131363965282L93.89474999999999,90.8242081946763L93.95516666666667,90.78565392308562L94.01558333333332,90.76455840847105L95.10308333333334,90.69761753375722L95.40516666666667,90.63402695302072L95.82808333333334,90.59766445265555L95.8885,90.57147107081752L96.25099999999999,90.54681466288983L96.37183333333333,90.53256780333555L96.67391666666666,90.50955287207837L96.79475,90.49729056113765L96.91558333333333,90.50003353925828L97.15725,90.48642975591986L97.76141666666668,90.4449108193519L98.24475,90.39994962051063L98.30516666666668,90.36821035763353L98.36558333333333,90.3456491192093L98.48641666666667,90.3300753278149L98.96975,90.30694325356691L99.09179166666667,93.33282110181192L99.45429166666666,94.83090777779994L99.575125,95.69063147986488L99.69595833333334,96.25156368796101L99.756375,96.50439655373938L99.937625,96.73478669611215L100.05845833333333,96.8456243675208L100.23970833333333,96.80820921269593L100.72304166666667,96.87171224280715L101.14595833333333,96.79176899573582L101.50845833333334,96.74833925236095L101.75012500000001,96.69837438068092L101.81054166666667,96.64959991442606L101.87095833333332,96.60468957172964L101.931375,96.58744763806412L102.293875,96.58191217533384L102.89804166666666,96.44804061913803L103.018875,96.34129264167865L103.20012500000001,96.2748767295859L103.26054166666667,96.22899148354554L103.44179166666666,96.17085745692691L103.80429166666667,96.11605923496617L103.925125,96.06628034519251L104.106375,96.00221700540112L104.287625,95.94293697916025L104.468875,95.87338043463431L104.52929166666667,95.82131980452925L104.89179166666666,95.75963143994139L105.61679166666667,95.66760868523356L106.28137500000001,95.5686833701164L106.52304166666666,95.4806869041567L107.06679166666666,95.39836125443253L107.368875,95.33674357455895L107.42929166666666,95.29670796334565L107.61054166666668,95.2644063723474L107.67095833333333,95.2380089179112L107.79179166666667,95.21325835876269L107.85220833333332,95.19357946424579L109.06054166666667,95.12335788023476L109.12095833333333,95.07534012351306L109.18137499999999,95.04901919522871L109.48345833333335,95.00761264154042L109.66470833333334,94.9732907760796L109.84716666666668,97.32033253602131L109.96799999999999,98.64013460479015L110.20966666666666,99.53736708218291L110.27008333333333,100.09749166891963L110.45133333333334,100.61709881791401L110.693,101.0110995032525L110.81383333333333,101.27282155701334L111.65966666666667,101.21366360342459L112.20341666666667,101.0182039519175L112.26383333333334,100.90351219455545L112.92841666666668,100.78934452223862L113.41175,100.64485069883715L113.47216666666667,100.56227565537272L113.65341666666667,100.4910304060071L113.77425,100.42990266743242L113.83466666666666,100.38396499896477L114.318,100.30104372309306L114.37841666666668,100.23163721340227L114.43883333333333,100.19037996954124L114.68050000000001,100.12327199315865L114.80133333333333,100.0731709044659L114.92216666666667,100.02207018251785L115.4055,99.93847478485115L115.70758333333335,99.87103092770055L115.768,99.8224918662856L115.94924999999999,99.79216128967968L116.37216666666666,99.71879288451206L117.09716666666667,99.62779712946347L117.39925,99.5537156862949L117.45966666666668,99.50368379901786L117.58049999999999,99.45510489288867L117.64091666666667,99.41373525917204L118.00341666666667,99.3847545052482L118.42633333333333,99.31992923275773L118.48675,99.27897815936497L119.03049999999999,99.22571908454314L119.27216666666666,99.1981300904896L119.393,99.17924729155777L119.63466666666666,99.1401062438922L120.17841666666666,99.08479273498278L120.542125,101.72606048426498L120.60254166666667,103.11971582106301L120.90462500000001,104.15463440562878L121.38795833333333,104.82938815256645L121.50879166666667,105.21967927741089L121.93170833333333,105.31760748303182L121.992125,105.35797438666967L122.23379166666668,105.28311476098946L122.535875,105.167713340711L122.717125,105.055769919642L122.83795833333333,104.95928357399795L123.01920833333332,104.86114120034088L123.20045833333333,104.790608763648L123.442125,104.68138735291535L123.92545833333332,104.54507650744557L124.40879166666667,104.44324959404253L124.529625,104.36261287118519L124.65045833333333,104.31328775953564L124.83170833333334,104.29185031668466L124.89212500000001,104.26797270069197L125.25462499999999,104.22196814325588L125.31504166666667,104.18030411678171L125.798375,104.12082677158952L125.979625,104.05402822339478L126.04004166666667,104.013977386816L126.10045833333334,103.97327326697591L126.160875,103.95096328964655L126.28170833333333,103.93281475967662L126.46295833333333,103.88036419709421L126.88587500000001,103.81462240738279L126.94629166666667,103.76033328685725L127.36920833333333,103.66880801281802L127.429625,103.60210437420557L127.49004166666667,103.556546323559L128.03379166666667,103.46947693676097L128.27545833333332,103.40570146153573L128.39629166666666,103.35311082256621L128.45670833333332,103.32168847009542L128.57754166666666,103.28800044269366L128.879625,103.23308235824044L128.94004166666667,103.19647236518028L129.06087499999998,103.16663166858599L129.12129166666668,103.1374008846287L129.18170833333332,103.11613725641061L129.48379166666666,103.08186747177983L130.329625,103.00128812121078L130.873375,102.89949628428654L131.17666666666665,105.21213891403171L131.59958333333333,106.88553369089404L131.66,107.84561369445586L132.20374999999999,108.45133092843164L132.62666666666667,108.71527597744202L133.11,108.756559881204L133.17041666666665,108.7701736114888L133.35166666666666,108.70075482793791L133.77458333333334,108.5519699043786L133.89541666666668,108.4350196128474L134.13708333333335,108.31349884436182L134.74125,108.10110515666729L134.80166666666668,107.95682557212947L134.98291666666665,107.83679741626895L135.285,107.75109646191414L135.52666666666667,107.66505549830325L136.31208333333333,107.5031945403014L136.43291666666667,107.40283377740352L136.49333333333334,107.3224826057501L136.85583333333332,107.2473658892693L136.91625,107.18634841149805L136.97666666666666,107.14493765814558L137.0975,107.11840309663023L137.21833333333333,107.08147058332675L137.94333333333333,106.99973684218351L138.72875,106.9078525669054L139.03083333333333,106.80628484421362L139.39333333333335,106.72741629905204L139.75583333333333,106.63709081811393L139.81625,106.57660519972387L140.17875,106.50659879250956L140.42041666666668,106.44548818921558L140.54125,106.39523207419423L140.66208333333333,106.34906494184322L141.02458333333334,106.28039735693129L141.20583333333335,106.21819446036915L141.32666666666668,106.17750593420351L141.50791666666666,106.15106520094368L141.68916666666667,106.1293725393488L141.81120833333333,97.84241357114891L142.35495833333331,104.21814409097223L142.47579166666665,108.03259554492219L143.20079166666667,109.87405886046162L143.26120833333334,110.95278529864461L143.321625,111.58794976398494L144.16745833333334,111.64926957695106L144.409125,111.66716218291108L144.65079166666666,111.63469534627957L144.89245833333334,111.54194751952177L144.952875,111.48319609706056L145.134125,111.41073138826431L145.25495833333332,111.36751662480839L145.3757916666667,111.35196162402103L145.859125,111.2588267182345L145.97995833333334,111.1937790572333L146.16120833333335,111.12696738466417L146.34245833333333,111.05810707332238L146.52370833333333,111.01504619233734L146.64454166666667,110.96355794391125L146.82579166666665,110.92432818590918L147.00704166666668,110.88654985428774L147.06745833333332,110.86093102137798L147.97370833333335,110.68303910107412L148.396625,110.53233765555687L148.69870833333331,110.41233243342204L148.75912499999998,110.3283710719239L148.81954166666668,110.26656415045144L148.940375,110.22464200776085L149.00079166666666,110.19910206019308L149.121625,110.1766389916836L149.24245833333333,110.15198567704681L149.484125,110.1063078858898L149.72579166666665,110.06008680639013L150.027875,109.99049092915065L150.14870833333333,109.9387084843567L150.57162499999998,109.86055113618013L150.69245833333335,109.78793899198368L150.752875,109.74073142463628L150.93412500000002,109.68875448961523L151.05495833333333,109.64807153379599L151.296625,109.58688172083508L151.477875,109.53790781990205L151.59870833333332,109.49668785125657L151.7195416666667,109.46276086020193L151.77995833333333,109.4297391289006L152.384125,109.36313999375881L152.44454166666665,109.31651295167248L152.627,112.7014414658006L152.80825,114.25369221441417L152.9895,114.94090807851967L153.04991666666666,115.49644398142985L153.23116666666667,115.70745774577117L153.29158333333334,115.89005654138361L153.41241666666664,116.00598159481311L153.71450000000002,116.06964238977635L153.77491666666668,116.07476512356985L154.1978333333333,115.92827603411644L154.25825,115.8507752992893L154.49991666666668,115.7132678376546L154.62075,115.60017934323808L154.74158333333335,115.46913059415633L154.98325,115.34719520592682L155.58741666666668,115.105760577027L155.70825,114.92858994963011L155.82908333333336,114.7916752634182L155.8895,114.66982287062282L156.13116666666667,114.57002232938189L156.31241666666665,114.4693727455024L156.79575,114.31695745026643L157.03741666666667,114.17848640728008L157.21866666666668,114.07683457694591L157.88325,113.91191629029596L158.12491666666665,113.76174675565002L158.24575000000002,113.65835706675671L158.427,113.56128790813129L158.54783333333333,113.49224817059898L158.60825,113.4424497960158L158.7290833333333,113.3921154108533L158.84991666666667,113.32781308162212L158.91033333333334,113.28172478371992L159.03116666666668,113.25758005489719L159.152,113.22756072401225L159.21241666666666,113.20973774106834L159.45408333333333,113.19095234261871L159.5145,113.16985423146505L159.63533333333334,113.13860729867179L159.81658333333334,113.12079278615155L160.11866666666668,113.0476911808937L160.84366666666665,112.90933380864067L161.08533333333332,112.81322946354949L161.26658333333333,112.73509263452348L161.87075,112.61642344468707L162.23325,112.52029638096019L162.29366666666667,112.45756524499188L162.4145,112.41794609974716L162.59575,112.38294255439308L162.77700000000002,112.33864640218339L162.83741666666668,112.30242102358136L162.89783333333332,112.2734901117752L163.44279166666666,114.37993364378633L163.50320833333333,115.74808532105777L163.563625,116.8213062597394L163.68445833333334,117.69071932645458L164.40945833333333,118.15019003822165L164.469875,118.43322847317579L164.53029166666667,118.61065274230523L164.59070833333334,118.72948991707094L165.07404166666666,118.62326723142476L165.61779166666668,118.45204159699287L165.919875,118.2302709193638L166.644875,117.99027290572391L167.49070833333334,117.6813014743507L167.67195833333335,117.46938983321205L167.73237500000002,117.33910239900493L167.79279166666666,117.23442001772463L167.91362500000002,117.14224314205705L168.39695833333332,117.01232069043033L168.51779166666668,116.90142550718085L168.638625,116.80622825878308L168.75945833333336,116.70598295577167L169.363625,116.53410933099202L169.84695833333333,116.38065308672726L169.907375,116.291710358913L170.20945833333332,116.21555052853273L170.57195833333336,116.10892236491696L171.05529166666665,115.95645646409585L171.4177916666667,115.83068660988246L171.47820833333333,115.75493234319458L171.59904166666666,115.69598433793035L171.719875,115.64654481197994L172.02195833333334,115.58696666430791L173.169875,115.4295155681784L173.29070833333336,115.32087044913595L173.532375,115.23376624649845L173.59279166666667,115.17019622047394L174.13774999999998,117.93603238309547L174.25858333333335,119.54011882120116L174.43983333333335,120.46944035620405L174.50025,121.06146505261677L174.56066666666666,121.31854318053652L175.16483333333332,121.27296127361734L175.22525000000002,121.26071080720695L175.4065,121.117651612498L175.52733333333333,120.99058472834949L175.769,120.91955981884159L175.88983333333334,120.85598968141865L176.07108333333335,120.75396349964032L176.19191666666666,120.67597043410764L176.31275000000002,120.57774855498633L176.43358333333333,120.49151332129202L176.97733333333332,120.39260885354045L177.219,120.26342182101504L177.46066666666667,120.10957687343176L177.58149999999998,120.00035108672591L177.76275,119.92504532729461L177.94400000000002,119.84280833956527L178.3065,119.74129507555719L178.36691666666667,119.6764450513836L178.6085833333333,119.61589139826859L178.78983333333335,119.53692265295312L178.97108333333335,119.47250941825573L179.09191666666666,119.43489886316593L179.63566666666665,119.3223157412055L179.81691666666669,119.23799794234293L179.87733333333333,119.17451538765238L179.93775,119.12546728923209L179.99816666666666,119.08657935849072L180.17941666666667,119.04662013604982L180.42108333333334,118.99170221553423L180.78358333333333,118.90515634417241L180.84400000000002,118.84248716367442L181.02525,118.77896987371868L181.50858333333332,118.70025999463866L181.81066666666666,118.61897009217432L181.99191666666667,118.54233762849255L182.17316666666667,118.46885799769558L182.23358333333334,118.41051088083852L182.35441666666665,118.36305398198076L182.53566666666666,118.30724944410652L182.59608333333333,118.26418504956126L182.7169166666667,118.22702947761275L183.07941666666667,118.14977355238524L183.26066666666668,118.09145233825217L183.44191666666666,118.03303355386413L183.50233333333335,117.98844776530731L183.74400000000003,117.9356862027228L184.1065,117.87281338551986L184.83270833333333,120.6737448491084L185.074375,122.32421011035208L185.1952083333333,123.30930233845518L185.49729166666668,123.84457461545512L185.799375,124.1044284850934L186.34312500000001,124.13944764637421L186.58479166666666,124.08120287347586L186.82645833333333,123.93667978445609L187.0077083333333,123.77144526216674L187.91395833333334,123.44083550039898L188.518125,123.13801433124524L188.57854166666667,122.94077027460301L188.63895833333333,122.82056597708547L188.82020833333334,122.69114198323754L189.18270833333332,122.51279515579677L189.54520833333333,122.30765036940446L189.605625,122.18090435518079L189.66604166666667,122.08820199031251L189.7264583333333,122.0257998410381L189.786875,121.97037405525083L189.84729166666668,121.94021187940567L189.90770833333332,121.91447564262415L190.39104166666667,121.82279548028069L191.780625,121.59729775376496L191.84104166666665,121.4470041786872L191.90145833333335,121.34967007211301L192.324375,121.24408741907483L192.98895833333333,121.07003933922839L193.10979166666667,120.9449853768796L193.35145833333334,120.85736290903657L193.83479166666666,120.77343208698824L193.89520833333333,120.71893348162408L194.07645833333333,120.6673444673653L194.19729166666667,120.61989662572492L194.2577083333333,120.58141243306977L194.37854166666668,120.53681030977677L195.46725,123.52274922263635L195.76933333333335,125.15274445850858L195.95058333333333,126.11568064540813L196.13183333333333,126.73935139142921L196.67558333333332,126.8726351497379L196.736,126.95286946654494L197.0985,126.8630283239428L197.21933333333334,126.77948269888094L197.27974999999998,126.7043448970046L197.64225000000002,126.5766391579836L197.82350000000002,126.43268938078327L197.88391666666666,126.32837274135791L198.186,126.16368514044734L198.30683333333332,126.04446437338518L198.42766666666668,125.95629601837246L198.60891666666666,125.90015081726807L198.66933333333336,125.84235862458397L199.15266666666665,125.69349543259L199.45475000000002,125.5464328554267L199.57558333333333,125.44357760113446L199.636,125.35391161856238L199.6964166666667,125.28488132036702L200.361,125.13632005724165L200.96516666666665,124.922065149715L201.4485,124.70816365207128L202.47558333333333,124.40570227432522L202.77766666666668,124.17004562030533L202.89849999999998,124.0046408636654L202.95891666666668,123.89167622572558L203.14016666666666,123.78814535844151L203.74433333333334,123.63672678839526L204.10683333333333,123.48709359867193L204.3485,123.35954341353663L204.65058333333334,123.25051483681148L204.77141666666668,123.16907479665883L204.89225,123.1032919544113L205.01308333333333,123.04687513856882L205.13391666666666,122.99430495205135L205.37558333333334,122.94142098646927L205.436,122.90257036870987L205.61725,122.86471773629484L205.67766666666668,122.82987817460028L205.73808333333332,122.79977942771615L205.97975,122.75117388526738L206.04137500000002,125.23227654592279L206.22262500000002,126.95294474513314L206.28304166666666,127.84955187278251L206.403875,128.42165557062322L206.7059583333333,128.96849059240105L206.82679166666668,129.14319997932165L206.88720833333332,129.25599462002575L206.947625,129.3907996918695L207.310125,129.40986397632912L207.43095833333334,129.3732904493283L207.61220833333334,129.30168384906477L208.15595833333333,129.07600796975788L208.3372083333333,128.87683151220136L208.45804166666667,128.7185368421963L208.57887499999998,128.62597431970715L208.69970833333335,128.5444267167633L208.82054166666666,128.4484574275935L209.36429166666665,128.23156169851308L209.60595833333332,128.05734479837756L209.72679166666668,127.95907669578543L209.90804166666666,127.87445468361577L210.39137499999998,127.72512983209467L210.63304166666666,127.57099066730287L210.87470833333333,127.42494977249271L211.2372083333333,127.28034446676712L211.660125,127.1162866157699L211.78095833333333,126.98692837967924L212.08304166666667,126.84395813712149L212.50595833333333,126.66027507114279L212.68720833333333,126.5231780796255L212.747625,126.43062147366368L213.04970833333334,126.34063687311695L213.11012499999998,126.27905433541129L213.17054166666668,126.22591216464195L213.291375,126.1714590071931L213.472625,126.11471033304039L213.77470833333334,126.04838900160921L213.95595833333334,125.99626074335919L214.016375,125.95670356413886L214.13720833333332,125.91864390277235L214.49970833333333,125.83309342326743L215.10387500000002,125.7072033940144L215.5267916666667,125.5764710249205L215.70804166666667,125.4688810644898L215.7684583333333,125.39698051111682L216.191375,125.29389814553731L216.25179166666666,125.22451353348805L216.31220833333333,125.17279183235277L216.372625,125.12514177845489L216.67470833333334,125.06117689277009L216.79675,127.90174140465751L218.24675,129.33793476249937L218.428,130.11377410043315L218.54883333333333,130.5461190829948L218.85091666666665,130.77204680583532L219.03216666666665,130.85663950792613L219.09258333333332,130.8734066003991L219.21341666666666,130.82426985389588L219.27383333333333,130.78456484117734L219.69675,130.7031386332695L219.81758333333332,130.6476436398616L219.93841666666668,130.6054628496681L220.48216666666667,130.47581223281114L220.78425000000001,130.3252256768856L220.84466666666665,130.24411590709437L221.20716666666667,130.10159492911717L221.328,129.97914197961248L221.44883333333334,129.87176655814238L221.56966666666668,129.78078423060754L221.81133333333335,129.64864553548233L221.99258333333333,129.54477627663883L222.23425,129.44612735927214L222.778,129.2686100203335L222.83841666666666,129.15119763604045L222.89883333333333,129.0755255537041L223.26133333333334,128.951177250354L223.74466666666666,128.7855046629294L223.98633333333333,128.65034902595454L224.10716666666667,128.54363221627258L224.1675833333333,128.46729496341018L224.228,128.41347644924426L224.46966666666668,128.34387717763167L224.77175,128.27135441242075L225.19466666666665,128.17229346291603L225.678,128.04888791687455L225.91966666666667,127.9465333896375L226.16133333333335,127.85044369762119L226.28216666666665,127.77090104353744L226.64466666666667,127.67646480096107L226.82591666666664,127.59903647928407L226.94675,127.52906855335549L227.06758333333332,127.48078803719179L227.18841666666668,127.43981434537956L227.36966666666666,127.37859155251309L227.43129166666665,129.92330738546025L227.61254166666666,132.02230226846154L227.85420833333333,133.46582573431368L228.33754166666668,134.4762307378972L228.639625,135.06840301725546L228.70004166666666,135.4218013674415L228.94170833333334,135.5477845159741L229.36462500000002,135.5537186688062L230.02920833333334,135.48329469649585L230.21045833333335,135.3988847294101L230.270875,135.33600702834022L230.45212500000002,135.26858288352162L230.75420833333334,135.15095632920017L231.11670833333332,135.03095368202804L231.177125,134.9321403880295L231.41879166666666,134.85137852704787L231.539625,134.79613124932604L231.902125,134.7355676071192L231.96254166666665,134.69296738430597L232.08337500000002,134.65314791223915L232.32504166666666,134.57920708298258L232.74795833333332,134.5142363325465L233.11045833333336,134.4184145751355L233.29170833333333,134.339758851825L233.65420833333334,134.27990931194952L234.13754166666666,134.17416466692913L234.31879166666667,134.0777950292021L234.439625,133.99913122419989L234.50004166666668,133.93921081985383L234.802125,133.8820393237062L234.86254166666666,133.83822076965237L235.04379166666666,133.78419371514835L235.164625,133.73441541766056L235.22504166666664,133.69815437076778L235.345875,133.65761163016467L235.64795833333332,133.57921932778277L236.25212499999998,133.44237463459285L236.61462500000002,133.31554706299585L236.73545833333333,133.22929357067648L236.795875,133.1667620944865L237.03754166666667,133.09850829886722L237.09795833333334,133.04744622603124L237.33962499999998,132.98688511944852L237.46045833333335,132.94077816809107L237.82295833333333,132.88352964245217L237.88337499999997,132.8466719397614L238.064625,132.80460178903996L238.2470833333333,136.39358328479554L238.97208333333333,138.20920881978822L239.27416666666664,139.13306453239215L239.3345833333333,139.63366024077047L239.45541666666668,139.87323629287943L239.99916666666667,139.85040606846584L240.05958333333334,139.803492728943L240.42208333333335,139.716006261552L240.48250000000002,139.64005060209178L241.32833333333335,139.41330250430116L241.57,139.2138693776078L241.69083333333333,139.0881360796897L241.81166666666667,138.9793205728152L241.99291666666664,138.85220307926448L242.17416666666665,138.73847352755138L242.71791666666667,138.55750969093947L243.08041666666668,138.36173440309182L243.20125,138.20656497453737L243.8658333333333,137.99965267219534L243.92625,137.85881281133857L244.28875,137.7139236146392L244.71166666666667,137.56848154152527L246.16166666666666,137.29051650839767L246.22208333333333,137.11164722939301L246.34291666666667,136.98502085665848L246.52416666666664,136.88117708003512L246.645,136.80371555164385L247.91375000000002,136.57036774176646L248.095,136.40210444090405L248.33666666666664,136.27110942815332L248.3970833333333,136.1843076424674L248.4575,136.1273414273519L248.57833333333332,136.08113745460994L248.76079166666665,143.04001933766125L248.94204166666665,143.42097813413838L249.06287500000002,143.61284881879007L249.18370833333333,143.71953068206182L249.606625,143.66351427122305L249.78787499999999,143.57476265785374L249.84829166666668,143.4534969091518L250.02954166666666,143.3482861481834L250.331625,143.22022877576987L250.81495833333332,143.02503807146505L251.056625,142.87735849300518L251.1774583333333,142.74703840885925L251.29829166666667,142.6475705201555L251.35870833333334,142.5620588822905L251.72120833333335,142.36987491762434L251.96287500000003,142.18174949145458L252.08370833333333,142.02864253104084L252.20454166666664,141.90412899667902L252.38579166666668,141.77302481554213L252.92954166666667,141.5641043824622L253.050375,141.40550862540155L253.11079166666667,141.29742157267475L253.35245833333335,141.17518304868707L253.65454166666666,141.03229736735923L253.775375,140.90680579281815L254.37954166666668,140.7214442222865L254.500375,140.58566953053716L254.62120833333333,140.47878876513627L255.406625,140.27550915656985L255.64829166666667,140.11702541378247L255.769125,140.0068364903688L256.37329166666666,139.8187265746344L256.67537500000003,139.66391251863996L257.0982916666667,139.49977454704555L257.27954166666666,139.38404286865565L257.400375,139.29605351863808L257.762875,139.17826297733953L258.6087083333333,138.96976724312302L258.669125,138.83439968387972L258.72954166666665,138.74553078628003L258.850375,138.67509258319785L259.03162499999996,138.60908295894242L259.15245833333336,138.55233202752882L259.45575,134.27037552555186L259.6974166666667,139.0409414238652L259.75783333333334,141.75229418544166L260.12033333333335,143.38312335439107L260.18075,144.3718721129154L260.2411666666667,144.94816482675668L260.54325,145.16827532020767L260.60366666666664,145.29594687310066L260.8453333333333,145.24148083341444L261.50991666666664,145.0529009961492L261.87241666666665,144.81947293394575L262.1140833333333,144.62501936132642L262.23491666666666,144.41889627560937L262.4161666666667,144.27007996642897L262.537,144.15167736506385L262.8995,144.0179682754565L263.08074999999997,143.90468794006642L263.32241666666664,143.77734355203762L263.5640833333333,143.65526365482282L263.68491666666665,143.54393422947413L263.8661666666667,143.40939528618574L263.987,143.2996156890319L264.2286666666667,143.1951477508554L264.3495,143.10916353217283L264.53075,143.01777511210156L264.8328333333333,142.9144112695179L265.0745,142.77940816256933L265.13491666666664,142.70441370484681L265.25575,142.62897447446787L265.79949999999997,142.47017378363228L265.85991666666666,142.3684615776135L266.5245,142.19183176071604L266.6453333333333,142.05929679592484L266.70575,141.96860034351897L267.1286666666667,141.86237920109969L267.2495,141.7873107188681L267.30991666666665,141.73406485149366L267.37033333333335,141.6970718641161L267.43075,141.6678312795143L267.67241666666666,141.6151101217735L267.79325,141.5682844415944L269.12241666666665,141.33345691933084L269.3036666666667,141.17173724516542L269.8474166666667,140.99477958566536L270.02866666666665,140.86083134477622L270.1495,140.77068268205562L270.15070833333334,143.77790933881374" style="fill: none;" fill="none"></path></g></g></g></g><g opacity="0.2"><g><g><g><path stroke="rgb(255, 112, 67)" stroke-width="2px" d="M34.860416666666666,-23.070185449388305L34.861625,37.7794663111369L35.16370833333333,29.52751080195108L35.28454166666667,29.84219233194986L35.34495833333333,30.02555025948419L35.586625,30.23715337117514L36.06995833333333,30.50927850935193L36.55329166666667,31.156442165374756L36.613708333333335,31.217695077260345L36.674125000000004,31.33003923628064L36.915791666666664,31.74539433585275L37.580375,32.43077622519601L37.942875,32.958121829562714L38.24495833333333,33.305174509684235L38.426208333333335,33.47096761067709L39.15120833333334,34.29234133826364L39.513708333333334,34.637012746599L39.81579166666667,34.911707772148986L39.99704166666667,35.04423379898071L40.238708333333335,35.25597837236194L40.480375,35.49528439839682L40.60120833333334,35.57686063978406L41.749125,36.851619084676116L42.05120833333333,37.09969573550754L42.111625,37.17940939797296L42.41370833333333,37.472211519877135L42.655375,37.750065856509735L42.71579166666666,37.804080645243346L42.836625,37.895229127671996L43.31995833333333,38.339984681871215L43.380375,38.38680850134958L43.742875000000005,38.74520169364084L43.80329166666667,38.80982610914441L43.863708333333335,38.85879543092517L44.044958333333334,39.007283051808685L44.58870833333333,39.466444121466765L45.07204166666667,39.92852873272366L45.9795,55.121655729081894L46.22116666666666,54.75890080134076L46.583666666666666,55.08676184548273L46.82533333333333,55.53297917048138L46.94616666666666,55.59826374053955L47.671166666666664,55.668428738911956L47.73158333333333,55.8023222287496L48.698249999999994,56.23340315288969L49.483666666666664,56.51172902848985L49.54408333333333,56.54030428992378L49.66491666666667,56.55063099331328L50.02741666666667,56.61674075656468L50.57116666666667,56.8220959769355L50.692,56.88011884689331L50.75241666666666,56.897589365641295L50.93366666666667,56.940876642862975L51.296166666666664,57.14111566543579L51.83991666666667,57.31511354446411L52.021166666666666,57.40187671449449L52.081583333333334,57.43620475133261L52.62533333333333,57.62081225713095L52.68575,57.65547037124634L53.592,57.961734930674254L53.712833333333336,57.98731591966417L53.83366666666667,58.024567498101135L54.6795,58.28641308678522L54.98158333333333,58.393263816833496L55.10241666666667,58.47564167446562L55.28366666666666,58.6003401544359L55.767,58.80982134077284L56.1295,58.94614325629341L56.25033333333334,59.00437831878662L56.372375,70.27925226423476L56.734874999999995,68.80194425582886L57.03695833333333,69.14439943101671L57.641125,69.16158702638414L57.76195833333333,69.13294103410509L58.003625,69.19808414247301L58.366125000000004,69.2845408121745L58.607791666666664,69.25657855139839L58.66820833333333,69.39752154880101L58.97029166666667,69.45434199439156L59.091125000000005,69.33011505338881L59.15154166666667,69.38181930118138L59.272375,69.39556466208565L59.393208333333334,69.35869031482274L59.453624999999995,69.33740033043756L59.75570833333334,69.38566234376695L59.816125,69.41107829411825L60.359875,69.29772032631769L60.722375,69.26032728619047L60.84320833333334,69.2670938703749L61.14529166666667,69.35062699847752L61.447375,69.37719821929932L61.56820833333333,69.41518068313599L62.29320833333333,69.55661879645454L62.716125,69.59660530090332L62.77654166666667,69.60905392964682L62.897375000000004,69.62287002139622L62.957791666666665,69.64156654145982L63.018208333333334,69.63538938098485L63.078625,69.63687472873265L63.19945833333333,69.66934018664891L63.38070833333333,69.68150589201186L63.622375000000005,69.71849812401666L63.924458333333334,69.81745057635838L64.10570833333333,69.80707671907213L64.347375,69.83680725097656L64.528625,69.86882474687364L64.709875,69.88087256749472L64.77029166666667,69.91984526316327L64.95154166666667,69.96395773357817L65.01195833333334,69.97973071204292L65.19320833333333,69.96673981348675L65.253625,69.97930632697212L65.55570833333333,70.0620378388299L65.616125,70.06854507658217L66.03904166666668,70.16146183013916L66.22029166666667,70.17360395855376L66.46195833333333,70.19685082965428L66.64320833333333,70.23101382785374L66.884875,70.30726167890761L67.06733333333334,79.37264548407661L67.309,78.76322852240669L67.49025,78.58567052417332L67.55066666666666,78.85536723666722L67.61108333333333,79.01375717586943L68.034,78.6614939901564L68.3965,78.66595003339981L68.51733333333334,78.46222162246704L68.57775,78.58600060145062L68.81941666666667,78.62176683213976L69.06108333333333,78.4948992729187L69.24233333333333,78.51168606016373L69.30275,78.54443444146051L69.36316666666667,78.55702453189427L69.48400000000001,78.47334994210138L69.60483333333333,78.4991667005751L70.14858333333333,78.4927773475647L70.209,78.45479488372803L70.39025,78.47002559238011L70.45066666666666,78.44020075268217L70.51108333333333,78.50602759255304L70.63191666666667,78.44093163808188L70.69233333333334,78.43223174413046L71.05483333333333,78.39566389719647L71.29650000000001,78.36555613411798L71.35691666666666,78.37192191017999L71.47775,78.39380131827461L71.59858333333334,78.48591645558676L71.77983333333333,78.51993799209595L71.84025,78.50977632734512L71.90066666666667,78.5200087229411L71.96108333333333,78.50897471110028L72.14233333333333,78.50741863250732L72.384,78.4838416841295L72.68608333333333,78.52429972754585L72.74650000000001,78.52830780877008L72.80691666666667,78.54759375254315L73.16941666666668,78.47210036383736L73.53191666666666,78.51199256049263L73.77358333333333,78.51199256049263L73.95483333333334,78.51574129528471L74.1965,78.4311236275567L74.43816666666666,78.42699766159058L74.559,78.42893097135757L74.86108333333333,78.43117078145346L75.04233333333333,78.43114720450508L76.31108333333333,78.41973596149022L76.43191666666667,78.41329945458307L76.49233333333333,78.4067922168308L76.734,78.3890387747023L76.85483333333333,78.40731090969511L77.09649999999999,78.46123139063519L77.21733333333333,78.45712900161743L77.64145833333333,66.5034039815267L78.00395833333333,86.66388750076294L78.245625,86.33944511413574L78.66854166666667,86.27555158403185L78.72895833333334,86.28851890563965L78.789375,86.26949230829877L78.84979166666666,86.26713461346098L79.151875,85.99734359317357L79.27270833333334,85.76654884550308L79.45395833333333,85.68709452946982L79.51437499999999,85.72991026772394L79.63520833333332,85.6131100654602L80.11854166666667,85.43149683210586L80.17895833333333,85.48282384872437L80.36020833333333,85.50423171785143L80.783125,85.3265322579278L80.96437499999999,85.32379733191597L81.50812499999999,85.21517833073935L81.62895833333333,85.23922681808472L81.689375,85.21890348858305L81.74979166666667,85.27992063098485L81.93104166666667,85.2955049938626L81.99145833333333,85.27956697675918L82.233125,85.26445415284898L82.53520833333333,85.25476402706572L82.59562500000001,85.26516146130034L82.83729166666666,85.16528950797188L82.89770833333334,85.19612815645006L82.958125,85.2023760477702L83.01854166666666,85.18599006864761L83.26020833333334,85.16055054134794L83.320625,85.17191463046605L83.501875,85.21381086773344L83.56229166666667,85.20869466993545L84.04562499999999,85.11334949069554L84.28729166666666,85.0594761636522L84.408125,85.04478772481283L84.52895833333334,85.00595649083456L84.58937499999999,85.00852637820775L85.01229166666667,84.99119732115005L85.07270833333334,84.98138931062486L85.133125,84.9863640467326L85.314375,84.9247103267246L85.79770833333333,84.95029131571454L85.91854166666666,84.94508081012303L86.16020833333333,84.93751260969375L86.220625,84.93463622199165L86.52270833333333,84.92412090301514L86.94562499999999,84.93553214603001L87.61020833333333,84.92433309555054L87.73104166666667,84.94043615129259L88.09354166666667,84.92558267381456L88.15395833333334,84.92699729071724L88.27479166666666,84.92878913879395L88.33641666666666,99.71257315741646L88.57808333333334,91.44119024276735L88.81975,90.96139934327869L88.94058333333332,91.54462231530084L89.24266666666668,91.36920981936986L89.30308333333333,91.61563608381483L89.36349999999999,91.65354781680638L89.84683333333334,91.43131150139703L90.20933333333333,91.32179657618207L90.45100000000001,91.22987005445692L90.51141666666666,91.26660294002957L90.57183333333334,91.2530697716607L91.11558333333333,91.33660289976332L91.23641666666667,91.29786597357857L91.41766666666666,91.19797044330174L91.78016666666667,91.1095568868849L92.2635,90.998485883077L92.38433333333333,90.95687256919014L93.59266666666666,90.79070223702325L93.65308333333334,90.77969180213081L93.89474999999999,90.73855002721152L93.95516666666667,90.7278225156996L94.01558333333332,90.73291513654921L95.10308333333334,90.59720622168648L95.40516666666667,90.53864108191597L95.82808333333334,90.54312070210776L95.8885,90.53218099806044L96.25099999999999,90.50983005099827L96.37183333333333,90.51119751400418L96.67391666666666,90.47503047519261L96.79475,90.47889709472658L96.91558333333333,90.50414800643922L97.15725,90.46602408091229L97.76141666666668,90.38263241449994L98.24475,90.33250782224867L98.30516666666668,90.32060146331789L98.36558333333333,90.31180726157295L98.48641666666667,90.30671464072334L98.96975,90.27224514219496L99.09179166666667,97.87163787417943L99.45429166666666,97.07803779178197L99.575125,96.98021703296239L99.69595833333334,97.09296200010512L99.756375,96.88364585240683L99.937625,97.08037190967137L100.05845833333333,97.0118808746338L100.23970833333333,96.75208648045859L100.72304166666667,96.96696678797406L101.14595833333333,96.67185412512886L101.50845833333334,96.6831946372986L101.75012500000001,96.62342707316083L101.81054166666667,96.57643821504382L101.87095833333332,96.53732405768501L101.931375,96.5615847375658L102.293875,96.57360898123848L102.89804166666666,96.2472332848443L103.018875,96.18117067548964L103.20012500000001,96.17525286144681L103.26054166666667,96.160163614485L103.44179166666666,96.08365641699898L103.80429166666667,96.03386190202502L103.925125,95.99161201053197L104.106375,95.90612199571399L104.287625,95.85401693979901L104.468875,95.76904561784534L104.52929166666667,95.74322885937161L104.89179166666666,95.66709889305963L105.61679166666667,95.52957455317181L106.28137500000001,95.42029539744061L106.52304166666666,95.34869220521716L107.06679166666666,95.2748727798462L107.368875,95.24431705474855L107.42929166666666,95.23665454652576L107.61054166666668,95.21595398585004L107.67095833333333,95.19841273625693L107.79179166666667,95.17613252003989L107.85220833333332,95.16406112247044L109.06054166666667,95.01802550421822L109.12095833333333,95.00331348843045L109.18137499999999,95.0095378028022L109.48345833333335,94.94550281100804L109.66470833333334,94.92180797788832L109.84716666666668,100.84089517593385L109.96799999999999,100.61983770794339L110.20966666666666,100.88321579827203L110.27008333333333,100.9376785490248L110.45133333333334,101.39650954140558L110.693,101.60210053126019L110.81383333333333,101.66540463765463L111.65966666666667,101.12492667304146L112.20341666666667,100.72501447465686L112.26383333333334,100.73147455851239L112.92841666666668,100.61809301376344L113.41175,100.42810996373495L113.47216666666667,100.43841309017606L113.65341666666667,100.3841625319587L113.77425,100.33821105957033L113.83466666666666,100.3150584962633L114.318,100.17666180928549L114.37841666666668,100.1275274488661L114.43883333333333,100.1284941037496L114.68050000000001,100.02261002858481L114.80133333333333,99.99801927142674L114.92216666666667,99.94541909959582L115.4055,99.8130816883511L115.70758333333335,99.76986514197456L115.768,99.74968327416315L115.94924999999999,99.74666542477078L116.37216666666666,99.60874027676053L117.09716666666667,99.49130349689061L117.39925,99.44259352154202L117.45966666666668,99.42863596810236L117.58049999999999,99.38223653369481L117.64091666666667,99.35168080859715L118.00341666666667,99.34128337436253L118.42633333333333,99.2226913240221L118.48675,99.21755154927573L119.03049999999999,99.1458304723104L119.27216666666666,99.15674659940932L119.393,99.15092309316L119.63466666666666,99.08139467239381L120.17841666666666,99.00182247161867L120.542125,105.68796210818822L120.60254166666667,105.21019882626004L120.90462500000001,105.70701228247749L121.38795833333333,105.84151877297296L121.50879166666667,105.80511596467761L121.93170833333333,105.46449979146323L121.992125,105.41852474212648L122.23379166666668,105.17082532246908L122.535875,104.99461121029324L122.717125,104.88785478803847L122.83795833333333,104.81455405553183L123.01920833333332,104.71392763985529L123.20045833333333,104.68481010860867L123.442125,104.51755523681642L123.92545833333332,104.34061023924086L124.40879166666667,104.290509223938L124.529625,104.24165778689915L124.65045833333333,104.23930009206137L124.83170833333334,104.25969415240819L124.89212500000001,104.2321562767029L125.25462499999999,104.15296130710179L125.31504166666667,104.11780807707045L125.798375,104.03161075380115L125.979625,103.95383040110272L126.04004166666667,103.95390113194784L126.10045833333334,103.91221708721585L126.160875,103.91749832365248L126.28170833333333,103.9055919647217L126.46295833333333,103.80168835322064L126.88587500000001,103.71600972281563L126.94629166666667,103.67889960606894L127.36920833333333,103.53152010175917L127.429625,103.5020489162869L127.49004166666667,103.48820924758913L128.03379166666667,103.338872856564L128.27545833333332,103.31003824869794L128.39629166666666,103.27422486411201L128.45670833333332,103.2745549413893L128.57754166666666,103.237468401591L128.879625,103.15070523156061L128.94004166666667,103.14155737559003L129.06087499999998,103.12187062369453L129.12129166666668,103.09355470869276L129.18170833333332,103.08424181408353L129.48379166666666,103.03046279483372L130.329625,102.88041909535727L130.873375,102.74680852890016L131.17666666666665,108.68110285864937L131.59958333333333,109.39562585618762L131.66,109.2857336997986L132.20374999999999,109.35990677939522L132.62666666666667,109.11119355095758L133.11,108.81848573684694L133.17041666666665,108.79059420691597L133.35166666666666,108.59662665261163L133.77458333333334,108.3287925190396L133.89541666666668,108.25959417555067L134.13708333333335,108.13121769163344L134.74125,107.78251462512547L134.80166666666668,107.74040619532269L134.98291666666665,107.65675518247816L135.285,107.62254503038196L135.52666666666667,107.53599405288698L136.31208333333333,107.26040310329863L136.43291666666667,107.25229263305665L136.49333333333334,107.20195584827L136.85583333333332,107.13469081454808L136.91625,107.09482219484119L136.97666666666666,107.08282152811688L137.0975,107.07860125435724L137.21833333333333,107.02607181337146L137.94333333333333,106.87713623046876L138.72875,106.77002615398833L139.03083333333333,106.65393326017592L139.39333333333335,106.60911348130969L139.75583333333333,106.50160259670683L139.81625,106.48587677213881L140.17875,106.40158918168811L140.42041666666668,106.35382228427464L140.54125,106.3198479016622L140.66208333333333,106.27981424331666L141.02458333333334,106.17739597956341L141.20583333333335,106.124890115526L141.32666666666668,106.11647314495512L141.50791666666666,106.11140410105389L141.68916666666667,106.09683354695639L141.81120833333333,85.41197511884903L142.35495833333331,113.78173987070721L142.47579166666665,113.75427272584704L143.20079166666667,112.63625383377077L143.26120833333334,112.57087495591907L143.321625,112.54069646199545L144.16745833333334,111.74124929640028L144.409125,111.69400109185113L144.65079166666666,111.58599509133234L144.89245833333334,111.40282577938505L144.952875,111.39506896336874L145.134125,111.30203432506987L145.25495833333332,111.30269447962445L145.3757916666667,111.32862912284004L145.859125,111.11912435955473L145.97995833333334,111.09620756573149L146.16120833333335,111.02674987581042L146.34245833333333,110.95481660630969L146.52370833333333,110.9504548708598L146.64454166666667,110.88632557127211L146.82579166666665,110.86548354890613L147.00704166666668,110.8298823568556L147.06745833333332,110.82250277201337L147.97370833333335,110.41620122061836L148.396625,110.30628548728096L148.69870833333331,110.23232460021974L148.75912499999998,110.20242902967665L148.81954166666668,110.17385376824274L148.940375,110.16175879372491L149.00079166666666,110.16079213884143L149.121625,110.14294438891942L149.24245833333333,110.11500570509169L149.484125,110.03779119915434L149.72579166666665,109.99075518714058L150.027875,109.88609711329144L150.14870833333333,109.86103481716582L150.57162499999998,109.74331511391534L150.69245833333335,109.67902077568903L150.752875,109.66992007361519L150.93412500000002,109.61078908708362L151.05495833333333,109.58704710006715L151.296625,109.49509700139365L151.477875,109.46444696850249L151.59870833333332,109.43485789828831L151.7195416666667,109.41187037361993L151.77995833333333,109.38020653194853L152.384125,109.26324129104616L152.44454166666665,109.24657238854303L152.627,117.77883423699274L152.80825,116.58206833733453L152.9895,115.97173187467789L153.04991666666666,116.3297478357951L153.23116666666667,116.02397839228314L153.29158333333334,116.16395473480225L153.41241666666664,116.17986917495728L153.71450000000002,116.16513358222115L153.77491666666668,116.08244922426013L154.1978333333333,115.70854239993626L154.25825,115.73452419704863L154.49991666666668,115.50700664520264L154.62075,115.43054660161337L154.74158333333335,115.2725574705336L154.98325,115.16429212358264L155.58741666666668,114.74360863367718L155.70825,114.66283400853476L155.82908333333336,114.58630323410034L155.8895,114.48704428142973L156.13116666666667,114.42032151752049L156.31241666666665,114.31839836968317L156.79575,114.0883345074124L157.03741666666667,113.97077984280058L157.21866666666668,113.92435683144464L157.88325,113.66453886032106L158.12491666666665,113.5364924536811L158.24575000000002,113.50327253341676L158.427,113.41568417019316L158.54783333333333,113.38868856430055L158.60825,113.36775223414105L158.7290833333333,113.31661383310956L158.84991666666667,113.23135958777534L158.91033333333334,113.21259233686659L159.03116666666668,113.22136296166315L159.152,113.18253172768488L159.21241666666666,113.18300326665243L159.45408333333333,113.16277424494427L159.5145,113.13820706473457L159.63533333333334,113.09173689948189L159.81658333333334,113.09407101737129L160.11866666666668,112.93803877300688L160.84366666666665,112.70179775026111L161.08533333333332,112.66907294591269L161.26658333333333,112.61788739098444L161.87075,112.43841965993246L162.23325,112.37610578536989L162.29366666666667,112.36346854103937L162.4145,112.35851738188002L162.59575,112.33043723636204L162.77700000000002,112.27220217386883L162.83741666666668,112.24808295567831L162.89783333333332,112.23009374406604L163.44279166666666,117.53959894180298L163.50320833333333,117.80031283696493L163.563625,118.43113766776192L163.68445833333334,118.99483892652725L164.40945833333333,118.83939610587227L164.469875,118.85778612560698L164.53029166666667,118.8767891459995L164.59070833333334,118.90774567921957L165.07404166666666,118.46393320295547L165.61779166666668,118.19520314534506L165.919875,117.89761490292021L166.644875,117.6302758852641L167.49070833333334,117.21784432729086L167.67195833333335,117.15152237150406L167.73237500000002,117.14367124769424L167.79279166666666,117.07739644580418L167.91362500000002,117.00397782855565L168.39695833333332,116.81743701299033L168.51779166666668,116.7350827323066L168.638625,116.6634323861864L168.75945833333336,116.55561500125462L169.363625,116.27629889382257L169.84695833333333,116.15046872033014L169.907375,116.15829626719159L170.20945833333332,116.10131078296239L170.57195833333336,115.94898011949329L171.05529166666665,115.7277576128642L171.4177916666667,115.64203182856244L171.47820833333333,115.64130094316272L171.59904166666666,115.60756233003406L171.719875,115.57238552305435L172.02195833333334,115.4975994427999L173.169875,115.19333892398411L173.29070833333336,115.15790277057225L173.532375,115.10310994254219L173.59279166666667,115.0748411814372L174.13774999999998,122.08478662702774L174.25858333333335,121.94624847835966L174.43983333333335,121.86342265870837L174.50025,121.9495020972358L174.56066666666666,121.7041603724162L175.16483333333332,121.20458841323853L175.22525000000002,121.24233510759143L175.4065,120.90306282043457L175.52733333333333,120.79998440212675L175.769,120.81302245457968L175.88983333333334,120.76063447528416L176.07108333333335,120.60092422697281L176.19191666666666,120.55898083580865L176.31275000000002,120.4304157363044L176.43358333333333,120.36216047075061L176.97733333333332,120.24425215191313L177.219,120.06964127222699L177.46066666666667,119.87880945205688L177.58149999999998,119.83651240666708L177.76275,119.81208668814766L177.94400000000002,119.71945285797119L178.3065,119.5890251795451L178.36691666666667,119.57917001512317L178.6085833333333,119.52506091859607L178.78983333333335,119.41846953497993L178.97108333333335,119.3758895662096L179.09191666666666,119.37848303053116L179.63566666666665,119.15344105826485L179.81691666666669,119.11152124404907L179.87733333333333,119.0792915556166L179.93775,119.05189514160156L179.99816666666666,119.02824746237862L180.17941666666667,118.98668130238852L180.42108333333334,118.9093253347609L180.78358333333333,118.77533753712973L180.84400000000002,118.7484833929274L181.02525,118.68369393878514L181.50858333333332,118.58219517601862L181.81066666666666,118.49703523847793L181.99191666666667,118.42738893296985L182.17316666666667,118.35863855150012L182.23358333333334,118.32299020555286L182.35441666666665,118.29186863369414L182.53566666666666,118.22354263729521L182.59608333333333,118.19958845774335L182.7169166666667,118.17129611968994L183.07941666666667,118.033889664544L183.26066666666668,118.00397051705255L183.44191666666666,117.94540537728204L183.50233333333335,117.92156908247208L183.74400000000003,117.85654385884604L184.1065,117.77850415971545L184.83270833333333,124.87514204449126L185.074375,124.79990800221762L185.1952083333333,124.78694068060982L185.49729166666668,124.64748303095502L185.799375,124.49420928955078L186.34312500000001,124.1919763882955L186.58479166666666,123.9938357141283L186.82645833333333,123.71989515092639L187.0077083333333,123.52359347873265L187.91395833333334,122.9449208577474L188.518125,122.68378257751465L188.57854166666667,122.64490418963963L188.63895833333333,122.6402595308092L188.82020833333334,122.49700599246556L189.18270833333332,122.24527491463556L189.54520833333333,121.99993318981596L189.605625,121.99078533384537L189.66604166666667,121.94914844301013L189.7264583333333,121.93219661712646L189.786875,121.88723537656998L189.84729166666668,121.8949686156379L189.90770833333332,121.87587128745186L190.39104166666667,121.68527523676556L191.780625,121.2590511639913L191.84104166666665,121.22156381607056L191.90145833333335,121.2036689122518L192.324375,121.08571343951756L192.98895833333333,120.8089672194587L193.10979166666667,120.7574044333564L193.35145833333334,120.72592920727202L193.83479166666666,120.64753585391576L193.89520833333333,120.63718557357788L194.07645833333333,120.58996094597711L194.19729166666667,120.54872486326431L194.2577083333333,120.52368614408707L194.37854166666668,120.46990712483725L195.46725,128.00165759192572L195.76933333333335,127.5977373123169L195.95058333333333,127.56008492575752L196.13183333333333,127.67485751046075L196.67558333333332,127.07256078720093L196.736,127.07322094175552L197.0985,126.72826661003961L197.21933333333334,126.65416426128813L197.27974999999998,126.59163819419014L197.64225000000002,126.38508054945206L197.82350000000002,126.21676471498279L197.88391666666666,126.17189778221979L198.186,125.9166537390815L198.30683333333332,125.8656332227919L198.42766666666668,125.82404348585342L198.60891666666666,125.81593301561145L198.66933333333336,125.75567033555774L199.15266666666665,125.47020064459907L199.45475000000002,125.32583898968169L199.57558333333333,125.28929471969604L199.636,125.21941264470419L199.6964166666667,125.18133587307402L200.361,124.91347816255359L200.96516666666665,124.60068278842503L201.4485,124.38731140560576L202.47558333333333,123.95201020770604L202.77766666666668,123.81656063927545L202.89849999999998,123.75653372870552L202.95891666666668,123.7222292688158L203.14016666666666,123.63284905751547L203.74433333333334,123.40959893332588L204.10683333333333,123.26264381408691L204.3485,123.16821813583374L204.65058333333334,123.08697197172378L204.77141666666668,123.04691473642987L204.89225,123.00461769104004L205.01308333333333,122.96224991480511L205.13391666666666,122.91544967227513L205.37558333333334,122.86209503809613L205.436,122.84429444207086L205.61725,122.80793878767227L205.67766666666668,122.7776188320584L205.73808333333332,122.75463130739001L205.97975,122.67826557159424L206.04137500000002,128.95393053690594L206.22262500000002,129.53394704394873L206.28304166666666,129.19446256425647L206.403875,129.27981111738418L206.7059583333333,129.7887431250678L206.82679166666668,129.40526405970257L206.88720833333332,129.42518658108185L206.947625,129.59300729963516L207.310125,129.43846040301855L207.43095833333334,129.31843015882706L207.61220833333334,129.19427394866943L208.15595833333333,128.73749415079754L208.3372083333333,128.5780668258667L208.45804166666667,128.48109483718872L208.57887499999998,128.48713053597345L208.69970833333335,128.4221053123474L208.82054166666666,128.30450349383887L209.36429166666665,127.90621810489232L209.60595833333332,127.79601944817438L209.72679166666668,127.81167454189726L209.90804166666666,127.7475216653612L210.39137499999998,127.50114255481297L210.63304166666666,127.33978192011517L210.87470833333333,127.20588843027753L211.2372083333333,127.06343650817871L211.660125,126.87019983927411L211.78095833333333,126.79289102554321L212.08304166666667,126.62950277328491L212.50595833333333,126.38475047217476L212.68720833333333,126.3175325923496L212.747625,126.29178656472101L213.04970833333334,126.20565997229683L213.11012499999998,126.18668052885269L213.17054166666668,126.14619890848797L213.291375,126.08977927101984L213.472625,126.02958732181126L213.77470833333334,125.94890700446236L213.95595833333334,125.91806835598418L214.016375,125.89736779530844L214.13720833333332,125.86155441072253L214.49970833333333,125.70476770401001L215.10387500000002,125.51836835013496L215.5267916666667,125.38037247127959L215.70804166666667,125.30749612384373L215.7684583333333,125.28912968105742L216.191375,125.13927459716797L216.25179166666666,125.1204366154141L216.31220833333333,125.09520928064984L216.372625,125.05366669760811L216.67470833333334,124.9652295642429L216.79675,132.16258817248877L218.24675,131.49222479926215L218.428,131.27753310733374L218.54883333333333,131.1946365568373L218.85091666666665,131.11093839009604L219.03216666666665,130.98352856106231L219.09258333333332,130.89855723910864L219.21341666666666,130.75056473414105L219.27383333333333,130.7250073220995L219.69675,130.58099932140777L219.81758333333332,130.56440114974976L219.93841666666668,130.54219166437787L220.48216666666667,130.28133630752563L220.78425000000001,130.09934584299725L220.84466666666665,130.12245125240753L221.20716666666667,129.88781346215143L221.328,129.79546255535553L221.44883333333334,129.71070342593725L221.56966666666668,129.6443107393053L221.81133333333335,129.4504374927945L221.99258333333333,129.38897238837347L222.23425,129.2981539832221L222.778,129.0023340119256L222.83841666666666,128.97507905960083L222.89883333333333,128.96201743019952L223.26133333333334,128.7646547953288L223.74466666666666,128.53699578179254L223.98633333333333,128.44761557049225L224.10716666666667,128.3835570017497L224.1675833333333,128.35278908411664L224.228,128.33274867799548L224.46966666666668,128.23947827021283L224.77175,128.16257026460437L225.19466666666665,128.023702038659L225.678,127.86377959781224L225.91966666666667,127.79300159878203L226.16133333333335,127.70630915959677L226.28216666666665,127.65158706241185L226.64466666666667,127.5348104370965L226.82591666666664,127.48289399676854L226.94675,127.42411666446263L227.06758333333332,127.40836726294624L227.18841666666668,127.37835380766128L227.36966666666666,127.28675736321344L227.43129166666665,133.74038113488092L227.61254166666666,135.17079459296335L227.85420833333333,135.63111093309192L228.33754166666668,135.99183824327258L228.639625,135.95666143629288L228.70004166666666,135.95189889272055L228.94170833333334,135.73675923877295L229.36462500000002,135.56261989805435L230.02920833333334,135.37765873803033L230.21045833333335,135.2722697787815L230.270875,135.24169047673544L230.45212500000002,135.1674466662937L230.75420833333334,134.97451649771799L231.11670833333332,134.85094971126983L231.177125,134.78392044703168L231.41879166666666,134.73023573557538L231.539625,134.71326033274335L231.902125,134.64472214380902L231.96254166666665,134.62906705008615L232.08337500000002,134.59341870413888L232.32504166666666,134.46829583909778L232.74795833333332,134.41678020689224L233.11045833333336,134.2746819390191L233.29170833333333,134.22177526685928L233.65420833333334,134.19013500213623L234.13754166666666,134.0155476993985L234.31879166666667,133.9332405726115L234.439625,133.88113551669653L234.50004166666668,133.84933021333484L234.802125,133.79628207948474L234.86254166666666,133.77249293857153L235.04379166666666,133.70315313339233L235.164625,133.65974797142877L235.22504166666664,133.64376280042862L235.345875,133.59679751926L235.64795833333332,133.46163087420996L236.25212499999998,133.23710759480795L236.61462500000002,133.12530570560034L236.73545833333333,133.09991333219742L236.795875,133.07296488020157L237.03754166666667,132.99612760543823L237.09795833333334,132.97085311677722L237.33962499999998,132.8960434595744L237.46045833333335,132.871617741055L237.82295833333333,132.79765685399374L237.88337499999997,132.79138538572525L238.064625,132.74149656295776L238.2470833333333,141.77705552842883L238.97208333333333,140.93264712227716L239.27416666666664,140.51884810129803L239.3345833333333,140.38455380333795L239.45541666666668,140.2326003710429L239.99916666666667,139.81616073184546L240.05958333333334,139.73312271965875L240.42208333333335,139.5847765604655L240.48250000000002,139.5261171129015L241.32833333333335,139.07318035761517L241.57,138.91471968756784L241.69083333333333,138.8995361328125L241.81166666666667,138.81609731250342L241.99291666666664,138.6615268389384L242.17416666666665,138.5678791999817L242.71791666666667,138.2860639360216L243.08041666666668,138.06807147132028L243.20125,137.97381083170575L243.8658333333333,137.6892842186822L243.92625,137.64755302005346L244.28875,137.49658981959027L244.71166666666667,137.35031843185425L246.16166666666666,136.87356895870636L246.22208333333333,136.84334331088598L246.34291666666667,136.79508129755658L246.52416666666664,136.7254114151001L246.645,136.68752325905695L247.91375000000002,136.22034602695044L248.095,136.14970948961047L248.33666666666664,136.0746169090271L248.3970833333333,136.0541049639384L248.4575,136.0418921046787L248.57833333333332,136.01183149549698L248.76079166666665,153.47834216223825L248.94204166666665,143.99241632885406L249.06287500000002,143.90065484576758L249.18370833333333,143.87955347696942L249.606625,143.5794896549649L249.78787499999999,143.44163523779977L249.84829166666668,143.27159828609894L250.02954166666666,143.19047000673083L250.331625,143.02814271714954L250.81495833333332,142.73225201500787L251.056625,142.65583912531537L251.1774583333333,142.55155828264026L251.29829166666667,142.4983686870999L251.35870833333334,142.43379142549304L251.72120833333335,142.08159897062515L251.96287500000003,141.8995613522L252.08370833333333,141.79898209042022L252.20454166666664,141.7173586951362L252.38579166666668,141.57636854383682L252.92954166666667,141.25072373284235L253.050375,141.16761498981055L253.11079166666667,141.13529099358453L253.35245833333335,140.9918252627055L253.65454166666666,140.81796884536743L253.775375,140.71856843100656L254.37954166666668,140.443401866489L254.500375,140.38200749291315L254.62120833333333,140.3184676170349L255.406625,139.97058974372018L255.64829166666667,139.87929979960126L255.769125,139.84155310524835L256.37329166666666,139.53656170103287L256.67537500000003,139.43169143464831L257.0982916666667,139.25356758965387L257.27954166666666,139.21044535107086L257.400375,139.16406949361166L257.762875,139.00157716539172L258.6087083333333,138.65702364179825L258.669125,138.6313483450148L258.72954166666665,138.61222743988037L258.850375,138.56943527857464L259.03162499999996,138.5100685225593L259.15245833333336,138.46720563040842L259.45575,127.84744077258641L259.6974166666667,146.1967902713352L259.75783333333334,145.81932332780627L260.12033333333335,145.82936710781524L260.18075,145.8549952507019L260.2411666666667,145.8126038975186L260.54325,145.49844106038412L260.60366666666664,145.48745420244006L260.8453333333333,145.1597817738851L261.50991666666664,144.77003124025134L261.87241666666665,144.46933084064062L262.1140833333333,144.33333900239734L262.23491666666666,144.1097116470337L262.4161666666667,144.04685550265845L262.537,143.9740734630161L262.8995,143.81740464104547L263.08074999999997,143.7347674369812L263.32241666666664,143.58632696999445L263.5640833333333,143.47214380900067L263.68491666666665,143.37694009145102L263.8661666666667,143.20758687125314L263.987,143.13494629330108L264.2286666666667,143.03844584359064L264.3495,142.98018720414905L264.53075,142.88069248199463L264.8328333333333,142.7593655056424L265.0745,142.57690350214642L265.13491666666664,142.5919220182631L265.25575,142.51581562889947L265.79949999999997,142.2319727473789L265.85991666666666,142.2158932685852L266.5245,141.92688703536987L266.6453333333333,141.86049434873794L266.70575,141.83255566491022L267.1286666666667,141.70304748747085L267.2495,141.67470799552072L267.30991666666665,141.654196050432L267.37033333333335,141.64158238304987L267.43075,141.62397040261163L267.67241666666666,141.53602838516235L267.79325,141.49804592132568L269.12241666666665,140.98121563593548L269.3036666666667,140.92915773391724L269.8474166666667,140.72934309641522L270.02866666666665,140.65990898344253L270.1495,140.63545968797473L270.15070833333334,148.2887493239509" style="fill: none;" fill="none"></path></g></g></g></g></g></g><g transform="translate(40, 178)" clip-path="url(#clip_1)"><clipPath id="clip_1"><rect width="290" height="22"></rect></clipPath><g><g><line x1="0" y1="0" x2="0" y2="5" style="visibility: inherit;" fill="rgb(0, 0, 0)" stroke="rgb(204, 204, 204)" stroke-width="1px"></line><line x1="24.166666666666664" y1="0" x2="24.166666666666664" y2="5" style="visibility: inherit;" fill="rgb(0, 0, 0)" stroke="rgb(204, 204, 204)" stroke-width="1px"></line><line x1="48.33333333333333" y1="0" x2="48.33333333333333" y2="5" style="visibility: inherit;" fill="rgb(0, 0, 0)" stroke="rgb(204, 204, 204)" stroke-width="1px"></line><line x1="72.5" y1="0" x2="72.5" y2="5" style="visibility: inherit;" fill="rgb(0, 0, 0)" stroke="rgb(204, 204, 204)" stroke-width="1px"></line><line x1="96.66666666666666" y1="0" x2="96.66666666666666" y2="5" style="visibility: inherit;" fill="rgb(0, 0, 0)" stroke="rgb(204, 204, 204)" stroke-width="1px"></line><line x1="120.83333333333334" y1="0" x2="120.83333333333334" y2="5" style="visibility: inherit;" fill="rgb(0, 0, 0)" stroke="rgb(204, 204, 204)" stroke-width="1px"></line><line x1="145" y1="0" x2="145" y2="5" style="visibility: inherit;" fill="rgb(0, 0, 0)" stroke="rgb(204, 204, 204)" stroke-width="1px"></line><line x1="169.16666666666669" y1="0" x2="169.16666666666669" y2="5" style="visibility: inherit;" fill="rgb(0, 0, 0)" stroke="rgb(204, 204, 204)" stroke-width="1px"></line><line x1="193.33333333333331" y1="0" x2="193.33333333333331" y2="5" style="visibility: inherit;" fill="rgb(0, 0, 0)" stroke="rgb(204, 204, 204)" stroke-width="1px"></line><line x1="217.5" y1="0" x2="217.5" y2="5" style="visibility: inherit;" fill="rgb(0, 0, 0)" stroke="rgb(204, 204, 204)" stroke-width="1px"></line><line x1="241.66666666666669" y1="0" x2="241.66666666666669" y2="5" style="visibility: inherit;" fill="rgb(0, 0, 0)" stroke="rgb(204, 204, 204)" stroke-width="1px"></line><line x1="265.8333333333333" y1="0" x2="265.8333333333333" y2="5" style="visibility: inherit;" fill="rgb(0, 0, 0)" stroke="rgb(204, 204, 204)" stroke-width="1px"></line><line x1="290" y1="0" x2="290" y2="5" style="visibility: inherit;" fill="rgb(0, 0, 0)" stroke="rgb(204, 204, 204)" stroke-width="1px"></line></g><g transform="translate(0, 8)"><text x="0" y="0" dx="0em" dy="0.95em" style="text-anchor: middle; visibility: hidden; font-family: &quot;Helvetica Neue&quot;, sans-serif; font-size: 12px; font-weight: 200;" fill="rgb(50, 49, 63)" stroke="none" stroke-width="1px">-20k</text><text x="24.166666666666664" y="0" dx="0em" dy="0.95em" style="text-anchor: middle; visibility: inherit; font-family: &quot;Helvetica Neue&quot;, sans-serif; font-size: 12px; font-weight: 200;" fill="rgb(50, 49, 63)" stroke="none" stroke-width="1px">0</text><text x="48.33333333333333" y="0" dx="0em" dy="0.95em" style="text-anchor: middle; visibility: hidden; font-family: &quot;Helvetica Neue&quot;, sans-serif; font-size: 12px; font-weight: 200;" fill="rgb(50, 49, 63)" stroke="none" stroke-width="1px">20k</text><text x="72.5" y="0" dx="0em" dy="0.95em" style="text-anchor: middle; visibility: inherit; font-family: &quot;Helvetica Neue&quot;, sans-serif; font-size: 12px; font-weight: 200;" fill="rgb(50, 49, 63)" stroke="none" stroke-width="1px">40k</text><text x="96.66666666666666" y="0" dx="0em" dy="0.95em" style="text-anchor: middle; visibility: hidden; font-family: &quot;Helvetica Neue&quot;, sans-serif; font-size: 12px; font-weight: 200;" fill="rgb(50, 49, 63)" stroke="none" stroke-width="1px">60k</text><text x="120.83333333333334" y="0" dx="0em" dy="0.95em" style="text-anchor: middle; visibility: inherit; font-family: &quot;Helvetica Neue&quot;, sans-serif; font-size: 12px; font-weight: 200;" fill="rgb(50, 49, 63)" stroke="none" stroke-width="1px">80k</text><text x="145" y="0" dx="0em" dy="0.95em" style="text-anchor: middle; visibility: hidden; font-family: &quot;Helvetica Neue&quot;, sans-serif; font-size: 12px; font-weight: 200;" fill="rgb(50, 49, 63)" stroke="none" stroke-width="1px">100k</text><text x="169.16666666666669" y="0" dx="0em" dy="0.95em" style="text-anchor: middle; visibility: inherit; font-family: &quot;Helvetica Neue&quot;, sans-serif; font-size: 12px; font-weight: 200;" fill="rgb(50, 49, 63)" stroke="none" stroke-width="1px">120k</text><text x="193.33333333333331" y="0" dx="0em" dy="0.95em" style="text-anchor: middle; visibility: hidden; font-family: &quot;Helvetica Neue&quot;, sans-serif; font-size: 12px; font-weight: 200;" fill="rgb(50, 49, 63)" stroke="none" stroke-width="1px">140k</text><text x="217.5" y="0" dx="0em" dy="0.95em" style="text-anchor: middle; visibility: inherit; font-family: &quot;Helvetica Neue&quot;, sans-serif; font-size: 12px; font-weight: 200;" fill="rgb(50, 49, 63)" stroke="none" stroke-width="1px">160k</text><text x="241.66666666666669" y="0" dx="0em" dy="0.95em" style="text-anchor: middle; visibility: hidden; font-family: &quot;Helvetica Neue&quot;, sans-serif; font-size: 12px; font-weight: 200;" fill="rgb(50, 49, 63)" stroke="none" stroke-width="1px">180k</text><text x="265.8333333333333" y="0" dx="0em" dy="0.95em" style="text-anchor: middle; visibility: inherit; font-family: &quot;Helvetica Neue&quot;, sans-serif; font-size: 12px; font-weight: 200;" fill="rgb(50, 49, 63)" stroke="none" stroke-width="1px">200k</text><text x="290" y="0" dx="0em" dy="0.95em" style="text-anchor: middle; visibility: hidden; font-family: &quot;Helvetica Neue&quot;, sans-serif; font-size: 12px; font-weight: 200;" fill="rgb(50, 49, 63)" stroke="none" stroke-width="1px">220k</text></g><line x1="0" y1="0" x2="290" y2="0" fill="rgb(0, 0, 0)" stroke="rgb(204, 204, 204)" stroke-width="1px"></line></g></g></g></g></svg>