<svg viewBox="0 0 330 200" xmlns="http://www.w3.org/2000/svg"><g><g><g><g><g><line x1="30" y1="178" x2="25" y2="178" style="visibility: inherit;" fill="rgb(0, 0, 0)" stroke="rgb(204, 204, 204)" stroke-width="1px"></line><line x1="30" y1="161.8181818181818" x2="25" y2="161.8181818181818" style="visibility: inherit;" fill="rgb(0, 0, 0)" stroke="rgb(204, 204, 204)" stroke-width="1px"></line><line x1="30" y1="145.63636363636363" x2="25" y2="145.63636363636363" style="visibility: inherit;" fill="rgb(0, 0, 0)" stroke="rgb(204, 204, 204)" stroke-width="1px"></line><line x1="30" y1="129.45454545454547" x2="25" y2="129.45454545454547" style="visibility: inherit;" fill="rgb(0, 0, 0)" stroke="rgb(204, 204, 204)" stroke-width="1px"></line><line x1="30" y1="113.27272727272727" x2="25" y2="113.27272727272727" style="visibility: inherit;" fill="rgb(0, 0, 0)" stroke="rgb(204, 204, 204)" stroke-width="1px"></line><line x1="30" y1="97.0909090909091" x2="25" y2="97.0909090909091" style="visibility: inherit;" fill="rgb(0, 0, 0)" stroke="rgb(204, 204, 204)" stroke-width="1px"></line><line x1="30" y1="80.90909090909092" x2="25" y2="80.90909090909092" style="visibility: inherit;" fill="rgb(0, 0, 0)" stroke="rgb(204, 204, 204)" stroke-width="1px"></line><line x1="30" y1="64.72727272727273" x2="25" y2="64.72727272727273" style="visibility: inherit;" fill="rgb(0, 0, 0)" stroke="rgb(204, 204, 204)" stroke-width="1px"></line><line x1="30" y1="48.54545454545453" x2="25" y2="48.54545454545453" style="visibility: inherit;" fill="rgb(0, 0, 0)" stroke="rgb(204, 204, 204)" stroke-width="1px"></line><line x1="30" y1="32.363636363636346" x2="25" y2="32.363636363636346" style="visibility: inherit;" fill="rgb(0, 0, 0)" stroke="rgb(204, 204, 204)" stroke-width="1px"></line><line x1="30" y1="16.181818181818187" x2="25" y2="16.181818181818187" style="visibility: inherit;" fill="rgb(0, 0, 0)" stroke="rgb(204, 204, 204)" stroke-width="1px"></line><line x1="30" y1="0" x2="25" y2="0" style="visibility: inherit;" fill="rgb(0, 0, 0)" stroke="rgb(204, 204, 204)" stroke-width="1px"></line></g><g transform="translate(20, 0)"><text x="0" y="178" dx="0em" dy="0.3em" style="text-anchor: end; visibility: hidden; font-family: &quot;Helvetica Neue&quot;, sans-serif; font-size: 12px; font-weight: 200;" fill="rgb(50, 49, 63)" stroke="none" stroke-width="1px">66</text><text x="0" y="161.8181818181818" dx="0em" dy="0.3em" style="text-anchor: end; visibility: inherit; font-family: &quot;Helvetica Neue&quot;, sans-serif; font-size: 12px; font-weight: 200;" fill="rgb(50, 49, 63)" stroke="none" stroke-width="1px">68</text><text x="0" y="145.63636363636363" dx="0em" dy="0.3em" style="text-anchor: end; visibility: hidden; font-family: &quot;Helvetica Neue&quot;, sans-serif; font-size: 12px; font-weight: 200;" fill="rgb(50, 49, 63)" stroke="none" stroke-width="1px">70</text><text x="0" y="129.45454545454547" dx="0em" dy="0.3em" style="text-anchor: end; visibility: inherit; font-family: &quot;Helvetica Neue&quot;, sans-serif; font-size: 12px; font-weight: 200;" fill="rgb(50, 49, 63)" stroke="none" stroke-width="1px">72</text><text x="0" y="113.27272727272727" dx="0em" dy="0.3em" style="text-anchor: end; visibility: hidden; font-family: &quot;Helvetica Neue&quot;, sans-serif; font-size: 12px; font-weight: 200;" fill="rgb(50, 49, 63)" stroke="none" stroke-width="1px">74</text><text x="0" y="97.0909090909091" dx="0em" dy="0.3em" style="text-anchor: end; visibility: inherit; font-family: &quot;Helvetica Neue&quot;, sans-serif; font-size: 12px; font-weight: 200;" fill="rgb(50, 49, 63)" stroke="none" stroke-width="1px">76</text><text x="0" y="80.90909090909092" dx="0em" dy="0.3em" style="text-anchor: end; visibility: hidden; font-family: &quot;Helvetica Neue&quot;, sans-serif; font-size: 12px; font-weight: 200;" fill="rgb(50, 49, 63)" stroke="none" stroke-width="1px">78</text><text x="0" y="64.72727272727273" dx="0em" dy="0.3em" style="text-anchor: end; visibility: inherit; font-family: &quot;Helvetica Neue&quot;, sans-serif; font-size: 12px; font-weight: 200;" fill="rgb(50, 49, 63)" stroke="none" stroke-width="1px">80</text><text x="0" y="48.54545454545453" dx="0em" dy="0.3em" style="text-anchor: end; visibility: hidden; font-family: &quot;Helvetica Neue&quot;, sans-serif; font-size: 12px; font-weight: 200;" fill="rgb(50, 49, 63)" stroke="none" stroke-width="1px">82</text><text x="0" y="32.363636363636346" dx="0em" dy="0.3em" style="text-anchor: end; visibility: inherit; font-family: &quot;Helvetica Neue&quot;, sans-serif; font-size: 12px; font-weight: 200;" fill="rgb(50, 49, 63)" stroke="none" stroke-width="1px">84</text><text x="0" y="16.181818181818187" dx="0em" dy="0.3em" style="text-anchor: end; visibility: hidden; font-family: &quot;Helvetica Neue&quot;, sans-serif; font-size: 12px; font-weight: 200;" fill="rgb(50, 49, 63)" stroke="none" stroke-width="1px">86</text><text x="0" y="0" dx="0em" dy="0.3em" style="text-anchor: end; visibility: hidden; font-family: &quot;Helvetica Neue&quot;, sans-serif; font-size: 12px; font-weight: 200;" fill="rgb(50, 49, 63)" stroke="none" stroke-width="1px">88</text></g><line x1="30" y1="0" x2="30" y2="178" fill="rgb(0, 0, 0)" stroke="rgb(204, 204, 204)" stroke-width="1px"></line></g></g><g transform="translate(30, 0)" clip-path="url(#clip_0)"><clipPath id="clip_0"><rect width="300" height="178"></rect></clipPath><g><g><g><line x1="0" y1="0" x2="0" y2="178" fill="rgb(0, 0, 0)" stroke="rgb(60, 60, 60)" stroke-width="1px" opacity="0.25"></line><line x1="25" y1="0" x2="25" y2="178" fill="rgb(0, 0, 0)" stroke="rgb(60, 60, 60)" stroke-width="1px" opacity="0.25"></line><line x1="50" y1="0" x2="50" y2="178" fill="rgb(0, 0, 0)" stroke="rgb(60, 60, 60)" stroke-width="1px" opacity="0.25"></line><line x1="75" y1="0" x2="75" y2="178" fill="rgb(0, 0, 0)" stroke="rgb(60, 60, 60)" stroke-width="1px" opacity="0.25"></line><line x1="100" y1="0" x2="100" y2="178" fill="rgb(0, 0, 0)" stroke="rgb(60, 60, 60)" stroke-width="1px" opacity="0.25"></line><line x1="125" y1="0" x2="125" y2="178" fill="rgb(0, 0, 0)" stroke="rgb(60, 60, 60)" stroke-width="1px" opacity="0.25"></line><line x1="150" y1="0" x2="150" y2="178" fill="rgb(0, 0, 0)" stroke="rgb(60, 60, 60)" stroke-width="1px" opacity="0.25"></line><line x1="175" y1="0" x2="175" y2="178" fill="rgb(0, 0, 0)" stroke="rgb(60, 60, 60)" stroke-width="1px" opacity="0.25"></line><line x1="200" y1="0" x2="200" y2="178" fill="rgb(0, 0, 0)" stroke="rgb(60, 60, 60)" stroke-width="1px" opacity="0.25"></line><line x1="225" y1="0" x2="225" y2="178" fill="rgb(0, 0, 0)" stroke="rgb(60, 60, 60)" stroke-width="1px" opacity="0.25"></line><line x1="250" y1="0" x2="250" y2="178" fill="rgb(0, 0, 0)" stroke="rgb(60, 60, 60)" stroke-width="1px" opacity="0.25"></line><line x1="275" y1="0" x2="275" y2="178" fill="rgb(0, 0, 0)" stroke="rgb(60, 60, 60)" stroke-width="1px" opacity="0.25"></line><line x1="300" y1="0" x2="300" y2="178" fill="rgb(0, 0, 0)" stroke="rgb(60, 60, 60)" stroke-width="1px" opacity="0.25"></line></g><g><line x1="0" y1="178" x2="300" y2="178" fill="rgb(0, 0, 0)" stroke="rgb(60, 60, 60)" stroke-width="1px" opacity="0.25"></line><line x1="0" y1="161.8181818181818" x2="300" y2="161.8181818181818" fill="rgb(0, 0, 0)" stroke="rgb(60, 60, 60)" stroke-width="1px" opacity="0.25"></line><line x1="0" y1="145.63636363636363" x2="300" y2="145.63636363636363" fill="rgb(0, 0, 0)" stroke="rgb(60, 60, 60)" stroke-width="1px" opacity="0.25"></line><line x1="0" y1="129.45454545454547" x2="300" y2="129.45454545454547" fill="rgb(0, 0, 0)" stroke="rgb(60, 60, 60)" stroke-width="1px" opacity="0.25"></line><line x1="0" y1="113.27272727272727" x2="300" y2="113.27272727272727" fill="rgb(0, 0, 0)" stroke="rgb(60, 60, 60)" stroke-width="1px" opacity="0.25"></line><line x1="0" y1="97.0909090909091" x2="300" y2="97.0909090909091" fill="rgb(0, 0, 0)" stroke="rgb(60, 60, 60)" stroke-width="1px" opacity="0.25"></line><line x1="0" y1="80.90909090909092" x2="300" y2="80.90909090909092" fill="rgb(0, 0, 0)" stroke="rgb(60, 60, 60)" stroke-width="1px" opacity="0.25"></line><line x1="0" y1="64.72727272727273" x2="300" y2="64.72727272727273" fill="rgb(0, 0, 0)" stroke="rgb(60, 60, 60)" stroke-width="1px" opacity="0.25"></line><line x1="0" y1="48.54545454545453" x2="300" y2="48.54545454545453" fill="rgb(0, 0, 0)" stroke="rgb(60, 60, 60)" stroke-width="1px" opacity="0.25"></line><line x1="0" y1="32.363636363636346" x2="300" y2="32.363636363636346" fill="rgb(0, 0, 0)" stroke="rgb(60, 60, 60)" stroke-width="1px" opacity="0.25"></line><line x1="0" y1="16.181818181818187" x2="300" y2="16.181818181818187" fill="rgb(0, 0, 0)" stroke="rgb(60, 60, 60)" stroke-width="1px" opacity="0.25"></line><line x1="0" y1="0" x2="300" y2="0" fill="rgb(0, 0, 0)" stroke="rgb(60, 60, 60)" stroke-width="1px" opacity="0.25"></line></g></g></g><g><g><line x1="0" y1="712" x2="300" y2="712" fill="rgb(0, 0, 0)" stroke="rgb(153, 153, 153)" stroke-width="1.5px"></line></g></g><g><g><line x1="25" y1="0" x2="25" y2="178" fill="rgb(0, 0, 0)" stroke="rgb(153, 153, 153)" stroke-width="1.5px"></line></g></g><g><g><g><g><g><path stroke="rgb(255, 112, 67)" stroke-width="2px" d="M36.0625,204.84653728414727L36.06375,175.90226550012306L36.37625,164.46119232585983L36.50125,157.534646888351L36.56375,153.41516428904933L36.81375,150.8633014508778L37.31375,149.12539247912918L37.81375,147.71899075801878L37.87625,146.83643346157L37.93875,146.26047907320225L38.18875,145.74206597502877L38.87625,145.16044871362087L39.25125,144.52715579153664L39.56375,143.9980434083262L39.75125,143.59869898089235L40.501250000000006,142.96876917102318L40.876250000000006,142.43908204815472L41.18875,142.0339112650244L41.37625,141.73362329266112L41.626250000000006,141.4689315217611L41.87625,141.20774552083356L42.001250000000006,141.02258931800424L43.18875,140.3740358240233L43.50125,139.89016246121082L43.56375,139.56717159560077L43.87625,139.25527765551394L44.126250000000006,138.95320238210445L44.18875,138.74714226555534L44.31375,138.58688870849858L44.81375,138.3171553642149L44.876250000000006,138.13477203378105L45.251250000000006,137.8699337658118L45.31375,137.6855491821611L45.37625,137.55551091687835L45.563750000000006,137.4089196760148L46.12625,137.12123542821183L46.62625,136.74178422567712L47.565,130.05141097841056L47.815,126.20592870707469L48.19,123.8028610350581L48.440000000000005,122.11627833312647L48.565,121.06126674463792L49.315,120.36109892506752L49.3775,119.86726942917042L50.3775,119.41235356756971L51.19,119.00500824316971L51.2525,118.73746511768805L51.377500000000005,118.5709392091072L51.752500000000005,118.48230767718657L52.315,118.36241233846746L52.440000000000005,118.26573425721759L52.5025,118.19402362872691L52.69,118.12894774657211L53.065,118.02760557532255L53.6275,117.87746644356L53.815000000000005,117.75254326501744L53.877500000000005,117.66077444977748L54.44,117.54205848645037L54.5025,117.45737204366358L55.44,117.27870761673437L55.565,117.16373113964295L55.690000000000005,117.07585625969128L56.565,116.92058755286723L56.8775,116.78105570110955L57.0025,116.6625709650549L57.19,116.53755389828012L57.69,116.37130858408523L58.065,116.20400546517057L58.190000000000005,116.08061112045527L58.31625,111.05281863205661L58.69125,108.56750411202876L59.00375,106.9930803702712L59.628750000000004,106.1105005437181L59.75375,105.61843433723936L60.003750000000004,105.31968842105813L60.378750000000004,105.07965041058947L60.628750000000004,104.97836858220235L60.691250000000004,104.85053738467295L61.003750000000004,104.72571494234501L61.128750000000004,104.70573536189131L61.19125,104.65243874243659L61.31625,104.60811502324964L61.441250000000004,104.59799001892138L61.50375,104.60035950762408L61.816250000000004,104.59052187911276L61.87875,104.58931068606142L62.441250000000004,104.62643603210923L62.816250000000004,104.66816813782022L62.941250000000004,104.68970120895281L63.253750000000004,104.66267021267642L63.566250000000004,104.62459964181035L63.69125,104.5954856595536L64.44125,104.53389356858375L64.87875,104.48202465100465L64.94125,104.44386622437406L65.06625,104.39669942878281L65.12875,104.35830052996144L65.19125,104.3443229693441L65.25375,104.3399611466633L65.37875,104.32665263570752L65.56625,104.30760573936128L65.81625000000001,104.28395531151453L66.12875,104.22517221478512L66.31625,104.20632220094146L66.56625,104.18232076419068L66.75375,104.1692532428717L66.94125,104.14788179080472L67.00375,104.11992303311209L67.19125,104.08339458247374L67.25375000000001,104.05310709527613L67.44125,104.03083581478292L67.50375,104.0119174601055L67.81625,103.95723287352419L67.87875,103.92158259964721L68.31625,103.87189598201846L68.50375,103.83146666857898L68.75375,103.7936040667546L68.94125,103.75659013003853L69.19125,103.70297418633282L69.38000000000001,99.64618969645879L69.63,97.83582616695203L69.8175,96.57197743401363L69.88,95.69302554954169L69.9425,95.07535762153964L70.38,95.04406738941888L70.755,94.91852722564356L70.88000000000001,94.92656161459428L70.9425,94.87775232076292L71.19250000000001,94.86992365364388L71.4425,94.9149304328646L71.63,94.8951688088132L71.6925,94.85674378573184L71.755,94.83279987806198L71.88,94.8624090861056L72.005,94.85582879683376L72.5675,94.85079419748945L72.63000000000001,94.87399580560304L72.8175,94.86487960560972L72.88,94.86331114182823L72.9425,94.83204890766437L73.0675,94.85655106645582L73.13,94.88016599143594L73.505,94.9114955354688L73.75500000000001,94.94708347850784L73.8175,94.96720166957986L73.9425,94.9484575984276L74.06750000000001,94.91224805426249L74.255,94.8670407159914L74.3175,94.84218793057144L74.38,94.82510340775696L74.44250000000001,94.8196675355988L74.63,94.81657885276913L74.88,94.82773806095125L75.1925,94.82228537030655L75.25500000000001,94.81281619066759L75.3175,94.80518405477696L75.69250000000001,94.84055561219863L76.0675,94.83770433899882L76.31750000000001,94.83638863899942L76.505,94.82705596172002L76.75500000000001,94.85839483191482L77.005,94.88453152805516L77.13,94.89804069417687L77.4425,94.8952078615522L77.63,94.89528594961955L78.9425,94.89076487587971L79.0675,94.88750901874506L79.13,94.88399994027758L79.38,94.89061059094212L79.50500000000001,94.87956455236359L79.755,94.85617140409215L79.88,94.84667875021455L80.31875000000001,107.9460435272061L80.69375,98.72171574922498L80.94375000000001,93.49344176975876L81.38125000000001,90.46941628033896L81.44375,88.66835908549747L81.50625000000001,87.62236693611732L81.56875,87.01111741619805L81.88125,86.75970167752428L82.00625000000001,86.70658117164245L82.19375,86.71085721683487L82.25625,86.6875461571606L82.38125,86.7423253350101L82.88125000000001,86.85341549796988L82.94375,86.90668680544037L83.13125,86.9377606961016L83.56875,87.05277593559416L83.75625,87.15230376714486L84.31875,87.26298371181394L84.44375,87.30215695959902L84.50625,87.33408070807468L84.56875000000001,87.31518536332132L84.75625,87.27676158642316L84.81875,87.26000365151653L85.06875,87.27007245902072L85.38125,87.29191630034146L85.44375000000001,87.30331889197693L85.69375,87.3719385675192L85.75625000000001,87.40022141243983L85.81875,87.41780840676783L85.88125,87.43991622303798L86.13125,87.47016866137966L86.19375000000001,87.48232009109277L86.38125000000001,87.4667713160193L86.44375,87.4554173483829L86.94375,87.48993853047854L87.19375,87.54781193975373L87.31875,87.57549890923575L87.44375000000001,87.61035810575095L87.50625,87.63011312339381L87.94375,87.6539908920583L88.00625000000001,87.66570025478403L88.06875,87.67267648942942L88.25625,87.71668961169738L88.75625,87.73183816332528L88.88125,87.74495200799161L89.13125,87.76647471154216L89.19375,87.77768462051553L89.50625,87.79937361188674L89.94375,87.79972026975992L90.63125000000001,87.80528631890492L90.75625000000001,87.80225554267459L91.13125,87.80772106796978L91.19375000000001,87.81053124474131L91.31875,87.81122969100318L91.3825,77.65297510819205L91.6325,78.9310509229585L91.88250000000001,79.75964984088448L92.0075,79.8962639812352L92.32000000000001,80.10578872876245L92.38250000000001,80.11456465682423L92.445,80.10057084753919L92.94500000000001,80.26945949627212L93.32,80.49126248975548L93.57000000000001,80.67086306247907L93.6325,80.77785796976724L93.69500000000001,80.85869698178925L94.2575,80.83939754365448L94.3825,80.8335463076203L94.57,80.86203574355653L94.94500000000001,80.92843832068998L95.445,80.99504544758098L95.57,81.05229377023541L96.82,81.20412489717324L96.88250000000001,81.29887791460014L97.1325,81.37555699556397L97.19500000000001,81.42465088102087L97.2575,81.4484775514286L98.38250000000001,81.51245284167034L98.69500000000001,81.56807267934522L99.13250000000001,81.60719770029174L99.195,81.63010480847409L99.57,81.65300961803898L99.695,81.66729571666849L100.0075,81.68887979372623L100.1325,81.6991141755078L100.2575,81.69152633334095L100.50750000000001,81.70527002585682L101.13250000000001,81.73744230004881L101.6325,81.77536305181548L101.69500000000001,81.8009797162989L101.75750000000001,81.81992998176791L101.88250000000001,81.84204094138684L102.3825,81.86730758374188L102.50874999999999,78.13466899626783L102.88375,76.62595409662434L103.00875,75.60047757604993L103.13375,74.9448210693338L103.19625,74.65426724209748L103.38374999999999,74.36571208975418L103.50875,74.19581358419697L103.69624999999999,74.21550478537257L104.19625,74.15262773361697L104.63374999999999,74.32784095568867L105.00875,74.42163549271355L105.25875,74.51667786212322L105.32125,74.59782687441162L105.38374999999999,74.66942998917114L105.44625,74.68639171376199L105.82124999999999,74.68970451289854L106.44624999999999,74.87682902210341L106.57124999999999,75.021795267044L106.75875,75.11679974989255L106.82125,75.17891357907256L107.00874999999999,75.24126843552949L107.38375,75.32361987035536L107.50874999999999,75.39463578940075L107.69625,75.47598629652752L107.88375,75.54827821257565L108.07124999999999,75.63836967079824L108.13375,75.70780734713453L108.50874999999999,75.77981580032612L109.25874999999999,75.8912434730046L109.94625,76.01824855850094L110.19624999999999,76.11845174296629L110.75875,76.22536403672443L111.07124999999999,76.29425218002476L111.13374999999999,76.33736285364704L111.32125,76.37137745117971L111.38374999999999,76.39521832750823L111.50875,76.41769573815974L111.57124999999999,76.43587356860611L112.82125,76.50137316238174L112.88375,76.54736431379976L112.94624999999999,76.57056391853551L113.25875,76.61645916743879L113.44625,76.65742849007623L113.635,74.64617162707138L113.75999999999999,73.14716897411215L114.01,72.05914905181463L114.07249999999999,71.3290527189972L114.26,70.80793273003118L114.50999999999999,70.32454374002505L114.63499999999999,70.02078187478561L115.51,70.0406246424495L116.0725,70.21662997900656L116.135,70.31959119097284L116.8225,70.37721974698785L117.3225,70.51310608469839L117.38499999999999,70.59083539709036L117.5725,70.65789285091404L117.69749999999999,70.72272005225653L117.76,70.7614188411018L118.26,70.83624333901828L118.3225,70.90486656449045L118.385,70.94218862654942L118.635,71.00877963988562L118.75999999999999,71.06742570962386L118.88499999999999,71.1295764640378L119.385,71.22027462043268L119.6975,71.28429850583565L119.76,71.33063880698158L119.94749999999999,71.3611837436172L120.38499999999999,71.42716529100339L121.135,71.52161872138822L121.44749999999999,71.59219209132016L121.51,71.63930157181981L121.63499999999999,71.68751798810251L121.6975,71.7309664369488L122.07249999999999,71.76130713489653L122.50999999999999,71.83822792884274L122.5725,71.88529399052653L123.13499999999999,71.93481769625132L123.385,71.96361833437011L123.51,71.98475059046577L123.75999999999999,72.02730665310763L124.32249999999999,72.08629726645617L124.69875,68.49700485578983L124.76125,66.88380277808692L125.07375,65.85578243256597L125.57375,65.2503283129664L125.69875,64.90856213337638L126.13625,64.86950334669845L126.19875,64.85554960878247L126.44875,65.01762275621408L126.76125,65.19190410916174L126.94875,65.32434961881731L127.07375,65.4314467075475L127.26125,65.52375449913791L127.44874999999999,65.5986454551646L127.69875,65.73553115626638L128.19875,65.88395924107867L128.69875000000002,66.0074360360357L128.82375,66.1029049477046L128.94875,66.1738653829516L129.13625000000002,66.20891073811619L129.19875,66.24783928511047L129.57375,66.32776462841714L129.63625,66.3845100066312L130.13625,66.47198962880127L130.32375,66.56746529494761L130.38625,66.62131857682654L130.44875,66.66975409220746L130.51125000000002,66.7033339450262L130.63625,66.7219756755207L130.82375000000002,66.77918566055037L131.26125000000002,66.83980809377337L131.32375,66.8897124929827L131.76125,66.97797644376544L131.82375,67.04387315763005L131.88625000000002,67.09030011306173L132.44875,67.18415665253164L132.69875,67.25071754665035L132.82375,67.3082344275819L132.88625,67.34649766338504L133.01125,67.38609767251606L133.32375,67.44645047362681L133.38625000000002,67.48772391077411L133.51125,67.52248802854902L133.57375,67.5571737364298L133.63625,67.57800985265337L133.94875,67.60646222817574L134.82375,67.69533652103186L135.38625,67.80409350308427L135.7,65.28607409945364L136.1375,63.483211454079125L136.20000000000002,62.4887289187898L136.7625,61.81332291146572L137.2,61.49924030671612L137.70000000000002,61.450100158816554L137.7625,61.42990007220757L137.95,61.482916184127035L138.3875,61.66018344849117L138.5125,61.79170444054367L138.76250000000002,61.91229627938297L139.38750000000002,62.128331192256965L139.45,62.2803720174671L139.6375,62.38431263253291L139.95000000000002,62.4608499197186L140.2,62.560846666142155L141.01250000000002,62.71141311776053L141.1375,62.800691254445425L141.20000000000002,62.87606072656638L141.575,62.95765298201576L141.63750000000002,63.021028168382L141.7,63.06367058977209L141.825,63.08214489203796L141.95000000000002,63.118809862246906L142.70000000000002,63.18308068386088L143.5125,63.28401389327111L143.825,63.40985813177237L144.20000000000002,63.49825363527793L144.575,63.59753810756949L144.63750000000002,63.66639279307509L145.0125,63.75259474234008L145.26250000000002,63.83199507782591L145.3875,63.89242547354219L145.5125,63.94485664021555L145.88750000000002,64.02769834137368L146.075,64.09676149417086L146.2,64.14733523900968L146.3875,64.17881529468416L146.575,64.20795029852565L146.70125000000002,78.54627619385265L147.26375,69.28038245991957L147.38875,63.738130266079594L148.13875,61.08273328438143L148.20125000000002,59.514458196836145L148.26375,58.60778963090364L149.13875000000002,58.43349424640435L149.38875,58.308694681276606L149.63875,58.26823488626955L149.88875000000002,58.33489778545497L149.95125,58.38267334590016L150.13875000000002,58.471363706581286L150.26375,58.52988659442117L150.38875000000002,58.54322242850998L150.88875,58.64043430050087L151.01375000000002,58.71330471426717L151.20125000000002,58.78233574493113L151.38875000000002,58.85365576380886L151.57625,58.90632437314686L151.70125,58.95496267031922L151.88875,58.98219502051546L152.07625000000002,59.01362093409554L152.13875,59.040624675602956L153.07625000000002,59.22359327792921L153.51375000000002,59.374090714626746L153.82625,59.49100660828597L153.88875,59.57411917937142L153.95125000000002,59.63786334222873L154.07625,59.68141851137415L154.13875000000002,59.70826766621724L154.26375,59.725414201914305L154.38875000000002,59.749504669053394L154.63875000000002,59.793983807291355L154.88875,59.847955392240564L155.20125000000002,59.930511461107756L155.32625,59.988440210737764L155.76375,60.070382907515096L155.88875000000002,60.13917826412904L155.95125,60.183443148995806L156.13875000000002,60.23666889454664L156.26375,60.28176490872731L156.51375000000002,60.35741537945161L156.70125000000002,60.415916845746324L156.82625,60.46279556865164L156.95125000000002,60.500824091901194L157.01375,60.53885116678846L157.63875000000002,60.62838383128759L157.70125,60.691115825672355L157.89,57.27935316683444L158.0775,55.64997690143234L158.265,54.82531495389212L158.3275,54.16543044960791L158.515,53.839722358898214L158.57750000000001,53.582198394476094L158.7025,53.41659753455498L159.01500000000001,53.35405203768961L159.07750000000001,53.356179280586076L159.515,53.52175283424293L159.5775,53.61996115766583L159.8275,53.77686200399222L159.9525,53.88897792016871L160.07750000000001,54.05140849171407L160.32750000000001,54.18736087539068L160.95250000000001,54.44540242056463L161.0775,54.63390654688783L161.20250000000001,54.780836370870574L161.265,54.92946373658481L161.515,55.0364921069189L161.7025,55.134561168803316L162.20250000000001,55.27609442278407L162.45250000000001,55.41540973872023L162.64000000000001,55.51314715493318L163.32750000000001,55.71208667941232L163.5775,55.886586502498304L163.70250000000001,56.010743294432174L163.89000000000001,56.126126485359535L164.015,56.204492253076566L164.0775,56.26657352567402L164.2025,56.32713106053946L164.32750000000001,56.40805842147989L164.39000000000001,56.46241733937579L164.515,56.49268699808562L164.64,56.51840439079034L164.7025,56.53111876196L164.95250000000001,56.548253610247684L165.01500000000001,56.56818889377648L165.14,56.60306377128005L165.3275,56.60826021544911L165.64000000000001,56.680267353079785L166.39,56.80606468652823L166.64,56.897864164811054L166.8275,56.975684718701956L167.4525,57.09217990748185L167.8275,57.19425003877183L167.89,57.25457853222976L168.01500000000001,57.29544232086485L168.20250000000001,57.33277547996569L168.39000000000001,57.38490393544039L168.45250000000001,57.427884777368675L168.515,57.460981965054074L169.07874999999999,55.47174271019365L169.14124999999999,54.008839638012546L169.20375,52.775071127889206L169.32874999999999,51.692758741186694L170.07875,51.250434186473385L170.14124999999999,50.98731107118802L170.20374999999999,50.820498880816544L170.26625,50.702683073163215L170.76624999999999,50.80759950121325L171.32875,50.98464875656957L171.64124999999999,51.2242617659269L172.39125,51.475980787805426L173.26625,51.79192669622719L173.45375,52.008704268801665L173.51625,52.14027699354298L173.57874999999999,52.24383804893114L173.70375,52.3370612744048L174.20374999999999,52.450797999550545L174.32875,52.56541066230133L174.45374999999999,52.669956236248055L174.57875,52.78130113432701L175.20375,52.97823225197399L175.70374999999999,53.13762571925963L175.76625,53.228125968665196L176.07874999999999,53.2995126328682L176.45375,53.41345613707176L176.95374999999999,53.565995546145714L177.32875,53.68302550595453L177.39124999999999,53.75474966303641L177.51625,53.814870671845284L177.64124999999999,53.8640297694957L177.95375,53.90989568928971L179.14124999999999,54.06262581245531L179.26625,54.16789359161024L179.51624999999999,54.24337531512232L179.57874999999999,54.30091133076378L180.14249999999998,50.91252505884539L180.2675,48.99907420611686L180.455,48.058140646273074L180.51749999999998,47.418419599500396L180.57999999999998,47.12300721513341L181.20499999999998,47.25230469529089L181.2675,47.31494482889323L181.455,47.52445578893756L181.57999999999998,47.69090333176095L181.82999999999998,47.823414013882626L181.955,47.91042663764421L182.1425,48.03357287711776L182.26749999999998,48.125806401608L182.3925,48.24408513712953L182.5175,48.356534090090264L183.07999999999998,48.4309911549596L183.32999999999998,48.53867808919384L183.58,48.68793269469177L183.70499999999998,48.78933737560408L183.8925,48.85020487564648L184.08,48.922602117948344L184.455,49.03021365890814L184.5175,49.09665713710626L184.76749999999998,49.145807226155796L184.955,49.225322248513066L185.1425,49.29752522499564L185.26749999999998,49.34060009593483L185.82999999999998,49.49224818566816L186.0175,49.58975559419565L186.07999999999998,49.66144529765728L186.1425,49.72142217681869L186.205,49.76627255103082L186.3925,49.814368078292546L186.6425,49.8939664169329L187.0175,49.99693560300065L187.08,50.06306281776634L187.2675,50.132689930095125L187.76749999999998,50.23787395672538L188.08,50.33994755185836L188.2675,50.42427825678975L188.45499999999998,50.50645710188991L188.5175,50.56936942271069L188.64249999999998,50.62217862717043L188.82999999999998,50.68986434959773L188.89249999999998,50.741414115351645L189.0175,50.78933172338361L189.3925,50.87311963062116L189.58,50.93517021809214L189.7675,50.99622786327723L189.83,51.04552918733788L190.08,51.10370273301716L190.455,51.1713477828323L191.20625,48.3292274596497L191.45625,46.59032544951151L191.58124999999998,45.52646561105982L191.89375,44.90303867949112L192.20624999999998,44.603254537595234L192.76875,44.48447081115802L193.01874999999998,44.48552196423387L193.26874999999998,44.60299281055387L193.45624999999998,44.770241287362154L194.39375,45.14227089324473L195.01874999999998,45.4726991281876L195.08125,45.691943839927404L195.14375,45.83072527501474L195.33125,45.97352533058057L195.70625,46.17853935939229L196.08124999999998,46.39310384024472L196.14375,46.53265740357867L196.20625,46.630414310755214L196.26874999999998,46.69625368011435L196.33125,46.76099200964882L196.39375,46.80067451820051L196.45624999999998,46.8357680365595L196.95625,46.93838015565379L198.39374999999998,47.15565199475941L198.45625,47.29636083463984L198.51875,47.39481090774416L198.95625,47.49143671554489L199.64374999999998,47.67864748520401L199.76875,47.817048165749526L200.01875,47.917298546111596L200.51874999999998,48.01401687846595L200.58125,48.0755293786776L200.76874999999998,48.14142469396785L200.89375,48.19417183298228L200.95624999999998,48.2395732791218L201.08125,48.293801950871455L202.20749999999998,45.10698795763224L202.52,43.46104918659998L202.7075,42.543757918831346L202.895,41.92644451514832L203.45749999999998,41.74704518698326L203.52,41.63876361121345L203.89499999999998,41.70999295232818L204.02,41.79117521475635L204.08249999999998,41.86783534458533L204.4575,42.01654804180083L204.645,42.18992427518708L204.70749999999998,42.31577729682388L205.02,42.49709216600269L205.14499999999998,42.62541206007751L205.27,42.709416381110486L205.4575,42.76957211426634L205.52,42.820036004266456L206.01999999999998,42.97848788895908L206.3325,43.11563332730293L206.45749999999998,43.20579717722333L206.52,43.300414230517276L206.5825,43.38360436217397L207.26999999999998,43.525667100614044L207.89499999999998,43.750337616103565L208.395,43.97879476604004L209.4575,44.26715384604091L209.77,44.496910349616684L209.895,44.6609619279873L209.9575,44.7749485168776L210.145,44.889464182924826L210.77,45.033680174349996L211.14499999999998,45.18035825109442L211.395,45.30893322347268L211.7075,45.420522842464266L211.8325,45.50797055473285L211.95749999999998,45.574908398180725L212.0825,45.629886001266385L212.20749999999998,45.685662813028955L212.4575,45.741524086077334L212.52,45.785781650243734L212.7075,45.82621280894955L212.77,45.86540985866523L212.83249999999998,45.89944666537667L213.0825,45.95577018317479L213.14625,43.64765006489432L213.33375,41.6324782003357L213.39624999999998,40.519573146231295L213.52125,39.696100854624405L213.83374999999998,39.114288597824356L213.95875,38.9158440549127L214.02124999999998,38.79124643427926L214.08375,38.665104860745174L214.45874999999998,38.668408009220514L214.58375,38.741205106047204L214.77125,38.83345153486414L215.33374999999998,39.03119524398309L215.52124999999998,39.24307655468175L215.64625,39.415613000458166L215.77124999999998,39.49985081030687L215.89625,39.58399862094967L216.02125,39.67843816848591L216.58374999999998,39.94023883770376L216.83374999999998,40.16001094511171L216.95875,40.283874165167134L217.14625,40.38658731648309L217.64624999999998,40.55772198772368L217.89624999999998,40.718032739864384L218.14625,40.87466397097819L218.52124999999998,41.03486529931283L218.95874999999998,41.198665484186364L219.08375,41.337735944897474L219.39624999999998,41.48095633078793L219.83374999999998,41.6867657706851L220.02124999999998,41.837979983540436L220.08375,41.93959746056109L220.39625,42.03234590087496L220.45874999999998,42.09263696612865L220.52125,42.150910493331224L220.64624999999998,42.201825315441255L220.83374999999998,42.263584258423094L221.14625,42.33886205851624L221.33375,42.39467077292937L221.39625,42.4362795034416L221.52124999999998,42.471639861155865L221.89624999999998,42.551547759466985L222.52125,42.679221335900365L222.95875,42.81259122883063L223.14625,42.9247367996208L223.20874999999998,43.00086369731511L223.64624999999998,43.11162661682661L223.70875,43.18551650853706L223.77125,43.24012210549506L223.83374999999998,43.293157181088276L224.14625,43.35969446845408L224.2725,40.374044497567496L225.7725,38.897915523558225L225.96,38.08364594277478L226.085,37.633035022163426L226.3975,37.37847102661479L226.58499999999998,37.28780704778717L226.6475,37.258692751399536L226.77249999999998,37.290310865683495L226.835,37.32718306814951L227.2725,37.36933119209718L227.39749999999998,37.40689173949485L227.5225,37.42967498288371L228.08499999999998,37.567024627514286L228.3975,37.74992879905824L228.45999999999998,37.847424320450585L228.835,37.98888505658155L228.96,38.107267857013625L229.085,38.2183471422089L229.21,38.31951342337581L229.46,38.458485231315905L229.6475,38.572090705994725L229.8975,38.67400726450583L230.46,38.85666404664744L230.5225,38.9783569484963L230.58499999999998,39.05640975459133L230.96,39.18689622340469L231.45999999999998,39.3634355634108L231.70999999999998,39.5174088167397L231.835,39.63766946662412L231.89749999999998,39.723924700215946L231.96,39.78543098090719L232.21,39.859742364290014L232.52249999999998,39.932650339117316L232.95999999999998,40.039259670356046L233.46,40.17255898713907L233.71,40.283081956559045L233.96,40.38796385344543L234.085,40.475263497170175L234.45999999999998,40.567989186281466L234.64749999999998,40.64404446613679L234.7725,40.708393787281494L234.89749999999998,40.74895400807554L235.0225,40.78590749451152L235.21,40.85158600061317L235.27375,38.606091537335175L235.46124999999998,36.42745691325692L235.71125,34.72237269642724L236.21125,33.63658107746221L236.52374999999998,32.954389886267876L236.58625,32.53435906270883L236.83625,32.39893380809755L237.27375,32.39674082241174L237.96125,32.46537603641582L238.14875,32.54453268417191L238.21124999999998,32.61177986884829L238.39875,32.679906111561024L238.71125,32.79715265131156L239.08624999999998,32.894340230257825L239.14875,32.98512209358782L239.39875,33.06598641977129L239.52374999999998,33.114282792026074L239.89875,33.16553234389457L239.96125,33.207590779738695L240.08625,33.249517291884445L240.33624999999998,33.31292032497089L240.77374999999998,33.36276467944637L241.14875,33.453190146446275L241.33625,33.52969246366672L241.71125,33.59579149693218L242.21125,33.71224146642996L242.39875,33.81722275405892L242.52375,33.89680421129543L242.58625,33.95633092876599L242.89874999999998,33.99876304589594L242.96125,34.033456935314575L243.14874999999998,34.076199316551L243.27375,34.11947447274312L243.33624999999998,34.15047663144415L243.46125,34.1848557919879L243.77374999999998,34.24397732906351L244.39874999999998,34.372512496070954L244.77375,34.50005362912336L244.89875,34.58818331161817L244.96125,34.65244390032319L245.21125,34.72193869681681L245.27374999999998,34.773833162159775L245.52375,34.83593297613112L245.64875,34.883637366910875L246.02375,34.92986503733408L246.08624999999998,34.95614484138119L246.27375,34.989196770329386L246.46249999999998,31.163451034498706L247.2125,29.37983359344426L247.52499999999998,28.461491131741212L247.5875,27.98806633209861L247.7125,27.776456298726572L248.275,27.805960282698294L248.3375,27.85828014911121L248.7125,27.977104652854564L248.775,28.0691895939145L249.65,28.29792300261994L249.89999999999998,28.483039856703385L250.025,28.6045544715505L250.15,28.72677215603045L250.33749999999998,28.870843899974744L250.52499999999998,28.98521302721855L251.0875,29.169859838703246L251.4625,29.364080487295098L251.58749999999998,29.523625460789674L252.275,29.72011843609738L252.3375,29.84823650022372L252.7125,29.97663848882391L253.15,30.113704706397954L254.65,30.39461220594106L254.7125,30.576292581022074L254.8375,30.702165097175083L255.02499999999998,30.802898623290787L255.15,30.87467213517826L256.46250000000003,31.097613783592834L256.65000000000003,31.26244067338726L256.9,31.396670336649436L256.9625,31.485652625906596L257.025,31.547017352355056L257.15,31.59635477620347L257.33875,25.51224429549839L257.52625,24.8245598785241L257.65125,24.366911941407835L257.77625,24.066841556268656L258.21375,23.998182659258248L258.40125,24.020345697295113L258.46375,24.136928043821L258.65125,24.241618385241424L258.96375,24.34603775921667L259.46375,24.58824593544827L259.71375,24.776484659546753L259.83875,24.9191317625249L259.96375,25.0211645600007L260.02625,25.104112754111185L260.40125,25.30267261961876L260.65125,25.472673018681775L260.77625,25.607463563517314L260.90125,25.723103515418643L261.08875,25.85789525688972L261.65125,26.06291913877513L261.77625,26.203538503861665L261.83875,26.300329944912846L262.08875,26.38934325281417L262.40125,26.493936706748883L262.52625,26.606446141591988L263.15125,26.7649152701824L263.27625,26.88678701944258L263.40125,26.98603367073872L264.21375,27.18276760789425L264.46375,27.345450193198843L264.58875,27.460590705851843L265.21375,27.66436711882352L265.52625,27.829991231876534L265.96375,27.99973646053931L266.15125,28.11481823907218L266.27625,28.20959584401149L266.65125,28.33446278428326L267.52625,28.550470151038752L267.58875,28.690840062924366L267.65125,28.781926245673674L267.77625,28.853096565497168L267.96375,28.917626038996502L268.08875,28.97217097140927L268.4025,36.131900438847026L268.65250000000003,30.346941444061144L268.71500000000003,26.887422900882683L269.09000000000003,24.826674820962864L269.1525,23.517657669122457L269.215,22.727457227982796L269.52750000000003,22.408103254136904L269.59,22.191626534335825L269.84,22.19564247999429L270.5275,22.37973206780839L270.9025,22.574927031434385L271.1525,22.73895785016387L271.27750000000003,22.93137686297473L271.46500000000003,23.04855667531325L271.59,23.13844491827379L271.965,23.24040282188045L272.1525,23.333627124591345L272.4025,23.438574323849224L272.6525,23.533641586940917L272.7775,23.633546380165342L272.96500000000003,23.763193346565117L273.09,23.87177182070542L273.34000000000003,23.99257353498365L273.465,24.09209175060667L273.6525,24.18432137893285L273.965,24.285733485651633L274.21500000000003,24.42719848095058L274.2775,24.502423103573847L274.40250000000003,24.581829672247324L274.965,24.741326085930098L275.0275,24.845246201984224L275.71500000000003,25.038339737792057L275.84,25.184813313112073L275.90250000000003,25.280006140832427L276.34000000000003,25.39013447729073L276.465,25.467890556314046L276.52750000000003,25.52138374785096L276.59000000000003,25.55666486563169L276.6525,25.58763605982648L276.9025,25.644712817092653L277.02750000000003,25.69913182289062L278.4025,25.954327671060383L278.59,26.125321822362736L279.15250000000003,26.298140925004986L279.34000000000003,26.431314031654352L279.465,26.520724121229932L279.46625,22.9883255860191" style="fill: none;" fill="none"></path></g></g></g></g><g opacity="0.2"><g><g><g><path stroke="rgb(255, 112, 67)" stroke-width="2px" d="M36.0625,202.00840481844816L36.06375,132.48585857044566L36.37625,147.29958274147728L36.50125,147.14482879638672L36.56375,147.23594041304153L36.81375,147.03550720214844L37.31375,146.51852902499112L37.81375,145.6093881780451L37.87625,145.51259751753372L37.93875,145.39654749090022L38.18875,144.96444632790306L38.87625,144.28802282159978L39.25125,143.57721640846947L39.56375,143.2043748335405L39.75125,142.99968233975497L40.501250000000006,142.02387445623225L40.876250000000006,141.6445513638583L41.18875,141.42615509033203L41.37625,141.28319133411753L41.626250000000006,141.07189386541194L41.87625,140.81596651944247L42.001250000000006,140.74485501376066L43.18875,139.40120558305222L43.50125,139.1643524169922L43.56375,139.08268529718572L43.87625,138.78743674538353L44.126250000000006,138.5000894719904L44.18875,138.43805209073153L44.31375,138.34650837291372L44.81375,137.9125553477894L44.876250000000006,137.86119703813034L45.251250000000006,137.4726763638583L45.31375,137.40897230668503L45.37625,137.3604535189542L45.563750000000006,137.18903281471947L46.12625,136.68970905650747L46.62625,136.172607421875L47.565,120.01585110751066L47.815,120.43770530007103L48.19,120.19825952703303L48.440000000000005,119.58640428022906L48.565,119.47874936190519L49.315,119.310847195712L49.3775,119.12652518532494L50.3775,118.72997977516869L51.19,118.3939902565696L51.2525,118.33615042946556L51.377500000000005,118.32115034623578L51.752500000000005,118.34936037930575L52.315,118.18256933038884L52.440000000000005,118.12071713534269L52.5025,118.08645768599078L52.69,118.03133392333984L53.065,117.87559231844816L53.6275,117.65225774591619L53.815000000000005,117.56515849720347L53.877500000000005,117.52312122691762L54.44,117.36398454145953L54.5025,117.33034237948331L55.44,117.01071097634056L55.565,116.99126642400569L55.690000000000005,116.94404393976384L56.565,116.6876844926314L56.8775,116.571757923473L57.0025,116.484843860973L57.19,116.3500282981179L57.69,116.12194061279297L58.065,115.95305078679866L58.190000000000005,115.89551960338247L58.31625,103.51112989945845L58.69125,104.83953233198686L59.00375,104.63144475763495L59.628750000000004,104.78663080388849L59.75375,104.8803350275213L60.003750000000004,104.87156954678622L60.378750000000004,104.71959339488636L60.628750000000004,104.8264458396218L60.691250000000004,104.6587905883789L61.003750000000004,104.53848127885298L61.128750000000004,104.67576599121094L61.19125,104.57249381325461L61.31625,104.54162944446911L61.441250000000004,104.58280251242898L61.50375,104.60391374067827L61.816250000000004,104.57576543634589L61.87875,104.58749389648438L62.441250000000004,104.68212405118075L62.816250000000004,104.73076629638672L62.941250000000004,104.72200081565164L63.253750000000004,104.62212371826172L63.566250000000004,104.56749378551136L63.69125,104.55181468616833L64.44125,104.4415054321289L64.87875,104.40422127463601L64.94125,104.38662858442827L65.06625,104.32594923539595L65.12875,104.3007021817294L65.19125,104.32335662841797L65.25375,104.33341841264205L65.37875,104.3066898692738L65.56625,104.27903539484198L65.81625000000001,104.24847966974433L66.12875,104.13699756969105L66.31625,104.17804718017578L66.56625,104.14631860906427L66.75375,104.14965196089311L66.94125,104.11582461270419L67.00375,104.07798489657316L67.19125,104.02860190651633L67.25375000000001,104.00767586447976L67.44125,103.99742889404297L67.50375,103.98353992808948L67.81625,103.87520599365234L67.87875,103.86810718883167L68.31625,103.79736605557528L68.50375,103.77082269841974L68.75375,103.73681016401811L68.94125,103.70106922496448L69.19125,103.62255027077414L69.38000000000001,93.56101296164773L69.63,95.12028087269177L69.8175,94.67620433460583L69.88,94.3745977228338L69.9425,94.14885572953658L70.38,94.99713204123758L70.755,94.73021697998047L70.88000000000001,94.93861319802024L70.9425,94.80453838001598L71.19250000000001,94.8581806529652L71.4425,94.98244060169567L71.63,94.86552637273614L71.6925,94.79910625110973L71.755,94.79688401655717L71.88,94.90682289817117L72.005,94.84595836292614L72.5675,94.84324229847302L72.63000000000001,94.90879821777344L72.8175,94.85120530561967L72.88,94.86095844615589L72.9425,94.78515555641867L73.0675,94.89330430464311L73.13,94.91558837890625L73.505,94.95848985151811L73.75500000000001,95.0004653930664L73.8175,94.99737895618786L73.9425,94.92034149169922L74.06750000000001,94.85793373801492L74.255,94.79922970858487L74.3175,94.8049087524414L74.38,94.79947662353516L74.44250000000001,94.81151372736151L74.63,94.8119458285245L74.88,94.84447687322442L75.1925,94.81410633433948L75.25500000000001,94.79861242120917L75.3175,94.79373585094105L75.69250000000001,94.89361294833097L76.0675,94.83342742919922L76.31750000000001,94.83441508900036L76.505,94.81305694580078L76.75500000000001,94.90540313720703L77.005,94.92373657226562L77.13,94.91830444335938L77.4425,94.89095861261542L77.63,94.89540308172052L78.9425,94.88398326526989L79.0675,94.88262523304333L79.13,94.87873632257636L79.38,94.90052656693892L79.50500000000001,94.86299549449573L79.755,94.82108168168502L79.88,94.83243976939808L80.31875000000001,127.59509069269353L80.69375,84.8852240822532L80.94375000000001,85.6510308005593L81.38125000000001,85.93337804620916L81.44375,85.96677329323508L81.50625000000001,86.05337871204723L81.56875,86.09424313631924L81.88125,86.3825780695135L82.00625000000001,86.62690041281961L82.19375,86.71727128462358L82.25625,86.65257956764914L82.38125,86.82449410178445L82.88125000000001,87.02005074240945L82.94375,86.98659376664595L83.13125,86.98437153209339L83.56875,87.22529879483311L83.75625,87.30159551447088L84.31875,87.42900362881748L84.44375,87.36091683127664L84.50625,87.38196633078836L84.56875000000001,87.2868423461914L84.75625,87.219125921076L84.81875,87.23486674915661L85.06875,87.28517567027698L85.38125,87.32468206232244L85.44375000000001,87.32042277943005L85.69375,87.47486808083274L85.75625000000001,87.44264567982067L85.81875,87.44418889825994L85.88125,87.47307794744319L86.13125,87.51554731889205L86.19375000000001,87.50054723566228L86.38125000000001,87.44344815340908L86.44375,87.43838639692827L86.94375,87.54172030362217L87.19375,87.63462205366655L87.31875,87.61702936345881L87.44375000000001,87.6626469005238L87.50625,87.65974564985795L87.94375,87.68980754505505L88.00625000000001,87.68326429887252L88.06875,87.68314084139736L88.25625,87.78270929509944L88.75625,87.75456099076705L88.88125,87.76462277499111L89.13125,87.79875876686789L89.19375,87.79449948397549L89.50625,87.83190709894353L89.94375,87.80024025656961L90.63125000000001,87.81363539262252L90.75625000000001,87.7977093783292L91.13125,87.81591935591264L91.19375000000001,87.8147465098988L91.31875,87.81227736039595L91.3825,62.415593233975486L91.6325,80.8481646451083L91.88250000000001,81.00254821777344L92.0075,80.10118519176136L92.32000000000001,80.42007585005327L92.38250000000001,80.12772854891689L92.445,80.0795801336115L92.94500000000001,80.52279246937145L93.32,80.82396697998047L93.57000000000001,80.94026392156428L93.6325,80.93835033069958L93.69500000000001,80.97995549982244L94.2575,80.81044838645242L94.3825,80.82476945356889L94.57,80.90476989746094L94.94500000000001,81.02804218639027L95.445,81.09495613791726L95.57,81.13816625421697L96.82,81.4318715875799L96.88250000000001,81.4410074407404L97.1325,81.49057561700994L97.19500000000001,81.49829170920633L97.2575,81.48421755704014L98.38250000000001,81.60841577703303L98.69500000000001,81.6515024358576L99.13250000000001,81.66588523171164L99.195,81.66446547074752L99.57,81.68736683238636L99.695,81.68872486461292L100.0075,81.72125590931286L100.1325,81.71446574818005L100.2575,81.68014457009055L100.50750000000001,81.72588556463069L101.13250000000001,81.78570071133701L101.6325,81.83224417946555L101.69500000000001,81.8394047130238L101.75750000000001,81.84835537997158L101.88250000000001,81.87520738081498L102.3825,81.90520754727451L102.50874999999999,72.53571111505681L102.88375,74.36288174715908L103.00875,74.0622627951882L103.13375,73.9613363092596L103.19625,74.21843650124289L103.38374999999999,73.93287936123936L103.50875,73.94096582586116L103.69624999999999,74.24504158713601L104.19625,74.05831215598367L104.63374999999999,74.59066078879617L105.00875,74.56232729825108L105.25875,74.65924141623758L105.32125,74.71955039284445L105.38374999999999,74.77683466131037L105.44625,74.71183430064808L105.82124999999999,74.69467371160334L106.44624999999999,75.15751578591086L106.57124999999999,75.2392446344549L106.75875,75.25930647416548L106.82125,75.27208432284267L107.00874999999999,75.33480072021484L107.38375,75.44714702259411L107.50874999999999,75.50115966796875L107.69625,75.59801205721767L107.88375,75.65671608664773L108.07124999999999,75.77350685813211L108.13375,75.81196386163884L108.50874999999999,75.88782848011364L109.25874999999999,76.05838498202236L109.94625,76.20875618674539L110.19624999999999,76.26875651966442L110.75875,76.3857324773615L111.07124999999999,76.39758439497514L111.13374999999999,76.40202886408025L111.32125,76.42239934747869L111.38374999999999,76.43097964200108L111.50875,76.45141185413708L111.57124999999999,76.46314031427556L112.82125,76.5996225530451L112.88375,76.61635104092686L112.94624999999999,76.6053633256392L113.25875,76.68530204079367L113.44625,76.71888247403233L113.635,71.62928633256392L113.75999999999999,70.8986649946733L114.01,70.42711916836826L114.07249999999999,70.23390821977095L114.26,70.02625274658203L114.50999999999999,69.59946025501598L114.63499999999999,69.56513907692649L115.51,70.07038879394531L116.0725,70.48063798384233L116.135,70.47403300892223L116.8225,70.4636625810103L117.3225,70.7169355912642L117.38499999999999,70.70742936567827L117.5725,70.75847903164951L117.69749999999999,70.81996085427024L117.76,70.81946702436967L118.26,70.94848008589311L118.3225,71.00780140269886L118.385,70.9981717196378L118.635,71.10866615988992L118.75999999999999,71.15539481423117L118.88499999999999,71.22280259565873L119.385,71.35632185502486L119.6975,71.38033433393998L119.76,71.4001492587003L119.94749999999999,71.40700114857067L120.38499999999999,71.52613761208274L121.135,71.66329886696555L121.44749999999999,71.69805214621805L121.51,71.70996579256924L121.63499999999999,71.75984261252664L121.6975,71.79613911021839L122.07249999999999,71.80681818181819L122.50999999999999,71.95360911976208L122.5725,71.9558930830522L123.13499999999999,72.00910325483842L123.385,72.0068192915483L123.51,72.01644897460938L123.75999999999999,72.09114074707031L124.32249999999999,72.17478318647905L124.69875,63.113066239790484L124.76125,64.46399966153233L125.07375,64.31375191428445L125.57375,64.34214713356711L125.69875,64.39591286399148L126.13625,64.81091516668147L126.19875,64.83461900190873L126.44875,65.2607324773615L126.76125,65.45332613858311L126.94875,65.52301788330078L127.07375,65.59209234064275L127.26125,65.66221618652344L127.44874999999999,65.71098188920455L127.69875,65.94085970791905L128.19875,66.10660136829723L128.69875000000002,66.19265122847123L128.82375,66.24610831520774L128.94875,66.2803060358221L129.13625000000002,66.26147877086292L129.19875,66.30623210560192L129.57375,66.44765264337713L129.63625,66.46962807395242L130.13625,66.60320906205611L130.32375,66.71067879416726L130.38625,66.70209849964489L130.44875,66.74240736527877L130.51125000000002,66.75370372425427L130.63625,66.74993827126242L130.82375000000002,66.86500063809483L131.26125000000002,66.93074174360795L131.32375,66.96456909179688L131.76125,67.11037236993963L131.82375,67.14271822842686L131.88625000000002,67.15994054620916L132.44875,67.3249414617365L132.69875,67.35055888782848L132.82375,67.39450974897905L132.88625,67.40389251708984L133.01125,67.44549768621272L133.32375,67.53697967529297L133.38625000000002,67.54963406649502L133.51125,67.5746342052113L133.57375,67.60920229825108L133.63625,67.60926402698864L133.94875,67.64914079145952L134.82375,67.82864796031605L135.38625,67.96722897616299L135.7,61.50904499400745L136.1375,60.778917486017406L136.20000000000002,60.99700511585583L136.7625,60.80021390047939L137.2,61.028116399591624L137.70000000000002,61.37638993696733L137.7625,61.399599942294046L137.95,61.56244035200639L138.3875,61.92608434503728L138.5125,61.98898592862217L138.76250000000002,62.09318403764205L139.38750000000002,62.45238356156783L139.45,62.50843325528233L139.6375,62.54022355513139L139.95000000000002,62.57565585049717L140.2,62.7108417857777L141.01250000000002,62.937262795188204L141.1375,62.934608459472656L141.20000000000002,62.989114934747874L141.575,63.080041365189985L141.63750000000002,63.11609094793147L141.7,63.12763422185725L141.825,63.109856345436796L141.95000000000002,63.173807317560374L142.70000000000002,63.279486916281954L143.5125,63.43541370738636L143.825,63.59862448952414L144.20000000000002,63.63084689053623L144.575,63.746464816006736L144.63750000000002,63.76967482133345L145.0125,63.88189766623758L145.26250000000002,63.95109558105469L145.3875,63.983071067116484L145.5125,64.02350339022549L145.88750000000002,64.1519608931108L146.075,64.20035622336648L146.2,64.22319585626775L146.3875,64.22603537819602L146.575,64.25165280428799L146.70125000000002,100.05376503684305L147.26375,55.38154185901989L147.38875,55.42475197531961L148.13875,57.09963781183416L148.20125000000002,57.162045565518454L148.26375,57.24778678200461L149.13875000000002,58.172051169655546L149.38875,58.12149533358486L149.63875,58.20754519375889L149.88875000000002,58.43489213423295L149.95125,58.45433668656783L150.13875000000002,58.604399247602984L150.26375,58.617670926180764L150.38875000000002,58.56322617964311L150.88875,58.786252108487204L151.01375000000002,58.82261033491655L151.20125000000002,58.88588229092686L151.38875000000002,58.96063579212536L151.57625,58.985327287153765L151.70125,59.027920116077766L151.88875,59.02304354580967L152.07625000000002,59.06075980446555L152.13875,59.081130287863985L153.07625000000002,59.49804618141867L153.51375000000002,59.5998368696733L153.82625,59.66638044877486L153.88875,59.69878803599964L153.95125000000002,59.73347958651455L154.07625,59.74675126509233L154.13875000000002,59.74854139848189L154.26375,59.75113400545986L154.38875000000002,59.78564036976208L154.63875000000002,59.86070251464844L154.88875,59.92891276966442L155.20125000000002,60.054345564408735L155.32625,60.07533333518289L155.76375,60.19329695268111L155.88875000000002,60.24237129905008L155.95125,60.24984047629617L156.13875000000002,60.316507512872874L156.26375,60.34940892999822L156.51375000000002,60.470891085537986L156.70125000000002,60.503669045188204L156.82625,60.53311365300959L156.95125000000002,60.55786687677556L157.01375,60.59589177911931L157.63875000000002,60.76268282803623L157.70125,60.78521381724964L157.89,52.161709178577766L158.0775,53.2059125033292L158.265,53.58832203258167L158.3275,53.17560369318181L158.515,53.35116022283381L158.57750000000001,53.19591244784267L158.7025,53.1681962446733L159.01500000000001,53.2602337923917L159.07750000000001,53.359370144930764L159.515,53.77011316472834L159.5775,53.76727364280008L159.8275,54.01221327348189L159.9525,54.057151794433594L160.07750000000001,54.29505434903233L160.32750000000001,54.391289450905546L160.95250000000001,54.83246473832564L161.0775,54.916662736372515L161.20250000000001,55.00123110684483L161.265,55.15240478515625L161.515,55.197034662420094L161.7025,55.28166476162998L162.20250000000001,55.48839430375533L162.45250000000001,55.624382712624296L162.64000000000001,55.659753279252485L163.32750000000001,56.01049596613103L163.5775,56.148336237127126L163.70250000000001,56.19697848233311L163.89000000000001,56.299201271750704L164.015,56.322040904651985L164.0775,56.35969543457031L164.2025,56.41796736283736L164.32750000000001,56.529449462890625L164.39000000000001,56.54395571621983L164.515,56.53809148615056L164.64,56.5569804798473L164.7025,56.550190318714485L164.95250000000001,56.57395588267933L165.01500000000001,56.59809181906961L165.14,56.655376087535515L165.3275,56.616054881702766L165.64000000000001,56.78827805952592L166.39,56.994760686701L166.64,57.03556338223545L166.8275,57.09241554953836L167.4525,57.26692269065164L167.8275,57.34735523570667L167.89,57.34507127241655L168.01500000000001,57.35673800381748L168.20250000000001,57.38877521861683L168.39000000000001,57.463096618652344L168.45250000000001,57.492356040261015L168.515,57.51062774658203L169.07874999999999,52.48788382790305L169.14124999999999,51.814485029740766L169.20375,50.9244183627042L169.32874999999999,50.06929016113281L170.07875,50.58694735440342L170.14124999999999,50.59262639825994L170.20374999999999,50.570280595259234L170.26625,50.525959361683235L170.76624999999999,50.96497414328836L171.32875,51.25022263960405L171.64124999999999,51.58368127996272L172.39125,51.85355932062322L173.26625,52.26584555886008L173.45375,52.33387062766336L173.51625,52.33763608065517L173.57874999999999,52.3991796320135L173.70375,52.47689611261541L174.20374999999999,52.62140308726917L174.32875,52.73732965642756L174.45374999999999,52.82677459716797L174.57875,52.94831848144531L175.20375,53.27362892844461L175.70374999999999,53.376715920188204L175.76625,53.36387634277344L176.07874999999999,53.40659262917258L176.45375,53.584371393377126L176.95374999999999,53.794804659756736L177.32875,53.85857044566761L177.39124999999999,53.86233589865945L177.51625,53.905052185058594L177.64124999999999,53.937768415971235L177.95375,53.97869456898083L179.14124999999999,54.291720997203484L179.26625,54.32579526034267L179.51624999999999,54.356597900390625L179.57874999999999,54.38721535422586L180.14249999999998,45.82994565096769L180.2675,46.128897927024155L180.455,46.64674030650744L180.51749999999998,46.45883802934125L180.57999999999998,46.679888638583094L181.20499999999998,47.446250915527344L181.2675,47.408905029296875L181.455,47.838722229003906L181.57999999999998,47.940574645996094L181.82999999999998,48.022180037065L181.955,48.040945573286564L182.1425,48.218292236328125L182.26749999999998,48.26415668834338L182.3925,48.42150324041194L182.5175,48.52520751953125L183.07999999999998,48.542676752263844L183.32999999999998,48.700208490545094L183.58,48.91181460293856L183.70499999999998,48.941444396972656L183.8925,48.94150612571022L184.08,49.031197981400936L184.455,49.19163097034803L184.5175,49.19632235440341L184.76749999999998,49.219532359730096L184.955,49.344594782049L185.1425,49.40582968971947L185.26749999999998,49.40521240234375L185.82999999999998,49.719720320268124L186.0175,49.736016706986874L186.07999999999998,49.76897985284978L186.1425,49.81138749556109L186.205,49.833548112349064L186.3925,49.886511369185L186.6425,50.013363924893454L187.0175,50.151389382102266L187.08,50.162253639914766L187.2675,50.23713059858842L187.76749999999998,50.3956499966708L188.08,50.49305794455789L188.2675,50.550774314186796L188.45499999999998,50.62972536954014L188.5175,50.663737903941765L188.64249999999998,50.70139243386008L188.82999999999998,50.79139293323864L188.89249999999998,50.818738763982594L189.0175,50.86120813543147L189.3925,50.998801491477266L189.58,51.028246099298656L189.7675,51.08781433105469L189.83,51.11948117342861L190.08,51.19096305153586L190.455,51.27281535755505L191.20625,44.06604697487572L191.45625,43.98197243430397L191.58124999999998,43.93067585338244L191.89375,43.96789828213778L192.20624999999998,44.15357832475141L192.76875,44.306295221502126L193.01874999999998,44.487098693847656L193.26874999999998,44.77919908003375L193.45624999999998,45.02111400257459L194.39375,45.70031530206853L195.01874999999998,45.968341480601936L195.08125,46.02081090753728L195.14375,46.038897427645594L195.33125,46.187725413929314L195.70625,46.48606040261009L196.08124999999998,46.71495056152344L196.14375,46.74198774857953L196.20625,46.777049671519904L196.26874999999998,46.79501273415306L196.33125,46.858099503950626L196.39375,46.86019828102806L196.45624999999998,46.88840831409803L196.95625,47.092298334295094L198.39374999999998,47.48155975341797L198.45625,47.50742409446022L198.51875,47.54248601740056L198.95625,47.636375427246094L199.64374999999998,47.959463639692814L199.76875,48.024649186567814L200.01875,48.06767411665484L200.51874999999998,48.1590943769975L200.58125,48.16779812899503L200.76874999999998,48.24026766690341L200.89375,48.273292541503906L200.95624999999998,48.30767544833097L201.08125,48.375144958496094L202.20749999999998,40.32676696777344L202.52,40.9921410300515L202.7075,41.167821017178625L202.895,41.00047440962359L203.45749999999998,41.47794619473544L203.52,41.476341247558594L203.89499999999998,41.81683696400037L204.02,41.91294860839844L204.08249999999998,41.98282553932884L204.4575,42.23961708762428L204.645,42.44998862526634L204.70749999999998,42.504556829279124L205.02,42.76906446977094L205.14499999999998,42.817891901189626L205.27,42.83542286265978L205.4575,42.85980571400037L205.52,42.89573183926669L206.01999999999998,43.216165715997874L206.3325,43.321351484818905L206.45749999999998,43.34104295210406L206.52,43.442339810458094L206.5825,43.50838955965909L207.26999999999998,43.738761208274155L207.89499999999998,44.08734338933772L208.395,44.321480490944595L209.4575,44.69969246604225L209.77,44.84154510498047L209.895,44.90703929554334L209.9575,44.94592840021306L210.145,45.06123768199572L210.77,45.25000416148791L211.14499999999998,45.40037536621094L211.395,45.501795682040125L211.7075,45.58790727095172L211.8325,45.639142123135656L211.95749999999998,45.67531516335228L212.0825,45.712352405894904L212.20749999999998,45.76932803067294L212.4575,45.825315995649845L212.52,45.85216799649325L212.7075,45.886859547008186L212.77,45.924205433238654L212.83249999999998,45.950501875443905L213.0825,46.04025545987216L213.14625,40.185469887473374L213.33375,38.609720403497874L213.39624999999998,38.85021556507459L213.52125,38.460892417214126L213.83374999999998,38.24157021262428L213.95875,38.618177240545094L214.02124999999998,38.60435000332919L214.08375,38.475892500443905L214.45874999999998,38.673362731933594L214.58375,38.85040075128728L214.77125,38.97182117808947L215.33374999999998,39.327810807661564L215.52124999999998,39.56089852072975L215.64625,39.674417669122874L215.77124999999998,39.626207525079906L215.89625,39.71022033691406L216.02125,39.82009748979047L216.58374999999998,40.33293984153053L216.83374999999998,40.489669106223374L216.95875,40.46966899525037L217.14625,40.54065704345703L217.64624999999998,40.81442399458453L217.89624999999998,40.95849886807528L218.14625,41.109610817649155L218.52124999999998,41.275167291814626L218.95874999999998,41.44436576149681L219.08375,41.546341635964126L219.39624999999998,41.69578690962359L219.83374999999998,41.99547993053088L220.02124999999998,42.064801302823156L220.08375,42.09202367609197L220.39625,42.171468561345876L220.45874999999998,42.18307356400922L220.52125,42.23832078413531L220.64624999999998,42.27819754860619L220.83374999999998,42.35622267289594L221.14625,42.45177875865588L221.33375,42.478383844549L221.39625,42.498692599209875L221.52124999999998,42.52468039772728L221.89624999999998,42.671409606933594L222.52125,42.87073170055041L222.95875,43.01264606822619L223.14625,43.092955155806095L223.20874999999998,43.11505404385653L223.64624999999998,43.27777099609375L223.70875,43.296351346102625L223.77125,43.322030500932186L223.83374999999998,43.37270979447797L224.14625,43.45950039950284L224.2725,35.89556954123756L225.7725,36.683722062544376L225.96,36.86224157159978L226.085,36.95711864124647L226.3975,36.996625033291906L226.58499999999998,37.15181107954547L226.6475,37.21502130681819L226.77249999999998,37.337738037109375L226.835,37.382491371848374L227.2725,37.43255337801847L227.39749999999998,37.46323256059125L227.5225,37.46384984796697L228.08499999999998,37.77304909446022L228.3975,38.02428505637428L228.45999999999998,37.99366760253906L228.835,38.20107616077772L228.96,38.284842057661564L229.085,38.38496607000178L229.21,38.47126284512606L229.46,38.66694294322619L229.6475,38.742498918013126L229.8975,38.82688210227272L230.46,39.13064921985975L230.5225,39.16089630126953L230.58499999999998,39.173488963734L230.96,39.38262592662463L231.45999999999998,39.62824457341975L231.70999999999998,39.74836869673297L231.835,39.818060441450626L231.89749999999998,39.85330755060369L231.96,39.87769040194425L232.21,39.971209439364344L232.52249999999998,40.04201230135831L232.95999999999998,40.199173667214126L233.46,40.37250796231356L233.71,40.44886641068891L233.96,40.545286698774845L234.085,40.60621296275744L234.45999999999998,40.7070777199485L234.64749999999998,40.75812738591975L234.7725,40.80491776899859L234.89749999999998,40.80979433926669L235.0225,40.84133772416547L235.21,40.950103759765625L235.27375,35.23784984241834L235.46124999999998,33.15950497713956L235.71125,32.16474637118253L236.21125,32.00789364901456L236.52374999999998,31.93110309947619L236.58625,31.904312827370376L236.83625,32.19579592618075L237.27375,32.393451343883186L237.96125,32.568328857421875L238.14875,32.663267655806095L238.21124999999998,32.71265064586291L238.39875,32.782095475630314L238.71125,32.9730224609375L239.08624999999998,33.04012159867719L239.14875,33.121294888583094L239.39875,33.1872829090465L239.52374999999998,33.186727350408376L239.89875,33.24240667169744L239.96125,33.27067843350497L240.08625,33.31240706010297L240.33624999999998,33.4080248746005L240.77374999999998,33.43753121115944L241.14875,33.58882834694603L241.33625,33.6444459394975L241.71125,33.694940046830624L242.21125,33.8869164206765L242.39875,33.9746946855025L242.52375,34.01617639715022L242.58625,34.04562100497159L242.89874999999998,34.06241122159091L242.96125,34.08549776944247L243.14874999999998,34.14031288840553L243.27375,34.18438720703125L243.33624999999998,34.19697986949572L243.46125,34.236424532803625L243.77374999999998,34.332659634676844L244.39874999999998,34.56531524658203L244.77375,34.69136532870206L244.89875,34.72037783536044L244.96125,34.74883478338069L245.21125,34.826180891557186L245.27374999999998,34.851674860174L245.52375,34.92908269708806L245.64875,34.955193953080624L246.02375,34.99920654296875L246.08624999999998,34.99556454745206L246.27375,35.03877466375178L246.46249999999998,25.424832430752843L247.2125,26.704407431862563L247.52499999999998,27.083977439186782L247.5875,27.277929132634938L247.7125,27.459041248668342L248.275,27.850216258655877L248.3375,27.93675994873047L248.7125,28.155341408469468L248.775,28.20731700550428L249.65,28.64102311567828L249.89999999999998,28.760715137828498L250.025,28.78682639382103L250.15,28.910098682750373L250.33749999999998,29.086951515891343L250.52499999999998,29.156766718084157L251.0875,29.446830055930405L251.4625,29.655411460182876L251.58749999999998,29.762942921031623L252.275,30.014857899058967L252.3375,30.040413596413345L252.7125,30.169241471724064L253.15,30.31930403275922L254.65,30.815973455255687L254.7125,30.84881314364347L254.8375,30.89097387140447L255.02499999999998,30.95399891246447L255.15,30.982332403009593L256.46250000000003,31.43202625621447L256.65000000000003,31.509681008078843L256.9,31.59801483154297L256.9625,31.61912605979225L257.025,31.639064442027717L257.15,31.67036091197619L257.33875,16.38607857444069L257.52625,23.793033253062873L257.65125,23.680440035733312L257.77625,23.61673597856L258.21375,23.895194313742905L258.40125,24.053590254350155L258.46375,24.311801563609748L258.65125,24.398653897372157L258.96375,24.502666820179314L259.46375,24.951558199795812L259.71375,25.05884274569425L259.83875,25.133102416992188L259.96375,25.17421375621447L260.02625,25.22853504527697L260.40125,25.60051241787997L260.65125,25.72767361727628L260.77625,25.809649380770594L260.90125,25.896563443270594L261.08875,26.06008286909625L261.65125,26.370454961603343L261.77625,26.41446755149147L261.83875,26.44551710648969L262.08875,26.522863214666188L262.40125,26.650826887650936L262.52625,26.77521029385653L263.15125,27.002618963068187L263.27625,27.06959464333275L263.40125,27.134903647682876L264.21375,27.4778685136275L264.46375,27.589474071155877L264.58875,27.633301474831313L265.21375,27.97003173828125L265.52625,28.07842740145597L265.96375,28.254354303533376L266.15125,28.287440906871467L266.27625,28.351762251420467L266.65125,28.521763194691033L267.52625,28.874481201171875L267.58875,28.901394930752843L267.65125,28.918555519797593L267.77625,28.959852045232594L267.96375,29.014420249245376L268.08875,29.053988370028407L268.4025,46.87149464000353L268.65250000000003,21.669502951882095L268.71500000000003,21.698145086115062L269.09000000000003,21.735552701083094L269.1525,21.554131941361874L269.215,21.542156566273064L269.52750000000003,21.92907229336825L269.59,21.86691145463422L269.84,22.201666398481876L270.5275,22.65586644952947L270.9025,22.86771947687322L271.1525,22.985004078258186L271.27750000000003,23.220005382191033L271.46500000000003,23.22432639382103L271.59,23.273277282714844L271.965,23.39333967729047L272.1525,23.473463578657658L272.4025,23.595995122736156L272.6525,23.676242481578498L272.7775,23.78340357000178L272.96500000000003,23.95766379616478L273.09,24.034639531915843L273.34000000000003,24.173776106400936L273.465,24.241369074041188L273.6525,24.322665821422248L273.965,24.43785164572975L274.21500000000003,24.639395973899155L274.2775,24.615260037508875L274.40250000000003,24.70093952525744L274.965,24.980570706454188L275.0275,25.001126376065343L275.71500000000003,25.327980041503906L275.84,25.40452367609197L275.90250000000003,25.422795382413L276.34000000000003,25.55532698197797L276.465,25.584524674849064L276.52750000000003,25.60162353515625L276.59000000000003,25.609586542302907L276.6525,25.634092851118595L276.9025,25.730327952991814L277.02750000000003,25.780760331587345L278.4025,26.337121443315L278.59,26.381813049316406L279.15250000000003,26.557369578968377L279.34000000000003,26.63107369162819L279.465,26.654839255593032L279.46625,17.689727783203125" style="fill: none;" fill="none"></path></g></g></g></g></g></g><g transform="translate(30, 178)" clip-path="url(#clip_1)"><clipPath id="clip_1"><rect width="300" height="22"></rect></clipPath><g><g><line x1="0" y1="0" x2="0" y2="5" style="visibility: inherit;" fill="rgb(0, 0, 0)" stroke="rgb(204, 204, 204)" stroke-width="1px"></line><line x1="25" y1="0" x2="25" y2="5" style="visibility: inherit;" fill="rgb(0, 0, 0)" stroke="rgb(204, 204, 204)" stroke-width="1px"></line><line x1="50" y1="0" x2="50" y2="5" style="visibility: inherit;" fill="rgb(0, 0, 0)" stroke="rgb(204, 204, 204)" stroke-width="1px"></line><line x1="75" y1="0" x2="75" y2="5" style="visibility: inherit;" fill="rgb(0, 0, 0)" stroke="rgb(204, 204, 204)" stroke-width="1px"></line><line x1="100" y1="0" x2="100" y2="5" style="visibility: inherit;" fill="rgb(0, 0, 0)" stroke="rgb(204, 204, 204)" stroke-width="1px"></line><line x1="125" y1="0" x2="125" y2="5" style="visibility: inherit;" fill="rgb(0, 0, 0)" stroke="rgb(204, 204, 204)" stroke-width="1px"></line><line x1="150" y1="0" x2="150" y2="5" style="visibility: inherit;" fill="rgb(0, 0, 0)" stroke="rgb(204, 204, 204)" stroke-width="1px"></line><line x1="175" y1="0" x2="175" y2="5" style="visibility: inherit;" fill="rgb(0, 0, 0)" stroke="rgb(204, 204, 204)" stroke-width="1px"></line><line x1="200" y1="0" x2="200" y2="5" style="visibility: inherit;" fill="rgb(0, 0, 0)" stroke="rgb(204, 204, 204)" stroke-width="1px"></line><line x1="225" y1="0" x2="225" y2="5" style="visibility: inherit;" fill="rgb(0, 0, 0)" stroke="rgb(204, 204, 204)" stroke-width="1px"></line><line x1="250" y1="0" x2="250" y2="5" style="visibility: inherit;" fill="rgb(0, 0, 0)" stroke="rgb(204, 204, 204)" stroke-width="1px"></line><line x1="275" y1="0" x2="275" y2="5" style="visibility: inherit;" fill="rgb(0, 0, 0)" stroke="rgb(204, 204, 204)" stroke-width="1px"></line><line x1="300" y1="0" x2="300" y2="5" style="visibility: inherit;" fill="rgb(0, 0, 0)" stroke="rgb(204, 204, 204)" stroke-width="1px"></line></g><g transform="translate(0, 8)"><text x="0" y="0" dx="0em" dy="0.95em" style="text-anchor: middle; visibility: hidden; font-family: &quot;Helvetica Neue&quot;, sans-serif; font-size: 12px; font-weight: 200;" fill="rgb(50, 49, 63)" stroke="none" stroke-width="1px">-20k</text><text x="25" y="0" dx="0em" dy="0.95em" style="text-anchor: middle; visibility: inherit; font-family: &quot;Helvetica Neue&quot;, sans-serif; font-size: 12px; font-weight: 200;" fill="rgb(50, 49, 63)" stroke="none" stroke-width="1px">0</text><text x="50" y="0" dx="0em" dy="0.95em" style="text-anchor: middle; visibility: hidden; font-family: &quot;Helvetica Neue&quot;, sans-serif; font-size: 12px; font-weight: 200;" fill="rgb(50, 49, 63)" stroke="none" stroke-width="1px">20k</text><text x="75" y="0" dx="0em" dy="0.95em" style="text-anchor: middle; visibility: inherit; font-family: &quot;Helvetica Neue&quot;, sans-serif; font-size: 12px; font-weight: 200;" fill="rgb(50, 49, 63)" stroke="none" stroke-width="1px">40k</text><text x="100" y="0" dx="0em" dy="0.95em" style="text-anchor: middle; visibility: hidden; font-family: &quot;Helvetica Neue&quot;, sans-serif; font-size: 12px; font-weight: 200;" fill="rgb(50, 49, 63)" stroke="none" stroke-width="1px">60k</text><text x="125" y="0" dx="0em" dy="0.95em" style="text-anchor: middle; visibility: inherit; font-family: &quot;Helvetica Neue&quot;, sans-serif; font-size: 12px; font-weight: 200;" fill="rgb(50, 49, 63)" stroke="none" stroke-width="1px">80k</text><text x="150" y="0" dx="0em" dy="0.95em" style="text-anchor: middle; visibility: hidden; font-family: &quot;Helvetica Neue&quot;, sans-serif; font-size: 12px; font-weight: 200;" fill="rgb(50, 49, 63)" stroke="none" stroke-width="1px">100k</text><text x="175" y="0" dx="0em" dy="0.95em" style="text-anchor: middle; visibility: inherit; font-family: &quot;Helvetica Neue&quot;, sans-serif; font-size: 12px; font-weight: 200;" fill="rgb(50, 49, 63)" stroke="none" stroke-width="1px">120k</text><text x="200" y="0" dx="0em" dy="0.95em" style="text-anchor: middle; visibility: hidden; font-family: &quot;Helvetica Neue&quot;, sans-serif; font-size: 12px; font-weight: 200;" fill="rgb(50, 49, 63)" stroke="none" stroke-width="1px">140k</text><text x="225" y="0" dx="0em" dy="0.95em" style="text-anchor: middle; visibility: inherit; font-family: &quot;Helvetica Neue&quot;, sans-serif; font-size: 12px; font-weight: 200;" fill="rgb(50, 49, 63)" stroke="none" stroke-width="1px">160k</text><text x="250" y="0" dx="0em" dy="0.95em" style="text-anchor: middle; visibility: hidden; font-family: &quot;Helvetica Neue&quot;, sans-serif; font-size: 12px; font-weight: 200;" fill="rgb(50, 49, 63)" stroke="none" stroke-width="1px">180k</text><text x="275" y="0" dx="0em" dy="0.95em" style="text-anchor: middle; visibility: inherit; font-family: &quot;Helvetica Neue&quot;, sans-serif; font-size: 12px; font-weight: 200;" fill="rgb(50, 49, 63)" stroke="none" stroke-width="1px">200k</text><text x="300" y="0" dx="0em" dy="0.95em" style="text-anchor: middle; visibility: hidden; font-family: &quot;Helvetica Neue&quot;, sans-serif; font-size: 12px; font-weight: 200;" fill="rgb(50, 49, 63)" stroke="none" stroke-width="1px">220k</text></g><line x1="0" y1="0" x2="300" y2="0" fill="rgb(0, 0, 0)" stroke="rgb(204, 204, 204)" stroke-width="1px"></line></g></g></g></g></svg>