<svg viewBox="0 0 330 200" xmlns="http://www.w3.org/2000/svg"><g><g><g><g><g><line x1="40" y1="178" x2="35" y2="178" style="visibility: inherit;" fill="rgb(0, 0, 0)" stroke="rgb(204, 204, 204)" stroke-width="1px"></line><line x1="40" y1="158.22222222222226" x2="35" y2="158.22222222222226" style="visibility: inherit;" fill="rgb(0, 0, 0)" stroke="rgb(204, 204, 204)" stroke-width="1px"></line><line x1="40" y1="138.44444444444446" x2="35" y2="138.44444444444446" style="visibility: inherit;" fill="rgb(0, 0, 0)" stroke="rgb(204, 204, 204)" stroke-width="1px"></line><line x1="40" y1="118.6666666666667" x2="35" y2="118.6666666666667" style="visibility: inherit;" fill="rgb(0, 0, 0)" stroke="rgb(204, 204, 204)" stroke-width="1px"></line><line x1="40" y1="98.8888888888889" x2="35" y2="98.8888888888889" style="visibility: inherit;" fill="rgb(0, 0, 0)" stroke="rgb(204, 204, 204)" stroke-width="1px"></line><line x1="40" y1="79.1111111111111" x2="35" y2="79.1111111111111" style="visibility: inherit;" fill="rgb(0, 0, 0)" stroke="rgb(204, 204, 204)" stroke-width="1px"></line><line x1="40" y1="59.33333333333334" x2="35" y2="59.33333333333334" style="visibility: inherit;" fill="rgb(0, 0, 0)" stroke="rgb(204, 204, 204)" stroke-width="1px"></line><line x1="40" y1="39.55555555555554" x2="35" y2="39.55555555555554" style="visibility: inherit;" fill="rgb(0, 0, 0)" stroke="rgb(204, 204, 204)" stroke-width="1px"></line><line x1="40" y1="19.7777777777778" x2="35" y2="19.7777777777778" style="visibility: inherit;" fill="rgb(0, 0, 0)" stroke="rgb(204, 204, 204)" stroke-width="1px"></line><line x1="40" y1="0" x2="35" y2="0" style="visibility: inherit;" fill="rgb(0, 0, 0)" stroke="rgb(204, 204, 204)" stroke-width="1px"></line></g><g transform="translate(30, 0)"><text x="0" y="178" dx="0em" dy="0.3em" style="text-anchor: end; visibility: hidden; font-family: &quot;Helvetica Neue&quot;, sans-serif; font-size: 12px; font-weight: 200;" fill="rgb(50, 49, 63)" stroke="none" stroke-width="1px">2.2</text><text x="0" y="158.22222222222226" dx="0em" dy="0.3em" style="text-anchor: end; visibility: inherit; font-family: &quot;Helvetica Neue&quot;, sans-serif; font-size: 12px; font-weight: 200;" fill="rgb(50, 49, 63)" stroke="none" stroke-width="1px">2.4</text><text x="0" y="138.44444444444446" dx="0em" dy="0.3em" style="text-anchor: end; visibility: hidden; font-family: &quot;Helvetica Neue&quot;, sans-serif; font-size: 12px; font-weight: 200;" fill="rgb(50, 49, 63)" stroke="none" stroke-width="1px">2.6</text><text x="0" y="118.6666666666667" dx="0em" dy="0.3em" style="text-anchor: end; visibility: inherit; font-family: &quot;Helvetica Neue&quot;, sans-serif; font-size: 12px; font-weight: 200;" fill="rgb(50, 49, 63)" stroke="none" stroke-width="1px">2.8</text><text x="0" y="98.8888888888889" dx="0em" dy="0.3em" style="text-anchor: end; visibility: hidden; font-family: &quot;Helvetica Neue&quot;, sans-serif; font-size: 12px; font-weight: 200;" fill="rgb(50, 49, 63)" stroke="none" stroke-width="1px">3</text><text x="0" y="79.1111111111111" dx="0em" dy="0.3em" style="text-anchor: end; visibility: inherit; font-family: &quot;Helvetica Neue&quot;, sans-serif; font-size: 12px; font-weight: 200;" fill="rgb(50, 49, 63)" stroke="none" stroke-width="1px">3.2</text><text x="0" y="59.33333333333334" dx="0em" dy="0.3em" style="text-anchor: end; visibility: hidden; font-family: &quot;Helvetica Neue&quot;, sans-serif; font-size: 12px; font-weight: 200;" fill="rgb(50, 49, 63)" stroke="none" stroke-width="1px">3.4</text><text x="0" y="39.55555555555554" dx="0em" dy="0.3em" style="text-anchor: end; visibility: inherit; font-family: &quot;Helvetica Neue&quot;, sans-serif; font-size: 12px; font-weight: 200;" fill="rgb(50, 49, 63)" stroke="none" stroke-width="1px">3.6</text><text x="0" y="19.7777777777778" dx="0em" dy="0.3em" style="text-anchor: end; visibility: hidden; font-family: &quot;Helvetica Neue&quot;, sans-serif; font-size: 12px; font-weight: 200;" fill="rgb(50, 49, 63)" stroke="none" stroke-width="1px">3.8</text><text x="0" y="0" dx="0em" dy="0.3em" style="text-anchor: end; visibility: hidden; font-family: &quot;Helvetica Neue&quot;, sans-serif; font-size: 12px; font-weight: 200;" fill="rgb(50, 49, 63)" stroke="none" stroke-width="1px">4</text></g><line x1="40" y1="0" x2="40" y2="178" fill="rgb(0, 0, 0)" stroke="rgb(204, 204, 204)" stroke-width="1px"></line></g></g><g transform="translate(40, 0)" clip-path="url(#clip_0)"><clipPath id="clip_0"><rect width="290" height="178"></rect></clipPath><g><g><g><line x1="0" y1="0" x2="0" y2="178" fill="rgb(0, 0, 0)" stroke="rgb(60, 60, 60)" stroke-width="1px" opacity="0.25"></line><line x1="24.166666666666664" y1="0" x2="24.166666666666664" y2="178" fill="rgb(0, 0, 0)" stroke="rgb(60, 60, 60)" stroke-width="1px" opacity="0.25"></line><line x1="48.33333333333333" y1="0" x2="48.33333333333333" y2="178" fill="rgb(0, 0, 0)" stroke="rgb(60, 60, 60)" stroke-width="1px" opacity="0.25"></line><line x1="72.5" y1="0" x2="72.5" y2="178" fill="rgb(0, 0, 0)" stroke="rgb(60, 60, 60)" stroke-width="1px" opacity="0.25"></line><line x1="96.66666666666666" y1="0" x2="96.66666666666666" y2="178" fill="rgb(0, 0, 0)" stroke="rgb(60, 60, 60)" stroke-width="1px" opacity="0.25"></line><line x1="120.83333333333334" y1="0" x2="120.83333333333334" y2="178" fill="rgb(0, 0, 0)" stroke="rgb(60, 60, 60)" stroke-width="1px" opacity="0.25"></line><line x1="145" y1="0" x2="145" y2="178" fill="rgb(0, 0, 0)" stroke="rgb(60, 60, 60)" stroke-width="1px" opacity="0.25"></line><line x1="169.16666666666669" y1="0" x2="169.16666666666669" y2="178" fill="rgb(0, 0, 0)" stroke="rgb(60, 60, 60)" stroke-width="1px" opacity="0.25"></line><line x1="193.33333333333331" y1="0" x2="193.33333333333331" y2="178" fill="rgb(0, 0, 0)" stroke="rgb(60, 60, 60)" stroke-width="1px" opacity="0.25"></line><line x1="217.5" y1="0" x2="217.5" y2="178" fill="rgb(0, 0, 0)" stroke="rgb(60, 60, 60)" stroke-width="1px" opacity="0.25"></line><line x1="241.66666666666669" y1="0" x2="241.66666666666669" y2="178" fill="rgb(0, 0, 0)" stroke="rgb(60, 60, 60)" stroke-width="1px" opacity="0.25"></line><line x1="265.8333333333333" y1="0" x2="265.8333333333333" y2="178" fill="rgb(0, 0, 0)" stroke="rgb(60, 60, 60)" stroke-width="1px" opacity="0.25"></line><line x1="290" y1="0" x2="290" y2="178" fill="rgb(0, 0, 0)" stroke="rgb(60, 60, 60)" stroke-width="1px" opacity="0.25"></line></g><g><line x1="0" y1="178" x2="290" y2="178" fill="rgb(0, 0, 0)" stroke="rgb(60, 60, 60)" stroke-width="1px" opacity="0.25"></line><line x1="0" y1="158.22222222222226" x2="290" y2="158.22222222222226" fill="rgb(0, 0, 0)" stroke="rgb(60, 60, 60)" stroke-width="1px" opacity="0.25"></line><line x1="0" y1="138.44444444444446" x2="290" y2="138.44444444444446" fill="rgb(0, 0, 0)" stroke="rgb(60, 60, 60)" stroke-width="1px" opacity="0.25"></line><line x1="0" y1="118.6666666666667" x2="290" y2="118.6666666666667" fill="rgb(0, 0, 0)" stroke="rgb(60, 60, 60)" stroke-width="1px" opacity="0.25"></line><line x1="0" y1="98.8888888888889" x2="290" y2="98.8888888888889" fill="rgb(0, 0, 0)" stroke="rgb(60, 60, 60)" stroke-width="1px" opacity="0.25"></line><line x1="0" y1="79.1111111111111" x2="290" y2="79.1111111111111" fill="rgb(0, 0, 0)" stroke="rgb(60, 60, 60)" stroke-width="1px" opacity="0.25"></line><line x1="0" y1="59.33333333333334" x2="290" y2="59.33333333333334" fill="rgb(0, 0, 0)" stroke="rgb(60, 60, 60)" stroke-width="1px" opacity="0.25"></line><line x1="0" y1="39.55555555555554" x2="290" y2="39.55555555555554" fill="rgb(0, 0, 0)" stroke="rgb(60, 60, 60)" stroke-width="1px" opacity="0.25"></line><line x1="0" y1="19.7777777777778" x2="290" y2="19.7777777777778" fill="rgb(0, 0, 0)" stroke="rgb(60, 60, 60)" stroke-width="1px" opacity="0.25"></line><line x1="0" y1="0" x2="290" y2="0" fill="rgb(0, 0, 0)" stroke="rgb(60, 60, 60)" stroke-width="1px" opacity="0.25"></line></g></g></g><g><g><line x1="0" y1="395.5555555555556" x2="290" y2="395.5555555555556" fill="rgb(0, 0, 0)" stroke="rgb(153, 153, 153)" stroke-width="1.5px"></line></g></g><g><g><line x1="24.166666666666664" y1="0" x2="24.166666666666664" y2="178" fill="rgb(0, 0, 0)" stroke="rgb(153, 153, 153)" stroke-width="1.5px"></line></g></g><g><g><g><g><g><path stroke="rgb(255, 112, 67)" stroke-width="2px" d="M30.329166666666666,-8.244680817666932L30.510416666666668,10.471224873400189L30.570833333333336,13.450867501266856L30.99375,17.239236444457447L31.29583333333333,16.327670558296603L31.77916666666667,1.8871716759210244L32.020833333333336,12.196183244972644L32.56458333333333,10.142981564135368L32.74583333333333,8.937231784925302L33.229166666666664,6.981226221948049L33.53125,9.605360786242187L33.7125,17.174950489575025L34.25625,16.75592513484682L34.31666666666666,22.03345538029535L34.860416666666666,24.738242465822935L34.861625,29.95473205775366L35.16370833333333,29.59612389022908L35.28454166666667,27.105066724993463L35.34495833333333,29.76720876329179L35.586625,40.32368722412636L36.06995833333333,31.535923159811517L36.55329166666667,27.778083659737433L36.613708333333335,23.113768682044537L36.674125000000004,17.414724644789942L36.915791666666664,6.193176741952129L37.580375,13.70662848996227L37.942875,28.361859751047035L38.24495833333333,23.098921715479946L38.426208333333335,20.168110599303276L39.15120833333334,31.892563967776766L39.513708333333334,34.03753721846542L39.81579166666667,35.34385426654177L39.99704166666667,40.12973717473375L40.238708333333335,34.48549950427014L40.480375,29.840362812910712L40.60120833333334,37.853711095952576L41.749125,40.70989767892772L42.05120833333333,47.42860910737113L42.111625,39.413495975727045L42.41370833333333,42.301424679620425L42.655375,44.060408899331804L42.71579166666666,46.372082979301865L42.836625,40.55474532692838L43.31995833333333,43.445604137210665L43.380375,50.10440086157176L43.742875000000005,47.72251045272051L43.80329166666667,39.64844907660466L43.863708333333335,35.19226800604176L44.044958333333334,44.075309873177986L44.58870833333333,50.228894708222086L45.07204166666667,54.031725235713395L45.9795,51.2923823178739L46.22116666666666,45.29653791207983L46.583666666666666,43.3071960558959L46.82533333333333,47.0332041445985L46.94616666666666,56.21396498926832L47.671166666666664,56.98854749297777L47.73158333333333,56.37273715870981L48.698249999999994,44.801644737479876L49.483666666666664,51.03707938026187L49.54408333333333,55.845225372365576L49.66491666666667,57.3349329012012L50.02741666666667,58.82965838641843L50.57116666666667,59.35435512435325L50.692,53.15903073479532L50.75241666666666,53.08017419004983L50.93366666666667,53.73813166619735L51.296166666666664,65.26406445080211L51.83991666666667,68.53271345414555L52.021166666666666,64.76590210931869L52.081583333333334,68.74483225917577L52.62533333333333,63.43940932458098L52.68575,64.35990261379156L53.592,71.23974226984015L53.712833333333336,66.02274338911222L53.83366666666667,65.16032584812388L54.6795,65.92361288253157L54.98158333333333,60.254586943555694L55.10241666666667,66.71804007405169L55.28366666666666,65.03244253570979L55.767,73.95661753626419L56.1295,70.85266596734905L56.25033333333334,65.26689130726355L56.372375,73.69573364520477L56.734874999999995,79.36129602377926L57.03695833333333,76.51767442840193L57.641125,77.38094559772854L57.76195833333333,74.79479556823864L58.003625,69.30201115204615L58.366125000000004,71.45468091828526L58.607791666666664,69.14277255718316L58.66820833333333,72.18540606343723L58.97029166666667,78.13855536579807L59.091125000000005,69.65628684242397L59.15154166666667,66.13301980900664L59.272375,61.14474665831929L59.393208333333334,63.347680082190436L59.453624999999995,70.98151734089954L59.75570833333334,72.7072831097874L59.816125,73.9394591976053L60.359875,68.04485286977304L60.722375,72.87221898725147L60.84320833333334,67.58516475281098L61.14529166666667,60.66167940198633L61.447375,62.42844837605507L61.56820833333333,56.04431464890371L62.29320833333333,69.13993313019648L62.716125,59.35971921480139L62.77654166666667,62.76212241395845L62.897375000000004,59.460603445967536L62.957791666666665,68.66686919343503L63.018208333333334,63.88286225736691L63.078625,67.10957011558278L63.19945833333333,71.33036145157217L63.38070833333333,69.2910679163399L63.622375000000005,68.66218731030334L63.924458333333334,62.33121737309337L64.10570833333333,70.2595926259706L64.347375,83.62285465937688L64.528625,81.50393121671443L64.709875,79.61371997931661L64.77029166666667,82.53032044533329L64.95154166666667,84.986891298606L65.01195833333334,82.97808471931526L65.19320833333333,80.96567695175382L65.253625,77.61739822461405L65.55570833333333,72.2107286652643L65.616125,73.98473145303772L66.03904166666668,79.0886188451706L66.22029166666667,79.67759736470595L66.46195833333333,78.9018938493927L66.64320833333333,85.1630411278526L66.884875,76.52413002373032L67.06733333333334,73.37283338804461L67.309,79.59146940131637L67.49025,77.86460632137252L67.55066666666666,75.97582341993262L67.61108333333333,81.8955223400591L68.034,86.06717023420858L68.3965,84.0366230133618L68.51733333333334,73.38713809855119L68.57775,72.57225431671807L68.81941666666667,64.45676595571278L69.06108333333333,62.8226169185001L69.24233333333333,65.7425092202122L69.30275,69.92157826738394L69.36316666666667,74.130209690499L69.48400000000001,68.418159197139L69.60483333333333,62.11357925953507L70.14858333333333,61.39110976563455L70.209,65.16912177334827L70.39025,69.7953873714973L70.45066666666666,68.83960424907029L70.51108333333333,80.4698363485755L70.63191666666667,84.22308288604279L70.69233333333334,79.44141410676131L71.05483333333333,83.03215718665876L71.29650000000001,78.6728674753457L71.35691666666666,74.9285330988006L71.47775,80.67432935736792L71.59858333333334,80.42394194425476L71.77983333333333,73.7273528713597L71.84025,73.78368472289722L71.90066666666667,63.76440507642769L71.96108333333333,71.1294075662898L72.14233333333333,78.262643942138L72.384,75.1101791302432L72.68608333333333,77.11047166559841L72.74650000000001,76.72012738768503L72.80691666666667,84.58431966533806L73.16941666666668,88.1564860786828L73.53191666666666,77.5040196260644L73.77358333333333,73.92785372950965L73.95483333333334,74.9556303047902L74.1965,68.08907657341098L74.43816666666666,70.69744898563185L74.559,69.29249367658966L74.86108333333333,78.18276379764215L75.04233333333333,77.32884455279593L76.31108333333333,82.3785969131554L76.43191666666667,73.50071250478618L76.49233333333333,76.74708841358401L76.734,73.69912835163075L76.85483333333333,79.07260078179824L77.09649999999999,76.21370895828926L77.21733333333333,77.17997824955991L77.64145833333333,72.90934854234659L78.00395833333333,78.50772587548936L78.245625,78.36939490690574L78.66854166666667,89.16228228919555L78.72895833333334,92.9293817195731L78.789375,85.49678066850328L78.84979166666666,83.30280445372105L79.151875,79.47162596463852L79.27270833333334,83.50756393056261L79.45395833333333,92.02486183618859L79.51437499999999,83.77522131958155L79.63520833333332,84.71593951544956L80.11854166666667,79.80954703904267L80.17895833333333,76.21069677336592L80.36020833333333,83.37070358393737L80.783125,86.18935722336728L80.96437499999999,83.74329479802319L81.50812499999999,82.8151733679361L81.62895833333333,77.68783362060839L81.689375,70.86331741157537L81.74979166666667,69.65464307552597L81.93104166666667,75.32308248889063L81.99145833333333,71.76963481234478L82.233125,84.55810595641049L82.53520833333333,93.97234628055205L82.59562500000001,96.31873137757738L82.83729166666666,87.17794337739548L82.89770833333334,86.02117977528442L82.958125,79.54266822198895L83.01854166666666,80.63647455820694L83.26020833333334,77.667783685289L83.320625,84.00002896056307L83.501875,79.57747179494405L83.56229166666667,82.42487336796847L84.04562499999999,83.37573037572764L84.28729166666666,90.71556369082968L84.408125,91.54931012561028L84.52895833333334,88.56239529048798L84.58937499999999,80.07814650029513L85.01229166666667,86.57750635585198L85.07270833333334,86.67759329952739L85.133125,90.76769097507096L85.314375,92.80190071446424L85.79770833333333,87.07694048937464L85.91854166666666,83.60777777917303L86.16020833333333,77.77077406140437L86.220625,79.37408455572556L86.52270833333333,78.57296779106609L86.94562499999999,73.2415575114588L87.61020833333333,79.88191888696159L87.73104166666667,84.26366192347199L88.09354166666667,87.44305973597203L88.15395833333334,81.28399642847019L88.27479166666666,80.78144310108712L88.33641666666666,88.35389512361886L88.57808333333334,85.78029666889789L88.81975,88.90995639624977L88.94058333333332,103.26288146612713L89.24266666666668,91.94040210084059L89.30308333333333,97.11808172816932L89.36349999999999,92.45401024261723L89.84683333333334,93.56243745151922L90.20933333333333,93.40605403381845L90.45100000000001,94.46930516334663L90.51141666666666,94.3321400861943L90.57183333333334,90.12167770219538L91.11558333333333,96.93516317140671L91.23641666666667,87.72040457737742L91.41766666666666,99.08823353774727L91.78016666666667,91.66263530290549L92.2635,85.99291262807303L92.38433333333333,88.89166953831028L93.59266666666666,83.54671085147197L93.65308333333334,81.82353673935813L93.89474999999999,90.47113832304737L93.95516666666667,91.406578109151L94.01558333333332,95.3409394005519L95.10308333333334,91.289993679631L95.40516666666667,91.51832131577692L95.82808333333334,88.90600994712673L95.8885,83.93790295347843L96.25099999999999,77.87829482265806L96.37183333333333,84.09475196293755L96.67391666666666,89.06893270547249L96.79475,79.6460814979444L96.91558333333333,83.18269354344034L97.15725,83.90037057145808L97.76141666666668,87.00502711938447L98.24475,87.20734372778712L98.30516666666668,98.20744889007399L98.36558333333333,99.43491016046042L98.48641666666667,93.00554126364823L98.96975,100.39018223601282L99.09179166666667,102.51332112766589L99.45429166666666,105.13505144752106L99.575125,96.9647271067125L99.69595833333334,96.48798229742052L99.756375,90.03357385399075L99.937625,90.63482449665283L100.05845833333333,90.36668336122003L100.23970833333333,89.58811092479954L100.72304166666667,90.0359605371524L101.14595833333333,91.74574997409263L101.50845833333334,90.35056339201445L101.75012500000001,91.9799774742617L101.81054166666667,96.5571752171281L101.87095833333332,82.85968520128107L101.931375,91.34085689713584L102.293875,98.56164221801376L102.89804166666666,107.55012689931003L103.018875,103.60810418269719L103.20012500000001,98.91668508720076L103.26054166666667,93.3055603983966L103.44179166666666,88.34137757848836L103.80429166666667,91.51916747760792L103.925125,93.3943143217088L104.106375,100.67425910999306L104.287625,99.07818225975124L104.468875,94.04218618843129L104.52929166666667,98.50755224158935L104.89179166666666,97.07752667915501L105.61679166666667,97.53649138574148L106.28137500000001,93.93399975596476L106.52304166666666,88.18786554673477L107.06679166666666,92.58790431966547L107.368875,94.72069311602344L107.42929166666666,95.47382712110605L107.61054166666668,95.54236520509093L107.67095833333333,94.37576359021764L107.79179166666667,100.92699683346545L107.85220833333332,99.30472414344133L109.06054166666667,93.9717658664427L109.12095833333333,97.23583763672764L109.18137499999999,98.07625237604294L109.48345833333335,98.14096088641408L109.66470833333334,90.07289944681969L109.84716666666668,86.37071602035965L109.96799999999999,79.95086072047859L110.20966666666666,88.190262915984L110.27008333333333,95.10939787630619L110.45133333333334,97.40180818057023L110.693,101.03755754255167L110.81383333333333,93.71995839688925L111.65966666666667,95.59476546375205L112.20341666666667,100.31364426834998L112.26383333333334,97.00523240858486L112.92841666666668,102.98917498287062L113.41175,101.49412479325699L113.47216666666667,98.915784767549L113.65341666666667,106.08367907348786L113.77425,99.83273159536496L113.83466666666666,98.89982534756594L114.318,101.76023860758743L114.37841666666668,106.58009003260123L114.43883333333333,97.37481956741907L114.68050000000001,93.08775896864157L114.80133333333333,88.27956970223666L114.92216666666667,96.02619061284594L115.4055,99.25916902536815L115.70758333333335,98.1555681300375L115.768,102.42210263576719L115.94924999999999,94.95563368737663L116.37216666666666,100.08688589378178L117.09716666666667,94.95376723607106L117.39925,105.27508065329494L117.45966666666668,108.41100417709251L117.58049999999999,100.44082667312563L117.64091666666667,96.68614699637483L118.00341666666667,93.31616906838966L118.42633333333333,98.22913419978896L118.48675,89.96699854135099L119.03049999999999,100.80477306551153L119.27216666666666,100.0450115096289L119.393,105.54527644465671L119.63466666666666,101.25399753607165L120.17841666666666,109.53659410371495L120.542125,110.46440293778778L120.60254166666667,110.74765222172486L120.90462500000001,109.727418576416L121.38795833333333,106.47463187857669L121.50879166666667,106.05165146957359L121.93170833333333,101.10068438353449L121.992125,103.09856877136284L122.23379166666668,98.69756668718159L122.535875,93.67647640519903L122.717125,89.53284545310477L122.83795833333333,92.56827502258174L123.01920833333332,95.38146213641964L123.20045833333333,94.78491899938108L123.442125,97.03844193494086L123.92545833333332,103.69041792212718L124.40879166666667,107.95900988905242L124.529625,111.42130432854594L124.65045833333333,104.220038973606L124.83170833333334,106.33556975986211L124.89212500000001,112.38654799368041L125.25462499999999,108.45868593053984L125.31504166666667,104.65463641641715L125.798375,106.48083890161489L125.979625,113.67951949578801L126.04004166666667,112.98403353246086L126.10045833333334,113.11170897004891L126.160875,117.65077040596871L126.28170833333333,109.90243963005587L126.46295833333333,113.13329112822609L126.88587500000001,108.65890036069895L126.94629166666667,112.21472576617658L127.36920833333333,104.51945333893777L127.429625,99.74250418804826L127.49004166666667,104.56522081015152L128.03379166666667,96.3601155039064L128.27545833333332,97.09290760495615L128.39629166666666,103.6601940258643L128.45670833333332,113.91694351817972L128.57754166666666,107.23555162421347L128.879625,106.13204725175653L128.94004166666667,109.35569921354852L129.06087499999998,113.75187078647058L129.12129166666668,104.23401588584993L129.18170833333332,102.17066629030577L129.48379166666666,104.44936586067705L130.329625,104.9204163642795L130.873375,96.71042238360405L131.17666666666665,100.41265545432556L131.59958333333333,93.46425048728989L131.66,103.29305866690599L132.20374999999999,99.4386913869044L132.62666666666667,104.102122243506L133.11,109.56498892481859L133.17041666666665,113.77785558328472L133.35166666666666,109.37224578422237L133.77458333333334,106.69678696265309L133.89541666666668,99.72099404496247L134.13708333333335,101.26146313128248L134.74125,107.49919656196991L134.80166666666668,108.95859778557741L134.98291666666665,105.80468341092983L135.285,101.50755206705892L135.52666666666667,104.2142442859914L136.31208333333333,108.0082536537075L136.43291666666667,107.37698967713526L136.49333333333334,101.81368863524709L136.85583333333332,94.55595546528723L136.91625,95.70277955935083L136.97666666666666,96.48005146533326L137.0975,101.36137737747741L137.21833333333333,97.65208310898836L137.94333333333333,97.46631810608858L138.72875,97.82645465658119L139.03083333333333,94.53943587378274L139.39333333333335,95.77807489588558L139.75583333333333,97.2238796631444L139.81625,104.23921213626556L140.17875,99.29770755417957L140.42041666666668,100.26171463650489L140.54125,104.58400625738716L140.66208333333333,106.10977928425133L141.02458333333334,93.39969081697686L141.20583333333335,84.75215230197404L141.32666666666668,90.19788915865703L141.50791666666666,96.08963424270536L141.68916666666667,99.51654797709432L141.81120833333333,93.8747188337962L142.35495833333331,98.51898688736814L142.47579166666665,115.76113118593514L143.20079166666667,127.35332711854352L143.26120833333334,119.07527654625903L143.321625,116.97818520553999L144.16745833333334,108.63683983087063L144.409125,110.9795339369745L144.65079166666666,104.46153218995025L144.89245833333334,111.87530529436434L144.952875,116.82374940145857L145.134125,117.29460241560118L145.25495833333332,121.6836905078595L145.3757916666667,121.19242437924642L145.859125,116.86431841996732L145.97995833333334,110.67286614082047L146.16120833333335,106.76958666345554L146.34245833333333,108.82873736150374L146.52370833333333,115.09133300578976L146.64454166666667,103.7321338471886L146.82579166666665,110.40368507142892L147.00704166666668,107.77744750746376L147.06745833333332,116.21948431936545L147.97370833333335,113.56022853259829L148.396625,112.34975264300324L148.69870833333331,112.19475542999953L148.75912499999998,113.02550193964034L148.81954166666668,104.97014809693714L148.940375,105.7255684808972L149.00079166666666,101.57752460429896L149.121625,104.56115319709544L149.24245833333333,108.33053972285661L149.484125,107.76993547125329L149.72579166666665,105.68758672356148L150.027875,106.20881572890003L150.14870833333333,110.14099193927281L150.57162499999998,106.1590133374596L150.69245833333335,103.41412547158517L150.752875,103.51621565974149L150.93412500000002,107.83228847702843L151.05495833333333,104.87792592570817L151.296625,102.9243411699472L151.477875,105.64182095207005L151.59870833333332,105.77724737080933L151.7195416666667,105.26824017324519L151.77995833333333,100.25603761913133L152.384125,102.44347227664511L152.44454166666665,96.05408906768793L152.627,106.81607082054306L152.80825,112.1021079693156L152.9895,116.70332323885795L153.04991666666666,118.9480661699451L153.23116666666667,121.40289647144407L153.29158333333334,117.8462845781518L153.41241666666664,125.31745304194861L153.71450000000002,118.36059990574915L153.77491666666668,120.5614496651292L154.1978333333333,115.59974016379647L154.25825,120.7739633948816L154.49991666666668,118.8675470331041L154.62075,125.31319234509303L154.74158333333335,125.93392057130822L154.98325,120.17901040858084L155.58741666666668,109.42301967390013L155.70825,104.96406335819346L155.82908333333336,108.26302227225389L155.8895,112.75766191987093L156.13116666666667,106.74324425258307L156.31241666666665,111.78021346846063L156.79575,123.77289573210453L157.03741666666667,116.01773969247722L157.21866666666668,114.77557977519638L157.88325,119.75272041184363L158.12491666666665,123.79953365498378L158.24575000000002,116.98930559473723L158.427,115.17703339871923L158.54783333333333,116.03255208913114L158.60825,105.81344778620709L158.7290833333333,107.54546333521706L158.84991666666667,107.4388895581371L158.91033333333334,102.80888257657064L159.03116666666668,110.13827843408527L159.152,105.0047553820522L159.21241666666666,106.58769983177716L159.45408333333333,108.89773382288084L159.5145,108.44624230721048L159.63533333333334,109.23695136780611L159.81658333333334,115.30823313333966L160.11866666666668,108.31136668274493L160.84366666666665,107.15974691241794L161.08533333333332,113.38589333465919L161.26658333333333,114.60023403614167L161.87075,109.70792420973025L162.23325,107.14885470233149L162.29366666666667,104.43471647147078L162.4145,105.72144775363714L162.59575,112.42454137997906L162.77700000000002,112.46259115760444L162.83741666666668,106.87807766836502L162.89783333333332,108.96898584509862L163.44279166666666,114.43808002770263L163.50320833333333,108.08008233143413L163.563625,109.89529866304777L163.68445833333334,111.26791768931089L164.40945833333333,112.97265397374144L164.469875,123.9523051061755L164.53029166666667,122.37151308130382L164.59070833333334,124.13096355692575L165.07404166666666,120.56923939497226L165.61779166666668,117.1131595130752L165.919875,109.6294789937067L166.644875,110.03954135604933L167.49070833333334,115.23968033595492L167.67195833333335,114.95943021339339L167.73237500000002,120.37029343450035L167.79279166666666,114.70629038972041L167.91362500000002,123.63369083607293L168.39695833333332,121.82154108804916L168.51779166666668,117.54839251273346L168.638625,116.84263096153819L168.75945833333336,111.673332368732L169.363625,111.47334938834804L169.84695833333333,114.37383074913836L169.907375,116.62226881861008L170.20945833333332,115.19951243964421L170.57195833333336,113.73007587453279L171.05529166666665,106.41517007797624L171.4177916666667,119.64612889292972L171.47820833333333,122.76577397984151L171.59904166666666,116.0539674515307L171.719875,117.11003588168501L172.02195833333334,104.93178400646188L173.169875,112.06455377688334L173.29070833333336,112.71513857546977L173.532375,104.26177611810085L173.59279166666667,109.99429133054885L174.13774999999998,112.36297318581437L174.25858333333335,115.09049613157458L174.43983333333335,121.6278935736523L174.50025,125.9615988956223L174.56066666666666,131.3971764699417L175.16483333333332,131.68025460310895L175.22525000000002,125.72040612049439L175.4065,117.33562947043303L175.52733333333333,109.42909251753271L175.769,115.85896519815527L175.88983333333334,109.14159007334736L176.07108333333335,106.88952706070496L176.19191666666666,118.91835835000262L176.31275000000002,115.40485426967905L176.43358333333333,116.99329668062933L176.97733333333332,112.11628262466992L177.219,114.32827399730762L177.46066666666667,117.42225931686875L177.58149999999998,112.8452557586461L177.76275,111.88003744261447L177.94400000000002,114.25172186572873L178.3065,115.51058037421151L178.36691666666667,122.12712484602753L178.6085833333333,119.13025189905805L178.78983333333335,108.64219308245515L178.97108333333335,109.26138345608116L179.09191666666666,116.81834049879248L179.63566666666665,120.61084051312909L179.81691666666669,115.89815188410358L179.87733333333333,117.0376149022992L179.93775,123.32660845147065L179.99816666666666,115.69742845233178L180.17941666666667,115.08055542616253L180.42108333333334,112.20717269339421L180.78358333333333,112.07358740662488L180.84400000000002,108.67317004074958L181.02525,98.0534567221223L181.50858333333332,101.00806593933353L181.81066666666666,104.42571028096663L181.99191666666667,112.67842063387808L182.17316666666667,113.43711291533391L182.23358333333334,116.37888529104333L182.35441666666665,116.234847760082L182.53566666666666,115.89481272319469L182.59608333333333,115.21336792719075L182.7169166666667,121.79776344650679L183.07941666666667,117.86320354248635L183.26066666666668,111.37180510583849L183.44191666666666,114.9726249183615L183.50233333333335,112.20789228974849L183.74400000000003,107.03003284394187L184.1065,105.3974234352741L184.83270833333333,115.18023489324318L185.074375,119.92590490028101L185.1952083333333,116.91902802215918L185.49729166666668,118.19276876743771L185.799375,113.1773035045897L186.34312500000001,117.48753512467226L186.58479166666666,114.42319435615511L186.82645833333333,115.52128743108943L187.0077083333333,112.54404028176701L187.91395833333334,123.89820043197929L188.518125,132.10437709461644L188.57854166666667,127.17952964659463L188.63895833333333,120.63687922001108L188.82020833333334,114.3678440338784L189.18270833333332,117.53504675744452L189.54520833333333,117.94870033467232L189.605625,122.74613068596508L189.66604166666667,119.66005477300214L189.7264583333333,120.2117113119485L189.786875,113.4096409652968L189.84729166666668,113.56020636008222L189.90770833333332,113.10745530646004L190.39104166666667,125.09147024147285L191.780625,120.60742313592512L191.84104166666665,121.77217487120623L191.90145833333335,128.14472423170406L192.324375,125.94903063480692L192.98895833333333,118.99102762364133L193.10979166666667,117.35114386029049L193.35145833333334,122.1541944431749L193.83479166666666,122.91206239056179L193.89520833333333,128.18482686779518L194.07645833333333,130.4762422027287L194.19729166666667,129.48607828113023L194.2577083333333,115.44803616274282L194.37854166666668,118.38088775463895L195.46725,119.7780323976225L195.76933333333335,123.3344772695536L195.95058333333333,122.44252579179945L196.13183333333333,124.99773642149756L196.67558333333332,121.71627075575769L196.736,123.98426328760175L197.0985,117.0838281260306L197.21933333333334,112.22907232388766L197.27974999999998,117.35067700300232L197.64225000000002,121.38086391461061L197.82350000000002,123.17148972666897L197.88391666666666,128.48424606988814L198.186,130.48574360293142L198.30683333333332,125.99979729701273L198.42766666666668,118.43936333473705L198.60891666666666,120.26001408679329L198.66933333333336,120.08110718915685L199.15266666666665,129.70835495850008L199.45475000000002,123.08259691115555L199.57558333333333,125.71969334804152L199.636,118.40574615578402L199.6964166666667,124.3099040855467L200.361,126.80240416278772L200.96516666666665,124.64679684490164L201.4485,122.72936949216778L202.47558333333333,118.87396751625744L202.77766666666668,119.17115662432423L202.89849999999998,125.69000938563244L202.95891666666668,116.89887230347145L203.14016666666666,118.97159707728684L203.74433333333334,121.09183231304289L204.10683333333333,123.52055480333954L204.3485,122.42958228606321L204.65058333333334,123.06902430280385L204.77141666666668,116.84473103709948L204.89225,124.41743318097551L205.01308333333333,125.74478147739231L205.13391666666666,128.47200106569568L205.37558333333334,122.4522846797413L205.436,124.05277114930257L205.61725,124.57543714602957L205.67766666666668,120.00725039763024L205.73808333333332,115.46242830508615L205.97975,126.55505017186735L206.04137500000002,126.93183673865917L206.22262500000002,137.38346695967908L206.28304166666666,132.20771405472723L206.403875,127.61435882274928L206.7059583333333,130.12133356215003L206.82679166666668,124.50545918049613L206.88720833333332,131.30490815634187L206.947625,128.34487798740594L207.310125,130.35214905366047L207.43095833333334,127.99108295958753L207.61220833333334,129.10082649117953L208.15595833333333,135.54408120998818L208.3372083333333,130.3824205074057L208.45804166666667,126.13228497147631L208.57887499999998,125.16884739873186L208.69970833333335,121.21055776615695L208.82054166666666,118.79823810038154L209.36429166666665,122.58911610682452L209.60595833333332,124.03385692792254L209.72679166666668,121.89146232976782L209.90804166666666,124.10130816788698L210.39137499999998,116.60975762395134L210.63304166666666,106.84189937756632L210.87470833333333,112.27361848633525L211.2372083333333,116.4747376548776L211.660125,117.13159480206012L211.78095833333333,120.46047331664735L212.08304166666667,118.96598835518891L212.50595833333333,121.98838033780682L212.68720833333333,122.61905433505575L212.747625,120.46274816720235L213.04970833333334,119.14560442603755L213.11012499999998,121.91674826471952L213.17054166666668,122.47900407934227L213.291375,130.11928903580795L213.472625,132.10152684826969L213.77470833333334,129.88903653132513L213.95595833333334,128.78112860757003L214.016375,126.2864731511414L214.13720833333332,128.08007879289298L214.49970833333333,123.21931194536606L215.10387500000002,125.64410575327241L215.5267916666667,121.09694170479817L215.70804166666667,125.77275757506396L215.7684583333333,121.59013390583075L216.191375,119.14058661486075L216.25179166666666,119.21457308148565L216.31220833333333,113.42366080717048L216.372625,114.37231871228893L216.67470833333334,112.76817149233379L216.79675,117.60082162539432L218.24675,119.67499217330248L218.428,120.38759854664373L218.54883333333333,122.26923765412288L218.85091666666665,128.24316141012105L219.03216666666665,126.79802445108697L219.09258333333332,133.62013017324279L219.21341666666666,131.03995722975264L219.27383333333333,130.57099868324957L219.69675,128.0152496531328L219.81758333333332,129.6388479306465L219.93841666666668,136.50778154603302L220.48216666666667,132.1411668066482L220.78425000000001,132.1875527781824L220.84466666666665,134.02554701131726L221.20716666666667,125.8581798031988L221.328,125.35510555105452L221.44883333333334,121.90619106873763L221.56966666666668,122.48037470848297L221.81133333333335,126.37916644496283L221.99258333333333,126.58486912034822L222.23425,124.77972464061173L222.778,129.5500397726347L222.83841666666666,133.25388818581933L222.89883333333333,126.8396403964363L223.26133333333334,126.2491996499169L223.74466666666666,128.79299483504832L223.98633333333333,128.67869357020493L224.10716666666667,122.648257028896L224.1675833333333,125.6565793690778L224.228,120.54985832531766L224.46966666666668,119.10545831404504L224.77175,126.83851022809178L225.19466666666665,122.11442625099085L225.678,129.15480346160663L225.91966666666667,138.97618790209148L226.16133333333335,131.70412213117459L226.28216666666665,124.24868101185905L226.64466666666667,117.06333167603091L226.82591666666664,117.00148035768288L226.94675,121.41132153878779L227.06758333333332,125.53218127640852L227.18841666666668,125.89249489848805L227.36966666666666,124.35312463396451L227.43129166666665,128.74866007565328L227.61254166666666,127.88504970682317L227.85420833333333,133.67394351529674L228.33754166666668,138.26475170725476L228.639625,127.21456554682061L228.70004166666666,131.30400578469636L228.94170833333334,135.79088937084904L229.36462500000002,139.16402553026495L230.02920833333334,139.8239524699195L230.21045833333335,142.8239448589252L230.270875,136.44846368829076L230.45212500000002,135.54898940258357L230.75420833333334,133.81608490453706L231.11670833333332,129.8571670576989L231.177125,131.0826387983265L231.41879166666666,129.21190515382636L231.539625,134.00008332531445L231.902125,129.67613616665676L231.96254166666665,133.45461701798723L232.08337500000002,135.2560325059855L232.32504166666666,133.7464730497339L232.74795833333332,136.46610814336435L233.11045833333336,141.05076995295383L233.29170833333333,133.0255624593754L233.65420833333334,129.05380426826167L234.13754166666666,136.83618641617483L234.31879166666667,134.70891904201994L234.439625,137.57653737220633L234.50004166666668,132.91990220373287L234.802125,132.38702589831664L234.86254166666666,135.9261864099617L235.04379166666666,132.95843876112457L235.164625,130.44604657118893L235.22504166666664,124.34392612657837L235.345875,124.90944428797366L235.64795833333332,123.3668148729551L236.25212499999998,124.15818605105169L236.61462500000002,115.57102946408644L236.73545833333333,126.80587462035317L236.795875,124.27469408712619L237.03754166666667,127.32972513690028L237.09795833333334,122.44135187698066L237.33962499999998,129.58057002206246L237.46045833333335,121.41065303737348L237.82295833333333,128.2554364060626L237.88337499999997,127.4918087237238L238.064625,133.53980418853251L238.2470833333333,138.74915293277013L238.97208333333333,142.0909062112612L239.27416666666664,139.61946900531441L239.3345833333333,136.83961045914432L239.45541666666668,134.546368645007L239.99916666666667,133.0992400339823L240.05958333333334,143.12860563877047L240.42208333333335,143.6438367892275L240.48250000000002,144.32227536811249L241.32833333333335,137.39150373337293L241.57,134.3681482167897L241.69083333333333,136.75748041753448L241.81166666666667,138.503917550617L241.99291666666664,134.62677222226475L242.17416666666665,130.90874719328994L242.71791666666667,135.0290433760258L243.08041666666668,137.640796620064L243.20125,137.63229541419062L243.8658333333333,138.96052770610848L243.92625,142.9737589327268L244.28875,141.862300568885L244.71166666666667,138.76058693770554L246.16166666666666,145.72425021356736L246.22208333333333,140.56932454813688L246.34291666666667,137.47699158031577L246.52416666666664,139.35755731645526L246.645,142.0991447355017L247.91375000000002,137.5274594695766L248.095,134.28694640691145L248.33666666666664,139.12003985766276L248.3970833333333,133.8057908518535L248.4575,129.17138980448775L248.57833333333332,131.18851670926466L248.76079166666665,140.10444689045408L248.94204166666665,131.0546855623527L249.06287500000002,134.06817722621915L249.18370833333333,136.7206193306249L249.606625,132.94618805040133L249.78787499999999,139.168429082038L249.84829166666668,140.73478808327636L250.02954166666666,134.45918021792642L250.331625,125.94445615592949L250.81495833333332,135.43553383234484L251.056625,136.55015073865658L251.1774583333333,140.86659544299047L251.29829166666667,144.7160843096243L251.35870833333334,141.07113639340537L251.72120833333335,141.46588121416278L251.96287500000003,138.53971072770423L252.08370833333333,146.1219040411283L252.20454166666664,146.42506821101327L252.38579166666668,141.61835792879842L252.92954166666667,132.72459591030096L253.050375,137.38259768578155L253.11079166666667,135.01234951604386L253.35245833333335,138.05460895889394L253.65454166666666,139.43837781226668L253.775375,133.5642603604557L254.37954166666668,140.36343770634502L254.500375,138.34338009139057L254.62120833333333,140.82282605305076L255.406625,134.56194840723467L255.64829166666667,129.57568591547525L255.769125,123.26810412368022L256.37329166666666,123.3411210343888L256.67537500000003,121.74537132906154L257.0982916666667,125.37647662993609L257.27954166666666,132.9999719764968L257.400375,132.1604906211669L257.762875,140.17811452159205L258.6087083333333,133.29294752629616L258.669125,138.01504802966662L258.72954166666665,134.2129628727045L258.850375,137.8720842455682L259.03162499999996,144.49882565533923L259.15245833333336,139.73888495720908L259.45575,134.98230728336006L259.6974166666667,142.49473935726647L259.75783333333334,137.62751352606236L260.12033333333335,140.60965762294808L260.18075,145.897678343334L260.2411666666667,141.26914261916642L260.54325,140.81535969327177L260.60366666666664,145.43993723879427L260.8453333333333,139.88197720872796L261.50991666666664,139.37432250145207L261.87241666666665,135.5500213615551L262.1140833333333,140.64597465470163L262.23491666666666,138.8635009135621L262.4161666666667,136.8909063766556L262.537,138.16020105594671L262.8995,143.4350282144735L263.08074999999997,137.85158464464683L263.32241666666664,134.0317430909331L263.5640833333333,140.7053877336628L263.68491666666665,143.80389905509435L263.8661666666667,140.77217538411998L263.987,140.24390365898626L264.2286666666667,139.14759044910812L264.3495,139.56564696999928L264.53075,141.75899509016205L264.8328333333333,142.9049953028969L265.0745,144.82679209344064L265.13491666666664,143.92117818931226L265.25575,141.8460532338456L265.79949999999997,143.17422299119713L265.85991666666666,149.8977755286932L266.5245,151.5110920072116L266.6453333333333,152.34469328856903L266.70575,143.23560663781433L267.1286666666667,150.7802448395205L267.2495,148.56353955474043L267.30991666666665,142.05225563914172L267.37033333333335,138.25255292775586L267.43075,139.36666131224976L267.67241666666666,142.45737486538673L267.79325,143.0944402755078L269.12241666666665,141.48845432643748L269.3036666666667,140.2577359318746L269.8474166666667,147.33148901701054L270.02866666666665,150.21817074971776L270.1495,149.27384720962343L270.15070833333334,148.8798080553544" style="fill: none;" fill="none"></path></g></g></g></g><g opacity="0.2"><g><g><g><path stroke="rgb(255, 112, 67)" stroke-width="2px" d="M28.939583333333335,-20.055306752522768L29.422916666666666,15.536124441358766L29.845833333333335,-14.936751259697786L30.329166666666666,-9.778020646837007L30.510416666666668,38.54446755515207L30.570833333333336,17.920272615220824L30.99375,22.92174498240152L31.29583333333333,14.960328208075651L31.77916666666667,-19.77351506551105L32.020833333333336,27.65967422061496L32.56458333333333,7.063182195027679L32.74583333333333,7.128608226776123L33.229166666666664,4.047218958536774L33.53125,13.541561762491853L33.7125,28.52933353847928L34.25625,16.1273871527778L34.31666666666666,29.949750370449493L34.860416666666666,28.795422977871368L34.861625,37.7794663111369L35.16370833333333,29.05821164449057L35.28454166666667,23.368481000264495L35.34495833333333,33.76042180591159L35.586625,56.15840488009984L36.06995833333333,18.354277080959747L36.55329166666667,22.141324414147277L36.613708333333335,16.11729621887207L36.674125000000004,8.866158591376433L36.915791666666664,-10.63914510938858L37.580375,24.97680611080594L37.942875,50.344706641303176L38.24495833333333,15.204514662424714L38.426208333333335,15.771893925136993L39.15120833333334,49.47924402025012L39.513708333333334,37.25499709447226L39.81579166666667,37.30332983864679L39.99704166666667,47.308561537000855L40.238708333333335,26.019142998589416L40.480375,22.872657775878906L40.60120833333334,49.87373352050781L41.749125,44.994177553388795L42.05120833333333,57.50667625003392L42.111625,27.390826278262665L42.41370833333333,46.63331773546008L42.655375,46.6988852288988L42.71579166666666,49.839594099256715L42.836625,31.828738848368317L43.31995833333333,47.781892352634L43.380375,60.09259594811334L43.742875000000005,44.149674839443634L43.80329166666667,27.537357012430817L43.863708333333335,28.507996400197356L44.044958333333334,57.399872673882385L44.58870833333333,59.459271960788314L45.07204166666667,59.73597102695042L45.9795,47.183367941114625L46.22116666666666,36.302771303388795L46.583666666666666,40.323183271619996L46.82533333333333,52.62221627765233L46.94616666666666,69.98510625627306L47.671166666666664,58.150421248541946L47.73158333333333,55.44902165730795L48.698249999999994,27.44500610563489L49.483666666666664,60.39023134443495L49.54408333333333,63.0574443605211L49.66491666666667,59.569494194454634L50.02741666666667,61.07174661424425L50.57116666666667,60.14140023125543L50.692,43.866044150458464L50.75241666666666,52.961889372931594L50.93366666666667,54.725067880418564L51.296166666666664,82.55296362770929L51.83991666666667,73.4356869591607L52.021166666666666,59.11568509207832L52.081583333333334,74.71322748396132L52.62533333333333,55.48127492268881L52.68575,65.74064254760742L53.592,81.55950175391304L53.712833333333336,58.19724506802031L53.83366666666667,63.86669953664145L54.6795,67.06854343414307L54.98158333333333,51.75104803509181L55.10241666666667,76.41321976979575L55.28366666666666,62.504046228196884L55.767,87.34288003709581L56.1295,66.19673861397638L56.25033333333334,56.8882293171353L56.372375,86.33899715211656L56.734874999999995,87.85963959164091L57.03695833333333,72.25224203533598L57.641125,78.67585235171849L57.76195833333333,70.91557052400377L58.003625,61.06283452775743L58.366125000000004,74.6836855676439L58.607791666666664,65.67491001553007L58.66820833333333,76.74935632281834L58.97029166666667,87.06827931933934L59.091125000000005,56.932884057362884L59.15154166666667,60.848119258880615L59.272375,53.662336932288284L59.393208333333334,66.65208021799725L59.453624999999995,82.43227322896323L59.75570833333334,75.29593176311919L59.816125,75.78772332933214L60.359875,59.20294337802464L60.722375,80.1132681634691L60.84320833333334,59.65458340115019L61.14529166666667,50.276451375749375L61.447375,65.0786018371582L61.56820833333333,46.468114058176695L62.29320833333333,88.78336085213556L62.716125,44.68939834170871L62.77654166666667,67.86572721269395L62.897375000000004,54.50832499398126L62.957791666666665,82.47626781463623L63.018208333333334,56.70685185326471L63.078625,71.94963190290663L63.19945833333333,77.66154845555624L63.38070833333333,66.2321276134915L63.622375000000005,67.71886640124852L63.924458333333334,52.83476246727838L64.10570833333333,82.15215550528633L64.347375,103.66774770948622L64.528625,78.32554605272081L64.709875,76.77840312321982L64.77029166666667,86.90522114435834L64.95154166666667,88.67174757851495L65.01195833333334,79.9648748503791L65.19320833333333,77.94706530041167L65.253625,72.59498013390436L65.55570833333333,64.1007243262397L65.616125,76.64573563469781L66.03904166666668,86.74444993336996L66.22029166666667,80.56106514400908L66.46195833333333,77.7383385764228L66.64320833333333,94.55476204554242L66.884875,63.565763367546936L67.06733333333334,68.64588843451607L67.309,88.91942342122397L67.49025,75.27431170145672L67.55066666666666,73.14264906777277L67.61108333333333,90.77507072024876L68.034,92.32464207543268L68.3965,80.99080218209161L68.51733333333334,57.41291072633531L68.57775,71.34992864396837L68.81941666666667,52.283533414204925L69.06108333333333,60.37139336268109L69.24233333333333,70.12234767278036L69.30275,76.19018183814156L69.36316666666667,80.44315682517158L69.48400000000001,59.850083457099075L69.60483333333333,52.65670935312909L70.14858333333333,60.307405524783675L70.209,70.8361397849189L70.39025,76.73478576872084L70.45066666666666,67.40592956542969L70.51108333333333,97.91518449783327L70.63191666666667,89.85295269224379L70.69233333333334,72.2689109378391L71.05483333333333,88.41827180650499L71.29650000000001,72.13393290837607L71.35691666666666,69.31203153398302L71.47775,89.29302374521893L71.59858333333334,80.04836082458496L71.77983333333333,63.68246926201715L71.84025,73.86818250020346L71.90066666666667,48.73548560672336L71.96108333333333,82.17691130108305L72.14233333333333,88.96249850591025L72.384,70.38148191240099L72.68608333333333,80.11091046863133L72.74650000000001,76.13461097081503L72.80691666666667,96.38060808181764L73.16941666666668,93.51473569869997L73.53191666666666,61.52531994713678L73.77358333333333,68.56360488467747L73.95483333333334,76.49729516771104L74.1965,57.7892459763421L74.43816666666666,74.61000760396323L74.559,67.18506071302626L74.86108333333333,91.51816897922093L75.04233333333333,76.04796568552655L76.31108333333333,89.95322545369467L76.43191666666667,60.18388589223227L76.49233333333333,81.61665227678087L76.734,69.12718825870091L76.85483333333333,87.13280942704942L77.09649999999999,71.92537122302586L77.21733333333333,78.6293821864658L77.64145833333333,66.5034039815267L78.00395833333333,86.90529187520346L78.245625,78.16189845403036L78.66854166666667,105.35161336263022L78.72895833333334,98.58003086513943L78.789375,74.34787909189862L78.84979166666666,80.01184013154771L79.151875,73.7248582310147L79.27270833333334,89.56147087944879L79.45395833333333,104.80080869462756L79.51437499999999,71.40076054467096L79.63520833333332,86.12701680925157L80.11854166666667,72.44995832443237L80.17895833333333,70.81242137485081L80.36020833333333,94.11071379979452L80.783125,90.41733768251208L80.96437499999999,80.07420116000706L81.50812499999999,81.42299122280546L81.62895833333333,69.99682399961684L81.689375,60.62654309802586L81.74979166666667,67.84163157145184L81.93104166666667,83.82574160893759L81.99145833333333,66.43946329752606L82.233125,103.7408126725091L82.53520833333333,108.09370676676434L82.59562500000001,99.83830902311537L82.83729166666666,73.46676137712267L82.89770833333334,84.28603437211778L82.958125,69.82490089204576L83.01854166666666,82.27718406253392L83.26020833333334,73.21474737591215L83.320625,93.49839687347414L83.501875,72.94363604651558L83.56229166666667,86.69597572750517L84.04562499999999,84.80201588736641L84.28729166666666,101.72531366348268L84.408125,92.79992977778119L84.52895833333334,84.0820230378045L84.58937499999999,67.35177331500584L85.01229166666667,96.32654613918729L85.07270833333334,86.82772371504043L85.133125,96.90283748838637L85.314375,95.85321532355415L85.79770833333333,78.48950015174019L85.91854166666666,78.40403371387059L86.16020833333333,69.0152684847514L86.220625,81.77905029720732L86.52270833333333,77.37129264407689L86.94562499999999,65.2444420920478L87.61020833333333,89.84246095021567L87.73104166666667,90.83627647823758L88.09354166666667,92.2121564547221L88.15395833333334,72.04540146721735L88.27479166666666,80.0276131100125L88.33641666666666,99.71257315741646L88.57808333333334,81.9198989868164L88.81975,93.60444598727757L88.94058333333332,124.7922690709432L89.24266666666668,74.9566830529107L89.30308333333333,104.88460116916234L89.36349999999999,85.45790301428902L89.84683333333334,95.22507826487225L90.20933333333333,93.17147890726727L90.45100000000001,96.0641818576389L90.51141666666666,94.12639247046577L90.57183333333334,83.80598412619698L91.11558333333333,107.15539137522381L91.23641666666667,73.89826668633356L91.41766666666666,116.139976978302L91.78016666666667,80.52423795064291L92.2635,77.4883286158244L92.38433333333333,93.2398049036662L93.59266666666666,75.52927282121446L93.65308333333334,79.23877557118735L93.89474999999999,103.44254069858128L93.95516666666667,92.80973778830635L94.01558333333332,101.24248133765327L95.10308333333334,85.21357509824966L95.40516666666667,91.8608127699958L95.82808333333334,84.98754289415147L95.8885,76.48574246300592L96.25099999999999,68.78888262642755L96.37183333333333,93.41943767335681L96.67391666666666,96.53020381927492L96.79475,65.5118046866523L96.91558333333333,88.48761161168417L97.15725,84.97688611348471L97.76141666666668,91.66201194127402L98.24475,87.51081864039105L98.30516666666668,114.70760663350424L98.36558333333333,101.27610206604005L98.48641666666667,83.36148791842992L98.96975,111.46714369455975L99.09179166666667,105.69802946514555L99.45429166666666,109.06764692730376L99.575125,84.7092405954997L99.69595833333334,95.77286508348254L99.756375,80.35196118884618L99.937625,91.53670046064589L100.05845833333333,89.96447165807089L100.23970833333333,88.42025227016875L100.72304166666667,90.7077349556817L101.14595833333333,94.31043412950305L101.50845833333334,88.25778351889717L101.75012500000001,94.42409859763252L101.81054166666667,103.42297183142769L101.87095833333332,62.31345017751059L101.931375,104.06261444091798L102.293875,109.39282019933066L102.89804166666666,121.03285392125449L103.018875,97.69507010777792L103.20012500000001,91.87955644395618L103.26054166666667,84.88887336519029L103.44179166666666,80.89510334862604L103.80429166666667,96.28585232628717L103.925125,96.20703458786012L104.106375,111.59417629241945L104.287625,96.68406698438856L104.468875,86.48819208145142L104.52929166666667,105.20560132132637L104.89179166666666,94.93248833550348L105.61679166666667,98.22493844562108L106.28137500000001,88.53026231129965L106.52304166666666,79.56866423288983L107.06679166666666,99.18796247906155L107.368875,97.91987631056044L107.42929166666666,96.60352812872993L107.61054166666668,95.64517233106825L107.67095833333333,92.62586116790773L107.79179166666667,110.75384669833714L107.85220833333332,96.87131510840523L109.06054166666667,85.97232845094469L109.12095833333333,102.13194529215497L109.18137499999999,99.33687448501588L109.48345833333335,98.23802365197076L109.66470833333334,77.97080728742813L109.84716666666668,80.8174408806695L109.96799999999999,70.32107777065703L110.20966666666666,100.54936620924208L110.27008333333333,105.48810031678943L110.45133333333334,100.84042363696629L110.693,106.49118158552382L110.81383333333333,82.7435596783956L111.65966666666667,98.40697606404623L112.20341666666667,107.39196247524687L112.26383333333334,92.0426146189372L112.92841666666668,111.96508884429933L113.41175,99.25154950883655L113.47216666666667,95.04827472898695L113.65341666666667,116.83552053239612L113.77425,90.45631037818062L113.83466666666666,97.50046597586739L114.318,106.05085849761964L114.37841666666668,113.80986717012195L114.43883333333333,83.56691386964586L114.68050000000001,86.65716807047528L114.80133333333333,81.06728580262926L114.92216666666667,107.64612197875978L115.4055,104.10863664415149L115.70758333333335,96.50016678704156L115.768,108.82190439436171L115.94924999999999,83.75593026479086L116.37216666666666,107.7837642033895L117.09716666666667,87.25408924950494L117.39925,120.75705077913074L117.45966666666668,113.11488946278891L117.58049999999999,88.4855604171753L117.64091666666667,91.05412748124866L118.00341666666667,88.26120217641196L118.42633333333333,105.5985818968879L118.48675,77.57379505369398L119.03049999999999,117.0614348517524L119.27216666666666,98.90536917580499L119.393,113.7956738471985L119.63466666666666,94.81707917319405L120.17841666666666,121.96048895517987L120.542125,111.85611618889703L120.60254166666667,111.17252614763049L120.90462500000001,108.1970681084527L121.38795833333333,101.59545183181764L121.50879166666667,105.41718085606894L121.93170833333333,93.67423375447592L121.992125,106.09539535310535L122.23379166666668,92.0960635609097L122.535875,86.1448409822252L122.717125,83.31739902496338L122.83795833333333,97.12141937679715L123.01920833333332,99.60124280717639L123.20045833333333,93.89010429382326L123.442125,100.41872633828058L123.92545833333332,113.66838190290663L124.40879166666667,114.36189783944025L124.529625,116.6147459877862L124.65045833333333,93.41814094119603L124.83170833333334,109.50886593924629L124.89212500000001,121.46301534440784L125.25462499999999,102.566892835829L125.31504166666667,98.94856214523317L125.798375,109.2201426294115L125.979625,124.47754038704767L126.04004166666667,111.94080458747017L126.10045833333334,113.30322212643095L126.160875,124.45936255984837L126.28170833333333,98.27994346618654L126.46295833333333,117.9795683754815L126.88587500000001,101.94731420940823L126.94629166666667,117.54846387439305L127.36920833333333,92.97654469807944L127.429625,92.577080461714L127.49004166666667,111.79929574330649L128.03379166666667,84.05245754453873L128.27545833333332,98.19209575653078L128.39629166666666,113.51112365722658L128.45670833333332,129.30206775665283L128.57754166666666,97.21346378326417L128.879625,104.47679069307117L128.94004166666667,114.19117715623645L129.06087499999998,120.3461281458537L129.12129166666668,89.9572335349189L129.18170833333332,99.07564189698962L129.48379166666666,107.86741521623401L130.329625,105.62699211968317L130.873375,84.39543141259088L131.17666666666665,105.96600506040785L131.59958333333333,83.04164303673639L131.66,118.03627093633017L132.20374999999999,93.65714046690199L132.62666666666667,111.09726852840849L133.11,117.75928894678754L133.17041666666665,120.09715557098389L133.35166666666666,102.76383108562894L133.77458333333334,102.68359873029921L133.89541666666668,89.25730466842653L134.13708333333335,103.57216676076254L134.74125,116.85579670800104L134.80166666666668,111.14769962098865L134.98291666666665,101.07381184895834L135.285,95.06185505125258L135.52666666666667,108.27428261439007L136.31208333333333,113.69926770528158L136.43291666666667,106.4300937122769L136.49333333333334,93.46873707241483L136.85583333333332,83.6693557103475L136.91625,97.42301570044624L136.97666666666666,97.64595932430692L137.0975,108.68336624569365L137.21833333333333,92.08814170625476L137.94333333333333,97.18767060173883L138.72875,98.36665948232016L139.03083333333333,89.60890769958498L139.39333333333335,97.63603342903986L139.75583333333333,99.39258681403267L139.81625,114.76221084594727L140.17875,91.88545068105063L140.42041666666668,101.70772525999281L140.54125,111.06744368871054L140.66208333333333,108.39843882454767L141.02458333333334,74.33455811606514L141.20583333333335,71.78084452946982L141.32666666666668,98.36649444368152L141.50791666666666,104.92725186877782L141.68916666666667,104.65691857867772L141.81120833333333,85.41197511884903L142.35495833333331,105.48538896772597L142.47579166666665,141.6243476337857L143.20079166666667,144.74162101745605L143.26120833333334,106.65820068783232L143.321625,113.83254819446141L144.16745833333334,96.12482176886665L144.409125,114.49357509613037L144.65079166666666,94.68452956941394L144.89245833333334,122.9959649509854L144.952875,124.2464155620999L145.134125,118.00088193681506L145.25495833333332,128.267322646247L145.3757916666667,120.45552518632678L145.859125,110.3721594810486L145.97995833333334,101.38568772210016L146.16120833333335,100.91466744740805L146.34245833333333,111.91746340857613L146.52370833333333,124.48522647221884L146.64454166666667,86.69333510928685L146.82579166666665,120.41101190778946L147.00704166666668,103.83809116151599L147.06745833333332,128.8825395372179L147.97370833333335,109.57134485244752L148.396625,110.53403880861072L148.69870833333331,111.96225961049399L148.75912499999998,114.27162170410156L148.81954166666668,92.88711733288235L148.940375,106.8586990568373L149.00079166666666,95.3554587894016L149.121625,109.03659608629016L149.24245833333333,113.98461951149835L149.484125,106.92902909384834L149.72579166666665,102.56406360202367L150.027875,106.99065923690797L150.14870833333333,116.03925625483197L150.57162499999998,100.18604543473987L150.69245833333335,99.29679367277357L150.752875,103.66935094197592L150.93412500000002,114.30639770295886L151.05495833333333,100.44638209872777L151.296625,99.99396403630575L151.477875,109.71804062525433L151.59870833333332,105.98038699891833L151.7195416666667,104.50472937689888L151.77995833333333,92.73773378796048L152.384125,105.72462426291573L152.44454166666665,86.47001425425213L152.627,122.95904344982573L152.80825,120.03116369247437L152.9895,123.60514614317154L153.04991666666666,122.3151805665758L153.23116666666667,125.0851419236925L153.29158333333334,112.51136673821344L153.41241666666664,136.5242057376438L153.71450000000002,107.92532020144994L153.77491666666668,123.86272430419922L154.1978333333333,108.15717591179742L154.25825,128.53529824150934L154.49991666666668,116.00792249043783L154.62075,134.98166031307647L154.74158333333335,126.86501291063098L154.98325,111.54664516448976L155.58741666666668,93.28903357187909L155.70825,98.27562888463339L155.82908333333336,113.21146064334447L155.8895,119.49962139129639L156.13116666666667,97.72161775165135L156.31241666666665,119.33566729227704L156.79575,141.76191912757028L157.03741666666667,104.38500563303631L157.21866666666668,112.91233989927504L157.88325,127.21843136681451L158.12491666666665,129.86975351969403L158.24575000000002,106.77396350436742L158.427,112.45862510469226L158.54783333333333,117.31583012474908L158.60825,90.48479133182103L158.7290833333333,110.14348665873212L158.84991666666667,107.2790288925171L158.91033333333334,95.86387210422093L159.03116666666668,121.13237222035727L159.152,97.30447080400256L159.21241666666666,108.96211650636462L159.45408333333333,112.36278480953642L159.5145,107.76900503370497L159.63533333333334,110.42301495869955L159.81658333333334,124.41515578163995L160.11866666666668,97.8160670068529L160.84366666666665,105.4323172569275L161.08533333333332,122.72511296802098L161.26658333333333,116.42174508836536L161.87075,102.36945947011313L162.23325,103.31025044123334L162.29366666666667,100.36350912517972L162.4145,107.65154467688667L162.59575,122.47918181949193L162.77700000000002,112.51966582404243L162.83741666666668,98.50130743450589L162.89783333333332,112.10534811019899L163.44279166666666,122.64172130160863L163.50320833333333,98.54308578703139L163.563625,112.61812316046822L163.68445833333334,113.32684622870552L164.40945833333333,115.52975840038725L164.469875,140.42178180482654L164.53029166666667,120.00032504399618L164.59070833333334,126.77013927035863L165.07404166666666,115.22665315204198L165.61779166666668,111.92903969022963L165.919875,98.40395821465387L166.644875,110.65463489956328L167.49070833333334,123.03988880581328L167.67195833333335,114.5390550295512L167.73237500000002,128.48658826616077L167.79279166666666,106.21028582255047L167.91362500000002,137.02479150560168L168.39695833333332,119.10331646601361L168.51779166666668,111.13866964975995L168.638625,115.7839886347453L168.75945833333336,103.91938447952272L169.363625,111.1733749177721L169.84695833333333,118.72455279032391L169.907375,119.99492592281767L170.20945833333332,113.0653778711955L170.57195833333336,111.52592102686566L171.05529166666665,95.44281138314142L171.4177916666667,139.49256711535986L171.47820833333333,127.44524161020917L171.59904166666666,105.9862576590644L171.719875,118.6941385269165L172.02195833333334,86.66440619362726L173.169875,122.76370843251547L173.29070833333336,113.69101577334935L173.532375,91.58173243204754L173.59279166666667,118.5930641492208L174.13774999999998,115.9159959687127L174.25858333333335,119.181780550215L174.43983333333335,131.43398973676895L174.50025,132.46215687857733L174.56066666666666,139.5505428314209L175.16483333333332,132.10487180285986L175.22525000000002,116.78063339657255L175.4065,104.758464495341L175.52733333333333,97.56928708818225L175.769,125.5037742190891L175.88983333333334,99.06552738613553L176.07108333333335,103.51143254174127L176.19191666666666,136.96160528394913L176.31275000000002,110.13459814919366L176.43358333333333,119.37596029705473L176.97733333333332,104.8007615407308L177.219,117.64626105626425L177.46066666666667,122.0632372962104L177.58149999999998,105.97975042131213L177.76275,110.43220996856691L177.94400000000002,117.80924850040013L178.3065,117.39886813693577L178.36691666666667,132.05194155375165L178.6085833333333,114.6349424786038L178.78983333333335,92.91010485755073L178.97108333333335,110.1901690165202L179.09191666666666,128.15377606285944L179.63566666666665,126.29959053463408L179.81691666666669,108.82911894056532L179.87733333333333,118.74680942959257L179.93775,132.76009877522787L179.99816666666666,104.25365845362347L180.17941666666667,114.15524588690865L180.42108333333334,107.89709859424168L180.78358333333333,111.87320947647096L180.84400000000002,103.57254399193658L181.02525,82.12388674418133L181.50858333333332,105.43997976515028L181.81066666666666,109.55217679341635L181.99191666666667,125.05748616324531L182.17316666666667,114.57515133751764L182.23358333333334,120.79154385460748L182.35441666666665,116.01879146364001L182.53566666666666,115.38476016786365L182.59608333333333,114.19120073318481L182.7169166666667,131.67435672548083L183.07941666666667,111.96136368645563L183.26066666666668,101.63470745086671L183.44191666666666,120.373854637146L183.50233333333335,108.0607933468289L183.74400000000003,99.26324367523195L184.1065,102.94850932227241L184.83270833333333,129.85445208019684L185.074375,127.04440991083783L185.1952083333333,112.40871270497641L185.49729166666668,120.10337988535565L185.799375,105.65410561031766L186.34312500000001,123.95288255479602L186.58479166666666,109.82668320337933L186.82645833333333,117.16842704349095L187.0077083333333,108.07816955778334L187.91395833333334,140.9294406572978L188.518125,144.4136420885722L188.57854166666667,119.79225847456192L188.63895833333333,110.82290358013579L188.82020833333334,104.96429125467938L189.18270833333332,122.28585084279379L189.54520833333333,118.56918070051407L189.605625,129.9422762129042L189.66604166666667,115.03094090355768L189.7264583333333,121.03919612036812L189.786875,103.20653544531929L189.84729166666668,113.78605445226034L189.90770833333332,112.42832872602675L190.39104166666667,143.06749264399213L191.780625,113.8813524776035L191.84104166666665,123.51930247412788L191.90145833333335,137.70354827245077L192.324375,122.65549023946127L192.98895833333333,108.55402310689291L193.10979166666667,114.89131821526422L193.35145833333334,129.35877031750152L193.83479166666666,124.04886431164213L193.89520833333333,136.09397358364532L194.07645833333333,133.913365205129L194.19729166666667,128.0008323987325L194.2577083333333,94.39097298516168L194.37854166666668,122.7801651424832L195.46725,121.87374936209785L195.76933333333335,128.66914457745025L195.95058333333333,121.1045985751682L196.13183333333333,128.8305523660448L196.67558333333332,116.7940722571479L196.736,127.38625208536786L197.0985,106.73317538367378L197.21933333333334,104.9469386206733L197.27974999999998,125.03308402167427L197.64225000000002,127.42614428202313L197.82350000000002,125.85742844475641L197.88391666666666,136.4533805847168L198.186,133.48798990249634L198.30683333333332,119.27087783813477L198.42766666666668,107.09871239132353L198.60891666666666,122.99099021487767L198.66933333333336,119.81274684270224L199.15266666666665,144.14922661251495L199.45475000000002,113.14395984013876L199.57558333333333,129.6753380033705L199.636,107.43482536739775L199.6964166666667,133.16614098019073L200.361,130.54115427864923L200.96516666666665,121.41338586807251L201.4485,119.85322846306696L202.47558333333333,113.0908645523919L202.77766666666668,119.61694028642444L202.89849999999998,135.4682885275947L202.95891666666668,103.71216668023004L203.14016666666666,122.08068423801L203.74433333333334,124.27218516667685L204.10683333333333,127.16363853878447L204.3485,120.7931235101488L204.65058333333334,124.02818732791478L204.77141666666668,107.50829113854303L204.89225,135.77648639678955L205.01308333333333,127.73580392201742L205.13391666666666,132.56283044815063L205.37558333333334,113.42271010080975L205.436,126.45350085364448L205.61725,125.35943614112007L205.67766666666668,113.1549702750312L205.73808333333332,108.64519516626996L205.97975,143.19398297203912L206.04137500000002,127.49701658884686L206.22262500000002,153.06091229120892L206.28304166666666,124.44408469729954L206.403875,120.72432597478232L206.7059583333333,133.8817956712511L206.82679166666668,116.08164760801529L206.88720833333332,141.5040816201104L206.947625,123.90483273400201L207.310125,133.3630556530423L207.43095833333334,124.44948381847807L207.61220833333334,130.76544178856744L208.15595833333333,145.20896328820123L208.3372083333333,122.63992945353192L208.45804166666667,119.75708166758221L208.57887499999998,123.72369103961522L208.69970833333335,115.27312331729466L208.82054166666666,115.17975860171849L209.36429166666665,128.275433116489L209.60595833333332,126.20096815956964L209.72679166666668,118.67787043253583L209.90804166666666,127.4160769250658L210.39137499999998,105.37243180804784L210.63304166666666,92.19011200798883L210.87470833333333,120.42119714948868L211.2372083333333,122.77641640769112L211.660125,118.11688052283394L211.78095833333333,125.45379108852812L212.08304166666667,116.72426091300117L212.50595833333333,126.52196831173369L212.68720833333333,123.56506533092924L212.747625,117.22828891542224L213.04970833333334,117.16988881429037L213.11012499999998,126.07346402274239L213.17054166666668,123.32238780127632L213.291375,141.57971647050647L213.472625,135.07488356696237L213.77470833333334,126.5703010559082L213.95595833333334,127.11926672193741L214.016375,122.54448996649849L214.13720833333332,130.77048725552032L214.49970833333333,115.92816167407567L215.10387500000002,129.281296465132L215.5267916666667,114.27619563208687L215.70804166666667,132.78648138046265L215.7684583333333,115.31619840198094L216.191375,115.46626567840576L216.25179166666666,119.32555278142294L216.31220833333333,104.73729239569771L216.372625,115.79530556996664L216.67470833333334,110.361950662401L216.79675,124.84979682498509L218.24675,122.78624799516467L218.428,121.45650810665556L218.54883333333333,125.09169631534154L218.85091666666665,137.20404704411825L219.03216666666665,124.63031901253595L219.09258333333332,143.85328875647653L219.21341666666666,127.16969781451756L219.27383333333333,129.86756086349487L219.69675,124.18162610795764L219.81758333333332,132.07424534691705L219.93841666666668,146.81118196911282L220.48216666666667,125.5912446975708L220.78425000000001,132.25713173548382L220.84466666666665,136.7825383610196L221.20716666666667,113.60712899102106L221.328,124.60049417283801L221.44883333333334,116.73281934526233L221.56966666666668,123.34165016810101L221.81133333333335,132.22735404968262L221.99258333333333,126.89342313342625L222.23425,122.07200792100696L222.778,136.70551247066925L222.83841666666666,138.80966080559625L222.89883333333333,117.21826871236166L223.26133333333334,125.36353853013782L223.74466666666666,132.6086876127455L223.98633333333333,128.50724167293976L224.10716666666667,113.60260221693251L224.1675833333333,130.16906287935046L224.228,112.88977675967747L224.46966666666668,116.93885829713611L224.77175,138.4380880991618L225.19466666666665,115.02830028533936L225.678,139.71536927753027L225.91966666666667,153.70826456281875L226.16133333333335,120.79602347479927L226.28216666666665,113.06551933288576L226.64466666666667,106.2853076722887L226.82591666666664,116.90870338016087L226.94675,128.02608331044516L227.06758333333332,131.71347088283966L227.18841666666668,126.4329653316074L227.36966666666666,122.04406923717924L227.43129166666665,135.34196323818634L227.61254166666666,126.58963415357803L227.85420833333333,142.35728422800702L228.33754166666668,145.1509639951918L228.639625,110.63928630616931L228.70004166666666,137.43816614151L228.94170833333334,142.521214750078L229.36462500000002,144.22372976938885L230.02920833333334,140.81384287940134L230.21045833333335,147.32393344243368L230.270875,126.88524193233916L230.45212500000002,134.19977797402277L230.75420833333334,131.21672815746734L231.11670833333332,123.9187902874417L231.177125,132.92084640926788L231.41879166666666,126.40580468707616L231.539625,141.1823505825467L231.902125,123.19021542867026L231.96254166666665,139.1223382949829L232.08337500000002,137.95815573798288L232.32504166666666,131.48213386535645L232.74795833333332,140.54556078381012L233.11045833333336,147.92776266733807L233.29170833333333,120.98775121900772L233.65420833333334,123.09616698159113L234.13754166666666,148.50975963804459L234.31879166666667,131.5180179807875L234.439625,141.8779648674859L234.50004166666668,125.93494945102269L234.802125,131.58771144019232L234.86254166666666,141.2349271774292L235.04379166666666,128.50681728786896L235.164625,126.6774582862854L235.22504166666664,115.19074545966255L235.345875,125.7577215300666L235.64795833333332,121.05287075042725L236.25212499999998,125.34524281819662L236.61462500000002,102.69029458363852L236.73545833333333,143.6581423547533L236.795875,120.4779232872857L237.03754166666667,131.91227171156143L237.09795833333334,115.10879198710126L237.33962499999998,140.28939723968506L237.46045833333335,109.15577756034004L237.82295833333333,138.52261145909628L237.88337499999997,126.34636720021567L238.064625,142.6117973857456L238.2470833333333,146.56317604912653L238.97208333333333,147.1035361289978L239.27416666666664,135.9123131963942L239.3345833333333,132.66982263988922L239.45541666666668,131.10650592380102L239.99916666666667,130.92854711744522L240.05958333333334,158.1726540459527L240.42208333333335,144.41668351491293L240.48250000000002,145.33993323644003L241.32833333333335,126.99534628126358L241.57,129.83311494191489L241.69083333333333,140.34147871865167L241.81166666666667,141.12357325024078L241.99291666666664,128.81105422973633L242.17416666666665,125.33170964982776L242.71791666666667,141.20948765012955L243.08041666666668,141.5584264861213L243.20125,137.6195436053806L243.8658333333333,140.95287614398535L243.92625,148.99360577265423L244.28875,140.19511302312216L244.71166666666667,134.10801649093628L246.16166666666666,156.16974512736004L246.22208333333333,132.8369360499912L246.34291666666667,132.83849212858414L246.52416666666664,142.1784059206645L246.645,146.21152586407132L247.91375000000002,130.6699315706889L248.095,129.4261768129137L248.33666666666664,146.36968003378976L248.3970833333333,125.83441734313965L248.4575,122.21978823343915L248.57833333333332,134.21420706643L248.76079166666665,153.47834216223825L248.94204166666665,117.48004357020062L249.06287500000002,138.5884147220188L249.18370833333333,140.6992824872335L249.606625,127.28454113006592L249.78787499999999,148.5017906294929L249.84829166666668,143.08432658513388L250.02954166666666,125.04576841990155L250.331625,113.17237006293404L250.81495833333332,149.67215034696792L251.056625,138.2220760981242L251.1774583333333,147.3412624994914L251.29829166666667,150.49031760957507L251.35870833333334,135.6037145190769L251.72120833333335,142.05799844529895L251.96287500000003,134.15045499801636L252.08370833333333,157.4951940112644L252.20454166666664,146.87981446584067L252.38579166666668,134.40829250547623L252.92954166666667,119.38395288255481L253.050375,144.36960034900244L253.11079166666667,131.45697726143732L253.35245833333335,142.61799812316895L253.65454166666666,141.51403109232587L253.775375,124.75308418273926L254.37954166666668,150.56220372517905L254.500375,135.3132936689589L254.62120833333333,144.54199499554107L255.406625,125.17063193851048L255.64829166666667,122.09629217783612L255.769125,113.80673143598769L256.37329166666666,123.45064640045166L256.67537500000003,119.35174677107071L257.0982916666667,130.82313458124798L257.27954166666666,144.4352149963379L257.400375,130.90126858817206L257.762875,152.2045503722297L258.6087083333333,122.96519703335234L258.669125,145.09819878472223L258.72954166666665,128.5098351372613L258.850375,143.36076630486383L259.03162499999996,154.43893776999582L259.15245833333336,132.59897391001385L259.45575,127.84744077258641L259.6974166666667,153.7633874681261L259.75783333333334,130.3266747792562L260.12033333333335,145.08287376827667L260.18075,153.8297094239129L260.2411666666667,134.32633903291492L260.54325,140.1346853044298L260.60366666666664,152.37680355707806L260.8453333333333,131.54503716362848L261.50991666666664,138.6128404405382L261.87241666666665,129.81356965170966L262.1140833333333,148.2899045944214L262.23491666666666,136.18979030185278L262.4161666666667,133.93201457129587L262.537,140.06414307488336L262.8995,151.34726895226373L263.08074999999997,129.47641928990683L263.32241666666664,128.30198076036243L263.5640833333333,150.71585469775732L263.68491666666665,148.45166603724164L263.8661666666667,136.22458987765845L263.987,139.4514960712857L264.2286666666667,137.50312063429092L264.3495,140.192731751336L264.53075,145.0490172704061L264.8328333333333,144.62399562199911L265.0745,147.7094872792562L265.13491666666664,142.56275733311972L265.25575,138.73336580064563L265.79949999999997,145.16647762722442L265.85991666666666,159.98310433493722L266.5245,153.93106672498917L266.6453333333333,153.59509521060522L266.70575,129.57197666168213L267.1286666666667,162.09720214207968L267.2495,145.23848162757028L267.30991666666665,132.2853297657437L267.37033333333335,132.5529988606771L267.43075,141.03782388899063L267.67241666666666,147.0934451950921L267.79325,144.05003839068945L269.12241666666665,139.07947540283203L269.3036666666667,138.41165834003027L269.8474166666667,157.94211864471436L270.02866666666665,154.54819334877863L270.1495,147.8573618994819L270.15070833333334,148.2887493239509" style="fill: none;" fill="none"></path></g></g></g></g></g></g><g transform="translate(40, 178)" clip-path="url(#clip_1)"><clipPath id="clip_1"><rect width="290" height="22"></rect></clipPath><g><g><line x1="0" y1="0" x2="0" y2="5" style="visibility: inherit;" fill="rgb(0, 0, 0)" stroke="rgb(204, 204, 204)" stroke-width="1px"></line><line x1="24.166666666666664" y1="0" x2="24.166666666666664" y2="5" style="visibility: inherit;" fill="rgb(0, 0, 0)" stroke="rgb(204, 204, 204)" stroke-width="1px"></line><line x1="48.33333333333333" y1="0" x2="48.33333333333333" y2="5" style="visibility: inherit;" fill="rgb(0, 0, 0)" stroke="rgb(204, 204, 204)" stroke-width="1px"></line><line x1="72.5" y1="0" x2="72.5" y2="5" style="visibility: inherit;" fill="rgb(0, 0, 0)" stroke="rgb(204, 204, 204)" stroke-width="1px"></line><line x1="96.66666666666666" y1="0" x2="96.66666666666666" y2="5" style="visibility: inherit;" fill="rgb(0, 0, 0)" stroke="rgb(204, 204, 204)" stroke-width="1px"></line><line x1="120.83333333333334" y1="0" x2="120.83333333333334" y2="5" style="visibility: inherit;" fill="rgb(0, 0, 0)" stroke="rgb(204, 204, 204)" stroke-width="1px"></line><line x1="145" y1="0" x2="145" y2="5" style="visibility: inherit;" fill="rgb(0, 0, 0)" stroke="rgb(204, 204, 204)" stroke-width="1px"></line><line x1="169.16666666666669" y1="0" x2="169.16666666666669" y2="5" style="visibility: inherit;" fill="rgb(0, 0, 0)" stroke="rgb(204, 204, 204)" stroke-width="1px"></line><line x1="193.33333333333331" y1="0" x2="193.33333333333331" y2="5" style="visibility: inherit;" fill="rgb(0, 0, 0)" stroke="rgb(204, 204, 204)" stroke-width="1px"></line><line x1="217.5" y1="0" x2="217.5" y2="5" style="visibility: inherit;" fill="rgb(0, 0, 0)" stroke="rgb(204, 204, 204)" stroke-width="1px"></line><line x1="241.66666666666669" y1="0" x2="241.66666666666669" y2="5" style="visibility: inherit;" fill="rgb(0, 0, 0)" stroke="rgb(204, 204, 204)" stroke-width="1px"></line><line x1="265.8333333333333" y1="0" x2="265.8333333333333" y2="5" style="visibility: inherit;" fill="rgb(0, 0, 0)" stroke="rgb(204, 204, 204)" stroke-width="1px"></line><line x1="290" y1="0" x2="290" y2="5" style="visibility: inherit;" fill="rgb(0, 0, 0)" stroke="rgb(204, 204, 204)" stroke-width="1px"></line></g><g transform="translate(0, 8)"><text x="0" y="0" dx="0em" dy="0.95em" style="text-anchor: middle; visibility: hidden; font-family: &quot;Helvetica Neue&quot;, sans-serif; font-size: 12px; font-weight: 200;" fill="rgb(50, 49, 63)" stroke="none" stroke-width="1px">-20k</text><text x="24.166666666666664" y="0" dx="0em" dy="0.95em" style="text-anchor: middle; visibility: inherit; font-family: &quot;Helvetica Neue&quot;, sans-serif; font-size: 12px; font-weight: 200;" fill="rgb(50, 49, 63)" stroke="none" stroke-width="1px">0</text><text x="48.33333333333333" y="0" dx="0em" dy="0.95em" style="text-anchor: middle; visibility: hidden; font-family: &quot;Helvetica Neue&quot;, sans-serif; font-size: 12px; font-weight: 200;" fill="rgb(50, 49, 63)" stroke="none" stroke-width="1px">20k</text><text x="72.5" y="0" dx="0em" dy="0.95em" style="text-anchor: middle; visibility: inherit; font-family: &quot;Helvetica Neue&quot;, sans-serif; font-size: 12px; font-weight: 200;" fill="rgb(50, 49, 63)" stroke="none" stroke-width="1px">40k</text><text x="96.66666666666666" y="0" dx="0em" dy="0.95em" style="text-anchor: middle; visibility: hidden; font-family: &quot;Helvetica Neue&quot;, sans-serif; font-size: 12px; font-weight: 200;" fill="rgb(50, 49, 63)" stroke="none" stroke-width="1px">60k</text><text x="120.83333333333334" y="0" dx="0em" dy="0.95em" style="text-anchor: middle; visibility: inherit; font-family: &quot;Helvetica Neue&quot;, sans-serif; font-size: 12px; font-weight: 200;" fill="rgb(50, 49, 63)" stroke="none" stroke-width="1px">80k</text><text x="145" y="0" dx="0em" dy="0.95em" style="text-anchor: middle; visibility: hidden; font-family: &quot;Helvetica Neue&quot;, sans-serif; font-size: 12px; font-weight: 200;" fill="rgb(50, 49, 63)" stroke="none" stroke-width="1px">100k</text><text x="169.16666666666669" y="0" dx="0em" dy="0.95em" style="text-anchor: middle; visibility: inherit; font-family: &quot;Helvetica Neue&quot;, sans-serif; font-size: 12px; font-weight: 200;" fill="rgb(50, 49, 63)" stroke="none" stroke-width="1px">120k</text><text x="193.33333333333331" y="0" dx="0em" dy="0.95em" style="text-anchor: middle; visibility: hidden; font-family: &quot;Helvetica Neue&quot;, sans-serif; font-size: 12px; font-weight: 200;" fill="rgb(50, 49, 63)" stroke="none" stroke-width="1px">140k</text><text x="217.5" y="0" dx="0em" dy="0.95em" style="text-anchor: middle; visibility: inherit; font-family: &quot;Helvetica Neue&quot;, sans-serif; font-size: 12px; font-weight: 200;" fill="rgb(50, 49, 63)" stroke="none" stroke-width="1px">160k</text><text x="241.66666666666669" y="0" dx="0em" dy="0.95em" style="text-anchor: middle; visibility: hidden; font-family: &quot;Helvetica Neue&quot;, sans-serif; font-size: 12px; font-weight: 200;" fill="rgb(50, 49, 63)" stroke="none" stroke-width="1px">180k</text><text x="265.8333333333333" y="0" dx="0em" dy="0.95em" style="text-anchor: middle; visibility: inherit; font-family: &quot;Helvetica Neue&quot;, sans-serif; font-size: 12px; font-weight: 200;" fill="rgb(50, 49, 63)" stroke="none" stroke-width="1px">200k</text><text x="290" y="0" dx="0em" dy="0.95em" style="text-anchor: middle; visibility: hidden; font-family: &quot;Helvetica Neue&quot;, sans-serif; font-size: 12px; font-weight: 200;" fill="rgb(50, 49, 63)" stroke="none" stroke-width="1px">220k</text></g><line x1="0" y1="0" x2="290" y2="0" fill="rgb(0, 0, 0)" stroke="rgb(204, 204, 204)" stroke-width="1px"></line></g></g></g></g></svg>