<svg viewBox="0 0 330 200" xmlns="http://www.w3.org/2000/svg"><g><g><g><g><g><line x1="30" y1="178" x2="25" y2="178" style="visibility: inherit;" fill="rgb(0, 0, 0)" stroke="rgb(204, 204, 204)" stroke-width="1px"></line><line x1="30" y1="161.8181818181818" x2="25" y2="161.8181818181818" style="visibility: inherit;" fill="rgb(0, 0, 0)" stroke="rgb(204, 204, 204)" stroke-width="1px"></line><line x1="30" y1="145.63636363636363" x2="25" y2="145.63636363636363" style="visibility: inherit;" fill="rgb(0, 0, 0)" stroke="rgb(204, 204, 204)" stroke-width="1px"></line><line x1="30" y1="129.45454545454547" x2="25" y2="129.45454545454547" style="visibility: inherit;" fill="rgb(0, 0, 0)" stroke="rgb(204, 204, 204)" stroke-width="1px"></line><line x1="30" y1="113.27272727272727" x2="25" y2="113.27272727272727" style="visibility: inherit;" fill="rgb(0, 0, 0)" stroke="rgb(204, 204, 204)" stroke-width="1px"></line><line x1="30" y1="97.0909090909091" x2="25" y2="97.0909090909091" style="visibility: inherit;" fill="rgb(0, 0, 0)" stroke="rgb(204, 204, 204)" stroke-width="1px"></line><line x1="30" y1="80.90909090909092" x2="25" y2="80.90909090909092" style="visibility: inherit;" fill="rgb(0, 0, 0)" stroke="rgb(204, 204, 204)" stroke-width="1px"></line><line x1="30" y1="64.72727272727273" x2="25" y2="64.72727272727273" style="visibility: inherit;" fill="rgb(0, 0, 0)" stroke="rgb(204, 204, 204)" stroke-width="1px"></line><line x1="30" y1="48.54545454545453" x2="25" y2="48.54545454545453" style="visibility: inherit;" fill="rgb(0, 0, 0)" stroke="rgb(204, 204, 204)" stroke-width="1px"></line><line x1="30" y1="32.363636363636346" x2="25" y2="32.363636363636346" style="visibility: inherit;" fill="rgb(0, 0, 0)" stroke="rgb(204, 204, 204)" stroke-width="1px"></line><line x1="30" y1="16.181818181818187" x2="25" y2="16.181818181818187" style="visibility: inherit;" fill="rgb(0, 0, 0)" stroke="rgb(204, 204, 204)" stroke-width="1px"></line><line x1="30" y1="0" x2="25" y2="0" style="visibility: inherit;" fill="rgb(0, 0, 0)" stroke="rgb(204, 204, 204)" stroke-width="1px"></line></g><g transform="translate(20, 0)"><text x="0" y="178" dx="0em" dy="0.3em" style="text-anchor: end; visibility: hidden; font-family: &quot;Helvetica Neue&quot;, sans-serif; font-size: 12px; font-weight: 200;" fill="rgb(50, 49, 63)" stroke="none" stroke-width="1px">66</text><text x="0" y="161.8181818181818" dx="0em" dy="0.3em" style="text-anchor: end; visibility: inherit; font-family: &quot;Helvetica Neue&quot;, sans-serif; font-size: 12px; font-weight: 200;" fill="rgb(50, 49, 63)" stroke="none" stroke-width="1px">68</text><text x="0" y="145.63636363636363" dx="0em" dy="0.3em" style="text-anchor: end; visibility: hidden; font-family: &quot;Helvetica Neue&quot;, sans-serif; font-size: 12px; font-weight: 200;" fill="rgb(50, 49, 63)" stroke="none" stroke-width="1px">70</text><text x="0" y="129.45454545454547" dx="0em" dy="0.3em" style="text-anchor: end; visibility: inherit; font-family: &quot;Helvetica Neue&quot;, sans-serif; font-size: 12px; font-weight: 200;" fill="rgb(50, 49, 63)" stroke="none" stroke-width="1px">72</text><text x="0" y="113.27272727272727" dx="0em" dy="0.3em" style="text-anchor: end; visibility: hidden; font-family: &quot;Helvetica Neue&quot;, sans-serif; font-size: 12px; font-weight: 200;" fill="rgb(50, 49, 63)" stroke="none" stroke-width="1px">74</text><text x="0" y="97.0909090909091" dx="0em" dy="0.3em" style="text-anchor: end; visibility: inherit; font-family: &quot;Helvetica Neue&quot;, sans-serif; font-size: 12px; font-weight: 200;" fill="rgb(50, 49, 63)" stroke="none" stroke-width="1px">76</text><text x="0" y="80.90909090909092" dx="0em" dy="0.3em" style="text-anchor: end; visibility: hidden; font-family: &quot;Helvetica Neue&quot;, sans-serif; font-size: 12px; font-weight: 200;" fill="rgb(50, 49, 63)" stroke="none" stroke-width="1px">78</text><text x="0" y="64.72727272727273" dx="0em" dy="0.3em" style="text-anchor: end; visibility: inherit; font-family: &quot;Helvetica Neue&quot;, sans-serif; font-size: 12px; font-weight: 200;" fill="rgb(50, 49, 63)" stroke="none" stroke-width="1px">80</text><text x="0" y="48.54545454545453" dx="0em" dy="0.3em" style="text-anchor: end; visibility: hidden; font-family: &quot;Helvetica Neue&quot;, sans-serif; font-size: 12px; font-weight: 200;" fill="rgb(50, 49, 63)" stroke="none" stroke-width="1px">82</text><text x="0" y="32.363636363636346" dx="0em" dy="0.3em" style="text-anchor: end; visibility: inherit; font-family: &quot;Helvetica Neue&quot;, sans-serif; font-size: 12px; font-weight: 200;" fill="rgb(50, 49, 63)" stroke="none" stroke-width="1px">84</text><text x="0" y="16.181818181818187" dx="0em" dy="0.3em" style="text-anchor: end; visibility: hidden; font-family: &quot;Helvetica Neue&quot;, sans-serif; font-size: 12px; font-weight: 200;" fill="rgb(50, 49, 63)" stroke="none" stroke-width="1px">86</text><text x="0" y="0" dx="0em" dy="0.3em" style="text-anchor: end; visibility: hidden; font-family: &quot;Helvetica Neue&quot;, sans-serif; font-size: 12px; font-weight: 200;" fill="rgb(50, 49, 63)" stroke="none" stroke-width="1px">88</text></g><line x1="30" y1="0" x2="30" y2="178" fill="rgb(0, 0, 0)" stroke="rgb(204, 204, 204)" stroke-width="1px"></line></g></g><g transform="translate(30, 0)" clip-path="url(#clip_0)"><clipPath id="clip_0"><rect width="300" height="178"></rect></clipPath><g><g><g><line x1="0" y1="0" x2="0" y2="178" fill="rgb(0, 0, 0)" stroke="rgb(60, 60, 60)" stroke-width="1px" opacity="0.25"></line><line x1="25" y1="0" x2="25" y2="178" fill="rgb(0, 0, 0)" stroke="rgb(60, 60, 60)" stroke-width="1px" opacity="0.25"></line><line x1="50" y1="0" x2="50" y2="178" fill="rgb(0, 0, 0)" stroke="rgb(60, 60, 60)" stroke-width="1px" opacity="0.25"></line><line x1="75" y1="0" x2="75" y2="178" fill="rgb(0, 0, 0)" stroke="rgb(60, 60, 60)" stroke-width="1px" opacity="0.25"></line><line x1="100" y1="0" x2="100" y2="178" fill="rgb(0, 0, 0)" stroke="rgb(60, 60, 60)" stroke-width="1px" opacity="0.25"></line><line x1="125" y1="0" x2="125" y2="178" fill="rgb(0, 0, 0)" stroke="rgb(60, 60, 60)" stroke-width="1px" opacity="0.25"></line><line x1="150" y1="0" x2="150" y2="178" fill="rgb(0, 0, 0)" stroke="rgb(60, 60, 60)" stroke-width="1px" opacity="0.25"></line><line x1="175" y1="0" x2="175" y2="178" fill="rgb(0, 0, 0)" stroke="rgb(60, 60, 60)" stroke-width="1px" opacity="0.25"></line><line x1="200" y1="0" x2="200" y2="178" fill="rgb(0, 0, 0)" stroke="rgb(60, 60, 60)" stroke-width="1px" opacity="0.25"></line><line x1="225" y1="0" x2="225" y2="178" fill="rgb(0, 0, 0)" stroke="rgb(60, 60, 60)" stroke-width="1px" opacity="0.25"></line><line x1="250" y1="0" x2="250" y2="178" fill="rgb(0, 0, 0)" stroke="rgb(60, 60, 60)" stroke-width="1px" opacity="0.25"></line><line x1="275" y1="0" x2="275" y2="178" fill="rgb(0, 0, 0)" stroke="rgb(60, 60, 60)" stroke-width="1px" opacity="0.25"></line><line x1="300" y1="0" x2="300" y2="178" fill="rgb(0, 0, 0)" stroke="rgb(60, 60, 60)" stroke-width="1px" opacity="0.25"></line></g><g><line x1="0" y1="178" x2="300" y2="178" fill="rgb(0, 0, 0)" stroke="rgb(60, 60, 60)" stroke-width="1px" opacity="0.25"></line><line x1="0" y1="161.8181818181818" x2="300" y2="161.8181818181818" fill="rgb(0, 0, 0)" stroke="rgb(60, 60, 60)" stroke-width="1px" opacity="0.25"></line><line x1="0" y1="145.63636363636363" x2="300" y2="145.63636363636363" fill="rgb(0, 0, 0)" stroke="rgb(60, 60, 60)" stroke-width="1px" opacity="0.25"></line><line x1="0" y1="129.45454545454547" x2="300" y2="129.45454545454547" fill="rgb(0, 0, 0)" stroke="rgb(60, 60, 60)" stroke-width="1px" opacity="0.25"></line><line x1="0" y1="113.27272727272727" x2="300" y2="113.27272727272727" fill="rgb(0, 0, 0)" stroke="rgb(60, 60, 60)" stroke-width="1px" opacity="0.25"></line><line x1="0" y1="97.0909090909091" x2="300" y2="97.0909090909091" fill="rgb(0, 0, 0)" stroke="rgb(60, 60, 60)" stroke-width="1px" opacity="0.25"></line><line x1="0" y1="80.90909090909092" x2="300" y2="80.90909090909092" fill="rgb(0, 0, 0)" stroke="rgb(60, 60, 60)" stroke-width="1px" opacity="0.25"></line><line x1="0" y1="64.72727272727273" x2="300" y2="64.72727272727273" fill="rgb(0, 0, 0)" stroke="rgb(60, 60, 60)" stroke-width="1px" opacity="0.25"></line><line x1="0" y1="48.54545454545453" x2="300" y2="48.54545454545453" fill="rgb(0, 0, 0)" stroke="rgb(60, 60, 60)" stroke-width="1px" opacity="0.25"></line><line x1="0" y1="32.363636363636346" x2="300" y2="32.363636363636346" fill="rgb(0, 0, 0)" stroke="rgb(60, 60, 60)" stroke-width="1px" opacity="0.25"></line><line x1="0" y1="16.181818181818187" x2="300" y2="16.181818181818187" fill="rgb(0, 0, 0)" stroke="rgb(60, 60, 60)" stroke-width="1px" opacity="0.25"></line><line x1="0" y1="0" x2="300" y2="0" fill="rgb(0, 0, 0)" stroke="rgb(60, 60, 60)" stroke-width="1px" opacity="0.25"></line></g></g></g><g><g><line x1="0" y1="712" x2="300" y2="712" fill="rgb(0, 0, 0)" stroke="rgb(153, 153, 153)" stroke-width="1.5px"></line></g></g><g><g><line x1="25" y1="0" x2="25" y2="178" fill="rgb(0, 0, 0)" stroke="rgb(153, 153, 153)" stroke-width="1.5px"></line></g></g><g><g><g><g><g><path stroke="rgb(255, 112, 67)" stroke-width="2px" d="M31.375,190.41539893693712L31.5625,166.03073658889988L31.625,163.5309496775875L32.0625,155.22353865487398L32.375,163.9745411386827L32.875,180.7491238864055L33.125,165.39594743193555L33.6875,171.51343003724986L33.875,174.5395677044666L34.375,173.32584939643937L34.6875,169.18513006030028L34.875,160.44458952538687L35.4375,158.426481235607L35.5,158.0571024980928L36.0625,149.74646727750994L36.06375,142.8422237234709L36.37625,149.61067651673727L36.50125,147.57761556380353L36.56375,147.5537609442305L36.81375,133.61756843755742L37.31375,149.21297354796528L37.81375,152.0974893303627L37.87625,154.07128656753744L37.93875,159.63319413830777L38.18875,170.00052583686775L38.87625,156.8119282720723L39.25125,138.25713043999937L39.56375,146.07393713313814L39.75125,147.44002739664484L40.501250000000006,140.77423261335917L40.876250000000006,138.8865452387272L41.18875,141.01091384867567L41.37625,137.46716260030357L41.626250000000006,142.2759626769308L41.87625,145.555639972993L42.001250000000006,136.0038515685755L43.18875,131.5799462727317L43.50125,126.29736628991665L43.56375,138.32212482988132L43.87625,137.84111009190966L44.126250000000006,132.13276747338062L44.18875,131.04345387447577L44.31375,136.92538345971752L44.81375,135.2100676668284L44.876250000000006,121.07253385293794L45.251250000000006,120.23022879675923L45.31375,126.08641192516134L45.37625,133.86187384410607L45.563750000000006,128.4607988448159L46.12625,122.3415452803446L46.62625,120.54825047697813L47.565,125.77090113624013L47.815,125.56111495598049L48.19,136.11540127339305L48.440000000000005,132.53643658701162L48.565,118.03814973851735L49.315,116.13198075220134L49.3775,115.74482676808225L50.3775,131.53398129921942L51.19,127.21690367210974L51.2525,119.67976544989224L51.377500000000005,112.12168789431387L51.752500000000005,118.21964109907051L52.315,113.96898641947432L52.440000000000005,117.24292222499783L52.5025,118.30673550163577L52.69,123.58060474425204L53.065,114.12957234140202L53.6275,108.53569406624041L53.815000000000005,113.0283983067542L53.877500000000005,112.15219856324283L54.44,110.61230025033909L54.5025,104.0666510575188L55.44,100.68136331517536L55.565,112.28179717056824L55.690000000000005,113.1760732086798L56.565,109.97837119793515L56.8775,107.10288048465237L57.0025,101.19919250199521L57.19,102.79224277392449L57.69,95.39333522179436L58.065,100.1166588146285L58.190000000000005,107.80635892514071L58.31625,97.18666236769094L58.69125,94.6370878636188L59.00375,97.6240101977522L59.628750000000004,97.18578085231611L59.75375,101.27822543610563L60.003750000000004,102.72867426423788L60.378750000000004,101.0778184612416L60.628750000000004,96.86923774089631L60.691250000000004,93.16855192188159L61.003750000000004,88.83158547663749L61.128750000000004,98.12369382859617L61.19125,102.69633599264769L61.31625,114.292414854644L61.441250000000004,113.08653539405415L61.50375,102.84241168165622L61.816250000000004,95.89250089748802L61.87875,97.96594709389053L62.441250000000004,101.53220053616386L62.816250000000004,100.41818146116921L62.941250000000004,102.88944175800479L63.253750000000004,110.40223139446908L63.566250000000004,111.98193831288884L63.69125,122.01386225087259L64.44125,101.33118944303062L64.87875,114.80884050797039L64.94125,116.53796377299957L65.06625,120.14071122500349L65.12875,109.95547637323007L65.19125,114.82372971598349L65.25375,106.39140885009789L65.37875,105.23144537442315L65.56625,107.0609380920189L65.81625000000001,108.4726354648527L66.12875,110.1178311568413L66.31625,103.67330239838395L66.56625,87.17676197880306L66.75375,90.46202198664255L66.94125,92.22078175111196L67.00375,89.31428723248538L67.19125,82.06119945907581L67.25375000000001,85.29141355639366L67.44125,88.61495710933343L67.50375,91.81054669768454L67.81625,96.72171953139477L67.87875,99.22632201313733L68.31625,94.06899716518001L68.50375,92.29033795198444L68.75375,96.436973822771L68.94125,87.71788081576842L69.19125,99.26029586117626L69.38000000000001,101.08588943076829L69.63,94.61142579269398L69.8175,92.06186612902552L69.88,97.19636483899193L69.9425,92.95796172566074L70.38,82.02477453850366L70.755,90.95371360005537L70.88000000000001,97.08229119270365L70.9425,100.21232360145314L71.19250000000001,107.86042444540672L71.4425,115.12900352422204L71.63,107.02874849459359L71.6925,104.36865706683783L71.755,99.85512923211266L71.88,101.54846905205171L72.005,108.66771668513732L72.5675,110.86690808725425L72.63000000000001,100.60919819707907L72.8175,96.91433899770414L72.88,108.47298139489382L72.9425,98.16661437626514L73.0675,88.41198422856444L73.13,92.94437487440786L73.505,84.6476493719991L73.75500000000001,89.27006240151978L73.8175,94.79634030845448L73.9425,89.06163708191215L74.06750000000001,89.35737908863592L74.255,98.70033193871068L74.3175,99.13079098229608L74.38,115.62700835846499L74.44250000000001,106.79389411309032L74.63,99.58285446767668L74.88,98.64061982948739L75.1925,95.13605286138203L75.25500000000001,93.7890452688534L75.3175,91.5279684543696L75.69250000000001,86.58846297958199L76.0675,96.30201522116539L76.31750000000001,100.74796605741514L76.505,104.03181158357908L76.75500000000001,109.325347215151L77.005,108.00835724377453L77.13,108.59009679921213L77.4425,96.92129607224747L77.63,100.0001209494565L78.9425,89.64201481931882L79.0675,105.91443640845917L79.13,98.20564426695042L79.38,103.33323791182151L79.50500000000001,94.1948868166952L79.755,96.11174437916843L79.88,99.52629123421268L80.31875000000001,110.75381101760502L80.69375,96.61679966098909L80.94375000000001,95.78443776223615L81.38125000000001,82.28576330986303L81.44375,81.21941247588579L81.50625000000001,89.28597127148682L81.56875,92.56624357388282L81.88125,94.62403708227349L82.00625000000001,92.6586460486361L82.19375,82.37276830656093L82.25625,89.17840008638684L82.38125,85.25803104082355L82.88125000000001,92.00334157371289L82.94375,96.40003600557368L83.13125,91.02042793102531L83.56875,89.11005311204208L83.75625,89.20874870848941L84.31875,88.3923315781654L84.44375,95.32859657873519L84.50625,95.19223296499683L84.56875000000001,98.64796528947392L84.75625,101.58047117918865L84.81875,104.09980608952667L85.06875,92.90773160959313L85.38125,77.59009351121053L85.44375000000001,73.16716673572124L85.69375,83.05940620931271L85.75625000000001,83.72654782271117L85.81875,95.16965949529575L85.88125,89.3075546416022L86.13125,92.10961074350176L86.19375000000001,86.78512652023107L86.38125000000001,94.14380318486593L86.44375,89.04028970122496L86.94375,86.00477435118593L87.19375,74.51884361461777L87.31875,75.85036783647304L87.44375000000001,80.4137970846076L87.50625,88.1918085242021L87.94375,81.21358781116547L88.00625000000001,81.81097822602808L88.06875,76.82935815365659L88.25625,82.67584254222946L88.75625,88.1696948120031L88.88125,93.97014352516352L89.13125,93.46577335986028L89.19375,93.28880627887779L89.50625,94.65199220793394L89.94375,98.97772569807356L90.63125000000001,91.30478782917801L90.75625000000001,88.20631741075252L91.13125,84.7152507957946L91.19375000000001,93.98067385949027L91.31875,87.03077186940511L91.3825,77.18470041523327L91.6325,85.53308726130257L91.88250000000001,81.24475913945196L92.0075,68.51131082813137L92.32000000000001,82.43723804606206L92.38250000000001,74.08408438259099L92.445,81.25818572587922L92.94500000000001,76.1071372767029L93.32,82.87362462898335L93.57000000000001,74.0158404268041L93.6325,77.99527085764497L93.69500000000001,79.21230533685265L94.2575,70.03968095379838L94.3825,78.91295152771224L94.57,69.44157251907762L94.94500000000001,77.44595686149988L95.445,83.80746031407679L95.57,78.94685744732395L96.82,89.66010221697391L96.88250000000001,95.86878860291165L97.1325,85.50308274315681L97.19500000000001,87.56343356368528L97.2575,77.33804959577513L98.38250000000001,84.85277149663412L98.69500000000001,80.39365364283132L99.13250000000001,81.11980674313841L99.195,86.67656405520475L99.57,90.34439807223859L99.695,84.110977610655L100.0075,80.66677882713516L100.1325,93.59710820093304L100.2575,88.48802455301723L100.50750000000001,89.86003108479328L101.13250000000001,86.3970136903824L101.6325,85.1188867032209L101.69500000000001,71.16164102628265L101.75750000000001,68.75982058656153L101.88250000000001,76.03265321619479L102.3825,66.86761106146402L102.50874999999999,60.24628324509929L102.88375,59.950692143881284L103.00875,68.25303885477693L103.13375,70.18008425480515L103.19625,78.58600604160826L103.38374999999999,79.08252153822843L103.50875,79.87253233211669L103.69624999999999,84.15280684156403L104.19625,79.81243938725376L104.63374999999999,72.19964791413493L105.00875,63.809383918935524L105.25875,75.62376345239116L105.32125,67.5844306899538L105.38374999999999,86.62439554110291L105.44625,78.038609104225L105.82124999999999,71.33690641823453L106.44624999999999,61.45083991805717L106.57124999999999,66.73664497533716L106.75875,73.80513728704891L106.82125,76.72864511636992L107.00874999999999,83.35055460133829L107.38375,80.65025585650608L107.50874999999999,82.29574905056919L107.69625,72.81259180871508L107.88375,69.03223892311966L108.07124999999999,76.81566321138249L108.13375,76.53855453194315L108.50874999999999,78.07513827891376L109.25874999999999,69.96321124105212L109.94625,75.20813581778468L110.19624999999999,84.17611051677166L110.75875,78.49300678635916L111.07124999999999,77.02678496226292L111.13374999999999,73.73192735608642L111.32125,76.88346100127612L111.38374999999999,76.98659349085796L111.50875,70.3334727626611L111.57124999999999,72.3645967080228L112.82125,80.26076491623763L112.88375,75.35060983974618L112.94624999999999,76.17792044708274L113.25875,78.83987438295134L113.44625,85.09573926045259L113.635,89.79037451996119L113.75999999999999,95.71379019715074L114.01,86.41737323938422L114.07249999999999,79.77512209703966L114.26,78.5074408119347L114.50999999999999,70.93627573316576L114.63499999999999,76.52039830788601L115.51,75.46864989559815L116.0725,66.57397474959252L116.135,69.83724207187907L116.8225,68.59017233607844L117.3225,74.65999301679268L117.38499999999999,70.08438303930147L117.5725,63.620502593023346L117.69749999999999,66.56265661396382L117.76,65.82850305928743L118.26,64.85672402795537L118.3225,62.673993412245494L118.385,71.71885694045802L118.635,78.1689659198678L118.75999999999999,86.27712889717988L118.88499999999999,80.50233801835049L119.385,71.41953108471415L119.6975,76.27106457589952L119.76,71.47171966705962L119.94749999999999,82.32364570293473L120.38499999999999,77.42839235562091L121.135,86.35478765502737L121.44749999999999,68.41839682952208L121.51,58.77249445202777L121.63499999999999,68.83691752526497L121.6975,72.8944245741078L122.07249999999999,82.14681848514292L122.50999999999999,73.6002753728684L122.5725,82.20978375399444L123.13499999999999,74.27497164843713L123.385,74.67910069813541L123.51,67.14911524842671L123.75999999999999,66.35460142888557L124.32249999999999,55.29943937961474L124.69875,55.38983624628797L124.76125,56.083929768458106L125.07375,58.27209941602867L125.57375,66.21926023777425L125.69875,67.24741252139326L126.13625,70.40945381610298L126.19875,65.15572533476113L126.44875,72.03127228137865L126.76125,78.45261318905092L126.94875,80.59293909595895L127.07375,81.15090838832826L127.26125,75.73889264485777L127.44874999999999,80.70854360582443L127.69875,78.17099491571413L128.19875,60.81358771647392L128.69875000000002,60.932633942029284L128.82375,59.54138689486952L128.94875,69.42766111641392L129.13625000000002,63.359803512444245L129.19875,55.32953372989198L129.57375,64.7922412229316L129.63625,59.38654496236332L130.13625,66.79434679941728L130.32375,59.375776891795226L130.38625,57.120770589533834L130.44875,55.67818606421389L130.51125000000002,48.66146541604965L130.63625,58.89008104295358L130.82375000000002,52.60024319475288L131.26125000000002,54.72476827569396L131.32375,51.942127478200504L131.76125,60.5850693557945L131.82375,69.62238671734747L131.88625000000002,65.75257742724796L132.44875,79.74490583134883L132.69875,75.26684872785752L132.82375,67.43593654051428L132.88625,57.968572644301375L133.01125,63.964737614013345L133.32375,67.80952438658987L133.38625000000002,61.971511751094596L133.51125,60.60190119128177L133.57375,67.21133658213405L133.63625,68.2325617260027L133.94875,66.31330745463572L134.82375,64.11142807629707L135.38625,76.36017821252186L135.7,70.38219385267294L136.1375,75.51248864159314L136.20000000000002,67.94885338115607L136.7625,70.8834297377667L137.2,65.08077556061106L137.70000000000002,59.664629110336804L137.7625,55.52930669649318L137.95,64.91210500289236L138.3875,65.89064706823054L138.5125,70.93399456418045L138.76250000000002,65.02563250067088L139.38750000000002,55.978387201929564L139.45,57.23047215159092L139.6375,60.31798299798578L139.95000000000002,69.0379597095692L140.2,71.19731140368899L141.01250000000002,66.10315857072898L141.1375,67.99533630454677L141.20000000000002,73.248295421755L141.575,74.55685078820925L141.63750000000002,76.37058230797524L141.7,76.15365348412821L141.825,65.86385957094569L141.95000000000002,73.74727109812488L142.70000000000002,73.31390664857659L143.5125,76.14034954889381L143.825,77.88996867376106L144.20000000000002,81.88462068623457L144.575,78.00253754845954L144.63750000000002,69.14572058260906L145.0125,75.81712900483878L145.26250000000002,78.01754430409285L145.3875,68.5168692449201L145.5125,68.17461739656149L145.88750000000002,83.89172500558604L146.075,91.20990377776566L146.2,85.58905178592426L146.3875,77.68167592240684L146.575,73.09767104749592L146.70125000000002,83.88010864323479L147.26375,73.55895951743946L147.38875,54.07236911866683L148.13875,46.418017529438686L148.20125000000002,54.28564855255303L148.26375,59.627736787781785L149.13875000000002,63.53212941064851L149.38875,63.4860850638251L149.63875,72.37813757726877L149.88875000000002,57.5886895199053L149.95125,49.428654274798276L150.13875000000002,51.36039940747476L150.26375,48.5939432244742L150.38875000000002,46.9895759954978L150.88875,47.412642359106286L151.01375000000002,54.338494506372925L151.20125000000002,62.40370650052124L151.38875000000002,60.07168279590937L151.57625,51.73233129952715L151.70125,64.27143502350182L151.88875,56.50481241901946L152.07625000000002,60.052020197327906L152.13875,49.309508016834315L153.07625000000002,54.755424714219885L153.51375000000002,55.682739525353696L153.82625,55.62868058044667L153.88875,55.579454996883015L153.95125000000002,68.76740039292748L154.07625,65.6947486519497L154.13875000000002,70.8583569814752L154.26375,68.22537906814652L154.38875000000002,64.17861566887088L154.63875000000002,64.9345012217238L154.88875,69.82381025229915L155.20125000000002,68.81670713859543L155.32625,61.41574089137809L155.76375,68.33082908960314L155.88875000000002,64.36521969941174L155.95125,67.11348745485655L156.13875000000002,61.34818474697296L156.26375,63.59261501633006L156.51375000000002,71.18940662299053L156.70125000000002,70.70098445009057L156.82625,63.99634001531358L156.95125000000002,64.02379804993738L157.01375,69.52941443898237L157.63875000000002,70.55489509005844L157.70125,81.82345246818632L157.89,65.71226245436699L158.0775,58.03109032728999L158.265,54.66360381462688L158.3275,51.401895143445884L158.515,53.11093966508028L158.57750000000001,54.18631727250343L158.7025,44.609832799581596L159.01500000000001,50.992651388733364L159.07750000000001,49.00732262256881L159.515,54.517545262550485L159.5775,48.70510973254801L159.8275,51.06852038498343L159.9525,37.27430952990696L160.07750000000001,42.125337338150246L160.32750000000001,44.60592694568123L160.95250000000001,59.45867585180147L161.0775,64.31857431878679L161.20250000000001,55.77704241842055L161.265,55.006468426460614L161.515,64.13074512503471L161.7025,55.31658988618918L162.20250000000001,41.0818248811986L162.45250000000001,52.57379308212825L162.64000000000001,54.700231493364285L163.32750000000001,49.580528189342346L163.5775,44.19086618562241L163.70250000000001,50.80502486052116L163.89000000000001,55.468659724995206L164.015,59.084153820615086L164.0775,61.88915750898833L164.2025,60.89345350086535L164.32750000000001,60.963738504549724L164.39000000000001,65.31430378277241L164.515,55.401487043722355L164.64,62.849821947025376L164.7025,59.47475467389704L164.95250000000001,59.716294787647925L165.01500000000001,56.81448590135298L165.14,59.979600631720956L165.3275,52.20066515309152L165.64000000000001,62.766573574720695L166.39,65.53054323263429L166.64,58.06692379558204L166.8275,57.436822867548L167.4525,58.61536354030859L167.8275,67.00709848418164L167.89,71.19640636279235L168.01500000000001,67.10553469125495L168.20250000000001,56.23634771461097L168.39000000000001,62.02685446062027L168.45250000000001,63.98171797866273L168.515,62.31592898055703L169.07874999999999,58.88486184279087L169.14124999999999,68.41374264500341L169.20375,64.2421767504431L169.32874999999999,66.55691826617497L170.07875,66.68237344949551L170.14124999999999,46.02940808958371L170.20374999999999,47.74516394110819L170.26625,40.980277907900074L170.76624999999999,46.765228068426154L171.32875,49.84886268223116L171.64124999999999,59.592494655680966L172.39125,60.44946097132056L173.26625,54.28229504648188L173.45375,57.092797049639884L173.51625,51.482317023729195L173.57874999999999,54.81628840759694L173.70375,44.24299653310575L174.20374999999999,43.65720150651114L174.32875,51.99668629364389L174.45374999999999,50.958763396392314L174.57875,61.99609904680206L175.20375,60.02714412490299L175.70374999999999,51.64010156061293L175.76625,52.50845197196794L176.07874999999999,54.89041081608208L176.45375,54.50411925909172L176.95374999999999,60.195982131183015L177.32875,46.75135198511964L177.39124999999999,43.15383326360376L177.51625,56.50017349331853L177.64124999999999,49.312238994783655L177.95375,63.468173364022235L179.14124999999999,56.94016915513218L179.26625,57.6837381674401L179.51624999999999,68.09995958636607L179.57874999999999,58.7518034218303L180.14249999999998,52.41986867419189L180.2675,52.62759425582907L180.455,43.14950965630288L180.51749999999998,42.58345274202392L180.57999999999998,32.573122959134764L181.20499999999998,34.42121558345323L181.2675,41.45667194373314L181.455,53.860163999425254L181.57999999999998,60.527909257254635L181.82999999999998,53.417531798138285L181.955,56.20378889866278L182.1425,57.0712917829122L182.26749999999998,46.09644577953071L182.3925,46.34765018256212L182.5175,44.27144688776883L183.07999999999998,49.930800261567526L183.32999999999998,51.831243495896416L183.58,47.07883476497392L183.70499999999998,52.98237637611864L183.8925,55.54938482114346L184.08,53.376482865786286L184.455,49.436480151378646L184.5175,44.90686156827746L184.76749999999998,46.196322529567254L184.955,59.42303116644423L185.1425,61.18462702728128L185.26749999999998,53.71926565173811L185.82999999999998,55.330996203010145L186.0175,60.79284959724994L186.07999999999998,63.50064983292383L186.1425,51.53676074936365L186.205,57.78299561421338L186.3925,59.42820634846406L186.6425,62.31840507683407L187.0175,60.72211077292933L187.08,62.67358490081372L187.2675,71.78880975396486L187.76749999999998,67.78404024691007L188.08,65.42115407312832L188.2675,56.45538048764472L188.45499999999998,56.66014485197957L188.5175,53.8052338616494L188.64249999999998,53.98634715958552L188.82999999999998,54.72808037938063L188.89249999999998,54.56672188485497L189.0175,46.65102389795834L189.3925,52.51403436052567L189.58,65.43443601936943L189.7675,59.675342786160016L189.83,60.72872667888706L190.08,65.37087803059222L190.455,70.24210634161531L191.20625,61.16324587173057L191.45625,54.06979699924577L191.58124999999998,59.9278825607868L191.89375,52.03501627963611L192.20624999999998,58.164393834276794L192.76875,54.07256984992682L193.01874999999998,57.074123020130145L193.26874999999998,57.55734390707103L193.45624999999998,59.9758314596546L194.39375,47.96805918962437L195.01874999999998,37.510612347048834L195.08125,46.74430436446153L195.14375,50.10954454383669L195.33125,52.10278727317696L195.70625,47.09956271147365L196.08124999999998,44.64703843032876L196.14375,43.36905579967453L196.20625,47.01700676638143L196.26874999999998,47.840164830869355L196.33125,59.101329289590566L196.39375,55.305747192007274L196.45624999999998,56.45026877196936L196.95625,41.846279593703684L198.39374999999998,47.559497270604254L198.45625,44.22027921729867L198.51875,38.292479697460124L198.95625,41.09558836002438L199.64374999999998,46.802907992044425L199.76875,52.40457111136655L200.01875,46.93606320126591L200.51874999999998,45.68642651717286L200.58125,43.46631536076538L200.76874999999998,40.67189487386332L200.89375,34.82517006085922L200.95624999999998,51.21566533552131L201.08125,49.235329044175046L202.20749999999998,51.55568994692403L202.52,48.438597517515234L202.7075,44.318996245771956L202.895,43.63146760497381L203.45749999999998,47.513961906201644L203.52,48.51498197992484L203.89499999999998,51.36061882662686L204.02,53.26810081035826L204.08249999999998,46.84899247751477L204.4575,44.484227084964004L204.645,43.88539709082221L204.70749999999998,41.71890388171269L205.02,44.617648536857956L205.14499999999998,46.3747225893556L205.27,49.23245850922416L205.4575,45.749762581120365L205.52,42.700658218949286L206.01999999999998,32.5554704485038L206.3325,46.215701924642104L206.45749999999998,43.20039588623064L206.52,44.657995821422304L206.5825,36.457246167835564L207.26999999999998,34.06777338207564L207.89499999999998,41.128704745243226L208.395,36.724203271506724L209.4575,47.46960136409359L209.77,44.10992160725232L209.895,44.00772930934423L209.9575,51.94519905355757L210.145,52.73699220157698L210.77,52.56823735752286L211.14499999999998,50.608998833192686L211.395,52.21085384537015L211.7075,46.65906651753809L211.8325,57.48743071086027L211.95749999999998,45.875533932553026L212.0825,43.219456823043856L212.20749999999998,41.32864841467145L212.4575,45.877281322861904L212.52,40.9485667251802L212.7075,39.59796416507976L212.77,40.64788455595479L212.83249999999998,49.2535847485764L213.0825,41.07757282402156L213.14625,35.53329545888391L213.33375,23.722607890564717L213.39624999999998,33.91280972945606L213.52125,39.46273017139171L213.83374999999998,34.766242839163255L213.95875,41.61882385069251L214.02124999999998,33.044993429289775L214.08375,37.49857559193114L214.45874999999998,39.40015271266924L214.58375,48.38304373164988L214.77125,45.0244088140077L215.33374999999998,38.95342758155098L215.52124999999998,42.52053316691703L215.64625,44.136201014763174L215.77124999999998,45.2109356412621L215.89625,46.47202675008046L216.02125,51.28460515471811L216.58374999999998,45.87378516536276L216.83374999999998,46.06388014129868L216.95875,46.8791755856669L217.14625,39.66428541398892L217.64624999999998,49.06192130166045L217.89624999999998,60.588263898272544L218.14625,57.065690549989895L218.52124999999998,54.577058040043624L218.95874999999998,55.66221382793235L219.08375,45.56887731353845L219.39624999999998,44.184333423812035L219.83374999999998,43.15476648051231L220.02124999999998,41.987714624635544L220.08375,47.71988957245529L220.39625,48.516290987791365L220.45874999999998,49.855000811158476L220.52125,49.23350275054452L220.64624999999998,41.426216984577394L220.83374999999998,37.19263814973081L221.14625,37.49623502273974L221.33375,41.61278534736181L221.39625,42.00774106592769L221.52124999999998,39.694725039503254L221.89624999999998,40.917621267487505L222.52125,41.257208669139544L222.95875,47.584427185681164L223.14625,50.12052908085113L223.20874999999998,51.25092878773292L223.64624999999998,53.683499333630536L223.70875,51.76408464101635L223.77125,61.15242023373983L223.83374999999998,60.350398229555L224.14625,55.194764028730916L224.2725,49.25433067398566L225.7725,46.13343114586863L225.96,48.222345508366345L226.085,48.054846735950264L226.3975,40.388256108420336L226.58499999999998,39.26177779502376L226.6475,33.352232137774195L226.77249999999998,32.90373180530304L226.835,33.188930977713085L227.2725,36.876366288154856L227.39749999999998,34.909668483386554L227.5225,26.123977969914705L228.08499999999998,31.63358644459086L228.3975,39.91246554306849L228.45999999999998,39.202033103362425L228.835,45.42089693055442L228.96,45.52846672500522L229.085,51.62926431678575L229.21,51.99468755180796L229.46,45.780473697189194L229.6475,46.42411779208834L229.8975,45.265061107159966L230.46,41.06007675884493L230.5225,32.91409198703633L230.58499999999998,36.95114323598955L230.96,40.41886126785437L231.45999999999998,35.480243263287235L231.70999999999998,38.638661982475185L231.835,40.146204891012076L231.89749999999998,33.40910798876206L231.96,41.75180745572172L232.21,45.533519110329365L232.52249999999998,41.11816333498311L232.95999999999998,45.70291593422846L233.46,41.38681470169473L233.71,31.986153207557976L233.96,38.62779976810728L234.085,44.746552630306894L234.45999999999998,55.20544694794616L234.64749999999998,54.518053546963685L234.7725,47.88703979197439L234.89749999999998,43.32432953258868L235.0225,41.77468527725907L235.21,35.957933336543704L235.27375,37.77860299730966L235.46124999999998,37.255069901635096L235.71125,36.29294644870478L236.21125,29.73546635555101L236.52374999999998,39.631005654506L236.58625,36.61894624382222L236.83625,29.79686795714207L237.27375,26.53187249436695L237.96125,25.07781629003273L238.14875,20.054915093621815L238.21124999999998,27.992148718815145L238.39875,32.71446398049014L238.71125,37.21001050832248L239.08624999999998,44.62571028448565L239.14875,42.42645128388381L239.39875,43.68056448481886L239.52374999999998,37.02578142881757L239.89875,43.16733819766699L239.96125,42.23427132680331L240.08625,37.4909758931168L240.33624999999998,38.19363560689277L240.77374999999998,32.409517989668416L241.14875,28.801096036610005L241.33625,36.17402171331901L241.71125,43.13137142420939L242.21125,31.542459218161923L242.39875,32.71291005682042L242.52375,28.240139500001305L242.58625,34.22208080360525L242.89874999999998,30.84510816788756L242.96125,29.494829571364676L243.14874999999998,35.31906959562414L243.27375,34.11948879883403L243.33624999999998,40.47829811550426L243.46125,40.246178531944594L243.77374999999998,42.39840097792023L244.39874999999998,46.36508262332876L244.77375,56.83471674374162L244.89875,40.847065009401945L244.96125,38.74128094234217L245.21125,37.54272444253607L245.27374999999998,43.044267034129604L245.52375,37.449637058190746L245.64875,45.837714363820766L246.02375,39.74469654487271L246.08624999999998,37.136768211014584L246.27375,30.124030364641442L246.46249999999998,24.19990899692766L247.2125,22.757966416444987L247.52499999999998,22.539594580424477L247.5875,29.57821619871629L247.7125,33.48956027897762L248.275,33.90223253856908L248.3375,21.738458386333946L248.7125,20.319609233682456L248.775,21.766386567375605L249.65,27.423961024232284L249.89999999999998,33.97684421041998L250.025,30.492014451944414L250.15,33.989345134678814L250.33749999999998,37.52782560886118L250.52499999999998,40.15980560590623L251.0875,34.20179128923618L251.4625,33.324084084177315L251.58749999999998,30.71216424001281L252.275,28.69439254924552L252.3375,28.30763534089317L252.7125,26.244188138129573L253.15,29.25639031318667L254.65,17.129979984254305L254.7125,26.60200449223936L254.8375,31.138620242396172L255.02499999999998,25.888989905558446L255.15,24.409764182592937L256.46250000000003,30.867973211260278L256.65000000000003,35.672138352359894L256.9,30.88328622963334L256.9625,29.022795390567552L257.025,38.39423809194L257.15,38.79470436528473L257.33875,29.831254048947073L257.52625,38.70155921425825L257.65125,34.93924746259253L257.77625,39.54654047640139L258.21375,48.48633326577689L258.40125,35.36306932425654L258.46375,31.055031979852203L258.65125,35.0958759661429L258.96375,47.28643654603863L259.46375,33.9910536002084L259.71375,35.131726276336025L259.83875,30.271926279828648L259.96375,21.540236234427823L260.02625,25.69465704383495L260.40125,26.67219001154598L260.65125,33.20600205069533L260.77625,22.555961515395865L260.90125,24.624576720583377L261.08875,32.466868890570936L261.65125,40.83488179909753L261.77625,30.016367089934334L261.83875,34.22272502801954L262.08875,28.439802341918323L262.40125,24.461280475197157L262.52625,34.40317403573977L263.15125,24.582568261997864L263.27625,28.112602758068732L263.40125,27.00248208719205L264.21375,32.964199546171784L264.46375,40.4521159191093L264.58875,47.520238057324946L265.21375,47.79822515417476L265.52625,52.85939024831089L265.96375,45.16232604351774L266.15125,36.04021067848987L266.27625,38.12913156733893L266.65125,24.225609877459505L267.52625,30.215280088851358L267.58875,27.10776108198621L267.65125,36.15264354327917L267.77625,28.216659368155064L267.96375,19.099340991099012L268.08875,26.13111810007493L268.4025,34.42726871604634L268.65250000000003,25.792340344507153L268.71500000000003,34.41573152160129L269.09000000000003,30.574284105609934L269.1525,27.61062187716209L269.215,30.436499469070696L269.52750000000003,27.863829502110036L269.59,21.518299643293687L269.84,32.097061550890885L270.5275,34.00965211386202L270.9025,35.22036729592725L271.1525,25.993605376224593L271.27750000000003,28.26692488899826L271.46500000000003,36.47707804019939L271.59,26.772348009311372L271.965,24.609110543424208L272.1525,26.320814392904623L272.4025,30.24039596218097L272.6525,26.060380266406582L272.7775,18.460367286708305L272.96500000000003,24.245157638981624L273.09,24.007937201464216L273.34000000000003,24.733757904152725L273.465,30.311229473936947L273.6525,25.40139499970303L273.965,22.768113333717395L274.21500000000003,24.306087560333452L274.2775,23.05765017247495L274.40250000000003,20.62284999118026L274.965,20.487409335528525L275.0275,16.34231992438174L275.71500000000003,13.31397932368094L275.84,13.39918304875411L275.90250000000003,28.60199429303094L276.34000000000003,17.46021058061254L276.465,17.87352541841375L276.52750000000003,26.669956814879896L276.59000000000003,27.86110161911256L276.6525,29.367891662163515L276.9025,21.998512374340095L277.02750000000003,22.90819833369494L278.4025,25.57226857630002L278.59,23.84622313974313L279.15250000000003,16.04117560082031L279.34000000000003,13.939865106142065L279.465,13.410440892076622L279.46625,15.122155648527212" style="fill: none;" fill="none"></path></g></g></g></g><g opacity="0.2"><g><g><g><path stroke="rgb(255, 112, 67)" stroke-width="2px" d="M28.5,187.75344917990944L29.0625,175.5985669222745L29.4375,181.74835413152522L29.5625,200.26728404651988L29.625,177.30586034601384L29.9375,193.75879114324397L30.4375,162.56003778631037L30.875,214.61727107654917L31.375,186.66066533868963L31.5625,129.45454545454547L31.625,159.78131866455078L32.0625,142.7625205300071L32.375,177.10098266601562L32.875,205.91092647205699L33.125,142.36622203480113L33.6875,180.6896445534446L33.875,179.0787714177912L34.375,171.5052726052024L34.6875,162.97405242919922L34.875,147.33378046209162L35.4375,155.39931904185903L35.5,157.50303441827947L36.0625,137.28051480379972L36.06375,132.48585857044566L36.37625,159.76335560191762L36.50125,144.5280241532759L36.56375,147.51797901500356L36.81375,112.7132797241211L37.31375,172.60608118230647L37.81375,156.42426300048828L37.87625,157.031982421875L37.93875,167.97605549205434L38.18875,185.5515233820135L38.87625,137.02903192693537L39.25125,110.4249336936257L39.56375,157.79914717240766L39.75125,149.48916279185903L40.501250000000006,130.77554043856534L40.876250000000006,136.05501417680222L41.18875,144.1974667635831L41.37625,132.151535727761L41.626250000000006,149.48916279185903L41.87625,150.47515591708097L42.001250000000006,121.67616896195844L43.18875,124.9440883289684L43.50125,118.37349631569603L43.56375,156.359262639826L43.87625,137.11958798495206L44.126250000000006,123.57025354558772L44.18875,129.4094834761186L44.31375,145.7482778375799L44.81375,132.6370939774947L44.876250000000006,99.86623313210227L45.251250000000006,118.96677121249112L45.31375,134.87068661776456L45.37625,145.5250667225231L45.563750000000006,120.35918634588069L46.12625,113.16266493363814L46.62625,117.85830827192828L47.565,133.60487712513316L47.815,125.24643568559125L48.19,151.94683074951172L48.440000000000005,127.16798955743963L48.565,96.29071946577592L49.315,113.27272727272727L49.3775,115.1640957919034L50.3775,155.21771309592506L51.19,120.74128723144531L51.2525,108.37405811656605L51.377500000000005,100.78457156094638L51.752500000000005,127.36657090620562L52.315,107.59300440007989L52.440000000000005,122.15382593328303L52.5025,119.90245541659269L52.69,131.4914086081765L53.065,99.95302373712714L53.6275,100.14487665349786L53.815000000000005,119.76745466752485L53.877500000000005,110.83789894797586L54.44,108.30245278098367L54.5025,94.24817726828836L55.44,95.60343170166016L55.565,129.68244795365766L55.690000000000005,114.51748726584694L56.565,105.18181818181817L56.8775,102.78964441472833L57.0025,92.34366052800958L57.19,105.18181818181817L57.69,84.29497389359908L58.065,107.20164420387961L58.190000000000005,119.3409090909091L58.31625,81.25711753151633L58.69125,90.81272610751066L59.00375,102.10439369895242L59.628750000000004,96.52843683416192L59.75375,107.41689231178977L60.003750000000004,104.90434750643644L60.378750000000004,98.60153475674716L60.628750000000004,90.5563666603782L60.691250000000004,87.61752319335938L61.003750000000004,82.32613580877131L61.128750000000004,112.0618563565341L61.19125,109.55529923872514L61.31625,131.6865331476385L61.441250000000004,111.27771620316939L61.50375,87.4762261130593L61.816250000000004,85.4676347212358L61.87875,101.07611638849433L62.441250000000004,106.88158069957386L62.816250000000004,98.7471528486772L62.941250000000004,106.59633220325817L63.253750000000004,121.67141584916547L63.566250000000004,114.35149869051847L63.69125,137.061748157848L64.44125,70.30718023126775L64.87875,135.02531710537997L64.94125,119.13164867054331L65.06625,125.5448324030096L65.12875,94.67762409556995L65.19125,122.12610973011363L65.25375,93.74292755126953L65.37875,103.49150016091086L65.56625,109.80517716841264L65.81625000000001,110.59018152410333L66.12875,112.58562469482422L66.31625,94.0065092606978L66.56625,62.43195134943181L66.75375,95.38991199840198L66.94125,94.85892139781605L67.00375,84.95454545454545L67.19125,71.1815677989613L67.25375000000001,90.13673470237039L67.44125,93.60027243874289L67.50375,96.6039310802113L67.81625,104.08847878196023L67.87875,102.98322573575106L68.31625,86.33300989324397L68.50375,89.62234913219105L68.75375,102.65692762895064L68.94125,74.63924130526455L69.19125,116.573918429288L69.38000000000001,103.82427978515625L69.63,84.89973033558239L69.8175,88.23752663352273L69.88,104.89811290394177L69.9425,86.60035705566406L70.38,65.62499375776811L70.755,104.34712219238281L70.88000000000001,106.27515758167614L70.9425,104.90737221457742L71.19250000000001,119.332575711337L71.4425,126.03187214244497L71.63,94.87836595015092L71.6925,100.37851992520419L71.755,93.08483748002486L71.88,104.08847878196023L72.005,119.34658813476562L72.5675,114.16569519042969L72.63000000000001,85.2226333618164L72.8175,91.37205019864169L72.88,125.81094499067828L72.9425,82.7070638483221L73.0675,73.7800390070135L73.13,99.74296084317294L73.505,72.20256111838601L73.75500000000001,96.20368194580078L73.8175,103.08575716885653L73.9425,80.45958224209873L74.06750000000001,89.8009920987216L74.255,112.7147612138228L74.3175,99.77647954767401L74.38,140.3713344227184L74.44250000000001,93.5442227450284L74.63,88.76629499955611L74.88,97.22726787220348L75.1925,89.87920240922408L75.25500000000001,91.76853388006036L75.3175,88.13635323264383L75.69250000000001,79.17920476740056L76.0675,110.87234358354048L76.31750000000001,107.41689231178977L76.505,108.95757987282492L76.75500000000001,117.26565066250888L77.005,106.03287228670987L77.13,109.46270613236861L77.4425,79.41809498180042L77.63,104.61835826526989L78.9425,74.1048556241122L79.0675,130.32306879216975L79.13,86.6424560546875L79.38,111.0246283791282L79.50500000000001,80.48736017400569L79.755,98.9870307228782L79.88,104.64811151677911L80.31875000000001,127.59509069269353L80.69375,75.41128262606533L80.94375000000001,94.53589491410689L81.38125000000001,62.037751631303266L81.44375,79.6198862249201L81.50625000000001,101.38580946488814L81.56875,97.48665202747692L81.88125,97.71072734485973L82.00625000000001,89.71055949818005L82.19375,66.94395169344814L82.25625,99.3868477561257L82.38125,79.37747747247869L82.88125000000001,102.12130737304688L82.94375,102.9950776533647L83.13125,82.95101581920277L83.56875,86.24449088356711L83.75625,89.35679210316052L84.31875,87.16770588267933L84.44375,105.73299407958984L84.50625,94.9876875443892L84.56875000000001,103.83156377618964L84.75625,105.97923001376066L84.81875,107.87880845503373L85.06875,76.11961988969283L85.38125,54.61363636363636L85.44375000000001,66.53277657248758L85.69375,97.89776541969992L85.75625000000001,84.72726024280895L85.81875,112.33432700417258L85.88125,80.5143973610618L86.13125,96.3126948963512L86.19375000000001,78.79840018532492L86.38125000000001,105.18181818181817L86.44375,81.3850194757635L86.94375,81.45150132612748L87.19375,57.289947509765625L87.31875,77.84765416925603L87.44375000000001,87.2589409568093L87.50625,99.85882568359375L87.94375,70.74625674161045L88.00625000000001,82.7070638483221L88.06875,69.35692804509944L88.25625,91.44556912508878L88.75625,96.4104732166637L88.88125,102.67081659490411L89.13125,92.70921811190519L89.19375,93.02335565740411L89.50625,96.69677110151811L89.94375,105.46632593328302L90.63125000000001,79.79538102583452L90.75625000000001,83.55861178311436L91.13125,79.4786508733576L91.19375000000001,107.87880845503373L91.31875,76.60591888427734L91.3825,62.415593233975486L91.6325,98.05566753040661L91.88250000000001,74.81226695667614L92.0075,49.41113836115056L92.32000000000001,103.3261288729581L92.38250000000001,61.55435388738459L92.445,92.01933774081144L92.94500000000001,68.38056460293858L93.32,93.02335565740411L93.57000000000001,60.729164123535156L93.6325,83.96441650390625L93.69500000000001,81.03785705566406L94.2575,56.28074437921697L94.3825,92.2228573885831L94.57,55.234504006125704L94.94500000000001,89.45253337513317L95.445,93.34971549294211L95.57,71.65595314719461L96.82,105.72996937144886L96.88250000000001,105.18181818181817L97.1325,69.95452395352451L97.19500000000001,90.65395979447798L97.2575,61.9999736439098L98.38250000000001,96.12485434792258L98.69500000000001,73.70497686212713L99.13250000000001,82.20903639359908L99.195,95.01170002330433L99.57,95.84614909778942L99.695,74.76084691827947L100.0075,75.50048065185547L100.1325,112.99260226162997L100.2575,80.82439908114345L100.50750000000001,91.91804088245739L101.13250000000001,81.20248759876598L101.6325,83.20169622247869L101.69500000000001,50.22577251087536L101.75750000000001,65.15708992697976L101.88250000000001,86.94190216064453L102.3825,53.12004782936789L102.50874999999999,50.3142915205522L102.88375,59.50730549205433L103.00875,80.70655892112039L103.13375,73.0706523548473L103.19625,91.19488872181286L103.38374999999999,79.82729478315873L103.50875,81.05754852294922L103.69624999999999,90.57321860573508L104.19625,73.30188820578836L104.63374999999999,60.78046070445667L105.00875,51.22398792613636L105.25875,93.34533275257458L105.32125,55.52543154629795L105.38374999999999,115.18434281782672L105.44625,65.15992944890803L105.82124999999999,61.28435238924892L106.44624999999999,46.62174016779119L106.57124999999999,74.66535256125711L106.75875,84.40787575461648L106.82125,81.11390686035156L107.00874999999999,93.28341882879083L107.38375,76.59980773925781L107.50874999999999,84.7639888416637L107.69625,58.58785594593395L107.88375,63.36170959472656L108.07124999999999,88.49079964377664L108.13375,76.12289151278408L108.50874999999999,80.38001389936967L109.25874999999999,57.79532068425959L109.94625,83.07552268288352L110.19624999999999,97.62807256525214L110.75875,69.9683511907404L111.07124999999999,74.82745222611861L111.13374999999999,68.78964094682173L111.32125,81.61076146906072L111.38374999999999,77.14129222523083L111.50875,60.353791670365766L111.57124999999999,75.41128262606533L112.82125,92.10501722856002L112.88375,67.98537722500889L112.94624999999999,77.41888635808772L113.25875,82.83280528675427L113.44625,94.47953657670455L113.635,96.83232740922408L113.75999999999999,104.59891371293502L114.01,72.47274780273438L114.07249999999999,69.81174538352273L114.26,76.60591888427734L114.50999999999999,59.57952811501242L114.63499999999999,84.89658216996627L115.51,73.89102727716619L116.0725,53.23196203058416L116.135,74.73214305530895L116.8225,66.71956773237748L117.3225,83.76472403786399L117.38499999999999,63.220968073064626L117.5725,53.92468192360617L117.69749999999999,70.97588764537464L117.76,64.72727272727273L118.26,63.39905548095703L118.3225,59.399897488680764L118.385,85.28615223277698L118.635,87.8441293889826L118.75999999999999,98.43937336314808L118.88499999999999,71.84015170010655L119.385,57.79532068425959L119.6975,83.54836481267756L119.76,64.2727023037997L119.94749999999999,98.60153475674716L120.38499999999999,70.08551233465022L121.135,99.74438060413708L121.44749999999999,41.51381059126422L121.51,44.303640885786564L121.63499999999999,83.93355213512073L121.6975,78.98068514737217L122.07249999999999,96.02540935169567L122.50999999999999,60.78046070445667L122.5725,95.1240463256836L123.13499999999999,62.3727534901012L123.385,75.28529427268289L123.51,55.85413707386364L123.75999999999999,65.16283069957386L124.32249999999999,38.71669630570844L124.69875,55.52543154629795L124.76125,57.12507005171342L125.07375,61.55435388738459L125.57375,78.1400014703924L125.69875,68.78964094682173L126.13625,75.15251575816761L126.19875,57.27513261274858L126.44875,82.34459270130505L126.76125,88.0846245505593L126.94875,83.80342795632102L127.07375,81.98786232688211L127.26125,67.62086902965198L127.44874999999999,88.16302004727451L127.69875,74.36467188054866L128.19875,34.777476917613654L128.69875000000002,61.111203280362204L128.82375,57.45451632412998L128.94875,84.25707244873047L129.13625000000002,54.2580171064897L129.19875,43.28412905606356L129.57375,78.98630246249111L129.63625,51.278000571511015L130.13625,77.90604955499822L130.32375,48.24792203036222L130.38625,53.7382611361417L130.44875,53.514309276234016L130.51125000000002,38.13638444380328L130.63625,74.23300448330967L130.82375000000002,43.16548642245206L131.26125000000002,57.91155589710583L131.32375,47.76816628196022L131.76125,73.54948217218572L131.82375,83.17836275967686L131.88625000000002,59.94786349209873L132.44875,100.7333984375L132.69875,68.54976307262073L132.82375,55.689568259499296L132.88625,43.76752679998225L133.01125,72.95898506858133L133.32375,73.57670454545455L133.38625000000002,53.21449279785156L133.51125,58.5474853515625L133.57375,77.12548966841264L133.63625,69.76439944180576L133.94875,63.434426047585234L134.82375,60.80860900878906L135.38625,94.73330341685902L135.7,61.415217312899514L136.1375,83.20793082497336L136.20000000000002,56.603400490500704L136.7625,75.28529427268289L137.2,56.376794294877485L137.70000000000002,51.54040943492542L137.7625,49.32632307572797L137.95,78.98630246249111L138.3875,67.35846016623758L138.5125,78.49901580810547L138.76250000000002,56.16308940540661L139.38750000000002,42.40751925381747L139.45,59.10859957608311L139.6375,64.94924926757812L139.95000000000002,82.11792477694424L140.2,74.43633894486861L141.01250000000002,58.46192932128906L141.1375,70.83360290527344L141.20000000000002,81.12773409756748L141.575,76.51968383789062L141.63750000000002,79.0911795876243L141.7,75.8282602483576L141.825,50.429168701171875L141.95000000000002,85.57238838889383L142.70000000000002,72.66385997425427L143.5125,80.38001389936967L143.825,80.5143973610618L144.20000000000002,87.87659870494495L144.575,72.17941284179688L144.63750000000002,55.86049513383345L145.0125,85.8242416381836L145.26250000000002,81.31816725297408L145.3875,54.26585665616123L145.5125,67.66123962402344L145.88750000000002,107.46738641912286L146.075,102.18717193603516L146.2,77.15777379816228L146.3875,65.82061212713069L146.575,66.22166373512961L146.70125000000002,100.05376503684305L147.26375,58.07723582874645L147.38875,24.842483520507812L148.13875,34.93649014559659L148.20125000000002,66.08709508722478L148.26375,67.640869140625L149.13875000000002,69.38871834494851L149.38875,63.4170185435902L149.63875,85.7162163474343L149.88875000000002,35.40451743386009L149.95125,37.18860140713778L150.13875000000002,54.2580171064897L150.26375,44.444258949973374L150.38875000000002,44.58302515203303L150.88875,48.04724190451881L151.01375000000002,64.72727272727273L151.20125000000002,74.50152449174361L151.38875000000002,56.573647238991484L151.57625,39.22330405495384L151.70125,83.08009060946377L151.88875,44.85487851229581L152.07625000000002,65.37283186479048L152.13875,33.19573974609375L153.07625000000002,62.9242997602983L153.51375000000002,57.07371174205433L153.82625,55.54759216308594L153.88875,55.50561662153764L153.95125000000002,88.54931848699397L154.07625,61.08577104048295L154.13875000000002,78.6037694757635L154.26375,64.27591219815342L154.38875000000002,58.10847056995739L154.63875000000002,66.0683295510032L154.88875,77.15777379816228L155.20125000000002,67.30605246803977L155.32625,50.3142915205522L155.76375,78.7034613869407L155.88875000000002,58.41680561412464L155.95125,71.2358890880238L156.13875000000002,52.70023068514736L156.26375,66.95926042036577L156.51375000000002,82.58459403298117L156.70125000000002,69.9683511907404L156.82625,53.93937336314808L156.95125000000002,64.06498510187322L157.01375,77.7878390225497L157.63875000000002,72.09311606667258L157.70125,98.7262885353782L157.89,41.545477433638126L158.0775,46.509332136674374L158.265,49.612374045632095L158.3275,46.509332136674374L158.515,55.674506447531954L158.57750000000001,55.79938368363814L158.7025,30.245106090198846L159.01500000000001,60.56687927246094L159.07750000000001,46.02932947332209L159.515,62.78287922252308L159.5775,39.986456437544376L159.8275,54.61363636363636L159.9525,16.58299324729225L160.07750000000001,49.40187905051491L160.32750000000001,48.32681135697797L160.95250000000001,81.73779921098189L161.0775,71.60842201926492L161.20250000000001,42.964744567871094L161.265,53.85060743852095L161.515,77.81716017289595L161.7025,42.09535702792081L162.20250000000001,19.72967737371272L162.45250000000001,69.81174538352273L162.64000000000001,57.88988911021839L163.32750000000001,41.90097323330966L163.5775,36.106373180042596L163.70250000000001,60.72626287286931L163.89000000000001,62.46411202170633L164.015,64.50739496404475L164.0775,66.0966630415483L164.2025,59.399897488680764L164.32750000000001,61.069166010076344L164.39000000000001,71.84015170010655L164.515,40.532261935147375L164.64,74.02232430197976L164.7025,54.41215376420455L164.95250000000001,60.07860495827414L165.01500000000001,52.461772571910515L165.14,64.72727272727273L165.3275,40.532261935147375L165.64000000000001,78.61543620716442L166.39,69.67649771950461L166.64,46.87149464000353L166.8275,56.49167147549717L167.4525,60.38317454944958L167.8275,79.59470089999111L167.89,77.48036818070845L168.01500000000001,60.96922718394886L168.20250000000001,39.932567249644904L168.39000000000001,70.71261457963423L168.45250000000001,66.9140132557262L168.515,59.81724548339844L169.07874999999999,53.7382611361417L169.14124999999999,82.7070638483221L169.20375,57.98482790860264L169.32874999999999,70.02903053977273L170.07875,66.8705562244762L170.14124999999999,15.049960049715907L170.20374999999999,50.31879771839489L170.26625,30.83294885808772L170.76624999999999,55.4426533092152L171.32875,54.47431460293858L171.64124999999999,74.20794261585583L172.39125,61.73491044477983L173.26625,45.031546159224064L173.45375,61.30855005437678L173.51625,43.06659698486328L173.57874999999999,59.81724548339844L173.70375,28.38305872136897L174.20374999999999,42.77850896661931L174.32875,64.50591347434305L174.45374999999999,49.40187905051491L174.57875,78.55210252241655L175.20375,57.07371174205433L175.70374999999999,39.05953771417791L175.76625,53.81097758900036L176.07874999999999,58.4633490822532L176.45375,53.92468192360617L176.95374999999999,68.73377643931995L177.32875,26.5844067660245L177.39124999999999,37.757555181329906L177.51625,76.51968383789062L177.64124999999999,38.53033724698153L177.95375,84.70207491787998L179.14124999999999,47.148162841796875L179.26625,58.799091685901985L179.51624999999999,83.72429171475498L179.57874999999999,44.729569175026626L180.14249999999998,42.921966552734375L180.2675,52.9391826282848L180.455,28.9323827570135L180.51749999999998,41.73436737060547L180.57999999999998,17.557628284801154L181.20499999999998,37.19335451993075L181.2675,52.00985648415305L181.455,72.46540208296342L181.57999999999998,70.52952714399858L181.82999999999998,42.75196560946378L181.955,60.38317454944958L182.1425,58.37254610928623L182.26749999999998,29.63417677445844L182.3925,46.724456787109375L182.5175,41.15714194557884L183.07999999999998,58.419830322265625L183.32999999999998,54.68190834738992L183.58,39.95022166859022L183.70499999999998,61.83768879283558L183.8925,59.399897488680764L184.08,50.11712993275036L184.455,43.526476079767406L184.5175,38.11243369362572L184.76749999999998,48.130513971502126L184.955,79.2630941217596L185.1425,63.82702081853694L185.26749999999998,42.52122358842328L185.82999999999998,57.74859202991833L186.0175,68.98562968860973L186.07999999999998,67.56235018643467L186.1425,33.59092712402344L186.205,67.15234791148792L186.3925,61.8960224498402L186.6425,66.6537031693892L187.0175,58.32766931707209L187.08,65.60079609264027L187.2675,85.4616470336914L187.76749999999998,61.776885986328125L188.08,61.87682481245561L188.2675,43.006720109419376L188.45499999999998,56.96729139848189L188.5175,49.522867376154124L188.64249999999998,54.2580171064897L188.82999999999998,55.84068020907314L188.89249999999998,54.324684143066406L189.0175,34.777476917613654L189.3925,61.30855005437678L189.58,84.81503850763494L189.7675,51.036702936345876L189.83,62.30880251797764L190.08,72.33410505814986L190.455,77.54894880814986L191.20625,47.54495516690341L191.45625,43.42962369051847L191.58124999999998,68.71501090309836L191.89375,40.195716857910156L192.20624999999998,67.35846016623758L192.76875,47.93483387340197L193.01874999999998,61.576452775435015L193.26874999999998,58.28217523748225L193.45624999999998,63.60356278852983L194.39375,29.956400784579188L195.01874999999998,21.824442083185374L195.08125,60.59484239058061L195.14375,55.157404812899514L195.33125,55.0926513671875L195.70625,39.59472586891869L196.08124999999998,40.9682520086115L196.14375,41.45208185369319L196.20625,52.488933216441765L196.26874999999998,49.07490192760119L196.33125,75.99307597767223L196.39375,49.612374045632095L196.45624999999998,58.16705114191228L196.95625,19.94029582630506L198.39374999999998,56.12932378595525L198.45625,39.21145213734022L198.51875,29.400780417702407L198.95625,45.30025135387072L199.64374999999998,55.36388744007458L199.76875,60.80706579034978L200.01875,38.73330133611506L200.51874999999998,43.811971491033376L200.58125,40.136148626154124L200.76874999999998,36.48026414351031L200.89375,26.05508284135297L200.95624999999998,75.8014082475142L201.08125,46.26482460715553L202.20749999999998,55.03623130104758L202.52,43.76295887340197L202.7075,38.13959433815697L202.895,42.600174643776626L203.45749999999998,53.33770335804333L203.52,50.01651209050959L203.89499999999998,55.62907409667969L204.02,56.12932378595525L204.08249999999998,37.22032997824928L204.4575,40.937078996138126L204.645,42.987152099609375L204.70749999999998,38.469164068048656L205.02,48.965765519575626L205.14499999999998,49.010333668101936L205.27,53.519062389026985L205.4575,40.525718688964844L205.52,38.12700167569247L206.01999999999998,17.337688792835564L206.3325,66.70604913884944L206.45749999999998,38.67743682861328L206.52,46.844395724209875L206.5825,24.156121687455624L207.26999999999998,30.48356420343572L207.89499999999998,51.72010178999467L208.395,30.11745106090197L209.4575,63.58769850297408L209.77,39.07040197199041L209.895,43.85444086248225L209.9575,63.851403669877485L210.145,53.92468192360617L210.77,52.315105091441765L211.14499999999998,47.67014104669744L211.395,54.61363636363636L211.7075,38.331385525790125L211.8325,73.72997700084339L211.95749999999998,28.457688765092342L212.0825,39.23534115878019L212.20749999999998,38.49243580211291L212.4575,52.70023068514736L212.52,33.55549482865766L212.7075,37.57206032492897L212.77,42.222765142267406L212.83249999999998,62.16213503750889L213.0825,28.81355493718928L213.14625,27.21687941117719L213.33375,6.0065765380859375L213.39624999999998,49.19811248779297L213.52125,47.787610834295094L213.83374999999998,27.721511840820312L213.95875,51.8976953679865L214.02124999999998,20.18424779718572L214.08375,44.178948835893124L214.45874999999998,42.252518393776626L214.58375,61.857380260120735L214.77125,39.986456437544376L215.33374999999998,29.84695573286578L215.52124999999998,47.87119154496625L215.64625,46.55970278653231L215.77124999999998,46.82303758101031L215.89625,48.363663413307876L216.02125,58.50347276167436L216.58374999999998,37.757555181329906L216.83374999999998,46.34902260520241L216.95875,48.10211875221947L217.14625,28.84195015647194L217.64624999999998,63.15837513316761L217.89624999999998,77.8777777931907L218.14625,51.7818305275657L218.52124999999998,50.844109275124296L218.95874999999998,57.289947509765625L219.08375,30.42887254194781L219.39624999999998,42.10751758922228L219.83374999999998,41.61041606556287L220.02124999999998,40.23713684082031L220.08375,56.318151994185015L220.39625,49.71089311079547L220.45874999999998,51.86306554620916L220.52125,48.30125565962359L220.64624999999998,29.71528833562678L220.83374999999998,30.842269897460938L221.14625,37.95163033225319L221.33375,47.787610834295094L221.39625,42.600174643776626L221.52124999999998,36.225200999866814L221.89624999999998,42.75196560946378L222.52125,41.76658977161756L222.95875,57.07525496049361L223.14625,53.92468192360617L223.20874999999998,52.946528348055764L223.64624999999998,57.33235515247692L223.70875,48.88496260209516L223.77125,75.23492362282492L223.83374999999998,59.1473652232777L224.14625,47.461312727494686L224.2725,40.343680641867905L225.7725,41.45208185369319L225.96,51.35571705211292L226.085,47.803598577326L226.3975,28.888370167125373L226.58499999999998,37.57206032492897L226.6475,24.487913651899845L226.77249999999998,32.23098130659625L226.835,33.616729736328125L227.2725,42.40751925381747L227.39749999999998,31.959621776234002L227.5225,12.945442199707031L228.08499999999998,39.897999156605096L228.3975,52.3307841907848L228.45999999999998,38.13638444380328L228.835,54.74919267134233L228.96,45.68982141668147L229.085,60.78046070445667L229.21,52.542822404341265L229.46,36.459152915261L229.6475,47.38958393443713L229.8975,43.526476079767406L230.46,34.7526002363725L230.5225,20.6951148293235L230.58499999999998,43.006720109419376L230.96,45.620438315651626L231.45999999999998,28.072316256436437L231.70999999999998,43.376290061257095L231.835,42.40751925381747L231.89749999999998,23.303462635387092L231.96,54.26585665616123L232.21,51.206086592240766L232.52249999999998,34.49512967196378L232.95999999999998,52.58004483309658L233.46,34.91266285289416L233.71,17.88516096635297L233.96,48.590269608931095L234.085,53.92468192360617L234.45999999999998,70.89378842440517L234.64749999999998,53.48696344549006L234.7725,37.94051915949041L234.89749999999998,36.48026414351031L235.0225,39.45021889426491L235.21,27.23280542547053L235.27375,40.50960748845881L235.46124999999998,36.46977025812322L235.71125,34.84976126930931L236.21125,19.899246215820312L236.52374999999998,54.47431460293858L236.58625,32.1008571277965L236.83625,19.56375052712181L237.27375,21.634379300204188L237.96125,22.896731983531623L238.14875,12.520563299005687L238.21124999999998,39.897999156605096L238.39875,39.7979368730025L238.71125,43.95333030007103L239.08624999999998,55.74925994873047L239.14875,39.12756278298119L239.39875,45.56173428622159L239.52374999999998,27.043606844815343L239.89875,52.37967335094105L239.96125,40.83467102050781L240.08625,30.376032742587L240.33624999999998,39.24762517755681L240.77374999999998,23.733341563831658L241.14875,23.388463107022375L241.33625,47.23341022838244L241.71125,53.567395990545094L242.21125,14.159090909090907L242.39875,34.46858631480822L242.52375,21.53098366477272L242.58625,43.194992759011L242.89874999999998,25.779649214311092L242.96125,27.46941167658025L243.14874999999998,44.0554296320135L243.27375,32.32011760364881L243.33624999999998,50.01651209050959L243.46125,39.897999156605096L243.77374999999998,45.626734646883875L244.39874999999998,52.315105091441765L244.77375,72.5391679243608L244.89875,16.865587407892406L244.96125,35.5826048417525L245.21125,35.74488969282672L245.27374999999998,51.29658092151989L245.52375,29.057692094282658L245.64875,58.419830322265625L246.02375,30.605169816450626L246.08624999999998,33.22487571022728L246.27375,19.604923595081658L246.46249999999998,15.313726945356876L247.2125,20.595052545720876L247.52499999999998,22.212036826393813L247.5875,40.136148626154124L247.7125,39.356576399369686L248.275,34.52124092795631L248.3375,3.4927971579811867L248.7125,18.19133550470525L248.775,23.93655256791547L249.65,35.91032270951703L249.89999999999998,43.80616898970172L250.025,25.264769814231187L250.15,39.23534115878019L250.33749999999998,42.83554632013494L250.52499999999998,44.10777560147372L251.0875,25.264769814231187L251.4625,32.007523276589126L251.58749999999998,26.794284473765998L252.275,25.667735013094813L252.3375,27.72749952836469L252.7125,23.149017333984375L253.15,33.774693575772375L254.65,-1.0596355091441865L254.7125,40.81004125421697L254.8375,37.943543867631405L255.02499999999998,18.014544400301844L255.15,22.19092559814453L256.46250000000003,40.555286754261346L256.65000000000003,42.87838606400922L256.9,23.700008045543342L256.9625,26.232059131969123L257.025,52.45140214399858L257.15,39.395403775301844L257.33875,16.38607857444069L257.52625,52.00701696222478L257.65125,29.295779835094123L257.77625,46.45747999711469L258.21375,61.8960224498402L258.40125,15.67817341197619L258.46375,24.59297596324572L258.65125,41.15714194557884L258.96375,65.57227741588245L259.46375,14.047979181463063L259.71375,36.842735290527344L259.83875,22.98222628506747L259.96375,8.442701166326344L260.02625,31.926288257945686L260.40125,28.138489463112563L260.65125,43.006720109419376L260.77625,6.58090071244672L260.90125,27.72749952836469L261.08875,44.23030714555219L261.65125,53.38690116188742L261.77625,13.788595026189626L261.83875,40.532261935147375L262.08875,19.765418312766343L262.40125,18.493497675115407L262.52625,49.316014376553625L263.15125,9.851659601384938L263.27625,33.40765450217506L263.40125,25.337301080877126L264.21375,41.90677573464134L264.46375,51.683990478515625L264.58875,58.12242126464844L265.21375,48.21520579944959L265.52625,60.451137889515266L265.96375,33.616729736328125L266.15125,22.357037630948156L266.27625,41.26251290061256L266.65125,3.370327342640252L267.52625,39.19978540593928L267.58875,22.446482571688563L267.65125,49.71996723521838L267.77625,16.31268310546875L267.96375,5.423363425514907L268.08875,36.67878376353869L268.4025,46.87149464000353L268.65250000000003,12.839947787198156L268.71500000000003,47.35081828724256L269.09000000000003,24.812112981622874L269.1525,23.165128534490407L269.215,34.675315856933594L269.52750000000003,24.00482455166903L269.59,12.00000485506925L269.84,47.96520441228694L270.5275,36.87853795831853L270.9025,37.03644006902522L271.1525,12.153462496670812L271.27750000000003,31.67690415815875L271.46500000000003,48.79230776700106L271.59,12.215252962979406L271.965,21.364254344593377L272.1525,28.888370167125373L272.4025,36.11976831609553L272.6525,19.79035672274503L272.7775,7.060347817160874L272.96500000000003,32.92234316739169L273.09,23.652106545188218L273.34000000000003,25.822488958185374L273.465,38.67743682861328L273.6525,18.03664328835228L273.965,18.818190834739L274.21500000000003,26.61304890025744L274.2775,21.184994090687127L274.40250000000003,16.97064971923828L274.965,20.28424835205078L275.0275,10.124685807661564L275.71500000000003,8.771468422629624L275.84,13.526988636363654L275.90250000000003,51.406211159446016L276.34000000000003,0.747535011985093L276.465,18.493497675115407L276.52750000000003,39.86460390957919L276.59000000000003,29.647818825461655L276.6525,31.628076726740062L276.9025,10.94444344260475L277.02750000000003,24.27272727272728L278.4025,29.56837394020775L278.59,21.257154984907658L279.15250000000003,4.3336042924360925L279.34000000000003,10.787899364124627L279.465,12.616304570978343L279.46625,17.689727783203125" style="fill: none;" fill="none"></path></g></g></g></g></g></g><g transform="translate(30, 178)" clip-path="url(#clip_1)"><clipPath id="clip_1"><rect width="300" height="22"></rect></clipPath><g><g><line x1="0" y1="0" x2="0" y2="5" style="visibility: inherit;" fill="rgb(0, 0, 0)" stroke="rgb(204, 204, 204)" stroke-width="1px"></line><line x1="25" y1="0" x2="25" y2="5" style="visibility: inherit;" fill="rgb(0, 0, 0)" stroke="rgb(204, 204, 204)" stroke-width="1px"></line><line x1="50" y1="0" x2="50" y2="5" style="visibility: inherit;" fill="rgb(0, 0, 0)" stroke="rgb(204, 204, 204)" stroke-width="1px"></line><line x1="75" y1="0" x2="75" y2="5" style="visibility: inherit;" fill="rgb(0, 0, 0)" stroke="rgb(204, 204, 204)" stroke-width="1px"></line><line x1="100" y1="0" x2="100" y2="5" style="visibility: inherit;" fill="rgb(0, 0, 0)" stroke="rgb(204, 204, 204)" stroke-width="1px"></line><line x1="125" y1="0" x2="125" y2="5" style="visibility: inherit;" fill="rgb(0, 0, 0)" stroke="rgb(204, 204, 204)" stroke-width="1px"></line><line x1="150" y1="0" x2="150" y2="5" style="visibility: inherit;" fill="rgb(0, 0, 0)" stroke="rgb(204, 204, 204)" stroke-width="1px"></line><line x1="175" y1="0" x2="175" y2="5" style="visibility: inherit;" fill="rgb(0, 0, 0)" stroke="rgb(204, 204, 204)" stroke-width="1px"></line><line x1="200" y1="0" x2="200" y2="5" style="visibility: inherit;" fill="rgb(0, 0, 0)" stroke="rgb(204, 204, 204)" stroke-width="1px"></line><line x1="225" y1="0" x2="225" y2="5" style="visibility: inherit;" fill="rgb(0, 0, 0)" stroke="rgb(204, 204, 204)" stroke-width="1px"></line><line x1="250" y1="0" x2="250" y2="5" style="visibility: inherit;" fill="rgb(0, 0, 0)" stroke="rgb(204, 204, 204)" stroke-width="1px"></line><line x1="275" y1="0" x2="275" y2="5" style="visibility: inherit;" fill="rgb(0, 0, 0)" stroke="rgb(204, 204, 204)" stroke-width="1px"></line><line x1="300" y1="0" x2="300" y2="5" style="visibility: inherit;" fill="rgb(0, 0, 0)" stroke="rgb(204, 204, 204)" stroke-width="1px"></line></g><g transform="translate(0, 8)"><text x="0" y="0" dx="0em" dy="0.95em" style="text-anchor: middle; visibility: hidden; font-family: &quot;Helvetica Neue&quot;, sans-serif; font-size: 12px; font-weight: 200;" fill="rgb(50, 49, 63)" stroke="none" stroke-width="1px">-20k</text><text x="25" y="0" dx="0em" dy="0.95em" style="text-anchor: middle; visibility: inherit; font-family: &quot;Helvetica Neue&quot;, sans-serif; font-size: 12px; font-weight: 200;" fill="rgb(50, 49, 63)" stroke="none" stroke-width="1px">0</text><text x="50" y="0" dx="0em" dy="0.95em" style="text-anchor: middle; visibility: hidden; font-family: &quot;Helvetica Neue&quot;, sans-serif; font-size: 12px; font-weight: 200;" fill="rgb(50, 49, 63)" stroke="none" stroke-width="1px">20k</text><text x="75" y="0" dx="0em" dy="0.95em" style="text-anchor: middle; visibility: inherit; font-family: &quot;Helvetica Neue&quot;, sans-serif; font-size: 12px; font-weight: 200;" fill="rgb(50, 49, 63)" stroke="none" stroke-width="1px">40k</text><text x="100" y="0" dx="0em" dy="0.95em" style="text-anchor: middle; visibility: hidden; font-family: &quot;Helvetica Neue&quot;, sans-serif; font-size: 12px; font-weight: 200;" fill="rgb(50, 49, 63)" stroke="none" stroke-width="1px">60k</text><text x="125" y="0" dx="0em" dy="0.95em" style="text-anchor: middle; visibility: inherit; font-family: &quot;Helvetica Neue&quot;, sans-serif; font-size: 12px; font-weight: 200;" fill="rgb(50, 49, 63)" stroke="none" stroke-width="1px">80k</text><text x="150" y="0" dx="0em" dy="0.95em" style="text-anchor: middle; visibility: hidden; font-family: &quot;Helvetica Neue&quot;, sans-serif; font-size: 12px; font-weight: 200;" fill="rgb(50, 49, 63)" stroke="none" stroke-width="1px">100k</text><text x="175" y="0" dx="0em" dy="0.95em" style="text-anchor: middle; visibility: inherit; font-family: &quot;Helvetica Neue&quot;, sans-serif; font-size: 12px; font-weight: 200;" fill="rgb(50, 49, 63)" stroke="none" stroke-width="1px">120k</text><text x="200" y="0" dx="0em" dy="0.95em" style="text-anchor: middle; visibility: hidden; font-family: &quot;Helvetica Neue&quot;, sans-serif; font-size: 12px; font-weight: 200;" fill="rgb(50, 49, 63)" stroke="none" stroke-width="1px">140k</text><text x="225" y="0" dx="0em" dy="0.95em" style="text-anchor: middle; visibility: inherit; font-family: &quot;Helvetica Neue&quot;, sans-serif; font-size: 12px; font-weight: 200;" fill="rgb(50, 49, 63)" stroke="none" stroke-width="1px">160k</text><text x="250" y="0" dx="0em" dy="0.95em" style="text-anchor: middle; visibility: hidden; font-family: &quot;Helvetica Neue&quot;, sans-serif; font-size: 12px; font-weight: 200;" fill="rgb(50, 49, 63)" stroke="none" stroke-width="1px">180k</text><text x="275" y="0" dx="0em" dy="0.95em" style="text-anchor: middle; visibility: inherit; font-family: &quot;Helvetica Neue&quot;, sans-serif; font-size: 12px; font-weight: 200;" fill="rgb(50, 49, 63)" stroke="none" stroke-width="1px">200k</text><text x="300" y="0" dx="0em" dy="0.95em" style="text-anchor: middle; visibility: hidden; font-family: &quot;Helvetica Neue&quot;, sans-serif; font-size: 12px; font-weight: 200;" fill="rgb(50, 49, 63)" stroke="none" stroke-width="1px">220k</text></g><line x1="0" y1="0" x2="300" y2="0" fill="rgb(0, 0, 0)" stroke="rgb(204, 204, 204)" stroke-width="1px"></line></g></g></g></g></svg>